<svg width="40" height="41" viewBox="0 0 40 41" fill="none" xmlns="http://www.w3.org/2000/svg">
<circle cx="20" cy="20.5" r="20" fill="#FCE7D2"/>
<path d="M26.5625 28.5V27.0938M13.4375 28.5V27.0938" stroke="#313131" stroke-width="1.5" stroke-linecap="round"/>
<path d="M10.625 23.8125C10.625 22.9388 10.625 22.5021 10.7677 22.1574C10.958 21.6981 11.323 21.333 11.7825 21.1427C12.127 21 12.5639 21 13.4375 21H26.5625C27.4362 21 27.8729 21 28.2176 21.1427C28.6769 21.333 29.042 21.6981 29.2323 22.1574C29.375 22.5021 29.375 22.9388 29.375 23.8125C29.375 24.6862 29.375 25.1229 29.2323 25.4676C29.042 25.9269 28.6769 26.292 28.2176 26.4823C27.8729 26.625 27.4362 26.625 26.5625 26.625H13.4375C12.5639 26.625 12.127 26.625 11.7825 26.4823C11.323 26.292 10.958 25.9269 10.7677 25.4676C10.625 25.1229 10.625 24.6862 10.625 23.8125Z" stroke="#313131" stroke-width="1.5"/>
<path d="M28.4375 21C28.4375 17.4645 28.4375 15.6967 27.3391 14.5983C26.2408 13.5 24.473 13.5 20.9375 13.5H19.0625C15.527 13.5 13.7592 13.5 12.6608 14.5983C11.5625 15.6967 11.5625 17.4645 11.5625 21" stroke="#313131" stroke-width="1.5"/>
<path d="M26.0937 21V19.5937C26.0937 17.826 26.0937 16.9421 25.5446 16.3929C24.9954 15.8437 24.1115 15.8438 22.3437 15.8438H17.6562C15.8885 15.8438 15.0046 15.8437 14.4554 16.3929C13.9062 16.9421 13.9062 17.826 13.9062 19.5937V21" stroke="#313131" stroke-width="1.5"/>
<path d="M20 16.3125V21" stroke="#313131" stroke-width="1.5"/>
</svg>
