<svg width="40" height="41" viewBox="0 0 40 41" fill="none" xmlns="http://www.w3.org/2000/svg">
<circle cx="20" cy="20.5" r="20" fill="#FCE7D2"/>
<path d="M22.6803 24.2187L20.3727 21.9111L19.668 22.6158C18.9466 23.3372 18.5859 23.6979 18.1982 23.6127C17.8105 23.5276 17.6341 23.0489 17.2814 22.0916L16.1051 18.8987C15.4015 16.9889 15.0497 16.034 15.5418 15.5418C16.034 15.0497 16.9889 15.4015 18.8987 16.1051L22.0916 17.2814C23.0489 17.6341 23.5276 17.8105 23.6127 18.1982C23.6979 18.5859 23.3372 18.9466 22.6158 19.668L21.9111 20.3727L24.2187 22.6803C24.4576 22.9192 24.5771 23.0387 24.6323 23.1719C24.7059 23.3497 24.7059 23.5493 24.6323 23.727C24.5771 23.8602 24.4576 23.9798 24.2187 24.2187C23.9798 24.4576 23.8602 24.5771 23.727 24.6323C23.5493 24.7059 23.3497 24.7059 23.1719 24.6323C23.0387 24.5771 22.9192 24.4576 22.6803 24.2187Z" stroke="#313131" stroke-width="1.5" stroke-linecap="round" stroke-linejoin="round"/>
<path d="M29.375 20C29.375 24.4194 29.375 26.6292 28.002 28.002C26.6292 29.375 24.4194 29.375 20 29.375C15.5806 29.375 13.3709 29.375 11.9979 28.002C10.625 26.6292 10.625 24.4194 10.625 20C10.625 15.5806 10.625 13.3709 11.9979 11.9979C13.3709 10.625 15.5806 10.625 20 10.625C24.4194 10.625 26.6292 10.625 28.002 11.9979C28.915 12.9108 29.2209 14.1936 29.3233 16.25" stroke="#313131" stroke-width="1.5" stroke-linecap="round"/>
</svg>
