<svg width="40" height="41" viewBox="0 0 40 41" fill="none" xmlns="http://www.w3.org/2000/svg">
<circle cx="20" cy="20.5" r="20" fill="#FCE7D2"/>
<path d="M26.2435 16.5182L26.5888 16.173C26.9098 15.852 27.0703 15.6914 27.1667 15.5244C27.4284 15.0713 27.4284 14.513 27.1667 14.0598C27.0703 13.8928 26.9098 13.7323 26.5888 13.4113C26.2677 13.0902 26.1072 12.9297 25.9402 12.8333C25.487 12.5717 24.9287 12.5717 24.4755 12.8333C24.3086 12.9297 24.1481 13.0902 23.827 13.4113L23.4818 13.7565M19.3392 23.4225L14.1609 28.6008C13.8399 28.9218 13.6794 29.0824 13.5124 29.1788C13.0592 29.4404 12.5009 29.4404 12.0478 29.1788C11.8808 29.0824 11.7202 28.9218 11.3992 28.6008C11.0782 28.2797 10.9176 28.1192 10.8212 27.9522C10.5596 27.4991 10.5596 26.9408 10.8212 26.4876C10.9176 26.3206 11.0782 26.1601 11.3992 25.839L16.5775 20.6608M25.625 25.3918C24.7831 26.1666 24.1795 26.5541 23.4818 26.5541C22.4707 26.5541 21.6569 25.7403 20.0296 24.113L15.887 19.9704C14.2597 18.3431 13.446 17.5293 13.446 16.5182C13.446 15.5071 14.2597 14.6934 15.887 13.0661C17.5144 11.4387 18.3281 10.625 19.3392 10.625C20.3503 10.625 21.164 11.4387 22.7913 13.0661L26.9339 17.2086C28.5613 18.836 29.375 19.6497 29.375 20.6608C29.375 21.3609 28.985 21.9662 28.205 22.8125" stroke="#313131" stroke-width="1.5" stroke-linecap="round"/>
</svg>
