<svg width="40" height="41" viewBox="0 0 40 41" fill="none" xmlns="http://www.w3.org/2000/svg">
<circle cx="20" cy="20.5" r="20" fill="#FCE7D2"/>
<path d="M20 24.6875V25.625" stroke="#313131" stroke-width="1.5" stroke-linecap="round"/>
<path d="M20 14.375V15.3125" stroke="#313131" stroke-width="1.5" stroke-linecap="round"/>
<path d="M22.8125 17.6562C22.8125 16.3618 21.5533 15.3125 20 15.3125C18.4467 15.3125 17.1875 16.3618 17.1875 17.6562C17.1875 18.9507 18.4467 20 20 20C21.5533 20 22.8125 21.0493 22.8125 22.3437C22.8125 23.6382 21.5533 24.6875 20 24.6875C18.4467 24.6875 17.1875 23.6382 17.1875 22.3437" stroke="#313131" stroke-width="1.5" stroke-linecap="round"/>
<path d="M15.3125 11.8792C16.6914 11.0815 18.2924 10.625 20 10.625C25.1776 10.625 29.375 14.8223 29.375 20C29.375 25.1776 25.1776 29.375 20 29.375C14.8223 29.375 10.625 25.1776 10.625 20C10.625 18.2924 11.0815 16.6914 11.8792 15.3125" stroke="#313131" stroke-width="1.5" stroke-linecap="round"/>
</svg>
