<svg width="40" height="41" viewBox="0 0 40 41" fill="none" xmlns="http://www.w3.org/2000/svg">
<circle cx="20" cy="20.5" r="20" fill="#FCE7D2"/>
<path d="M20 14.4375C20 13.1117 20 12.4488 20.4118 12.0369C20.8238 11.625 21.4867 11.625 22.8125 11.625H23.75C25.0758 11.625 25.7387 11.625 26.1507 12.0369C26.5625 12.4488 26.5625 13.1117 26.5625 14.4375C26.5625 15.7633 26.5625 16.4262 26.1507 16.8381C25.7387 17.25 25.0758 17.25 23.75 17.25H22.8125C21.4867 17.25 20.8238 17.25 20.4118 16.8381C20 16.4262 20 15.7633 20 14.4375Z" stroke="#313131" stroke-width="1.5"/>
<path d="M26.5625 13.2649L28.0769 12.6339C28.664 12.3893 28.9575 12.267 29.1663 12.4061C29.375 12.5453 29.375 12.8633 29.375 13.4993V15.3743C29.375 16.0103 29.375 16.3283 29.1663 16.4674C28.9575 16.6066 28.664 16.4843 28.0769 16.2397L26.5625 15.6087V13.2649Z" stroke="#313131" stroke-width="1.5"/>
<path d="M23.75 30.375H16.25" stroke="#313131" stroke-width="1.5" stroke-linecap="round"/>
<path d="M20 25.6875V30.375" stroke="#313131" stroke-width="1.5" stroke-linecap="round"/>
<path d="M29.375 19.125V20.0625C29.375 22.7141 29.375 24.0399 28.5512 24.8637C27.7274 25.6875 26.4016 25.6875 23.75 25.6875H16.25C13.5983 25.6875 12.2725 25.6875 11.4488 24.8637C10.625 24.0399 10.625 22.7141 10.625 20.0625V19.125M17.6562 11.625C14.5742 11.625 13.0332 11.625 11.996 12.4762C11.8061 12.632 11.632 12.8061 11.4762 12.996C11.0024 13.5733 10.7924 14.3067 10.6992 15.375" stroke="#313131" stroke-width="1.5" stroke-linecap="round"/>
<path d="M29.375 21.9375H23.75M10.625 21.9375H20" stroke="#313131" stroke-width="1.5" stroke-linecap="round"/>
</svg>
