<svg width="40" height="41" viewBox="0 0 40 41" fill="none" xmlns="http://www.w3.org/2000/svg">
<circle cx="20" cy="20.5" r="20" fill="#FCE7D2"/>
<path d="M22.3438 11.9199C25.6381 12.7678 28.2317 15.3614 29.0797 18.6558" stroke="#313131" stroke-width="1.5" stroke-linecap="round"/>
<path d="M29.375 21C29.375 22.8542 28.8252 24.6667 27.795 26.2085C26.7649 27.7502 25.3007 28.9518 23.5876 29.6614C21.8746 30.371 19.9896 30.5566 18.171 30.1949C16.3525 29.8331 14.682 28.9402 13.3709 27.6292C13.0559 27.3142 12.7651 26.9785 12.5 26.625M10.8051 22.829C10.4434 21.0104 10.6291 19.1254 11.3386 17.4123C12.0482 15.6993 13.2498 14.2351 14.7915 13.205C16.3332 12.1748 18.1458 11.625 20 11.625" stroke="#313131" stroke-width="1.5" stroke-linecap="round"/>
</svg>
