<svg width="40" height="41" viewBox="0 0 40 41" fill="none" xmlns="http://www.w3.org/2000/svg">
<circle cx="20" cy="20.5" r="20" fill="#FCE7D2"/>
<path d="M10.625 19.999C10.625 15.5796 10.625 13.3699 11.9979 11.997C13.1612 10.8337 14.9252 10.656 18.125 10.6289M29.375 19.999C29.375 15.5796 29.375 13.3699 28.002 11.997C26.8388 10.8337 25.0748 10.656 21.875 10.6289" stroke="#313131" stroke-width="1.5" stroke-linecap="round"/>
<path d="M18.125 29.375C15.4998 29.375 14.1871 29.375 13.1844 28.8641C12.3024 28.4147 11.5853 27.6976 11.1359 26.8156C10.625 25.8129 10.625 24.5003 10.625 21.875C10.625 19.2497 10.625 17.9371 11.1359 16.9344C11.5853 16.0524 12.3024 15.3353 13.1844 14.8859C14.1871 14.375 15.4998 14.375 18.125 14.375H21.875C24.5003 14.375 25.8129 14.375 26.8156 14.8859C27.6976 15.3353 28.4147 16.0524 28.8641 16.9344C29.375 17.9371 29.375 19.2497 29.375 21.875C29.375 24.5003 29.375 25.8129 28.8641 26.8156C28.4147 27.6976 27.6976 28.4147 26.8156 28.8641C25.8129 29.375 24.5003 29.375 21.875 29.375" stroke="#313131" stroke-width="1.5" stroke-linecap="round"/>
<path d="M20 19.0625V24.6875M20 24.6875L22.3437 22.3437M20 24.6875L17.6562 22.3437" stroke="#313131" stroke-width="1.5" stroke-linecap="round" stroke-linejoin="round"/>
</svg>
