<svg width="40" height="41" viewBox="0 0 40 41" fill="none" xmlns="http://www.w3.org/2000/svg">
<circle cx="20" cy="20.5" r="20" fill="#FCE7D2"/>
<path d="M25.7938 17.2869L26.2283 16.8524C26.9481 16.1325 28.1153 16.1325 28.8351 16.8524C29.555 17.5723 29.555 18.7394 28.8351 19.4592L28.4007 19.8937M25.7938 17.2869C25.7938 17.2869 25.8481 18.2101 26.6627 19.0248C27.4774 19.8394 28.4007 19.8937 28.4007 19.8937M25.7938 17.2869L21.7995 21.2812C21.5289 21.5517 21.3936 21.687 21.2773 21.8362C21.1401 22.0121 21.0225 22.2025 20.9265 22.4039C20.8451 22.5747 20.7845 22.7561 20.6636 23.1191L20.2762 24.2812L20.1509 24.6572M28.4007 19.8937L24.4064 23.8881C24.1358 24.1586 24.0005 24.2939 23.8514 24.4102C23.6754 24.5474 23.485 24.6651 23.2836 24.7611C23.1128 24.8424 22.9314 24.903 22.5684 25.0239L21.4063 25.4113L21.0303 25.5367M20.1509 24.6572L20.0255 25.0332C19.966 25.2118 20.0125 25.4088 20.1456 25.5419C20.2787 25.675 20.4757 25.7215 20.6543 25.662L21.0303 25.5367M20.1509 24.6572L21.0303 25.5367" stroke="#313131" stroke-width="1.5"/>
<path d="M16.25 21.9375H18.5937" stroke="#313131" stroke-width="1.5" stroke-linecap="round"/>
<path d="M16.25 18.1875H22.3437" stroke="#313131" stroke-width="1.5" stroke-linecap="round"/>
<path d="M16.25 25.6875H17.6562" stroke="#313131" stroke-width="1.5" stroke-linecap="round"/>
<path d="M11.5625 22.875V19.125C11.5625 15.5895 11.5625 13.8217 12.6608 12.7233C13.7592 11.625 15.527 11.625 19.0625 11.625H20.9375C24.473 11.625 26.2408 11.625 27.3391 12.7233M28.4375 22.875C28.4375 26.4105 28.4375 28.1783 27.3391 29.2766M27.3391 29.2766C26.2408 30.375 24.473 30.375 20.9375 30.375H19.0625C15.527 30.375 13.7592 30.375 12.6608 29.2766M27.3391 29.2766C28.2233 28.3925 28.3957 27.0746 28.4293 24.75" stroke="#313131" stroke-width="1.5" stroke-linecap="round"/>
</svg>
