<svg width="40" height="41" viewBox="0 0 40 41" fill="none" xmlns="http://www.w3.org/2000/svg">
<circle cx="20" cy="20.5" r="20" fill="#FCE7D2"/>
<path d="M20 24.6875V18.125M20 18.125L22.8125 20.9375M20 18.125L17.1875 20.9375" stroke="#313131" stroke-width="1.5" stroke-linecap="round" stroke-linejoin="round"/>
<path d="M23.75 15.3125H16.25" stroke="#313131" stroke-width="1.5" stroke-linecap="round"/>
<path d="M29.375 20C29.375 24.4194 29.375 26.6292 28.002 28.002C26.6292 29.375 24.4194 29.375 20 29.375C15.5806 29.375 13.3709 29.375 11.9979 28.002C10.625 26.6292 10.625 24.4194 10.625 20C10.625 15.5806 10.625 13.3709 11.9979 11.9979C13.3709 10.625 15.5806 10.625 20 10.625C24.4194 10.625 26.6292 10.625 28.002 11.9979C28.915 12.9108 29.2209 14.1936 29.3233 16.25" stroke="#313131" stroke-width="1.5" stroke-linecap="round"/>
</svg>
