<svg width="40" height="41" viewBox="0 0 40 41" fill="none" xmlns="http://www.w3.org/2000/svg">
<circle cx="20" cy="20.5" r="20" fill="#FCE7D2"/>
<path d="M29.375 22.8125C29.375 26.348 29.375 27.1783 28.2766 28.2766C27.1783 29.375 25.4105 29.375 21.875 29.375" stroke="#313131" stroke-width="1.5" stroke-linecap="round"/>
<path d="M18.125 10.625C14.5895 10.625 12.8217 10.625 11.7233 11.7233C10.625 12.8217 10.625 13.652 10.625 17.1875" stroke="#313131" stroke-width="1.5" stroke-linecap="round"/>
<path d="M20 15.3125C17.2556 15.3125 15.3878 16.7771 14.2741 18.0689C13.7164 18.7159 13.4375 19.0394 13.4375 20C13.4375 20.9606 13.7164 21.2841 14.2742 21.9311C15.3879 23.2229 17.2556 24.6875 20 24.6875C22.7443 24.6875 24.6121 23.2229 25.7259 21.9311C26.2836 21.2841 26.5625 20.9606 26.5625 20C26.5625 19.0394 26.2836 18.7159 25.7259 18.0689C25.224 17.4869 24.5692 16.8697 23.75 16.3673" stroke="#313131" stroke-width="1.5" stroke-linecap="round"/>
<path d="M18.125 20C18.125 20.4973 18.3225 20.9742 18.6742 21.3258C19.0258 21.6775 19.5027 21.875 20 21.875C20.4973 21.875 20.9742 21.6775 21.3258 21.3258C21.6775 20.9742 21.875 20.4973 21.875 20C21.875 19.5027 21.6775 19.0258 21.3258 18.6742C20.9742 18.3225 20.4973 18.125 20 18.125C19.5027 18.125 19.0258 18.3225 18.6742 18.6742C18.3225 19.0258 18.125 19.5027 18.125 20Z" stroke="#313131" stroke-width="1.5"/>
<path d="M18.125 29.375C17.7976 29.375 17.4854 29.375 17.1875 29.3742M10.625 22.8125C10.625 26.348 10.625 27.1783 11.7233 28.2766C12.3357 28.889 13.1561 29.1599 14.375 29.2798" stroke="#313131" stroke-width="1.5" stroke-linecap="round"/>
<path d="M21.875 10.625C22.2024 10.625 22.5146 10.625 22.8125 10.6259M29.375 17.1875C29.375 13.652 29.375 12.8217 28.2766 11.7233C27.6642 11.111 26.8438 10.84 25.625 10.7201" stroke="#313131" stroke-width="1.5" stroke-linecap="round"/>
</svg>
