<svg width="39" height="39" viewBox="0 0 39 39" fill="none" xmlns="http://www.w3.org/2000/svg">
<circle cx="19.3722" cy="19.5004" r="19.185" fill="#FCE7D2"/>
<path d="M14.3123 21.9531H20.5623" stroke="#313131" stroke-width="1.25" stroke-linecap="round"/>
<path d="M14.3123 24.6875H18.6091" stroke="#313131" stroke-width="1.25" stroke-linecap="round"/>
<path d="M19.781 12.5781V14.5313C19.781 16.3727 19.781 17.2934 20.353 17.8654C20.9251 18.4375 21.8458 18.4375 23.6873 18.4375H26.8123" stroke="#313131" stroke-width="1.25"/>
<path d="M11.7732 18.4375C11.7732 18.1139 11.5109 17.8516 11.1873 17.8516C10.8637 17.8516 10.6013 18.1139 10.6013 18.4375H11.7732ZM26.2263 21.5625C26.2263 21.8861 26.4887 22.1485 26.8123 22.1485C27.1358 22.1485 27.3982 21.8861 27.3982 21.5625H26.2263ZM10.6834 15.2552C10.6517 15.5772 10.8871 15.864 11.2092 15.8957C11.5312 15.9273 11.818 15.6919 11.8497 15.3699L10.6834 15.2552ZM27.3161 24.7449C27.3478 24.4229 27.1123 24.1361 26.7903 24.1044C26.4683 24.0728 26.1816 24.3082 26.1498 24.6302L27.3161 24.7449ZM20.5623 27.2266H17.4373V28.3985H20.5623V27.2266ZM11.7732 21.5625V18.4375H10.6013V21.5625H11.7732ZM26.2263 21.2211V21.5625H27.3982V21.2211H26.2263ZM21.2585 14.2275L24.3513 17.011L25.1352 16.1399L22.0425 13.3564L21.2585 14.2275ZM27.3982 21.2211C27.3982 19.902 27.41 19.0668 27.0772 18.3195L26.0067 18.7963C26.2145 19.2629 26.2263 19.7985 26.2263 21.2211H27.3982ZM24.3513 17.011C25.4087 17.9626 25.7989 18.3297 26.0067 18.7963L27.0772 18.3195C26.7444 17.5722 26.1157 17.0223 25.1352 16.1399L24.3513 17.011ZM17.4605 12.7735C18.6963 12.7735 19.1626 12.7825 19.5783 12.942L19.9981 11.8479C19.3326 11.5926 18.6076 11.6016 17.4605 11.6016V12.7735ZM22.0425 13.3564C21.1941 12.5928 20.6636 12.1033 19.9981 11.8479L19.5783 12.942C19.9941 13.1015 20.3447 13.405 21.2585 14.2275L22.0425 13.3564ZM17.4373 27.2266C15.9476 27.2266 14.8892 27.2254 14.0864 27.1174C13.3003 27.0118 12.8475 26.8136 12.5169 26.4829L11.6882 27.3116C12.2729 27.8962 13.0142 28.1557 13.9302 28.2789C14.8293 28.3997 15.9807 28.3985 17.4373 28.3985V27.2266ZM10.6013 21.5625C10.6013 23.0191 10.6001 24.1705 10.721 25.0696C10.8441 25.9855 11.1036 26.7269 11.6882 27.3116L12.5169 26.4829C12.1862 26.1523 11.9881 25.6994 11.8824 24.9135C11.7744 24.1106 11.7732 23.0522 11.7732 21.5625H10.6013ZM20.5623 28.3985C22.0188 28.3985 23.1702 28.3997 24.0693 28.2789C24.9852 28.1557 25.7266 27.8962 26.3113 27.3116L25.4826 26.4829C25.152 26.8136 24.6991 27.0118 23.9132 27.1174C23.1103 27.2254 22.0519 27.2266 20.5623 27.2266V28.3985ZM17.4605 11.6016C15.9961 11.6016 14.8391 11.6004 13.9364 11.7212C13.0172 11.8442 12.2733 12.1034 11.6882 12.6885L12.5169 13.5171C12.847 13.187 13.3013 12.9885 14.0918 12.8827C14.8988 12.7747 15.9631 12.7735 17.4605 12.7735V11.6016ZM11.8497 15.3699C11.9445 14.4055 12.1485 13.8855 12.5169 13.5171L11.6882 12.6885C11.036 13.3408 10.7884 14.1881 10.6834 15.2552L11.8497 15.3699ZM26.1498 24.6302C26.055 25.5945 25.8509 26.1146 25.4826 26.4829L26.3113 27.3116C26.9636 26.6593 27.2112 25.812 27.3161 24.7449L26.1498 24.6302Z" fill="#313131"/>
</svg>
