<svg width="40" height="39" viewBox="0 0 40 39" fill="none" xmlns="http://www.w3.org/2000/svg">
<circle cx="19.9977" cy="19.7787" r="19.185" fill="#FCE7D2"/>
<path d="M12.969 21.5625V18.4375C12.969 15.4912 12.969 14.0181 13.8843 13.1028C14.7996 12.1875 16.2727 12.1875 19.219 12.1875H20.7815C23.7277 12.1875 25.2009 12.1875 26.1162 13.1028C26.6265 13.6131 26.8523 14.2968 26.9522 15.3125M27.0315 18.4375V21.5625C27.0315 24.5088 27.0315 25.982 26.1162 26.8972C25.2009 27.8125 23.7277 27.8125 20.7815 27.8125H19.219C16.2727 27.8125 14.7996 27.8125 13.8843 26.8972C13.374 26.3869 13.1482 25.7032 13.0483 24.6875" stroke="#313131" stroke-width="1.25" stroke-linecap="round"/>
<path d="M16.8752 21.5625H20.7815" stroke="#313131" stroke-width="1.25" stroke-linecap="round"/>
<path d="M16.8752 18.4375H17.6565M23.1252 18.4375H20.0002" stroke="#313131" stroke-width="1.25" stroke-linecap="round"/>
</svg>
