<svg width="39" height="39" viewBox="0 0 39 39" fill="none" xmlns="http://www.w3.org/2000/svg">
<circle cx="19.3722" cy="19.7992" r="19.185" fill="#FCE7D2"/>
<path d="M26.8123 23.9072V20.001C26.8123 18.578 26.4318 17.2438 25.7671 16.0947M11.1873 24.6885V20.001C11.1873 15.6862 14.685 12.1885 18.9998 12.1885C20.4227 12.1885 21.7569 12.5689 22.906 13.2336" stroke="#313131" stroke-width="1.25" stroke-linecap="round"/>
<path d="M15.8748 22.4909C15.8748 22.0391 15.8748 21.8132 15.8208 21.6337C15.6961 21.2188 15.3705 20.9041 14.9652 20.8067C14.7899 20.7646 14.5746 20.7824 14.1439 20.8179C13.3964 20.8796 13.0227 20.9105 12.718 21.0284C12.0154 21.3001 11.4794 21.9068 11.2756 22.6607C11.1873 22.9876 11.1873 23.3797 11.1873 24.1639V24.3088C11.1873 25.1128 11.1873 25.5148 11.2834 25.8549C11.4721 26.5225 11.9232 27.0746 12.5242 27.3736C12.8305 27.526 13.2102 27.5887 13.9695 27.7141C14.4734 27.7973 14.7254 27.8389 14.9293 27.7969C15.3311 27.7142 15.6625 27.418 15.8033 27.0159C15.8748 26.8118 15.8748 26.545 15.8748 26.0114V22.4909Z" stroke="#313131" stroke-width="1.25"/>
<path d="M22.1248 22.4909C22.1248 22.0391 22.1248 21.8132 22.1787 21.6337C22.3034 21.2188 22.629 20.9041 23.0343 20.8067C23.2096 20.7646 23.4249 20.7824 23.8556 20.8179C24.6031 20.8796 24.9768 20.9105 25.2816 21.0284C25.9841 21.3001 26.5201 21.9068 26.7239 22.6607C26.8123 22.9876 26.8123 23.3797 26.8123 24.1639V24.3088C26.8123 25.1128 26.8123 25.5148 26.7162 25.8549C26.5275 26.5225 26.0763 27.0746 25.4753 27.3736C25.1691 27.526 24.7894 27.5887 24.03 27.7141C23.5261 27.7973 23.2741 27.8389 23.0702 27.7969C22.6684 27.7142 22.337 27.418 22.1962 27.0159C22.1248 26.8118 22.1248 26.545 22.1248 26.0114V22.4909Z" stroke="#313131" stroke-width="1.25"/>
<path d="M18.9998 15.7041V19.6104" stroke="#313131" stroke-width="1.25" stroke-linecap="round"/>
<path d="M21.3435 16.876V18.4385" stroke="#313131" stroke-width="1.25" stroke-linecap="round"/>
<path d="M16.656 16.876V18.4385" stroke="#313131" stroke-width="1.25" stroke-linecap="round"/>
</svg>
