<svg width="40" height="39" viewBox="0 0 40 39" fill="none" xmlns="http://www.w3.org/2000/svg">
<circle cx="19.9977" cy="19.5004" r="19.185" fill="#FCE7D2"/>
<path d="M16.875 27.8125H15.2236C13.8938 27.8125 13.2289 27.8125 13.0108 27.3888C12.7927 26.965 13.1792 26.4239 13.9521 25.3418L14.8345 24.1065C15.1782 23.6253 15.35 23.3848 15.6024 23.2548C15.8548 23.125 16.1504 23.125 16.7417 23.125H23.258C23.8492 23.125 24.1449 23.125 24.3973 23.2548C24.6497 23.3848 24.8215 23.6253 25.1652 24.1065L26.0476 25.3418C26.8205 26.4239 27.207 26.965 26.9889 27.3888C26.7708 27.8125 26.1059 27.8125 24.7761 27.8125H20" stroke="#313131" stroke-width="1.25" stroke-linecap="round"/>
<path d="M20 12.1875H15.2236C13.8938 12.1875 13.2289 12.1875 13.0108 12.6113C12.7927 13.035 13.1792 13.5761 13.9521 14.6582L14.8345 15.8935C15.1782 16.3747 15.35 16.6152 15.6024 16.7451C15.8548 16.875 16.1504 16.875 16.7417 16.875H23.258C23.8492 16.875 24.1449 16.875 24.3973 16.7451C24.6497 16.6152 24.8215 16.3747 25.1652 15.8935L26.0476 14.6582C26.8205 13.5761 27.207 13.035 26.9889 12.6113C26.7708 12.1875 26.1059 12.1875 24.7761 12.1875H23.1693" stroke="#313131" stroke-width="1.25" stroke-linecap="round"/>
<path d="M21.5627 20H18.4377M15.3127 20H12.1877M27.8127 20H24.6877" stroke="#313131" stroke-width="1.25" stroke-linecap="round"/>
</svg>
