<svg width="50" height="50" viewBox="0 0 50 50" fill="none" xmlns="http://www.w3.org/2000/svg">
<circle cx="25" cy="25" r="25" fill="#FCE7D2"/>
<path d="M37.2188 22.2894C37.2188 18.7101 35.6627 15.4942 33.1902 13.2812M16.125 30.3464C18.3379 32.819 21.5539 34.375 25.1332 34.375C30.0034 34.375 34.2008 31.4943 36.1144 27.3438" stroke="#313131" stroke-width="1.875" stroke-linecap="round"/>
<path d="M19.6406 16.2726C20.3264 16.9202 21.7391 18.6903 21.9036 20.59C22.0575 22.3657 23.1877 23.8084 24.9141 23.828C25.5776 23.8355 26.2486 23.3385 26.2468 22.6504C26.2462 22.4376 26.2124 22.2201 26.1594 22.02C26.0857 21.7416 26.0791 21.4213 26.2324 21.0937C26.7684 19.9476 27.8227 19.6397 28.6581 19.0173C29.0286 18.7412 29.3666 18.45 29.5155 18.2154C29.927 17.5678 30.3386 16.2726 30.1328 15.625" stroke="#313131" stroke-width="1.875"/>
<path d="M33.7031 23.8281C33.4458 24.5555 33.2637 26.4648 30.358 26.4952C30.358 26.4952 27.7848 26.4952 27.0129 27.9498C26.3953 29.1136 26.7555 30.3745 27.0129 30.8594" stroke="#313131" stroke-width="1.875"/>
<path d="M25.5 36.7188V34.375" stroke="#313131" stroke-width="1.875" stroke-linecap="round"/>
<path d="M25.5 36.7188H23.1562" stroke="#313131" stroke-width="1.875" stroke-linecap="round"/>
<path d="M27.8438 36.7188H25.5" stroke="#313131" stroke-width="1.875" stroke-linecap="round"/>
<path d="M18.3943 26.7578C17.6963 25.5513 17.2969 24.1504 17.2969 22.6563C17.2969 18.1258 20.9695 14.4531 25.5 14.4531C30.0305 14.4531 33.7031 18.1258 33.7031 22.6563C33.7031 27.1867 30.0305 30.8594 25.5 30.8594C24.0059 30.8594 22.605 30.4599 21.3984 29.7619" stroke="#313131" stroke-width="1.875" stroke-linecap="round"/>
</svg>
