<svg width="50" height="50" viewBox="0 0 50 50" fill="none" xmlns="http://www.w3.org/2000/svg">
<circle cx="25" cy="25" r="25" fill="#FCE7D2"/>
<path d="M26.6719 23.2422V16.7969" stroke="#313131" stroke-width="1.875" stroke-linecap="round"/>
<path d="M23.1562 23.2422C23.1562 23.473 23.2017 23.7016 23.2901 23.9149C23.3784 24.1281 23.5079 24.3219 23.6711 24.4851C23.8343 24.6484 24.0281 24.7779 24.2414 24.8662C24.4546 24.9545 24.6832 25 24.9141 25C25.1449 25 25.3735 24.9545 25.5867 24.8662C25.8 24.7779 25.9938 24.6484 26.157 24.4851C26.3203 24.3219 26.4497 24.1281 26.5381 23.9149C26.6264 23.7016 26.6719 23.473 26.6719 23.2422C26.6719 23.0113 26.6264 22.7828 26.5381 22.5695C26.4497 22.3562 26.3203 22.1625 26.157 21.9992C25.9938 21.836 25.8 21.7065 25.5867 21.6182C25.3735 21.5298 25.1449 21.4844 24.9141 21.4844C24.6832 21.4844 24.4546 21.5298 24.2414 21.6182C24.0281 21.7065 23.8343 21.836 23.6711 21.9992C23.5079 22.1625 23.3784 22.3562 23.2901 22.5695C23.2017 22.7828 23.1562 23.0113 23.1562 23.2422Z" stroke="#313131" stroke-width="1.875"/>
<path d="M29.0156 19.1406C27.7212 19.1406 26.6719 18.0913 26.6719 16.7969" stroke="#313131" stroke-width="1.875" stroke-linecap="round"/>
<path d="M33.7031 16.7969L34.8148 17.1674C35.975 17.5542 36.5551 17.7475 36.8869 18.2079C37.2187 18.6683 37.2187 19.2798 37.2186 20.5027V20.5877C37.2186 21.5964 37.2186 22.1008 36.9758 22.5134C36.733 22.926 36.2921 23.1709 35.4104 23.6608L31.9453 25.5859" stroke="#313131" stroke-width="1.875"/>
<path d="M17.2968 16.7969L16.1851 17.1674C15.0249 17.5542 14.4448 17.7475 14.113 18.2079C13.7812 18.6683 13.7812 19.2798 13.7813 20.5027V20.5877C13.7813 21.5964 13.7813 22.1008 14.0241 22.5134C14.2669 22.926 14.7078 23.1709 15.5895 23.6608L19.0546 25.5859" stroke="#313131" stroke-width="1.875"/>
<path d="M25.5 29.6875V33.2031" stroke="#313131" stroke-width="1.875" stroke-linecap="round"/>
<path d="M29.6016 36.7188H21.3984L21.796 34.7311C21.9055 34.1834 22.3865 33.7891 22.9451 33.7891H28.0549C28.6136 33.7891 29.0945 34.1834 29.2041 34.7311L29.6016 36.7188Z" stroke="#313131" stroke-width="1.875" stroke-linecap="round" stroke-linejoin="round"/>
<path d="M32.5313 36.7188H18.4688" stroke="#313131" stroke-width="1.875" stroke-linecap="round"/>
<path d="M31.3594 13.8156C32.2283 13.9814 32.7435 14.1637 33.1885 14.7119C33.7461 15.3985 33.7166 16.1406 33.6576 17.6248C33.4459 22.9604 32.2501 29.6875 25.5002 29.6875C18.7502 29.6875 17.5545 22.9604 17.3427 17.6248C17.2837 16.1406 17.2543 15.3985 17.8118 14.7119C18.3692 14.0253 19.0365 13.9127 20.3709 13.6876C21.6882 13.4653 23.4101 13.2812 25.5002 13.2812C26.3419 13.2812 27.1239 13.3111 27.8437 13.3613" stroke="#313131" stroke-width="1.875" stroke-linecap="round"/>
</svg>
