<svg width="50" height="50" viewBox="0 0 50 50" fill="none" xmlns="http://www.w3.org/2000/svg">
<circle cx="25" cy="25" r="25" fill="#FCE7D2"/>
<path d="M30.8594 35.5469V29.6875M19.1406 35.5469V29.6875" stroke="#313131" stroke-width="1.875" stroke-linecap="round"/>
<path d="M25 29.6875H19.1406C17.9864 29.6875 17.4093 29.6875 17.061 29.308C16.7127 28.9285 16.7581 28.4005 16.8488 27.3447C16.9144 26.5824 17.0625 26.0693 17.3975 25.6865C17.9982 25 18.965 25 20.8984 25H29.1016C31.035 25 32.0018 25 32.6024 25.6865C32.9375 26.0693 33.0857 26.5824 33.1512 27.3447C33.2419 28.4005 33.2873 28.9285 32.939 29.308C32.5907 29.6875 32.0137 29.6875 30.8594 29.6875H29.6875" stroke="#313131" stroke-width="1.875" stroke-linecap="round"/>
<path d="M19.1406 20.3125C19.1406 18.122 19.1406 17.0267 19.6116 16.2109C19.9202 15.6765 20.364 15.2327 20.8984 14.9241C21.7142 14.4531 22.8095 14.4531 25 14.4531C27.1905 14.4531 28.2857 14.4531 29.1016 14.9241C29.6361 15.2327 30.0798 15.6765 30.3884 16.2109C30.8594 17.0267 30.8594 18.122 30.8594 20.3125V25H19.1406V20.3125Z" stroke="#313131" stroke-width="1.875"/>
</svg>
