<svg width="50" height="50" viewBox="0 0 50 50" fill="none" xmlns="http://www.w3.org/2000/svg">
<circle cx="25" cy="25" r="25" fill="#FCE7D2"/>
<path d="M23.9991 25.6123C24.4444 24.8134 24.6671 24.4141 25 24.4141C25.3329 24.4141 25.5556 24.8134 26.0009 25.6123L26.1161 25.819C26.2425 26.046 26.3058 26.1595 26.4045 26.2343C26.5032 26.3092 26.626 26.3371 26.8717 26.3927L27.0954 26.4433C27.9602 26.6389 28.3926 26.7367 28.4955 27.0675C28.5984 27.3984 28.3035 27.743 27.7141 28.4324L27.5615 28.6107C27.394 28.8066 27.3102 28.9046 27.2725 29.0257C27.2349 29.1469 27.2475 29.2776 27.2728 29.5389L27.2959 29.7769C27.385 30.6967 27.4296 31.1566 27.1603 31.3609C26.8909 31.5654 26.4862 31.379 25.6765 31.0062L25.4671 30.9098C25.2369 30.8038 25.122 30.7509 25 30.7509C24.878 30.7509 24.763 30.8038 24.5329 30.9098L24.3235 31.0062C23.5138 31.379 23.1091 31.5654 22.8396 31.3609C22.5704 31.1566 22.6149 30.6967 22.7041 29.7769L22.7271 29.5389C22.7525 29.2776 22.7651 29.1469 22.7275 29.0257C22.6898 28.9046 22.606 28.8066 22.4385 28.6107L22.286 28.4324C21.6964 27.743 21.4017 27.3984 21.5046 27.0675C21.6074 26.7367 22.0398 26.6389 22.9046 26.4433L23.1283 26.3927C23.374 26.3371 23.4968 26.3092 23.5955 26.2343C23.6942 26.1595 23.7575 26.046 23.8839 25.819L23.9991 25.6123Z" stroke="#313131" stroke-width="1.875"/>
<path d="M36.5291 23.9761C36.7401 21.7348 36.8455 20.6141 36.4621 20.1509C36.2547 19.9003 35.9726 19.7467 35.6711 19.7202C35.1136 19.6713 34.4136 20.4682 33.0134 22.0622C32.2893 22.8865 31.9273 23.2987 31.5234 23.3625C31.2996 23.3978 31.0716 23.3615 30.8649 23.2575C30.492 23.0698 30.2433 22.5603 29.746 21.5412L27.1247 16.1697C26.185 14.2441 25.7151 13.2812 25 13.2812C24.2849 13.2812 23.815 14.2441 22.8753 16.1698L20.254 21.5412C19.7567 22.5603 19.508 23.0698 19.1351 23.2575C18.9284 23.3615 18.7004 23.3978 18.4766 23.3625C18.0727 23.2987 17.7107 22.8865 16.9866 22.0622C15.5864 20.4682 14.8863 19.6713 14.3289 19.7202C14.0273 19.7467 13.7453 19.9003 13.5379 20.1509C13.1545 20.6141 13.2599 21.7348 13.4709 23.9761L13.7395 26.83C14.182 31.5323 14.4033 33.8834 15.7892 35.301C17.175 36.7188 19.2522 36.7188 23.4064 36.7188H26.5936C30.7478 36.7188 32.825 36.7188 34.2108 35.301C35.2818 34.2054 35.6573 32.5524 35.977 29.6875" stroke="#313131" stroke-width="1.875" stroke-linecap="round"/>
</svg>
