<svg width="50" height="50" viewBox="0 0 50 50" fill="none" xmlns="http://www.w3.org/2000/svg">
<circle cx="25" cy="25" r="25" fill="#FCE7D2"/>
<path d="M35.5469 30.8594V25C35.5469 22.8436 34.8998 20.8384 33.7891 19.1679M14.4531 30.8594V25C14.4531 19.1751 19.1751 14.4531 25 14.4531C26.6838 14.4531 28.2754 14.8477 29.6875 15.5494" stroke="#313131" stroke-width="1.875" stroke-linecap="round"/>
<path d="M36.7188 29.1016V31.4453" stroke="#313131" stroke-width="1.875" stroke-linecap="round"/>
<path d="M13.2812 29.1016V31.4453" stroke="#313131" stroke-width="1.875" stroke-linecap="round"/>
<path d="M20.3125 27.1616C20.3125 26.2659 20.3125 25.818 20.1077 25.5066C20.0047 25.3498 19.8679 25.2203 19.7083 25.1283C19.3911 24.9455 18.9626 24.9878 18.1058 25.0723C16.662 25.2146 15.94 25.2858 15.4227 25.6755C15.1609 25.8728 14.9411 26.1242 14.7771 26.4141C14.4531 26.9869 14.4531 27.7416 14.4531 29.2511V31.0859C14.4531 32.5803 14.4531 33.3275 14.7836 33.9046C14.9072 34.1206 15.0623 34.3153 15.2432 34.482C15.7264 34.9274 16.4318 35.0665 17.8425 35.3447C18.8353 35.5404 19.3317 35.6383 19.698 35.4321C19.8332 35.3561 19.9527 35.2531 20.0497 35.129C20.3125 34.7928 20.3125 34.2669 20.3125 33.2153V27.1616Z" stroke="#313131" stroke-width="1.875"/>
<path d="M29.6875 27.1616C29.6875 26.2659 29.6875 25.818 29.8922 25.5066C29.9954 25.3498 30.1321 25.2203 30.2917 25.1283C30.6089 24.9455 31.0374 24.9878 31.8943 25.0723C33.338 25.2146 34.06 25.2858 34.5773 25.6755C34.8392 25.8728 35.0589 26.1242 35.2229 26.4141C35.5469 26.9869 35.5469 27.7416 35.5469 29.2511V31.0859C35.5469 32.5803 35.5469 33.3275 35.2164 33.9046C35.0928 34.1206 34.9377 34.3153 34.7568 34.482C34.2736 34.9274 33.5683 35.0665 32.1575 35.3447C31.1648 35.5404 30.6684 35.6383 30.302 35.4321C30.1668 35.3561 30.0473 35.2531 29.9504 35.129C29.6875 34.7928 29.6875 34.2669 29.6875 33.2153V27.1616Z" stroke="#313131" stroke-width="1.875"/>
</svg>
