<svg width="50" height="50" viewBox="0 0 50 50" fill="none" xmlns="http://www.w3.org/2000/svg">
<circle cx="25" cy="25" r="25" fill="#FCE7D2"/>
<path d="M19.1406 27.3438L21.8276 24.6568C22.2853 24.1991 23.0273 24.1991 23.4849 24.6568L25.3432 26.5151C25.8009 26.9727 26.5429 26.9727 27.0005 26.5151L30.8594 22.6562M30.8594 22.6562V25.5859M30.8594 22.6562H27.9297" stroke="#313131" stroke-width="1.875" stroke-linecap="round" stroke-linejoin="round"/>
<path d="M36.7188 25C36.7188 30.5242 36.7188 33.2864 35.0025 35.0025C33.2864 36.7188 30.5242 36.7188 25 36.7188C19.4757 36.7188 16.7136 36.7188 14.9974 35.0025C13.2813 33.2864 13.2812 30.5242 13.2812 25C13.2812 19.4757 13.2813 16.7136 14.9974 14.9974C16.7136 13.2813 19.4757 13.2812 25 13.2812C30.5242 13.2812 33.2864 13.2813 35.0025 14.9974C36.1437 16.1385 36.5261 17.7421 36.6542 20.3125" stroke="#313131" stroke-width="1.875" stroke-linecap="round"/>
</svg>
