<svg width="50" height="50" viewBox="0 0 50 50" fill="none" xmlns="http://www.w3.org/2000/svg">
<circle cx="25" cy="25" r="25" fill="#FCE7D2"/>
<path d="M23.8281 30.8594H20.3125C16.9979 30.8594 15.3407 30.8594 14.311 29.8296C13.2813 28.7999 13.2812 27.1427 13.2812 23.8281V22.6563C13.2812 18.2368 13.2813 16.0271 14.6542 14.6542C15.2045 14.1039 15.8893 13.7741 16.7969 13.5766M36.7188 20.8984C36.7188 18.1625 36.7188 16.7946 36.1653 15.7591C35.7283 14.9414 35.0586 14.2718 34.2409 13.8347C33.2054 13.2812 31.8374 13.2812 29.1016 13.2812H22.6563C22.247 13.2812 21.8568 13.2812 21.4844 13.2823" stroke="#313131" stroke-width="1.875" stroke-linecap="round"/>
<path d="M27.3438 28.5156C27.3438 26.3059 27.3438 25.2011 28.0302 24.5146C28.7167 23.8281 29.8216 23.8281 32.0313 23.8281C34.2409 23.8281 35.3458 23.8281 36.0323 24.5146C36.7188 25.2011 36.7188 26.3059 36.7188 28.5156V32.0313C36.7188 34.2409 36.7188 35.3458 36.0323 36.0323C35.3458 36.7188 34.2409 36.7188 32.0313 36.7188C29.8216 36.7188 28.7167 36.7188 28.0302 36.0323C27.3438 35.3458 27.3438 34.2409 27.3438 32.0313V28.5156Z" stroke="#313131" stroke-width="1.875"/>
<path d="M33.2031 34.375H30.8594" stroke="#313131" stroke-width="1.875" stroke-linecap="round"/>
<path d="M23.8281 36.7188V37.5977C24.3135 37.5977 24.707 37.2041 24.707 36.7188H23.8281ZM20.3125 35.8398C19.8271 35.8398 19.4336 36.2334 19.4336 36.7188C19.4336 37.2041 19.8271 37.5977 20.3125 37.5977V35.8398ZM24.707 30.8594C24.707 30.374 24.3135 29.9805 23.8281 29.9805C23.3427 29.9805 22.9492 30.374 22.9492 30.8594H24.707ZM23.8281 35.8398H20.3125V37.5977H23.8281V35.8398ZM24.707 36.7188V30.8594H22.9492V36.7188H24.707Z" fill="#313131"/>
<path d="M23.8281 26.1719H13.2812" stroke="#313131" stroke-width="1.875" stroke-linecap="round"/>
</svg>
