<svg width="50" height="50" viewBox="0 0 50 50" fill="none" xmlns="http://www.w3.org/2000/svg">
<circle cx="25" cy="25" r="25" fill="#FCE7D2"/>
<path d="M15.2498 26.1719L14.6307 26.7958C14.9734 27.1357 15.5261 27.1357 15.8688 26.7958L15.2498 26.1719ZM17.8373 24.8426C18.1819 24.5008 18.1841 23.9443 17.8422 23.5997C17.5003 23.2551 16.9439 23.253 16.5993 23.5948L17.8373 24.8426ZM13.9003 23.5948C13.5557 23.253 12.9992 23.2551 12.6573 23.5997C12.3154 23.9443 12.3176 24.5008 12.6622 24.8426L13.9003 23.5948ZM32.7527 19.6009C33.0068 20.0144 33.5481 20.1436 33.9617 19.8894C34.3751 19.6351 34.5043 19.0938 34.2501 18.6803L32.7527 19.6009ZM30.7341 15.1655C30.3207 14.9111 29.7794 15.0399 29.525 15.4533C29.2705 15.8667 29.3993 16.4081 29.8128 16.6625L30.7341 15.1655ZM25.5429 15.343C26.0277 15.3668 26.44 14.993 26.4638 14.5082C26.4876 14.0234 26.1137 13.6111 25.6289 13.5873L25.5429 15.343ZM25.0925 13.5742C19.1776 13.5742 14.3709 18.3334 14.3709 24.2187H16.1287C16.1287 19.3172 20.1354 15.332 25.0925 15.332V13.5742ZM14.3709 24.2187V26.1719H16.1287V24.2187H14.3709ZM15.8688 26.7958L17.8373 24.8426L16.5993 23.5948L14.6307 25.548L15.8688 26.7958ZM15.8688 25.548L13.9003 23.5948L12.6622 24.8426L14.6307 26.7958L15.8688 25.548ZM34.2501 18.6803C33.372 17.2521 32.1652 16.0462 30.7341 15.1655L29.8128 16.6625C31.0102 17.3994 32.0194 18.4083 32.7527 19.6009L34.2501 18.6803ZM25.6289 13.5873C25.4512 13.5786 25.2722 13.5742 25.0925 13.5742V15.332C25.2435 15.332 25.3937 15.3357 25.5429 15.343L25.6289 13.5873Z" fill="#313131"/>
<path d="M34.7426 23.8281L35.3604 23.203C35.018 22.8646 34.4671 22.8646 34.1247 23.203L34.7426 23.8281ZM32.1487 25.1562C31.8034 25.4973 31.8002 26.0539 32.1414 26.3991C32.4827 26.7443 33.0391 26.7476 33.3843 26.4064L32.1487 25.1562ZM36.1008 26.4064C36.4461 26.7476 37.0025 26.7443 37.3437 26.3991C37.685 26.0539 37.6817 25.4973 37.3365 25.1561L36.1008 26.4064ZM17.1692 30.3978C16.9143 29.9847 16.3727 29.8565 15.9597 30.1115C15.5466 30.3664 15.4184 30.9079 15.6733 31.321L17.1692 30.3978ZM24.4529 34.6589C23.9679 34.6375 23.5574 35.0133 23.536 35.4982C23.5147 35.9832 23.8904 36.3937 24.3753 36.415L24.4529 34.6589ZM19.273 34.8784C19.6887 35.1289 20.2289 34.9949 20.4794 34.5791C20.7299 34.1635 20.5959 33.6234 20.1802 33.3728L19.273 34.8784ZM24.8623 36.4258C30.7947 36.4258 35.6215 31.6697 35.6215 25.7813H33.8637C33.8637 30.6796 29.8434 34.668 24.8623 34.668V36.4258ZM35.6215 25.7813V23.8281H33.8637V25.7813H35.6215ZM34.1247 23.203L32.1487 25.1562L33.3843 26.4064L35.3604 24.4532L34.1247 23.203ZM34.1247 24.4532L36.1008 26.4064L37.3365 25.1561L35.3604 23.203L34.1247 24.4532ZM24.3753 36.415C24.5368 36.4221 24.6992 36.4258 24.8623 36.4258V34.668C24.725 34.668 24.5884 34.6649 24.4529 34.6589L24.3753 36.415ZM15.6733 31.321C16.5692 32.7727 17.8059 33.9944 19.273 34.8784L20.1802 33.3728C18.9516 32.6325 17.9172 31.61 17.1692 30.3978L15.6733 31.321Z" fill="#313131"/>
</svg>
