<svg width="50" height="50" viewBox="0 0 50 50" fill="none" xmlns="http://www.w3.org/2000/svg">
<circle cx="25" cy="25" r="25" fill="#FCE7D2"/>
<path d="M25 17.7979V35.547" stroke="#313131" stroke-width="1.875"/>
<path d="M16.7969 21.4844L21.4844 22.6563" stroke="#313131" stroke-width="1.875" stroke-linecap="round"/>
<path d="M16.7969 26.1719L21.4844 27.3438" stroke="#313131" stroke-width="1.875" stroke-linecap="round"/>
<path d="M33.2031 26.1719L28.5156 27.3438" stroke="#313131" stroke-width="1.875" stroke-linecap="round"/>
<path d="M33.2031 17.3828V22.0824C33.2031 22.4053 33.2031 22.5668 33.0919 22.6321C32.9808 22.6973 32.8288 22.6251 32.5247 22.4807L31.069 21.7892C30.9661 21.7403 30.9147 21.7159 30.8594 21.7159C30.8041 21.7159 30.7526 21.7403 30.6497 21.7892L29.194 22.4807C28.8899 22.6251 28.7379 22.6973 28.6268 22.6321C28.5156 22.5668 28.5156 22.4053 28.5156 22.0824V19.0821" stroke="#313131" stroke-width="1.875" stroke-linecap="round"/>
<path d="M37.5977 23.2873C37.5977 22.8019 37.2041 22.4084 36.7188 22.4084C36.2334 22.4084 35.8398 22.8019 35.8398 23.2873H37.5977ZM35.8398 19.1407C35.8398 19.6261 36.2334 20.0196 36.7188 20.0196C37.2041 20.0196 37.5977 19.6261 37.5977 19.1407H35.8398ZM12.4023 23.3252C12.4023 23.8105 12.7958 24.2041 13.2813 24.2041C13.7667 24.2041 14.1602 23.8105 14.1602 23.3252H12.4023ZM14.1602 27.3439C14.1602 26.8585 13.7667 26.465 13.2813 26.465C12.7958 26.465 12.4023 26.8585 12.4023 27.3439H14.1602ZM34.4405 13.5957C33.1064 13.6421 31.3628 13.7809 30.0214 14.1825L30.5255 15.8665C31.6379 15.5335 33.1905 15.3981 34.5017 15.3524L34.4405 13.5957ZM30.0214 14.1825C28.8554 14.5316 27.5437 15.2134 26.5213 15.8052L27.4018 17.3265C28.3984 16.7498 29.5643 16.1542 30.5255 15.8665L30.0214 14.1825ZM15.5505 15.4183C16.6825 15.4878 17.9646 15.6231 18.9164 15.8743L19.3649 14.1747C18.2389 13.8775 16.8147 13.7348 15.6583 13.6638L15.5505 15.4183ZM18.9164 15.8743C20.0439 16.1718 21.4315 16.8227 22.5762 17.428L23.3978 15.8741C22.2313 15.2572 20.6965 14.526 19.3649 14.1747L18.9164 15.8743ZM27.3208 35.2319C28.4821 34.6128 29.9205 33.9304 31.0837 33.6234L30.6351 31.9238C29.2636 32.2857 27.675 33.051 26.4939 33.6807L27.3208 35.2319ZM31.0837 33.6234C32.0246 33.375 33.2889 33.2399 34.4125 33.1697L34.3027 31.4153C33.1541 31.4871 31.7489 31.6299 30.6351 31.9238L31.0837 33.6234ZM23.5061 33.6807C22.3249 33.051 20.7364 32.2857 19.3649 31.9238L18.9164 33.6234C20.0795 33.9304 21.5179 34.6128 22.6792 35.2319L23.5061 33.6807ZM19.3649 31.9238C18.2511 31.6299 16.8458 31.4871 15.6973 31.4153L15.5875 33.1697C16.7111 33.2399 17.9754 33.375 18.9164 33.6234L19.3649 31.9238ZM35.8398 29.8559C35.8398 30.6595 35.1739 31.3608 34.3027 31.4153L34.4125 33.1697C36.1401 33.0616 37.5977 31.6561 37.5977 29.8559H35.8398ZM37.5977 16.7187C37.5977 15.0039 36.2321 13.5333 34.4405 13.5957L34.5017 15.3524C35.2221 15.3273 35.8398 15.92 35.8398 16.7187H37.5977ZM12.4023 29.8559C12.4023 31.6561 13.8599 33.0616 15.5875 33.1697L15.6973 31.4153C14.8261 31.3608 14.1602 30.6595 14.1602 29.8559H12.4023ZM26.4939 33.6807C25.5654 34.1755 24.4346 34.1755 23.5061 33.6807L22.6792 35.2319C24.1245 36.0023 25.8755 36.0023 27.3208 35.2319L26.4939 33.6807ZM26.5213 15.8052C25.5626 16.36 24.3692 16.3877 23.3978 15.8741L22.5762 17.428C24.0905 18.2288 25.927 18.1801 27.4018 17.3265L26.5213 15.8052ZM14.1602 16.7944C14.1602 15.9774 14.8075 15.3726 15.5505 15.4183L15.6583 13.6638C13.8322 13.5515 12.4023 15.0376 12.4023 16.7944H14.1602ZM37.5977 29.8559V23.2873H35.8398V29.8559H37.5977ZM37.5977 19.1407V16.7187H35.8398V19.1407H37.5977ZM14.1602 23.3252V16.7944H12.4023V23.3252H14.1602ZM14.1602 29.8559V27.3439H12.4023V29.8559H14.1602Z" fill="#313131"/>
</svg>
