<svg width="50" height="50" viewBox="0 0 50 50" fill="none" xmlns="http://www.w3.org/2000/svg">
<circle cx="25" cy="25" r="25" fill="#FCE7D2"/>
<path d="M20.3125 16.7969C20.3125 18.7385 18.7385 20.3125 16.7969 20.3125C14.8553 20.3125 13.2812 18.7385 13.2812 16.7969C13.2812 14.8553 14.8553 13.2812 16.7969 13.2812C18.7385 13.2812 20.3125 14.8553 20.3125 16.7969Z" stroke="#313131" stroke-width="1.875"/>
<path d="M36.7188 16.7969C36.7188 18.7385 35.1448 20.3125 33.2031 20.3125C31.2614 20.3125 29.6875 18.7385 29.6875 16.7969C29.6875 14.8553 31.2614 13.2812 33.2031 13.2812C35.1448 13.2812 36.7188 14.8553 36.7188 16.7969Z" stroke="#313131" stroke-width="1.875"/>
<path d="M20.3125 33.2031C20.3125 35.1448 18.7385 36.7188 16.7969 36.7188C14.8553 36.7188 13.2812 35.1448 13.2812 33.2031C13.2812 31.2614 14.8553 29.6875 16.7969 29.6875C18.7385 29.6875 20.3125 31.2614 20.3125 33.2031Z" stroke="#313131" stroke-width="1.875"/>
<path d="M36.7188 33.2031C36.7188 35.1448 35.1448 36.7188 33.2031 36.7188C31.2614 36.7188 29.6875 35.1448 29.6875 33.2031C29.6875 31.2614 31.2614 29.6875 33.2031 29.6875C35.1448 29.6875 36.7188 31.2614 36.7188 33.2031Z" stroke="#313131" stroke-width="1.875"/>
<path d="M20.3125 16.7969H29.6875" stroke="#313131" stroke-width="1.875" stroke-linecap="round"/>
<path d="M33.2031 29.6875V26.1719M33.2031 20.3125V21.4844" stroke="#313131" stroke-width="1.875" stroke-linecap="round"/>
<path d="M29.6875 33.2031H26.1719M22.6563 33.2031H20.3125" stroke="#313131" stroke-width="1.875" stroke-linecap="round"/>
<path d="M16.7969 29.6875V20.3125" stroke="#313131" stroke-width="1.875" stroke-linecap="round"/>
</svg>
