<svg width="50" height="50" viewBox="0 0 50 50" fill="none" xmlns="http://www.w3.org/2000/svg">
<circle cx="25" cy="25" r="25" fill="#FCE7D2"/>
<path d="M25 22.0703L24.372 22.6851C24.5373 22.854 24.7636 22.9492 25 22.9492C25.2364 22.9492 25.4627 22.854 25.628 22.6851L25 22.0703ZM23.2592 27.7781C22.5776 27.1983 21.8935 26.5268 21.3863 25.8322C20.8689 25.1236 20.6055 24.486 20.6055 23.9553H18.8477C18.8477 25.0284 19.357 26.0339 19.9667 26.8689C20.5868 27.718 21.3842 28.4907 22.1202 29.117L23.2592 27.7781ZM20.6055 23.9553C20.6055 22.6573 21.185 21.9737 21.7812 21.7507C22.3873 21.5241 23.3536 21.6451 24.372 22.6851L25.628 21.4554C24.2734 20.0719 22.603 19.5668 21.1656 20.1043C19.7183 20.6454 18.8477 22.1162 18.8477 23.9553H20.6055ZM27.8798 29.117C28.6158 28.4908 29.4133 27.718 30.0333 26.8689C30.643 26.0339 31.1523 25.0284 31.1523 23.9553H29.3945C29.3945 24.486 29.1311 25.1236 28.6137 25.8322C28.1065 26.5268 27.4224 27.1983 26.7408 27.7781L27.8798 29.117ZM31.1523 23.9553C31.1523 22.1162 30.2816 20.6454 28.8344 20.1043C27.397 19.5668 25.7266 20.0719 24.372 21.4554L25.628 22.6851C26.6464 21.6451 27.6127 21.5241 28.2188 21.7507C28.815 21.9737 29.3945 22.6573 29.3945 23.9553H31.1523ZM22.1202 29.117C23.0337 29.8941 23.7611 30.5585 25 30.5585V28.8007C24.5148 28.8007 24.2767 28.6437 23.2592 27.7781L22.1202 29.117ZM26.7408 27.7781C25.7233 28.6437 25.4852 28.8007 25 28.8007V30.5585C26.2389 30.5585 26.9663 29.8941 27.8798 29.117L26.7408 27.7781Z" fill="#313131"/>
<path d="M30.8594 14.849C29.1357 13.8519 27.1345 13.2812 25 13.2812C18.5279 13.2812 13.2812 18.5279 13.2812 25C13.2812 26.8746 13.7214 28.6464 14.5041 30.2178C14.712 30.6353 14.7813 31.1126 14.6607 31.5632L13.9627 34.1719C13.6597 35.3043 14.6957 36.3402 15.8281 36.0373L18.4368 35.3393C18.8874 35.2188 19.3647 35.288 19.7823 35.4959C21.3536 36.2786 23.1254 36.7188 25 36.7188C31.472 36.7188 36.7188 31.472 36.7188 25C36.7188 22.8655 36.148 20.8643 35.151 19.1406" stroke="#313131" stroke-width="1.875" stroke-linecap="round"/>
</svg>
