<svg width="50" height="50" viewBox="0 0 50 50" fill="none" xmlns="http://www.w3.org/2000/svg">
<circle cx="25" cy="25" r="25" fill="#FCE7D2"/>
<path d="M23.1562 21.4844H27.8438L23.1562 26.1719H27.8438" stroke="#313131" stroke-width="1.875" stroke-linecap="round" stroke-linejoin="round"/>
<path d="M20.2266 33.2031C20.9942 35.2513 23.0654 36.7188 25.5 36.7188C25.7865 36.7188 26.068 36.6985 26.3428 36.6592M30.7734 33.2031C30.4604 34.0382 29.9309 34.7767 29.2482 35.3586" stroke="#313131" stroke-width="1.875" stroke-linecap="round"/>
<path d="M22.1103 14.0713C23.1377 13.5647 24.287 13.2812 25.5 13.2812C29.868 13.2812 33.4091 16.9565 33.4091 21.4902V22.3159C33.4091 23.3069 33.6918 24.2755 34.2213 25.1001L35.5191 27.1205C36.7045 28.966 35.7996 31.4745 33.7378 32.0581C28.3445 33.5848 22.6556 33.5848 17.2621 32.0581C15.2004 31.4745 14.2955 28.966 15.4809 27.1205L16.7787 25.1001C17.3083 24.2755 17.5909 23.3069 17.5909 22.3159V21.4902C17.5909 20.2311 17.864 19.0383 18.352 17.972" stroke="#313131" stroke-width="1.875" stroke-linecap="round"/>
</svg>
