<svg width="50" height="50" viewBox="0 0 50 50" fill="none" xmlns="http://www.w3.org/2000/svg">
<circle cx="25" cy="25" r="25" fill="#FCE7D2"/>
<path d="M27.8438 19.1406C27.8438 20.435 26.7945 21.4844 25.5 21.4844C24.2055 21.4844 23.1562 20.435 23.1562 19.1406C23.1562 17.8462 24.2055 16.7969 25.5 16.7969C26.7945 16.7969 27.8438 17.8462 27.8438 19.1406Z" stroke="#313131" stroke-width="1.875"/>
<path d="M32.5313 22.6562C32.5313 22.6562 28.386 24.4141 25.5 24.4141C22.614 24.4141 18.4688 22.6562 18.4688 22.6562" stroke="#313131" stroke-width="1.875" stroke-linecap="round"/>
<path d="M25.5 25V26.7018M25.5 26.7018C25.5 27.376 25.6938 28.0359 26.0584 28.6029L29.0156 33.2031M25.5 26.7018C25.5 27.376 25.3062 28.0359 24.9416 28.6029L21.9844 33.2031" stroke="#313131" stroke-width="1.875" stroke-linecap="round"/>
<path d="M19.6406 14.849C21.3643 13.8519 23.3655 13.2812 25.5 13.2812C31.972 13.2812 37.2188 18.5279 37.2188 25C37.2188 31.472 31.972 36.7188 25.5 36.7188C19.0279 36.7188 13.7812 31.472 13.7812 25C13.7812 22.8655 14.3519 20.8643 15.349 19.1406" stroke="#313131" stroke-width="1.875" stroke-linecap="round"/>
</svg>
