<svg width="50" height="50" viewBox="0 0 50 50" fill="none" xmlns="http://www.w3.org/2000/svg">
<circle cx="25" cy="25" r="25" fill="#FCE7D2"/>
<path d="M25 16.7969C25 15.1396 25 14.311 25.5148 13.7961C26.0297 13.2813 26.8584 13.2812 28.5156 13.2812H29.6875C31.3448 13.2812 32.1734 13.2813 32.6883 13.7961C33.2031 14.311 33.2031 15.1396 33.2031 16.7969C33.2031 18.4542 33.2031 19.2828 32.6883 19.7976C32.1734 20.3125 31.3448 20.3125 29.6875 20.3125H28.5156C26.8584 20.3125 26.0297 20.3125 25.5148 19.7976C25 19.2828 25 18.4542 25 16.7969Z" stroke="#313131" stroke-width="1.875"/>
<path d="M33.2031 15.3321L35.0962 14.5434C35.83 14.2376 36.1969 14.0847 36.4579 14.2587C36.7188 14.4326 36.7188 14.8301 36.7188 15.6251V17.9688C36.7188 18.7638 36.7188 19.1613 36.4579 19.3353C36.1969 19.5092 35.83 19.3563 35.0962 19.0506L33.2031 18.2618V15.3321Z" stroke="#313131" stroke-width="1.875"/>
<path d="M29.6875 36.7188H20.3125" stroke="#313131" stroke-width="1.875" stroke-linecap="round"/>
<path d="M25 30.8594V36.7188" stroke="#313131" stroke-width="1.875" stroke-linecap="round"/>
<path d="M36.7188 22.6563V23.8281C36.7188 27.1427 36.7188 28.7999 35.689 29.8296C34.6593 30.8594 33.002 30.8594 29.6875 30.8594H20.3125C16.9979 30.8594 15.3407 30.8594 14.311 29.8296C13.2813 28.7999 13.2812 27.1427 13.2812 23.8281V22.6563M22.0703 13.2812C18.2178 13.2812 16.2915 13.2812 14.995 14.3453C14.7577 14.5401 14.5401 14.7577 14.3453 14.995C13.753 15.7167 13.4904 16.6334 13.374 17.9688" stroke="#313131" stroke-width="1.875" stroke-linecap="round"/>
<path d="M36.7188 26.1719H29.6875M13.2812 26.1719H25" stroke="#313131" stroke-width="1.875" stroke-linecap="round"/>
</svg>
