<svg width="30" height="30" viewBox="0 0 30 30" fill="none" xmlns="http://www.w3.org/2000/svg">
<path d="M4.56055 8.71475L12.4017 5.03865C14.067 4.25795 15.9331 4.25795 17.5983 5.03865L25.4396 8.71481C27.1452 9.51444 27.1452 12.2825 25.4396 13.0821L17.5984 16.7582C15.9332 17.5389 14.0671 17.5389 12.4018 16.7582L6.79695 14.1306" stroke="#313131" stroke-width="1.875" stroke-linecap="round"/>
<path d="M3.86719 18.5156V15.1613C3.86719 13.6622 3.86719 12.9127 4.25428 12.3256C4.64138 11.7385 5.33031 11.4433 6.70819 10.8527L7.96875 10.3125" stroke="#313131" stroke-width="1.875" stroke-linecap="round" stroke-linejoin="round"/>
<path d="M15 25.5469C12.8953 25.5469 10.1411 24.2329 8.42031 23.28C7.38691 22.7077 6.79688 21.6016 6.79688 20.4204V14.4141M23.2031 14.4141V20.4204C23.2031 21.6016 22.6131 22.7077 21.5797 23.28C20.9582 23.6242 20.2017 24.0155 19.3897 24.375" stroke="#313131" stroke-width="1.875" stroke-linecap="round"/>
</svg>
