<svg width="30" height="30" viewBox="0 0 30 30" fill="none" xmlns="http://www.w3.org/2000/svg">
<path d="M27.5977 13.2873C27.5977 12.8019 27.2041 12.4084 26.7188 12.4084C26.2334 12.4084 25.8398 12.8019 25.8398 13.2873H27.5977ZM25.8398 9.14074C25.8398 9.62615 26.2334 10.0196 26.7188 10.0196C27.2041 10.0196 27.5977 9.62615 27.5977 9.14074H25.8398ZM2.40234 13.3252C2.40234 13.8105 2.79585 14.2041 3.28125 14.2041C3.76665 14.2041 4.16016 13.8105 4.16016 13.3252H2.40234ZM4.16016 17.3439C4.16016 16.8585 3.76665 16.465 3.28125 16.465C2.79585 16.465 2.40234 16.8585 2.40234 17.3439H4.16016ZM24.4405 3.59567C23.1064 3.64213 21.3628 3.7809 20.0214 4.18248L20.5255 5.86646C21.6379 5.53347 23.1905 5.39809 24.5017 5.35241L24.4405 3.59567ZM20.0214 4.18248C18.8554 4.53157 17.5437 5.21342 16.5213 5.80515L17.4018 7.32654C18.3984 6.74976 19.5643 6.15421 20.5255 5.86646L20.0214 4.18248ZM5.55046 5.41826C6.68248 5.48783 7.96457 5.62312 8.91638 5.87428L9.36488 4.17465C8.23893 3.87754 6.81465 3.73483 5.65829 3.66375L5.55046 5.41826ZM8.91638 5.87428C10.0439 6.17181 11.4315 6.82273 12.5762 7.42801L13.3978 5.87407C12.2313 5.25722 10.6965 4.52603 9.36488 4.17465L8.91638 5.87428ZM17.3208 25.2319C18.4821 24.6128 19.9205 23.9304 21.0837 23.6234L20.6351 21.9238C19.2636 22.2857 17.675 23.051 16.4939 23.6807L17.3208 25.2319ZM21.0837 23.6234C22.0246 23.375 23.2889 23.2399 24.4125 23.1697L24.3027 21.4153C23.1541 21.4871 21.7489 21.6299 20.6351 21.9238L21.0837 23.6234ZM13.5061 23.6807C12.3249 23.051 10.7364 22.2857 9.36488 21.9238L8.91638 23.6234C10.0795 23.9304 11.5179 24.6128 12.6792 25.2319L13.5061 23.6807ZM9.36488 21.9238C8.25108 21.6299 6.84581 21.4871 5.69728 21.4153L5.58755 23.1697C6.71109 23.2399 7.97538 23.375 8.91638 23.6234L9.36488 21.9238ZM25.8398 19.8559C25.8398 20.6595 25.1739 21.3608 24.3027 21.4153L24.4125 23.1697C26.1401 23.0616 27.5977 21.6561 27.5977 19.8559H25.8398ZM27.5977 6.7187C27.5977 5.0039 26.2321 3.53326 24.4405 3.59567L24.5017 5.35241C25.2221 5.32732 25.8398 5.91997 25.8398 6.7187H27.5977ZM2.40234 19.8559C2.40234 21.6561 3.8599 23.0616 5.58755 23.1697L5.69728 21.4153C4.82614 21.3608 4.16016 20.6595 4.16016 19.8559H2.40234ZM16.4939 23.6807C15.5654 24.1755 14.4346 24.1755 13.5061 23.6807L12.6792 25.2319C14.1245 26.0023 15.8755 26.0023 17.3208 25.2319L16.4939 23.6807ZM16.5213 5.80515C15.5626 6.35999 14.3692 6.38766 13.3978 5.87407L12.5762 7.42801C14.0905 8.22876 15.927 8.1801 17.4018 7.32654L16.5213 5.80515ZM4.16016 6.79442C4.16016 5.97741 4.80754 5.37259 5.55046 5.41826L5.65829 3.66375C3.83223 3.55152 2.40234 5.03759 2.40234 6.79442H4.16016ZM27.5977 19.8559V13.2873H25.8398V19.8559H27.5977ZM27.5977 9.14074V6.7187H25.8398V9.14074H27.5977ZM4.16016 13.3252V6.79442H2.40234V13.3252H4.16016ZM4.16016 19.8559V17.3439H2.40234V19.8559H4.16016Z" fill="#313131"/>
<path d="M15 7.38281V24.9609" stroke="#313131" stroke-width="1.875" stroke-linecap="round"/>
</svg>
