<svg width="63" height="62" viewBox="0 0 63 62" fill="none" xmlns="http://www.w3.org/2000/svg">
<rect x="0.397659" y="0.0358887" width="61.6769" height="61.6769" rx="11.214" fill="#FCE7D2"/>
<path d="M21.6056 25.0742L28.8402 21.6824C30.3766 20.9621 32.0983 20.9621 33.6347 21.6824L40.8694 25.0742C42.4431 25.812 42.4431 28.3659 40.8694 29.1036L33.6348 32.4953C32.0984 33.2156 30.3767 33.2156 28.8402 32.4953L23.669 30.071" stroke="#313131" stroke-width="1.72995" stroke-linecap="round"/>
<path d="M20.965 34.117V31.0221C20.965 29.639 20.965 28.9475 21.3221 28.4058C21.6793 27.8642 22.3149 27.5917 23.5862 27.0469L24.7492 26.5485" stroke="#313131" stroke-width="1.72995" stroke-linecap="round" stroke-linejoin="round"/>
<path d="M31.2366 40.6052C29.2948 40.6052 26.7536 39.3928 25.1659 38.5137C24.2125 37.9856 23.6681 36.9651 23.6681 35.8753V30.3336M38.8051 30.3336V35.8753C38.8051 36.9651 38.2607 37.9856 37.3073 38.5137C36.7338 38.8312 36.0359 39.1922 35.2867 39.524" stroke="#313131" stroke-width="1.72995" stroke-linecap="round"/>
</svg>
