<svg width="33" height="32" viewBox="0 0 33 32" fill="none" xmlns="http://www.w3.org/2000/svg">
<path d="M0.850673 15.6742C0.850673 12.5753 1.7651 9.54587 3.47829 6.96919C5.19148 4.39251 7.6265 2.38423 10.4754 1.19831C13.3244 0.0123939 16.4592 -0.297884 19.4836 0.306691C22.5081 0.911265 25.2861 2.40355 27.4666 4.59483C29.6471 6.78612 31.132 9.57804 31.7336 12.6174C32.3352 15.6568 32.0265 18.8072 30.8464 21.6703C29.6663 24.5333 27.668 26.9804 25.104 28.7021C22.54 30.4238 19.5256 31.3428 16.4419 31.3428C14.3943 31.3435 12.3665 30.9387 10.4745 30.1516C8.58258 29.3644 6.86351 28.2104 5.41558 26.7552C3.96765 25.3001 2.81924 23.5725 2.03597 21.6712C1.2527 19.7699 0.849922 17.732 0.850673 15.6742Z" fill="#1A608D"/>
</svg>
