<svg width="63" height="62" viewBox="0 0 63 62" fill="none" xmlns="http://www.w3.org/2000/svg">
<rect x="0.708466" y="0.0123291" width="61.6769" height="61.6769" rx="11.214" fill="#F4D0D2"/>
<path d="M25.0609 26.5269V34.7646M30.2667 26.5269V34.7646M25.0609 30.8517H30.2667M39.1167 35.1766L37.0344 33.529M35.9932 34.7646C35.5094 34.7646 35.2675 34.7646 35.0663 34.7331C34.2403 34.603 33.5946 34.0921 33.4303 33.4385C33.3902 33.2794 33.3902 33.088 33.3902 32.7052V28.5863C33.3902 28.2035 33.3902 28.0122 33.4303 27.853C33.5946 27.1994 34.2403 26.6885 35.0663 26.5585C35.2675 26.5269 35.5094 26.5269 35.9932 26.5269C36.477 26.5269 36.7189 26.5269 36.92 26.5585C37.746 26.6885 38.3917 27.1994 38.5561 27.853C38.5961 28.0122 38.5961 28.2035 38.5961 28.5863V32.7052C38.5961 33.088 38.5961 33.2794 38.5561 33.4385C38.3917 34.0921 37.746 34.603 36.92 34.7331C36.7189 34.7646 36.477 34.7646 35.9932 34.7646Z" stroke="#313131" stroke-width="1.72995" stroke-linecap="round"/>
<path d="M42.359 30.8507C42.359 35.9476 42.359 38.4961 40.7756 40.0795C39.1923 41.6629 36.6437 41.6629 31.5469 41.6629C26.45 41.6629 23.9015 41.6629 22.3181 40.0795C20.7347 38.4961 20.7347 35.9476 20.7347 30.8507C20.7347 25.7538 20.7347 23.2054 22.3181 21.622C23.9015 20.0386 26.45 20.0386 31.5469 20.0386C36.6437 20.0386 39.1923 20.0386 40.7756 21.622C41.8285 22.6748 42.1813 24.1543 42.2995 26.5259" stroke="#313131" stroke-width="1.72995" stroke-linecap="round"/>
</svg>
