<svg width="62" height="62" viewBox="0 0 62 62" fill="none" xmlns="http://www.w3.org/2000/svg">
<rect x="0.086853" y="0.0358887" width="61.6769" height="61.6769" rx="11.214" fill="#F4D0D2"/>
<path d="M33.0875 20.0621C33.0875 20.0621 35.4662 20.2784 38.4936 23.3058C41.521 26.3332 41.7372 28.7119 41.7372 28.7119" stroke="#313131" stroke-width="1.72995" stroke-linecap="round"/>
<path d="M33.3122 23.8844C33.3122 23.8844 34.3826 24.1902 35.9881 25.7957C37.5936 27.4013 37.8995 28.4716 37.8995 28.4716" stroke="#313131" stroke-width="1.72995" stroke-linecap="round"/>
<path d="M22.2822 26.4768C22.204 28.5399 22.7261 32.0435 26.2407 35.5581C27.0886 36.406 27.9359 37.0797 28.7624 37.6129M23.9378 23.2376C25.4439 21.7315 27.8468 21.9339 28.8031 23.6473L29.5048 24.9047C30.1381 26.0394 29.8839 27.528 28.8864 28.5254C28.8863 28.5255 27.6768 29.7352 29.8701 31.9287C32.0628 34.1214 33.2726 32.9133 33.2735 32.9124C34.2709 31.915 35.7594 31.6608 36.8941 32.294L38.1515 32.9958C39.865 33.952 40.0673 36.3549 38.5613 37.861C37.6563 38.766 36.5476 39.4702 35.3221 39.5166C34.442 39.55 33.2995 39.4741 32.0061 39.1032" stroke="#313131" stroke-width="1.72995" stroke-linecap="round"/>
</svg>
