<svg width="63" height="62" viewBox="0 0 63 62" fill="none" xmlns="http://www.w3.org/2000/svg">
<rect x="0.406952" y="0.0123291" width="61.6769" height="61.6769" rx="11.214" fill="#FCE7D2"/>
<path d="M31.2455 36.2574V37.3387" stroke="#313131" stroke-width="1.72995" stroke-linecap="round"/>
<path d="M31.2455 24.3629V25.4441" stroke="#313131" stroke-width="1.72995" stroke-linecap="round"/>
<path d="M34.4886 28.1479C34.4886 26.655 33.0365 25.4448 31.245 25.4448C29.4535 25.4448 28.0013 26.655 28.0013 28.1479C28.0013 29.6407 29.4535 30.8509 31.245 30.8509C33.0365 30.8509 34.4886 32.0611 34.4886 33.5539C34.4886 35.0468 33.0365 36.257 31.245 36.257C29.4535 36.257 28.0013 35.0468 28.0013 33.5539" stroke="#313131" stroke-width="1.72995" stroke-linecap="round"/>
<path d="M25.8389 21.4852C27.4292 20.5652 29.2757 20.0387 31.245 20.0387C37.2163 20.0387 42.0572 24.8795 42.0572 30.8509C42.0572 36.8222 37.2163 41.663 31.245 41.663C25.2736 41.663 20.4328 36.8222 20.4328 30.8509C20.4328 28.8815 20.9594 27.0351 21.8793 25.4448" stroke="#313131" stroke-width="1.72995" stroke-linecap="round"/>
</svg>
