<svg width="70" height="70" viewBox="0 0 70 70" fill="none" xmlns="http://www.w3.org/2000/svg">
<path d="M21.3281 51.4016C15.3808 51.3685 12.1599 51.1046 10.0589 49.0036C7.65625 46.6009 7.65625 42.7339 7.65625 35V24.0625C7.65625 16.3285 7.65625 12.4615 10.0589 10.0589C12.4615 7.65625 16.3285 7.65625 24.0625 7.65625H45.9375C53.6714 7.65625 57.5384 7.65625 59.9411 10.0589C61.2806 11.3984 61.8734 13.1931 62.1357 15.8594M47.3047 51.4016L49.5461 51.3945C54.9393 51.3373 57.9455 50.9994 59.9411 49.0036C62.3438 46.6009 62.3438 42.7339 62.3438 35V26.7969" stroke="#313131" stroke-width="4.375" stroke-linecap="round"/>
<path d="M26.7969 18.5938H43.2031" stroke="#313131" stroke-width="4.375" stroke-linecap="round"/>
<path d="M21.3281 28.1641H26.7969M48.6719 28.1641H36.3672" stroke="#313131" stroke-width="4.375" stroke-linecap="round"/>
<path d="M31.9675 40.3184C33.7156 38.8288 36.2865 38.8288 38.0343 40.3184C38.7832 40.9566 39.7145 41.3425 40.6956 41.4207C42.9849 41.6036 44.8027 43.4214 44.9853 45.7106C45.0638 46.6917 45.4493 47.6228 46.0878 48.372C47.5772 50.1198 47.5772 52.6907 46.0878 54.4388C45.4493 55.1877 45.0638 56.119 44.9853 57.0998C44.8027 59.3893 42.9849 61.2072 40.6956 61.3898C39.7145 61.468 38.7832 61.8538 38.0343 62.492C36.2865 63.9817 33.7156 63.9817 31.9675 62.492C31.2186 61.8538 30.2872 61.468 29.3062 61.3898C27.017 61.2072 25.1991 59.3893 25.0164 57.0998C24.9381 56.119 24.5524 55.1877 23.914 54.4388C22.4245 52.6907 22.4245 50.1198 23.914 48.372C24.5524 47.6228 24.9381 46.6917 25.0164 45.7106C25.1991 43.4214 27.017 41.6036 29.3062 41.4207C30.2872 41.3425 31.2186 40.9566 31.9675 40.3184Z" stroke="#313131" stroke-width="4.375"/>
<path d="M30.8984 51.9531L33.2421 54.1406L39.1016 48.6719" stroke="#313131" stroke-width="4.375" stroke-linecap="round" stroke-linejoin="round"/>
</svg>
