<svg width="182" height="183" viewBox="0 0 182 183" fill="none" xmlns="http://www.w3.org/2000/svg">
<path d="M179.102 91.1207C179.102 140.353 139.445 180.241 90.5512 180.241C41.6575 180.241 2 140.353 2 91.1207C2 41.8889 41.6575 2 90.5512 2C139.445 2 179.102 41.8889 179.102 91.1207Z" fill="white" stroke="#3E7B97" stroke-width="4"/>
<circle cx="90.5512" cy="90.5514" r="78.0221" fill="#3E7B97"/>
<path d="M97.9548 76.3139C97.9548 80.7173 95.1501 84.2869 91.6902 84.2869C88.2303 84.2869 85.4257 80.7173 85.4257 76.3139C85.4257 71.9105 88.2303 68.3408 91.6902 68.3408C95.1501 68.3408 97.9548 71.9105 97.9548 76.3139Z" stroke="white" stroke-width="4"/>
<path d="M112.762 87.7041C112.762 87.7041 100.339 92.2601 91.6902 92.2601C83.0412 92.2601 70.6185 87.7041 70.6185 87.7041" stroke="white" stroke-width="4" stroke-linecap="round"/>
<path d="M91.6902 95.6768V101.112M91.6902 101.112C91.6902 103.265 92.2868 105.372 93.4089 107.183L102.511 121.874M91.6902 101.112C91.6902 103.265 91.0936 105.372 89.9715 107.183L80.8696 121.874" stroke="white" stroke-width="4" stroke-linecap="round"/>
<path d="M72.8966 64.1046C78.2576 61.0034 84.482 59.2285 91.1207 59.2285C111.25 59.2285 127.569 75.547 127.569 95.6768C127.569 115.806 111.25 132.125 91.1207 132.125C70.9909 132.125 54.6724 115.806 54.6724 95.6768C54.6724 89.0381 56.4473 82.8137 59.5485 77.4527" stroke="white" stroke-width="4" stroke-linecap="round"/>
</svg>
