<svg width="63" height="62" viewBox="0 0 63 62" fill="none" xmlns="http://www.w3.org/2000/svg">
<rect x="0.813446" y="0.0358887" width="61.6769" height="61.6769" rx="11.214" fill="#FCE7D2"/>
<path d="M34.8953 23.3063H28.408C25.3709 23.3063 23.8524 23.3063 22.7616 24.0351C22.2893 24.3507 21.8839 24.7561 21.5683 25.2284C20.8395 26.3192 20.8395 27.8377 20.8395 30.8748C20.8395 33.9118 20.8395 35.4304 21.5683 36.5212C21.8839 36.9934 22.2893 37.3988 22.7616 37.7145C23.1367 37.9651 23.5624 38.1295 24.0831 38.2374M28.408 38.4433H34.8953C37.9323 38.4433 39.4509 38.4433 40.5417 37.7145C41.0139 37.3988 41.4193 36.9934 41.735 36.5212C42.4638 35.4304 42.4638 33.9118 42.4638 30.8748C42.4638 27.8377 42.4638 26.3192 41.735 25.2284C41.4193 24.7561 41.0139 24.3507 40.5417 24.0351C40.1665 23.7845 39.7409 23.62 39.2202 23.5121" stroke="#313131" stroke-width="1.72995" stroke-linecap="round"/>
<path d="M28.4073 27.6305C26.6159 27.6305 25.1637 29.0827 25.1637 30.8741C25.1637 32.6656 26.6159 34.1178 28.4073 34.1178" stroke="#313131" stroke-width="1.72995"/>
<path d="M34.8942 27.6305C36.6856 27.6305 38.1378 29.0827 38.1378 30.8741C38.1378 32.6656 36.6856 34.1178 34.8942 34.1178" stroke="#313131" stroke-width="1.72995"/>
<path d="M28.4078 23.3063V38.4433" stroke="#313131" stroke-width="1.72995" stroke-linecap="round"/>
<path d="M34.8942 23.3063V38.4433" stroke="#313131" stroke-width="1.72995" stroke-linecap="round"/>
</svg>
