<svg width="180" height="183" viewBox="0 0 180 183" fill="none" xmlns="http://www.w3.org/2000/svg">
<path d="M177.963 91.1207C177.963 140.365 138.549 180.241 89.9817 180.241C41.4144 180.241 2 140.365 2 91.1207C2 41.8769 41.4144 2 89.9817 2C138.549 2 177.963 41.8769 177.963 91.1207Z" fill="white" stroke="#50B748" stroke-width="4"/>
<circle cx="90.5512" cy="92.8292" r="78.0221" fill="#50B748"/>
<path d="M57.0034 114.439C59.1388 122.933 60.2065 127.18 63.391 129.652C66.5756 132.125 70.9778 132.125 79.7821 132.125H97.9032C106.708 132.125 111.11 132.125 114.294 129.652C117.479 127.18 118.547 122.933 120.682 114.439C124.039 101.083 125.718 94.4057 122.193 89.9159C118.668 85.4258 111.746 85.4258 97.9032 85.4258H79.7821C65.9392 85.4258 59.0178 85.4258 55.4925 89.9159C53.4232 92.5513 53.147 95.9409 53.9509 100.992" stroke="white" stroke-width="4" stroke-linecap="round"/>
<path d="M117.318 88.8425L114.621 77.512C113.581 73.1431 113.061 70.9586 111.994 69.3134C110.932 67.675 109.488 66.4122 107.829 65.6693C106.163 64.9233 104.186 64.9233 100.233 64.9233M60.3675 88.8425L63.0647 77.512C64.1047 73.1431 64.6247 70.9586 65.6913 69.3134C66.7535 67.675 68.1969 66.4122 69.8563 65.6693C71.5225 64.9233 73.4992 64.9233 77.4526 64.9233" stroke="white" stroke-width="4"/>
<path d="M77.4526 66.632C77.4526 64.4304 79.1525 62.6455 81.2493 62.6455H96.4361C98.533 62.6455 100.233 64.4304 100.233 66.632C100.233 68.8337 98.533 70.6186 96.4361 70.6186H81.2493C79.1525 70.6186 77.4526 68.8337 77.4526 66.632Z" stroke="white" stroke-width="4"/>
</svg>
