<svg width="180" height="183" viewBox="0 0 180 183" fill="none" xmlns="http://www.w3.org/2000/svg">
<path d="M177.963 91.1207C177.963 140.365 138.549 180.241 89.9817 180.241C41.4144 180.241 2 140.365 2 91.1207C2 41.8769 41.4144 2 89.9817 2C138.549 2 177.963 41.8769 177.963 91.1207Z" fill="white" stroke="#00ABB7" stroke-width="4"/>
<ellipse cx="89.9817" cy="91.1211" rx="78.5916" ry="77.4526" fill="#00ABB7"/>
<path d="M109.345 93.9687H103.08M103.08 93.9687H96.8157M103.08 93.9687V87.7041M103.08 93.9687V100.233" stroke="white" stroke-width="1.95299" stroke-linecap="round"/>
<path d="M88.2732 78.2735L86.4449 79.9788C86.9181 80.4838 87.58 80.7704 88.2732 80.7704C88.9664 80.7704 89.6282 80.4838 90.1015 79.9788L88.2732 78.2735ZM57.0723 105.266C57.7877 106.446 59.3267 106.824 60.5096 106.111C61.6926 105.397 62.0715 103.862 61.3561 102.682L57.0723 105.266ZM70.0412 113.551C69.0767 112.563 67.4919 112.542 66.5015 113.504C65.511 114.466 65.49 116.047 66.4545 117.035L70.0412 113.551ZM57.4008 90.7357C57.4008 81.0659 61.6316 75.0882 66.8661 73.0437C72.0891 71.0037 79.3966 72.4597 86.4449 79.9788L90.1015 76.5682C82.1314 68.0655 72.751 65.3823 65.0408 68.3938C57.3421 71.4007 52.3944 79.665 52.3944 90.7357H57.4008ZM99.991 126.169C104.972 122.137 110.94 116.734 115.684 110.699C120.379 104.725 124.152 97.7865 124.152 90.7356H119.146C119.146 96.1003 116.211 101.935 111.744 107.617C107.325 113.239 101.675 118.375 96.8364 122.292L99.991 126.169ZM124.152 90.7356C124.152 79.665 119.204 71.4007 111.506 68.3938C103.796 65.3823 94.415 68.0655 86.4449 76.5682L90.1015 79.9788C97.1498 72.4597 104.457 71.0037 109.68 73.0437C114.915 75.0881 119.146 81.0658 119.146 90.7356H124.152ZM76.5555 126.169C80.799 129.604 83.7418 132.125 88.2732 132.125V127.131C85.8605 127.131 84.3579 126.054 79.7101 122.292L76.5555 126.169ZM96.8364 122.292C92.1885 126.054 90.6859 127.131 88.2732 127.131V132.125C92.8046 132.125 95.7473 129.604 99.991 126.169L96.8364 122.292ZM61.3561 102.682C58.863 98.5702 57.4008 94.5226 57.4008 90.7357H52.3944C52.3944 95.77 54.3184 100.724 57.0723 105.266L61.3561 102.682ZM79.7101 122.292C76.6495 119.814 73.2506 116.838 70.0412 113.551L66.4545 117.035C69.8348 120.497 73.3875 123.605 76.5555 126.169L79.7101 122.292Z" fill="white"/>
</svg>
