<svg width="180" height="183" viewBox="0 0 180 183" fill="none" xmlns="http://www.w3.org/2000/svg">
<path d="M177.963 91.1207C177.963 140.365 138.549 180.241 89.9817 180.241C41.4144 180.241 2 140.365 2 91.1207C2 41.8769 41.4144 2 89.9817 2C138.549 2 177.963 41.8769 177.963 91.1207Z" fill="white" stroke="#E23A59" stroke-width="4"/>
<ellipse cx="88.8427" cy="91.6901" rx="78.5916" ry="78.0221" fill="#E23A59"/>
<path d="M120.735 76.2077V67.1655C120.735 65.0516 118.25 63.93 116.677 65.3344C114.363 67.4014 110.876 67.4014 108.562 65.3344C106.248 63.2674 102.761 63.2674 100.446 65.3344C98.1323 67.4014 94.6452 67.4014 92.331 65.3344C90.0168 63.2674 86.5297 63.2674 84.2156 65.3344C81.9014 67.4014 78.4142 67.4014 76.1001 65.3344C73.786 63.2674 70.2988 63.2674 67.9847 65.3344C65.6706 67.4014 62.1834 67.4014 59.8692 65.3344C58.297 63.93 55.8115 65.0516 55.8115 67.1655V105.203M120.735 90.7053V128.743C120.735 130.857 118.25 131.979 116.677 130.574C114.363 128.507 110.876 128.507 108.562 130.574C106.248 132.641 102.761 132.641 100.446 130.574C98.1323 128.507 94.6452 128.507 92.331 130.574C90.0168 132.641 86.5297 132.641 84.2156 130.574C81.9014 128.507 78.4142 128.507 76.1001 130.574C73.786 132.641 70.2988 132.641 67.9847 130.574C65.6706 128.507 62.1834 128.507 59.8692 130.574C58.297 131.979 55.8115 130.857 55.8115 128.743V119.701" stroke="white" stroke-width="4" stroke-linecap="round"/>
<path d="M71.7576 110.484H85.9319M103.65 110.484H96.5626" stroke="white" stroke-width="4" stroke-linecap="round"/>
<path d="M103.65 97.9546H89.4755M71.7576 97.9546H78.8447" stroke="white" stroke-width="4" stroke-linecap="round"/>
<path d="M71.7576 85.4253H103.65" stroke="white" stroke-width="4" stroke-linecap="round"/>
</svg>
