<svg width="63" height="62" viewBox="0 0 63 62" fill="none" xmlns="http://www.w3.org/2000/svg">
<rect x="0.708466" y="0.0358887" width="61.6769" height="61.6769" rx="11.214" fill="#F4D0D2"/>
<path d="M25.0609 22.9925C25.9045 23.7607 27.6423 25.8605 27.8448 28.114C27.9803 29.622 28.7313 30.9276 29.9264 31.5562C30.4006 31.8058 30.9448 31.9486 31.5482 31.9552C32.3644 31.9641 33.1898 31.3745 33.1877 30.5583C33.1871 30.3058 33.1455 30.0477 33.0803 29.8104C32.9895 29.4801 32.9815 29.1002 33.17 28.7115C33.8294 27.352 35.1264 26.9868 36.1541 26.2484C36.6098 25.9209 37.0255 25.5754 37.2089 25.2972C37.7151 24.5289 38.2212 22.9925 37.9681 22.2242" stroke="#313131" stroke-width="1.72995"/>
<path d="M42.3602 31.9547C42.004 32.9613 41.752 35.6038 37.7306 35.6458C37.7306 35.6458 36.8728 35.6458 35.8729 35.8837M33.1012 37.6591C32.2465 39.2697 32.745 41.0145 33.1012 41.6857" stroke="#313131" stroke-width="1.72995" stroke-linecap="round"/>
<path d="M26.1408 40.24C27.7311 41.1599 29.5775 41.6865 31.5469 41.6865C37.5182 41.6865 42.359 36.8456 42.359 30.8743C42.359 24.9029 37.5182 20.0621 31.5469 20.0621C25.5755 20.0621 20.7347 24.9029 20.7347 30.8743C20.7347 32.8436 21.2612 34.69 22.1812 36.2804" stroke="#313131" stroke-width="1.72995" stroke-linecap="round"/>
</svg>
