<svg width="62" height="62" viewBox="0 0 62 62" fill="none" xmlns="http://www.w3.org/2000/svg">
<rect x="0.274628" y="0.0123291" width="61.6769" height="61.6769" rx="11.214" fill="#FCE7D2"/>
<path d="M26.7873 27.6071H35.437" stroke="#313131" stroke-width="1.72995" stroke-linecap="round"/>
<path d="M26.7873 31.3922H32.734" stroke="#313131" stroke-width="1.72995" stroke-linecap="round"/>
<path d="M19.4904 29.2294C19.4904 29.6772 19.8534 30.0403 20.3013 30.0403C20.7491 30.0403 21.1122 29.6772 21.1122 29.2294H19.4904ZM21.462 34.7721C21.2906 34.3584 20.8163 34.1619 20.4025 34.3333C19.9887 34.5047 19.7922 34.979 19.9636 35.3928L21.462 34.7721ZM32.9862 41.4144L33.5724 40.4242L32.1766 39.598L31.5905 40.5883L32.9862 41.4144ZM28.6545 40.4242L29.2407 41.4144L30.6363 40.5883L30.0502 39.598L28.6545 40.4242ZM31.5905 40.5883C31.3821 40.9404 30.8448 40.9404 30.6363 40.5883L29.2407 41.4144C30.0771 42.8275 32.1498 42.8275 32.9862 41.4144L31.5905 40.5883ZM29.4916 20.85H32.7353V19.2281H29.4916V20.85ZM41.1147 29.2294V30.3106H42.7365V29.2294H41.1147ZM26.5751 37.5997C25.2177 37.5763 24.5064 37.49 23.9489 37.259L23.3282 38.7574C24.1986 39.1179 25.1899 39.1979 26.5471 39.2212L26.5751 37.5997ZM19.9636 35.3928C20.5946 36.9161 21.8049 38.1264 23.3282 38.7574L23.9489 37.259C22.8229 36.7926 21.9284 35.8981 21.462 34.7721L19.9636 35.3928ZM41.1147 30.3106C41.1147 31.5812 41.1143 32.4935 41.0652 33.2134C41.0165 33.926 40.9229 34.3907 40.7649 34.7721L42.2633 35.3928C42.5168 34.7808 42.629 34.119 42.6832 33.3237C42.737 32.5359 42.7365 31.559 42.7365 30.3106H41.1147ZM35.6798 39.2212C37.037 39.1979 38.0284 39.1179 38.8986 38.7574L38.278 37.259C37.7206 37.49 37.0092 37.5763 35.6519 37.5997L35.6798 39.2212ZM40.7649 34.7721C40.2985 35.8981 39.404 36.7926 38.278 37.259L38.8986 38.7574C40.422 38.1264 41.6323 36.9161 42.2633 35.3928L40.7649 34.7721ZM32.7353 20.85C34.5206 20.85 35.8027 20.8508 36.8027 20.9459C37.7907 21.0398 38.4193 21.22 38.9205 21.5271L39.7679 20.1443C38.969 19.6548 38.0629 19.4366 36.9562 19.3314C35.8616 19.2273 34.4892 19.2281 32.7353 19.2281V20.85ZM42.7365 29.2294C42.7365 27.4755 42.7374 26.1031 42.6333 25.0084C42.5281 23.9018 42.3099 22.9956 41.8204 22.1968L40.4375 23.0442C40.7447 23.5453 40.9248 24.174 41.0188 25.162C41.1138 26.162 41.1147 27.4441 41.1147 29.2294H42.7365ZM38.9205 21.5271C39.5388 21.906 40.0587 22.4259 40.4375 23.0442L41.8204 22.1968C41.3078 21.3602 40.6045 20.6569 39.7679 20.1443L38.9205 21.5271ZM29.4916 19.2281C27.7377 19.2281 26.3653 19.2273 25.2707 19.3314C24.164 19.4366 23.2578 19.6548 22.459 20.1443L23.3064 21.5271C23.8076 21.22 24.4362 21.0398 25.4242 20.9459C26.4242 20.8508 27.7063 20.85 29.4916 20.85V19.2281ZM21.1122 29.2294C21.1122 27.4441 21.1131 26.162 21.2081 25.162C21.3021 24.174 21.4822 23.5453 21.7894 23.0442L20.4065 22.1968C19.917 22.9956 19.6988 23.9018 19.5936 25.0084C19.4895 26.1031 19.4904 27.4755 19.4904 29.2294H21.1122ZM22.459 20.1443C21.6225 20.6569 20.9191 21.3602 20.4065 22.1968L21.7894 23.0442C22.1683 22.4259 22.6881 21.906 23.3064 21.5271L22.459 20.1443ZM30.0502 39.598C29.8307 39.2272 29.638 38.8999 29.4507 38.6428C29.2532 38.3721 29.0269 38.1282 28.713 37.9456L27.8976 39.3476C27.9489 39.3774 28.0187 39.4318 28.14 39.598C28.2712 39.7782 28.4194 40.027 28.6545 40.4242L30.0502 39.598ZM26.5471 39.2212C27.0219 39.2295 27.3226 39.2355 27.5518 39.2608C27.766 39.2846 27.849 39.3193 27.8976 39.3476L28.713 37.9456C28.3965 37.7615 28.0671 37.6861 27.7303 37.6488C27.4086 37.6133 27.0197 37.6074 26.5751 37.5997L26.5471 39.2212ZM33.5724 40.4242C33.8074 40.027 33.9557 39.7782 34.0869 39.598C34.2081 39.4318 34.278 39.3774 34.3292 39.3476L33.5139 37.9456C33.2 38.1282 32.9736 38.3721 32.7763 38.6428C32.5889 38.8999 32.3962 39.2272 32.1766 39.598L33.5724 40.4242ZM35.6519 37.5997C35.2072 37.6074 34.8184 37.6133 34.4966 37.6488C34.1598 37.6861 33.8304 37.7615 33.5139 37.9456L34.3292 39.3476C34.3779 39.3193 34.4609 39.2846 34.6751 39.2608C34.9043 39.2355 35.205 39.2295 35.6798 39.2212L35.6519 37.5997Z" fill="#313131"/>
</svg>
