<svg width="1258" height="556" viewBox="0 0 1258 556" fill="none" xmlns="http://www.w3.org/2000/svg">
<path d="M739.979 272.106H972.619" stroke="#150D36" stroke-width="3.12478" stroke-miterlimit="10"/>
<path d="M274.7 272.106H507.34" stroke="#150D36" stroke-width="3.12478" stroke-miterlimit="10"/>
<g opacity="0.3" filter="url(#filter0_f_631_5511)">
<path d="M388.286 15.25C451.875 15.25 503.434 66.9651 503.434 130.554C503.434 194.144 451.875 245.859 388.286 245.859" stroke="#19374C" stroke-width="4.68717" stroke-miterlimit="10"/>
</g>
<path d="M388.286 9C451.875 9 503.434 60.7151 503.434 124.304C503.434 187.894 451.875 239.609 388.286 239.609" stroke="#150D36" stroke-width="4.68717" stroke-miterlimit="10"/>
<path d="M388.287 239.609C324.541 239.609 272.982 187.894 272.982 124.304C272.982 60.7151 324.541 9 388.287 9" stroke="url(#paint0_linear_631_5511)" stroke-width="15.6239" stroke-miterlimit="10"/>
<g filter="url(#filter1_f_631_5511)">
<path d="M316.259 130.554C316.259 151.802 298.917 169.145 277.668 169.145C256.42 169.145 239.234 151.802 239.234 130.554C239.234 109.305 256.42 92.1191 277.668 92.1191C298.917 92.1191 316.259 109.305 316.259 130.554Z" fill="#939393"/>
</g>
<path d="M311.572 124.616C311.572 145.865 294.23 163.207 272.981 163.207C251.733 163.207 234.546 145.865 234.546 124.616C234.546 103.368 251.733 86.1816 272.981 86.1816C294.23 86.1816 311.572 103.368 311.572 124.616Z" fill="white"/>
<path d="M300.949 123.836C300.949 139.46 288.293 152.115 272.669 152.115C257.046 152.115 244.546 139.46 244.546 123.836C244.546 108.212 257.046 95.5566 272.669 95.5566C288.293 95.5566 300.949 108.212 300.949 123.836Z" fill="url(#paint1_linear_631_5511)"/>
<path d="M269.008 128.562C270.046 129.331 271.309 129.782 272.67 129.782C274.032 129.782 275.294 129.331 276.332 128.562" stroke="white" stroke-width="1.95299" stroke-linecap="round"/>
<path d="M284.876 123.929V125.785C284.876 130.547 284.876 132.928 283.446 134.407C282.016 135.886 279.714 135.886 275.111 135.886H270.228C265.625 135.886 263.323 135.886 261.893 134.407C260.463 132.928 260.463 130.547 260.463 125.785V123.929C260.463 121.135 260.463 119.739 261.097 118.581C261.731 117.423 262.889 116.705 265.204 115.267L267.646 113.752C270.093 112.233 271.317 111.474 272.67 111.474C274.022 111.474 275.246 112.233 277.694 113.752L280.135 115.267C282.45 116.705 283.608 117.423 284.242 118.581" stroke="white" stroke-width="1.95299" stroke-linecap="round"/>
<g opacity="0.3" filter="url(#filter2_f_631_5511)">
<path d="M161.74 163.052C225.329 163.052 276.888 214.767 276.888 278.356C276.888 341.945 225.329 393.66 161.74 393.66" stroke="#19374C" stroke-width="4.68717" stroke-miterlimit="10"/>
</g>
<path d="M161.74 156.802C225.329 156.802 276.888 208.517 276.888 272.106C276.888 335.695 225.329 387.41 161.74 387.41" stroke="#150D36" stroke-width="4.68717" stroke-miterlimit="10"/>
<path d="M161.74 387.41C97.9947 387.41 46.4358 335.695 46.4358 272.106C46.4358 208.517 97.9947 156.802 161.74 156.802" stroke="url(#paint2_linear_631_5511)" stroke-width="15.6239" stroke-miterlimit="10"/>
<g filter="url(#filter3_f_631_5511)">
<path d="M89.7131 278.356C89.7131 299.604 72.3705 316.947 51.122 316.947C29.8735 316.947 12.6873 299.604 12.6873 278.356C12.6873 257.107 29.8735 239.765 51.122 239.765C72.3705 239.765 89.7131 257.107 89.7131 278.356Z" fill="#939393"/>
</g>
<path d="M85.0258 271.638C85.0258 292.886 67.6833 310.229 46.4348 310.229C25.1863 310.229 8 292.886 8 271.638C8 250.389 25.1863 233.047 46.4348 233.047C67.6833 233.047 85.0258 250.389 85.0258 271.638Z" fill="white"/>
<path d="M74.4023 272.263C74.4023 287.887 61.7469 300.542 46.123 300.542C30.4991 300.542 18 287.887 18 272.263C18 256.639 30.4991 243.983 46.123 243.983C61.7469 243.983 74.4023 256.639 74.4023 272.263Z" fill="url(#paint3_linear_631_5511)"/>
<g style="mix-blend-mode:multiply" opacity="0.2">
<g filter="url(#filter4_f_631_5511)">
<path d="M859.659 245.859C796.07 245.859 744.511 194.144 744.511 130.554C744.511 66.9651 796.07 15.25 859.659 15.25" stroke="#19374C" stroke-width="4.68717" stroke-miterlimit="10"/>
</g>
</g>
<path d="M859.659 240.234C796.07 240.234 744.511 188.519 744.511 124.929C744.511 61.3401 796.07 9.625 859.659 9.625" stroke="#150D36" stroke-width="4.68717" stroke-miterlimit="10"/>
<path d="M859.66 9C923.405 9 974.964 60.7151 974.964 124.304C974.964 187.894 923.405 239.609 859.66 239.609" stroke="url(#paint4_linear_631_5511)" stroke-width="15.6239" stroke-miterlimit="10"/>
<g style="mix-blend-mode:multiply" opacity="0.5">
<g filter="url(#filter5_f_631_5511)">
<path d="M941.06 130.554C941.06 109.305 958.402 92.1191 979.651 92.1191C1000.9 92.1191 1018.09 109.305 1018.09 130.554C1018.09 151.802 1000.9 169.145 979.651 169.145C958.402 169.145 941.06 151.802 941.06 130.554Z" fill="#939393"/>
</g>
</g>
<path d="M936.372 124.616C936.372 103.368 953.714 86.1816 974.963 86.1816C996.211 86.1816 1013.4 103.368 1013.4 124.616C1013.4 145.865 996.211 163.207 974.963 163.207C953.714 163.207 936.372 145.865 936.372 124.616Z" fill="white"/>
<path d="M946.059 123.836C946.059 108.212 958.715 95.5566 974.339 95.5566C989.962 95.5566 1002.62 108.212 1002.62 123.836C1002.62 139.46 989.962 152.115 974.339 152.115C958.715 152.115 946.059 139.46 946.059 123.836Z" fill="url(#paint5_linear_631_5511)"/>
<path d="M984.29 135.887V135.276M967.201 135.887V135.276" stroke="white" stroke-width="1.95299" stroke-linecap="round"/>
<path d="M975.746 134.665V126.121M975.746 111.474V121.239" stroke="white" stroke-width="1.95299" stroke-linecap="round"/>
<path d="M979.406 118.798V121.239" stroke="white" stroke-width="1.95299" stroke-linecap="round"/>
<path d="M987.951 122.459V124.9C987.951 129.504 987.951 131.805 986.521 133.235C985.091 134.665 982.789 134.665 978.186 134.665H973.304C968.701 134.665 966.399 134.665 964.969 133.235C963.539 131.805 963.539 129.504 963.539 124.9V121.239C963.539 116.635 963.539 114.334 964.969 112.904C966.399 111.474 968.701 111.474 973.304 111.474H978.186C982.789 111.474 985.091 111.474 986.521 112.904C987.508 113.89 987.814 115.291 987.908 117.577" stroke="white" stroke-width="1.95299" stroke-linecap="round"/>
<path d="M963.539 118.798H975.745" stroke="white" stroke-width="1.95299" stroke-linecap="round"/>
<path d="M963.539 127.341H987.951" stroke="white" stroke-width="1.95299" stroke-linecap="round"/>
<path d="M979.406 131.003H981.847" stroke="white" stroke-width="1.95299" stroke-linecap="round"/>
<path d="M969.64 131.003H972.082" stroke="white" stroke-width="1.95299" stroke-linecap="round"/>
<g opacity="0.3" filter="url(#filter6_f_631_5511)">
<path d="M859.659 541.462C796.07 541.462 744.511 489.747 744.511 426.158C744.511 362.569 796.07 310.854 859.659 310.854" stroke="#19374C" stroke-width="4.68717" stroke-miterlimit="10"/>
</g>
<path d="M859.659 535.213C796.07 535.213 744.511 483.498 744.511 419.909C744.511 356.32 796.07 304.604 859.659 304.604" stroke="#150D36" stroke-width="4.68717" stroke-miterlimit="10"/>
<path d="M859.66 304.604C923.405 304.604 974.964 356.32 974.964 419.909C974.964 483.498 923.405 535.213 859.66 535.213" stroke="url(#paint6_linear_631_5511)" stroke-width="15.6239" stroke-miterlimit="10"/>
<g filter="url(#filter7_f_631_5511)">
<path d="M941.06 426.158C941.06 404.91 958.402 387.567 979.651 387.567C1000.9 387.567 1018.09 404.91 1018.09 426.158C1018.09 447.407 1000.9 464.593 979.651 464.593C958.402 464.593 941.06 447.407 941.06 426.158Z" fill="#939393"/>
</g>
<path d="M936.372 420.065C936.372 398.816 953.715 381.474 974.963 381.474C996.212 381.474 1013.4 398.816 1013.4 420.065C1013.4 441.313 996.212 458.499 974.963 458.499C953.715 458.499 936.372 441.313 936.372 420.065Z" fill="white"/>
<path d="M946.059 420.689C946.059 405.066 958.715 392.41 974.339 392.41C989.962 392.41 1002.62 405.066 1002.62 420.689C1002.62 436.313 989.962 448.969 974.339 448.969C958.715 448.969 946.059 436.313 946.059 420.689Z" fill="url(#paint7_linear_631_5511)"/>
<path d="M978.187 414.43C978.187 415.779 977.094 416.872 975.746 416.872C974.397 416.872 973.304 415.779 973.304 414.43C973.304 413.082 974.397 411.989 975.746 411.989C977.094 411.989 978.187 413.082 978.187 414.43Z" stroke="white" stroke-width="1.95299"/>
<path d="M983.069 418.093C983.069 418.093 978.751 419.924 975.745 419.924C972.739 419.924 968.422 418.093 968.422 418.093" stroke="white" stroke-width="1.95299" stroke-linecap="round"/>
<path d="M975.744 420.532V422.305M975.744 422.305C975.744 423.007 975.946 423.694 976.325 424.285L979.405 429.077M975.744 422.305C975.744 423.007 975.542 423.694 975.162 424.285L972.082 429.077" stroke="white" stroke-width="1.95299" stroke-linecap="round"/>
<path d="M969.642 409.96C971.437 408.922 973.522 408.327 975.745 408.327C982.486 408.327 987.951 413.792 987.951 420.533C987.951 427.275 982.486 432.739 975.745 432.739C969.004 432.739 963.539 427.275 963.539 420.533C963.539 418.31 964.133 416.226 965.172 414.43" stroke="white" stroke-width="1.95299" stroke-linecap="round"/>
<g opacity="0.3" filter="url(#filter8_f_631_5511)">
<path d="M1086.83 393.66C1023.24 393.66 971.526 341.945 971.526 278.356C971.526 214.767 1023.24 163.052 1086.83 163.052" stroke="#19374C" stroke-width="4.68717" stroke-miterlimit="10"/>
</g>
<path d="M1086.83 387.098C1023.24 387.098 971.526 335.383 971.526 271.794C971.526 208.204 1023.24 156.489 1086.83 156.489" stroke="#150D36" stroke-width="4.68717" stroke-miterlimit="10"/>
<path d="M1086.83 156.802C1150.42 156.802 1202.14 208.517 1202.14 272.106C1202.14 335.695 1150.42 387.41 1086.83 387.41" stroke="url(#paint8_linear_631_5511)" stroke-width="15.6239" stroke-miterlimit="10"/>
<g filter="url(#filter9_f_631_5511)">
<path d="M1168.23 278.356C1168.23 257.107 1185.42 239.765 1206.82 239.765C1228.07 239.765 1245.26 257.107 1245.26 278.356C1245.26 299.604 1228.07 316.947 1206.82 316.947C1185.42 316.947 1168.23 299.604 1168.23 278.356Z" fill="#939393"/>
</g>
<path d="M1163.54 273.2C1163.54 251.952 1180.73 234.609 1202.14 234.609C1223.38 234.609 1240.57 251.952 1240.57 273.2C1240.57 294.449 1223.38 311.791 1202.14 311.791C1180.73 311.791 1163.54 294.449 1163.54 273.2Z" fill="white"/>
<path d="M1173.86 272.106C1173.86 256.483 1186.51 243.827 1202.14 243.827C1217.6 243.827 1230.26 256.483 1230.26 272.106C1230.26 287.73 1217.6 300.386 1202.14 300.386C1186.51 300.386 1173.86 287.73 1173.86 272.106Z" fill="url(#paint9_linear_631_5511)"/>
<g opacity="0.3" filter="url(#filter10_f_631_5511)">
<path d="M388.286 310.854C451.875 310.854 503.434 362.569 503.434 426.158C503.434 489.747 451.875 541.462 388.286 541.462" stroke="#19374C" stroke-width="4.68717" stroke-miterlimit="10"/>
</g>
<path d="M388.286 304.604C451.875 304.604 503.434 356.32 503.434 419.909C503.434 483.498 451.875 535.213 388.286 535.213" stroke="#150D36" stroke-width="4.68717" stroke-miterlimit="10"/>
<path d="M388.287 535.213C324.541 535.213 272.982 483.498 272.982 419.909C272.982 356.32 324.541 304.604 388.287 304.604" stroke="url(#paint10_linear_631_5511)" stroke-width="15.6239" stroke-miterlimit="10"/>
<g filter="url(#filter11_f_631_5511)">
<path d="M316.259 426.158C316.259 447.407 298.917 464.593 277.668 464.593C256.42 464.593 239.234 447.407 239.234 426.158C239.234 404.91 256.42 387.567 277.668 387.567C298.917 387.567 316.259 404.91 316.259 426.158Z" fill="#939393"/>
</g>
<path d="M311.572 420.065C311.572 441.313 294.23 458.499 272.981 458.499C251.733 458.499 234.546 441.313 234.546 420.065C234.546 398.816 251.733 381.474 272.981 381.474C294.23 381.474 311.572 398.816 311.572 420.065Z" fill="white"/>
<path d="M300.949 420.689C300.949 436.313 288.293 448.969 272.669 448.969C257.046 448.969 244.546 436.313 244.546 420.689C244.546 405.066 257.046 392.41 272.669 392.41C288.293 392.41 300.949 405.066 300.949 420.689Z" fill="url(#paint11_linear_631_5511)"/>
<path d="M262.739 425.972C263.405 428.636 263.738 429.968 264.731 430.744C265.725 431.519 267.098 431.519 269.844 431.519H275.496C278.243 431.519 279.616 431.519 280.609 430.744C281.602 429.968 281.935 428.636 282.601 425.972C283.649 421.783 284.172 419.689 283.073 418.28C281.973 416.872 279.814 416.872 275.496 416.872H269.844C265.526 416.872 263.367 416.872 262.268 418.28C261.622 419.107 261.536 420.17 261.787 421.755" stroke="white" stroke-width="1.95299" stroke-linecap="round"/>
<path d="M281.825 417.482L280.958 414.302C280.624 413.076 280.457 412.462 280.114 412.001C279.772 411.541 279.308 411.186 278.775 410.978C278.239 410.769 277.604 410.769 276.333 410.769M263.516 417.482L264.383 414.302C264.718 413.076 264.885 412.462 265.228 412.001C265.569 411.541 266.033 411.186 266.567 410.978C267.102 410.769 267.738 410.769 269.009 410.769" stroke="white" stroke-width="1.95299"/>
<path d="M269.008 410.768C269.008 410.094 269.555 409.548 270.229 409.548H275.111C275.786 409.548 276.332 410.094 276.332 410.768C276.332 411.443 275.786 411.989 275.111 411.989H270.229C269.555 411.989 269.008 411.443 269.008 410.768Z" stroke="white" stroke-width="1.95299"/>
<path d="M705.764 209.298L755.292 174.77" stroke="#150D36" stroke-width="3.12478" stroke-miterlimit="10"/>
<g style="mix-blend-mode:multiply" opacity="0.5">
<g filter="url(#filter12_f_631_5511)">
<path d="M750.76 181.02C750.76 186.176 754.979 190.394 759.979 190.394C765.135 190.394 769.197 186.176 769.197 181.02C769.197 176.02 765.135 171.802 759.979 171.802C754.979 171.802 750.76 176.02 750.76 181.02Z" fill="#939393"/>
</g>
</g>
<path d="M746.073 174.77C746.073 179.926 750.291 184.144 755.291 184.144C760.447 184.144 764.509 179.926 764.509 174.77C764.509 169.77 760.447 165.552 755.291 165.552C750.291 165.552 746.073 169.77 746.073 174.77Z" fill="url(#paint12_linear_631_5511)"/>
<path d="M705.764 334.915L755.292 369.444" stroke="#150D36" stroke-width="3.12478" stroke-miterlimit="10"/>
<g style="mix-blend-mode:multiply" opacity="0.5">
<g filter="url(#filter13_f_631_5511)">
<path d="M750.76 375.694C750.76 370.538 754.979 366.319 759.979 366.319C765.135 366.319 769.197 370.538 769.197 375.694C769.197 380.693 765.135 384.912 759.979 384.912C754.979 384.912 750.76 380.693 750.76 375.694Z" fill="#939393"/>
</g>
</g>
<path d="M746.073 369.444C746.073 364.288 750.291 360.069 755.291 360.069C760.447 360.069 764.509 364.288 764.509 369.444C764.509 374.443 760.447 378.662 755.291 378.662C750.291 378.662 746.073 374.443 746.073 369.444Z" fill="url(#paint13_linear_631_5511)"/>
<g filter="url(#filter14_f_631_5511)">
<path d="M968.401 278.356C968.401 283.512 972.62 287.574 977.62 287.574C982.775 287.574 986.838 283.512 986.838 278.356C986.838 273.2 982.775 269.138 977.62 269.138C972.62 269.138 968.401 273.2 968.401 278.356Z" fill="#939393"/>
</g>
<path d="M963.714 272.107C963.714 277.263 967.933 281.325 972.932 281.325C978.088 281.325 982.15 277.263 982.15 272.107C982.15 266.951 978.088 262.889 972.932 262.889C967.933 262.889 963.714 266.951 963.714 272.107Z" fill="url(#paint14_linear_631_5511)"/>
<g filter="url(#filter15_f_631_5511)">
<path d="M272.044 278.356C272.044 283.512 276.106 287.574 281.262 287.574C286.262 287.574 290.48 283.512 290.48 278.356C290.48 273.2 286.262 269.138 281.262 269.138C276.106 269.138 272.044 273.2 272.044 278.356Z" fill="#939393"/>
</g>
<path d="M267.357 272.107C267.357 277.263 271.419 281.325 276.575 281.325C281.574 281.325 285.793 277.263 285.793 272.107C285.793 266.951 281.574 262.889 276.575 262.889C271.419 262.889 267.357 266.951 267.357 272.107Z" fill="url(#paint15_linear_631_5511)"/>
<path d="M542.339 209.298L492.811 174.77" stroke="#150D36" stroke-width="3.12478" stroke-miterlimit="10"/>
<g style="mix-blend-mode:multiply" opacity="0.5">
<g filter="url(#filter16_f_631_5511)">
<path d="M506.716 181.019C506.716 186.175 502.497 190.393 497.498 190.393C492.342 190.393 488.28 186.175 488.28 181.019C488.28 176.019 492.342 171.801 497.498 171.801C502.497 171.801 506.716 176.019 506.716 181.019Z" fill="#939393"/>
</g>
</g>
<path d="M502.028 174.77C502.028 179.926 497.81 184.144 492.81 184.144C487.654 184.144 483.592 179.926 483.592 174.77C483.592 169.77 487.654 165.552 492.81 165.552C497.81 165.552 502.028 169.77 502.028 174.77Z" fill="url(#paint16_linear_631_5511)"/>
<path d="M542.339 334.914L492.811 369.443" stroke="#150D36" stroke-width="3.12478" stroke-miterlimit="10"/>
<g style="mix-blend-mode:multiply" opacity="0.5">
<g filter="url(#filter17_f_631_5511)">
<path d="M506.716 375.693C506.716 370.537 502.497 366.318 497.498 366.318C492.342 366.318 488.28 370.537 488.28 375.693C488.28 380.692 492.342 384.911 497.498 384.911C502.497 384.911 506.716 380.692 506.716 375.693Z" fill="#939393"/>
</g>
</g>
<path d="M502.028 369.444C502.028 364.288 497.81 360.069 492.81 360.069C487.654 360.069 483.592 364.288 483.592 369.444C483.592 374.443 487.654 378.662 492.81 378.662C497.81 378.662 502.028 374.443 502.028 369.444Z" fill="url(#paint17_linear_631_5511)"/>
<path d="M756.854 275.543C754.979 348.976 693.889 406.94 620.457 405.066C547.025 403.034 489.06 341.945 491.091 268.669C492.966 195.237 554.055 137.272 627.488 139.147C700.92 141.178 758.885 202.267 756.854 275.543Z" fill="white"/>
<path d="M620.457 406.941C619.364 406.941 618.582 406.004 618.582 404.91C618.582 403.816 619.52 403.035 620.614 403.035C621.707 403.035 622.488 403.972 622.488 405.066C622.488 406.16 621.551 406.941 620.614 406.941C620.509 406.941 620.457 406.941 620.457 406.941ZM629.519 404.91C629.519 403.816 630.3 402.879 631.394 402.879C632.488 402.879 633.425 403.66 633.425 404.754C633.581 405.847 632.644 406.785 631.706 406.785C631.602 406.785 631.55 406.785 631.55 406.785C630.457 406.785 629.675 406.004 629.519 404.91ZM609.364 406.16C608.271 406.16 607.489 405.066 607.646 404.129C607.802 403.035 608.739 402.254 609.833 402.254C610.927 402.41 611.708 403.347 611.552 404.441C611.395 405.535 610.614 406.16 609.521 406.16C609.521 406.16 609.468 406.16 609.364 406.16ZM640.456 404.129C640.3 403.035 641.081 401.941 642.175 401.785C643.268 401.785 644.206 402.41 644.362 403.504C644.518 404.597 643.737 405.535 642.799 405.691C642.695 405.691 642.591 405.691 642.487 405.691C641.55 405.691 640.612 405.066 640.456 404.129ZM598.271 404.597C597.334 404.285 596.553 403.347 596.865 402.254C597.021 401.16 597.959 400.535 599.053 400.691C600.146 401.004 600.771 401.941 600.615 403.035C600.459 403.972 599.678 404.597 598.74 404.597C598.636 404.597 598.48 404.597 598.271 404.597ZM651.393 402.254C651.08 401.16 651.705 400.223 652.799 399.91C653.892 399.598 654.986 400.379 655.142 401.316C655.455 402.41 654.674 403.504 653.736 403.66C653.528 403.764 653.372 403.816 653.267 403.816C652.33 403.816 651.549 403.191 651.393 402.254ZM587.491 401.941C586.397 401.785 585.928 400.691 586.085 399.598C586.397 398.504 587.491 397.879 588.585 398.192C589.522 398.504 590.147 399.598 589.834 400.691C589.678 401.473 588.897 402.098 587.96 402.098C587.855 402.098 587.699 402.045 587.491 401.941ZM662.017 399.598C661.704 398.504 662.329 397.41 663.267 397.098C664.36 396.785 665.454 397.41 665.767 398.348C666.079 399.441 665.454 400.535 664.517 400.848C664.308 400.848 664.1 400.848 663.892 400.848C663.111 400.848 662.329 400.379 662.017 399.598ZM576.867 398.504C575.929 398.192 575.304 397.098 575.773 396.004C576.085 395.067 577.179 394.442 578.273 394.911C579.21 395.223 579.835 396.473 579.366 397.41C579.054 398.192 578.429 398.66 577.648 398.66C577.335 398.66 577.075 398.608 576.867 398.504ZM672.329 396.004C672.016 394.911 672.485 393.817 673.422 393.348C674.516 393.036 675.61 393.504 676.078 394.442C676.391 395.535 675.922 396.629 674.985 397.098C674.672 397.202 674.412 397.254 674.204 397.254C673.422 397.254 672.641 396.785 672.329 396.004ZM566.555 394.286C565.617 393.817 565.149 392.567 565.617 391.63C566.086 390.692 567.336 390.223 568.273 390.692C569.211 391.161 569.68 392.411 569.211 393.348C568.898 393.973 568.117 394.442 567.492 394.442C567.18 394.442 566.867 394.39 566.555 394.286ZM682.484 391.63C682.015 390.536 682.328 389.442 683.265 388.973C684.203 388.505 685.453 388.817 685.921 389.755C686.39 390.692 686.078 391.942 685.14 392.411C684.828 392.515 684.515 392.567 684.203 392.567C683.422 392.567 682.797 392.254 682.484 391.63ZM556.712 389.13C555.774 388.505 555.462 387.411 556.087 386.474C556.556 385.536 557.805 385.224 558.743 385.692C559.68 386.161 559.993 387.411 559.368 388.348C559.055 388.973 558.43 389.286 557.649 389.286C557.337 389.286 557.024 389.234 556.712 389.13ZM692.171 386.317C691.546 385.38 691.858 384.13 692.796 383.661C693.577 383.036 694.827 383.349 695.452 384.286C695.921 385.224 695.764 386.317 694.827 386.942C694.515 387.151 694.15 387.255 693.733 387.255C693.108 387.255 692.483 386.942 692.171 386.317ZM547.337 383.036C546.4 382.568 546.244 381.318 546.869 380.38C547.494 379.443 548.587 379.287 549.525 379.912C550.462 380.537 550.618 381.786 549.994 382.568C549.681 383.193 549.056 383.505 548.431 383.505C548.014 383.505 547.65 383.349 547.337 383.036ZM701.233 380.224C700.608 379.443 700.764 378.193 701.702 377.568C702.639 376.943 703.733 377.099 704.358 378.037C705.139 378.818 704.826 380.068 704.045 380.693C703.629 380.901 703.212 381.005 702.795 381.005C702.326 381.005 701.702 380.849 701.233 380.224ZM538.432 376.318C537.494 375.693 537.494 374.443 538.119 373.662C538.744 372.881 539.994 372.725 540.932 373.35C541.713 374.131 541.869 375.224 541.088 376.162C540.775 376.631 540.15 376.787 539.682 376.787C539.161 376.787 538.744 376.631 538.432 376.318ZM709.982 373.506C709.201 372.725 709.357 371.475 710.138 370.693C710.92 370.069 712.17 370.069 712.951 371.006C713.576 371.787 713.576 373.037 712.638 373.662C712.326 373.975 711.909 374.131 711.388 374.131C710.92 374.131 710.295 373.975 709.982 373.506ZM530.151 368.975C529.37 368.194 529.37 366.944 529.995 366.163C530.776 365.381 532.026 365.381 532.807 366.163C533.588 366.944 533.588 368.194 532.807 368.975C532.495 369.287 532.026 369.444 531.401 369.444C530.88 369.548 530.464 369.391 530.151 368.975ZM718.107 366.006C717.325 365.381 717.169 364.131 717.95 363.35C718.732 362.569 719.982 362.569 720.763 363.35C721.544 363.975 721.544 365.225 720.763 366.006C720.45 366.475 719.825 366.631 719.357 366.631C718.836 366.631 718.419 366.423 718.107 366.006ZM522.339 360.85C521.714 360.069 521.714 358.819 522.652 358.194C523.433 357.413 524.683 357.569 525.308 358.351C526.089 359.132 525.933 360.382 525.152 361.163C524.735 361.371 524.318 361.475 523.902 361.475C523.277 361.475 522.808 361.319 522.339 360.85ZM725.45 358.038C724.669 357.257 724.512 356.007 725.137 355.226C725.919 354.445 727.169 354.288 727.95 354.913C728.731 355.695 728.887 356.944 728.262 357.726C727.793 358.194 727.325 358.507 726.7 358.507C726.283 358.507 725.867 358.351 725.45 358.038ZM515.465 352.257C514.84 351.32 514.996 350.07 515.777 349.445C516.715 348.82 517.965 348.976 518.589 349.914C519.214 350.695 519.058 351.945 518.121 352.57C517.808 352.882 517.444 353.038 517.027 353.038C516.402 353.038 515.777 352.726 515.465 352.257ZM732.168 349.289C731.387 348.664 731.074 347.57 731.699 346.633C732.324 345.695 733.574 345.539 734.512 346.164C735.293 346.789 735.605 347.883 734.98 348.82C734.512 349.445 733.887 349.601 733.418 349.601C733.001 349.705 732.585 349.601 732.168 349.289ZM509.215 343.039C508.59 342.102 508.903 340.852 509.84 340.227C510.778 339.758 511.871 340.071 512.496 340.852C513.121 341.789 512.809 343.039 511.871 343.664C511.559 343.768 511.194 343.872 510.778 343.977C510.153 343.977 509.528 343.508 509.215 343.039ZM738.261 340.071C737.324 339.602 737.012 338.352 737.48 337.415C738.105 336.477 739.199 336.165 740.136 336.79C741.074 337.258 741.386 338.508 740.918 339.446C740.605 340.071 739.824 340.383 739.199 340.383C738.886 340.383 738.574 340.279 738.261 340.071ZM503.747 333.196C503.278 332.259 503.591 331.165 504.528 330.696C505.465 330.071 506.715 330.54 507.184 331.478C507.653 332.415 507.34 333.665 506.403 334.134C506.09 334.238 505.778 334.29 505.465 334.29C504.684 334.29 504.059 333.977 503.747 333.196ZM743.417 330.54C742.48 330.071 742.011 328.821 742.48 327.884C742.949 326.947 744.199 326.478 745.136 326.947C746.073 327.415 746.542 328.509 746.073 329.603C745.761 330.228 744.98 330.696 744.355 330.696C744.042 330.696 743.73 330.644 743.417 330.54ZM499.06 323.197C498.591 322.103 499.06 321.009 500.153 320.541C501.091 320.228 502.341 320.697 502.653 321.634C503.122 322.728 502.653 323.822 501.559 324.134C501.351 324.238 501.143 324.291 500.934 324.291C500.153 324.291 499.372 323.822 499.06 323.197ZM747.948 320.385C746.855 320.072 746.386 318.978 746.698 317.885C747.167 316.947 748.261 316.322 749.198 316.791C750.292 317.104 750.761 318.197 750.448 319.291C750.136 320.072 749.354 320.541 748.573 320.541C748.365 320.541 748.157 320.489 747.948 320.385ZM495.31 312.729C494.997 311.635 495.466 310.541 496.56 310.229C497.653 309.917 498.747 310.385 499.06 311.479C499.372 312.573 498.747 313.666 497.653 313.979C497.549 313.979 497.393 313.979 497.185 313.979C496.247 313.979 495.466 313.51 495.31 312.729ZM751.386 310.073C750.448 309.76 749.823 308.667 750.136 307.573C750.448 306.479 751.542 306.011 752.479 306.167C753.573 306.479 754.198 307.573 753.885 308.667C753.573 309.448 752.792 310.073 752.01 310.073C751.802 310.073 751.594 310.073 751.386 310.073ZM492.341 301.948C492.185 300.855 492.81 299.761 493.904 299.605C494.841 299.292 495.935 299.917 496.247 301.011C496.404 302.105 495.779 303.198 494.685 303.354C494.581 303.354 494.424 303.354 494.216 303.354C493.435 303.354 492.498 302.73 492.341 301.948ZM754.198 299.292C753.104 299.136 752.323 298.042 752.635 297.105C752.792 296.011 753.885 295.23 754.823 295.543C755.916 295.699 756.698 296.792 756.385 297.886C756.229 298.667 755.448 299.449 754.51 299.449C754.406 299.449 754.302 299.396 754.198 299.292ZM490.31 290.855C490.154 289.918 490.935 288.824 492.029 288.668C493.123 288.512 494.06 289.293 494.216 290.387C494.372 291.48 493.591 292.418 492.654 292.574C492.55 292.574 492.445 292.574 492.341 292.574C491.404 292.574 490.466 291.949 490.31 290.855ZM755.916 288.512C754.823 288.356 754.042 287.418 754.198 286.324C754.354 285.231 755.292 284.45 756.385 284.606C757.479 284.762 758.26 285.699 758.104 286.793C757.948 287.731 757.166 288.512 756.073 288.512C756.073 288.512 756.021 288.512 755.916 288.512ZM489.217 279.919C489.217 278.825 489.998 277.888 491.091 277.731C492.185 277.731 493.123 278.512 493.123 279.606C493.279 280.7 492.498 281.637 491.404 281.637C491.3 281.637 491.248 281.637 491.248 281.637C490.154 281.637 489.373 280.856 489.217 279.919ZM756.854 277.575C755.76 277.575 754.823 276.638 754.979 275.544C754.979 275.544 754.979 275.492 754.979 275.388C754.979 275.388 754.979 275.336 754.979 275.231C754.979 274.138 755.917 273.357 756.854 273.357C757.948 273.357 758.885 274.294 758.885 275.388C758.885 275.388 758.885 275.44 758.885 275.544C758.885 275.544 758.885 275.596 758.885 275.7C758.729 276.794 757.948 277.575 756.854 277.575ZM490.935 270.701C489.998 270.701 489.06 269.763 489.06 268.669C489.217 267.576 489.998 266.795 491.091 266.795C492.185 266.795 493.123 267.732 492.966 268.826C492.966 269.919 492.185 270.701 491.091 270.701C491.091 270.701 491.039 270.701 490.935 270.701ZM754.823 264.451C754.667 263.357 755.448 262.42 756.541 262.42C757.635 262.264 758.573 263.201 758.729 264.139C758.729 265.232 757.948 266.17 756.854 266.326C756.75 266.326 756.698 266.326 756.698 266.326C755.604 266.326 754.823 265.545 754.823 264.451ZM491.56 259.764C490.466 259.608 489.685 258.67 489.841 257.576C489.998 256.483 490.935 255.702 492.029 255.858C493.123 256.014 493.904 256.952 493.747 258.045C493.591 258.983 492.81 259.764 491.873 259.764C491.768 259.764 491.664 259.764 491.56 259.764ZM753.729 253.67C753.573 252.577 754.354 251.639 755.292 251.483C756.385 251.327 757.479 252.108 757.479 253.046C757.635 254.139 757.01 255.233 755.916 255.389C755.812 255.389 755.708 255.389 755.604 255.389C754.667 255.389 753.885 254.608 753.729 253.67ZM493.123 248.827C492.029 248.671 491.248 247.577 491.56 246.484C491.716 245.546 492.654 244.765 493.747 244.921C494.841 245.234 495.466 246.171 495.31 247.265C495.154 248.202 494.372 248.827 493.435 248.827C493.331 248.827 493.227 248.827 493.123 248.827ZM751.698 243.046C751.542 241.953 752.167 240.859 753.26 240.703C754.198 240.39 755.292 241.171 755.604 242.109C755.76 243.202 755.135 244.296 754.042 244.452C753.937 244.557 753.781 244.609 753.573 244.609C752.792 244.609 752.01 243.984 751.698 243.046ZM495.466 238.047C494.372 237.734 493.747 236.797 494.06 235.703C494.372 234.609 495.466 233.984 496.404 234.297C497.497 234.609 498.122 235.703 497.81 236.797C497.497 237.578 496.716 238.203 495.935 238.203C495.726 238.203 495.57 238.151 495.466 238.047ZM748.886 232.578C748.573 231.485 749.198 230.391 750.136 230.078C751.229 229.766 752.323 230.391 752.635 231.328C752.948 232.422 752.323 233.516 751.386 233.828C751.177 233.932 750.969 233.984 750.761 233.984C749.979 233.984 749.198 233.359 748.886 232.578ZM498.591 227.579C497.653 227.266 497.185 226.172 497.497 225.079C497.81 224.141 499.06 223.516 499.997 223.985C500.934 224.298 501.559 225.391 501.091 226.485C500.934 227.266 500.153 227.735 499.372 227.735C499.06 227.735 498.799 227.683 498.591 227.579ZM745.292 222.423C744.824 221.329 745.292 220.235 746.23 219.923C747.323 219.454 748.417 219.923 748.886 220.86C749.198 221.954 748.729 223.048 747.792 223.516C747.48 223.621 747.219 223.673 747.011 223.673C746.23 223.673 745.448 223.204 745.292 222.423ZM502.809 217.423C501.716 216.954 501.403 215.861 501.872 214.767C502.341 213.83 503.434 213.361 504.372 213.83C505.309 214.298 505.778 215.548 505.309 216.486C504.997 217.111 504.372 217.579 503.591 217.579C503.278 217.579 503.018 217.527 502.809 217.423ZM740.761 212.58C740.136 211.642 740.605 210.392 741.543 209.924C742.48 209.455 743.73 209.767 744.199 210.861C744.667 211.798 744.355 212.892 743.261 213.361C743.053 213.569 742.792 213.673 742.48 213.673C741.699 213.673 741.074 213.205 740.761 212.58ZM507.653 207.58C506.715 207.111 506.403 205.861 507.028 204.924C507.497 203.987 508.746 203.674 509.684 204.143C510.621 204.768 510.934 205.861 510.309 206.799C509.996 207.424 509.371 207.892 508.59 207.892C508.278 207.892 507.965 207.788 507.653 207.58ZM735.449 203.205C734.824 202.268 735.137 201.018 736.074 200.393C736.855 199.924 738.105 200.237 738.73 201.018C739.199 201.955 739.043 203.205 738.105 203.83C737.793 204.039 737.428 204.143 737.012 204.143C736.387 204.143 735.762 203.674 735.449 203.205ZM513.434 198.206C512.496 197.581 512.34 196.331 512.965 195.55C513.59 194.612 514.683 194.456 515.621 194.925C516.558 195.55 516.715 196.8 516.09 197.737C515.777 198.206 515.152 198.518 514.527 198.518C514.111 198.518 513.746 198.414 513.434 198.206ZM729.356 194.143C728.731 193.362 728.887 192.112 729.668 191.487C730.606 190.862 731.856 191.019 732.481 191.8C733.106 192.737 732.949 193.987 732.012 194.612C731.699 194.82 731.335 194.925 730.918 194.925C730.293 194.925 729.668 194.768 729.356 194.143ZM519.839 189.3C519.058 188.675 518.902 187.425 519.683 186.644C520.308 185.707 521.558 185.707 522.339 186.332C523.277 186.956 523.277 188.206 522.652 188.988C522.339 189.613 521.714 189.769 521.089 189.769C520.673 189.769 520.256 189.613 519.839 189.3ZM722.481 185.707C721.856 184.925 721.856 183.675 722.638 183.05C723.419 182.269 724.669 182.426 725.45 183.207C726.075 183.988 726.075 185.238 725.294 186.019C724.877 186.331 724.46 186.488 724.044 186.488C723.419 186.488 722.95 186.175 722.481 185.707ZM527.026 181.019C526.245 180.238 526.245 178.988 527.026 178.207C527.808 177.426 529.057 177.426 529.839 178.207C530.62 178.988 530.62 180.238 529.839 181.019C529.526 181.332 528.901 181.644 528.433 181.644C527.912 181.644 527.443 181.436 527.026 181.019ZM714.982 177.895C714.201 177.113 714.201 176.02 714.982 175.239C715.763 174.457 717.013 174.301 717.794 175.082C718.575 175.863 718.575 177.113 717.794 177.895C717.378 178.311 716.909 178.52 716.388 178.52C715.867 178.52 715.399 178.311 714.982 177.895ZM534.995 173.364C534.213 172.582 534.37 171.333 535.151 170.551C535.932 169.926 537.182 169.926 537.963 170.708C538.588 171.645 538.588 172.739 537.651 173.52C537.338 173.832 536.921 173.989 536.401 173.989C535.932 173.989 535.307 173.832 534.995 173.364ZM707.014 170.708C706.076 170.083 705.92 168.833 706.701 168.052C707.326 167.114 708.576 166.958 709.357 167.739C710.295 168.364 710.451 169.614 709.67 170.395C709.357 170.864 708.732 171.176 708.264 171.176C707.743 171.176 707.326 171.02 707.014 170.708ZM543.431 166.333C542.806 165.395 542.963 164.302 543.744 163.521C544.681 162.896 545.931 163.208 546.556 163.989C547.181 164.927 547.025 166.02 546.088 166.802C545.775 167.01 545.41 167.114 544.994 167.114C544.369 167.114 543.744 166.802 543.431 166.333ZM698.264 164.146C697.483 163.677 697.171 162.427 697.796 161.49C698.421 160.552 699.67 160.396 700.452 161.021C701.389 161.646 701.702 162.896 701.077 163.677C700.608 164.302 699.983 164.614 699.358 164.614C699.046 164.614 698.681 164.458 698.264 164.146ZM552.337 160.083C551.868 159.146 552.181 157.896 552.962 157.271C553.899 156.802 555.149 157.115 555.774 157.896C556.243 158.833 556.087 160.083 555.149 160.708C554.733 160.917 554.368 161.021 554.056 161.021C553.431 161.021 552.806 160.552 552.337 160.083ZM689.202 158.365C688.265 157.896 687.953 156.646 688.421 155.709C688.89 154.771 690.14 154.459 691.077 155.084C692.015 155.552 692.327 156.802 691.858 157.74C691.39 158.365 690.765 158.677 690.14 158.677C689.827 158.677 689.515 158.573 689.202 158.365ZM561.868 154.459C561.399 153.521 561.711 152.428 562.805 151.803C563.743 151.334 564.836 151.803 565.305 152.74C565.93 153.678 565.461 154.927 564.524 155.396C564.211 155.5 563.899 155.552 563.586 155.552C562.961 155.552 562.18 155.24 561.868 154.459ZM679.516 153.365C678.578 153.053 678.109 151.803 678.578 150.865C679.047 149.928 680.297 149.459 681.234 149.928C682.172 150.397 682.64 151.49 682.172 152.428C681.859 153.209 681.078 153.678 680.297 153.678C680.088 153.678 679.828 153.573 679.516 153.365ZM571.867 149.772C571.398 148.834 571.867 147.584 572.804 147.272C573.898 146.803 574.992 147.272 575.46 148.209C575.773 149.303 575.304 150.397 574.367 150.865C574.158 150.969 573.898 151.021 573.586 151.021C572.804 151.021 572.179 150.553 571.867 149.772ZM669.516 149.303C668.579 148.834 667.954 147.74 668.423 146.803C668.735 145.709 669.829 145.241 670.922 145.553C671.86 146.022 672.485 147.116 672.016 148.053C671.704 148.834 671.079 149.303 670.298 149.303C669.985 149.303 669.725 149.303 669.516 149.303ZM582.022 145.866C581.71 144.772 582.335 143.678 583.272 143.366C584.366 143.053 585.46 143.678 585.772 144.772C586.085 145.709 585.616 146.803 584.522 147.116C584.314 147.22 584.106 147.272 583.897 147.272C583.116 147.272 582.335 146.647 582.022 145.866ZM659.205 145.866C658.267 145.553 657.642 144.616 657.955 143.522C658.111 142.428 659.205 141.803 660.298 142.116C661.392 142.428 662.017 143.522 661.704 144.616C661.392 145.397 660.611 146.022 659.829 146.022C659.621 146.022 659.413 145.97 659.205 145.866ZM592.647 142.897C592.334 141.803 593.115 140.71 594.053 140.553C595.147 140.241 596.24 140.866 596.397 141.96C596.709 143.053 596.084 144.147 594.99 144.303C594.886 144.303 594.73 144.303 594.522 144.303C593.584 144.303 592.803 143.678 592.647 142.897ZM648.737 143.366C647.643 143.21 647.018 142.272 647.174 141.178C647.33 140.085 648.424 139.46 649.518 139.616C650.455 139.772 651.236 140.866 650.924 141.96C650.768 142.897 649.986 143.522 649.049 143.522C648.945 143.522 648.841 143.47 648.737 143.366ZM603.427 140.71C603.271 139.616 604.052 138.679 605.146 138.522C606.083 138.366 607.177 139.147 607.333 140.241C607.489 141.178 606.708 142.272 605.615 142.428C605.51 142.428 605.406 142.428 605.302 142.428C604.365 142.428 603.583 141.647 603.427 140.71ZM637.956 141.803C636.862 141.803 636.237 140.71 636.237 139.772C636.394 138.679 637.331 137.897 638.425 137.897C639.518 138.054 640.3 138.991 640.143 140.085C639.987 141.178 639.206 141.803 638.269 141.803C638.164 141.803 638.06 141.803 637.956 141.803ZM614.364 139.46C614.208 138.366 615.145 137.429 616.239 137.429C617.176 137.429 618.114 138.21 618.27 139.304C618.27 140.397 617.489 141.178 616.395 141.335C616.395 141.335 616.343 141.335 616.239 141.335C615.301 141.335 614.364 140.553 614.364 139.46ZM627.176 141.178C626.082 141.178 625.301 140.241 625.301 139.147C625.301 138.054 626.238 137.272 627.332 137.272C628.425 137.272 629.207 138.21 629.207 139.304C629.207 140.241 628.269 141.178 627.332 141.178C627.228 141.178 627.176 141.178 627.176 141.178Z" fill="#F6B677"/>
<path d="M1213.28 264.784V261.738C1213.28 261.026 1212.43 260.649 1211.9 261.122C1211.12 261.818 1209.94 261.818 1209.16 261.122C1208.37 260.426 1207.19 260.426 1206.41 261.122C1205.63 261.818 1204.45 261.818 1203.66 261.122C1202.88 260.426 1201.7 260.426 1200.92 261.122C1200.13 261.818 1198.95 261.818 1198.17 261.122C1197.39 260.426 1196.21 260.426 1195.42 261.122C1194.64 261.818 1193.46 261.818 1192.68 261.122C1192.15 260.649 1191.3 261.026 1191.3 261.738V274.548M1213.28 269.666V282.476C1213.28 283.188 1212.43 283.566 1211.9 283.093C1211.12 282.397 1209.94 282.397 1209.16 283.093C1208.37 283.789 1207.19 283.789 1206.41 283.093C1205.63 282.397 1204.45 282.397 1203.66 283.093C1202.88 283.789 1201.7 283.789 1200.92 283.093C1200.13 282.397 1198.95 282.397 1198.17 283.093C1197.39 283.789 1196.21 283.789 1195.42 283.093C1194.64 282.397 1193.46 282.397 1192.68 283.093C1192.15 283.566 1191.3 283.188 1191.3 282.476V279.431" stroke="white" stroke-width="1.95299" stroke-linecap="round"/>
<path d="M1196.8 276.379H1201.68M1207.78 276.379H1205.34" stroke="white" stroke-width="1.95299" stroke-linecap="round"/>
<path d="M1207.78 272.105H1202.9M1196.8 272.105H1199.24" stroke="white" stroke-width="1.95299" stroke-linecap="round"/>
<path d="M1196.8 267.834H1207.78" stroke="white" stroke-width="1.95299" stroke-linecap="round"/>
<path d="M54.0573 268.445H51.616M51.616 268.445H49.1748M51.616 268.445V266.004M51.616 268.445V270.886" stroke="white" stroke-width="1.95299" stroke-linecap="round"/>
<path d="M46.1246 264.263L45.4559 264.888C45.629 265.073 45.871 265.178 46.1246 265.178C46.3781 265.178 46.6201 265.073 46.7932 264.888L46.1246 264.263ZM34.7137 274.159C34.9754 274.592 35.5382 274.731 35.9708 274.469C36.4035 274.207 36.5421 273.644 36.2804 273.212L34.7137 274.159ZM39.4567 277.197C39.104 276.835 38.5244 276.827 38.1622 277.18C37.8 277.532 37.7923 278.112 38.145 278.474L39.4567 277.197ZM34.8339 268.832C34.8339 265.286 36.3812 263.095 38.2955 262.345C40.2057 261.597 42.8782 262.131 45.4559 264.888L46.7932 263.637C43.8784 260.52 40.4478 259.536 37.628 260.64C34.8124 261.743 33.0029 264.773 33.0029 268.832H34.8339ZM50.41 281.823C52.2317 280.345 54.4143 278.364 56.1491 276.151C57.8664 273.961 59.2462 271.417 59.2462 268.832H57.4153C57.4153 270.799 56.342 272.938 54.7083 275.021C53.0923 277.083 51.0261 278.966 49.2563 280.402L50.41 281.823ZM59.2462 268.832C59.2462 264.773 57.4368 261.743 54.6212 260.64C51.8014 259.536 48.3707 260.52 45.4559 263.637L46.7932 264.888C49.3709 262.131 52.0435 261.597 53.9536 262.345C55.8679 263.095 57.4153 265.286 57.4153 268.832H59.2462ZM41.8391 281.823C43.3911 283.083 44.4673 284.007 46.1246 284.007V282.176C45.2422 282.176 44.6927 281.781 42.9928 280.402L41.8391 281.823ZM49.2563 280.402C47.5565 281.781 47.0069 282.176 46.1246 282.176V284.007C47.7818 284.007 48.858 283.083 50.41 281.823L49.2563 280.402ZM36.2804 273.212C35.3686 271.704 34.8339 270.22 34.8339 268.832H33.0029C33.0029 270.678 33.7066 272.494 34.7137 274.159L36.2804 273.212ZM42.9928 280.402C41.8735 279.493 40.6305 278.402 39.4567 277.197L38.145 278.474C39.3812 279.744 40.6806 280.883 41.8391 281.823L42.9928 280.402Z" fill="white"/>
<g filter="url(#filter18_f_631_5511)">
<path d="M744.199 279.918C744.199 346.32 690.453 400.222 624.052 400.222C557.494 400.222 503.748 346.32 503.748 279.918C503.748 213.517 557.494 159.614 624.052 159.614C690.453 159.614 744.199 213.517 744.199 279.918Z" fill="#F1F1F1"/>
</g>
<path d="M624.052 392.911C690.73 392.911 744.699 338.784 744.699 272.107C744.699 205.43 690.73 151.303 624.052 151.303C557.217 151.303 503.248 205.429 503.248 272.107C503.248 338.784 557.217 392.911 624.052 392.911Z" fill="white" stroke="#F1F1F1"/>
<path d="M731.856 272.888C731.856 332.884 683.265 381.474 623.426 381.474C563.43 381.474 514.84 332.884 514.84 272.888C514.84 212.892 563.43 164.302 623.426 164.302C683.265 164.302 731.856 212.892 731.856 272.888Z" fill="#F6B677"/>
<defs>
<filter id="filter0_f_631_5511" x="376.286" y="0.90625" width="141.492" height="259.296" filterUnits="userSpaceOnUse" color-interpolation-filters="sRGB">
<feFlood flood-opacity="0" result="BackgroundImageFix"/>
<feBlend mode="normal" in="SourceGraphic" in2="BackgroundImageFix" result="shape"/>
<feGaussianBlur stdDeviation="6" result="effect1_foregroundBlur_631_5511"/>
</filter>
<filter id="filter1_f_631_5511" x="227.234" y="80.1191" width="101.026" height="101.025" filterUnits="userSpaceOnUse" color-interpolation-filters="sRGB">
<feFlood flood-opacity="0" result="BackgroundImageFix"/>
<feBlend mode="normal" in="SourceGraphic" in2="BackgroundImageFix" result="shape"/>
<feGaussianBlur stdDeviation="6" result="effect1_foregroundBlur_631_5511"/>
</filter>
<filter id="filter2_f_631_5511" x="149.74" y="148.708" width="141.492" height="259.296" filterUnits="userSpaceOnUse" color-interpolation-filters="sRGB">
<feFlood flood-opacity="0" result="BackgroundImageFix"/>
<feBlend mode="normal" in="SourceGraphic" in2="BackgroundImageFix" result="shape"/>
<feGaussianBlur stdDeviation="6" result="effect1_foregroundBlur_631_5511"/>
</filter>
<filter id="filter3_f_631_5511" x="0.687256" y="227.765" width="101.026" height="101.182" filterUnits="userSpaceOnUse" color-interpolation-filters="sRGB">
<feFlood flood-opacity="0" result="BackgroundImageFix"/>
<feBlend mode="normal" in="SourceGraphic" in2="BackgroundImageFix" result="shape"/>
<feGaussianBlur stdDeviation="6" result="effect1_foregroundBlur_631_5511"/>
</filter>
<filter id="filter4_f_631_5511" x="730.168" y="0.90625" width="141.492" height="259.296" filterUnits="userSpaceOnUse" color-interpolation-filters="sRGB">
<feFlood flood-opacity="0" result="BackgroundImageFix"/>
<feBlend mode="normal" in="SourceGraphic" in2="BackgroundImageFix" result="shape"/>
<feGaussianBlur stdDeviation="6" result="effect1_foregroundBlur_631_5511"/>
</filter>
<filter id="filter5_f_631_5511" x="929.06" y="80.1191" width="101.026" height="101.025" filterUnits="userSpaceOnUse" color-interpolation-filters="sRGB">
<feFlood flood-opacity="0" result="BackgroundImageFix"/>
<feBlend mode="normal" in="SourceGraphic" in2="BackgroundImageFix" result="shape"/>
<feGaussianBlur stdDeviation="6" result="effect1_foregroundBlur_631_5511"/>
</filter>
<filter id="filter6_f_631_5511" x="730.168" y="296.51" width="141.492" height="259.296" filterUnits="userSpaceOnUse" color-interpolation-filters="sRGB">
<feFlood flood-opacity="0" result="BackgroundImageFix"/>
<feBlend mode="normal" in="SourceGraphic" in2="BackgroundImageFix" result="shape"/>
<feGaussianBlur stdDeviation="6" result="effect1_foregroundBlur_631_5511"/>
</filter>
<filter id="filter7_f_631_5511" x="929.06" y="375.567" width="101.026" height="101.025" filterUnits="userSpaceOnUse" color-interpolation-filters="sRGB">
<feFlood flood-opacity="0" result="BackgroundImageFix"/>
<feBlend mode="normal" in="SourceGraphic" in2="BackgroundImageFix" result="shape"/>
<feGaussianBlur stdDeviation="6" result="effect1_foregroundBlur_631_5511"/>
</filter>
<filter id="filter8_f_631_5511" x="957.183" y="148.708" width="141.648" height="259.296" filterUnits="userSpaceOnUse" color-interpolation-filters="sRGB">
<feFlood flood-opacity="0" result="BackgroundImageFix"/>
<feBlend mode="normal" in="SourceGraphic" in2="BackgroundImageFix" result="shape"/>
<feGaussianBlur stdDeviation="6" result="effect1_foregroundBlur_631_5511"/>
</filter>
<filter id="filter9_f_631_5511" x="1156.23" y="227.765" width="101.026" height="101.182" filterUnits="userSpaceOnUse" color-interpolation-filters="sRGB">
<feFlood flood-opacity="0" result="BackgroundImageFix"/>
<feBlend mode="normal" in="SourceGraphic" in2="BackgroundImageFix" result="shape"/>
<feGaussianBlur stdDeviation="6" result="effect1_foregroundBlur_631_5511"/>
</filter>
<filter id="filter10_f_631_5511" x="376.286" y="296.51" width="141.492" height="259.296" filterUnits="userSpaceOnUse" color-interpolation-filters="sRGB">
<feFlood flood-opacity="0" result="BackgroundImageFix"/>
<feBlend mode="normal" in="SourceGraphic" in2="BackgroundImageFix" result="shape"/>
<feGaussianBlur stdDeviation="6" result="effect1_foregroundBlur_631_5511"/>
</filter>
<filter id="filter11_f_631_5511" x="227.234" y="375.567" width="101.026" height="101.025" filterUnits="userSpaceOnUse" color-interpolation-filters="sRGB">
<feFlood flood-opacity="0" result="BackgroundImageFix"/>
<feBlend mode="normal" in="SourceGraphic" in2="BackgroundImageFix" result="shape"/>
<feGaussianBlur stdDeviation="6" result="effect1_foregroundBlur_631_5511"/>
</filter>
<filter id="filter12_f_631_5511" x="738.76" y="159.802" width="42.4363" height="42.5928" filterUnits="userSpaceOnUse" color-interpolation-filters="sRGB">
<feFlood flood-opacity="0" result="BackgroundImageFix"/>
<feBlend mode="normal" in="SourceGraphic" in2="BackgroundImageFix" result="shape"/>
<feGaussianBlur stdDeviation="6" result="effect1_foregroundBlur_631_5511"/>
</filter>
<filter id="filter13_f_631_5511" x="738.76" y="354.319" width="42.4363" height="42.5928" filterUnits="userSpaceOnUse" color-interpolation-filters="sRGB">
<feFlood flood-opacity="0" result="BackgroundImageFix"/>
<feBlend mode="normal" in="SourceGraphic" in2="BackgroundImageFix" result="shape"/>
<feGaussianBlur stdDeviation="6" result="effect1_foregroundBlur_631_5511"/>
</filter>
<filter id="filter14_f_631_5511" x="956.401" y="257.138" width="42.4363" height="42.4365" filterUnits="userSpaceOnUse" color-interpolation-filters="sRGB">
<feFlood flood-opacity="0" result="BackgroundImageFix"/>
<feBlend mode="normal" in="SourceGraphic" in2="BackgroundImageFix" result="shape"/>
<feGaussianBlur stdDeviation="6" result="effect1_foregroundBlur_631_5511"/>
</filter>
<filter id="filter15_f_631_5511" x="260.044" y="257.138" width="42.4363" height="42.4365" filterUnits="userSpaceOnUse" color-interpolation-filters="sRGB">
<feFlood flood-opacity="0" result="BackgroundImageFix"/>
<feBlend mode="normal" in="SourceGraphic" in2="BackgroundImageFix" result="shape"/>
<feGaussianBlur stdDeviation="6" result="effect1_foregroundBlur_631_5511"/>
</filter>
<filter id="filter16_f_631_5511" x="476.28" y="159.801" width="42.4363" height="42.5928" filterUnits="userSpaceOnUse" color-interpolation-filters="sRGB">
<feFlood flood-opacity="0" result="BackgroundImageFix"/>
<feBlend mode="normal" in="SourceGraphic" in2="BackgroundImageFix" result="shape"/>
<feGaussianBlur stdDeviation="6" result="effect1_foregroundBlur_631_5511"/>
</filter>
<filter id="filter17_f_631_5511" x="476.28" y="354.318" width="42.4363" height="42.5928" filterUnits="userSpaceOnUse" color-interpolation-filters="sRGB">
<feFlood flood-opacity="0" result="BackgroundImageFix"/>
<feBlend mode="normal" in="SourceGraphic" in2="BackgroundImageFix" result="shape"/>
<feGaussianBlur stdDeviation="6" result="effect1_foregroundBlur_631_5511"/>
</filter>
<filter id="filter18_f_631_5511" x="491.748" y="147.614" width="264.452" height="264.608" filterUnits="userSpaceOnUse" color-interpolation-filters="sRGB">
<feFlood flood-opacity="0" result="BackgroundImageFix"/>
<feBlend mode="normal" in="SourceGraphic" in2="BackgroundImageFix" result="shape"/>
<feGaussianBlur stdDeviation="6" result="effect1_foregroundBlur_631_5511"/>
</filter>
<linearGradient id="paint0_linear_631_5511" x1="273.004" y1="9.07187" x2="388.252" y2="9.07187" gradientUnits="userSpaceOnUse">
<stop stop-color="#7B33FA"/>
<stop offset="1" stop-color="#957CDC"/>
</linearGradient>
<linearGradient id="paint1_linear_631_5511" x1="244.47" y1="95.6316" x2="300.91" y2="95.6316" gradientUnits="userSpaceOnUse">
<stop stop-color="#7B33FA"/>
<stop offset="1" stop-color="#957CDC"/>
</linearGradient>
<linearGradient id="paint2_linear_631_5511" x1="46.4545" y1="156.858" x2="161.703" y2="156.858" gradientUnits="userSpaceOnUse">
<stop stop-color="#1389D1"/>
<stop offset="1" stop-color="#14C3D0"/>
</linearGradient>
<linearGradient id="paint3_linear_631_5511" x1="17.9219" y1="244.043" x2="74.3616" y2="244.043" gradientUnits="userSpaceOnUse">
<stop stop-color="#1389D1"/>
<stop offset="1" stop-color="#14C3D0"/>
</linearGradient>
<linearGradient id="paint4_linear_631_5511" x1="859.7" y1="9.07187" x2="974.948" y2="9.07187" gradientUnits="userSpaceOnUse">
<stop offset="0.004" stop-color="#FF062C"/>
<stop offset="0.992" stop-color="#C40077"/>
</linearGradient>
<linearGradient id="paint5_linear_631_5511" x1="946.103" y1="95.6316" x2="1002.54" y2="95.6316" gradientUnits="userSpaceOnUse">
<stop offset="0.004" stop-color="#FF062C"/>
<stop offset="0.992" stop-color="#C40077"/>
</linearGradient>
<linearGradient id="paint6_linear_631_5511" x1="859.7" y1="304.645" x2="974.948" y2="304.645" gradientUnits="userSpaceOnUse">
<stop offset="0.011" stop-color="#5EB5EB"/>
<stop offset="0.992" stop-color="#39559E"/>
</linearGradient>
<linearGradient id="paint7_linear_631_5511" x1="946.103" y1="392.454" x2="1002.54" y2="392.454" gradientUnits="userSpaceOnUse">
<stop offset="0.011" stop-color="#5EB5EB"/>
<stop offset="0.992" stop-color="#39559E"/>
</linearGradient>
<linearGradient id="paint8_linear_631_5511" x1="1086.83" y1="156.858" x2="1202.07" y2="156.858" gradientUnits="userSpaceOnUse">
<stop offset="0.245" stop-color="#F15D24"/>
<stop offset="1" stop-color="#F6991B"/>
</linearGradient>
<linearGradient id="paint9_linear_631_5511" x1="1173.85" y1="243.887" x2="1230.29" y2="243.887" gradientUnits="userSpaceOnUse">
<stop offset="0.245" stop-color="#F15D24"/>
<stop offset="1" stop-color="#F6991B"/>
</linearGradient>
<linearGradient id="paint10_linear_631_5511" x1="273.004" y1="304.645" x2="388.252" y2="304.645" gradientUnits="userSpaceOnUse">
<stop stop-color="#3D8B67"/>
<stop offset="1" stop-color="#9AD032"/>
</linearGradient>
<linearGradient id="paint11_linear_631_5511" x1="244.47" y1="392.454" x2="300.91" y2="392.454" gradientUnits="userSpaceOnUse">
<stop stop-color="#3D8B67"/>
<stop offset="1" stop-color="#9AD032"/>
</linearGradient>
<linearGradient id="paint12_linear_631_5511" x1="746.085" y1="165.605" x2="764.559" y2="165.605" gradientUnits="userSpaceOnUse">
<stop offset="0.004" stop-color="#FF062C"/>
<stop offset="0.992" stop-color="#C40077"/>
</linearGradient>
<linearGradient id="paint13_linear_631_5511" x1="746.085" y1="378.609" x2="764.559" y2="378.609" gradientUnits="userSpaceOnUse">
<stop offset="0.011" stop-color="#5EB5EB"/>
<stop offset="0.992" stop-color="#39559E"/>
</linearGradient>
<linearGradient id="paint14_linear_631_5511" x1="963.723" y1="262.87" x2="982.197" y2="262.87" gradientUnits="userSpaceOnUse">
<stop offset="0.245" stop-color="#F15D24"/>
<stop offset="1" stop-color="#F6991B"/>
</linearGradient>
<linearGradient id="paint15_linear_631_5511" x1="267.315" y1="262.87" x2="285.788" y2="262.87" gradientUnits="userSpaceOnUse">
<stop stop-color="#1389D1"/>
<stop offset="1" stop-color="#14C3D0"/>
</linearGradient>
<linearGradient id="paint16_linear_631_5511" x1="502.015" y1="165.605" x2="483.542" y2="165.605" gradientUnits="userSpaceOnUse">
<stop stop-color="#7B33FA"/>
<stop offset="1" stop-color="#957CDC"/>
</linearGradient>
<linearGradient id="paint17_linear_631_5511" x1="502.015" y1="378.609" x2="483.542" y2="378.609" gradientUnits="userSpaceOnUse">
<stop stop-color="#3D8B67"/>
<stop offset="1" stop-color="#9AD032"/>
</linearGradient>
</defs>
</svg>
