<svg width="30" height="31" viewBox="0 0 30 31" fill="none" xmlns="http://www.w3.org/2000/svg">
<path d="M14.8443 2.7879C14.8091 2.88918 14.7919 2.99578 14.7934 3.10293L14.8328 7.59326L14.9492 20.6301C14.9353 20.6598 14.9274 20.692 14.9262 20.7247C14.927 20.7578 14.9355 20.7901 14.9508 20.8194L14.9771 23.8799C14.9771 24.0284 15.1984 24.1459 15.4689 24.1459L21.3712 24.1117C21.6417 24.1117 21.8631 23.9876 21.8631 23.8391L21.6745 2.63121L21.6532 0.264441C21.6532 0.115906 21.4335 -0.00161545 21.1614 1.67983e-05L15.2591 0.0342927C14.9902 0.0342927 14.7672 0.156712 14.7672 0.305247L14.7885 2.67201C14.7915 2.71634 14.8114 2.75783 14.8443 2.7879ZM20.8515 20.3036C20.8121 20.3036 20.7744 20.3036 20.7351 20.3036L15.9198 20.3314L15.8116 8.18903L15.7673 3.1013C15.767 3.0465 15.7615 2.99185 15.7509 2.93807L20.6957 2.90869L20.8515 20.3036ZM15.9493 23.6057L15.928 21.1132L20.7416 21.0855C20.7806 21.0852 20.8195 21.0825 20.858 21.0773L20.8794 23.5763L15.9493 23.6057ZM20.6744 0.538658L20.6908 2.36842L15.7608 2.3978L15.7444 0.568043L20.6744 0.538658Z" fill="black"/>
<path d="M22.5025 2.7879C22.4676 2.88929 22.4498 2.99575 22.45 3.10293L22.491 7.59326L22.6353 23.8799C22.6353 24.0284 22.855 24.1459 23.1271 24.1459L29.0294 24.1117C29.2999 24.1117 29.5213 23.9876 29.5213 23.8391L29.3327 2.63121L29.3114 0.264441C29.3114 0.115906 29.0917 -0.00161545 28.8196 1.67983e-05L22.9173 0.0342927C22.6484 0.0342927 22.4254 0.156712 22.4254 0.305247L22.4467 2.67201C22.4497 2.71634 22.4696 2.75783 22.5025 2.7879ZM28.4048 8.47957L23.4747 8.50732V8.18087L23.4304 3.09314C23.4293 3.03839 23.4238 2.98381 23.414 2.92991L28.3588 2.90053L28.4048 8.47957ZM23.6091 23.6057L23.4813 9.29407L28.4129 9.26632L28.5392 23.5763L23.6091 23.6057ZM28.3342 0.538658L28.3506 2.36842L23.4206 2.3978L23.4042 0.568043L28.3342 0.538658Z" fill="black"/>
<path d="M0.964072 22.5955L5.4416 24.28C5.64654 24.3567 5.85477 24.3077 5.90724 24.169L13.449 4.33709L14.2917 2.12376C14.3442 1.98501 14.2229 1.81036 14.018 1.73364L9.54041 0.0442618C9.33711 -0.0340863 9.12889 0.0165173 9.07643 0.155259L8.23371 2.36859C8.21972 2.40933 8.21972 2.45354 8.23371 2.49428C8.1703 2.57934 8.11898 2.67272 8.08123 2.77176L6.27775 7.52814L0.691905 22.2005C0.637801 22.3441 0.760771 22.5188 0.964072 22.5955ZM9.7306 0.689004L13.4687 2.1009L12.8129 3.8115L9.07479 2.40777L9.7306 0.689004ZM8.82722 3.06067C8.84605 3.01008 8.8614 2.95827 8.87313 2.9056L12.6227 4.32077L6.39253 20.6874L2.65113 19.2869L7.22868 7.26046L8.82722 3.06067ZM2.36913 20.0165L6.11054 21.417L5.2629 23.6434L1.52478 22.2331L2.36913 20.0165Z" fill="black"/>
</svg>
