<svg width="32" height="32" viewBox="0 0 32 32" fill="none" xmlns="http://www.w3.org/2000/svg">
<path d="M0.194876 15.6742C0.194876 12.5753 1.1093 9.54587 2.82249 6.96919C4.53568 4.39251 6.97072 2.38423 9.81965 1.19831C12.6686 0.0123939 15.8035 -0.297884 18.8279 0.306691C21.8523 0.911265 24.6304 2.40355 26.8109 4.59483C28.9913 6.78612 30.4763 9.57804 31.0778 12.6174C31.6794 15.6568 31.3707 18.8072 30.1906 21.6703C29.0106 24.5333 27.0122 26.9804 24.4482 28.7021C21.8843 30.4238 18.8698 31.3428 15.7862 31.3428C13.7385 31.3435 11.7107 30.9387 9.81874 30.1516C7.92679 29.3644 6.20777 28.2104 4.75984 26.7552C3.31191 25.3001 2.16348 23.5725 1.38021 21.6712C0.596941 19.7699 0.194125 17.732 0.194876 15.6742Z" fill="#F68D2F"/>
</svg>
