<svg width="63" height="62" viewBox="0 0 63 62" fill="none" xmlns="http://www.w3.org/2000/svg">
<rect x="0.84079" y="0.0123291" width="61.6769" height="61.6769" rx="11.214" fill="#F4D0D2"/>
<path d="M31.6796 39.8074C32.8273 40.8347 34.3429 41.4593 36.0044 41.4593C39.5872 41.4593 42.4917 38.5549 42.4917 34.972C42.4917 31.9492 40.4242 29.4093 37.6262 28.6891" stroke="#313131" stroke-width="1.72995"/>
<path d="M28.4349 20.9066C29.3891 20.3546 30.4969 20.0387 31.6786 20.0387C35.2614 20.0387 38.1659 22.9432 38.1659 26.526C38.1659 30.1088 35.2614 33.0133 31.6786 33.0133C28.0957 33.0133 25.1913 30.1088 25.1913 26.526C25.1913 25.7678 25.3214 25.0399 25.5604 24.3636" stroke="#313131" stroke-width="1.72995" stroke-linecap="round"/>
<path d="M21.0334 38.825C21.2576 39.2126 21.7537 39.3452 22.1413 39.1208C22.529 38.8966 22.6615 38.4005 22.4372 38.0129L21.0334 38.825ZM25.4625 40.5289C25.0403 40.3797 24.577 40.601 24.4277 41.0232C24.2785 41.4454 24.4998 41.9087 24.9221 42.0581L25.4625 40.5289ZM33.0311 35.1752C33.0311 38.3102 30.4897 40.8516 27.3547 40.8516V42.4735C31.3854 42.4735 34.6529 39.206 34.6529 35.1752H33.0311ZM21.6783 35.1752C21.6783 32.5315 23.4866 30.3078 25.935 29.6777L25.5308 28.1071C22.3832 28.9172 20.0565 31.7735 20.0565 35.1752H21.6783ZM32.6589 33.1487C32.8991 33.777 33.0311 34.4598 33.0311 35.1752H34.6529C34.6529 34.2588 34.4836 33.3799 34.1738 32.5696L32.6589 33.1487ZM22.4372 38.0129C21.9547 37.1788 21.6783 36.2105 21.6783 35.1752H20.0565C20.0565 36.5033 20.4119 37.7507 21.0334 38.825L22.4372 38.0129ZM27.3547 40.8516C26.6898 40.8516 26.0533 40.7377 25.4625 40.5289L24.9221 42.0581C25.684 42.3273 26.5032 42.4735 27.3547 42.4735V40.8516Z" fill="#313131"/>
</svg>
