<svg width="32" height="32" viewBox="0 0 32 32" fill="none" xmlns="http://www.w3.org/2000/svg">
<path d="M0.417292 15.6742C0.418423 12.5766 1.33347 9.54894 3.04672 6.97396C4.75997 4.39898 7.1945 2.39238 10.0425 1.20777C12.8905 0.0231744 16.024 -0.286181 19.0469 0.31882C22.0698 0.923822 24.8464 2.41597 27.0255 4.60668C29.2046 6.79739 30.6884 9.58828 31.2893 12.6264C31.8902 15.6645 31.5813 18.8135 30.4015 21.6752C29.2217 24.5369 27.224 26.9827 24.6611 28.7035C22.0982 30.4243 19.0851 31.3428 16.0028 31.3428C13.9554 31.3435 11.9279 30.9387 10.0363 30.1515C8.14464 29.3643 6.42596 28.2101 4.97849 26.7549C3.53101 25.2997 2.38311 23.5721 1.60046 21.6708C0.817818 19.7695 0.41579 17.7318 0.417292 15.6742Z" fill="#EE4657"/>
</svg>
