<svg width="180" height="183" viewBox="0 0 180 183" fill="none" xmlns="http://www.w3.org/2000/svg">
<path d="M177.963 91.1207C177.963 140.365 138.549 180.241 89.9817 180.241C41.4144 180.241 2 140.365 2 91.1207C2 41.8769 41.4144 2 89.9817 2C138.549 2 177.963 41.8769 177.963 91.1207Z" fill="white" stroke="#FCC82B" stroke-width="4"/>
<ellipse cx="90.7377" cy="92.3989" rx="78.0221" ry="77.4526" fill="#FCC82B"/>
<path d="M79.9171 108.345C82.8229 109.781 86.3568 110.623 90.1682 110.623C93.9795 110.623 97.5134 109.781 100.419 108.345" stroke="white" stroke-width="4" stroke-linecap="round"/>
<path d="M124.338 96.5125V101.71C124.338 115.039 124.338 121.704 120.335 125.845C116.332 129.986 109.889 129.986 97.0022 129.986H83.3341C70.4477 129.986 64.0045 129.986 60.0012 125.845C55.9979 121.704 55.9979 115.039 55.9979 101.71V96.5125C55.9979 88.6929 55.9979 84.7831 57.772 81.542C59.5462 78.3008 62.7874 76.2892 69.2698 72.2661L76.1038 68.0247C82.9562 63.7719 86.3825 61.6455 90.1682 61.6455C93.9539 61.6455 97.3802 63.7719 104.233 68.0247L111.067 72.266C117.549 76.2892 120.79 78.3008 122.564 81.542" stroke="white" stroke-width="4" stroke-linecap="round"/>
</svg>
