<svg width="1094" height="150" viewBox="0 0 1094 150" fill="none" xmlns="http://www.w3.org/2000/svg">
<g clip-path="url(#clip0_5417_583)">
<path d="M20.5638 18.8218H1073.44V12.5038H20.5638V18.8218Z" fill="#CCCCCC"/>
<path d="M1071.04 18.0811H1075.84V15.6687H1071.04V18.0811Z" fill="#1A608D"/>
<path d="M1071.04 22.8824H1075.84V27.684H1071.04V22.8824ZM1071.04 32.4799H1075.84V37.2815H1071.04V32.4799ZM1071.04 42.0832H1075.84V46.8848H1071.04V42.0832ZM1071.04 51.6865H1075.84V56.4882H1071.04V51.6865ZM1071.04 61.2899H1075.84V66.0915H1071.04V61.2899ZM1071.04 70.8931H1075.84V75.6948H1071.04V70.8931ZM1071.04 80.4907H1075.84V85.2923H1071.04V80.4907ZM1071.04 90.094H1075.84V94.8957H1071.04V90.094ZM1071.04 99.6973H1075.84V104.499H1071.04V99.6973ZM1071.04 109.301H1075.84V114.102H1071.04V109.301ZM1071.04 118.904H1075.84V123.706H1071.04V118.904Z" fill="#1A608D"/>
<path d="M1071.04 130.92H1075.84V128.508H1071.04V130.92Z" fill="#1A608D"/>
<path d="M1057.85 15.6742C1057.85 12.5753 1058.77 9.54587 1060.48 6.96919C1062.19 4.39251 1064.63 2.38423 1067.48 1.19831C1070.32 0.012394 1073.46 -0.297884 1076.48 0.30669C1079.51 0.911266 1082.29 2.40355 1084.47 4.59483C1086.65 6.78612 1088.13 9.57804 1088.73 12.6174C1089.34 15.6568 1089.03 18.8072 1087.85 21.6703C1086.67 24.5333 1084.67 26.9804 1082.1 28.7021C1079.54 30.4238 1076.53 31.3428 1073.44 31.3428C1071.39 31.3435 1069.37 30.9387 1067.47 30.1516C1065.58 29.3644 1063.86 28.2104 1062.42 26.7552C1060.97 25.3001 1059.82 23.5725 1059.04 21.6712C1058.25 19.7699 1057.85 17.732 1057.85 15.6742Z" fill="#1A608D"/>
<path d="M1052.88 129.34C1052.88 125.251 1054.09 121.253 1056.35 117.853C1058.61 114.452 1061.82 111.802 1065.58 110.237C1069.34 108.672 1073.48 108.263 1077.47 109.06C1081.46 109.858 1085.13 111.828 1088 114.719C1090.88 117.611 1092.84 121.295 1093.63 125.306C1094.43 129.317 1094.02 133.475 1092.46 137.253C1090.91 141.031 1088.27 144.26 1084.88 146.532C1081.5 148.804 1077.52 150.017 1073.45 150.017C1068 150.017 1062.76 147.839 1058.91 143.961C1055.05 140.083 1052.88 134.824 1052.88 129.34Z" fill="#1A608D"/>
<path d="M1070.42 113.269C1061.6 114.966 1055.82 123.528 1057.51 132.391C1059.2 141.255 1067.72 147.064 1076.54 145.367C1085.36 143.67 1091.14 135.109 1089.45 126.245C1087.76 117.381 1079.24 111.572 1070.42 113.269Z" fill="#F7FBF9"/>
<path d="M1064.65 129.34C1064.65 127.592 1065.16 125.882 1066.13 124.428C1067.09 122.973 1068.46 121.839 1070.07 121.169C1071.68 120.5 1073.45 120.324 1075.15 120.664C1076.86 121.005 1078.43 121.846 1079.66 123.082C1080.89 124.318 1081.73 125.893 1082.07 127.608C1082.41 129.323 1082.23 131.1 1081.57 132.716C1080.9 134.331 1079.78 135.712 1078.33 136.684C1076.88 137.655 1075.18 138.174 1073.44 138.174C1071.11 138.174 1068.87 137.243 1067.22 135.587C1065.58 133.93 1064.65 131.684 1064.65 129.34Z" fill="#1A608D"/>
<path d="M18.1573 18.0811H22.9639V15.6687H18.1573V18.0811Z" fill="#FDC92A"/>
<path d="M18.163 22.8824H22.9639V27.684H18.163V22.8824ZM18.163 32.4799H22.9639V37.2815H18.163V32.4799ZM18.163 42.0832H22.9639V46.8848H18.163V42.0832ZM18.163 51.6865H22.9639V56.4882H18.163V51.6865ZM18.163 61.2899H22.9639V66.0915H18.163V61.2899ZM18.163 70.8931H22.9639V75.6948H18.163V70.8931ZM18.163 80.4907H22.9639V85.2923H18.163V80.4907ZM18.163 90.094H22.9639V94.8957H18.163V90.094ZM18.163 99.6973H22.9639V104.499H18.163V99.6973ZM18.163 109.301H22.9639V114.102H18.163V109.301ZM18.163 118.904H22.9639V123.706H18.163V118.904Z" fill="#FDC92A"/>
<path d="M18.1573 130.92H22.9639V128.508H18.1573V130.92Z" fill="#FDC92A"/>
<path d="M4.97777 15.6742C4.9789 12.5766 5.89402 9.54894 7.60727 6.97396C9.32052 4.39898 11.755 2.39238 14.603 1.20778C17.451 0.0231743 20.5846 -0.28618 23.6075 0.318821C26.6304 0.923822 29.4069 2.41597 31.586 4.60668C33.7651 6.79739 35.249 9.58829 35.8499 12.6264C36.4508 15.6645 36.1418 18.8135 34.962 21.6752C33.7822 24.5369 31.7845 26.9827 29.2216 28.7035C26.6587 30.4243 23.6456 31.3428 20.5633 31.3428C18.5161 31.3428 16.489 30.9374 14.5977 30.15C12.7064 29.3625 10.988 28.2083 9.54064 26.7532C8.09331 25.2982 6.94546 23.5708 6.16254 21.6699C5.37963 19.7689 4.97702 17.7316 4.97777 15.6742Z" fill="#FDC92A"/>
<path d="M-0.000102997 129.34C-0.000102997 125.251 1.20662 121.253 3.46743 117.853C5.72824 114.452 8.94158 111.802 12.7012 110.237C16.4607 108.672 20.5977 108.263 24.5888 109.06C28.58 109.858 32.2461 111.828 35.1236 114.719C38.001 117.611 39.9607 121.295 40.7545 125.306C41.5484 129.317 41.141 133.475 39.5837 137.253C38.0265 141.031 35.3892 144.26 32.0057 146.532C28.6222 148.804 24.6442 150.017 20.5749 150.017C15.118 150.017 9.88474 147.839 6.02618 143.961C2.16763 140.083 -0.000102997 134.824 -0.000102997 129.34Z" fill="#FDC92A"/>
<path d="M15.8717 113.582C7.27664 116.196 2.41799 125.318 5.01954 133.955C7.62108 142.593 16.6977 147.476 25.2927 144.861C33.8877 142.247 38.7465 133.125 36.145 124.488C33.5434 115.85 24.4667 110.967 15.8717 113.582Z" fill="#F7FBF9"/>
<path d="M11.7507 129.34C11.7495 127.592 12.2645 125.882 13.2303 124.428C14.1961 122.973 15.5694 121.839 17.1765 121.169C18.7837 120.5 20.5523 120.324 22.2589 120.664C23.9655 121.005 25.5333 121.846 26.764 123.082C27.9947 124.318 28.833 125.893 29.1729 127.608C29.5127 129.323 29.3388 131.1 28.6732 132.716C28.0076 134.331 26.8803 135.712 25.4337 136.684C23.9871 137.655 22.2863 138.174 20.5464 138.174C18.2146 138.174 15.9783 137.243 14.3289 135.587C12.6796 133.93 11.7522 131.684 11.7507 129.34Z" fill="#FDC92A"/>
<path d="M281.38 18.0811H286.187V15.6687H281.38V18.0811Z" fill="#F68D2F"/>
<path d="M281.38 22.8824H286.187V27.684H281.38V22.8824ZM281.38 32.4799H286.187V37.2815H281.38V32.4799ZM281.38 42.0832H286.187V46.8848H281.38V42.0832ZM281.38 51.6865H286.187V56.4882H281.38V51.6865ZM281.38 61.2899H286.187V66.0915H281.38V61.2899ZM281.38 70.8931H286.187V75.6948H281.38V70.8931ZM281.38 80.4907H286.187V85.2923H281.38V80.4907ZM281.38 90.094H286.187V94.8957H281.38V90.094ZM281.38 99.6973H286.187V104.499H281.38V99.6973ZM281.38 109.301H286.187V114.102H281.38V109.301ZM281.38 118.904H286.187V123.706H281.38V118.904Z" fill="#F68D2F"/>
<path d="M281.38 130.92H286.187V128.508H281.38V130.92Z" fill="#F68D2F"/>
<path d="M268.195 15.6742C268.195 12.5753 269.109 9.54587 270.822 6.96919C272.536 4.39251 274.971 2.38423 277.82 1.19831C280.669 0.012394 283.803 -0.297884 286.828 0.30669C289.852 0.911266 292.63 2.40355 294.811 4.59483C296.991 6.78612 298.476 9.57804 299.078 12.6174C299.679 15.6568 299.371 18.8072 298.191 21.6703C297.011 24.5333 295.012 26.9804 292.448 28.7021C289.884 30.4238 286.87 31.3428 283.786 31.3428C281.738 31.3435 279.711 30.9387 277.819 30.1516C275.927 29.3644 274.208 28.2104 272.76 26.7552C271.312 25.3001 270.163 23.5725 269.38 21.6712C268.597 19.7699 268.194 17.732 268.195 15.6742Z" fill="#F68D2F"/>
<path d="M263.223 129.34C263.223 125.251 264.429 121.253 266.69 117.853C268.951 114.452 272.164 111.802 275.924 110.237C279.683 108.672 283.82 108.263 287.812 109.06C291.803 109.858 295.469 111.828 298.346 114.719C301.224 117.611 303.183 121.295 303.977 125.306C304.771 129.317 304.364 133.475 302.806 137.253C301.249 141.031 298.612 144.26 295.228 146.532C291.845 148.804 287.867 150.017 283.798 150.017C278.341 150.017 273.107 147.839 269.249 143.961C265.39 140.083 263.223 134.824 263.223 129.34Z" fill="#F68D2F"/>
<path d="M279.1 113.602C270.505 116.217 265.646 125.338 268.248 133.976C270.849 142.614 279.926 147.496 288.521 144.882C297.116 142.267 301.975 133.146 299.373 124.508C296.771 115.871 287.695 110.988 279.1 113.602Z" fill="#F7FBF9"/>
<path d="M274.99 129.34C274.989 127.592 275.504 125.882 276.47 124.428C277.436 122.973 278.809 121.839 280.416 121.169C282.023 120.5 283.792 120.324 285.499 120.664C287.205 121.005 288.773 121.846 290.004 123.082C291.234 124.318 292.073 125.893 292.413 127.608C292.752 129.323 292.579 131.1 291.913 132.716C291.247 134.331 290.12 135.712 288.673 136.684C287.227 137.655 285.526 138.174 283.786 138.174C281.454 138.174 279.218 137.243 277.569 135.587C275.919 133.93 274.992 131.684 274.99 129.34Z" fill="#F68D2F"/>
<path d="M544.597 18.0811H549.403V15.6687H544.597V18.0811Z" fill="#EE4657"/>
<path d="M544.602 22.8824H549.403V27.684H544.602V22.8824ZM544.602 32.4799H549.403V37.2815H544.602V32.4799ZM544.602 42.0832H549.403V46.8848H544.602V42.0832ZM544.602 51.6865H549.403V56.4882H544.602V51.6865ZM544.602 61.2899H549.403V66.0915H544.602V61.2899ZM544.602 70.8931H549.403V75.6948H544.602V70.8931ZM544.602 80.4907H549.403V85.2923H544.602V80.4907ZM544.602 90.094H549.403V94.8957H544.602V90.094ZM544.602 99.6973H549.403V104.499H544.602V99.6973ZM544.602 109.301H549.403V114.102H544.602V109.301ZM544.602 118.904H549.403V123.706H544.602V118.904Z" fill="#EE4657"/>
<path d="M544.597 130.92H549.403V128.508H544.597V130.92Z" fill="#EE4657"/>
<path d="M531.417 15.6742C531.418 12.5766 532.333 9.54894 534.047 6.97396C535.76 4.39898 538.195 2.39238 541.042 1.20778C543.89 0.0231743 547.024 -0.28618 550.047 0.318821C553.07 0.923822 555.846 2.41597 558.025 4.60668C560.205 6.79739 561.688 9.58829 562.289 12.6264C562.89 15.6645 562.581 18.8135 561.401 21.6752C560.222 24.5369 558.224 26.9827 555.661 28.7035C553.098 30.4243 550.085 31.3428 547.003 31.3428C544.955 31.3435 542.928 30.9387 541.036 30.1515C539.145 29.3643 537.426 28.2101 535.978 26.7549C534.531 25.2997 533.383 23.5721 532.6 21.6708C531.818 19.7695 531.416 17.7318 531.417 15.6742Z" fill="#EE4657"/>
<path d="M526.439 129.34C526.439 125.251 527.646 121.253 529.907 117.853C532.168 114.452 535.381 111.802 539.141 110.237C542.9 108.672 547.037 108.263 551.028 109.06C555.019 109.858 558.686 111.828 561.563 114.719C564.441 117.611 566.4 121.295 567.194 125.306C567.988 129.317 567.58 133.475 566.023 137.253C564.466 141.031 561.829 144.26 558.445 146.532C555.062 148.804 551.084 150.017 547.014 150.017C541.558 150.017 536.324 147.839 532.466 143.961C528.607 140.083 526.439 134.824 526.439 129.34Z" fill="#EE4657"/>
<path d="M543.933 113.285C535.115 114.992 529.343 123.559 531.041 132.421C532.739 141.283 541.264 147.083 550.082 145.377C558.9 143.67 564.672 135.103 562.974 126.241C561.276 117.379 552.751 111.579 543.933 113.285Z" fill="#F7FBF9"/>
<path d="M538.207 129.34C538.206 127.592 538.721 125.882 539.687 124.428C540.653 122.973 542.026 121.839 543.633 121.169C545.24 120.5 547.009 120.324 548.715 120.664C550.422 121.005 551.99 121.846 553.221 123.082C554.451 124.318 555.29 125.893 555.629 127.608C555.969 129.323 555.795 131.1 555.13 132.716C554.464 134.331 553.337 135.712 551.89 136.684C550.444 137.655 548.743 138.174 547.003 138.174C544.671 138.174 542.435 137.243 540.785 135.587C539.136 133.93 538.209 131.684 538.207 129.34Z" fill="#EE4657"/>
<path d="M807.814 18.0811H812.62V15.6687H807.814V18.0811Z" fill="#29BECD"/>
<path d="M807.819 22.8824H812.626V27.684H807.819V22.8824ZM807.819 32.4799H812.626V37.2815H807.819V32.4799ZM807.819 42.0832H812.626V46.8848H807.819V42.0832ZM807.819 51.6865H812.626V56.4882H807.819V51.6865ZM807.819 61.2899H812.626V66.0915H807.819V61.2899ZM807.819 70.8931H812.626V75.6948H807.819V70.8931ZM807.819 80.4907H812.626V85.2923H807.819V80.4907ZM807.819 90.094H812.626V94.8957H807.819V90.094ZM807.819 99.6973H812.626V104.499H807.819V99.6973ZM807.819 109.301H812.626V114.102H807.819V109.301ZM807.819 118.904H812.626V123.706H807.819V118.904Z" fill="#29BECD"/>
<path d="M807.814 130.92H812.62V128.508H807.814V130.92Z" fill="#29BECD"/>
<path d="M794.634 15.6742C794.634 12.575 795.548 9.54543 797.262 6.96863C798.975 4.39182 801.411 2.38357 804.26 1.19782C807.109 0.0120716 810.244 -0.29793 813.269 0.307112C816.294 0.912151 819.072 2.405 821.252 4.59687C823.432 6.78873 824.917 9.58117 825.518 12.6209C826.118 15.6607 825.809 18.8113 824.628 21.6743C823.447 24.5372 821.448 26.9839 818.883 28.7049C816.318 30.4259 813.303 31.3439 810.219 31.3428C808.172 31.3428 806.145 30.9374 804.254 30.15C802.362 29.3625 800.644 28.2083 799.197 26.7532C797.749 25.2982 796.602 23.5708 795.819 21.6699C795.036 19.7689 794.633 17.7316 794.634 15.6742Z" fill="#29BECD"/>
<path d="M789.662 129.34C789.662 125.251 790.869 121.253 793.13 117.853C795.39 114.452 798.604 111.802 802.363 110.237C806.123 108.672 810.26 108.263 814.251 109.06C818.242 109.858 821.908 111.828 824.786 114.719C827.663 117.611 829.623 121.295 830.417 125.306C831.211 129.317 830.803 133.475 829.246 137.253C827.689 141.031 825.051 144.26 821.668 146.532C818.284 148.804 814.306 150.017 810.237 150.017C804.78 150.017 799.547 147.839 795.688 143.961C791.83 140.083 789.662 134.824 789.662 129.34Z" fill="#29BECD"/>
<path d="M805.001 113.874C796.494 116.766 791.931 126.041 794.809 134.589C797.686 143.138 806.915 147.724 815.422 144.832C823.928 141.94 828.491 132.666 825.614 124.117C822.736 115.568 813.507 110.982 805.001 113.874Z" fill="#F7FBF9"/>
<path d="M801.429 129.34C801.428 127.591 801.943 125.882 802.909 124.427C803.875 122.973 805.249 121.839 806.857 121.169C808.464 120.499 810.233 120.324 811.94 120.665C813.647 121.005 815.214 121.847 816.445 123.084C817.675 124.321 818.513 125.896 818.852 127.611C819.191 129.327 819.017 131.104 818.35 132.72C817.684 134.335 816.556 135.716 815.108 136.686C813.661 137.657 811.96 138.175 810.219 138.174C807.889 138.172 805.654 137.241 804.006 135.585C802.358 133.928 801.431 131.683 801.429 129.34Z" fill="#29BECD"/>
</g>
<defs>
<clipPath id="clip0_5417_583">
<rect width="1094" height="150" fill="white" transform="matrix(-1 0 0 -1 1094 150)"/>
</clipPath>
</defs>
</svg>
