<svg width="32" height="32" viewBox="0 0 32 32" fill="none" xmlns="http://www.w3.org/2000/svg">
<path d="M0.633876 15.6742C0.633876 12.575 1.54843 9.54543 3.26187 6.96863C4.97532 4.39182 7.41068 2.38357 10.2599 1.19782C13.1092 0.012072 16.2444 -0.297929 19.269 0.307111C22.2935 0.912152 25.0716 2.40501 27.2518 4.59687C29.4321 6.78873 30.9166 9.58117 31.5175 12.6209C32.1185 15.6607 31.8089 18.8113 30.628 21.6743C29.447 24.5372 27.4478 26.9839 24.883 28.7049C22.3183 30.4259 19.3033 31.3439 16.2194 31.3428C14.1722 31.3428 12.1451 30.9374 10.2538 30.15C8.36247 29.3625 6.64407 28.2083 5.19674 26.7532C3.74942 25.2982 2.60153 23.5708 1.81862 21.6699C1.0357 19.7689 0.633125 17.7316 0.633876 15.6742Z" fill="#29BECD"/>
</svg>
