<svg width="20" height="24" viewBox="0 0 20 24" fill="none" xmlns="http://www.w3.org/2000/svg">
<g clip-path="url(#clip0_8395_746)">
<path d="M4.87207 18.6973H10.5133" stroke="black" stroke-width="1.5" stroke-miterlimit="133.33" stroke-linecap="round"/>
<path d="M5.89746 2.5123C5.89746 2.06822 6.05955 1.64233 6.34807 1.32831C6.63658 1.0143 7.0279 0.837891 7.43592 0.837891H12.5639C12.9719 0.837891 13.3633 1.0143 13.6518 1.32831C13.9403 1.64233 14.1024 2.06822 14.1024 2.5123V3.62846C14.1024 4.07255 13.9403 4.49844 13.6518 4.81245C13.3633 5.12646 12.9719 5.30288 12.5639 5.30288H7.43592C7.0279 5.30288 6.63658 5.12646 6.34807 4.81245C6.05955 4.49844 5.89746 4.07255 5.89746 3.62846V2.5123Z" stroke="black" stroke-width="1.5" stroke-miterlimit="133.33"/>
<path d="M19.2311 16.4655C19.2311 19.6228 19.2311 21.2014 18.3298 22.1823C17.4286 23.1632 15.9781 23.1632 13.0772 23.1632H6.92338C4.02245 23.1632 2.57199 23.1632 1.67076 22.1823C0.769531 21.2014 0.769531 19.6228 0.769531 16.4655V13.1167M14.1028 3.07227C16.3335 3.08566 17.5418 3.19349 18.3298 4.05113C19.2311 5.032 19.2311 6.61063 19.2311 9.7679V12.0002M5.89784 3.07227C3.66707 3.08566 2.45876 3.19349 1.67076 4.05113C0.882762 4.90876 0.783685 6.22351 0.771377 8.6514" stroke="black" stroke-width="1.5" stroke-miterlimit="133.33" stroke-linecap="round"/>
<path d="M4.87207 14.791H5.89792M13.0773 14.791H8.97484" stroke="black" stroke-width="1.5" stroke-miterlimit="133.33" stroke-linecap="round"/>
</g>
<defs>
<clipPath id="clip0_8395_746">
<rect width="20" height="24" fill="white"/>
</clipPath>
</defs>
</svg>
