<svg width="395" height="313" viewBox="0 0 395 313" fill="none" xmlns="http://www.w3.org/2000/svg">
<path d="M197.373 0L172.064 43.208H180.015V181H214.726V43.208H222.681L197.373 0Z" fill="#673BB6"/>
<path d="M342.51 62L292.762 74.9059L298.482 80.4428L197.891 177.817L222.867 202L323.458 104.626L329.183 110.163L342.51 62Z" fill="#25C5D9"/>
<path d="M394.16 190.997L349.773 166V173.854H208.221V208.146H349.773V216L394.16 190.997Z" fill="#EB407A"/>
<path d="M0.587891 190.997L45.2217 166V173.854H187.561V208.146H45.2217V216L0.587891 190.997Z" fill="#42A4F5"/>
<path d="M51.2051 62L100.959 74.9059L95.234 80.4428L195.825 177.817L170.848 202L70.2571 104.626L64.5373 110.163L51.2051 62Z" fill="#FE9700"/>
<path d="M266.268 246.705C304.061 210.091 304.061 150.729 266.268 114.115C228.474 77.5014 167.199 77.5014 129.406 114.115C91.6122 150.729 91.6122 210.091 129.406 246.705C167.199 283.319 228.474 283.319 266.268 246.705Z" fill="white"/>
<path d="M197.891 267C148.921 267 109.053 228.18 109.053 180.5C109.053 132.82 148.921 94 197.891 94C246.86 94 286.728 132.82 286.728 180.5C286.728 228.18 246.86 267 197.891 267ZM197.891 97.0465C150.629 97.0507 112.177 134.507 112.177 180.5C112.177 226.493 150.629 263.966 197.891 263.966C245.152 263.966 283.604 226.526 283.604 180.5C283.604 134.474 245.152 97.0507 197.891 97.0507V97.0465Z" fill="black" fill-opacity="0.42"/>
</svg>
