<svg width="31" height="31" viewBox="0 0 31 31" fill="none" xmlns="http://www.w3.org/2000/svg">
<path d="M4.24121 17.4722C4.24121 13.0528 4.24121 10.843 5.61414 9.4701C6.98709 8.09717 9.19679 8.09717 13.6162 8.09717H18.3037C22.7231 8.09717 24.9329 8.09717 26.3057 9.4701C27.0712 10.2355 27.4099 11.2611 27.5598 12.7847M27.6787 17.4722C27.6787 21.8915 27.6787 24.1013 26.3057 25.4742C24.9329 26.8472 22.7231 26.8472 18.3037 26.8472H13.6162C9.19681 26.8472 6.98708 26.8472 5.61414 25.4742C4.8487 24.7087 4.51 23.6832 4.36014 22.1597" stroke="#313131" stroke-width="1.875" stroke-linecap="round"/>
<path d="M20.6475 8.09717C20.6475 5.88746 20.6475 4.7826 19.961 4.09614C19.2745 3.40967 18.1696 3.40967 15.96 3.40967C13.7503 3.40967 12.6454 3.40967 11.9589 4.09614C11.2725 4.7826 11.2725 5.88746 11.2725 8.09717" stroke="#313131" stroke-width="1.875"/>
<path d="M21.8193 11.6128C21.8193 12.26 21.2947 12.7847 20.6475 12.7847C20.0002 12.7847 19.4756 12.26 19.4756 11.6128C19.4756 10.9656 20.0002 10.4409 20.6475 10.4409C21.2947 10.4409 21.8193 10.9656 21.8193 11.6128Z" fill="#313131"/>
<path d="M12.4443 11.6128C12.4443 12.26 11.9197 12.7847 11.2725 12.7847C10.6253 12.7847 10.1006 12.26 10.1006 11.6128C10.1006 10.9656 10.6253 10.4409 11.2725 10.4409C11.9197 10.4409 12.4443 10.9656 12.4443 11.6128Z" fill="#313131"/>
</svg>
