<svg width="70" height="70" viewBox="0 0 70 70" fill="none" xmlns="http://www.w3.org/2000/svg">
<path d="M7.65625 40.4688C7.65625 30.1569 7.65625 25.0008 10.8598 21.7973C14.0633 18.5937 19.2193 18.5938 29.5313 18.5938H40.4688C50.7806 18.5938 55.9368 18.5937 59.1402 21.7973C60.9263 23.5833 61.7165 25.9763 62.0662 29.5313M62.3438 40.4688C62.3438 50.7806 62.3438 55.9368 59.1402 59.1402C55.9368 62.3438 50.7806 62.3438 40.4688 62.3438H29.5313C19.2193 62.3438 14.0633 62.3438 10.8598 59.1402C9.07372 57.3541 8.28343 54.9612 7.93376 51.4063" stroke="#313131" stroke-width="4.375" stroke-linecap="round"/>
<path d="M45.9375 18.5938C45.9375 13.4378 45.9375 10.8598 44.3357 9.25802C42.7339 7.65625 40.1559 7.65625 35 7.65625C29.8441 7.65625 27.266 7.65625 25.6643 9.25802C24.0625 10.8598 24.0625 13.4378 24.0625 18.5938" stroke="#313131" stroke-width="4.375"/>
<path d="M48.6719 26.7969C48.6719 28.307 47.4477 29.5312 45.9375 29.5312C44.4273 29.5312 43.2031 28.307 43.2031 26.7969C43.2031 25.2867 44.4273 24.0625 45.9375 24.0625C47.4477 24.0625 48.6719 25.2867 48.6719 26.7969Z" fill="#313131"/>
<path d="M26.7969 26.7969C26.7969 28.307 25.5726 29.5312 24.0625 29.5312C22.5524 29.5312 21.3281 28.307 21.3281 26.7969C21.3281 25.2867 22.5524 24.0625 24.0625 24.0625C25.5726 24.0625 26.7969 25.2867 26.7969 26.7969Z" fill="#313131"/>
</svg>
