<svg width="182" height="183" viewBox="0 0 182 183" fill="none" xmlns="http://www.w3.org/2000/svg">
<path d="M179.102 91.1207C179.102 140.353 139.445 180.241 90.5512 180.241C41.6575 180.241 2 140.353 2 91.1207C2 41.8889 41.6575 2 90.5512 2C139.445 2 179.102 41.8889 179.102 91.1207Z" fill="white" stroke="#A53574" stroke-width="4"/>
<ellipse cx="90.5512" cy="92.2597" rx="78.0221" ry="77.4526" fill="#A53574"/>
<path d="M74.9254 114.279H81.7508" stroke="white" stroke-width="4" stroke-linecap="round"/>
<path d="M92.0283 126.001V102.112M92.0283 61.1592V88.461" stroke="white" stroke-width="4" stroke-linecap="round"/>
<path d="M102.26 81.6387V88.4641" stroke="white" stroke-width="4" stroke-linecap="round"/>
<path d="M126.404 91.8737V98.6991C126.404 111.569 126.404 118.005 122.406 122.003C118.408 126.001 111.972 126.001 99.1021 126.001H85.4513C72.5811 126.001 66.146 126.001 62.1477 122.003C58.1495 118.005 58.1495 111.569 58.1495 98.6991V88.461C58.1495 75.5908 58.1495 69.1557 62.1477 65.1574C66.146 61.1592 72.5811 61.1592 85.4513 61.1592H99.1021C111.972 61.1592 118.408 61.1592 122.406 65.1574C125.164 67.9155 126.019 71.8332 126.284 78.2228" stroke="white" stroke-width="4" stroke-linecap="round"/>
<path d="M58.1495 127.474H92.2767" stroke="white" stroke-width="4" stroke-linecap="round"/>
<path d="M58.1495 130.271H126.404" stroke="white" stroke-width="4" stroke-linecap="round"/>
<path d="M102.26 115.761H109.086" stroke="white" stroke-width="4" stroke-linecap="round"/>
</svg>
