<svg width="33" height="32" viewBox="0 0 33 32" fill="none" xmlns="http://www.w3.org/2000/svg">
<path d="M0.977769 15.6742C0.9789 12.5766 1.89402 9.54894 3.60727 6.97396C5.32052 4.39898 7.75505 2.39238 10.603 1.20777C13.451 0.0231744 16.5846 -0.286181 19.6075 0.31882C22.6304 0.923822 25.4069 2.41597 27.586 4.60668C29.7651 6.79739 31.249 9.58828 31.8499 12.6264C32.4508 15.6645 32.1418 18.8135 30.962 21.6752C29.7822 24.5369 27.7845 26.9827 25.2216 28.7035C22.6587 30.4243 19.6456 31.3428 16.5633 31.3428C14.5161 31.3428 12.489 30.9374 10.5977 30.15C8.70643 29.3625 6.98796 28.2083 5.54064 26.7532C4.09331 25.2982 2.94545 23.5708 2.16254 21.6699C1.37963 19.7689 0.977019 17.7316 0.977769 15.6742Z" fill="#FDC92A"/>
</svg>
