<svg width="18" height="24" viewBox="0 0 18 24" fill="none" xmlns="http://www.w3.org/2000/svg">
<g clip-path="url(#clip0_3947_2919)">
<path d="M8.99999 0C6.61304 0 4.32386 0.947087 2.63603 2.63291C0.948207 4.31874 0 6.60521 0 8.98933C0 13.9547 7.09106 24 8.99999 24C10.7567 24 18 13.9547 18 8.98933C18 6.60521 17.0518 4.31874 15.364 2.63291C13.6761 0.947087 11.3869 0 8.99999 0ZM15.0578 15.0347C13.4459 16.6139 11.275 17.4937 9.01711 17.4828C6.75922 17.472 4.59692 16.5713 3.00033 14.9766C1.40374 13.3819 0.501955 11.2221 0.49106 8.9669C0.480166 6.71168 1.36104 4.54334 2.94214 2.93333L3.05962 2.824C3.03342 2.91804 2.99386 3.00784 2.94214 3.09067C2.81399 3.28 2.60308 3.35733 2.46959 3.53333C2.34554 3.71197 2.25508 3.91167 2.20261 4.12267C2.15188 4.32 2.18392 4.56 2.1145 4.75466C2.0264 5.00533 1.86621 5.152 1.89557 5.44267C2.24265 5.54667 2.09315 4.928 2.38416 4.90933C2.44298 5.21049 2.44298 5.52017 2.38416 5.82133C2.34678 6.16533 2.28003 6.25067 2.48561 6.54667C2.64847 6.784 2.70454 6.94133 3.01958 6.97866C3.33462 7.016 3.43073 7.144 3.55354 7.42133C3.77781 7.46933 3.91396 7.50666 3.94333 7.75466C4.06297 7.85397 4.19067 7.94317 4.32511 8.02133C4.47462 8.05866 4.72292 7.848 4.85908 8.02133C5.09402 8.288 4.56274 9.00267 4.46662 9.248C4.33046 9.608 4.3091 10.136 4.64817 10.392C4.82438 10.5253 5.0086 10.5893 5.06733 10.8293C5.0795 11.0382 5.11623 11.245 5.17679 11.4453C5.32897 11.7707 5.68139 11.88 5.93236 12.1307C6.26075 12.4587 6.23672 12.8853 6.23672 13.3493C6.23672 13.8133 6.42361 14.2053 6.48769 14.6507C6.55176 15.096 6.68792 15.536 6.78671 15.984C6.85879 16.3173 7.14712 16.824 7.56362 16.7547C7.59299 16.5973 7.43014 16.472 7.40878 16.3173C7.38742 16.1627 7.43014 16.024 7.40878 15.872C7.36874 15.7461 7.36119 15.6121 7.38686 15.4825C7.41253 15.3529 7.47059 15.2319 7.55562 15.1307C7.6277 15.0373 7.72381 14.9627 7.79856 14.864C7.94007 14.6827 7.83061 14.736 7.82527 14.5387C7.82527 14.2933 7.89202 14.4133 8.04153 14.336C8.12507 14.2726 8.1996 14.1981 8.26311 14.1147C8.4212 13.9773 8.5652 13.8245 8.69297 13.6587C8.80777 13.4773 8.79175 13.2267 8.90922 13.0427C9.0267 12.8587 9.22959 12.8293 9.41381 12.688C9.65676 12.5093 9.55531 12.32 9.6007 12.072C9.68035 11.636 9.86345 11.2254 10.1347 10.8747C10.4631 10.4587 10.6046 10.1067 10.2041 9.70933C10.0065 9.512 9.90507 9.56533 9.64343 9.496C9.45422 9.4102 9.25983 9.33628 9.06141 9.27466C8.93859 9.25866 8.8665 9.304 8.75437 9.27466C8.64224 9.24533 8.66359 9.184 8.55413 9.184C8.39127 9.184 8.16434 9.52533 8.02017 9.30933C7.94541 9.18933 8.17768 8.85333 8.167 8.69333C8.16838 8.57382 8.14379 8.45542 8.09493 8.34632C8.04607 8.23721 7.97411 8.13998 7.884 8.06133C7.77613 8.02782 7.66651 8.00022 7.55562 7.97866C7.44836 7.93386 7.3463 7.87753 7.25125 7.81067C7.12577 7.73067 6.88548 7.592 6.83209 7.45066C6.67991 7.45066 6.56511 7.36 6.42094 7.36266C6.29533 7.3898 6.16758 7.40586 6.03916 7.41067C5.90566 7.39733 5.77217 7.29333 5.62266 7.312C5.50814 7.35711 5.40105 7.41914 5.30495 7.496C5.0909 7.61779 4.85815 7.70339 4.61613 7.74933C4.24502 7.81866 4.17828 7.67733 4.20231 7.336L4.14624 7.224C4.2824 6.84 4.0341 6.81333 3.76178 6.72C3.7244 6.45333 4.05814 6.25333 3.91931 5.95466C3.63364 5.93866 3.32394 6.73866 3.08365 6.392C2.92613 6.16533 3.16641 5.528 3.30791 5.32533C3.54686 5.05554 3.85528 4.85632 4.19964 4.74933C4.28496 4.73379 4.37305 4.74712 4.44993 4.78721C4.52682 4.8273 4.58811 4.89186 4.62413 4.97066C4.70156 5.152 4.6001 5.32 4.62413 5.52267C4.86442 5.46667 4.80301 5.16267 4.79233 4.98933C4.77364 4.72267 4.91782 4.736 5.05932 4.54133C5.20082 4.34666 5.20616 4.15733 5.36368 3.984C5.5212 3.81067 5.63067 3.71733 5.76683 3.584C5.90299 3.45066 6.09522 3.45333 6.25274 3.34933C6.49302 3.192 6.17531 2.896 6.51972 2.91733C6.6452 2.91733 6.58112 3.00533 6.74932 2.96533C6.84014 2.9335 6.92925 2.897 7.01631 2.856C7.35537 2.71733 7.11508 2.68 6.96023 2.50133C6.76267 2.27467 7.043 2.31467 7.24591 2.28C7.39542 2.256 7.36338 2.208 7.4942 2.296C7.62502 2.384 7.54227 2.47467 7.71047 2.46933C8.03085 2.46933 7.80925 2.13867 7.73716 2.032C7.61435 1.85067 7.58499 1.72267 7.32602 1.71467C7.35531 1.62819 7.35531 1.53448 7.32602 1.448C7.10976 1.47467 7.05903 1.31733 6.90685 1.256C6.63987 1.152 6.67456 1.37867 6.56243 1.52267C6.4503 1.66667 6.22337 1.656 6.13794 1.85067C6.0525 2.04533 6.13794 2.20533 5.80688 2.152C5.8408 2.01873 5.84805 1.88008 5.82823 1.744C5.73773 1.72948 5.64848 1.70808 5.56125 1.68C5.56125 1.35467 5.92168 1.328 6.1673 1.296C6.41293 1.264 6.53041 0.983998 6.77603 0.935998C7.02166 0.887998 7.16849 1.26133 7.45149 1.048C7.61168 0.925333 7.53692 0.853332 7.47818 0.735999C7.46216 0.703999 7.38207 0.634666 7.36071 0.605332C7.57696 0.562666 7.79857 0.530666 8.02284 0.504C8.07135 0.627976 8.13217 0.746789 8.20438 0.858665C8.23909 0.919998 8.30851 0.96 8.33788 1.02933C8.36724 1.09867 8.29249 1.20267 8.39128 1.25333C8.54079 1.33333 8.9813 0.810666 9.08543 0.719999C9.18955 0.629332 9.30168 0.551999 9.26964 0.453332C9.96673 0.474274 10.6588 0.579028 11.3308 0.765332C11.3842 0.831999 11.4375 0.901332 11.4909 0.975999C11.6084 1.13867 11.6832 1.28533 11.8941 1.35733C12.0142 1.39733 12.404 1.38933 12.2438 1.66933C12.0836 1.94933 11.9288 1.58933 11.8514 1.50666C11.7739 1.424 11.4376 1.272 11.4482 1.528C11.4643 1.912 12.3266 1.85067 12.1397 2.26933C12.2438 2.33067 12.4467 2.432 12.4067 2.58133C12.3666 2.73067 12.1237 2.65067 12.1397 2.888C12.1446 2.97177 12.1687 3.0533 12.21 3.12634C12.2514 3.19938 12.3089 3.26199 12.3783 3.30936C12.4476 3.35674 12.5269 3.38761 12.61 3.39963C12.6932 3.41164 12.778 3.40447 12.8579 3.37866C13.221 3.25066 12.946 2.74667 13.3625 2.69333C13.4371 2.68372 13.513 2.69174 13.5839 2.71675C13.6549 2.74177 13.7189 2.78307 13.771 2.83733C13.8911 2.93333 13.9686 3.14667 14.1341 3.13067C14.1528 3.02933 14.0753 2.95467 14.062 2.864C14.239 2.92347 14.3974 3.0283 14.5212 3.168C14.6307 3.336 14.62 3.57867 14.8923 3.36C14.8496 3.328 14.8309 3.25333 14.8069 3.22667C14.9609 3.21653 15.1144 3.25378 15.2466 3.3334C15.3788 3.41302 15.4835 3.53119 15.5464 3.672C15.8801 4.344 15.0632 3.81067 15.0125 4.16C14.8122 4.096 14.7214 3.93333 14.5479 3.83733C14.4651 3.792 14.3103 3.816 14.2462 3.77066C14.1821 3.72533 14.1821 3.58933 14.1047 3.52533C13.803 3.27733 13.1115 3.67733 12.8339 3.83733C12.7591 3.88266 12.6763 3.88533 12.6256 3.968C12.5375 4.10667 12.663 4.144 12.6256 4.27466C12.5856 4.46133 12.3426 4.54133 12.2705 4.696C12.0943 5.05333 12.4521 5.56533 12.404 5.96266C12.3773 6.184 12.137 6.424 12.2305 6.608C12.2705 6.688 12.4067 6.75466 12.4601 6.85067C12.4975 6.94848 12.5412 7.04379 12.5909 7.136C12.8215 7.43901 13.0675 7.73005 13.3278 8.008C13.3943 8.0798 13.4793 8.13196 13.5734 8.15877C13.6676 8.18558 13.7674 8.186 13.8618 8.16C14.0622 8.12564 14.2583 8.0693 14.4464 7.992C14.6547 7.89333 14.6814 7.752 14.903 7.848C15.0765 7.92267 15.2314 8.14666 15.4369 7.96266C15.6051 8.12533 15.4183 8.41333 15.3809 8.59467C15.3645 8.70869 15.3729 8.8249 15.4057 8.93535C15.4384 9.04581 15.4946 9.14791 15.5704 9.23466C15.6501 9.31096 15.7085 9.40665 15.7398 9.51233C15.7712 9.618 15.7745 9.73001 15.7493 9.83733C15.72 10.0853 15.6559 10.3147 15.6025 10.56C15.5491 10.8053 15.4022 10.976 15.4103 11.2267C15.4541 11.4464 15.48 11.6694 15.4877 11.8933C15.4682 12.1253 15.4352 12.3559 15.3889 12.584C15.3302 12.8053 15.1753 12.9973 15.1219 13.2213C15.0859 13.3328 15.0765 13.4513 15.0946 13.567C15.1127 13.6828 15.1577 13.7927 15.226 13.888C15.3809 14.0693 15.5357 13.9653 15.7173 13.8267C16.0777 13.56 16.2513 13.0907 16.4809 12.7227C16.7312 12.3743 16.9493 12.0039 17.1323 11.616C17.167 11.5333 17.2097 11.4507 17.2524 11.3707C16.8436 12.758 16.0884 14.0188 15.0578 15.0347Z" fill="black"/>
</g>
<defs>
<clipPath id="clip0_3947_2919">
<rect width="18" height="24" fill="white"/>
</clipPath>
</defs>
</svg>
