<svg width="30" height="30" viewBox="0 0 30 30" fill="none" xmlns="http://www.w3.org/2000/svg">
<path d="M19.936 11.3066C20.2811 10.9652 20.2842 10.4088 19.9428 10.0636C19.6016 9.71848 19.045 9.7154 18.6999 10.0567L19.936 11.3066ZM13.4333 17.7375L19.936 11.3066L18.6999 10.0567L12.1973 16.4877L13.4333 17.7375Z" fill="#313131"/>
<path d="M22.7762 19.3009C21.358 23.5556 20.6489 25.6829 19.609 26.2874C18.6198 26.8625 17.398 26.8625 16.4088 26.2874C15.3689 25.6829 14.6598 23.5556 13.2416 19.3009C13.0139 18.6178 12.9 18.2762 12.7089 17.9907C12.5237 17.7141 12.286 17.4763 12.0093 17.2911C11.7238 17.1 11.3822 16.9861 10.6991 16.7584C6.44441 15.3402 4.3171 14.6311 3.71257 13.5912C3.13748 12.602 3.13748 11.3802 3.71257 10.391C4.3171 9.35114 6.44441 8.64202 10.6991 7.22381M24.4051 14.4141L24.7876 13.2666C26.5448 7.99502 27.4234 5.35924 26.032 3.96791C24.6408 2.57659 22.005 3.45518 16.7334 5.21236L15.4955 5.625" stroke="#313131" stroke-width="1.875" stroke-linecap="round"/>
</svg>
