<svg width="832" height="832" viewBox="0 0 832 832" fill="none" xmlns="http://www.w3.org/2000/svg">
<g clip-path="url(#clip0_6589_662)">
<path d="M415.65 831.3C645.207 831.3 831.3 645.207 831.3 415.65C831.3 186.093 645.207 0 415.65 0C186.093 0 0 186.093 0 415.65C0 645.207 186.093 831.3 415.65 831.3Z" fill="#D62027"/>
<path d="M416.58 387.64C475.006 387.64 522.37 340.276 522.37 281.85C522.37 223.423 475.006 176.06 416.58 176.06C358.154 176.06 310.79 223.423 310.79 281.85C310.79 340.276 358.154 387.64 416.58 387.64Z" fill="white"/>
<path d="M569.19 526.2C576.68 545.008 577.019 565.908 570.142 584.949C563.265 603.989 549.649 619.849 531.87 629.53C506.26 643.38 469.02 655.25 416.58 655.25C364.75 655.25 327.77 643.66 302.19 630.01C284.008 620.274 270.086 604.138 263.117 584.726C256.149 565.314 256.631 544.007 264.47 524.93C276.838 494.595 297.994 468.65 325.22 450.43C352.447 432.211 384.499 422.548 417.259 422.685C450.018 422.822 481.989 432.751 509.062 451.197C536.136 469.643 557.075 495.762 569.19 526.2Z" fill="white"/>
</g>
<defs>
<clipPath id="clip0_6589_662">
<rect width="831.31" height="831.31" fill="white"/>
</clipPath>
</defs>
</svg>
