<svg width="53" height="53" viewBox="0 0 53 53" fill="none" xmlns="http://www.w3.org/2000/svg">
<path d="M43.5289 9.47387L39.1122 5.0572C38.9058 4.85253 38.6611 4.6906 38.3921 4.58071C38.123 4.47081 37.8349 4.4151 37.5443 4.41678H13.2526C12.0812 4.41678 10.9578 4.88211 10.1295 5.7104C9.30126 6.53868 8.83594 7.66208 8.83594 8.83345V24.2918C8.83594 24.8775 9.0686 25.4392 9.48274 25.8533C9.89689 26.2675 10.4586 26.5001 11.0443 26.5001H41.9609C42.5466 26.5001 43.1083 26.2675 43.5225 25.8533C43.9366 25.4392 44.1693 24.8775 44.1693 24.2918V11.0418C44.1709 10.7512 44.1152 10.463 44.0053 10.194C43.8955 9.92493 43.7335 9.68021 43.5289 9.47387Z" fill="#BE7190"/>
<path d="M8.83105 19.1667H19.8662L20.0029 19.1804C20.1354 19.2071 20.2582 19.2716 20.3564 19.3669L24.1084 23.1414L24.5488 23.5837H44.1641C44.9375 23.5837 45.6796 23.8904 46.2266 24.4373C46.7735 24.9842 47.081 25.7263 47.0811 26.4998V30.6375C44.7437 29.6367 42.1851 29.2128 39.625 29.4216L39.6143 29.4226L39.6025 29.4236C36.6851 29.706 33.8996 30.7776 31.5449 32.5232C29.1972 34.2637 27.3662 36.6089 26.2471 39.3083C25.1839 41.7643 24.7956 44.4475 25.1035 47.0837H8.83105C8.05759 47.0837 7.31552 46.7761 6.76855 46.2292C6.22157 45.6823 5.91406 44.9403 5.91406 44.1667V22.0837C5.91406 21.3102 6.22157 20.5682 6.76855 20.0212C7.31554 19.4743 8.05751 19.1667 8.83105 19.1667Z" fill="#FAE2E5" stroke="black" stroke-width="3"/>
<path d="M37.5403 48.5833C37.2497 48.5849 36.9615 48.5292 36.6925 48.4193C36.4234 48.3094 36.1787 48.1475 35.9724 47.9428L31.5557 43.5262C31.1399 43.1103 30.9062 42.5463 30.9062 41.9583C30.9063 41.3702 31.1399 40.8062 31.5557 40.3903C31.9715 39.9745 32.5355 39.7409 33.1236 39.7409C33.7117 39.7409 34.2757 39.9745 34.6915 40.3903L37.5403 43.2612L44.8057 35.9737C45.2215 35.5578 45.7855 35.3242 46.3736 35.3242C46.9617 35.3242 47.5257 35.5578 47.9415 35.9737C48.3574 36.3895 48.591 36.9535 48.591 37.5416C48.591 38.1297 48.3574 38.6937 47.9415 39.1095L39.1082 47.9428C38.9019 48.1475 38.6571 48.3094 38.3881 48.4193C38.119 48.5292 37.8309 48.5849 37.5403 48.5833Z" fill="#BE7190"/>
<path d="M37.5391 8.83344C37.5391 9.41913 37.7717 9.98083 38.1859 10.395C38.6 10.8091 39.1617 11.0418 39.7474 11.0418H44.1641C44.1733 10.4579 43.951 9.8942 43.5457 9.47386L39.1291 5.05719C38.9201 4.84986 38.6718 4.6864 38.3987 4.57642C38.1257 4.46644 37.8334 4.41216 37.5391 4.41678V8.83344Z" fill="#313131"/>
</svg>
