<svg width="53" height="53" viewBox="0 0 53 53" fill="none" xmlns="http://www.w3.org/2000/svg">
<path d="M14.575 23.6408C22.6246 23.6408 29.15 30.109 29.15 38.0879C29.15 46.0669 22.6246 52.5351 14.575 52.5351C6.52545 52.5351 0 46.0669 0 38.0879C0 30.109 6.52545 23.6408 14.575 23.6408ZM14.575 44.3396C13.661 44.3396 12.92 45.0741 12.92 45.9801C12.92 46.886 13.661 47.6205 14.575 47.6205C15.489 47.6205 16.23 46.886 16.23 45.9801C16.23 45.0741 15.489 44.3396 14.575 44.3396ZM44.3875 0C49.1441 0 53 3.82212 53 8.53695V38.7446C53 43.4595 49.1441 47.2816 44.3875 47.2816L29.0901 47.2848C29.8768 46.0675 30.5118 44.7447 30.9689 43.3426L44.3875 43.3414C46.9487 43.3414 49.025 41.2834 49.025 38.7446V8.53695C49.025 5.9982 46.9487 3.94013 44.3875 3.94013H13.9125C11.3513 3.94013 9.275 5.9982 9.275 8.53695L9.27388 21.8379C7.85937 22.2909 6.52488 22.9204 5.2968 23.7001L5.3 8.53695C5.3 3.82212 9.15595 0 13.9125 0H44.3875ZM14.5751 28.9024C11.7981 28.9024 9.63474 31.0495 9.66366 34.0359C9.67068 34.7612 10.2696 35.3435 11.0013 35.3366C11.7331 35.3296 12.3206 34.736 12.3135 34.0106C12.2988 32.4897 13.2666 31.5292 14.5751 31.5292C15.8269 31.5292 16.8366 32.5586 16.8366 34.0233C16.8366 34.6124 16.6371 35.0507 15.9941 35.8026L15.7317 36.1001L15.0285 36.8621C13.7451 38.2846 13.2501 39.2056 13.2501 40.7163C13.2501 41.4416 13.8433 42.0296 14.5751 42.0296C15.3069 42.0296 15.9001 41.4416 15.9001 40.7163C15.9001 40.1062 16.1026 39.6589 16.758 38.8924L17.0256 38.589L17.7298 37.826C18.9956 36.4227 19.4866 35.51 19.4866 34.0233C19.4866 31.1241 17.3074 28.9024 14.5751 28.9024ZM28.4875 7.88026C29.4937 7.88026 30.3253 8.62141 30.4569 9.583L30.475 9.85033V23.6408H40.4079C41.5056 23.6408 42.3954 24.5228 42.3954 25.6109C42.3954 26.6082 41.6477 27.4325 40.6776 27.5629L40.4079 27.5809H28.4875C27.4813 27.5809 26.6498 26.8398 26.5181 25.8782L26.5 25.6109V9.85033C26.5 8.76229 27.3898 7.88026 28.4875 7.88026Z" fill="#212121"/>
<ellipse cx="15.1965" cy="37.9367" rx="15.1965" ry="15.0632" fill="#FFDB6A"/>
<path d="M21.033 34.0226C21.0404 34.5873 20.9706 35.1504 20.8256 35.6966C20.6997 36.1574 20.5178 36.6013 20.284 37.0187C20.0697 37.3958 19.8213 37.7528 19.5419 38.0855C19.2704 38.407 19.0045 38.712 18.7511 38.9935L18.7177 39.0294C18.481 39.2778 18.261 39.5166 18.0661 39.7415C17.8555 39.984 17.669 40.246 17.5092 40.524C17.3419 40.8178 17.2137 41.1319 17.1277 41.4583C17.0308 41.8455 16.9845 42.2435 16.9899 42.6424V42.7114C16.9736 43.0772 16.8156 43.4227 16.5487 43.6758C16.2818 43.929 15.9266 44.0702 15.5572 44.0702C15.1878 44.0702 14.8327 43.929 14.5658 43.6758C14.2989 43.4227 14.1409 43.0772 14.1246 42.7114V42.6424C14.1188 41.998 14.197 41.3556 14.3571 40.731C14.5062 40.167 14.728 39.6243 15.017 39.1164C15.2692 38.6802 15.563 38.2689 15.8942 37.8881C16.1141 37.6342 16.3606 37.3637 16.6251 37.0891C16.8562 36.831 17.0985 36.5508 17.3491 36.2569C17.5164 36.0572 17.665 35.8429 17.7932 35.6165C17.9113 35.4004 18.0029 35.1711 18.0661 34.9334C18.1413 34.6357 18.1754 34.3293 18.1677 34.0226C18.1736 33.6618 18.1039 33.3037 17.9631 32.971C17.8297 32.645 17.6329 32.3481 17.3839 32.0974C17.1371 31.8508 16.8438 31.6548 16.5207 31.5205C16.2031 31.3845 15.86 31.3168 15.5141 31.3218C15.1574 31.3159 14.8035 31.3845 14.4754 31.5233C13.8069 31.7986 13.2761 32.3258 12.9996 32.9889C12.8599 33.3147 12.7906 33.6659 12.7964 34.0198V34.0585C12.8049 34.2502 12.7742 34.4417 12.706 34.6214C12.6379 34.801 12.5337 34.9651 12.3998 35.1038C12.266 35.2425 12.1051 35.3529 11.9271 35.4283C11.749 35.5037 11.5574 35.5425 11.3637 35.5425C11.1701 35.5425 10.9785 35.5037 10.8004 35.4283C10.6223 35.3529 10.4615 35.2425 10.3276 35.1038C10.1937 34.9651 10.0896 34.801 10.0214 34.6214C9.95329 34.4417 9.92255 34.2502 9.93108 34.0585V34.0198C9.92526 33.28 10.0741 32.5469 10.3683 31.8669C10.9336 30.5369 12 29.4779 13.3407 28.915C14.027 28.6226 14.7671 28.4751 15.5141 28.4817C16.2529 28.4755 16.9847 28.6231 17.6623 28.915C18.9943 29.4792 20.05 30.5385 20.6028 31.8656C20.8937 32.5478 21.0391 33.2819 21.033 34.0226ZM17.221 47.5609C17.3164 47.7867 17.3655 48.029 17.3655 48.2737C17.3655 48.5185 17.3164 48.7608 17.221 48.9865C17.0323 49.4279 16.6778 49.7793 16.2325 49.9664L16.2255 49.9705C16.0033 50.0647 15.7641 50.1131 15.5224 50.1126C15.1537 50.1159 14.7923 50.0107 14.484 49.8102C14.1757 49.6097 13.9343 49.3231 13.7904 48.9865C13.6459 48.652 13.6062 48.282 13.6768 47.9249C13.7473 47.5677 13.9247 47.2399 14.1859 46.9841C14.3609 46.8176 14.5659 46.6852 14.7901 46.5935C15.0219 46.497 15.271 46.4477 15.5224 46.4486C15.7641 46.4484 16.0033 46.4967 16.2255 46.5907L16.2325 46.5949C16.4519 46.6873 16.6525 46.8187 16.8242 46.9827C16.9939 47.1469 17.1288 47.343 17.221 47.5595V47.5609Z" fill="black"/>
</svg>
