<svg width="53" height="53" viewBox="0 0 53 53" fill="none" xmlns="http://www.w3.org/2000/svg">
<path d="M26.1005 41.3164C35.1219 41.3164 42.4353 34.003 42.4353 24.9816C42.4353 15.9601 35.1219 8.64673 26.1005 8.64673C17.079 8.64673 9.76562 15.9601 9.76562 24.9816C9.76562 34.003 17.079 41.3164 26.1005 41.3164Z" fill="#E6F3E3"/>
<path d="M27.4068 23.7517V19.0998C29.2638 19.4254 29.543 20.4548 29.5849 21.06C29.5957 21.2151 29.7236 21.3351 29.8792 21.3351H31.9074C32.0777 21.3351 32.2117 21.1909 32.203 21.0209C32.0715 18.4694 30.3225 16.8276 27.4069 16.4589V14.8943C27.4069 14.7312 27.2748 14.5991 27.1117 14.5991H25.0838C24.9206 14.5991 24.7885 14.7313 24.7885 14.8943V16.4589C21.7549 16.8425 19.9844 18.6041 19.9844 21.3351C19.9844 24.066 21.7549 25.8275 24.7885 26.2112V30.8634C22.9316 30.5377 22.6524 29.5083 22.6105 28.9031C22.5997 28.748 22.4717 28.628 22.3162 28.628H20.288C20.1177 28.628 19.9836 28.7722 19.9923 28.9422C20.1239 31.4938 21.8729 33.1355 24.7884 33.5042V35.0688C24.7884 35.2319 24.9206 35.364 25.0836 35.364H27.1116C27.2748 35.364 27.4068 35.2318 27.4068 35.0688V33.5041C30.4405 33.1205 32.211 31.3589 32.211 28.6279C32.211 25.897 30.4405 24.1354 27.4068 23.7517ZM24.7883 23.57C22.6032 23.1869 22.6028 21.8293 22.6028 21.3349C22.6028 20.8406 22.6033 19.4828 24.7883 19.0997V23.57ZM27.4068 30.863V26.3927C29.592 26.7758 29.5924 28.1336 29.5924 28.6279C29.5924 29.1222 29.5921 30.4798 27.4068 30.863Z" fill="#74B36D"/>
<path d="M51.8709 35.2184C51.87 34.8063 51.7054 34.4115 51.4135 34.1206C51.1213 33.83 50.7212 33.6707 50.3137 33.6681L44.2057 33.6814C43.3475 33.6833 42.6535 34.3805 42.6553 35.2385C42.6572 36.0956 43.3525 36.7891 44.2091 36.7891C44.2101 36.7891 44.2115 36.7891 44.2125 36.7891L46.8735 36.7832L37.1651 45.4703L34.3904 40.8332C35.9592 40.0138 37.4312 38.9463 38.7474 37.6302C45.722 30.6555 45.722 19.3071 38.7474 12.3325C31.7729 5.35796 20.4245 5.35796 13.4497 12.3325C12.843 12.9392 12.8428 13.9231 13.4497 14.53C14.0566 15.1366 15.0404 15.1367 15.647 14.53C21.4102 8.76682 30.7873 8.76713 36.5501 14.53C42.313 20.293 42.313 29.67 36.5501 35.4329C35.4182 36.5649 34.1456 37.4708 32.7897 38.1583L32.5797 37.8071C32.3337 37.3962 31.9123 37.1218 31.4371 37.0629C30.9617 37.0045 30.4862 37.1676 30.1476 37.5063L28.0273 39.6266C23.6286 40.2007 19.0192 38.8053 15.6471 35.4331C15.0404 34.8265 14.0565 34.8265 13.4498 35.4331C12.8431 36.0398 12.8431 37.0237 13.4498 37.6307C16.6167 40.7974 20.6852 42.5261 24.8368 42.8172L21.3029 46.3511C21.2288 46.321 21.1525 46.2946 21.0724 46.2757C11.1525 43.9431 4.22472 35.1869 4.22472 24.9812C4.22472 19.1383 6.50009 13.6455 10.6314 9.51421C14.7627 5.38291 20.2557 3.10753 26.0986 3.10753C38.1597 3.10753 47.9724 12.9201 47.9724 24.9812C47.9724 25.8392 48.668 26.5349 49.5262 26.5349C50.3843 26.5349 51.0799 25.8392 51.0799 24.9812C51.0799 11.2066 39.8734 0 26.0986 0C19.4258 0 13.1523 2.59855 8.43397 7.31688C3.71563 12.0352 1.11719 18.3086 1.11719 24.9812C1.11719 30.6451 3.06535 36.1927 6.60257 40.6022C9.74209 44.5158 14.0216 47.4108 18.7815 48.8718L17.3059 50.3474C16.6992 50.9541 16.6992 51.938 17.3059 52.5449C17.6093 52.8482 18.007 53 18.4046 53C18.8022 53 19.2 52.8482 19.5033 52.5449L29.5133 42.5349C30.1788 42.4064 30.8381 42.2391 31.488 42.0349L35.4652 48.6812C35.7032 49.0791 36.1065 49.3499 36.5651 49.4196C37.0233 49.4892 37.489 49.3507 37.8347 49.0413L48.7725 39.2542L48.777 41.3333C48.7789 42.1904 49.4742 42.8839 50.3308 42.8839C50.3318 42.8839 50.3332 42.8839 50.3342 42.8839C51.1924 42.882 51.8864 42.1848 51.8846 41.3268L51.8709 35.2184Z" fill="#1D1D1B"/>
</svg>
