<svg width="53" height="53" viewBox="0 0 53 53" fill="none" xmlns="http://www.w3.org/2000/svg">
<path d="M13.2529 5.91675H37.5527C37.646 5.91621 37.7389 5.93423 37.8252 5.96948C37.9112 6.00468 37.9896 6.05638 38.0557 6.12183L42.4678 10.5349C42.5314 10.6002 42.5827 10.6771 42.6172 10.7615C42.6523 10.8476 42.6695 10.9399 42.6689 11.033V44.1667C42.6689 44.9402 42.3623 45.6823 41.8154 46.2292C41.2685 46.7762 40.5264 47.0837 39.7529 47.0837H13.2529C12.4794 47.0837 11.7374 46.7761 11.1904 46.2292C10.6434 45.6823 10.3359 44.9403 10.3359 44.1667V8.83374C10.3359 8.06019 10.6434 7.31822 11.1904 6.77124C11.7374 6.22427 12.4794 5.91675 13.2529 5.91675Z" fill="#E1EAED" stroke="#1D1D1B" stroke-width="3"/>
<path d="M37.5388 4.41678C37.8295 4.4151 38.1176 4.47081 38.3866 4.58071C38.6557 4.6906 38.9004 4.85253 39.1068 5.0572L43.5234 9.47387C43.7281 9.68021 43.89 9.92493 43.9999 10.194C44.1098 10.463 44.1655 10.7512 44.1638 11.0418H39.7472C39.1615 11.0418 38.5998 10.8091 38.1856 10.395C37.7715 9.98084 37.5388 9.41914 37.5388 8.83345V4.41678ZM29.6109 26.5001L32.4818 23.6514C32.8976 23.2355 33.1312 22.6715 33.1312 22.0835C33.1312 21.4954 32.8976 20.9314 32.4818 20.5155C32.0659 20.0997 31.5019 19.8661 30.9138 19.8661C30.3258 19.8661 29.7618 20.0997 29.3459 20.5155L26.4972 23.3864L23.6484 20.5155C23.2326 20.0997 22.6686 19.8661 22.0805 19.8661C21.4924 19.8661 20.9284 20.0997 20.5126 20.5155C20.0968 20.9314 19.8631 21.4954 19.8631 22.0835C19.8631 22.6715 20.0968 23.2355 20.5126 23.6514L23.3834 26.5001L20.5126 29.3489C20.3056 29.5542 20.1413 29.7984 20.0292 30.0675C19.9171 30.3366 19.8594 30.6253 19.8594 30.9168C19.8594 31.2083 19.9171 31.497 20.0292 31.7661C20.1413 32.0352 20.3056 32.2794 20.5126 32.4847C20.7179 32.6917 20.9621 32.856 21.2312 32.9681C21.5003 33.0802 21.789 33.1379 22.0805 33.1379C22.372 33.1379 22.6607 33.0802 22.9298 32.9681C23.1989 32.856 23.4431 32.6917 23.6484 32.4847L26.4972 29.6139L29.3459 32.4847C29.5512 32.6917 29.7955 32.856 30.0646 32.9681C30.3337 33.0802 30.6223 33.1379 30.9138 33.1379C31.2054 33.1379 31.494 33.0802 31.7631 32.9681C32.0322 32.856 32.2765 32.6917 32.4818 32.4847C32.6887 32.2794 32.853 32.0352 32.9651 31.7661C33.0773 31.497 33.135 31.2083 33.135 30.9168C33.135 30.6253 33.0773 30.3366 32.9651 30.0675C32.853 29.7984 32.6887 29.5542 32.4818 29.3489L29.6109 26.5001Z" fill="#5798B1"/>
</svg>
