<svg width="53" height="53" viewBox="0 0 53 53" fill="none" xmlns="http://www.w3.org/2000/svg">
<path d="M37.5443 46.375V41.9583C37.5443 39.6156 36.6136 37.3688 34.9571 35.7122C33.3005 34.0557 31.0537 33.125 28.7109 33.125H11.0443C8.70153 33.125 6.45473 34.0557 4.79816 35.7122C3.14159 37.3688 2.21094 39.6156 2.21094 41.9583V46.375" stroke="black" stroke-width="3" stroke-linecap="round" stroke-linejoin="round"/>
<path d="M19.8802 24.2917C24.7587 24.2917 28.7135 20.3369 28.7135 15.4583C28.7135 10.5798 24.7587 6.625 19.8802 6.625C15.0017 6.625 11.0469 10.5798 11.0469 15.4583C11.0469 20.3369 15.0017 24.2917 19.8802 24.2917Z" stroke="black" stroke-width="3" stroke-linecap="round" stroke-linejoin="round"/>
<path d="M37.5469 24.2917H50.7969" stroke="#2CA9BC" stroke-width="3" stroke-linecap="round" stroke-linejoin="round"/>
<path d="M44.1719 17.6667V30.9167" stroke="#2CA9BC" stroke-width="3" stroke-linecap="round" stroke-linejoin="round"/>
</svg>
