<svg width="69" height="69" viewBox="0 0 69 69" fill="none" xmlns="http://www.w3.org/2000/svg">
<rect x="0.602539" width="68.2564" height="68.2564" rx="20" fill="#FCE7D2"/>
<path d="M31.2151 34.2219L33.5588 36.4719L38.2463 31.7844" stroke="#313131" stroke-width="1.875" stroke-linecap="round" stroke-linejoin="round"/>
<path d="M40.5901 23.9772C38.8664 22.9801 36.8652 22.4094 34.7307 22.4094C28.2586 22.4094 23.012 27.6561 23.012 34.1282C23.012 36.0028 23.4521 37.7746 24.2348 39.3459C24.4428 39.7635 24.512 40.2408 24.3914 40.6914L23.6934 43.3001C23.3904 44.4325 24.4264 45.4684 25.5589 45.1655L28.1675 44.4675C28.6181 44.3469 29.0954 44.4162 29.513 44.6241C31.0843 45.4068 32.8561 45.8469 34.7307 45.8469C41.2027 45.8469 46.4495 40.6002 46.4495 34.1282C46.4495 31.9937 45.8788 29.9925 44.8817 28.2688" stroke="#313131" stroke-width="1.875" stroke-linecap="round"/>
</svg>
