<svg width="69" height="69" viewBox="0 0 69 69" fill="none" xmlns="http://www.w3.org/2000/svg">
<rect x="0.61792" width="68.2564" height="68.2564" rx="20" fill="#FCE7D2"/>
<path d="M45.2923 32.6401C45.293 32.6886 45.293 32.7431 45.293 32.8521V39.2551C45.293 41.7371 43.5691 43.8861 41.1463 44.4244C36.9309 45.3612 32.5613 45.3612 28.3459 44.4244C25.9231 43.8861 24.1992 41.7371 24.1992 39.2551V32.8521C24.1992 32.7431 24.1992 32.6886 24.1999 32.6401C24.2443 29.4173 26.4743 26.6374 29.6107 25.8949C29.6578 25.8837 29.7111 25.8719 29.8175 25.8482C29.9155 25.8265 29.9645 25.8156 30.013 25.805C33.132 25.1265 36.3602 25.1265 39.4792 25.805C39.5277 25.8156 39.5767 25.8265 39.6746 25.8482C39.7812 25.8719 39.8344 25.8837 39.8815 25.8949C41.4195 26.259 42.7395 27.1129 43.6907 28.2687" stroke="#313131" stroke-width="1.875" stroke-linecap="round"/>
<path d="M41.1914 38.2297V39.9875" stroke="#313131" stroke-width="1.875" stroke-linecap="round"/>
<path d="M39.3849 25.3391C39.106 23.6764 37.6599 22.4094 35.9179 22.4094H33.5742C31.8322 22.4094 30.3861 23.6764 30.1072 25.3391" stroke="#313131" stroke-width="1.875" stroke-linecap="round"/>
<path d="M24.1992 36.4719C26.0911 37.3127 28.0584 37.9167 30.0586 38.2836M45.293 36.4719C41.9357 37.9641 38.3409 38.7101 34.7461 38.7101" stroke="#313131" stroke-width="1.875" stroke-linecap="round"/>
<path d="M32.4023 35.3H37.0898" stroke="#313131" stroke-width="1.875" stroke-linecap="round"/>
</svg>
