<svg width="20" height="20" viewBox="0 0 20 20" fill="none" xmlns="http://www.w3.org/2000/svg">
<path d="M6.09375 7.65625C6.09375 7.65625 6.48438 8.35938 6.48438 10C6.48438 11.6406 6.09375 12.3438 6.09375 12.3438" stroke="#313131" stroke-width="1.25" stroke-linecap="round"/>
<path d="M17.8125 11.5625V8.4375" stroke="#313131" stroke-width="1.25" stroke-linecap="round"/>
<path d="M2.1875 10C2.1875 7.05372 2.1875 5.58059 3.10279 4.66529C4.01809 3.75 5.49122 3.75 8.4375 3.75H9.60938C12.5556 3.75 14.0288 3.75 14.9441 4.66529C15.8594 5.58059 15.8594 7.05372 15.8594 10C15.8594 12.9463 15.8594 14.4195 14.9441 15.3347C14.0288 16.25 12.5556 16.25 9.60938 16.25H8.4375C5.49122 16.25 4.01809 16.25 3.10279 15.3347C2.59249 14.8244 2.3667 14.1407 2.26679 13.125" stroke="#313131" stroke-width="1.25" stroke-linecap="round"/>
</svg>
