<svg width="69" height="69" viewBox="0 0 69 69" fill="none" xmlns="http://www.w3.org/2000/svg">
<rect x="0.110107" width="68.2564" height="68.2564" rx="12.4103" fill="#F4D0D2"/>
<path d="M27.207 25.5858C28.1214 26.4185 30.0049 28.6944 30.2244 31.1368C30.3712 32.7713 31.1852 34.1863 32.4805 34.8676C32.9945 35.1381 33.5843 35.2929 34.2383 35.3C35.1229 35.3097 36.0175 34.6706 36.0153 33.786C36.0146 33.5124 35.9695 33.2326 35.8988 32.9754C35.8005 32.6174 35.7918 32.2057 35.9961 31.7844C36.7108 30.3108 38.1165 29.915 39.2304 29.1147C39.7243 28.7598 40.1749 28.3854 40.3736 28.0838C40.9223 27.2511 41.4709 25.5858 41.1965 24.7532" stroke="#313131" stroke-width="1.875"/>
<path d="M45.957 35.3C45.571 36.3911 45.2978 39.2551 40.9393 39.3006C40.9393 39.3006 40.0095 39.3006 38.9258 39.5585M35.9217 41.4827C34.9953 43.2284 35.5356 45.1195 35.9217 45.8469" stroke="#313131" stroke-width="1.875" stroke-linecap="round"/>
<path d="M28.3789 44.2792C30.1026 45.2762 32.1038 45.8469 34.2383 45.8469C40.7103 45.8469 45.957 40.6002 45.957 34.1282C45.957 27.6561 40.7103 22.4094 34.2383 22.4094C27.7662 22.4094 22.5195 27.6561 22.5195 34.1282C22.5195 36.2626 23.0902 38.2638 24.0873 39.9875" stroke="#313131" stroke-width="1.875" stroke-linecap="round"/>
</svg>
