<svg width="25" height="25" viewBox="0 0 25 25" fill="none" xmlns="http://www.w3.org/2000/svg">
<path d="M12.8976 6.47454L12.3897 6.96336C12.3929 6.96663 12.3961 6.96986 12.3993 6.97306L12.8976 6.47454ZM8.19879 16.7382C7.89819 16.4908 7.45396 16.5339 7.20657 16.8345C6.95918 17.1352 7.00231 17.5794 7.30291 17.8267L8.19879 16.7382ZM3.82028 13.9097C4.00708 14.2513 4.43541 14.3767 4.77697 14.1899C5.11854 14.0031 5.24398 13.5748 5.05717 13.2332L3.82028 13.9097ZM14.279 8.85214C14.5543 9.12737 15.0007 9.12728 15.2758 8.85196C15.5511 8.57662 15.551 8.1303 15.2757 7.85507L14.279 8.85214ZM4.20376 9.89235C4.20376 7.8708 5.34605 6.17555 6.90529 5.46282C8.4201 4.77039 10.4555 4.95376 12.3897 6.96336L13.4055 5.98571C11.1104 3.60124 8.44643 3.20824 6.31919 4.1806C4.23638 5.13267 2.79395 7.34335 2.79395 9.89235H4.20376ZM9.60561 19.632C10.087 20.0116 10.6039 20.4163 11.1276 20.7224C11.6512 21.0283 12.2487 21.2769 12.8976 21.2769V19.8671C12.6066 19.8671 12.2642 19.7537 11.8389 19.5052C11.4138 19.2567 10.9728 18.9146 10.4784 18.5249L9.60561 19.632ZM16.1896 19.632C17.5304 18.5751 19.2444 17.3638 20.5889 15.8499C21.9575 14.3088 23.0012 12.3976 23.0012 9.89235H21.5914C21.5914 11.9576 20.7463 13.5495 19.5347 14.9138C18.299 16.3053 16.7413 17.4019 15.3168 18.5249L16.1896 19.632ZM23.0012 9.89235C23.0012 7.34335 21.5588 5.13267 19.476 4.1806C17.3487 3.20824 14.6848 3.60124 12.3897 5.98571L13.4055 6.96336C15.3397 4.95376 17.3751 4.77039 18.8899 5.46282C20.4491 6.17555 21.5914 7.8708 21.5914 9.89235H23.0012ZM15.3168 18.5249C14.8224 18.9146 14.3814 19.2567 13.9563 19.5052C13.531 19.7537 13.1886 19.8671 12.8976 19.8671V21.2769C13.5465 21.2769 14.144 21.0283 14.6676 20.7224C15.1914 20.4163 15.7081 20.0116 16.1896 19.632L15.3168 18.5249ZM10.4784 18.5249C9.73035 17.9352 8.97013 17.3731 8.19879 16.7382L7.30291 17.8267C8.08326 18.469 8.90756 19.0817 9.60561 19.632L10.4784 18.5249ZM5.05717 13.2332C4.5297 12.2688 4.20376 11.1764 4.20376 9.89235H2.79395C2.79395 11.4315 3.18865 12.7549 3.82028 13.9097L5.05717 13.2332ZM12.3993 6.97306L14.279 8.85214L15.2757 7.85507L13.3959 5.976L12.3993 6.97306Z" fill="#9D9D9D"/>
</svg>
