<svg width="69" height="69" viewBox="0 0 69 69" fill="none" xmlns="http://www.w3.org/2000/svg">
<rect x="0.371826" width="68.2564" height="68.2564" rx="12.4103" fill="#F4D0D2"/>
<path d="M24.5391 32.9563V36.4719C24.5391 40.8913 24.5391 43.1011 25.912 44.474C27.2849 45.8469 29.4946 45.8469 33.9141 45.8469H35.0859C39.5053 45.8469 41.7151 45.8469 43.088 44.474M44.4609 32.9563V36.4719C44.4609 37.8428 44.4609 39.0009 44.4199 39.9875" stroke="#313131" stroke-width="1.875" stroke-linecap="round"/>
<path d="M31.5707 22.4094H37.43M31.5707 22.4094L30.8069 30.047C30.5884 32.2321 32.3044 34.1282 34.5003 34.1282C36.6964 34.1282 38.4123 32.2321 38.1938 30.047L37.43 22.4094M31.5707 22.4094H29.1305C28.0664 22.4094 27.5343 22.4094 27.078 22.5345C26.1165 22.7981 25.3121 23.4575 24.8651 24.3487M31.5707 22.4094L30.7216 30.9C30.5383 32.7326 28.9962 34.1282 27.1545 34.1282C24.8922 34.1282 23.1955 32.0585 23.6392 29.8402L23.7191 29.4407M37.43 22.4094H39.8702C40.9344 22.4094 41.4664 22.4094 41.9228 22.5345C42.8842 22.7981 43.6886 23.4575 44.1356 24.3487C44.3478 24.7716 44.4521 25.2933 44.6608 26.3368L45.3615 29.8402C45.8052 32.0585 44.1084 34.1282 41.8462 34.1282C40.0045 34.1282 38.4623 32.7326 38.279 30.9L37.43 22.4094Z" stroke="#313131" stroke-width="1.875" stroke-linecap="round"/>
<path d="M31.5703 45.261V41.7454C31.5703 40.6501 31.5703 40.1025 31.8058 39.6946C31.9601 39.4274 32.182 39.2054 32.4492 39.0512C32.8571 38.8157 33.4048 38.8157 34.5 38.8157C35.5952 38.8157 36.1429 38.8157 36.5508 39.0512C36.818 39.2054 37.0399 39.4274 37.1941 39.6946C37.4297 40.1025 37.4297 40.6501 37.4297 41.7454V45.261" stroke="#313131" stroke-width="1.875" stroke-linecap="round"/>
</svg>
