<svg width="20" height="20" viewBox="0 0 20 20" fill="none" xmlns="http://www.w3.org/2000/svg">
<path d="M10.3906 6.12616C10.2636 6.10484 10.1331 6.09375 10 6.09375C8.70555 6.09375 7.65625 7.14309 7.65625 8.4375C7.65625 9.73195 8.70555 10.7813 10 10.7813C11.2945 10.7813 12.3438 9.73195 12.3438 8.4375C12.3438 8.30441 12.3327 8.17391 12.3113 8.04688" stroke="white" stroke-width="1.25" stroke-linecap="round"/>
<path d="M4.53125 12.5126C4.02542 11.2205 3.75 9.84477 3.75 8.54945C3.75 5.03584 6.54822 2.1875 10 2.1875C13.4518 2.1875 16.25 5.03584 16.25 8.54945C16.25 12.0355 14.2552 16.1034 11.1429 17.5581C10.4174 17.8973 9.58258 17.8973 8.85711 17.5581C7.86308 17.0935 6.98305 16.3624 6.24561 15.4688" stroke="white" stroke-width="1.25" stroke-linecap="round"/>
</svg>
