<svg width="69" height="69" viewBox="0 0 69 69" fill="none" xmlns="http://www.w3.org/2000/svg">
<rect x="0.0949707" width="68.2564" height="68.2564" rx="12.4103" fill="#F4D0D2"/>
<path d="M36.5669 29.4407C36.5669 30.7351 35.5176 31.7844 34.2231 31.7844C32.9287 31.7844 31.8794 30.7351 31.8794 29.4407C31.8794 28.1463 32.9287 27.0969 34.2231 27.0969C35.5176 27.0969 36.5669 28.1463 36.5669 29.4407Z" stroke="#313131" stroke-width="1.875"/>
<path d="M34.2231 44.3089L34.8019 44.9703C34.9926 44.8034 35.1021 44.5623 35.1021 44.3089C35.1021 44.0554 34.9926 43.8143 34.8019 43.6475L34.2231 44.3089ZM45.2696 36.955C44.8891 36.6535 44.3363 36.7176 44.0349 37.098C43.7335 37.4785 43.7975 38.0312 44.178 38.3327L45.2696 36.955ZM24.2683 38.3327C24.6488 38.0312 24.7129 37.4785 24.4114 37.098C24.11 36.7176 23.5572 36.6535 23.1767 36.955L24.2683 38.3327ZM32.4653 42.7708L33.0441 42.1094C32.7846 41.8823 32.4162 41.8279 32.1022 41.9704C31.7881 42.1129 31.5864 42.4259 31.5864 42.7708H32.4653ZM32.4653 45.847H31.5864C31.5864 46.1918 31.7881 46.5048 32.1022 46.6473C32.4162 46.7898 32.7846 46.7355 33.0441 46.5084L32.4653 45.847ZM37.0642 43.2891C36.5813 43.338 36.2295 43.7692 36.2784 44.2521C36.3274 44.7351 36.7585 45.0869 37.2414 45.0379L37.0642 43.2891ZM32.5172 43.3799C29.7718 43.2173 27.3941 42.6708 25.7336 41.9178C24.9018 41.5405 24.2908 41.1298 23.8997 40.7254C23.5125 40.3251 23.3833 39.9794 23.3833 39.6946H21.6255C21.6255 40.5665 22.0366 41.3275 22.6362 41.9474C23.2318 42.5632 24.0538 43.086 25.0075 43.5186C26.9179 44.385 29.5207 44.9634 32.4134 45.1347L32.5172 43.3799ZM44.178 38.3327C44.8502 38.8654 45.063 39.3348 45.063 39.6946H46.8208C46.8208 38.5811 46.1567 37.6579 45.2696 36.955L44.178 38.3327ZM23.3833 39.6946C23.3833 39.3348 23.5961 38.8654 24.2683 38.3327L23.1767 36.955C22.2896 37.6579 21.6255 38.5811 21.6255 39.6946H23.3833ZM34.8019 43.6475L33.0441 42.1094L31.8865 43.4322L33.6444 44.9703L34.8019 43.6475ZM31.5864 42.7708V44.2573H33.3442V42.7708H31.5864ZM31.5864 44.2573V45.847H33.3442V44.2573H31.5864ZM33.0441 46.5084L34.8019 44.9703L33.6444 43.6475L31.8865 45.1855L33.0441 46.5084ZM45.063 39.6946C45.063 40.2297 44.5645 40.9981 43.049 41.7575C41.6076 42.4797 39.5224 43.04 37.0642 43.2891L37.2414 45.0379C39.8376 44.7748 42.147 44.1756 43.8365 43.3291C45.4519 42.5195 46.8208 41.3096 46.8208 39.6946H45.063Z" fill="#313131"/>
<path d="M28.0708 34.0252C27.5017 32.5716 27.1919 31.0239 27.1919 29.5666C27.1919 25.6138 30.3399 22.4094 34.2231 22.4094C38.1064 22.4094 41.2544 25.6138 41.2544 29.5666C41.2544 33.4884 39.0103 38.0649 35.5089 39.7014C34.6927 40.0829 33.7536 40.0829 32.9374 39.7014C31.8191 39.1787 30.8291 38.3562 29.9994 37.3508" stroke="#313131" stroke-width="1.875" stroke-linecap="round"/>
</svg>
