<svg width="69" height="69" viewBox="0 0 69 69" fill="none" xmlns="http://www.w3.org/2000/svg">
<rect x="0.587158" width="68.2564" height="68.2564" rx="20" fill="#FCE7D2"/>
<path d="M39.4028 45.8469V35.3C39.4028 33.6428 39.4028 32.8142 38.888 32.2992C38.3731 31.7844 37.5445 31.7844 35.8872 31.7844H33.5435C31.8862 31.7844 31.0575 31.7844 30.5427 32.2992C30.0278 32.8142 30.0278 33.6428 30.0278 35.3M30.0278 45.8469V39.9875" stroke="#313131" stroke-width="1.875" stroke-linecap="round"/>
<path d="M30.0278 45.8469C30.0278 44.1897 30.0278 43.361 29.513 42.8461C28.9981 42.3313 28.1695 42.3313 26.5122 42.3313C24.8549 42.3313 24.0263 42.3313 23.5114 42.8461C22.9966 43.361 22.9966 44.1897 22.9966 45.8469" stroke="#313131" stroke-width="1.875" stroke-linecap="round"/>
<path d="M46.4341 45.8469V42.3313C46.4341 40.674 46.4341 39.8454 45.9193 39.3305C45.4044 38.8157 44.5757 38.8157 42.9185 38.8157C41.2612 38.8157 40.4326 38.8157 39.9176 39.3305C39.4028 39.8454 39.4028 40.674 39.4028 42.3313V45.8469" stroke="#313131" stroke-width="1.875" stroke-linecap="round"/>
<path d="M33.7144 23.6077C34.1597 22.8088 34.3824 22.4094 34.7153 22.4094C35.0483 22.4094 35.2709 22.8088 35.7162 23.6077L35.8314 23.8143C35.9579 24.0414 36.0211 24.1549 36.1198 24.2297C36.2185 24.3046 36.3413 24.3324 36.587 24.388L36.8108 24.4387C37.6755 24.6343 38.1079 24.7321 38.2108 25.0629C38.3137 25.3937 38.0188 25.7384 37.4294 26.4278L37.2768 26.6061C37.1094 26.802 37.0256 26.8999 36.9878 27.0211C36.9502 27.1423 36.9629 27.273 36.9882 27.5343L37.0113 27.7723C37.1003 28.6921 37.145 29.1519 36.8757 29.3564C36.6063 29.5608 36.2015 29.3744 35.3919 29.0016L35.1824 28.9052C34.9523 28.7992 34.8373 28.7463 34.7153 28.7463C34.5933 28.7463 34.4784 28.7992 34.2482 28.9052L34.0388 29.0016C33.2292 29.3744 32.8244 29.5608 32.555 29.3564C32.2857 29.1519 32.3303 28.6921 32.4194 27.7723L32.4425 27.5343C32.4678 27.273 32.4804 27.1423 32.4428 27.0211C32.4051 26.8999 32.3213 26.802 32.1538 26.6061L32.0013 26.4278C31.4118 25.7384 31.117 25.3937 31.2199 25.0629C31.3228 24.7321 31.7551 24.6343 32.6199 24.4387L32.8436 24.388C33.0894 24.3324 33.2122 24.3046 33.3108 24.2297C33.4095 24.1549 33.4728 24.0414 33.5992 23.8143L33.7144 23.6077Z" stroke="#313131" stroke-width="1.875"/>
</svg>
