<svg width="70" height="69" viewBox="0 0 70 69" fill="none" xmlns="http://www.w3.org/2000/svg">
<rect x="0.833252" width="68.2564" height="68.2564" rx="12.4103" fill="#F4D0D2"/>
<path d="M39.6489 45.8469V35.3C39.6489 33.6428 39.6489 32.8142 39.1341 32.2992C38.6192 31.7844 37.7906 31.7844 36.1333 31.7844H33.7896C32.1323 31.7844 31.3036 31.7844 30.7888 32.2992C30.2739 32.8142 30.2739 33.6428 30.2739 35.3M30.2739 45.8469V39.9875" stroke="#313131" stroke-width="1.875" stroke-linecap="round"/>
<path d="M30.2739 45.8469C30.2739 44.1897 30.2739 43.361 29.7591 42.8461C29.2442 42.3313 28.4156 42.3313 26.7583 42.3313C25.101 42.3313 24.2724 42.3313 23.7575 42.8461C23.2427 43.361 23.2427 44.1897 23.2427 45.8469" stroke="#313131" stroke-width="1.875" stroke-linecap="round"/>
<path d="M46.6802 45.8469V42.3313C46.6802 40.674 46.6802 39.8454 46.1654 39.3305C45.6505 38.8157 44.8218 38.8157 43.1646 38.8157C41.5073 38.8157 40.6787 38.8157 40.1637 39.3305C39.6489 39.8454 39.6489 40.674 39.6489 42.3313V45.8469" stroke="#313131" stroke-width="1.875" stroke-linecap="round"/>
<path d="M33.9605 23.6077C34.4058 22.8088 34.6285 22.4094 34.9614 22.4094C35.2944 22.4094 35.517 22.8088 35.9623 23.6077L36.0775 23.8143C36.204 24.0414 36.2672 24.1549 36.3659 24.2297C36.4646 24.3046 36.5874 24.3324 36.8331 24.388L37.0569 24.4387C37.9216 24.6343 38.354 24.7321 38.4569 25.0629C38.5598 25.3937 38.2649 25.7384 37.6755 26.4278L37.5229 26.6061C37.3554 26.802 37.2717 26.8999 37.2339 27.0211C37.1963 27.1423 37.209 27.273 37.2343 27.5343L37.2574 27.7723C37.3464 28.6921 37.3911 29.1519 37.1218 29.3564C36.8524 29.5608 36.4476 29.3744 35.6379 29.0016L35.4285 28.9052C35.1984 28.7992 35.0834 28.7463 34.9614 28.7463C34.8394 28.7463 34.7245 28.7992 34.4943 28.9052L34.2849 29.0016C33.4753 29.3744 33.0705 29.5608 32.8011 29.3564C32.5318 29.1519 32.5764 28.6921 32.6655 27.7723L32.6886 27.5343C32.7139 27.273 32.7265 27.1423 32.6889 27.0211C32.6512 26.8999 32.5674 26.802 32.3999 26.6061L32.2474 26.4278C31.6579 25.7384 31.3631 25.3937 31.466 25.0629C31.5689 24.7321 32.0012 24.6343 32.866 24.4387L33.0897 24.388C33.3354 24.3324 33.4583 24.3046 33.5569 24.2297C33.6556 24.1549 33.7189 24.0414 33.8453 23.8143L33.9605 23.6077Z" stroke="#313131" stroke-width="1.875"/>
</svg>
