<svg width="69" height="69" viewBox="0 0 69 69" fill="none" xmlns="http://www.w3.org/2000/svg">
<rect x="0.333252" width="68.2564" height="68.2564" rx="12.4103" fill="#F4D0D2"/>
<path d="M46.1802 32.3704V34.1282C46.1802 39.6524 46.1802 42.4146 44.464 44.1307C42.7479 45.8469 39.9856 45.8469 34.4614 45.8469C28.9371 45.8469 26.175 45.8469 24.4589 44.1307C22.7427 42.4146 22.7427 39.6524 22.7427 34.1282C22.7427 32.8059 22.7427 31.6419 22.7662 30.6125M36.2192 22.4094H34.4614C28.9371 22.4094 26.175 22.4094 24.4589 24.1256C23.9421 24.6423 23.581 25.2538 23.3286 26.007" stroke="#313131" stroke-width="1.875" stroke-linecap="round"/>
<path d="M28.6021 36.4719L30.7078 33.945C31.5422 32.9438 31.9594 32.443 32.5083 32.443C33.0572 32.443 33.4744 32.9438 34.3088 33.945L34.614 34.3113C35.4485 35.3126 35.8657 35.8133 36.4146 35.8133C36.9634 35.8133 37.3807 35.3126 38.2151 34.3113L40.3208 31.7844" stroke="#313131" stroke-width="1.875" stroke-linecap="round"/>
<path d="M39.1489 25.925C39.1489 26.8575 39.5193 27.7517 40.1786 28.411C40.8379 29.0703 41.7321 29.4407 42.6646 29.4407C43.597 29.4407 44.4912 29.0703 45.1505 28.411C45.8098 27.7517 46.1802 26.8575 46.1802 25.925C46.1802 24.9926 45.8098 24.0984 45.1505 23.4391C44.4912 22.7798 43.597 22.4094 42.6646 22.4094C41.7321 22.4094 40.8379 22.7798 40.1786 23.4391C39.5193 24.0984 39.1489 24.9926 39.1489 25.925Z" stroke="#313131" stroke-width="1.875"/>
</svg>
