<svg width="25" height="25" viewBox="0 0 25 25" fill="none" xmlns="http://www.w3.org/2000/svg">
<path d="M8.82404 10.8253C10.3404 9.74057 12.0709 9.35902 13.5233 9.35902V7.1554C13.5233 6.25501 13.5233 5.80481 13.8008 5.68023C14.0781 5.55565 14.4147 5.85474 15.0876 6.45293L18.8211 9.77156C20.2954 11.082 21.0325 11.7373 21.0325 12.5814C21.0325 13.4256 20.2954 14.0808 18.8211 15.3914L15.0876 18.71C14.4147 19.3081 14.0781 19.6073 13.8008 19.4826C13.5233 19.3581 13.5233 18.9079 13.5233 18.0075V15.8039C10.1398 15.8039 6.47426 17.4151 5.06445 20.1004C5.06445 17.8149 5.41903 15.9854 6.00442 14.5309" stroke="black" stroke-width="1.5038" stroke-linecap="round" stroke-linejoin="round"/>
</svg>
