<svg width="40" height="233" viewBox="0 0 40 233" fill="none" xmlns="http://www.w3.org/2000/svg">
<line opacity="0.5" x1="19.2383" y1="25.7617" x2="19.2383" y2="229.762" stroke="#F4D0D2" stroke-width="2" stroke-linecap="round" stroke-dasharray="14 14"/>
<rect width="40" height="40" rx="20" fill="#F4D0D2"/>
<path d="M17.0332 23.1777C17.7799 23.7312 18.688 24.0558 19.6673 24.0558C20.6467 24.0558 21.5547 23.7312 22.3014 23.1777" stroke="#313131" stroke-width="1.40486" stroke-linecap="round"/>
<path d="M28.1278 20.5081L27.8831 22.2092C27.455 25.1835 27.2411 26.6706 26.2094 27.559C25.1776 28.4474 23.6645 28.4474 20.6383 28.4474H18.6959C15.6697 28.4474 14.1566 28.4474 13.1249 27.559C12.0931 26.6706 11.8791 25.1835 11.4512 22.2092L11.2064 20.5081C10.8732 18.1928 10.7066 17.035 11.1812 16.0451C11.6557 15.0553 12.6658 14.4536 14.6859 13.2502L15.9019 12.5259C17.7363 11.4331 18.6536 10.8867 19.6671 10.8867C20.6806 10.8867 21.5979 11.4331 23.4323 12.5259L24.6483 13.2502C26.6684 14.4536 27.6785 15.0553 28.153 16.0451" stroke="#313131" stroke-width="1.40486" stroke-linecap="round"/>
<rect y="193" width="40" height="40" rx="20" fill="#F4D0D2"/>
<path d="M26.6912 221.447V216.179C26.6912 213.72 26.6912 212.49 26.2127 211.551C25.7918 210.725 25.1202 210.054 24.2941 209.633C23.355 209.154 22.1257 209.154 19.6669 209.154C17.2081 209.154 15.9788 209.154 15.0397 209.633C14.2136 210.054 13.542 210.725 13.1211 211.551C12.9559 211.876 12.8477 212.234 12.7769 212.666M12.6426 221.447V216.179" stroke="#313131" stroke-width="1.40486" stroke-linecap="round"/>
<path d="M22.3008 211.625C23.3808 211.625 24.2588 212.464 24.2194 213.544" stroke="#313131" stroke-width="1.40486" stroke-linecap="round"/>
<path d="M10.8867 221.447H21.4232M28.4475 221.447H24.9353" stroke="#313131" stroke-width="1.40486" stroke-linecap="round"/>
<path d="M19.666 203.887V206.521" stroke="#313131" stroke-width="1.40486" stroke-linecap="round"/>
<path d="M27.569 206.521L26.252 207.839" stroke="#313131" stroke-width="1.40486" stroke-linecap="round"/>
<path d="M11.7637 206.521L13.0807 207.839" stroke="#313131" stroke-width="1.40486" stroke-linecap="round"/>
<path d="M20.9837 217.495C20.9837 218.222 20.394 218.812 19.6667 218.812C18.9393 218.812 18.3496 218.222 18.3496 217.495C18.3496 216.767 18.9393 216.178 19.6667 216.178C20.394 216.178 20.9837 216.767 20.9837 217.495Z" stroke="#313131" stroke-width="1.40486"/>
<path d="M19.666 218.812V221.447" stroke="#313131" stroke-width="1.40486" stroke-linecap="round"/>
</svg>
