<svg width="16" height="28" viewBox="0 0 16 28" fill="none" xmlns="http://www.w3.org/2000/svg">
<path d="M12.8084 9.90468H3.2378C2.37947 9.90594 1.55664 10.2475 0.949709 10.8544C0.342775 11.4613 0.00125948 12.2842 0 13.1425V20.5704H2.66641C2.74036 20.5759 2.80989 20.6078 2.86232 20.6602C2.91475 20.7126 2.94659 20.7821 2.95209 20.8561V27.7126H7.71357V21.4751C7.71357 21.3993 7.74369 21.3266 7.79726 21.2731C7.85084 21.2195 7.9235 21.1894 7.99927 21.1894C8.07504 21.1894 8.1477 21.2195 8.20128 21.2731C8.25486 21.3266 8.28495 21.3993 8.28495 21.4751V27.7126H13.0464V20.9037C13.0519 20.8297 13.0838 20.7602 13.1362 20.7078C13.1887 20.6554 13.2582 20.6235 13.3321 20.618H15.9985V13.1425C16.0115 12.7178 15.9382 12.2949 15.783 11.8994C15.6279 11.5039 15.3942 11.1439 15.096 10.8413C14.7978 10.5386 14.4413 10.2996 14.0481 10.1386C13.6549 9.97762 13.2332 9.89805 12.8084 9.90468Z" fill="black"/>
<path d="M8.04724 8.09641C8.81004 8.09641 9.55572 7.87021 10.19 7.44642C10.8242 7.02263 11.3186 6.42028 11.6105 5.71554C11.9024 5.0108 11.9788 4.23533 11.8299 3.48719C11.6811 2.73904 11.3138 2.05183 10.7744 1.51244C10.235 0.973061 9.54782 0.605737 8.79968 0.456921C8.05153 0.308106 7.27605 0.384484 6.57131 0.676396C5.86657 0.968307 5.26424 1.46264 4.84045 2.09689C4.41666 2.73114 4.19046 3.47681 4.19046 4.23961C4.18857 4.74662 4.28702 5.24899 4.48017 5.71777C4.67333 6.18655 4.95736 6.61247 5.31587 6.97099C5.67439 7.3295 6.10029 7.61352 6.56907 7.80667C7.03785 7.99983 7.54023 8.0983 8.04724 8.09641Z" fill="black"/>
</svg>
