<svg width="43" height="43" viewBox="0 0 43 43" fill="none" xmlns="http://www.w3.org/2000/svg">
<path d="M40.2174 42V37.2458C40.2164 33.9648 37.5569 31.3053 34.276 31.3044L31.3043 31.3043V23.2826C31.3043 21.8058 30.1072 20.6087 28.6304 20.6087C27.1537 20.6087 25.9565 21.8058 25.9565 23.2826V35.7609L23.6587 33.8357C22.8711 32.8895 21.4657 32.761 20.5196 33.5487C19.5735 34.3363 19.445 35.7417 20.2326 36.6878L24.6517 42M17.0435 42H4.56522C2.5962 42 1 40.4038 1 38.4348V4.56522C1 2.5962 2.5962 1 4.56522 1H38.4348C40.4038 1 42 2.5962 42 4.56522V27.7391M1 9.91126H42M7.23913 33.0852H14.3696M7.23913 36.6504H14.3696M17.9348 5.00909C18.1807 5.00909 18.3801 5.20825 18.3804 5.45415C18.3808 5.70004 18.1819 5.89973 17.936 5.90039C17.6901 5.90105 17.4901 5.70241 17.4891 5.45652C17.4891 5.2104 17.6887 5.01087 17.9348 5.01087M25.0652 15.2591H36.6522M7.23913 15.2591H17.9348C17.9348 15.2591 18.8261 15.2591 18.8261 16.1504V28.6287C18.8261 28.6287 18.8261 29.52 17.9348 29.52H7.23913C7.23913 29.52 6.34783 29.52 6.34783 28.6287V16.1504C6.34783 16.1504 6.34783 15.2591 7.23913 15.2591ZM9.91304 21.4982C9.91304 22.975 11.1102 24.1721 12.587 24.1721C14.0637 24.1721 15.2609 22.975 15.2609 21.4982C15.2609 20.0215 14.0637 18.8243 12.587 18.8243C11.1102 18.8243 9.91304 20.0215 9.91304 21.4982ZM17.0435 29.5217H8.13043C7.90701 26.8215 9.89066 24.4411 12.587 24.1739C15.2833 24.4411 17.2669 26.8215 17.0435 29.5217ZM7.23913 5.00909C7.48503 5.00909 7.68445 5.20825 7.68478 5.45415C7.68511 5.70004 7.48621 5.89973 7.24031 5.90039C6.99442 5.90105 6.79446 5.70241 6.79348 5.45652C6.793 5.33802 6.83975 5.22421 6.92337 5.14025C7.007 5.05628 7.12063 5.00909 7.23913 5.00909ZM12.587 5.00909C12.8329 5.00909 13.0323 5.20825 13.0326 5.45415C13.0329 5.70004 12.834 5.89973 12.5881 5.90039C12.3422 5.90105 12.1423 5.70241 12.1413 5.45652C12.1408 5.33802 12.1876 5.22421 12.2712 5.14025C12.3548 5.05628 12.4685 5.00909 12.587 5.00909Z" stroke="black" stroke-width="2" stroke-linecap="round" stroke-linejoin="round"/>
</svg>
