<svg width="48" height="48" viewBox="0 0 48 48" fill="none" xmlns="http://www.w3.org/2000/svg">
<path d="M40.1257 31.5248L34.3205 39.2644C34.06 39.6126 33.6611 39.8305 33.2274 39.8616C32.7936 39.8927 32.3678 39.7338 32.0603 39.4263L29.0628 36.4287M18.9851 28.9769H3.99752C2.34204 28.9769 1 27.6349 1 25.9794V3.99752C1 2.34204 2.34204 1 3.99752 1H39.9678C41.6233 1 42.9653 2.34204 42.9653 3.99752V18.9851M42.1 1.89126L21.9827 17.986L1.86329 1.89126M22.792 35.0099C22.792 41.6319 28.1601 47 34.7821 47C41.404 47 46.7722 41.6319 46.7722 35.0099C46.7722 28.388 41.404 23.0198 34.7821 23.0198C28.1601 23.0198 22.792 28.388 22.792 35.0099Z" stroke="black" stroke-width="2" stroke-linecap="round" stroke-linejoin="round"/>
</svg>
