<svg width="30" height="31" viewBox="0 0 30 31" fill="none" xmlns="http://www.w3.org/2000/svg">
<path d="M7.96875 18.0576H17.3438" stroke="#313131" stroke-width="1.875" stroke-linecap="round"/>
<path d="M7.96875 22.1592H14.4141" stroke="#313131" stroke-width="1.875" stroke-linecap="round"/>
<path d="M16.1719 3.99512V6.9248C16.1719 9.68694 16.1719 11.068 17.0299 11.9261C17.8881 12.7842 19.2691 12.7842 22.0313 12.7842H26.7188" stroke="#313131" stroke-width="1.875"/>
<path d="M4.16016 12.7842C4.16016 12.2988 3.76665 11.9053 3.28125 11.9053C2.79585 11.9053 2.40234 12.2988 2.40234 12.7842H4.16016ZM25.8398 17.4717C25.8398 17.9571 26.2334 18.3506 26.7188 18.3506C27.2041 18.3506 27.5977 17.9571 27.5977 17.4717H25.8398ZM2.5255 8.0107C2.47799 8.49378 2.83108 8.92391 3.31415 8.97143C3.79723 9.01895 4.22735 8.66585 4.27487 8.18278L2.5255 8.0107ZM27.4745 22.2453C27.5221 21.7622 27.1689 21.332 26.6858 21.2846C26.2028 21.2371 25.7727 21.5902 25.7251 22.0732L27.4745 22.2453ZM17.3438 25.9678H12.6562V27.7256H17.3438V25.9678ZM4.16016 17.4717V12.7842H2.40234V17.4717H4.16016ZM25.8398 16.9595V17.4717H27.5977V16.9595H25.8398ZM18.3881 6.46915L23.0273 10.6444L24.2032 9.33784L19.5641 5.16258L18.3881 6.46915ZM27.5977 16.9595C27.5977 14.9809 27.6154 13.7282 27.1161 12.6073L25.5104 13.3224C25.8221 14.0223 25.8398 14.8256 25.8398 16.9595H27.5977ZM23.0273 10.6444C24.6134 12.0719 25.1987 12.6225 25.5104 13.3224L27.1161 12.6073C26.6169 11.4863 25.6739 10.6614 24.2032 9.33784L23.0273 10.6444ZM12.6912 4.28815C14.5448 4.28815 15.2443 4.30172 15.8678 4.54095L16.4975 2.89983C15.4993 2.51676 14.4117 2.53033 12.6912 2.53033V4.28815ZM19.5641 5.16258C18.2914 4.01718 17.4957 3.28284 16.4975 2.89983L15.8678 4.54095C16.4914 4.78025 17.0174 5.23544 18.3881 6.46915L19.5641 5.16258ZM12.6562 25.9678C10.4217 25.9678 8.83419 25.966 7.6299 25.804C6.45089 25.6456 5.77161 25.3483 5.27566 24.8523L4.0327 26.0953C4.9097 26.9722 6.02174 27.3614 7.39568 27.5462C8.74432 27.7275 10.4714 27.7256 12.6562 27.7256V25.9678ZM2.40234 17.4717C2.40234 19.6566 2.40048 21.3837 2.58179 22.7323C2.76652 24.1062 3.15572 25.2183 4.0327 26.0953L5.27566 24.8523C4.77972 24.3564 4.48245 23.6771 4.32394 22.4981C4.16202 21.2938 4.16016 19.7063 4.16016 17.4717H2.40234ZM17.3438 27.7256C19.5286 27.7256 21.2557 27.7275 22.6043 27.5462C23.9782 27.3614 25.0903 26.9722 25.9673 26.0953L24.7243 24.8523C24.2284 25.3483 23.5491 25.6456 22.3702 25.804C21.1658 25.966 19.5783 25.9678 17.3438 25.9678V27.7256ZM12.6912 2.53033C10.4946 2.53033 8.75909 2.52848 7.40493 2.70971C6.02616 2.89425 4.91038 3.28303 4.0327 4.16069L5.27566 5.40365C5.77093 4.9084 6.4523 4.6107 7.63811 4.452C8.84854 4.29 10.4451 4.28815 12.6912 4.28815V2.53033ZM4.27487 8.18278C4.41716 6.73625 4.72318 5.95613 5.27566 5.40365L4.0327 4.16069C3.05429 5.13911 2.68294 6.41008 2.5255 8.0107L4.27487 8.18278ZM25.7251 22.0732C25.5829 23.5197 25.2768 24.2998 24.7243 24.8523L25.9673 26.0953C26.9457 25.1168 27.3171 23.8459 27.4745 22.2453L25.7251 22.0732Z" fill="#313131"/>
</svg>
