<svg width="31" height="31" viewBox="0 0 31 31" fill="none" xmlns="http://www.w3.org/2000/svg">
<path d="M10.1303 20.3696C4.34281 14.582 1.99697 7.54451 4.89071 4.65076C7.22373 2.31774 12.2502 3.39047 17.1435 6.92676M20.6094 9.89036C26.397 15.6779 28.7428 22.7154 25.849 25.6091C23.5186 27.9396 18.5004 26.8718 13.6122 23.3447M25.8492 4.6506C28.7431 7.54435 26.3972 14.5819 20.6097 20.3695C14.8223 26.1569 7.78468 28.5027 4.89093 25.609C2.55793 23.2759 3.63064 18.2495 7.16687 13.3562C8.0168 12.1801 9.00904 11.0117 10.1305 9.8902C15.918 4.1027 22.9555 1.75685 25.8492 4.6506Z" stroke="#313131" stroke-width="1.875" stroke-linecap="round"/>
<path d="M18.2997 15.1299C18.2997 16.7479 16.988 18.0596 15.37 18.0596C13.752 18.0596 12.4403 16.7479 12.4403 15.1299C12.4403 13.5119 13.752 12.2002 15.37 12.2002C16.988 12.2002 18.2997 13.5119 18.2997 15.1299Z" stroke="#313131" stroke-width="1.875"/>
</svg>
