<svg width="12" height="12" viewBox="0 0 12 12" fill="none" xmlns="http://www.w3.org/2000/svg">
<g clip-path="url(#clip0_9279_16861)">
<path d="M10.149 1.42676H9.52261V2.53629C9.51869 2.69612 9.44387 2.84823 9.3142 2.96005C9.18453 3.07186 9.01032 3.13448 8.82889 3.13448C8.64745 3.13448 8.47324 3.07186 8.34357 2.96005C8.2139 2.84823 8.13908 2.69612 8.13516 2.53629V1.42676H3.86533V2.53629C3.86141 2.69612 3.7866 2.84823 3.65692 2.96005C3.52725 3.07186 3.35304 3.13448 3.17161 3.13448C2.99018 3.13448 2.81596 3.07186 2.68629 2.96005C2.55662 2.84823 2.4818 2.69612 2.47788 2.53629V1.42676H1.85153C1.36091 1.42744 0.890597 1.59948 0.543672 1.90517C0.196747 2.21086 0.00150526 2.62527 0.000732422 3.05758V10.3688C0.00150526 10.8011 0.196747 11.2155 0.543672 11.5212C0.890597 11.8269 1.36091 11.999 1.85153 11.9996H10.149C10.6396 11.999 11.1099 11.8269 11.4568 11.5212C11.8037 11.2155 11.999 10.8011 11.9998 10.3688V3.05815C11.9992 2.62574 11.804 2.21118 11.457 1.90537C11.1101 1.59955 10.6397 1.42744 10.149 1.42676ZM11.4039 10.3688C11.4036 10.662 11.2713 10.9432 11.036 11.1505C10.8007 11.3579 10.4817 11.4745 10.149 11.4749H1.85153C1.51877 11.4745 1.19976 11.3579 0.964492 11.1505C0.729223 10.9432 0.596903 10.662 0.596559 10.3688V4.76765H11.4039V10.3688Z" fill="black"/>
<path d="M3.53309 0.31844C3.53309 0.14257 3.37129 0 3.1717 0C2.9721 0 2.8103 0.14257 2.8103 0.31844V2.53607C2.8103 2.71194 2.9721 2.85451 3.1717 2.85451C3.37129 2.85451 3.53309 2.71194 3.53309 2.53607V0.31844Z" fill="black"/>
<path d="M9.19007 0.31844C9.19007 0.14257 9.02827 0 8.82868 0C8.62909 0 8.46729 0.14257 8.46729 0.31844V2.53607C8.46729 2.71194 8.62909 2.85451 8.82868 2.85451C9.02827 2.85451 9.19007 2.71194 9.19007 2.53607V0.31844Z" fill="black"/>
<path d="M3.49119 5.75586H1.81703C1.59771 5.75586 1.41992 5.91252 1.41992 6.10577V7.34863C1.41992 7.54188 1.59771 7.69854 1.81703 7.69854H3.49119C3.71051 7.69854 3.8883 7.54188 3.8883 7.34863V6.10577C3.8883 5.91252 3.71051 5.75586 3.49119 5.75586Z" fill="black"/>
<path d="M6.83714 5.75586H5.16298C4.94366 5.75586 4.76587 5.91252 4.76587 6.10577V7.34863C4.76587 7.54188 4.94366 7.69854 5.16298 7.69854H6.83714C7.05646 7.69854 7.23425 7.54188 7.23425 7.34863V6.10577C7.23425 5.91252 7.05646 5.75586 6.83714 5.75586Z" fill="black"/>
<path d="M10.1831 5.75586H8.50893C8.28961 5.75586 8.11182 5.91252 8.11182 6.10577V7.34863C8.11182 7.54188 8.28961 7.69854 8.50893 7.69854H10.1831C10.4024 7.69854 10.5802 7.54188 10.5802 7.34863V6.10577C10.5802 5.91252 10.4024 5.75586 10.1831 5.75586Z" fill="black"/>
<path d="M3.49119 8.54395H1.81703C1.59771 8.54395 1.41992 8.70061 1.41992 8.89386V10.1367C1.41992 10.33 1.59771 10.4866 1.81703 10.4866H3.49119C3.71051 10.4866 3.8883 10.33 3.8883 10.1367V8.89386C3.8883 8.70061 3.71051 8.54395 3.49119 8.54395Z" fill="black"/>
<path d="M6.83714 8.54395H5.16298C4.94366 8.54395 4.76587 8.70061 4.76587 8.89386V10.1367C4.76587 10.33 4.94366 10.4866 5.16298 10.4866H6.83714C7.05646 10.4866 7.23425 10.33 7.23425 10.1367V8.89386C7.23425 8.70061 7.05646 8.54395 6.83714 8.54395Z" fill="black"/>
<path d="M10.1831 8.54395H8.50893C8.28961 8.54395 8.11182 8.70061 8.11182 8.89386V10.1367C8.11182 10.33 8.28961 10.4866 8.50893 10.4866H10.1831C10.4024 10.4866 10.5802 10.33 10.5802 10.1367V8.89386C10.5802 8.70061 10.4024 8.54395 10.1831 8.54395Z" fill="black"/>
</g>
<defs>
<clipPath id="clip0_9279_16861">
<rect width="12" height="12" fill="white"/>
</clipPath>
</defs>
</svg>
