<svg width="30" height="30" viewBox="0 0 30 30" fill="none" xmlns="http://www.w3.org/2000/svg">
<path d="M25.29 10.44L24.63 10.2C24.54 10.17 24.45 10.08 24.42 9.99C24.27 9.45 24.09 8.91 23.91 8.4C23.82 8.13 23.61 7.92 23.34 7.8C23.13 7.71 22.89 7.62 22.68 7.53C22.26 7.35 21.99 6.96 21.99 6.51V4.11C21.99 3.51 21.48 3 20.88 3C20.37 3 19.92 3.36 19.8 3.87L19.47 5.4C19.35 5.97 18.78 6.36 18.21 6.24C16.11 5.91 13.98 5.88 11.82 6.24C11.25 6.33 10.68 5.97 10.56 5.4L10.2 3.87C10.08 3.36 9.63 3 9.12 3C8.52 3 8.01 3.51 8.01 4.11V6.51C8.01 6.96 7.74 7.38 7.32 7.53C7.11 7.62 6.87 7.71 6.66 7.8C6.39 7.92 6.21 8.13 6.09 8.4C5.88 8.91 5.73 9.45 5.58 9.99C5.55 10.08 5.46 10.17 5.37 10.2L4.71 10.41C3.78 10.71 3 11.79 3 12.78V15.18C3 16.17 3.78 17.25 4.71 17.55L4.95 17.64C5.28 17.76 5.55 18.03 5.67 18.36C5.79 18.75 5.91 19.17 6.09 19.56C6.18 19.83 6.39 20.04 6.66 20.16C12.24 22.65 18.18 22.5 23.37 20.16C23.64 20.04 23.82 19.83 23.94 19.56C24.09 19.17 24.24 18.75 24.36 18.36C24.45 18 24.72 17.73 25.08 17.64L25.35 17.55C26.28 17.25 27.06 16.17 27.06 15.18V12.78C27 11.82 26.22 10.74 25.29 10.44ZM22.35 18.03C22.26 18.33 22.02 18.57 21.72 18.69C19.56 19.56 17.28 19.98 15 19.98C12.72 19.98 10.44 19.53 8.28 18.69C7.98 18.57 7.74 18.33 7.65 18.03C6.78 15.39 6.78 12.6 7.65 9.96C7.74 9.66 7.98 9.42 8.28 9.3C10.47 8.43 12.72 8.01 15 8.01C17.31 8.01 19.56 8.46 21.72 9.3C22.02 9.42 22.26 9.66 22.35 9.96C23.22 12.6 23.22 15.39 22.35 18.03ZM3 25.74V25.92C3 26.46 3.51 26.88 4.05 26.82C11.37 25.68 19.14 25.74 25.98 26.82C26.52 26.91 27 26.49 27 25.92V25.74C27 25.29 26.67 24.93 26.25 24.84C18.96 23.7 11.07 23.7 3.78 24.84C3.33 24.93 3 25.32 3 25.74Z" fill="#313131"/>
<path d="M9.98999 11.76V14.25C9.98999 14.79 10.44 15.24 10.98 15.24C11.52 15.24 11.97 14.79 11.97 14.25V11.76C11.97 11.22 11.52 10.77 10.98 10.77C10.44 10.74 9.98999 11.19 9.98999 11.76ZM18 11.76V14.25C18 14.79 18.45 15.24 18.99 15.24C19.53 15.24 19.98 14.79 19.98 14.25V11.76C19.98 11.22 19.53 10.77 18.99 10.77C18.45 10.74 18 11.19 18 11.76ZM13.29 16.5H16.74C16.89 16.5 17.01 16.62 17.01 16.77V17.7C17.01 17.85 16.89 17.97 16.74 17.97H13.29C13.14 17.97 13.02 17.85 13.02 17.7V16.77C12.99 16.62 13.14 16.5 13.29 16.5Z" fill="#313131"/>
</svg>
