<svg width="43" height="44" viewBox="0 0 43 44" fill="none" xmlns="http://www.w3.org/2000/svg">
<path d="M13.6056 30.7231H1V10.1064M1 10.1064L9.92309 1M1 10.1064H9.92309V1M9.92309 1H23.6059V8.4479M5.87527 23.3989H11.7047M5.87527 17.927H12.9739M36.875 26.2517C36.8759 29.746 34.1005 32.5792 30.6765 32.5792C27.2526 32.5792 24.4772 29.746 24.4781 26.2517M36.875 26.2517H24.4781M36.875 26.2517V20.2531M24.4781 26.2517V20.2531M41.918 42.9543C40.4064 37.9897 35.9123 34.6007 30.8182 34.584H30.6784C25.567 34.6015 21.062 38.0127 19.5637 43M19.6718 18.1401V24.2433M30.5927 11.6089L18.3598 17.1644L30.6411 22.621L42 17.2652L30.5927 11.6089Z" stroke="black" stroke-width="2" stroke-linecap="round" stroke-linejoin="round"/>
</svg>
