<svg width="41" height="41" viewBox="0 0 41 41" fill="none" xmlns="http://www.w3.org/2000/svg">
<circle cx="20.5" cy="20.5" r="20" fill="white"/>
<path d="M22.5142 12.2264L22.017 12.7236L22.0185 12.7251L22.5142 12.2264ZM29.7736 19.4858L29.2745 19.981L29.2764 19.983L29.7736 19.4858ZM11.1278 29.8778C10.8532 30.1524 10.8532 30.5976 11.1278 30.8722C11.4024 31.1467 11.8476 31.1467 12.1222 30.8722L11.1278 29.8778ZM23.7373 19.2571C24.0119 18.9825 24.0119 18.5373 23.7373 18.2627C23.4627 17.9881 23.0175 17.9881 22.7429 18.2627L23.7373 19.2571ZM17.8541 24.1926C18.0761 24.5111 18.5144 24.5894 18.833 24.3674C19.1515 24.1453 19.2298 23.707 19.0078 23.3885L17.8541 24.1926ZM20.9833 26.223C20.7613 25.9043 20.323 25.8262 20.0045 26.0482C19.6859 26.2702 19.6076 26.7084 19.8296 27.027L20.9833 26.223ZM27.1241 15.8173C26.8507 15.5416 26.4054 15.5399 26.1297 15.8134C25.8541 16.0869 25.8524 16.5321 26.1259 16.8077L27.1241 15.8173ZM23.3168 14.0156C23.5922 14.2894 24.0374 14.288 24.3112 14.0126C24.5849 13.7372 24.5836 13.292 24.3082 13.0182L23.3168 14.0156ZM19.1132 15.6274L26.3726 22.8868L27.367 21.8924L20.1076 14.633L19.1132 15.6274ZM26.3726 22.8868C27.4491 23.9633 29.1943 23.9633 30.2707 22.8868L29.2764 21.8924C28.7492 22.4197 27.8943 22.4197 27.367 21.8924L26.3726 22.8868ZM19.1132 11.7292C18.0368 12.8057 18.0368 14.5509 19.1132 15.6274L20.1076 14.633C19.5803 14.1057 19.5803 13.2508 20.1076 12.7236L19.1132 11.7292ZM23.0113 11.7292C21.9349 10.6528 20.1896 10.6528 19.1132 11.7292L20.1076 12.7236C20.6348 12.1963 21.4897 12.1963 22.017 12.7236L23.0113 11.7292ZM29.2764 19.983C29.8037 20.5103 29.8037 21.3652 29.2764 21.8924L30.2707 22.8868C31.3473 21.8104 31.3473 20.0651 30.2707 18.9887L29.2764 19.983ZM12.1222 30.8722L14.5149 28.4795L13.5206 27.4851L11.1278 29.8778L12.1222 30.8722ZM14.8545 26.5163L13.9646 24.6377L12.6937 25.2397L13.5836 27.1184L14.8545 26.5163ZM16.1221 19.8915L21.3231 23.5164L22.1272 22.3628L16.9262 18.7378L16.1221 19.8915ZM23.0546 21.881L22.4491 20.8969L21.2514 21.6338L21.857 22.6179L23.0546 21.881ZM22.4958 20.4985L23.7373 19.2571L22.7429 18.2627L21.5015 19.5042L22.4958 20.4985ZM22.4491 20.8969C22.3705 20.7693 22.3899 20.6045 22.4958 20.4985L21.5015 19.5042C20.935 20.0706 20.8316 20.9517 21.2514 21.6338L22.4491 20.8969ZM21.3231 23.5164C22.4053 24.2707 23.7459 23.0044 23.0546 21.881L21.857 22.6179C21.841 22.5921 21.826 22.5413 21.836 22.4833C21.8444 22.4335 21.8674 22.4003 21.8883 22.3805C21.9093 22.3607 21.9438 22.3397 21.9939 22.3341C22.0524 22.3274 22.1022 22.3453 22.1272 22.3628L21.3231 23.5164ZM16.3863 19.6272C16.4032 19.6515 16.422 19.703 16.414 19.7639C16.4073 19.8157 16.3848 19.85 16.3648 19.87C16.3448 19.89 16.3105 19.9125 16.2587 19.9193C16.1978 19.9271 16.1464 19.9084 16.1221 19.8915L16.9262 18.7378C15.8121 17.9613 14.4562 19.3173 15.2326 20.4313L16.3863 19.6272ZM19.9792 28.8722C21.1008 29.5844 22.389 28.2397 21.6292 27.1497L20.4756 27.9538C20.4583 27.929 20.4401 27.8788 20.4471 27.8197C20.4531 27.7691 20.4743 27.7347 20.4942 27.714C20.5141 27.6933 20.5476 27.6704 20.5979 27.6623C20.6566 27.6529 20.7075 27.6688 20.733 27.685L19.9792 28.8722ZM13.9646 24.6377C13.9782 24.6665 13.9866 24.7143 13.9744 24.7652C13.9636 24.8102 13.9411 24.8414 13.9187 24.8611C13.8964 24.8809 13.8626 24.8994 13.8167 24.9046C13.7646 24.9104 13.7182 24.8963 13.6913 24.8791L14.4451 23.692C13.4156 23.0382 12.1716 24.1374 12.6937 25.2397L13.9646 24.6377ZM14.5149 28.4795C15.0323 27.9621 15.1672 27.1764 14.8545 26.5163L13.5836 27.1184C13.6424 27.2425 13.6168 27.3889 13.5206 27.4851L14.5149 28.4795ZM13.6913 24.8791L16.8352 26.8757L17.5891 25.6885L14.4451 23.692L13.6913 24.8791ZM16.8352 26.8757L19.9792 28.8722L20.733 27.685L17.5891 25.6885L16.8352 26.8757ZM21.6292 27.1497L20.9833 26.223L19.8296 27.027L20.4756 27.9538L21.6292 27.1497ZM19.0078 23.3885L18.3509 22.4461L17.1973 23.2502L17.8541 24.1926L19.0078 23.3885ZM18.3509 22.4461L16.3863 19.6272L15.2326 20.4313L17.1973 23.2502L18.3509 22.4461ZM30.2727 18.9906L27.1241 15.8173L26.1259 16.8077L29.2745 19.981L30.2727 18.9906ZM24.3082 13.0182L23.0098 11.7277L22.0185 12.7251L23.3168 14.0156L24.3082 13.0182Z" fill="#313131"/>
<path d="M30.3752 21C30.3752 22.1132 29.4729 23.0156 28.3596 23.0156C27.2464 23.0156 26.344 22.1132 26.344 21C26.344 19.8868 27.2464 18.9844 28.3596 18.9844C29.4729 18.9844 30.3752 19.8868 30.3752 21Z" stroke="#313131" stroke-width="1.5"/>
</svg>
