<svg width="41" height="41" viewBox="0 0 41 41" fill="none" xmlns="http://www.w3.org/2000/svg">
<circle cx="20.5" cy="20.5" r="20" fill="white"/>
<path d="M20.1993 20.9898C20.5555 20.3507 20.7337 20.0312 21 20.0312C21.2663 20.0312 21.4445 20.3507 21.8007 20.9898L21.8929 21.1552C21.994 21.3368 22.0447 21.4276 22.1236 21.4875C22.2025 21.5474 22.3008 21.5697 22.4974 21.6141L22.6763 21.6546C23.3681 21.8111 23.7141 21.8894 23.7964 22.154C23.8787 22.4187 23.6428 22.6944 23.1712 23.2459L23.0492 23.3885C22.9152 23.5453 22.8482 23.6237 22.818 23.7206C22.7879 23.8175 22.798 23.9221 22.8183 24.1311L22.8367 24.3215C22.908 25.0574 22.9437 25.4252 22.7283 25.5887C22.5127 25.7523 22.1889 25.6032 21.5412 25.305L21.3737 25.2278C21.1896 25.1431 21.0976 25.1007 21 25.1007C20.9024 25.1007 20.8104 25.1431 20.6263 25.2278L20.4588 25.305C19.8111 25.6032 19.4872 25.7523 19.2717 25.5887C19.0563 25.4252 19.092 25.0574 19.1632 24.3215L19.1817 24.1311C19.202 23.9221 19.2121 23.8175 19.182 23.7206C19.1518 23.6237 19.0848 23.5453 18.9508 23.3885L18.8288 23.2459C18.3572 22.6944 18.1214 22.4187 18.2037 22.154C18.2859 21.8894 18.6318 21.8111 19.3237 21.6546L19.5026 21.6141C19.6992 21.5697 19.7975 21.5474 19.8764 21.4875C19.9553 21.4276 20.006 21.3368 20.1071 21.1552L20.1993 20.9898Z" stroke="black" stroke-width="1.5"/>
<path d="M30.2233 19.6809C30.3921 17.8878 30.4764 16.9913 30.1697 16.6207C30.0037 16.4202 29.7781 16.2974 29.5369 16.2762C29.0909 16.237 28.5308 16.8746 27.4107 18.1498C26.8314 18.8092 26.5418 19.1389 26.2187 19.19C26.0397 19.2182 25.8573 19.1892 25.6919 19.106C25.3936 18.9558 25.1947 18.5482 24.7968 17.733L22.6998 13.4358C21.948 11.8953 21.5721 11.125 21 11.125C20.4279 11.125 20.052 11.8953 19.3002 13.4358L17.2032 17.733C16.8053 18.5482 16.6064 18.9558 16.3081 19.106C16.1427 19.1892 15.9603 19.2182 15.7813 19.19C15.4582 19.1389 15.1685 18.8092 14.5893 18.1498C13.4691 16.8746 12.9091 16.237 12.4631 16.2762C12.2219 16.2974 11.9962 16.4202 11.8303 16.6207C11.5236 16.9913 11.6079 17.8878 11.7767 19.6809L11.9916 21.964C12.3456 25.7258 12.5226 27.6067 13.6313 28.7408C14.74 29.875 16.4017 29.875 19.7251 29.875H22.2749C25.5982 29.875 27.26 29.875 28.3687 28.7408C29.2254 27.8643 29.5258 26.5419 29.7816 24.25" stroke="black" stroke-width="1.5" stroke-linecap="round"/>
</svg>
