<svg width="41" height="41" viewBox="0 0 41 41" fill="none" xmlns="http://www.w3.org/2000/svg">
<circle cx="20.5" cy="20.5" r="20" fill="white"/>
<path d="M30.2233 20.6809C30.3921 18.8878 30.4764 17.9913 30.1697 17.6207C30.0037 17.4202 29.7781 17.2974 29.5369 17.2762C29.0909 17.237 28.5308 17.8746 27.4107 19.1498C26.8314 19.8092 26.5418 20.1389 26.2187 20.19C26.0397 20.2182 25.8573 20.1892 25.6919 20.106C25.3936 19.9558 25.1947 19.5482 24.7968 18.733L22.6998 14.4358C21.948 12.8953 21.5721 12.125 21 12.125C20.4279 12.125 20.052 12.8953 19.3002 14.4358L17.2032 18.733C16.8053 19.5482 16.6064 19.9558 16.3081 20.106C16.1427 20.1892 15.9603 20.2182 15.7813 20.19C15.4582 20.1389 15.1685 19.8092 14.5893 19.1498C13.4691 17.8746 12.9091 17.237 12.4631 17.2762C12.2219 17.2974 11.9962 17.4202 11.8303 17.6207C11.5236 17.9913 11.6079 18.8878 11.7767 20.6809L11.9916 22.964C12.3456 26.7258 12.5226 28.6067 13.6313 29.7408C14.74 30.875 16.4017 30.875 19.7251 30.875H22.2749C25.5982 30.875 27.26 30.875 28.3687 29.7408C29.2254 28.8643 29.5258 27.5419 29.7816 25.25" stroke="#313131" stroke-width="1.5" stroke-linecap="round"/>
<path d="M18.1875 27.125H23.8125" stroke="#313131" stroke-width="1.5" stroke-linecap="round"/>
</svg>
