<svg width="26" height="26" viewBox="0 0 26 26" fill="none" xmlns="http://www.w3.org/2000/svg">
<path d="M10.7481 4.36683C12.1913 3.69022 13.8086 3.69022 15.2518 4.36683L22.0476 7.55284C23.5258 8.24585 23.5258 10.6448 22.0476 11.3378L15.2519 14.5237C13.8087 15.2004 12.1914 15.2004 10.7482 14.5237L3.9524 11.3378C2.47419 10.6448 2.4742 8.24581 3.9524 7.55279L6.90625 6.16796" stroke="#313131" stroke-width="1.625" stroke-linecap="round"/>
<path d="M2.84375 9.44531V15.0313" stroke="#313131" stroke-width="1.625" stroke-linecap="round"/>
<path d="M13 22.1406C11.1759 22.1406 8.78891 21.0018 7.2976 20.176C6.40199 19.68 5.89062 18.7214 5.89062 17.6977V12.4922M20.1094 12.4922V17.6977C20.1094 18.7214 19.598 19.68 18.7024 20.176C18.1637 20.4743 17.5082 20.8134 16.8044 21.125" stroke="#313131" stroke-width="1.625" stroke-linecap="round"/>
</svg>
