<svg width="26" height="26" viewBox="0 0 26 26" fill="none" xmlns="http://www.w3.org/2000/svg">
<path d="M13 18.0781V19.0938" stroke="#9D9D9D" stroke-width="1.625" stroke-linecap="round"/>
<path d="M13 6.90625V7.92188" stroke="#9D9D9D" stroke-width="1.625" stroke-linecap="round"/>
<path d="M16.0469 10.4609C16.0469 9.05865 14.6828 7.92188 13 7.92188C11.3172 7.92188 9.95312 9.05865 9.95312 10.4609C9.95312 11.8632 11.3172 13 13 13C14.6828 13 16.0469 14.1368 16.0469 15.5391C16.0469 16.9413 14.6828 18.0781 13 18.0781C11.3172 18.0781 9.95312 16.9413 9.95312 15.5391" stroke="#9D9D9D" stroke-width="1.625" stroke-linecap="round"/>
<path d="M7.92188 4.20247C9.41573 3.33833 11.1501 2.84375 13 2.84375C18.6091 2.84375 23.1563 7.39086 23.1563 13C23.1563 18.6091 18.6091 23.1563 13 23.1563C7.39086 23.1563 2.84375 18.6091 2.84375 13C2.84375 11.1501 3.33833 9.41573 4.20247 7.92188" stroke="#9D9D9D" stroke-width="1.625" stroke-linecap="round"/>
</svg>
