<svg width="16" height="17" viewBox="0 0 16 17" fill="none" xmlns="http://www.w3.org/2000/svg">
<path d="M4.25 3.88817C4.73765 4.33225 5.74222 5.54607 5.85926 6.8487C5.93757 7.7204 6.37171 8.47509 7.0625 8.83847C7.33663 8.98272 7.65119 9.06528 8 9.06909C8.47181 9.07422 8.94894 8.7334 8.94775 8.26159C8.94737 8.11565 8.92331 7.96647 8.88562 7.82928C8.83319 7.63834 8.82856 7.41878 8.9375 7.19409C9.31869 6.40818 10.0684 6.19707 10.6624 5.77025C10.9259 5.58095 11.1662 5.38126 11.2722 5.22041C11.5648 4.77633 11.8574 3.88817 11.7111 3.44409" stroke="white"/>
<path d="M14.25 9.06909C14.0441 9.65097 13.8984 11.1785 11.5739 11.2027C11.5739 11.2027 11.078 11.2027 10.5 11.3403M8.8978 12.3665C8.40374 13.2975 8.69193 14.3062 8.8978 14.6941" stroke="white" stroke-linecap="round"/>
<path d="M4.875 13.858C5.79429 14.3897 6.86163 14.6941 8 14.6941C11.4518 14.6941 14.25 11.8958 14.25 8.44409C14.25 4.99231 11.4518 2.19409 8 2.19409C4.54822 2.19409 1.75 4.99231 1.75 8.44409C1.75 9.58247 2.05436 10.6498 2.58614 11.5691" stroke="white" stroke-linecap="round"/>
</svg>
