<svg width="26" height="26" viewBox="0 0 26 26" fill="none" xmlns="http://www.w3.org/2000/svg">
<path d="M2.84375 13C2.84375 17.7877 2.84375 20.1816 4.3311 21.6689C5.81844 23.1563 8.21229 23.1563 13 23.1563C17.7877 23.1563 20.1816 23.1563 21.6689 21.6689C23.1563 20.1816 23.1563 17.7877 23.1563 13V11.4766M14.5234 2.84375H13C8.21229 2.84375 5.81844 2.84375 4.3311 4.3311C3.34215 5.32006 3.01076 6.70978 2.89971 8.9375" stroke="#313131" stroke-width="1.625" stroke-linecap="round"/>
<path d="M17.7247 4.32155L18.3837 3.66259C19.4755 2.5708 21.2457 2.5708 22.3375 3.66259C23.4292 4.75439 23.4292 6.52453 22.3375 7.61632L21.6784 8.27526M17.7247 4.32155C17.7247 4.32155 17.8071 5.72182 19.0427 6.95736C20.2782 8.1929 21.6784 8.27526 21.6784 8.27526M17.7247 4.32155L11.6667 10.3796C11.2564 10.7899 11.0512 10.9951 10.8747 11.2213C10.6666 11.4881 10.4881 11.7769 10.3426 12.0824C10.2191 12.3414 10.1274 12.6166 9.94387 13.1672L9.35637 14.9297M21.6784 8.27526L18.6494 11.3043M9.35637 14.9297L8.97621 16.0701C8.88591 16.3411 8.95641 16.6397 9.15834 16.8417C9.36027 17.0436 9.65895 17.1141 9.92986 17.0238L11.0703 16.6437M9.35637 14.9297L11.0703 16.6437M15.6204 14.3333C15.2101 14.7436 15.0049 14.9488 14.7787 15.1253C14.5119 15.3334 14.2231 15.5118 13.9176 15.6575C13.6586 15.7809 13.3834 15.8726 12.8328 16.0561L11.0703 16.6437" stroke="#313131" stroke-width="1.625" stroke-linecap="round"/>
</svg>
