<svg width="40" height="41" viewBox="0 0 40 41" fill="none" xmlns="http://www.w3.org/2000/svg">
<circle cx="20" cy="20.3086" r="20" fill="#FCE7D2"/>
<path d="M20 24.4961V25.4336" stroke="#313131" stroke-width="1.5" stroke-linecap="round"/>
<path d="M20 14.1836V15.1211" stroke="#313131" stroke-width="1.5" stroke-linecap="round"/>
<path d="M22.8125 17.4648C22.8125 16.1704 21.5533 15.1211 20 15.1211C18.4467 15.1211 17.1875 16.1704 17.1875 17.4648C17.1875 18.7592 18.4467 19.8086 20 19.8086C21.5533 19.8086 22.8125 20.8579 22.8125 22.1523C22.8125 23.4467 21.5533 24.4961 20 24.4961C18.4467 24.4961 17.1875 23.4467 17.1875 22.1523" stroke="#313131" stroke-width="1.5" stroke-linecap="round"/>
<path d="M15.3125 11.6878C16.6914 10.8901 18.2924 10.4336 20 10.4336C25.1776 10.4336 29.375 14.6309 29.375 19.8086C29.375 24.9862 25.1776 29.1836 20 29.1836C14.8223 29.1836 10.625 24.9862 10.625 19.8086C10.625 18.101 11.0815 16.5 11.8792 15.1211" stroke="#313131" stroke-width="1.5" stroke-linecap="round"/>
</svg>
