<svg width="26" height="26" viewBox="0 0 26 26" fill="none" xmlns="http://www.w3.org/2000/svg">
<path d="M17.0625 23.1563V14.0156C17.0625 12.5793 17.0625 11.8612 16.6163 11.4149C16.1701 10.9688 15.4519 10.9688 14.0156 10.9688H11.9844C10.5481 10.9688 9.82991 10.9688 9.3837 11.4149C8.9375 11.8612 8.9375 12.5793 8.9375 14.0156M8.9375 23.1563V18.0781" stroke="black" stroke-width="1.625" stroke-linecap="round"/>
<path d="M8.9375 23.1563C8.9375 21.72 8.9375 21.0018 8.4913 20.5555C8.04509 20.1094 7.32693 20.1094 5.89063 20.1094C4.45432 20.1094 3.73616 20.1094 3.28995 20.5555C2.84375 21.0018 2.84375 21.72 2.84375 23.1563" stroke="black" stroke-width="1.625" stroke-linecap="round"/>
<path d="M23.1563 23.1563V20.1094C23.1563 18.6731 23.1563 17.9549 22.7101 17.5087C22.2638 17.0625 21.5457 17.0625 20.1094 17.0625C18.6731 17.0625 17.9549 17.0625 17.5087 17.5087C17.0625 17.9549 17.0625 18.6731 17.0625 20.1094V23.1563" stroke="black" stroke-width="1.625" stroke-linecap="round"/>
<path d="M12.1326 3.88224C12.5185 3.18992 12.7115 2.84375 13 2.84375C13.2885 2.84375 13.4815 3.18992 13.8674 3.88224L13.9673 4.06135C14.0769 4.25809 14.1317 4.35646 14.2172 4.42136C14.3027 4.48627 14.4092 4.51036 14.6222 4.55854L14.816 4.60242C15.5655 4.77199 15.9402 4.85677 16.0294 5.14345C16.1186 5.43013 15.863 5.72886 15.3522 6.32631L15.2199 6.48088C15.0748 6.65065 15.0022 6.73553 14.9695 6.84055C14.9369 6.94557 14.9479 7.05883 14.9698 7.28535L14.9898 7.49157C15.067 8.2887 15.1057 8.68726 14.8723 8.86445C14.6388 9.04162 14.288 8.88008 13.5863 8.557L13.4048 8.47341C13.2054 8.3816 13.1057 8.33569 13 8.33569C12.8943 8.33569 12.7946 8.3816 12.5952 8.47341L12.4137 8.557C11.712 8.88008 11.3612 9.04162 11.1277 8.86445C10.8943 8.68726 10.933 8.2887 11.0102 7.49157L11.0302 7.28535C11.0521 7.05883 11.0631 6.94557 11.0305 6.84055C10.9978 6.73553 10.9252 6.65065 10.78 6.48088L10.6478 6.32631C10.1369 5.72886 9.88147 5.43013 9.97062 5.14345C10.0598 4.85677 10.4345 4.77199 11.184 4.60242L11.3778 4.55854C11.5908 4.51036 11.6973 4.48627 11.7828 4.42136C11.8683 4.35646 11.9231 4.25809 12.0327 4.06135L12.1326 3.88224Z" stroke="black" stroke-width="1.625"/>
</svg>
