<svg width="31" height="31" viewBox="0 0 31 31" fill="none" xmlns="http://www.w3.org/2000/svg">
<path d="M22.1412 15.1299H21.2021C20.2298 15.1299 19.7437 15.1299 19.3407 15.3581C18.9378 15.5863 18.6876 16.0031 18.1874 16.8368L18.1512 16.8971C17.6853 17.6737 17.4522 18.0621 17.1133 18.0558C16.7743 18.0493 16.556 17.6525 16.1196 16.8589L14.1423 13.2639C13.7353 12.5239 13.5318 12.1539 13.2067 12.1364C12.8818 12.1188 12.6397 12.4647 12.1554 13.1566L11.8237 13.6304C11.3094 14.3652 11.0522 14.7326 10.6706 14.9313C10.289 15.1299 9.84056 15.1299 8.94361 15.1299H8.07874" stroke="#313131" stroke-width="1.875" stroke-linecap="round"/>
<path d="M15.11 7.51311L14.4767 8.1226C14.6424 8.29475 14.871 8.39202 15.11 8.39202C15.3489 8.39202 15.5776 8.29475 15.7433 8.1226L15.11 7.51311ZM4.16076 16.766C4.41731 17.178 4.95933 17.3041 5.3714 17.0476C5.78347 16.7911 5.90954 16.249 5.65299 15.8369L4.16076 16.766ZM8.69947 19.5497C8.35583 19.2069 7.79934 19.2075 7.45651 19.5512C7.11368 19.8948 7.11435 20.4513 7.458 20.7941L8.69947 19.5497ZM4.27014 11.7746C4.27014 8.48997 5.74345 6.45194 7.58562 5.75121C9.43279 5.04857 12.006 5.55561 14.4767 8.1226L15.7433 6.90362C12.9407 3.99189 9.65456 3.08353 6.96066 4.10825C4.26177 5.13486 2.51233 7.96692 2.51233 11.7746H4.27014ZM19.2146 23.9185C20.9634 22.5398 23.0596 20.6914 24.7265 18.6262C26.3748 16.5841 27.7076 14.2025 27.7076 11.7746H25.9498C25.9498 13.5921 24.9276 15.5783 23.3587 17.5222C21.8084 19.4429 19.8255 21.1985 18.1264 22.5381L19.2146 23.9185ZM27.7076 11.7746C27.7076 7.96691 25.9582 5.13485 23.2593 4.10824C20.5654 3.08354 17.2792 3.99189 14.4767 6.90362L15.7433 8.1226C18.2139 5.55561 20.7871 5.04857 22.6344 5.75121C24.4765 6.45193 25.9498 8.48996 25.9498 11.7746H27.7076ZM11.0054 23.9184C12.4987 25.0957 13.5281 25.9529 15.11 25.9529V24.1951C14.2537 24.1951 13.7221 23.8219 12.0936 22.5381L11.0054 23.9184ZM18.1264 22.5381C16.4978 23.8219 15.9663 24.1951 15.11 24.1951V25.9529C16.6919 25.9529 17.7213 25.0957 19.2146 23.9185L18.1264 22.5381ZM5.65299 15.8369C4.77877 14.4328 4.27014 13.0568 4.27014 11.7746H2.51233C2.51233 13.5089 3.19265 15.211 4.16076 16.766L5.65299 15.8369ZM12.0936 22.5381C11.0191 21.6909 9.82592 20.6734 8.69947 19.5497L7.458 20.7941C8.6453 21.9786 9.89302 23.0415 11.0054 23.9184L12.0936 22.5381Z" fill="#313131"/>
</svg>
