<svg width="20" height="20" viewBox="0 0 20 20" fill="none" xmlns="http://www.w3.org/2000/svg">
<path d="M10 4.92294L9.57781 5.32927C9.58047 5.33198 9.58313 5.33467 9.58578 5.33734L10 4.92294ZM6.09423 13.4544C5.84436 13.2487 5.4751 13.2846 5.26946 13.5344C5.06382 13.7844 5.09967 14.1536 5.34954 14.3592L6.09423 13.4544ZM2.45468 11.1033C2.60995 11.3872 2.96599 11.4915 3.24991 11.3362C3.53383 11.1809 3.6381 10.8249 3.48282 10.5409L2.45468 11.1033ZM11.1483 6.89927C11.3771 7.12805 11.7481 7.12798 11.9769 6.89912C12.2057 6.67026 12.2056 6.29926 11.9767 6.07048L11.1483 6.89927ZM2.77344 7.76393C2.77344 6.08356 3.72295 4.67442 5.01903 4.08198C6.27818 3.50641 7.97005 3.65884 9.57781 5.32927L10.4222 4.51662C8.51445 2.53458 6.30007 2.20791 4.53184 3.01616C2.80055 3.80755 1.60156 5.64512 1.60156 7.76393H2.77344ZM7.26361 15.8598C7.66379 16.1753 8.09339 16.5117 8.52875 16.7662C8.96398 17.0205 9.46063 17.2271 10 17.2271V16.0552C9.75813 16.0552 9.47352 15.9609 9.12 15.7544C8.76664 15.5479 8.40006 15.2635 7.9891 14.9395L7.26361 15.8598ZM12.7364 15.8598C13.8509 14.9812 15.2756 13.9744 16.3932 12.716C17.5309 11.435 18.3984 9.8464 18.3984 7.76393H17.2266C17.2266 9.48062 16.5241 10.8039 15.517 11.9379C14.4898 13.0945 13.195 14.0061 12.0109 14.9395L12.7364 15.8598ZM18.3984 7.76393C18.3984 5.64512 17.1995 3.80755 15.4681 3.01616C13.6999 2.20791 11.4855 2.53458 9.57781 4.51662L10.4222 5.32927C12.0299 3.65884 13.7218 3.50641 14.9809 4.08198C16.277 4.67442 17.2266 6.08356 17.2266 7.76393H18.3984ZM12.0109 14.9395C11.5999 15.2635 11.2334 15.5479 10.88 15.7544C10.5265 15.9609 10.2419 16.0552 10 16.0552V17.2271C10.5394 17.2271 11.036 17.0205 11.4713 16.7662C11.9066 16.5117 12.3362 16.1753 12.7364 15.8598L12.0109 14.9395ZM7.9891 14.9395C7.3673 14.4494 6.73538 13.9821 6.09423 13.4544L5.34954 14.3592C5.99819 14.8931 6.68337 15.4024 7.26361 15.8598L7.9891 14.9395ZM3.48282 10.5409C3.04438 9.73929 2.77344 8.83124 2.77344 7.76393H1.60156C1.60156 9.04327 1.92965 10.1434 2.45468 11.1033L3.48282 10.5409ZM9.58578 5.33734L11.1483 6.89927L11.9767 6.07048L10.4142 4.50855L9.58578 5.33734Z" fill="#313131"/>
</svg>
