<svg width="30" height="31" viewBox="0 0 30 31" fill="none" xmlns="http://www.w3.org/2000/svg">
<path d="M11.4844 19.8174C12.4809 20.556 13.6929 20.9893 15 20.9893C16.3071 20.9893 17.5191 20.556 18.5156 19.8174" stroke="#313131" stroke-width="1.875" stroke-linecap="round"/>
<path d="M26.2921 16.2524L25.9655 18.5228C25.3942 22.4924 25.1086 24.4772 23.7316 25.6629C22.3546 26.8486 20.3351 26.8486 16.2962 26.8486H13.7038C9.66488 26.8486 7.64541 26.8486 6.26839 25.6629C4.89136 24.4772 4.60576 22.4924 4.03457 18.5228L3.70789 16.2524C3.26323 13.1621 3.04091 11.6169 3.67426 10.2958C4.30761 8.97474 5.65569 8.17169 8.35184 6.5656L9.9747 5.59887C12.4231 4.14038 13.6473 3.41113 15 3.41113C16.3527 3.41113 17.5769 4.14038 20.0252 5.59887L21.6482 6.5656C24.3443 8.17169 25.6924 8.97474 26.3257 10.2958" stroke="#313131" stroke-width="1.875" stroke-linecap="round"/>
</svg>
