<?xml version="1.0" standalone="no"?>
<!DOCTYPE svg PUBLIC "-//W3C//DTD SVG 20010904//EN"
 "http://www.w3.org/TR/2001/REC-SVG-20010904/DTD/svg10.dtd">
<svg version="1.0" xmlns="http://www.w3.org/2000/svg"
 width="1150.000000pt" height="373.000000pt" viewBox="0 0 1150.000000 373.000000"
 preserveAspectRatio="xMidYMid meet">

<g transform="translate(0.000000,373.000000) scale(0.100000,-0.100000)"
fill="#000000" stroke="none">
<path d="M2307 3202 c23 -75 13 -184 -24 -265 -57 -120 -152 -192 -294 -221
l-74 -16 76 4 c138 5 256 81 315 202 23 47 30 75 32 141 4 79 -16 184 -37 197
-5 3 -2 -15 6 -42z"/>
<path d="M8359 3077 c-29 -16 -54 -40 -74 -72 l-30 -48 -3 -506 -3 -506 75 74
75 75 3 366 3 366 28 43 c19 28 43 49 72 62 42 19 75 19 1023 17 l980 -3 39
-31 c74 -59 73 -53 73 -479 l0 -381 75 -74 75 -74 0 517 c0 445 -2 523 -15
555 -21 49 -52 81 -100 103 -38 18 -92 19 -1146 19 l-1106 0 -44 -23z"/>
<path d="M4345 2445 c-48 -47 -19 -115 48 -115 41 0 67 26 67 66 0 35 -8 47
-37 63 -33 17 -51 14 -78 -14z m79 -11 c19 -18 21 -55 4 -72 -22 -22 -67 -14
-80 13 -22 50 38 97 76 59z"/>
<path d="M4511 2457 c-27 -13 -40 -37 -20 -37 6 0 17 7 24 16 9 12 20 15 39
10 39 -10 30 -35 -26 -71 -26 -16 -48 -33 -48 -37 0 -5 29 -8 65 -8 72 0 90
17 23 22 l-43 3 38 22 c46 28 52 68 11 83 -32 12 -34 12 -63 -3z"/>
<path d="M9396 2449 c-72 -57 16 -157 92 -103 32 22 30 76 -4 103 -15 12 -34
21 -44 21 -10 0 -29 -9 -44 -21z m78 -15 c33 -32 11 -84 -35 -84 -41 0 -59 38
-35 75 19 28 47 32 70 9z"/>
<path d="M9566 2420 c-20 -22 -36 -45 -36 -50 0 -6 18 -10 40 -10 29 0 40 -4
40 -15 0 -8 7 -15 15 -15 8 0 15 6 15 14 0 8 6 17 13 20 10 5 10 7 0 12 -7 3
-13 23 -13 45 0 53 -26 52 -74 -1z m44 -10 c0 -26 -4 -30 -26 -30 l-25 0 21
30 c12 17 23 30 26 30 2 0 4 -13 4 -30z"/>
<path d="M5574 2220 c0 -96 2 -136 3 -87 2 48 2 126 0 175 -1 48 -3 8 -3 -88z"/>
<path d="M1845 2155 c-65 -64 18 -152 93 -99 15 10 22 25 22 47 0 38 -7 50
-37 66 -33 17 -51 14 -78 -14z m79 -11 c19 -18 21 -55 4 -72 -22 -22 -67 -14
-80 13 -22 50 38 97 76 59z"/>
<path d="M6866 2159 c-72 -57 16 -157 92 -103 32 22 30 76 -4 103 -15 12 -34
21 -44 21 -10 0 -29 -9 -44 -21z m78 -15 c34 -34 8 -88 -39 -82 -40 4 -57 48
-30 78 22 24 48 26 69 4z"/>
<path d="M7040 2173 c-25 -9 -40 -25 -34 -35 3 -5 14 -2 24 7 22 20 65 16 65
-5 0 -9 -11 -16 -27 -18 -38 -4 -36 -22 2 -22 23 0 30 -4 30 -20 0 -16 -7 -20
-33 -20 -18 0 -38 5 -45 12 -6 6 -15 8 -19 4 -13 -13 28 -36 63 -36 18 0 40 7
49 16 14 15 14 18 0 40 -8 13 -11 24 -5 24 22 0 9 41 -16 50 -28 11 -32 11
-54 3z"/>
<path d="M1975 2160 c-4 -6 5 -10 19 -10 25 0 26 -3 26 -55 0 -30 5 -55 10
-55 6 0 10 28 10 65 l0 65 -29 0 c-17 0 -33 -4 -36 -10z"/>
<path d="M4180 2070 c0 -5 9 -10 20 -10 11 0 20 5 20 10 0 6 -9 10 -20 10 -11
0 -20 -4 -20 -10z"/>
<path d="M4722 2069 c2 -6 8 -10 13 -10 5 0 11 4 13 10 2 6 -4 11 -13 11 -9 0
-15 -5 -13 -11z"/>
<path d="M9150 2070 c0 -5 9 -10 20 -10 11 0 20 5 20 10 0 6 -9 10 -20 10 -11
0 -20 -4 -20 -10z"/>
<path d="M9232 2068 c-7 -7 -12 -17 -12 -24 0 -7 -6 -15 -12 -18 -10 -5 -10
-7 0 -12 6 -3 12 -21 12 -40 0 -24 5 -34 15 -34 10 0 15 11 15 35 0 28 4 35
20 35 11 0 20 5 20 10 0 6 -9 10 -21 10 -27 0 -19 24 9 28 12 2 20 8 17 13 -9
13 -49 11 -63 -3z"/>
<path d="M9800 2010 c0 -56 3 -70 15 -70 12 0 15 14 15 70 0 56 -3 70 -15 70
-12 0 -15 -14 -15 -70z"/>
<path d="M3892 2018 c6 -57 24 -78 68 -78 44 0 62 21 68 78 4 43 2 52 -12 52
-12 0 -16 -10 -16 -39 0 -37 -19 -71 -40 -71 -21 0 -40 34 -40 71 0 29 -4 39
-16 39 -14 0 -16 -9 -12 -52z"/>
<path d="M4790 2059 c0 -7 -8 -18 -17 -25 -11 -8 -13 -13 -5 -14 6 0 12 -9 12
-21 0 -37 19 -59 50 -59 35 0 41 17 8 22 -17 2 -24 11 -26 31 -3 23 0 27 22
27 14 0 26 5 26 10 0 6 -11 10 -25 10 -16 0 -25 6 -25 15 0 8 -4 15 -10 15 -5
0 -10 -5 -10 -11z"/>
<path d="M9020 2005 l0 -65 60 0 c47 0 60 3 60 15 0 11 -12 15 -45 15 l-45 0
0 50 c0 38 -4 50 -15 50 -12 0 -15 -14 -15 -65z"/>
<path d="M9580 2059 c0 -7 -8 -18 -17 -25 -11 -8 -13 -13 -5 -14 6 0 12 -9 12
-21 0 -37 19 -59 50 -59 35 0 41 17 8 22 -17 2 -24 11 -26 31 -3 23 0 27 22
27 14 0 26 5 26 10 0 6 -11 10 -25 10 -16 0 -25 6 -25 15 0 8 -4 15 -10 15 -5
0 -10 -5 -10 -11z"/>
<path d="M4050 1988 c0 -35 4 -48 14 -48 10 0 16 13 18 37 5 65 57 56 58 -9 0
-16 5 -28 11 -28 6 0 9 19 7 48 l-3 47 -52 1 -53 1 0 -49z"/>
<path d="M4190 1990 c0 -38 4 -50 15 -50 11 0 15 12 15 50 0 38 -4 50 -15 50
-11 0 -15 -12 -15 -50z"/>
<path d="M4255 1990 c14 -27 32 -50 40 -50 8 0 26 23 40 50 21 41 22 50 10 50
-8 0 -23 -16 -32 -35 l-17 -36 -18 36 c-10 19 -25 35 -33 35 -12 0 -10 -10 10
-50z"/>
<path d="M4374 2019 c-17 -19 -17 -23 -3 -47 17 -32 77 -43 98 -18 11 13 8 14
-22 9 -20 -3 -37 -1 -41 6 -5 7 6 11 33 11 45 0 53 16 23 43 -25 23 -65 21
-88 -4z m71 -9 c4 -6 -7 -10 -25 -10 -18 0 -29 4 -25 10 3 6 15 10 25 10 10 0
22 -4 25 -10z"/>
<path d="M4498 1990 c5 -61 29 -70 34 -12 2 30 7 38 26 40 12 2 22 8 22 13 0
13 -34 11 -48 -3 -9 -9 -12 -9 -12 0 0 7 -6 12 -12 12 -9 0 -12 -15 -10 -50z"/>
<path d="M4597 2033 c-13 -12 -7 -41 9 -47 9 -3 27 -6 40 -6 13 0 24 -5 24
-11 0 -8 -13 -9 -40 -5 -22 3 -40 2 -40 -3 0 -24 81 -29 100 -6 19 23 5 43
-32 47 -18 2 -31 8 -28 13 5 11 11 11 50 -1 22 -7 24 -6 11 9 -13 17 -81 24
-94 10z"/>
<path d="M4720 1990 c0 -38 4 -50 15 -50 11 0 15 12 15 50 0 38 -4 50 -15 50
-11 0 -15 -12 -15 -50z"/>
<path d="M4870 2033 c0 -5 11 -28 25 -52 31 -53 31 -54 0 -48 -16 3 -24 0 -22
-7 2 -6 17 -11 33 -11 25 0 32 7 56 55 31 64 33 70 14 70 -8 0 -21 -17 -29
-37 l-15 -38 -18 38 c-15 32 -44 52 -44 30z"/>
<path d="M9160 1990 c0 -27 5 -50 10 -50 6 0 10 23 10 50 0 28 -4 50 -10 50
-5 0 -10 -22 -10 -50z"/>
<path d="M9316 2024 c-37 -36 -2 -88 55 -82 18 2 34 8 36 14 2 7 -5 10 -21 7
-13 -3 -32 0 -43 6 -15 8 -9 10 30 11 51 0 55 4 31 38 -18 26 -65 30 -88 6z
m69 -14 c4 -6 -7 -10 -25 -10 -18 0 -29 4 -25 10 3 6 15 10 25 10 10 0 22 -4
25 -10z"/>
<path d="M9439 2024 c-11 -14 -10 -18 6 -30 10 -8 31 -14 47 -14 15 0 28 -5
28 -11 0 -8 -15 -10 -46 -5 -40 5 -45 4 -34 -9 18 -22 87 -20 99 3 13 25 -4
42 -40 42 -15 0 -30 4 -33 9 -9 14 17 19 42 8 24 -11 38 -5 27 12 -10 17 -81
13 -96 -5z"/>
<path d="M9675 2003 c9 -21 20 -42 26 -47 16 -17 10 -26 -18 -26 -19 0 -24 -3
-16 -11 21 -21 57 -5 79 36 32 59 38 85 21 85 -8 0 -21 -17 -29 -37 l-15 -38
-17 38 c-9 20 -23 37 -31 37 -13 0 -13 -4 0 -37z"/>
<path d="M9862 2028 c-17 -17 -15 -54 4 -73 18 -18 85 -17 91 1 2 6 -10 8 -31
6 -18 -2 -37 1 -40 7 -5 7 7 11 33 11 33 0 41 4 41 18 0 27 -20 42 -55 42 -17
0 -36 -5 -43 -12z m73 -18 c4 -6 -7 -10 -25 -10 -18 0 -29 4 -25 10 3 6 15 10
25 10 10 0 22 -4 25 -10z"/>
<path d="M3047 1793 c-4 -3 -7 -128 -7 -276 0 -149 2 -268 4 -266 6 6 20 549
14 549 -3 0 -8 -3 -11 -7z"/>
<path d="M3983 1788 c-41 -20 -22 -68 27 -68 32 0 55 -14 46 -29 -9 -15 -41
-14 -66 1 -26 16 -40 0 -16 -18 39 -28 116 -11 116 26 0 23 -14 32 -59 39 -44
8 -54 31 -12 31 16 0 33 -4 36 -10 9 -15 25 -12 25 5 0 9 -12 20 -26 25 -31
12 -43 12 -71 -2z"/>
<path d="M4240 1730 c0 -56 3 -70 15 -70 12 0 15 14 15 70 0 56 -3 70 -15 70
-12 0 -15 -14 -15 -70z"/>
<path d="M4660 1790 c0 -5 7 -10 15 -10 8 0 15 5 15 10 0 6 -7 10 -15 10 -8 0
-15 -4 -15 -10z"/>
<path d="M1540 1783 c-79 -30 -59 -133 25 -133 23 0 43 8 57 22 27 27 9 36
-27 12 -34 -22 -75 -6 -75 29 0 44 53 65 80 32 13 -16 40 -20 40 -7 0 27 -68
57 -100 45z"/>
<path d="M4561 1764 c-17 -18 -19 -24 -8 -24 11 0 17 -12 19 -37 3 -35 6 -38
36 -41 36 -4 45 15 10 20 -17 2 -24 11 -26 31 -3 23 0 27 22 27 14 0 26 5 26
10 0 6 -9 10 -20 10 -10 0 -23 6 -27 14 -7 12 -12 10 -32 -10z"/>
<path d="M7295 1760 c-5 -25 -10 -29 -20 -20 -20 16 -55 8 -71 -15 -28 -42 33
-97 72 -65 10 9 14 9 14 1 0 -6 7 -11 15 -11 11 0 15 13 15 54 0 30 3 61 6 70
4 10 1 16 -9 16 -9 0 -18 -13 -22 -30z m-10 -54 c0 -29 -31 -44 -50 -25 -23
23 -9 51 24 47 18 -2 26 -9 26 -22z"/>
<path d="M7590 1780 c0 -5 7 -10 15 -10 8 0 15 5 15 10 0 6 -7 10 -15 10 -8 0
-15 -4 -15 -10z"/>
<path d="M2077 1755 c-10 -14 -13 -25 -7 -25 5 0 10 -13 10 -28 0 -15 5 -33
12 -40 14 -14 68 -16 68 -2 0 6 -11 10 -25 10 -21 0 -25 5 -25 30 0 23 4 30
20 30 11 0 20 5 20 10 0 6 -9 10 -20 10 -11 0 -20 7 -20 15 0 22 -12 18 -33
-10z"/>
<path d="M6090 1723 c-14 -31 -26 -61 -28 -65 -2 -4 3 -8 11 -8 8 0 17 7 21
15 3 10 19 15 45 15 25 0 41 -5 45 -15 3 -8 12 -15 20 -15 12 0 9 14 -14 63
-22 48 -33 63 -52 65 -21 3 -27 -5 -48 -55z m70 -10 c0 -7 -11 -13 -24 -13
-23 0 -24 2 -13 30 11 28 13 29 24 13 7 -9 13 -23 13 -30z"/>
<path d="M7497 1755 c-10 -14 -13 -25 -7 -25 5 0 10 -13 10 -28 0 -15 5 -33
12 -40 14 -14 68 -16 68 -2 0 6 -11 10 -25 10 -21 0 -25 5 -25 30 0 23 4 30
20 30 11 0 20 5 20 10 0 6 -9 10 -20 10 -11 0 -20 7 -20 15 0 22 -12 18 -33
-10z"/>
<path d="M4114 1735 c-15 -23 -15 -27 0 -50 16 -25 54 -33 90 -19 28 11 17 20
-18 16 -18 -2 -37 1 -40 7 -5 7 7 11 33 11 23 0 41 5 41 11 0 52 -76 69 -106
24z m76 -5 c0 -5 -11 -10 -25 -10 -14 0 -25 5 -25 10 0 6 11 10 25 10 14 0 25
-4 25 -10z"/>
<path d="M4301 1746 c-7 -8 -11 -27 -9 -43 4 -32 40 -50 82 -39 38 9 32 23 -8
18 -18 -2 -37 1 -40 7 -5 7 7 11 33 11 33 0 41 4 41 18 0 10 -5 23 -12 30 -17
17 -73 15 -87 -2z m69 -16 c0 -5 -11 -10 -25 -10 -14 0 -25 5 -25 10 0 6 11
10 25 10 14 0 25 -4 25 -10z"/>
<path d="M4432 1748 c-7 -7 -12 -24 -12 -38 0 -14 5 -31 12 -38 19 -19 73 -14
93 8 20 22 6 27 -24 8 -26 -16 -51 -3 -51 27 0 19 5 25 23 25 13 0 28 -5 34
-11 6 -6 17 -9 23 -7 9 3 8 9 -4 21 -20 20 -76 23 -94 5z"/>
<path d="M4660 1710 c0 -38 4 -50 15 -50 11 0 15 12 15 50 0 38 -4 50 -15 50
-11 0 -15 -12 -15 -50z"/>
<path d="M4722 1748 c-7 -7 -12 -24 -12 -38 0 -34 17 -50 53 -50 43 0 67 17
67 48 0 38 -17 52 -60 52 -20 0 -41 -5 -48 -12z m73 -38 c0 -20 -5 -25 -25
-25 -20 0 -26 6 -28 28 -3 26 -1 28 25 25 22 -2 28 -8 28 -28z"/>
<path d="M4850 1709 c0 -36 4 -49 14 -49 10 0 16 13 18 38 3 32 6 37 28 37 22
0 25 -5 28 -37 4 -48 32 -54 32 -7 0 55 -15 69 -70 68 l-50 -2 0 -48z"/>
<path d="M1664 1729 c-17 -19 -17 -23 -3 -47 27 -49 119 -35 119 19 0 48 -80
67 -116 28z m81 -29 c0 -30 -35 -40 -54 -16 -20 24 -6 48 26 44 22 -2 28 -8
28 -28z"/>
<path d="M1802 1709 c4 -50 27 -71 58 -52 12 8 21 9 25 3 14 -23 25 -6 25 40
0 38 -4 50 -15 50 -10 0 -15 -10 -15 -27 0 -37 -14 -57 -34 -50 -10 4 -16 19
-16 42 0 25 -4 35 -16 35 -12 0 -14 -9 -12 -41z"/>
<path d="M1934 1726 c3 -12 6 -33 6 -48 0 -16 5 -28 10 -28 6 0 10 12 10 28 0
36 13 55 36 50 14 -2 20 -13 22 -41 4 -52 32 -51 32 2 0 49 -13 59 -73 59 -44
-1 -48 -3 -43 -22z"/>
<path d="M2174 1728 c3 -13 6 -35 6 -50 0 -16 5 -28 10 -28 6 0 10 9 10 21 0
29 18 59 35 59 8 0 15 5 15 10 0 14 -23 13 -38 -2 -9 -9 -12 -9 -12 0 0 7 -7
12 -16 12 -12 0 -15 -6 -10 -22z"/>
<path d="M2285 1700 c14 -27 25 -52 25 -55 0 -3 -12 -5 -27 -5 -19 0 -24 -3
-16 -11 25 -25 58 -5 91 59 26 49 30 62 17 62 -8 0 -23 -16 -32 -35 l-17 -36
-18 36 c-10 19 -25 35 -33 35 -12 0 -10 -10 10 -50z"/>
<path d="M6236 1734 c-49 -49 32 -112 90 -70 26 19 10 33 -20 16 -33 -17 -58
-6 -54 22 2 17 11 24 31 26 15 2 27 -1 27 -7 0 -6 7 -11 15 -11 18 0 19 12 3
28 -17 17 -74 15 -92 -4z"/>
<path d="M6372 1738 c-7 -7 -12 -24 -12 -38 0 -14 5 -31 12 -38 19 -19 73 -14
93 8 16 17 16 20 2 20 -9 0 -19 -4 -22 -10 -17 -28 -71 3 -59 34 7 18 49 22
59 6 3 -5 13 -10 22 -10 14 0 14 3 -2 20 -20 22 -74 27 -93 8z"/>
<path d="M6502 1738 c-7 -7 -12 -22 -12 -34 0 -55 85 -76 116 -29 15 23 15 27
0 50 -13 19 -25 25 -54 25 -21 0 -43 -5 -50 -12z m82 -24 c8 -21 -11 -44 -36
-44 -21 0 -33 22 -24 45 7 20 52 19 60 -1z"/>
<path d="M6634 1726 c3 -12 6 -33 6 -48 0 -16 5 -28 10 -28 6 0 10 11 10 24 0
37 10 56 30 56 20 0 30 -19 30 -56 0 -13 5 -24 10 -24 6 0 10 11 10 24 0 37
10 56 30 56 20 0 30 -19 30 -56 0 -13 5 -24 11 -24 6 0 9 19 7 48 -3 40 -6 47
-26 50 -13 2 -29 -2 -37 -8 -8 -7 -15 -7 -19 -1 -4 5 -29 9 -57 9 -46 -1 -50
-3 -45 -22z"/>
<path d="M6848 1700 c5 -61 29 -70 34 -12 2 29 7 37 23 37 16 0 21 -8 23 -37
2 -24 8 -38 17 -38 9 0 15 14 17 38 2 29 7 37 23 37 16 0 21 -8 23 -37 2 -25
8 -38 18 -38 17 0 19 51 4 81 -12 21 -49 26 -67 8 -8 -8 -13 -8 -17 0 -9 15
-49 14 -64 -1 -9 -9 -12 -9 -12 0 0 7 -6 12 -12 12 -9 0 -12 -15 -10 -50z"/>
<path d="M7064 1725 c-15 -23 -15 -27 0 -50 28 -43 116 -27 116 21 0 36 -20
54 -60 54 -31 0 -43 -5 -56 -25z m81 -25 c0 -29 -34 -40 -54 -17 -18 23 -2 49
28 45 20 -2 26 -8 26 -28z"/>
<path d="M7352 1738 c-15 -15 -15 -43 -2 -69 12 -22 59 -26 78 -7 9 9 12 9 12
0 0 -7 6 -12 13 -12 10 0 13 15 13 50 -1 33 -5 50 -13 50 -7 0 -13 -5 -13 -12
0 -9 -3 -9 -12 0 -7 7 -24 12 -38 12 -14 0 -31 -5 -38 -12z m76 -20 c16 -16
-3 -48 -29 -48 -22 0 -34 22 -25 45 6 18 37 20 54 3z"/>
<path d="M7590 1700 c0 -38 4 -50 15 -50 11 0 15 12 15 50 0 38 -4 50 -15 50
-11 0 -15 -12 -15 -50z"/>
<path d="M7656 1734 c-35 -34 -5 -84 51 -84 31 0 63 26 63 52 0 41 -82 65
-114 32z m79 -14 c13 -20 -6 -50 -31 -50 -26 0 -40 20 -30 45 6 17 51 20 61 5z"/>
<path d="M7788 1700 c5 -61 29 -70 34 -12 2 29 7 37 23 37 16 0 21 -8 23 -37
4 -53 32 -52 32 0 0 43 -14 62 -45 62 -12 0 -26 -5 -33 -12 -9 -9 -12 -9 -12
0 0 7 -6 12 -12 12 -9 0 -12 -15 -10 -50z"/>
<path d="M1453 1498 c-41 -20 -22 -68 27 -68 32 0 55 -14 46 -29 -9 -15 -41
-14 -66 1 -26 16 -40 0 -16 -18 39 -28 116 -11 116 26 0 23 -14 32 -59 39 -44
8 -54 31 -12 31 16 0 33 -4 36 -10 9 -15 25 -12 25 5 0 9 -12 20 -26 25 -31
12 -43 12 -71 -2z"/>
<path d="M1710 1440 c0 -56 3 -70 15 -70 12 0 15 14 15 70 0 56 -3 70 -15 70
-12 0 -15 -14 -15 -70z"/>
<path d="M2130 1500 c0 -5 7 -10 15 -10 8 0 15 5 15 10 0 6 -7 10 -15 10 -8 0
-15 -4 -15 -10z"/>
<path d="M2031 1474 c-17 -18 -19 -24 -8 -24 11 0 17 -12 19 -37 3 -35 6 -38
36 -41 36 -4 45 15 10 20 -17 2 -24 11 -26 31 -3 23 0 27 22 27 14 0 26 5 26
10 0 6 -9 10 -20 10 -10 0 -23 6 -27 14 -7 12 -12 10 -32 -10z"/>
<path d="M6720 1490 c0 -5 11 -10 25 -10 24 0 25 -3 25 -55 0 -42 3 -55 15
-55 12 0 15 13 15 55 0 54 0 55 30 55 17 0 30 5 30 10 0 6 -30 10 -70 10 -40
0 -70 -4 -70 -10z"/>
<path d="M1584 1445 c-15 -23 -15 -27 0 -50 16 -25 54 -33 90 -19 28 11 17 20
-18 16 -18 -2 -37 1 -40 7 -5 7 7 11 33 11 23 0 41 5 41 11 0 52 -76 69 -106
24z m76 -5 c0 -5 -11 -10 -25 -10 -14 0 -25 5 -25 10 0 6 11 10 25 10 14 0 25
-4 25 -10z"/>
<path d="M1771 1456 c-7 -8 -11 -27 -9 -43 4 -32 40 -50 82 -39 38 9 32 23 -8
18 -18 -2 -37 1 -40 7 -5 7 7 11 33 11 33 0 41 4 41 18 0 10 -5 23 -12 30 -17
17 -73 15 -87 -2z m69 -16 c0 -5 -11 -10 -25 -10 -14 0 -25 5 -25 10 0 6 11
10 25 10 14 0 25 -4 25 -10z"/>
<path d="M1902 1458 c-7 -7 -12 -24 -12 -38 0 -14 5 -31 12 -38 19 -19 73 -14
93 8 20 22 6 27 -24 8 -26 -16 -51 -3 -51 27 0 19 5 25 23 25 13 0 28 -5 34
-11 6 -6 17 -9 23 -7 9 3 8 9 -4 21 -20 20 -76 23 -94 5z"/>
<path d="M2130 1420 c0 -38 4 -50 15 -50 11 0 15 12 15 50 0 38 -4 50 -15 50
-11 0 -15 -12 -15 -50z"/>
<path d="M2192 1458 c-7 -7 -12 -24 -12 -38 0 -34 17 -50 53 -50 43 0 67 17
67 48 0 38 -17 52 -60 52 -20 0 -41 -5 -48 -12z m73 -38 c0 -20 -5 -25 -25
-25 -20 0 -26 6 -28 28 -3 26 -1 28 25 25 22 -2 28 -8 28 -28z"/>
<path d="M2320 1419 c0 -36 4 -49 14 -49 10 0 16 13 18 38 3 32 6 37 28 37 22
0 25 -5 28 -37 4 -48 32 -54 32 -7 0 55 -15 69 -70 68 l-50 -2 0 -48z"/>
<path d="M6850 1463 c0 -5 11 -28 25 -52 31 -53 31 -54 0 -49 -17 4 -25 1 -25
-8 0 -9 11 -14 30 -14 26 0 33 7 60 60 34 68 35 70 17 70 -7 0 -21 -17 -31
-37 l-18 -38 -15 38 c-8 20 -21 37 -29 37 -8 0 -14 -3 -14 -7z"/>
<path d="M6990 1404 c0 -50 3 -64 15 -64 10 0 15 10 15 27 0 21 3 24 12 15 7
-7 21 -12 33 -12 29 0 45 19 45 51 0 37 -18 49 -73 47 l-47 -1 0 -63z m88 22
c5 -25 -12 -39 -37 -31 -20 6 -28 34 -14 49 13 13 48 1 51 -18z"/>
<path d="M7141 1456 c-7 -8 -11 -27 -9 -43 4 -32 40 -50 82 -39 38 9 32 23 -8
18 -18 -2 -37 1 -40 7 -5 7 7 11 33 11 33 0 41 4 41 18 0 10 -5 23 -12 30 -17
17 -73 15 -87 -2z m69 -16 c0 -5 -11 -10 -25 -10 -14 0 -25 5 -25 10 0 6 11
10 25 10 14 0 25 -4 25 -10z"/>
<path d="M9358 1197 c-130 -44 -225 -132 -283 -260 -118 -256 24 -565 297
-648 56 -17 88 -21 166 -17 86 3 106 7 172 39 135 64 226 172 262 308 67 258
-74 509 -331 587 -73 22 -204 18 -283 -9z m325 -105 c81 -40 158 -122 189
-202 31 -79 31 -204 -1 -282 -29 -75 -104 -156 -183 -199 -61 -33 -67 -34
-173 -34 -102 0 -114 2 -168 30 -204 103 -276 364 -152 551 79 120 188 176
336 171 74 -3 96 -8 152 -35z"/>
<path d="M9478 903 c-31 -8 -20 -26 11 -20 32 7 97 -8 107 -24 13 -22 -32 -52
-83 -53 -40 -1 -53 3 -80 27 -36 33 -44 31 -67 -17 -33 -70 -12 -166 46 -207
126 -90 292 15 264 167 -16 82 -119 148 -198 127z m-53 -93 c28 -31 27 -115
-1 -141 l-22 -20 -16 22 c-19 27 -21 97 -4 134 14 30 19 31 43 5z m224 -23
c15 -40 9 -92 -13 -123 -14 -19 -15 -18 -40 5 -20 19 -23 28 -16 47 6 14 6 33
1 46 -7 18 -4 28 12 46 27 29 38 24 56 -21z m-93 -22 c31 -46 -35 -97 -77 -59
-23 21 -24 42 -2 66 21 24 61 20 79 -7z m26 -113 c26 -25 17 -39 -30 -52 -37
-10 -89 -1 -122 20 -12 8 -11 12 7 32 29 31 115 31 145 0z"/>
<path d="M4786 553 c-6 -14 -5 -15 5 -6 7 7 10 15 7 18 -3 3 -9 -2 -12 -12z"/>
<path d="M4723 475 c-46 -49 -119 -90 -179 -100 -58 -11 -78 -26 -24 -19 67 9
159 56 208 105 23 23 42 47 42 51 0 11 0 11 -47 -37z"/>
<path d="M4448 353 c7 -3 16 -2 19 1 4 3 -2 6 -13 5 -11 0 -14 -3 -6 -6z"/>
</g>
</svg>
