<svg width="40" height="41" viewBox="0 0 40 41" fill="none" xmlns="http://www.w3.org/2000/svg">
<circle cx="20" cy="20.3086" r="20" fill="#FCE7D2"/>
<path d="M17.1875 23.7876C17.9847 24.3785 18.9543 24.7251 20 24.7251C21.0457 24.7251 22.0152 24.3785 22.8125 23.7876" stroke="#313131" stroke-width="1.5" stroke-linecap="round"/>
<path d="M21.875 18.6313C21.875 19.0043 21.9738 19.362 22.1496 19.6257C22.3254 19.8894 22.5639 20.0376 22.8125 20.0376C23.0611 20.0376 23.2996 19.8894 23.4754 19.6257C23.6512 19.362 23.75 19.0043 23.75 18.6313C23.75 18.2584 23.6512 17.9007 23.4754 17.637C23.2996 17.3733 23.0611 17.2251 22.8125 17.2251C22.5639 17.2251 22.3254 17.3733 22.1496 17.637C21.9738 17.9007 21.875 18.2584 21.875 18.6313Z" fill="#313131"/>
<path d="M16.25 18.6313C16.25 19.0043 16.3488 19.362 16.5246 19.6257C16.7004 19.8894 16.9389 20.0376 17.1875 20.0376C17.4361 20.0376 17.6746 19.8894 17.8504 19.6257C18.0262 19.362 18.125 19.0043 18.125 18.6313C18.125 18.2584 18.0262 17.9007 17.8504 17.637C17.6746 17.3733 17.4361 17.2251 17.1875 17.2251C16.9389 17.2251 16.7004 17.3733 16.5246 17.637C16.3488 17.9007 16.25 18.2584 16.25 18.6313Z" fill="#313131"/>
<path d="M29.375 21.9126C29.375 25.4481 29.375 27.2159 28.2766 28.3142C27.1783 29.4126 25.4105 29.4126 21.875 29.4126" stroke="#313131" stroke-width="1.5" stroke-linecap="round"/>
<path d="M18.125 29.4126C14.5895 29.4126 12.8217 29.4126 11.7233 28.3142C10.625 27.2159 10.625 25.4481 10.625 21.9126" stroke="#313131" stroke-width="1.5" stroke-linecap="round"/>
<path d="M18.125 10.6626C14.5895 10.6626 12.8217 10.6626 11.7233 11.7609C10.625 12.8593 10.625 14.6271 10.625 18.1626" stroke="#313131" stroke-width="1.5" stroke-linecap="round"/>
<path d="M21.875 10.6626C25.4105 10.6626 27.1783 10.6626 28.2766 11.7609C29.375 12.8593 29.375 14.6271 29.375 18.1626" stroke="#313131" stroke-width="1.5" stroke-linecap="round"/>
</svg>
