<svg width="26" height="26" viewBox="0 0 26 26" fill="none" xmlns="http://www.w3.org/2000/svg">
<path d="M2.08203 11.4766C2.08203 11.8972 2.42307 12.2383 2.84375 12.2383C3.26443 12.2383 3.60547 11.8972 3.60547 11.4766H2.08203ZM3.93403 16.6831C3.77305 16.2944 3.32746 16.1098 2.9388 16.2708C2.55014 16.4318 2.36557 16.8774 2.52656 17.266L3.93403 16.6831ZM14.7592 22.9224L15.3097 21.9922L13.9987 21.2162L13.4481 22.1464L14.7592 22.9224ZM10.6903 21.9922L11.2408 22.9224L12.5518 22.1464L12.0012 21.2162L10.6903 21.9922ZM13.4481 22.1464C13.2524 22.4771 12.7476 22.4771 12.5518 22.1464L11.2408 22.9224C12.0265 24.2498 13.9735 24.2498 14.7592 22.9224L13.4481 22.1464ZM11.4766 3.60547H14.5234V2.08203H11.4766V3.60547ZM22.3945 11.4766V12.4922H23.918V11.4766H22.3945ZM8.73691 19.3391C7.46186 19.3171 6.79375 19.236 6.27005 19.0191L5.68706 20.4266C6.50461 20.7652 7.43578 20.8403 8.71067 20.8623L8.73691 19.3391ZM2.52656 17.266C3.11927 18.6969 4.25614 19.8338 5.68706 20.4266L6.27005 19.0191C5.21241 18.581 4.37212 17.7407 3.93403 16.6831L2.52656 17.266ZM22.3945 12.4922C22.3945 13.6856 22.3941 14.5426 22.348 15.2188C22.3023 15.8882 22.2144 16.3248 22.066 16.6831L23.4734 17.266C23.7116 16.6912 23.8169 16.0695 23.8679 15.3225C23.9184 14.5824 23.918 13.6648 23.918 12.4922H22.3945ZM17.2893 20.8623C18.5642 20.8403 19.4954 20.7652 20.3129 20.4266L19.7299 19.0191C19.2063 19.236 18.5381 19.3171 17.2631 19.3391L17.2893 20.8623ZM22.066 16.6831C21.6278 17.7407 20.7876 18.581 19.7299 19.0191L20.3129 20.4266C21.7438 19.8338 22.8807 18.6969 23.4734 17.266L22.066 16.6831ZM14.5234 3.60547C16.2004 3.60547 17.4048 3.60627 18.3441 3.69559C19.2722 3.78382 19.8627 3.95305 20.3334 4.24153L21.1295 2.94259C20.379 2.48277 19.5278 2.27783 18.4883 2.17899C17.4601 2.08123 16.171 2.08203 14.5234 2.08203V3.60547ZM23.918 11.4766C23.918 9.82903 23.9188 8.53988 23.821 7.51167C23.7222 6.47213 23.5172 5.62093 23.0574 4.87056L21.7584 5.66656C22.047 6.13733 22.2162 6.72785 22.3044 7.65587C22.3937 8.59523 22.3945 9.79952 22.3945 11.4766H23.918ZM20.3334 4.24153C20.9143 4.59745 21.4026 5.08576 21.7584 5.66656L23.0574 4.87056C22.5759 4.08478 21.9153 3.42412 21.1295 2.94259L20.3334 4.24153ZM11.4766 2.08203C9.82903 2.08203 8.53988 2.08123 7.51167 2.17899C6.47213 2.27783 5.62093 2.48277 4.87056 2.94259L5.66656 4.24153C6.13733 3.95305 6.72785 3.78382 7.65587 3.69559C8.59523 3.60627 9.79952 3.60547 11.4766 3.60547V2.08203ZM3.60547 11.4766C3.60547 9.79952 3.60627 8.59523 3.69559 7.65587C3.78382 6.72785 3.95305 6.13733 4.24153 5.66656L2.94259 4.87056C2.48277 5.62093 2.27783 6.47213 2.17899 7.51167C2.08123 8.53988 2.08203 9.82903 2.08203 11.4766H3.60547ZM4.87056 2.94259C4.08478 3.42412 3.42412 4.08478 2.94259 4.87056L4.24153 5.66656C4.59745 5.08576 5.08576 4.59745 5.66656 4.24153L4.87056 2.94259ZM12.0012 21.2162C11.7951 20.8678 11.6141 20.5604 11.4381 20.3189C11.2526 20.0646 11.04 19.8356 10.7452 19.664L9.97925 20.981C10.0274 21.0089 10.093 21.06 10.2069 21.2162C10.3301 21.3854 10.4694 21.6191 10.6903 21.9922L12.0012 21.2162ZM8.71067 20.8623C9.15662 20.87 9.43909 20.8757 9.65441 20.8994C9.85562 20.9218 9.93361 20.9544 9.97925 20.981L10.7452 19.664C10.4478 19.4911 10.1384 19.4203 9.82208 19.3852C9.51985 19.3518 9.15459 19.3463 8.73691 19.3391L8.71067 20.8623ZM15.3097 21.9922C15.5305 21.6191 15.6698 21.3854 15.7931 21.2162C15.9069 21.06 15.9725 21.0089 16.0207 20.981L15.2548 19.664C14.96 19.8356 14.7473 20.0646 14.5619 20.3189C14.3859 20.5604 14.2049 20.8678 13.9987 21.2162L15.3097 21.9922ZM17.2631 19.3391C16.8454 19.3463 16.4801 19.3518 16.1779 19.3852C15.8615 19.4203 15.5522 19.4911 15.2548 19.664L16.0207 20.981C16.0664 20.9544 16.1444 20.9218 16.3456 20.8994C16.5609 20.8757 16.8433 20.87 17.2893 20.8623L17.2631 19.3391Z" fill="#313131"/>
<path d="M8.9375 11.9844H8.94664M12.9909 11.9844H13M17.0534 11.9844H17.0625" stroke="#313131" stroke-width="1.625" stroke-linecap="round" stroke-linejoin="round"/>
</svg>
