<svg width="40" height="41" viewBox="0 0 40 41" fill="none" xmlns="http://www.w3.org/2000/svg">
<circle cx="20" cy="20.3086" r="20" fill="#FCE7D2"/>
<path d="M16.25 18.6313H23.75" stroke="#313131" stroke-width="1.5" stroke-linecap="round"/>
<path d="M16.25 21.9126H21.4062" stroke="#313131" stroke-width="1.5" stroke-linecap="round"/>
<path d="M24.6875 11.9168C23.3085 11.1191 21.7076 10.6626 20 10.6626C14.8223 10.6626 10.625 14.8599 10.625 20.0376C10.625 21.5373 10.9771 22.9547 11.6032 24.2118C11.7696 24.5458 11.825 24.9277 11.7285 25.2882L11.1702 27.3751C10.9278 28.281 11.7566 29.1098 12.6625 28.8674L14.7494 28.3091C15.1099 28.2126 15.4918 28.268 15.8258 28.4343C17.0828 29.0605 18.5003 29.4126 20 29.4126C25.1776 29.4126 29.375 25.2152 29.375 20.0376C29.375 18.33 28.9184 16.729 28.1208 15.3501" stroke="#313131" stroke-width="1.5" stroke-linecap="round"/>
</svg>
