<svg width="31" height="31" viewBox="0 0 31 31" fill="none" xmlns="http://www.w3.org/2000/svg">
<path d="M5.04309 12.7847V17.4722C5.04309 19.6819 5.04309 20.7867 5.72956 21.4732C6.41602 22.1597 7.52088 22.1597 9.73059 22.1597H21.4493C23.659 22.1597 24.7639 22.1597 25.4504 21.4732C26.1368 20.7867 26.1368 19.6819 26.1368 17.4722V11.6128C26.1368 8.29823 26.1368 6.64095 25.1071 5.61125C24.0774 4.58154 22.4201 4.58154 19.1056 4.58154H12.0743C8.75977 4.58154 7.1025 4.58154 6.07279 5.61125C5.4987 6.18534 5.24469 6.95448 5.13229 8.09717" stroke="#313131" stroke-width="1.875" stroke-linecap="round"/>
<path d="M27.3087 25.6753H20.2775M3.87122 25.6753H15.59" stroke="#313131" stroke-width="1.875" stroke-linecap="round"/>
<path d="M19.1056 18.644H12.0743" stroke="#313131" stroke-width="1.875" stroke-linecap="round"/>
</svg>
