<svg width="20" height="20" viewBox="0 0 20 20" fill="none" xmlns="http://www.w3.org/2000/svg">
<path d="M9.39375 5.4463C9.78226 5.30436 10.2177 5.30436 10.6062 5.4463L12.4359 6.11469C12.8339 6.26008 12.8339 6.76336 12.4359 6.90875L10.6062 7.57713C10.2177 7.71908 9.78226 7.71908 9.39375 7.57713L7.56411 6.90874C7.16613 6.76335 7.16613 6.26008 7.56411 6.11469L9.39375 5.4463Z" stroke="white" stroke-width="1.25"/>
<path d="M11.9531 7.29297V9.4025C11.9531 9.70633 11.777 9.98352 11.492 10.0887C11.091 10.2366 10.498 10.418 10 10.418C9.50195 10.418 8.90898 10.2366 8.50805 10.0887C8.22298 9.98352 8.04688 9.70633 8.04688 9.4025V7.29297" stroke="white" stroke-width="1.25" stroke-linecap="round"/>
<path d="M4.53125 12.1493C4.02542 10.8572 3.75 9.48148 3.75 8.18617C3.75 4.67256 6.54822 1.82422 10 1.82422C13.4518 1.82422 16.25 4.67256 16.25 8.18617C16.25 11.6723 14.2552 15.7402 11.1429 17.1948C10.4174 17.534 9.58258 17.534 8.85711 17.1948C7.86308 16.7302 6.98305 15.9991 6.24561 15.1055" stroke="white" stroke-width="1.25" stroke-linecap="round"/>
</svg>
