<svg width="14" height="14" viewBox="0 0 14 14" fill="none" xmlns="http://www.w3.org/2000/svg">
<path d="M7.58984 4.84235C7.50727 4.8285 7.42247 4.82129 7.33594 4.82129C6.49454 4.82129 5.8125 5.50336 5.8125 6.34473C5.8125 7.18612 6.49454 7.86816 7.33594 7.86816C8.17733 7.86816 8.85938 7.18612 8.85938 6.34473C8.85938 6.25822 8.85216 6.17339 8.8383 6.09082" stroke="#313131" stroke-width="0.8125" stroke-linecap="round"/>
<path d="M3.78125 8.99353C3.45246 8.15366 3.27344 7.25945 3.27344 6.4175C3.27344 4.13365 5.09228 2.28223 7.33594 2.28223C9.57961 2.28223 11.3984 4.13365 11.3984 6.4175C11.3984 8.68346 10.1018 11.3276 8.07882 12.2731C7.60726 12.4936 7.06461 12.4936 6.59306 12.2731C5.94694 11.9711 5.37492 11.4959 4.89558 10.915" stroke="#313131" stroke-width="0.8125" stroke-linecap="round"/>
</svg>
