<svg width="1045" height="244" viewBox="0 0 1045 244" fill="none" xmlns="http://www.w3.org/2000/svg">
<g clip-path="url(#clip0_6612_603)">
<path d="M943.43 230.01C942.11 230.72 940.56 231.5 939 232.27C940.53 231.54 942.02 230.8 943.43 230.01Z" fill="url(#paint0_linear_6612_603)"/>
<path d="M913.42 240.39C917.88 237.21 921.71 231.27 924.59 222.65C928.69 221.89 932.7 220.92 936.64 219.83C934.06 219.32 931.46 218.77 928.86 218.18C927.86 218.4 926.8 218.65 925.76 218.84C925.87 218.43 925.97 217.98 926.08 217.57C923.08 216.87 920.08 216.12 917.08 215.32C916.73 217.06 916.37 218.75 915.97 220.32C896.382 222.589 876.555 221.627 857.28 217.47C857.49 211.67 857.98 204.88 858.79 197.14C858.88 196.23 859 195.28 859.1 194.35C855.807 192.837 852.537 191.274 849.29 189.66C849.09 191.34 848.88 193.03 848.71 194.66C847.966 201.439 847.565 208.251 847.51 215.07C828.82 209.92 811.51 201.74 797.86 190.85C796.808 183.837 796.683 176.716 797.49 169.67C797.82 166.51 798.32 163.31 798.94 160.08C798 159.82 797.07 159.55 796.18 159.28C794.46 159.61 792.74 159.88 791.02 160.14C790.86 161.33 790.71 162.5 790.59 163.68C789.774 170.789 789.969 177.977 791.17 185.03C785.796 179.996 781.193 174.197 777.51 167.82C777.139 167.927 776.761 168.011 776.38 168.07C780.246 176.096 785.589 183.322 792.13 189.37C794.225 198.053 798.732 205.968 805.13 212.2L810.13 216.68L813.13 219.18L818.47 223.18C828.772 230.257 840.216 235.507 852.3 238.7C853.012 239.575 853.97 240.216 855.05 240.54L859.49 241.69L861.63 242.17C861.211 242.043 860.822 241.83 860.489 241.547C860.155 241.263 859.883 240.913 859.69 240.52C874.283 243.662 889.292 244.388 904.12 242.67C903.029 243.343 901.81 243.779 900.54 243.95L905.67 243.21L907.8 242.84C909.102 242.588 910.362 242.15 911.54 241.54C919.074 240.181 926.428 237.967 933.46 234.94H933.53C935.18 234.15 937.13 233.22 939.05 232.27C938.19 232.68 937.34 233.09 936.45 233.48C929.059 236.646 921.333 238.965 913.42 240.39ZM811.87 218.18C805.53 212.64 801.01 204.87 798.7 195.11C812.18 205.84 829.17 213.88 847.57 218.95C847.86 227.72 849.15 233.95 851.29 237.41C836.45 233.33 822.75 226.84 811.87 218.18ZM905.64 241.58C890.088 243.382 874.345 242.618 859.04 239.32C857.73 236.03 857.04 229.99 857.17 221.32C876.147 225.411 895.666 226.357 914.95 224.12C912.46 232.68 909.28 238.53 905.64 241.58Z" fill="url(#paint1_linear_6612_603)"/>
<path d="M819.64 30.6299C820.8 29.7899 822 28.9599 823.26 28.1699L819.64 30.6299Z" fill="url(#paint2_linear_6612_603)"/>
<path d="M1003.37 116.4C1003.37 116.21 1003.37 116.02 1003.32 115.83L1002.75 111.01L1002.16 107.27C1002.4 108.63 1002.57 109.97 1002.69 111.27C1000.53 99.2432 995.487 87.9194 987.99 78.2701C987.19 68.9301 982.99 59.4 975.23 50.49L972.03 46.9501L969.79 44.6401C969.61 44.4501 969.43 44.27 969.24 44.09L968.91 43.79L969.41 44.2701C978.76 53.7301 983.78 64.04 984.64 74.15C975.882 64.2118 965.284 56.062 953.43 50.15C952.87 43.67 949.65 37.0601 943.63 31.0101C953.1 32.7751 961.87 37.2051 968.91 43.78C966.91 41.88 964.49 39.6901 962.6 37.9601C948.6 26.0501 926.46 23.9601 900.24 34.1901L900.53 34.4501C914.71 30.0201 927.8 28.7601 939.21 30.2701C944.66 35.7401 947.58 41.7201 948.07 47.5801C933.326 41.082 917.544 37.2558 901.46 36.28C901.46 36.38 901.46 36.48 901.46 36.59C917.703 38.5225 933.487 43.2595 948.11 50.59C947.79 56.36 945.11 61.92 940.11 66.59C928.477 55.2 915.166 45.6624 900.64 38.3101C900.547 38.4011 900.447 38.4847 900.34 38.5601C914.122 46.8129 926.594 57.0798 937.34 69.0201C934.463 71.1735 931.341 72.9793 928.04 74.4C923.677 76.2751 919.114 77.6473 914.44 78.49C910.227 65.0019 904.693 51.9621 897.92 39.5601L897.43 39.6301C902.637 52.4525 906.784 65.6801 909.83 79.18C900.626 80.2517 891.308 79.8024 882.25 77.85C886.25 63.47 890.42 50.32 894.51 39.49L894.01 39.36C887.766 51.4569 882.299 63.9388 877.64 76.73C869.184 74.5272 861.252 70.6583 854.31 65.35C865.416 54.6252 877.947 45.4825 891.55 38.18C891.511 38.1386 891.468 38.1017 891.42 38.0701L891.23 37.8901C876.779 44.1743 863.307 52.5064 851.23 62.6301C845.54 57.2101 842.38 51.2501 841.64 45.3801C857.217 39.6079 873.643 36.4618 890.25 36.0701C890.25 35.9601 890.25 35.8601 890.25 35.7501C873.744 35.1737 857.259 37.4054 841.5 42.35C841.6 36.55 844.09 30.95 848.85 26.16C861.91 25.77 876.21 28.29 891.04 34.04L891.31 33.78C877.31 27.26 863.84 24.01 851.51 23.78C854.598 21.3329 858.002 19.3146 861.63 17.78C865.595 16.0705 869.727 14.7801 873.96 13.93C880.21 16.86 886.91 23.1 893.68 32.8L894.17 32.7101C888.86 22.7701 883.54 16.29 878.52 13.15C887.7 11.9309 897.019 12.235 906.1 14.05C903.66 16.95 900.62 23.16 897.1 32.8L897.59 32.92C902.59 23.6 907.07 17.72 910.75 15.11C920.37 17.59 929.23 21.75 936.08 27.42C937.46 27.51 938.83 27.66 940.15 27.86C932.59 21.59 922.79 16.9901 912.15 14.2501C913.274 13.5985 914.603 13.395 915.87 13.68L913.25 13.03L909.25 12.17C908.828 12.1332 908.404 12.1964 908.011 12.3545C907.619 12.5127 907.269 12.7613 906.99 13.0801C896.958 11.0671 886.662 10.7292 876.52 12.0801C874.555 11.1165 872.353 10.7447 870.18 11.0101L867.04 11.49L862.76 12.28C865.67 11.7156 868.678 11.9435 871.47 12.9401C866.785 13.8733 862.21 15.2944 857.82 17.18C853.814 18.8759 850.053 21.1025 846.64 23.8C836.111 24.0977 825.849 27.1826 816.9 32.74C817.79 32.02 818.72 31.3201 819.68 30.6301C818.13 31.6901 816.57 32.77 815.28 33.73C814.64 34.21 814.02 34.7301 813.41 35.1901L812.01 36.29L807.48 40.18L802.7 44.74C804.541 42.8592 806.516 41.1146 808.61 39.5201C800 48.1701 795.51 58.3 795.33 68.79C785.936 77.4862 778.589 88.1597 773.82 100.04C773.918 94.4779 775.033 88.9807 777.11 83.8201L774.24 91.8901C772.886 96.1347 772.161 100.555 772.09 105.01C770.672 109.551 769.704 114.22 769.2 118.95L770.26 120.74C770.794 117.636 771.525 114.57 772.45 111.56C773.255 117.684 775.134 123.618 778 129.09L780.27 128.34C780.88 128.13 781.41 127.98 781.9 127.86C777.847 121.373 775.215 114.099 774.18 106.52C778.983 94.3702 786.296 83.3706 795.64 74.24C796.97 84.85 802.64 95.61 812.96 105.42C806.717 114.951 801.517 125.126 797.45 135.77L798.57 135.87C801.05 136.12 803.47 136.42 805.8 136.77C809.355 127.629 813.649 118.793 818.64 110.35C821.893 112.922 825.306 115.283 828.86 117.42C829.41 116.891 830.107 116.542 830.86 116.42C831.192 116.377 831.528 116.377 831.86 116.42C832.677 116.506 833.442 116.858 834.04 117.42L835.48 118.8C835.633 118.945 835.773 119.102 835.9 119.27C836.514 120.09 836.947 121.031 837.17 122.03C844.742 125.768 852.651 128.782 860.79 131.03C857.03 145.61 853.88 160.2 851.59 173.95C849.02 173.24 846.49 172.46 843.98 171.64C846.42 173.03 848.87 174.36 851.31 175.64C854.49 177.333 857.667 178.957 860.84 180.51C862.77 181.51 864.7 182.37 866.63 183.27C884.379 186.502 902.509 187.088 920.43 185.01C920.21 190.25 919.84 195.32 919.34 200.17C919.34 200.59 919.24 200.96 919.2 201.37C922.43 202.09 925.65 202.73 928.87 203.31C929.08 201.78 929.28 200.23 929.45 198.62C929.95 193.77 930.27 188.71 930.45 183.49C940.591 181.664 950.489 178.681 959.95 174.6C967.115 171.542 973.882 167.623 980.1 162.93C980.379 167.898 980.266 172.88 979.76 177.83C979.067 185.025 977.314 192.077 974.56 198.76C970.666 201.691 966.538 204.299 962.22 206.56C963.93 206.56 965.63 206.56 967.33 206.56C969.17 205.37 970.96 204.15 972.62 202.88C971.98 204.12 971.29 205.31 970.62 206.48L973.01 206.39C975.078 203.732 976.915 200.902 978.5 197.93C982.915 193.813 986.66 189.032 989.6 183.76L992.05 178.85C989.032 184.395 985.139 189.416 980.52 193.72C983.398 187.015 985.216 179.903 985.91 172.64C986.415 167.713 986.508 162.753 986.19 157.81C996.99 147.59 1002.86 135.54 1003.57 123C1003.71 124.42 1003.77 125.85 1003.82 127.29C1003.82 123.85 1003.68 120.29 1003.55 117.35C1003.43 116.98 1003.4 116.69 1003.37 116.4ZM953.48 53.48C965.388 60.1283 975.977 68.9034 984.72 79.37C984.15 89.37 979.45 99.04 970.8 107.22C963.735 94.0882 954.937 81.9662 944.64 71.18C950.13 66.01 953.12 59.87 953.48 53.48ZM880.69 83.6C890.697 85.7619 900.991 86.2619 911.16 85.0801C914.285 99.5831 916.649 114.24 918.24 128.99C902.265 130.844 886.093 130.064 870.37 126.68C873.5 111.94 877 97.3 880.69 83.6ZM812.29 36.91C821.745 30.9029 832.531 27.3109 843.7 26.4501C838.44 31.7401 835.7 37.94 835.59 44.35C822.458 49.0918 810.255 56.0902 799.53 65.03C799.7 54.96 804.02 45.23 812.29 36.91ZM816.45 100.23C806.56 90.8 801.09 80.46 799.81 70.28C810.481 60.8146 822.646 53.1814 835.81 47.6901C836.62 54.1801 840.12 60.7601 846.41 66.7601C835.155 76.7126 825.1 87.9453 816.45 100.23ZM821.91 104.97C829.937 92.2794 839.297 80.4825 849.83 69.78C857.509 75.6521 866.284 79.9293 875.64 82.36C870.84 95.78 866.35 110.19 862.44 124.72C847.15 120.51 833.08 113.86 821.91 104.97ZM920.64 179.12C900.886 181.413 880.89 180.444 861.45 176.25C863.45 162.43 866.08 147.71 869.11 132.95C885.469 136.482 902.297 137.296 918.92 135.36C920.326 149.902 920.9 164.513 920.64 179.12ZM916.27 84.3C921.425 83.3656 926.457 81.8492 931.27 79.78C934.92 78.2145 938.371 76.2205 941.55 73.84C951.229 85.2642 959.433 97.8596 965.97 111.33C960.986 115.082 955.567 118.218 949.83 120.67C942.256 123.931 934.335 126.316 926.22 127.78C923.842 113.084 920.505 98.5599 916.23 84.3H916.27ZM959.64 168.83C950.273 172.849 940.48 175.794 930.45 177.61C930.404 163.047 929.308 148.506 927.17 134.1C935.614 132.573 943.857 130.09 951.74 126.7C957.711 124.149 963.352 120.885 968.54 116.98C974.27 129.767 978.013 143.353 979.64 157.27C973.458 161.906 966.744 165.787 959.64 168.83ZM985.58 152.18C983.791 138.441 979.736 125.093 973.58 112.68C982.58 104.16 987.47 94.13 988.06 83.68C995.542 93.7341 1000.58 105.392 1002.78 117.73C1002.09 130.18 996.27 142.08 985.58 152.18Z" fill="url(#paint3_linear_6612_603)"/>
<path d="M1003.72 127.18C1003.72 129.53 1003.72 131.83 1003.72 133.85C1003.81 131.64 1003.8 129.42 1003.72 127.18Z" fill="url(#paint4_linear_6612_603)"/>
<path d="M755.41 121.92L758.16 111.18C720.29 70.7004 718.8 34.2904 759.33 23.6904C762.782 22.8098 766.286 22.1419 769.82 21.6904C777.19 20.6904 792.48 20.8004 803.28 21.3404L805.87 21.4304C810.24 21.5604 818.25 21.7704 819.51 21.8704C824.17 19.8816 828.991 18.2926 833.92 17.1204C831.24 16.6304 821.56 14.6404 816.72 13.7804L814.82 13.4704C795.21 10.6504 770.91 9.02037 757.14 10.8404C753.201 11.3503 749.297 12.1017 745.45 13.0904C696.5 25.8504 702.49 72.3804 755.41 121.92Z" fill="url(#paint5_linear_6612_603)"/>
<path d="M1018.18 125.18C1018 124.96 1017.4 124.27 1016.6 123.36C1015.14 121.7 1012.97 119.28 1011.13 117.43C1011.3 120.447 1011.3 123.472 1011.13 126.49C1012.99 128.823 1014.69 131.271 1016.24 133.82C1016.83 134.76 1017.24 135.46 1017.37 135.68C1034.61 168.48 1029.53 198.6 998.56 206.68C995.115 207.564 991.619 208.232 988.09 208.68C981.971 209.504 975.812 210.004 969.64 210.18H968.03C965.71 210.18 963.36 210.18 961.03 210.18C959.03 210.14 957.03 210.07 955.03 209.97C946.08 209.513 937.169 208.485 928.35 206.89C925.19 206.33 922.004 205.693 918.79 204.98C898.578 200.367 878.968 193.431 860.35 184.31C857.15 182.763 853.937 181.136 850.71 179.43C845.13 176.49 839.514 173.316 833.86 169.91L823.32 169.33L820.32 169.16C829.85 175.16 839.74 180.71 849.83 185.76C853.064 187.38 856.317 188.95 859.59 190.47C878.345 199.196 897.826 206.27 917.81 211.61C920.9 212.43 923.98 213.21 927.03 213.92C930.49 214.733 933.927 215.47 937.34 216.13C939.69 216.6 942.03 217.02 944.34 217.42C949.34 218.27 954.34 218.96 959.19 219.49C974.24 221.13 988.34 221.21 1000.81 219.55C1004.74 219.03 1008.63 218.269 1012.47 217.27C1054.99 206.18 1053.44 167.18 1018.18 125.18Z" fill="url(#paint6_linear_6612_603)"/>
<path d="M833.83 160.7C833.83 160.7 841.78 158.19 835.27 151.16C835.27 151.16 831.62 146.91 819.04 143.34C820.37 142.15 822.77 139.93 825.23 137.34L828.37 139.68C828.538 139.833 828.723 139.968 828.92 140.08C829.299 140.291 829.722 140.412 830.155 140.431C830.588 140.45 831.02 140.368 831.416 140.192C831.812 140.015 832.161 139.748 832.436 139.413C832.711 139.078 832.904 138.683 833 138.26C833.153 137.78 833.183 137.269 833.087 136.775C832.991 136.28 832.772 135.818 832.45 135.43C832.111 135.031 831.668 134.734 831.17 134.57H830.91L828.8 133.3C832.34 128.88 834.89 124.22 832.88 121.52L831.44 120.15C831.44 120.15 826.96 128.52 807.19 140.84C806.3 140.69 805.38 140.56 804.43 140.42C802.07 140.094 799.537 139.797 796.83 139.53L796.12 139.42L789.74 138.42L783.03 137.42L776.36 136.42L780.91 134.25L784 132.77C784.232 132.523 784.415 132.235 784.54 131.92C784.6 131.68 784.54 131.48 784.19 131.41C783.247 131.393 782.311 131.584 781.45 131.97L779.84 132.51L774 134.45L769.46 126.81L768.79 125.68L765.42 119.98C765.42 119.98 762.57 114.49 763.42 121.27C763.42 121.27 765.19 130.63 767.86 135.27L753.17 138.33C753.17 138.33 751.02 139.28 754.17 139.43L768.66 139.31C768.93 139.86 769.231 140.394 769.56 140.91C769.7 141.13 769.81 141.33 769.97 141.56C771.68 143.828 773.812 145.743 776.25 147.2C778.443 148.59 780.747 149.794 783.14 150.8C768.941 152.691 754.575 152.986 740.31 151.68C740.31 151.68 731.45 151.76 747.21 156.3C747.21 156.3 748.21 159.13 748.68 160.56C749.31 162.35 752.89 162.21 753.1 160.32C753.013 159.308 752.727 158.323 752.26 157.42C757.95 158.283 763.708 158.618 769.46 158.42C770.504 160.227 771.659 161.967 772.92 163.63C773.415 164.15 774.093 164.458 774.81 164.49C775.086 164.525 775.364 164.525 775.64 164.49C777.16 164.32 778.64 163.39 778.96 162.36C779.175 161.711 779.175 161.01 778.96 160.36C778.816 159.939 778.588 159.551 778.29 159.22L777.59 158.02C782.1 157.69 786.81 157.14 791.64 156.36C793.21 156.1 794.78 155.83 796.37 155.52C797.43 155.84 798.54 156.17 799.71 156.52C800.88 156.87 802.18 157.22 803.51 157.58C806.32 158.34 809.4 159.13 812.81 159.96C815.01 160.495 817.236 160.912 819.48 161.21C823.8 161.72 829.42 162.03 833.83 160.7Z" fill="url(#paint7_linear_6612_603)"/>
</g>
<path d="M91.961 206.7H95.666L86.54 234H82.445L74.996 212.199L67.547 234H63.374L54.248 206.7H58.265L65.636 228.891L73.319 206.7H76.907L84.434 229.008L91.961 206.7ZM107.182 234.234C100.981 234.234 96.4183 229.827 96.4183 223.665C96.4183 217.503 100.981 213.135 107.182 213.135C113.383 213.135 117.907 217.503 117.907 223.665C117.907 229.827 113.383 234.234 107.182 234.234ZM107.182 230.958C111.16 230.958 114.124 228.072 114.124 223.665C114.124 219.258 111.16 216.411 107.182 216.411C103.204 216.411 100.201 219.258 100.201 223.665C100.201 228.072 103.204 230.958 107.182 230.958ZM126.673 216.801C127.999 214.383 130.573 213.135 134.2 213.135V216.762C133.888 216.723 133.615 216.723 133.342 216.723C129.325 216.723 126.829 219.18 126.829 223.704V234H123.085V213.33H126.673V216.801ZM138.815 234V205.062H142.559V234H138.815ZM165.463 205.062H169.207V234H165.619V230.724C163.942 233.064 161.29 234.234 158.248 234.234C152.203 234.234 147.796 229.983 147.796 223.665C147.796 217.347 152.203 213.135 158.248 213.135C161.173 213.135 163.747 214.227 165.463 216.45V205.062ZM158.56 230.958C162.499 230.958 165.502 228.072 165.502 223.665C165.502 219.258 162.499 216.411 158.56 216.411C154.582 216.411 151.579 219.258 151.579 223.665C151.579 228.072 154.582 230.958 158.56 230.958ZM204.215 213.33H207.569L199.847 234H196.259L190.292 218.322L184.247 234H180.659L172.976 213.33H176.525L182.531 229.788L188.771 213.33H191.93L198.053 229.866L204.215 213.33ZM213.24 209.352C211.797 209.352 210.705 208.299 210.705 206.934C210.705 205.569 211.797 204.477 213.24 204.477C214.683 204.477 215.775 205.53 215.775 206.856C215.775 208.26 214.722 209.352 213.24 209.352ZM211.368 234V213.33H215.112V234H211.368ZM238.017 205.062H241.761V234H238.173V230.724C236.496 233.064 233.844 234.234 230.802 234.234C224.757 234.234 220.35 229.983 220.35 223.665C220.35 217.347 224.757 213.135 230.802 213.135C233.727 213.135 236.301 214.227 238.017 216.45V205.062ZM231.114 230.958C235.053 230.958 238.056 228.072 238.056 223.665C238.056 219.258 235.053 216.411 231.114 216.411C227.136 216.411 224.133 219.258 224.133 223.665C224.133 228.072 227.136 230.958 231.114 230.958ZM267.526 223.782C267.526 224.094 267.487 224.562 267.448 224.913H250.678C251.146 228.54 254.071 230.958 258.166 230.958C260.584 230.958 262.612 230.139 264.133 228.462L266.2 230.88C264.328 233.064 261.481 234.234 258.049 234.234C251.38 234.234 246.934 229.827 246.934 223.665C246.934 217.542 251.341 213.135 257.308 213.135C263.275 213.135 267.526 217.425 267.526 223.782ZM257.308 216.294C253.72 216.294 251.068 218.712 250.678 222.222H263.938C263.548 218.751 260.935 216.294 257.308 216.294ZM304.141 234L301.138 227.175H286.63L283.627 234H279.61L291.973 206.7H295.834L308.236 234H304.141ZM287.995 224.055H299.773L293.884 210.678L287.995 224.055ZM327.328 205.062H331.072V234H327.484V230.724C325.807 233.064 323.155 234.234 320.113 234.234C314.068 234.234 309.661 229.983 309.661 223.665C309.661 217.347 314.068 213.135 320.113 213.135C323.038 213.135 325.612 214.227 327.328 216.45V205.062ZM320.425 230.958C324.364 230.958 327.367 228.072 327.367 223.665C327.367 219.258 324.364 216.411 320.425 216.411C316.447 216.411 313.444 219.258 313.444 223.665C313.444 228.072 316.447 230.958 320.425 230.958ZM364.013 213.135C369.044 213.135 372.476 216.021 372.476 222.105V234H368.732V222.534C368.732 218.478 366.782 216.489 363.389 216.489C359.645 216.489 357.188 218.868 357.188 223.353V234H353.444V222.534C353.444 218.478 351.494 216.489 348.101 216.489C344.357 216.489 341.9 218.868 341.9 223.353V234H338.156V213.33H341.744V216.411C343.226 214.305 345.761 213.135 348.881 213.135C352.04 213.135 354.692 214.383 356.057 216.957C357.617 214.617 360.503 213.135 364.013 213.135ZM381.237 209.352C379.794 209.352 378.702 208.299 378.702 206.934C378.702 205.569 379.794 204.477 381.237 204.477C382.68 204.477 383.772 205.53 383.772 206.856C383.772 208.26 382.719 209.352 381.237 209.352ZM379.365 234V213.33H383.109V234H379.365ZM396.186 234.234C392.754 234.234 389.361 233.181 387.645 231.816L389.205 228.852C390.96 230.1 393.768 230.997 396.459 230.997C399.93 230.997 401.373 229.944 401.373 228.189C401.373 223.548 388.308 227.565 388.308 219.336C388.308 215.631 391.623 213.135 396.927 213.135C399.618 213.135 402.66 213.837 404.454 215.007L402.855 217.971C400.983 216.762 398.916 216.333 396.888 216.333C393.612 216.333 392.013 217.542 392.013 219.18C392.013 224.055 405.117 220.077 405.117 228.111C405.117 231.855 401.685 234.234 396.186 234.234ZM415.724 234.234C412.292 234.234 408.899 233.181 407.183 231.816L408.743 228.852C410.498 230.1 413.306 230.997 415.997 230.997C419.468 230.997 420.911 229.944 420.911 228.189C420.911 223.548 407.846 227.565 407.846 219.336C407.846 215.631 411.161 213.135 416.465 213.135C419.156 213.135 422.198 213.837 423.992 215.007L422.393 217.971C420.521 216.762 418.454 216.333 416.426 216.333C413.15 216.333 411.551 217.542 411.551 219.18C411.551 224.055 424.655 220.077 424.655 228.111C424.655 231.855 421.223 234.234 415.724 234.234ZM431.206 209.352C429.763 209.352 428.671 208.299 428.671 206.934C428.671 205.569 429.763 204.477 431.206 204.477C432.649 204.477 433.741 205.53 433.741 206.856C433.741 208.26 432.688 209.352 431.206 209.352ZM429.334 234V213.33H433.078V234H429.334ZM449.08 234.234C442.879 234.234 438.316 229.827 438.316 223.665C438.316 217.503 442.879 213.135 449.08 213.135C455.281 213.135 459.805 217.503 459.805 223.665C459.805 229.827 455.281 234.234 449.08 234.234ZM449.08 230.958C453.058 230.958 456.022 228.072 456.022 223.665C456.022 219.258 453.058 216.411 449.08 216.411C445.102 216.411 442.099 219.258 442.099 223.665C442.099 228.072 445.102 230.958 449.08 230.958ZM476.02 213.135C481.051 213.135 484.6 216.021 484.6 222.105V234H480.856V222.534C480.856 218.478 478.828 216.489 475.279 216.489C471.301 216.489 468.727 218.868 468.727 223.353V234H464.983V213.33H468.571V216.45C470.092 214.344 472.744 213.135 476.02 213.135ZM497.456 234.234C494.024 234.234 490.631 233.181 488.915 231.816L490.475 228.852C492.23 230.1 495.038 230.997 497.729 230.997C501.2 230.997 502.643 229.944 502.643 228.189C502.643 223.548 489.578 227.565 489.578 219.336C489.578 215.631 492.893 213.135 498.197 213.135C500.888 213.135 503.93 213.837 505.724 215.007L504.125 217.971C502.253 216.762 500.186 216.333 498.158 216.333C494.882 216.333 493.283 217.542 493.283 219.18C493.283 224.055 506.387 220.077 506.387 228.111C506.387 231.855 502.955 234.234 497.456 234.234ZM541.664 206.7H545.564V234H541.664V221.832H525.986V234H522.086V206.7H525.986V218.439H541.664V206.7ZM568.712 213.33H572.456V234H568.907V230.88C567.386 233.025 564.812 234.234 561.887 234.234C556.544 234.234 552.995 231.309 552.995 225.225V213.33H556.739V224.796C556.739 228.852 558.767 230.88 562.316 230.88C566.216 230.88 568.712 228.462 568.712 224.016V213.33ZM590.542 213.135C596.587 213.135 600.994 217.347 600.994 223.665C600.994 229.983 596.587 234.234 590.542 234.234C587.5 234.234 584.848 233.064 583.171 230.724V234H579.583V205.062H583.327V216.45C585.043 214.227 587.617 213.135 590.542 213.135ZM590.23 230.958C594.208 230.958 597.211 228.072 597.211 223.665C597.211 219.258 594.208 216.411 590.23 216.411C586.291 216.411 583.288 219.258 583.288 223.665C583.288 228.072 586.291 230.958 590.23 230.958Z" fill="white"/>
<g clip-path="url(#clip1_6612_603)">
<path d="M490.87 126.69L510.46 72.04H586.6L571.12 127.01L490.87 126.69Z" fill="url(#paint8_linear_6612_603)"/>
<path d="M453.29 109.13L428.22 190.01L365.14 0.0703125H415.69L453.29 109.13Z" fill="url(#paint9_linear_6612_603)"/>
<path d="M598.13 190.01L656.34 0.130312L606.58 0.0703125L547.94 189.97L598.13 190.01Z" fill="url(#paint10_linear_6612_603)"/>
<path d="M331.59 109.13L306.52 190.01L243.44 0.0703125H293.4L331.59 109.13Z" fill="url(#paint11_linear_6612_603)"/>
<path d="M363.45 168.26L378.17 112.92L454.1 113.11L437.17 168.4L363.45 168.26Z" fill="url(#paint12_linear_6612_603)"/>
<path d="M356.7 190.01L414.91 0.130312L365.15 0.0703125L306.51 189.97L356.7 190.01Z" fill="url(#paint13_linear_6612_603)"/>
<path d="M88.15 109.13L63.08 190.01L0 0.0703125H55.17L88.15 109.13Z" fill="url(#paint14_linear_6612_603)"/>
<path d="M210.3 110.47L184.77 190.08L121.69 0H171.31L210.3 110.47Z" fill="url(#paint15_linear_6612_603)"/>
<path d="M113.26 190.01L171.47 0.130312L121.72 0.0703125L63.0801 189.97L113.26 190.01Z" fill="url(#paint16_linear_6612_603)"/>
<path d="M234.93 190.01L293.25 0.0703125H243.7L184.74 189.97L234.93 190.01Z" fill="url(#paint17_linear_6612_603)"/>
<path d="M478.3 190.01L536.51 0.130312L486.76 0.0703125L428.12 189.97L478.3 190.01Z" fill="url(#paint18_linear_6612_603)"/>
</g>
<defs>
<linearGradient id="paint0_linear_6612_603" x1="940.66" y1="232.82" x2="941.77" y2="229.46" gradientUnits="userSpaceOnUse">
<stop stop-color="#8A0304"/>
<stop offset="1" stop-color="#EC1C24"/>
</linearGradient>
<linearGradient id="paint1_linear_6612_603" x1="845.37" y1="237.4" x2="863.84" y2="181.58" gradientUnits="userSpaceOnUse">
<stop stop-color="#8A0304"/>
<stop offset="1" stop-color="#EC1C24"/>
</linearGradient>
<linearGradient id="paint2_linear_6612_603" x1="820.94" y1="31.0499" x2="822.04" y2="27.7499" gradientUnits="userSpaceOnUse">
<stop stop-color="#8A0304"/>
<stop offset="1" stop-color="#EC1C24"/>
</linearGradient>
<linearGradient id="paint3_linear_6612_603" x1="866.99" y1="184.02" x2="922.63" y2="15.8701" gradientUnits="userSpaceOnUse">
<stop stop-color="#8A0304"/>
<stop offset="1" stop-color="#EC1C24"/>
</linearGradient>
<linearGradient id="paint4_linear_6612_603" x1="1002.7" y1="133.56" x2="1004.7" y2="127.53" gradientUnits="userSpaceOnUse">
<stop stop-color="#8A0304"/>
<stop offset="1" stop-color="#EC1C24"/>
</linearGradient>
<linearGradient id="paint5_linear_6612_603" x1="712" y1="65.9604" x2="833.92" y2="65.9604" gradientUnits="userSpaceOnUse">
<stop stop-color="#F16522"/>
<stop offset="1" stop-color="#EDDB00"/>
</linearGradient>
<linearGradient id="paint6_linear_6612_603" x1="820.26" y1="169.12" x2="1044.51" y2="169.12" gradientUnits="userSpaceOnUse">
<stop stop-color="#F16522"/>
<stop offset="1" stop-color="#EDDB00"/>
</linearGradient>
<linearGradient id="paint7_linear_6612_603" x1="737.86" y1="141.12" x2="837.83" y2="141.12" gradientUnits="userSpaceOnUse">
<stop stop-color="#F16522"/>
<stop offset="1" stop-color="#EDDB00"/>
</linearGradient>
<linearGradient id="paint8_linear_6612_603" x1="490.87" y1="99.52" x2="586.6" y2="99.52" gradientUnits="userSpaceOnUse">
<stop offset="0.16" stop-color="#F16522"/>
<stop offset="0.33" stop-color="#F0761D"/>
<stop offset="0.65" stop-color="#EFA310"/>
<stop offset="1" stop-color="#EDDB00"/>
</linearGradient>
<linearGradient id="paint9_linear_6612_603" x1="444.51" y1="165.53" x2="391.29" y2="-1.74968" gradientUnits="userSpaceOnUse">
<stop stop-color="#F16522"/>
<stop offset="0.07" stop-color="#EE5B22"/>
<stop offset="0.31" stop-color="#E43E21"/>
<stop offset="0.54" stop-color="#DD2A21"/>
<stop offset="0.78" stop-color="#D81D21"/>
<stop offset="1" stop-color="#D71921"/>
</linearGradient>
<linearGradient id="paint10_linear_6612_603" x1="571.99" y1="184.78" x2="631.44" y2="9.0703" gradientUnits="userSpaceOnUse">
<stop stop-color="#F16522"/>
<stop offset="1" stop-color="#EDDB00"/>
</linearGradient>
<linearGradient id="paint11_linear_6612_603" x1="243.44" y1="95.0403" x2="331.59" y2="95.0403" gradientUnits="userSpaceOnUse">
<stop offset="0.4" stop-color="#540000"/>
<stop offset="1" stop-color="#EC1C24"/>
</linearGradient>
<linearGradient id="paint12_linear_6612_603" x1="372.797" y1="139.099" x2="450.076" y2="142.435" gradientUnits="userSpaceOnUse">
<stop stop-color="#DB5C1E"/>
<stop offset="1" stop-color="#FCB813"/>
</linearGradient>
<linearGradient id="paint13_linear_6612_603" x1="329.6" y1="189.71" x2="386.7" y2="17.1603" gradientUnits="userSpaceOnUse">
<stop stop-color="#540000"/>
<stop offset="0.46" stop-color="#930C10"/>
<stop offset="1" stop-color="#D71921"/>
</linearGradient>
<linearGradient id="paint14_linear_6612_603" x1="80.15" y1="165.28" x2="26.93" y2="-1.99968" gradientUnits="userSpaceOnUse">
<stop stop-color="#8A0304"/>
<stop offset="1" stop-color="#EC1C24"/>
</linearGradient>
<linearGradient id="paint15_linear_6612_603" x1="201.1" y1="165.57" x2="147.84" y2="-1.81999" gradientUnits="userSpaceOnUse">
<stop offset="0.4" stop-color="#540000"/>
<stop offset="1" stop-color="#EC1C24"/>
</linearGradient>
<linearGradient id="paint16_linear_6612_603" x1="86.1701" y1="189.71" x2="143.26" y2="17.1603" gradientUnits="userSpaceOnUse">
<stop stop-color="#8A0304"/>
<stop offset="1" stop-color="#EC1C24"/>
</linearGradient>
<linearGradient id="paint17_linear_6612_603" x1="207.97" y1="189.75" x2="265.09" y2="17.1203" gradientUnits="userSpaceOnUse">
<stop stop-color="#8A0304"/>
<stop offset="1" stop-color="#EC1C24"/>
</linearGradient>
<linearGradient id="paint18_linear_6612_603" x1="451.21" y1="189.71" x2="508.3" y2="17.1603" gradientUnits="userSpaceOnUse">
<stop stop-color="#F16522"/>
<stop offset="1" stop-color="#EDDB00"/>
</linearGradient>
<clipPath id="clip0_6612_603">
<rect width="332.51" height="233.98" fill="white" transform="translate(712 10)"/>
</clipPath>
<clipPath id="clip1_6612_603">
<rect width="656.34" height="190.08" fill="white"/>
</clipPath>
</defs>
</svg>
