<svg id="Layer_1" data-name="Layer 1" xmlns="http://www.w3.org/2000/svg" xmlns:xlink="http://www.w3.org/1999/xlink" viewBox="0 0 982.13 256.76"><defs><style>.cls-1{fill:url(#linear-gradient);}.cls-2{fill:url(#linear-gradient-2);}.cls-3{fill:url(#linear-gradient-3);}.cls-4{fill:url(#linear-gradient-4);}.cls-5{fill:url(#linear-gradient-5);}.cls-6{fill:url(#linear-gradient-6);}.cls-7{fill:url(#linear-gradient-7);}.cls-8{fill:url(#linear-gradient-8);}.cls-9{font-size:41px;fill:#231f20;font-family:Montserrat-Regular, Montserrat;}.cls-10{fill:url(#linear-gradient-9);}.cls-11{fill:url(#linear-gradient-10);}.cls-12{fill:url(#linear-gradient-11);}.cls-13{fill:url(#linear-gradient-12);}.cls-14{fill:url(#linear-gradient-13);}.cls-15{fill:url(#linear-gradient-14);}.cls-16{fill:url(#linear-gradient-15);}.cls-17{fill:url(#linear-gradient-16);}.cls-18{fill:url(#linear-gradient-17);}.cls-19{fill:url(#linear-gradient-18);}.cls-20{fill:url(#linear-gradient-19);}</style><linearGradient id="linear-gradient" x1="315.02" y1="774.64" x2="316.13" y2="771.28" gradientUnits="userSpaceOnUse"><stop offset="0" stop-color="#8a0304"/><stop offset="1" stop-color="#ec1c24"/></linearGradient><linearGradient id="linear-gradient-2" x1="219.73" y1="779.22" x2="238.2" y2="723.4" xlink:href="#linear-gradient"/><linearGradient id="linear-gradient-3" x1="195.3" y1="572.87" x2="196.4" y2="569.57" xlink:href="#linear-gradient"/><linearGradient id="linear-gradient-4" x1="241.35" y1="725.84" x2="296.99" y2="557.69" xlink:href="#linear-gradient"/><linearGradient id="linear-gradient-5" x1="377.06" y1="675.38" x2="379.06" y2="669.35" xlink:href="#linear-gradient"/><linearGradient id="linear-gradient-6" x1="86.36" y1="607.78" x2="208.28" y2="607.78" gradientUnits="userSpaceOnUse"><stop offset="0" stop-color="#f16522"/><stop offset="1" stop-color="#eddb00"/></linearGradient><linearGradient id="linear-gradient-7" x1="194.62" y1="710.94" x2="418.87" y2="710.94" xlink:href="#linear-gradient-6"/><linearGradient id="linear-gradient-8" x1="112.22" y1="682.94" x2="212.19" y2="682.94" xlink:href="#linear-gradient-6"/><linearGradient id="linear-gradient-9" x1="816.66" y1="99.52" x2="912.39" y2="99.52" gradientUnits="userSpaceOnUse"><stop offset="0.16" stop-color="#f16522"/><stop offset="0.33" stop-color="#f0761d"/><stop offset="0.65" stop-color="#efa310"/><stop offset="1" stop-color="#eddb00"/></linearGradient><linearGradient id="linear-gradient-10" x1="770.3" y1="165.53" x2="717.08" y2="-1.75" gradientUnits="userSpaceOnUse"><stop offset="0" stop-color="#f16522"/><stop offset="0.07" stop-color="#ee5b22"/><stop offset="0.31" stop-color="#e43e21"/><stop offset="0.54" stop-color="#dd2a21"/><stop offset="0.78" stop-color="#d81d21"/><stop offset="1" stop-color="#d71921"/></linearGradient><linearGradient id="linear-gradient-11" x1="897.78" y1="184.78" x2="957.23" y2="9.07" xlink:href="#linear-gradient-6"/><linearGradient id="linear-gradient-12" x1="569.23" y1="95.04" x2="657.38" y2="95.04" gradientUnits="userSpaceOnUse"><stop offset="0.4" stop-color="#540000"/><stop offset="1" stop-color="#ec1c24"/></linearGradient><linearGradient id="linear-gradient-13" x1="531.54" y1="407.7" x2="508.09" y2="333.99" gradientTransform="translate(1264.25 -219.76) rotate(110.12)" gradientUnits="userSpaceOnUse"><stop offset="0" stop-color="#db5c1e"/><stop offset="1" stop-color="#fcb813"/></linearGradient><linearGradient id="linear-gradient-14" x1="655.39" y1="189.71" x2="712.49" y2="17.16" gradientUnits="userSpaceOnUse"><stop offset="0" stop-color="#540000"/><stop offset="0.46" stop-color="#930c10"/><stop offset="1" stop-color="#d71921"/></linearGradient><linearGradient id="linear-gradient-15" x1="405.95" y1="165.28" x2="352.72" y2="-2" xlink:href="#linear-gradient"/><linearGradient id="linear-gradient-16" x1="526.89" y1="165.57" x2="473.63" y2="-1.82" xlink:href="#linear-gradient-12"/><linearGradient id="linear-gradient-17" x1="411.96" y1="189.71" x2="469.05" y2="17.16" xlink:href="#linear-gradient"/><linearGradient id="linear-gradient-18" x1="533.76" y1="189.75" x2="590.89" y2="17.12" xlink:href="#linear-gradient"/><linearGradient id="linear-gradient-19" x1="777" y1="189.71" x2="834.09" y2="17.16" xlink:href="#linear-gradient-6"/></defs><path class="cls-1" d="M317.79,771.83c-1.32.71-2.87,1.49-4.43,2.26C314.89,773.36,316.38,772.62,317.79,771.83Z" transform="translate(-86.36 -544.26)"/><path class="cls-2" d="M287.78,782.21c4.46-3.18,8.29-9.12,11.17-17.74,4.1-.76,8.11-1.73,12.05-2.82-2.58-.51-5.18-1.06-7.78-1.65-1,.22-2.06.47-3.1.66.11-.41.21-.86.32-1.27-3-.7-6-1.45-9-2.25-.35,1.74-.71,3.43-1.11,5a180.11,180.11,0,0,1-58.69-2.85c.21-5.8.7-12.59,1.51-20.33.09-.91.21-1.86.31-2.79q-4.94-2.27-9.81-4.69c-.2,1.68-.41,3.37-.58,5a202,202,0,0,0-1.2,20.41c-18.69-5.15-36-13.33-49.65-24.22a80.82,80.82,0,0,1-.37-21.18c.33-3.16.83-6.36,1.45-9.59-.94-.26-1.87-.53-2.76-.8-1.72.33-3.44.6-5.16.86-.16,1.19-.31,2.36-.43,3.54a75.72,75.72,0,0,0,.58,21.35,74.94,74.94,0,0,1-13.66-17.21,9.15,9.15,0,0,1-1.13.25,70.93,70.93,0,0,0,15.75,21.3,47.39,47.39,0,0,0,13,22.83l5,4.48,3,2.5,5.34,4a108.86,108.86,0,0,0,33.83,15.52,5.64,5.64,0,0,0,2.75,1.84l4.44,1.15,2.14.48a3.2,3.2,0,0,1-1.94-1.65,136.49,136.49,0,0,0,44.43,2.15,9.15,9.15,0,0,1-3.58,1.28l5.13-.74,2.13-.37a13.86,13.86,0,0,0,3.74-1.3,100.66,100.66,0,0,0,21.92-6.6l.07,0c1.65-.79,3.6-1.72,5.52-2.67-.86.41-1.71.82-2.6,1.21A106.39,106.39,0,0,1,287.78,782.21ZM186.23,760c-6.34-5.54-10.86-13.31-13.17-23.07,13.48,10.73,30.47,18.77,48.87,23.84.29,8.77,1.58,15,3.72,18.46C210.81,775.15,197.11,768.66,186.23,760ZM280,783.4a143.06,143.06,0,0,1-46.6-2.26c-1.31-3.29-2-9.33-1.87-18a177.28,177.28,0,0,0,57.78,2.8C286.82,774.5,283.64,780.35,280,783.4Z" transform="translate(-86.36 -544.26)"/><path class="cls-3" d="M194,572.45c1.16-.84,2.36-1.67,3.62-2.46Z" transform="translate(-86.36 -544.26)"/><path class="cls-4" d="M377.73,658.22c0-.19,0-.38-.05-.57l-.57-4.82-.59-3.74c.24,1.36.41,2.7.53,4a75.55,75.55,0,0,0-14.7-33c-.8-9.34-5-18.87-12.76-27.78l-3.2-3.54-2.24-2.31c-.18-.19-.36-.37-.55-.55l-.33-.3.5.48c9.35,9.46,14.37,19.77,15.23,29.88a102.68,102.68,0,0,0-31.21-24c-.56-6.48-3.78-13.09-9.8-19.14a50.63,50.63,0,0,1,25.28,12.77c-2-1.9-4.42-4.09-6.31-5.82-14-11.91-36.14-14-62.36-3.77l.29.26c14.18-4.43,27.27-5.69,38.68-4.18,5.45,5.47,8.37,11.45,8.86,17.31a136,136,0,0,0-46.61-11.3c0,.1,0,.2,0,.31a141.36,141.36,0,0,1,46.65,14c-.32,5.77-3,11.33-8,16A159.15,159.15,0,0,0,275,580.13a2.48,2.48,0,0,1-.3.25,161.19,161.19,0,0,1,37,30.46,45.61,45.61,0,0,1-9.3,5.38,62.57,62.57,0,0,1-13.6,4.09,214.94,214.94,0,0,0-16.52-38.93l-.49.07A253.26,253.26,0,0,1,284.19,621a84.51,84.51,0,0,1-27.58-1.33c4-14.38,8.17-27.53,12.26-38.36l-.5-.13A320.92,320.92,0,0,0,252,618.55a65.65,65.65,0,0,1-23.33-11.38A168,168,0,0,1,265.91,580a.75.75,0,0,0-.13-.11l-.19-.18a164.18,164.18,0,0,0-40,24.74c-5.69-5.42-8.85-11.38-9.59-17.25a150.08,150.08,0,0,1,48.61-9.31c0-.11,0-.21,0-.32a145.84,145.84,0,0,0-48.75,6.6c.1-5.8,2.59-11.4,7.35-16.19,13.06-.39,27.36,2.13,42.19,7.88l.27-.26c-14-6.52-27.47-9.77-39.8-10a43.69,43.69,0,0,1,10.12-6,61.94,61.94,0,0,1,12.33-3.85c6.25,2.93,12.95,9.17,19.72,18.87l.49-.09c-5.31-9.94-10.63-16.42-15.65-19.56a84.18,84.18,0,0,1,27.58.9c-2.44,2.9-5.48,9.11-9,18.75l.49.12c5-9.32,9.48-15.2,13.16-17.81,9.62,2.48,18.48,6.64,25.33,12.31,1.38.09,2.75.24,4.07.44-7.56-6.27-17.36-10.87-28-13.61a5.16,5.16,0,0,1,3.72-.57l-2.62-.65-4-.86a2.69,2.69,0,0,0-2.26.91,92.68,92.68,0,0,0-30.47-1,11.29,11.29,0,0,0-6.34-1.07l-3.14.48-4.28.79a16.54,16.54,0,0,1,8.71.66A68.47,68.47,0,0,0,232.18,559,48.56,48.56,0,0,0,221,565.62a59.56,59.56,0,0,0-29.74,8.94c.89-.72,1.82-1.42,2.78-2.11-1.55,1.06-3.11,2.14-4.4,3.1-.64.48-1.26,1-1.87,1.46l-1.4,1.1L181.84,582l-4.78,4.56a54.33,54.33,0,0,1,5.91-5.22c-8.61,8.65-13.1,18.78-13.28,29.27a86.48,86.48,0,0,0-21.51,31.25,45.58,45.58,0,0,1,3.29-16.22l-2.87,8.07a45.55,45.55,0,0,0-2.15,13.12,72.5,72.5,0,0,0-2.89,13.94l1.06,1.79a73.83,73.83,0,0,1,2.19-9.18,52.54,52.54,0,0,0,5.55,17.53l2.27-.75c.61-.21,1.14-.36,1.63-.48a54.08,54.08,0,0,1-7.72-21.34A92.86,92.86,0,0,1,170,616.06c1.33,10.61,7,21.37,17.32,31.18a158.84,158.84,0,0,0-15.51,30.35l1.12.1c2.48.25,4.9.55,7.23.9A180.34,180.34,0,0,1,193,652.17a97.35,97.35,0,0,0,10.22,7.07,3.75,3.75,0,0,1,2-1,3.86,3.86,0,0,1,1,0,3.76,3.76,0,0,1,2.18,1l1.44,1.38a3.8,3.8,0,0,1,.42.47,7.25,7.25,0,0,1,1.27,2.76,133.87,133.87,0,0,0,23.62,9c-3.76,14.58-6.91,29.17-9.2,42.92-2.57-.71-5.1-1.49-7.61-2.31,2.44,1.39,4.89,2.72,7.33,4q4.77,2.54,9.53,4.87c1.93,1,3.86,1.86,5.79,2.76a182.8,182.8,0,0,0,53.8,1.74c-.22,5.24-.59,10.31-1.09,15.16,0,.42-.1.79-.14,1.2,3.23.72,6.45,1.36,9.67,1.94.21-1.53.41-3.08.58-4.69.5-4.85.82-9.91,1-15.13a134.84,134.84,0,0,0,29.5-8.89,96,96,0,0,0,20.15-11.67,94.48,94.48,0,0,1-.34,14.9,73.41,73.41,0,0,1-5.2,20.93,89.75,89.75,0,0,1-12.34,7.8c1.71,0,3.41,0,5.11,0,1.84-1.19,3.63-2.41,5.29-3.68-.64,1.24-1.33,2.43-2,3.6l2.39-.09a59,59,0,0,0,5.49-8.46,58,58,0,0,0,11.1-14.17l2.45-4.91a58.64,58.64,0,0,1-11.53,14.87,70.46,70.46,0,0,0,5.39-21.08,89.31,89.31,0,0,0,.28-14.83c10.8-10.22,16.67-22.27,17.38-34.81.14,1.42.2,2.85.25,4.29,0-3.44-.14-7-.27-9.94C377.79,658.8,377.76,658.51,377.73,658.22ZM327.84,595.3a111.58,111.58,0,0,1,31.24,25.89c-.57,10-5.27,19.67-13.92,27.85A166.3,166.3,0,0,0,319,613C324.49,607.83,327.48,601.69,327.84,595.3Zm-72.79,30.12a93.29,93.29,0,0,0,30.47,1.48,424.8,424.8,0,0,1,7.08,43.91,147,147,0,0,1-47.87-2.31C247.86,653.76,251.36,639.12,255.05,625.42Zm-68.4-46.69a68.37,68.37,0,0,1,31.41-10.46c-5.26,5.29-8,11.49-8.11,17.9a119.93,119.93,0,0,0-36.06,20.68C174.06,596.78,178.38,587.05,186.65,578.73Zm4.16,63.32c-9.89-9.43-15.36-19.77-16.64-29.95a129.21,129.21,0,0,1,36-22.59c.81,6.49,4.31,13.07,10.6,19.07A193,193,0,0,0,190.81,642.05Zm5.46,4.74a210.87,210.87,0,0,1,27.92-35.19A72.5,72.5,0,0,0,250,624.18c-4.8,13.42-9.29,27.83-13.2,42.36C221.51,662.33,207.44,655.68,196.27,646.79ZM295,720.94a181.46,181.46,0,0,1-59.19-2.87c2-13.82,4.63-28.54,7.66-43.3a152.44,152.44,0,0,0,49.81,2.41A383.92,383.92,0,0,1,295,720.94Zm-4.37-94.82a69.25,69.25,0,0,0,15-4.52,50.1,50.1,0,0,0,10.28-5.94,178.68,178.68,0,0,1,24.42,37.49,77.49,77.49,0,0,1-16.14,9.34,108.37,108.37,0,0,1-23.61,7.11A341.13,341.13,0,0,0,290.59,626.12ZM334,710.65a135.06,135.06,0,0,1-29.19,8.78,302.88,302.88,0,0,0-3.28-43.51,113.2,113.2,0,0,0,24.57-7.4,80.6,80.6,0,0,0,16.8-9.72A137.61,137.61,0,0,1,354,699.09,97,97,0,0,1,334,710.65ZM359.94,694a125.35,125.35,0,0,0-12-39.5c9-8.52,13.89-18.55,14.48-29a80.76,80.76,0,0,1,14.72,34.05C376.45,672,370.63,683.9,359.94,694Z" transform="translate(-86.36 -544.26)"/><path class="cls-5" d="M378.08,669c0,2.35,0,4.65,0,6.67C378.17,673.46,378.16,671.24,378.08,669Z" transform="translate(-86.36 -544.26)"/><path class="cls-6" d="M129.77,663.74,132.52,653c-37.87-40.48-39.36-76.89,1.17-87.49a87.1,87.1,0,0,1,10.49-2c7.37-1,22.66-.89,33.46-.35l2.59.09c4.37.13,12.38.34,13.64.44a89.41,89.41,0,0,1,14.41-4.75c-2.68-.49-12.36-2.48-17.2-3.34l-1.9-.31c-19.61-2.82-43.91-4.45-57.68-2.63a97,97,0,0,0-11.69,2.25C70.86,567.67,76.85,614.2,129.77,663.74Z" transform="translate(-86.36 -544.26)"/><path class="cls-7" d="M392.54,667c-.18-.22-.78-.91-1.58-1.82-1.46-1.66-3.63-4.08-5.47-5.93a80.81,80.81,0,0,1,0,9.06,70.76,70.76,0,0,1,5.11,7.33c.59.94,1,1.64,1.13,1.86,17.24,32.8,12.16,62.92-18.81,71a85.22,85.22,0,0,1-10.47,2A175.59,175.59,0,0,1,344,752l-1.61,0c-2.32,0-4.67,0-7,0q-3-.06-6-.21a210,210,0,0,1-26.68-3.08q-4.74-.84-9.56-1.91a268.72,268.72,0,0,1-58.44-20.67q-4.8-2.32-9.64-4.88-8.37-4.41-16.85-9.52l-10.54-.58-3-.17c9.53,6,19.42,11.55,29.51,16.6q4.85,2.43,9.76,4.71a355.56,355.56,0,0,0,58.22,21.14c3.09.82,6.17,1.6,9.22,2.31q5.19,1.22,10.31,2.21c2.35.47,4.69.89,7,1.29,5,.85,10,1.54,14.85,2.07h0c15.05,1.64,29.15,1.72,41.62.06a96.34,96.34,0,0,0,11.66-2.28C429.35,748,427.8,709,392.54,667Z" transform="translate(-86.36 -544.26)"/><path class="cls-8" d="M208.19,702.52s7.95-2.51,1.44-9.54c0,0-3.65-4.25-16.23-7.82,1.33-1.19,3.73-3.41,6.19-6l3.14,2.34a3.09,3.09,0,0,0,.55.4,2.79,2.79,0,0,0,4.08-1.82,3,3,0,0,0-.55-2.83,2.85,2.85,0,0,0-1.28-.86l-.26,0-2.11-1.27c3.54-4.42,6.09-9.08,4.08-11.78l-1.44-1.37s-4.48,8.37-24.25,20.69c-.89-.15-1.81-.28-2.76-.42q-3.54-.49-7.6-.89l-.71-.11-6.38-1-6.71-1-6.67-1,4.55-2.17,3.09-1.48a2.69,2.69,0,0,0,.54-.85c.06-.24,0-.44-.35-.51a6.4,6.4,0,0,0-2.74.56l-1.61.54-5.84,1.94-4.54-7.64-.67-1.13-3.37-5.7s-2.85-5.49-2,1.29c0,0,1.77,9.36,4.44,14l-14.69,3.06s-2.15.95,1,1.1l14.49-.12a16.68,16.68,0,0,0,.9,1.6l0,0c.14.22.25.42.41.65a22,22,0,0,0,6.28,5.64,46.72,46.72,0,0,0,6.89,3.6,191.91,191.91,0,0,1-42.83.88s-8.86.08,6.9,4.62c0,0,1,2.83,1.47,4.26.63,1.79,4.21,1.65,4.42-.24a7.76,7.76,0,0,0-.84-2.9,93.31,93.31,0,0,0,17.2,1,50.06,50.06,0,0,0,3.46,5.21,2.78,2.78,0,0,0,1.89.86,3.3,3.3,0,0,0,.83,0c1.52-.17,3-1.1,3.32-2.13a3.18,3.18,0,0,0,0-2,3.3,3.3,0,0,0-.67-1.14l-.7-1.2c4.51-.33,9.22-.88,14.05-1.66,1.57-.26,3.14-.53,4.73-.84,1.06.32,2.17.65,3.34,1s2.47.7,3.8,1.06c2.81.76,5.89,1.55,9.3,2.38a64,64,0,0,0,6.67,1.25C198.16,703.54,203.78,703.85,208.19,702.52Z" transform="translate(-86.36 -544.26)"/><text class="cls-9" transform="translate(384.58 246.02) scale(0.95 1)">Worldwide Admissions Hub</text><polygon class="cls-10" points="816.66 126.69 836.25 72.04 912.39 72.04 896.91 127.01 816.66 126.69"/><polygon class="cls-11" points="779.08 109.13 754.01 190.01 690.93 0.07 741.48 0.07 779.08 109.13"/><polygon class="cls-12" points="923.92 190.01 982.13 0.13 932.37 0.07 873.73 189.97 923.92 190.01"/><polygon class="cls-13" points="657.38 109.13 632.31 190.01 569.23 0.07 619.19 0.07 657.38 109.13"/><polygon class="cls-14" points="689.24 168.26 703.97 112.92 779.89 113.11 762.96 168.4 689.24 168.26"/><polygon class="cls-15" points="682.49 190.01 740.7 0.13 690.94 0.07 632.3 189.97 682.49 190.01"/><polygon class="cls-16" points="413.94 109.13 388.87 190.01 325.79 0.07 380.96 0.07 413.94 109.13"/><polygon class="cls-17" points="536.09 110.47 510.56 190.08 447.48 0 497.11 0 536.09 110.47"/><polygon class="cls-18" points="439.05 190.01 497.26 0.13 447.51 0.07 388.87 189.97 439.05 190.01"/><polygon class="cls-19" points="560.72 190.01 619.04 0.07 569.49 0.07 510.53 189.97 560.72 190.01"/><polygon class="cls-20" points="804.1 190.01 862.3 0.13 812.55 0.07 753.91 189.97 804.1 190.01"/></svg>