<svg width="990" height="244" viewBox="0 0 990 244" fill="none" xmlns="http://www.w3.org/2000/svg">
<g clip-path="url(#clip0_6571_635)">
<path d="M231.43 220.01C230.11 220.72 228.56 221.5 227 222.27C228.53 221.54 230.02 220.8 231.43 220.01Z" fill="url(#paint0_linear_6571_635)"/>
<path d="M201.42 230.39C205.88 227.21 209.71 221.27 212.59 212.65C216.69 211.89 220.7 210.92 224.64 209.83C222.06 209.32 219.46 208.77 216.86 208.18C215.86 208.4 214.8 208.65 213.76 208.84C213.87 208.43 213.97 207.98 214.08 207.57C211.08 206.87 208.08 206.12 205.08 205.32C204.73 207.06 204.37 208.75 203.97 210.32C184.382 212.589 164.555 211.627 145.28 207.47C145.49 201.67 145.98 194.88 146.79 187.14C146.88 186.23 147 185.28 147.1 184.35C143.807 182.837 140.537 181.274 137.29 179.66C137.09 181.34 136.88 183.03 136.71 184.66C135.966 191.439 135.565 198.251 135.51 205.07C116.82 199.92 99.5099 191.74 85.8599 180.85C84.8078 173.837 84.6834 166.716 85.4899 159.67C85.8199 156.51 86.3199 153.31 86.9399 150.08C85.9999 149.82 85.0699 149.55 84.1799 149.28C82.4599 149.61 80.7399 149.88 79.0199 150.14C78.8599 151.33 78.7099 152.5 78.5899 153.68C77.7735 160.789 77.9688 167.977 79.1699 175.03C73.7957 169.996 69.1929 164.197 65.5099 157.82C65.1389 157.927 64.7614 158.011 64.3799 158.07C68.2457 166.096 73.5889 173.322 80.1299 179.37C82.2251 188.053 86.7316 195.968 93.1299 202.2L98.1299 206.68L101.13 209.18L106.47 213.18C116.772 220.257 128.216 225.507 140.3 228.7C141.012 229.575 141.97 230.216 143.05 230.54L147.49 231.69L149.63 232.17C149.211 232.043 148.822 231.83 148.489 231.547C148.155 231.263 147.883 230.913 147.69 230.52C162.283 233.662 177.292 234.388 192.12 232.67C191.029 233.343 189.81 233.779 188.54 233.95L193.67 233.21L195.8 232.84C197.102 232.588 198.362 232.15 199.54 231.54C207.074 230.181 214.428 227.967 221.46 224.94H221.53C223.18 224.15 225.13 223.22 227.05 222.27C226.19 222.68 225.34 223.09 224.45 223.48C217.059 226.646 209.333 228.965 201.42 230.39ZM99.8699 208.18C93.5299 202.64 89.0099 194.87 86.6999 185.11C100.18 195.84 117.17 203.88 135.57 208.95C135.86 217.72 137.15 223.95 139.29 227.41C124.45 223.33 110.75 216.84 99.8699 208.18ZM193.64 231.58C178.088 233.382 162.345 232.619 147.04 229.32C145.73 226.03 145.04 219.99 145.17 211.32C164.147 215.411 183.666 216.357 202.95 214.12C200.46 222.68 197.28 228.53 193.64 231.58Z" fill="url(#paint1_linear_6571_635)"/>
<path d="M107.64 20.6299C108.8 19.7899 110 18.9599 111.26 18.1699L107.64 20.6299Z" fill="url(#paint2_linear_6571_635)"/>
<path d="M291.37 106.4C291.37 106.21 291.37 106.02 291.32 105.83L290.75 101.01L290.16 97.2701C290.4 98.6301 290.57 99.9701 290.69 101.27C288.531 89.2432 283.487 77.9195 275.99 68.2701C275.19 58.9301 270.99 49.4 263.23 40.49L260.03 36.9501L257.79 34.6401C257.61 34.4501 257.43 34.27 257.24 34.09L256.91 33.79L257.41 34.2701C266.76 43.7301 271.78 54.04 272.64 64.15C263.882 54.2118 253.284 46.062 241.43 40.15C240.87 33.67 237.65 27.0601 231.63 21.0101C241.1 22.7751 249.87 27.2051 256.91 33.78C254.91 31.88 252.49 29.6901 250.6 27.9601C236.6 16.0501 214.46 13.9601 188.24 24.1901L188.53 24.4501C202.71 20.0201 215.8 18.7601 227.21 20.2701C232.66 25.7401 235.58 31.7201 236.07 37.5801C221.326 31.082 205.544 27.2558 189.46 26.28C189.46 26.38 189.46 26.48 189.46 26.59C205.703 28.5225 221.487 33.2595 236.11 40.59C235.79 46.36 233.11 51.92 228.11 56.59C216.477 45.2 203.166 35.6624 188.64 28.3101C188.547 28.4011 188.447 28.4847 188.34 28.5601C202.122 36.8129 214.594 47.0798 225.34 59.0201C222.463 61.1735 219.341 62.9793 216.04 64.4C211.677 66.2751 207.114 67.6473 202.44 68.49C198.227 55.0019 192.693 41.9621 185.92 29.5601L185.43 29.6301C190.637 42.4525 194.784 55.6801 197.83 69.18C188.626 70.2517 179.308 69.8024 170.25 67.85C174.25 53.47 178.42 40.32 182.51 29.49L182.01 29.36C175.766 41.4569 170.299 53.9388 165.64 66.73C157.184 64.5272 149.252 60.6583 142.31 55.35C153.416 44.6252 165.947 35.4825 179.55 28.18C179.511 28.1386 179.468 28.1017 179.42 28.0701L179.23 27.8901C164.779 34.1743 151.307 42.5064 139.23 52.6301C133.54 47.2101 130.38 41.2501 129.64 35.3801C145.217 29.6079 161.643 26.4618 178.25 26.0701C178.25 25.9601 178.25 25.8601 178.25 25.7501C161.744 25.1737 145.259 27.4054 129.5 32.35C129.6 26.55 132.09 20.95 136.85 16.16C149.91 15.77 164.21 18.29 179.04 24.04L179.31 23.78C165.31 17.26 151.84 14.01 139.51 13.78C142.598 11.3329 146.002 9.31461 149.63 7.78002C153.595 6.07047 157.727 4.78015 161.96 3.93005C168.21 6.86005 174.91 13.1 181.68 22.8L182.17 22.7101C176.86 12.7701 171.54 6.29002 166.52 3.15002C175.7 1.93091 185.019 2.23501 194.1 4.05004C191.66 6.95004 188.62 13.16 185.1 22.8L185.59 22.92C190.59 13.6 195.07 7.72004 198.75 5.11004C208.37 7.59004 217.23 11.75 224.08 17.42C225.46 17.51 226.83 17.66 228.15 17.86C220.59 11.59 210.79 6.99006 200.15 4.25006C201.274 3.59851 202.603 3.39495 203.87 3.68005L201.25 3.03002L197.25 2.17004C196.828 2.13318 196.404 2.19642 196.011 2.35455C195.619 2.51267 195.269 2.76125 194.99 3.08007C184.958 1.06709 174.662 0.729188 164.52 2.08007C162.555 1.11645 160.353 0.744702 158.18 1.01007L155.04 1.49005L150.76 2.28002C153.67 1.71556 156.678 1.94354 159.47 2.94006C154.785 3.87331 150.21 5.29437 145.82 7.18005C141.814 8.87594 138.053 11.1025 134.64 13.8C124.111 14.0977 113.849 17.1826 104.9 22.74C105.79 22.02 106.72 21.3201 107.68 20.6301C106.13 21.6901 104.57 22.77 103.28 23.73C102.64 24.21 102.02 24.7301 101.41 25.1901L100.01 26.29L95.4802 30.18L90.7002 34.74C92.5412 32.8592 94.5164 31.1146 96.6102 29.5201C88.0002 38.1701 83.5102 48.3 83.3302 58.79C73.9356 67.4862 66.5888 78.1597 61.8202 90.04C61.9179 84.4779 63.0329 78.9807 65.1102 73.8201L62.2402 81.8901C60.8857 86.1347 60.1613 90.5551 60.0902 95.0101C58.6719 99.5507 57.7039 104.22 57.2002 108.95L58.2602 110.74C58.7937 107.636 59.5252 104.57 60.4502 101.56C61.2554 107.684 63.1341 113.618 66.0002 119.09L68.2702 118.34C68.8802 118.13 69.4102 117.98 69.9002 117.86C65.8465 111.373 63.2153 104.099 62.1802 96.5201C66.9831 84.3702 74.2957 73.3706 83.6402 64.24C84.9702 74.85 90.6402 85.61 100.96 95.42C94.7166 104.951 89.5167 115.126 85.4502 125.77L86.5702 125.87C89.0502 126.12 91.4702 126.42 93.8002 126.77C97.3546 117.629 101.649 108.793 106.64 100.35C109.893 102.922 113.306 105.283 116.86 107.42C117.41 106.891 118.107 106.542 118.86 106.42C119.192 106.377 119.528 106.377 119.86 106.42C120.677 106.506 121.442 106.858 122.04 107.42L123.48 108.8C123.633 108.945 123.773 109.102 123.9 109.27C124.514 110.09 124.947 111.031 125.17 112.03C132.742 115.768 140.651 118.782 148.79 121.03C145.03 135.61 141.88 150.2 139.59 163.95C137.02 163.24 134.49 162.46 131.98 161.64C134.42 163.03 136.87 164.36 139.31 165.64C142.49 167.333 145.667 168.957 148.84 170.51C150.77 171.51 152.7 172.37 154.63 173.27C172.379 176.502 190.509 177.088 208.43 175.01C208.21 180.25 207.84 185.32 207.34 190.17C207.34 190.59 207.24 190.96 207.2 191.37C210.43 192.09 213.65 192.73 216.87 193.31C217.08 191.78 217.28 190.23 217.45 188.62C217.95 183.77 218.27 178.71 218.45 173.49C228.591 171.664 238.489 168.681 247.95 164.6C255.116 161.542 261.882 157.623 268.1 152.93C268.379 157.898 268.266 162.88 267.76 167.83C267.067 175.025 265.314 182.077 262.56 188.76C258.666 191.691 254.538 194.299 250.22 196.56C251.93 196.56 253.63 196.56 255.33 196.56C257.17 195.37 258.96 194.15 260.62 192.88C259.98 194.12 259.29 195.31 258.62 196.48L261.01 196.39C263.078 193.732 264.915 190.902 266.5 187.93C270.915 183.813 274.66 179.032 277.6 173.76L280.05 168.85C277.032 174.395 273.139 179.416 268.52 183.72C271.398 177.015 273.216 169.903 273.91 162.64C274.415 157.713 274.508 152.753 274.19 147.81C284.99 137.59 290.86 125.54 291.57 113C291.71 114.42 291.77 115.85 291.82 117.29C291.82 113.85 291.68 110.29 291.55 107.35C291.43 106.98 291.4 106.69 291.37 106.4ZM241.48 43.48C253.388 50.1283 263.977 58.9034 272.72 69.37C272.15 79.37 267.45 89.04 258.8 97.22C251.735 84.0882 242.937 71.9662 232.64 61.18C238.13 56.01 241.12 49.87 241.48 43.48ZM168.69 73.6C178.697 75.7619 188.991 76.2619 199.16 75.0801C202.285 89.5831 204.649 104.24 206.24 118.99C190.265 120.844 174.093 120.064 158.37 116.68C161.5 101.94 165 87.3 168.69 73.6ZM100.29 26.91C109.745 20.9029 120.531 17.3109 131.7 16.4501C126.44 21.7401 123.7 27.94 123.59 34.35C110.458 39.0918 98.2548 46.0902 87.5302 55.03C87.7002 44.96 92.0202 35.23 100.29 26.91ZM104.45 90.23C94.5602 80.8 89.0902 70.46 87.8102 60.28C98.481 50.8146 110.646 43.1813 123.81 37.6901C124.62 44.1801 128.12 50.7601 134.41 56.7601C123.155 66.7126 113.1 77.9452 104.45 90.23ZM109.91 94.97C117.937 82.2794 127.297 70.4825 137.83 59.78C145.509 65.6521 154.284 69.9293 163.64 72.36C158.84 85.78 154.35 100.19 150.44 114.72C135.15 110.51 121.08 103.86 109.91 94.97ZM208.64 169.12C188.886 171.413 168.89 170.444 149.45 166.25C151.45 152.43 154.08 137.71 157.11 122.95C173.469 126.482 190.297 127.296 206.92 125.36C208.326 139.902 208.9 154.513 208.64 169.12ZM204.27 74.3C209.425 73.3656 214.457 71.8492 219.27 69.78C222.92 68.2145 226.371 66.2205 229.55 63.84C239.229 75.2642 247.433 87.8596 253.97 101.33C248.986 105.082 243.567 108.218 237.83 110.67C230.256 113.931 222.335 116.316 214.22 117.78C211.842 103.084 208.505 88.5599 204.23 74.3H204.27ZM247.64 158.83C238.273 162.849 228.48 165.794 218.45 167.61C218.404 153.047 217.308 138.506 215.17 124.1C223.614 122.573 231.857 120.09 239.74 116.7C245.711 114.149 251.352 110.885 256.54 106.98C262.27 119.767 266.013 133.353 267.64 147.27C261.458 151.906 254.744 155.787 247.64 158.83ZM273.58 142.18C271.791 128.441 267.736 115.093 261.58 102.68C270.58 94.16 275.47 84.13 276.06 73.68C283.542 83.7341 288.582 95.3916 290.78 107.73C290.09 120.18 284.27 132.08 273.58 142.18Z" fill="url(#paint3_linear_6571_635)"/>
<path d="M291.72 117.18C291.72 119.53 291.72 121.83 291.72 123.85C291.81 121.64 291.8 119.42 291.72 117.18Z" fill="url(#paint4_linear_6571_635)"/>
<path d="M43.41 111.92L46.16 101.18C8.29002 60.7004 6.80001 24.2904 47.33 13.6904C50.7825 12.8098 54.2857 12.1419 57.82 11.6904C65.19 10.6904 80.48 10.8004 91.28 11.3404L93.87 11.4304C98.24 11.5604 106.25 11.7704 107.51 11.8704C112.17 9.88163 116.991 8.29258 121.92 7.1204C119.24 6.6304 109.56 4.64037 104.72 3.78037L102.82 3.47038C83.21 0.650376 58.91 -0.979629 45.14 0.840371C41.201 1.35032 37.2969 2.10174 33.45 3.09037C-15.5 15.8504 -9.50998 62.3804 43.41 111.92Z" fill="url(#paint5_linear_6571_635)"/>
<path d="M306.18 115.18C306 114.96 305.4 114.27 304.6 113.36C303.14 111.7 300.97 109.28 299.13 107.43C299.3 110.447 299.3 113.472 299.13 116.49C300.986 118.823 302.693 121.271 304.24 123.82C304.83 124.76 305.24 125.46 305.37 125.68C322.61 158.48 317.53 188.6 286.56 196.68C283.115 197.564 279.619 198.232 276.09 198.68C269.971 199.504 263.812 200.004 257.64 200.18H256.03C253.71 200.18 251.36 200.18 249.03 200.18C247.03 200.14 245.03 200.07 243.03 199.97C234.08 199.513 225.169 198.485 216.35 196.89C213.19 196.33 210.004 195.693 206.79 194.98C186.578 190.367 166.968 183.431 148.35 174.31C145.15 172.763 141.937 171.136 138.71 169.43C133.13 166.49 127.514 163.316 121.86 159.91L111.32 159.33L108.32 159.16C117.85 165.16 127.74 170.71 137.83 175.76C141.064 177.38 144.317 178.95 147.59 180.47C166.345 189.196 185.826 196.27 205.81 201.61C208.9 202.43 211.98 203.21 215.03 203.92C218.49 204.733 221.927 205.47 225.34 206.13C227.69 206.6 230.03 207.02 232.34 207.42C237.34 208.27 242.34 208.96 247.19 209.49C262.24 211.13 276.34 211.21 288.81 209.55C292.74 209.03 296.634 208.269 300.47 207.27C342.99 196.18 341.44 157.18 306.18 115.18Z" fill="url(#paint6_linear_6571_635)"/>
<path d="M121.83 150.7C121.83 150.7 129.78 148.19 123.27 141.16C123.27 141.16 119.62 136.91 107.04 133.34C108.37 132.15 110.77 129.93 113.23 127.34L116.37 129.68C116.538 129.833 116.723 129.968 116.92 130.08C117.299 130.291 117.722 130.412 118.155 130.431C118.588 130.45 119.02 130.368 119.416 130.192C119.812 130.015 120.161 129.748 120.436 129.413C120.711 129.078 120.904 128.683 121 128.26C121.153 127.78 121.183 127.269 121.087 126.775C120.991 126.28 120.772 125.818 120.45 125.43C120.111 125.031 119.668 124.734 119.17 124.57H118.91L116.8 123.3C120.34 118.88 122.89 114.22 120.88 111.52L119.44 110.15C119.44 110.15 114.96 118.52 95.1901 130.84C94.3001 130.69 93.3801 130.56 92.4301 130.42C90.0701 130.094 87.5367 129.797 84.8301 129.53L84.1201 129.42L77.7401 128.42L71.0301 127.42L64.3601 126.42L68.9101 124.25L72.0001 122.77C72.232 122.523 72.4152 122.235 72.5401 121.92C72.6001 121.68 72.5401 121.48 72.1901 121.41C71.2466 121.393 70.3109 121.584 69.4501 121.97L67.8401 122.51L62.0001 124.45L57.4601 116.81L56.7901 115.68L53.4201 109.98C53.4201 109.98 50.5701 104.49 51.4201 111.27C51.4201 111.27 53.1901 120.63 55.8601 125.27L41.1701 128.33C41.1701 128.33 39.0201 129.28 42.1701 129.43L56.6601 129.31C56.9305 129.86 57.2309 130.394 57.5601 130.91C57.7001 131.13 57.8101 131.33 57.9701 131.56C59.6797 133.828 61.8123 135.743 64.2501 137.2C66.4427 138.59 68.7474 139.794 71.1401 140.8C56.941 142.691 42.5748 142.986 28.3101 141.68C28.3101 141.68 19.4501 141.76 35.2101 146.3C35.2101 146.3 36.2101 149.13 36.6801 150.56C37.3101 152.35 40.8901 152.21 41.1001 150.32C41.0126 149.308 40.7272 148.323 40.2601 147.42C45.9503 148.283 51.7082 148.618 57.4601 148.42C58.5037 150.227 59.6593 151.967 60.9201 153.63C61.4153 154.15 62.0926 154.458 62.8101 154.49C63.0856 154.525 63.3645 154.525 63.6401 154.49C65.1601 154.32 66.6401 153.39 66.9601 152.36C67.1752 151.711 67.1752 151.01 66.9601 150.36C66.8159 149.939 66.588 149.551 66.2901 149.22L65.5901 148.02C70.1001 147.69 74.8101 147.14 79.6401 146.36C81.2101 146.1 82.7801 145.83 84.3701 145.52C85.4301 145.84 86.5401 146.17 87.7101 146.52C88.8801 146.87 90.1801 147.22 91.5101 147.58C94.3201 148.34 97.4001 149.13 100.81 149.96C103.01 150.495 105.236 150.912 107.48 151.21C111.8 151.72 117.42 152.03 121.83 150.7Z" fill="url(#paint7_linear_6571_635)"/>
</g>
<g clip-path="url(#clip1_6571_635)">
<path d="M823.87 126.69L843.46 72.04H919.6L904.12 127.01L823.87 126.69Z" fill="url(#paint8_linear_6571_635)"/>
<path d="M786.29 109.13L761.22 190.01L698.14 0.0703125H748.69L786.29 109.13Z" fill="url(#paint9_linear_6571_635)"/>
<path d="M931.13 190.01L989.34 0.130312L939.58 0.0703125L880.94 189.97L931.13 190.01Z" fill="url(#paint10_linear_6571_635)"/>
<path d="M664.59 109.13L639.52 190.01L576.44 0.0703125H626.4L664.59 109.13Z" fill="url(#paint11_linear_6571_635)"/>
<path d="M689.7 190.01L747.91 0.130312L698.15 0.0703125L639.51 189.97L689.7 190.01Z" fill="url(#paint12_linear_6571_635)"/>
<path d="M421.15 109.13L396.08 190.01L333 0.0703125H388.17L421.15 109.13Z" fill="url(#paint13_linear_6571_635)"/>
<path d="M543.3 110.47L517.77 190.08L454.69 0H504.31L543.3 110.47Z" fill="url(#paint14_linear_6571_635)"/>
<path d="M446.26 190.01L504.47 0.130312L454.72 0.0703125L396.08 189.97L446.26 190.01Z" fill="url(#paint15_linear_6571_635)"/>
<path d="M567.93 190.01L626.25 0.0703125H576.7L517.74 189.97L567.93 190.01Z" fill="url(#paint16_linear_6571_635)"/>
<path d="M811.3 190.01L869.51 0.130312L819.76 0.0703125L761.12 189.97L811.3 190.01Z" fill="url(#paint17_linear_6571_635)"/>
</g>
<path d="M432.961 206.7H436.666L427.54 234H423.445L415.996 212.199L408.547 234H404.374L395.248 206.7H399.265L406.636 228.891L414.319 206.7H417.907L425.434 229.008L432.961 206.7ZM448.182 234.234C441.981 234.234 437.418 229.827 437.418 223.665C437.418 217.503 441.981 213.135 448.182 213.135C454.383 213.135 458.907 217.503 458.907 223.665C458.907 229.827 454.383 234.234 448.182 234.234ZM448.182 230.958C452.16 230.958 455.124 228.072 455.124 223.665C455.124 219.258 452.16 216.411 448.182 216.411C444.204 216.411 441.201 219.258 441.201 223.665C441.201 228.072 444.204 230.958 448.182 230.958ZM467.673 216.801C468.999 214.383 471.573 213.135 475.2 213.135V216.762C474.888 216.723 474.615 216.723 474.342 216.723C470.325 216.723 467.829 219.18 467.829 223.704V234H464.085V213.33H467.673V216.801ZM479.815 234V205.062H483.559V234H479.815ZM506.463 205.062H510.207V234H506.619V230.724C504.942 233.064 502.29 234.234 499.248 234.234C493.203 234.234 488.796 229.983 488.796 223.665C488.796 217.347 493.203 213.135 499.248 213.135C502.173 213.135 504.747 214.227 506.463 216.45V205.062ZM499.56 230.958C503.499 230.958 506.502 228.072 506.502 223.665C506.502 219.258 503.499 216.411 499.56 216.411C495.582 216.411 492.579 219.258 492.579 223.665C492.579 228.072 495.582 230.958 499.56 230.958ZM545.215 213.33H548.569L540.847 234H537.259L531.292 218.322L525.247 234H521.659L513.976 213.33H517.525L523.531 229.788L529.771 213.33H532.93L539.053 229.866L545.215 213.33ZM554.24 209.352C552.797 209.352 551.705 208.299 551.705 206.934C551.705 205.569 552.797 204.477 554.24 204.477C555.683 204.477 556.775 205.53 556.775 206.856C556.775 208.26 555.722 209.352 554.24 209.352ZM552.368 234V213.33H556.112V234H552.368ZM579.017 205.062H582.761V234H579.173V230.724C577.496 233.064 574.844 234.234 571.802 234.234C565.757 234.234 561.35 229.983 561.35 223.665C561.35 217.347 565.757 213.135 571.802 213.135C574.727 213.135 577.301 214.227 579.017 216.45V205.062ZM572.114 230.958C576.053 230.958 579.056 228.072 579.056 223.665C579.056 219.258 576.053 216.411 572.114 216.411C568.136 216.411 565.133 219.258 565.133 223.665C565.133 228.072 568.136 230.958 572.114 230.958ZM608.526 223.782C608.526 224.094 608.487 224.562 608.448 224.913H591.678C592.146 228.54 595.071 230.958 599.166 230.958C601.584 230.958 603.612 230.139 605.133 228.462L607.2 230.88C605.328 233.064 602.481 234.234 599.049 234.234C592.38 234.234 587.934 229.827 587.934 223.665C587.934 217.542 592.341 213.135 598.308 213.135C604.275 213.135 608.526 217.425 608.526 223.782ZM598.308 216.294C594.72 216.294 592.068 218.712 591.678 222.222H604.938C604.548 218.751 601.935 216.294 598.308 216.294ZM645.141 234L642.138 227.175H627.63L624.627 234H620.61L632.973 206.7H636.834L649.236 234H645.141ZM628.995 224.055H640.773L634.884 210.678L628.995 224.055ZM668.328 205.062H672.072V234H668.484V230.724C666.807 233.064 664.155 234.234 661.113 234.234C655.068 234.234 650.661 229.983 650.661 223.665C650.661 217.347 655.068 213.135 661.113 213.135C664.038 213.135 666.612 214.227 668.328 216.45V205.062ZM661.425 230.958C665.364 230.958 668.367 228.072 668.367 223.665C668.367 219.258 665.364 216.411 661.425 216.411C657.447 216.411 654.444 219.258 654.444 223.665C654.444 228.072 657.447 230.958 661.425 230.958ZM705.013 213.135C710.044 213.135 713.476 216.021 713.476 222.105V234H709.732V222.534C709.732 218.478 707.782 216.489 704.389 216.489C700.645 216.489 698.188 218.868 698.188 223.353V234H694.444V222.534C694.444 218.478 692.494 216.489 689.101 216.489C685.357 216.489 682.9 218.868 682.9 223.353V234H679.156V213.33H682.744V216.411C684.226 214.305 686.761 213.135 689.881 213.135C693.04 213.135 695.692 214.383 697.057 216.957C698.617 214.617 701.503 213.135 705.013 213.135ZM722.237 209.352C720.794 209.352 719.702 208.299 719.702 206.934C719.702 205.569 720.794 204.477 722.237 204.477C723.68 204.477 724.772 205.53 724.772 206.856C724.772 208.26 723.719 209.352 722.237 209.352ZM720.365 234V213.33H724.109V234H720.365ZM737.186 234.234C733.754 234.234 730.361 233.181 728.645 231.816L730.205 228.852C731.96 230.1 734.768 230.997 737.459 230.997C740.93 230.997 742.373 229.944 742.373 228.189C742.373 223.548 729.308 227.565 729.308 219.336C729.308 215.631 732.623 213.135 737.927 213.135C740.618 213.135 743.66 213.837 745.454 215.007L743.855 217.971C741.983 216.762 739.916 216.333 737.888 216.333C734.612 216.333 733.013 217.542 733.013 219.18C733.013 224.055 746.117 220.077 746.117 228.111C746.117 231.855 742.685 234.234 737.186 234.234ZM756.724 234.234C753.292 234.234 749.899 233.181 748.183 231.816L749.743 228.852C751.498 230.1 754.306 230.997 756.997 230.997C760.468 230.997 761.911 229.944 761.911 228.189C761.911 223.548 748.846 227.565 748.846 219.336C748.846 215.631 752.161 213.135 757.465 213.135C760.156 213.135 763.198 213.837 764.992 215.007L763.393 217.971C761.521 216.762 759.454 216.333 757.426 216.333C754.15 216.333 752.551 217.542 752.551 219.18C752.551 224.055 765.655 220.077 765.655 228.111C765.655 231.855 762.223 234.234 756.724 234.234ZM772.206 209.352C770.763 209.352 769.671 208.299 769.671 206.934C769.671 205.569 770.763 204.477 772.206 204.477C773.649 204.477 774.741 205.53 774.741 206.856C774.741 208.26 773.688 209.352 772.206 209.352ZM770.334 234V213.33H774.078V234H770.334ZM790.08 234.234C783.879 234.234 779.316 229.827 779.316 223.665C779.316 217.503 783.879 213.135 790.08 213.135C796.281 213.135 800.805 217.503 800.805 223.665C800.805 229.827 796.281 234.234 790.08 234.234ZM790.08 230.958C794.058 230.958 797.022 228.072 797.022 223.665C797.022 219.258 794.058 216.411 790.08 216.411C786.102 216.411 783.099 219.258 783.099 223.665C783.099 228.072 786.102 230.958 790.08 230.958ZM817.02 213.135C822.051 213.135 825.6 216.021 825.6 222.105V234H821.856V222.534C821.856 218.478 819.828 216.489 816.279 216.489C812.301 216.489 809.727 218.868 809.727 223.353V234H805.983V213.33H809.571V216.45C811.092 214.344 813.744 213.135 817.02 213.135ZM838.456 234.234C835.024 234.234 831.631 233.181 829.915 231.816L831.475 228.852C833.23 230.1 836.038 230.997 838.729 230.997C842.2 230.997 843.643 229.944 843.643 228.189C843.643 223.548 830.578 227.565 830.578 219.336C830.578 215.631 833.893 213.135 839.197 213.135C841.888 213.135 844.93 213.837 846.724 215.007L845.125 217.971C843.253 216.762 841.186 216.333 839.158 216.333C835.882 216.333 834.283 217.542 834.283 219.18C834.283 224.055 847.387 220.077 847.387 228.111C847.387 231.855 843.955 234.234 838.456 234.234ZM882.664 206.7H886.564V234H882.664V221.832H866.986V234H863.086V206.7H866.986V218.439H882.664V206.7ZM909.712 213.33H913.456V234H909.907V230.88C908.386 233.025 905.812 234.234 902.887 234.234C897.544 234.234 893.995 231.309 893.995 225.225V213.33H897.739V224.796C897.739 228.852 899.767 230.88 903.316 230.88C907.216 230.88 909.712 228.462 909.712 224.016V213.33ZM931.542 213.135C937.587 213.135 941.994 217.347 941.994 223.665C941.994 229.983 937.587 234.234 931.542 234.234C928.5 234.234 925.848 233.064 924.171 230.724V234H920.583V205.062H924.327V216.45C926.043 214.227 928.617 213.135 931.542 213.135ZM931.23 230.958C935.208 230.958 938.211 228.072 938.211 223.665C938.211 219.258 935.208 216.411 931.23 216.411C927.291 216.411 924.288 219.258 924.288 223.665C924.288 228.072 927.291 230.958 931.23 230.958Z" fill="black"/>
<defs>
<linearGradient id="paint0_linear_6571_635" x1="228.66" y1="222.82" x2="229.77" y2="219.46" gradientUnits="userSpaceOnUse">
<stop stop-color="#8A0304"/>
<stop offset="1" stop-color="#EC1C24"/>
</linearGradient>
<linearGradient id="paint1_linear_6571_635" x1="133.37" y1="227.4" x2="151.84" y2="171.58" gradientUnits="userSpaceOnUse">
<stop stop-color="#8A0304"/>
<stop offset="1" stop-color="#EC1C24"/>
</linearGradient>
<linearGradient id="paint2_linear_6571_635" x1="108.94" y1="21.0499" x2="110.04" y2="17.7499" gradientUnits="userSpaceOnUse">
<stop stop-color="#8A0304"/>
<stop offset="1" stop-color="#EC1C24"/>
</linearGradient>
<linearGradient id="paint3_linear_6571_635" x1="154.99" y1="174.02" x2="210.63" y2="5.87007" gradientUnits="userSpaceOnUse">
<stop stop-color="#8A0304"/>
<stop offset="1" stop-color="#EC1C24"/>
</linearGradient>
<linearGradient id="paint4_linear_6571_635" x1="290.7" y1="123.56" x2="292.7" y2="117.53" gradientUnits="userSpaceOnUse">
<stop stop-color="#8A0304"/>
<stop offset="1" stop-color="#EC1C24"/>
</linearGradient>
<linearGradient id="paint5_linear_6571_635" x1="1.32206e-05" y1="55.9604" x2="121.92" y2="55.9604" gradientUnits="userSpaceOnUse">
<stop stop-color="#F16522"/>
<stop offset="1" stop-color="#EDDB00"/>
</linearGradient>
<linearGradient id="paint6_linear_6571_635" x1="108.26" y1="159.12" x2="332.51" y2="159.12" gradientUnits="userSpaceOnUse">
<stop stop-color="#F16522"/>
<stop offset="1" stop-color="#EDDB00"/>
</linearGradient>
<linearGradient id="paint7_linear_6571_635" x1="25.8601" y1="131.12" x2="125.83" y2="131.12" gradientUnits="userSpaceOnUse">
<stop stop-color="#F16522"/>
<stop offset="1" stop-color="#EDDB00"/>
</linearGradient>
<linearGradient id="paint8_linear_6571_635" x1="823.87" y1="99.52" x2="919.6" y2="99.52" gradientUnits="userSpaceOnUse">
<stop offset="0.16" stop-color="#F16522"/>
<stop offset="0.33" stop-color="#F0761D"/>
<stop offset="0.65" stop-color="#EFA310"/>
<stop offset="1" stop-color="#EDDB00"/>
</linearGradient>
<linearGradient id="paint9_linear_6571_635" x1="777.51" y1="165.53" x2="724.29" y2="-1.74968" gradientUnits="userSpaceOnUse">
<stop stop-color="#F16522"/>
<stop offset="0.07" stop-color="#EE5B22"/>
<stop offset="0.31" stop-color="#E43E21"/>
<stop offset="0.54" stop-color="#DD2A21"/>
<stop offset="0.78" stop-color="#D81D21"/>
<stop offset="1" stop-color="#D71921"/>
</linearGradient>
<linearGradient id="paint10_linear_6571_635" x1="904.99" y1="184.78" x2="964.44" y2="9.0703" gradientUnits="userSpaceOnUse">
<stop stop-color="#F16522"/>
<stop offset="1" stop-color="#EDDB00"/>
</linearGradient>
<linearGradient id="paint11_linear_6571_635" x1="576.44" y1="95.0403" x2="664.59" y2="95.0403" gradientUnits="userSpaceOnUse">
<stop offset="0.4" stop-color="#540000"/>
<stop offset="1" stop-color="#EC1C24"/>
</linearGradient>
<linearGradient id="paint12_linear_6571_635" x1="662.6" y1="189.71" x2="719.7" y2="17.1603" gradientUnits="userSpaceOnUse">
<stop stop-color="#540000"/>
<stop offset="0.46" stop-color="#930C10"/>
<stop offset="1" stop-color="#D71921"/>
</linearGradient>
<linearGradient id="paint13_linear_6571_635" x1="413.15" y1="165.28" x2="359.93" y2="-1.99968" gradientUnits="userSpaceOnUse">
<stop stop-color="#8A0304"/>
<stop offset="1" stop-color="#EC1C24"/>
</linearGradient>
<linearGradient id="paint14_linear_6571_635" x1="534.1" y1="165.57" x2="480.84" y2="-1.81999" gradientUnits="userSpaceOnUse">
<stop offset="0.4" stop-color="#540000"/>
<stop offset="1" stop-color="#EC1C24"/>
</linearGradient>
<linearGradient id="paint15_linear_6571_635" x1="419.17" y1="189.71" x2="476.26" y2="17.1603" gradientUnits="userSpaceOnUse">
<stop stop-color="#8A0304"/>
<stop offset="1" stop-color="#EC1C24"/>
</linearGradient>
<linearGradient id="paint16_linear_6571_635" x1="540.97" y1="189.75" x2="598.09" y2="17.1203" gradientUnits="userSpaceOnUse">
<stop stop-color="#8A0304"/>
<stop offset="1" stop-color="#EC1C24"/>
</linearGradient>
<linearGradient id="paint17_linear_6571_635" x1="784.21" y1="189.71" x2="841.3" y2="17.1603" gradientUnits="userSpaceOnUse">
<stop stop-color="#F16522"/>
<stop offset="1" stop-color="#EDDB00"/>
</linearGradient>
<clipPath id="clip0_6571_635">
<rect width="332.51" height="233.98" fill="white"/>
</clipPath>
<clipPath id="clip1_6571_635">
<rect width="656.34" height="190.08" fill="white" transform="translate(333)"/>
</clipPath>
</defs>
</svg>
