<svg width="17" height="17" viewBox="0 0 17 17" fill="none" xmlns="http://www.w3.org/2000/svg">
<path d="M8.015 5.09176C8.32581 4.9782 8.67419 4.9782 8.985 5.09176L10.4487 5.62647C10.7671 5.74278 10.7671 6.1454 10.4487 6.26172L8.985 6.79642C8.67419 6.90998 8.32581 6.90998 8.015 6.79642L6.55129 6.26171C6.2329 6.1454 6.2329 5.74278 6.55129 5.62647L8.015 5.09176Z" stroke="white"/>
<path d="M10.0625 6.56909V8.25672C10.0625 8.49978 9.92163 8.72153 9.69356 8.80565C9.37281 8.92403 8.89844 9.06909 8.5 9.06909C8.10156 9.06909 7.62719 8.92403 7.30644 8.80565C7.07839 8.72153 6.9375 8.49978 6.9375 8.25672V6.56909" stroke="white" stroke-linecap="round"/>
<path d="M4.125 10.4542C3.72034 9.42047 3.5 8.3199 3.5 7.28365C3.5 4.47277 5.73857 2.19409 8.5 2.19409C11.2614 2.19409 13.5 4.47277 13.5 7.28365C13.5 10.0725 11.9042 13.3268 9.41431 14.4906C8.83394 14.7619 8.16606 14.7619 7.58569 14.4906C6.79046 14.1189 6.08644 13.534 5.49649 12.8191" stroke="white" stroke-linecap="round"/>
</svg>
