<svg width="40" height="41" viewBox="0 0 40 41" fill="none" xmlns="http://www.w3.org/2000/svg">
<circle cx="20" cy="20.3086" r="20" fill="#FCE7D2"/>
<path d="M12.5 14.4126V26.6001C12.5 28.1534 13.7592 29.4126 15.3125 29.4126H24.6875C26.2408 29.4126 27.5 28.1534 27.5 26.6001V21.9126M12.5 14.4126V13.4751M12.5 14.4126H24.6875C26.2408 14.4126 27.5 15.6718 27.5 17.2251V18.1626" stroke="#313131" stroke-width="1.5" stroke-linecap="round"/>
<path d="M17.1875 20.9751C17.1875 19.4218 18.4467 18.1626 20 18.1626C21.5533 18.1626 22.8125 19.4218 22.8125 20.9751C22.8125 22.5284 21.5533 23.7876 20 23.7876" stroke="#313131" stroke-width="1.5" stroke-linecap="round"/>
<path d="M25.625 14.4133V15.1164H26.3281V14.4133H25.625ZM13.5041 15.1164H25.625V13.7102H13.5041V15.1164ZM26.3281 14.4133V12.8252H24.9219V14.4133H26.3281ZM23.3854 10.273L13.2627 11.7191L13.4616 13.1112L23.5842 11.6651L23.3854 10.273ZM13.2627 11.7191C12.4216 11.8392 11.7969 12.5596 11.7969 13.4092H13.2031C13.2031 13.2594 13.3133 13.1324 13.4616 13.1112L13.2627 11.7191ZM26.3281 12.8252C26.3281 11.2563 24.9386 10.0511 23.3854 10.273L23.5842 11.6651C24.2903 11.5642 24.9219 12.112 24.9219 12.8252H26.3281ZM13.5041 13.7102C13.3379 13.7102 13.2031 13.5754 13.2031 13.4092H11.7969C11.7969 14.3521 12.5612 15.1164 13.5041 15.1164V13.7102Z" fill="#313131"/>
<path d="M18.125 26.6001H21.875" stroke="#313131" stroke-width="1.5" stroke-linecap="round"/>
</svg>
