<svg width="16" height="16" viewBox="0 0 16 16" fill="none" xmlns="http://www.w3.org/2000/svg">
<path d="M4.29736 6.8252H6.6109" stroke="#313131" stroke-width="0.925414" stroke-linecap="round" stroke-linejoin="round"/>
<path d="M13.5503 8.2709C13.5503 8.22613 13.5516 7.96279 13.5503 7.94388C13.5298 7.65422 13.2814 7.42356 12.9695 7.40453C12.9491 7.40332 12.9251 7.40332 12.8768 7.40332H11.3716C10.3396 7.40332 9.50293 8.18015 9.50293 9.13847C9.50293 10.0968 10.3396 10.8736 11.3716 10.8736H12.8768C12.9251 10.8736 12.9491 10.8736 12.9695 10.8724C13.2814 10.8534 13.5298 10.6227 13.5503 10.3331C13.5516 10.3142 13.5516 10.0508 13.5516 10.006" stroke="#313131" stroke-width="0.925414" stroke-linecap="round"/>
<path d="M10.6597 9.13893C10.6597 9.29233 10.7206 9.43944 10.8291 9.54791C10.9375 9.65638 11.0847 9.71731 11.2381 9.71731C11.3914 9.71731 11.5386 9.65638 11.647 9.54791C11.7555 9.43944 11.8164 9.29233 11.8164 9.13893C11.8164 8.98553 11.7555 8.83842 11.647 8.72995C11.5386 8.62148 11.3914 8.56055 11.2381 8.56055C11.0847 8.56055 10.9375 8.62148 10.8291 8.72995C10.7206 8.83842 10.6597 8.98553 10.6597 9.13893Z" fill="#313131"/>
<path d="M6.61096 13.7659H8.34611C10.5273 13.7659 11.618 13.7659 12.2955 13.0882C12.763 12.6208 12.908 11.9569 12.9529 10.8739M12.9529 7.40364C12.908 6.32073 12.763 5.65677 12.2955 5.18934C11.618 4.51172 10.5273 4.51172 8.34611 4.51172H6.61096C4.42973 4.51172 3.33913 4.51172 2.6615 5.18934C1.98389 5.86696 1.98389 6.95759 1.98389 9.13879C1.98389 11.32 1.98389 12.4107 2.6615 13.0882C3.03929 13.466 3.54546 13.6332 4.29742 13.7072" stroke="#313131" stroke-width="0.925414" stroke-linecap="round"/>
<path d="M4.29736 4.51152L6.45791 3.07894C7.06632 2.67551 7.89063 2.67551 8.49903 3.07894L10.6596 4.51152" stroke="#313131" stroke-width="0.925414" stroke-linecap="round"/>
</svg>
