<svg width="14" height="14" viewBox="0 0 14 14" fill="none" xmlns="http://www.w3.org/2000/svg">
<path d="M4.08008 6.34375H6.11133" stroke="#313131" stroke-width="0.8125" stroke-linecap="round" stroke-linejoin="round"/>
<path d="M12.2049 7.61328C12.2049 7.57398 12.2061 7.34277 12.2049 7.32616C12.1869 7.07185 11.9688 6.86934 11.6949 6.85263C11.6771 6.85156 11.6559 6.85156 11.6136 6.85156H10.292C9.38592 6.85156 8.65137 7.53361 8.65137 8.375C8.65137 9.21639 9.38592 9.89844 10.292 9.89844H11.6136C11.6559 9.89844 11.6771 9.89844 11.6949 9.89737C11.9688 9.88066 12.1869 9.67815 12.2049 9.42384C12.2061 9.40723 12.2061 9.17602 12.2061 9.13672" stroke="#313131" stroke-width="0.8125" stroke-linecap="round"/>
<path d="M9.66602 8.375C9.66602 8.50968 9.71952 8.63884 9.81475 8.73408C9.90998 8.82931 10.0391 8.88281 10.1738 8.88281C10.3085 8.88281 10.4377 8.82931 10.5329 8.73408C10.6281 8.63884 10.6816 8.50968 10.6816 8.375C10.6816 8.24032 10.6281 8.11116 10.5329 8.01592C10.4377 7.92069 10.3085 7.86719 10.1738 7.86719C10.0391 7.86719 9.90998 7.92069 9.81475 8.01592C9.71952 8.11116 9.66602 8.24032 9.66602 8.375Z" fill="#313131"/>
<path d="M6.1123 12.4385H7.63574C9.5508 12.4385 10.5084 12.4385 11.1033 11.8435C11.5137 11.4332 11.641 10.8502 11.6805 9.89941M11.6805 6.85254C11.641 5.90176 11.5137 5.31882 11.1033 4.90841C10.5084 4.31348 9.5508 4.31348 7.63574 4.31348H6.1123C4.19722 4.31348 3.23969 4.31348 2.64474 4.90841C2.0498 5.50336 2.0498 6.46091 2.0498 8.37598C2.0498 10.291 2.0498 11.2486 2.64474 11.8435C2.97644 12.1752 3.42084 12.322 4.08105 12.3869" stroke="#313131" stroke-width="0.8125" stroke-linecap="round"/>
<path d="M4.08008 4.3125L5.97701 3.05472C6.51118 2.70051 7.23491 2.70051 7.76908 3.05472L9.66602 4.3125" stroke="#313131" stroke-width="0.8125" stroke-linecap="round"/>
</svg>
