<svg width="14" height="14" viewBox="0 0 14 14" fill="none" xmlns="http://www.w3.org/2000/svg">
<path d="M11.9063 9.17676C11.9063 10.6131 11.9063 11.3312 11.46 11.7774C11.0138 12.2236 10.2957 12.2236 8.85938 12.2236H5.8125C4.37619 12.2236 3.65803 12.2236 3.21183 11.7774C2.76563 11.3312 2.76562 10.6131 2.76562 9.17676V5.11426C2.76562 3.67795 2.76563 2.95979 3.21183 2.51359C3.65803 2.06738 4.37619 2.06738 5.8125 2.06738H8.85938C10.2957 2.06738 11.0138 2.06738 11.46 2.51359C11.9063 2.95979 11.9063 3.67795 11.9063 5.11426V7.14551" stroke="#313131" stroke-width="0.8125" stroke-linecap="round"/>
<path d="M5.30469 2.06738V4.09863M5.30469 12.2236V6.12988" stroke="#313131" stroke-width="0.8125" stroke-linecap="round"/>
<path d="M2.25781 7.14551H3.27344" stroke="#313131" stroke-width="0.8125" stroke-linecap="round"/>
<path d="M2.25781 9.17676H3.27344" stroke="#313131" stroke-width="0.8125" stroke-linecap="round"/>
<path d="M2.25781 5.11426H3.27344" stroke="#313131" stroke-width="0.8125" stroke-linecap="round"/>
<path d="M7.08203 4.35254H9.62109" stroke="#313131" stroke-width="0.8125" stroke-linecap="round"/>
<path d="M7.08203 6.12988H9.62109" stroke="#313131" stroke-width="0.8125" stroke-linecap="round"/>
</svg>
