<svg width="17" height="17" viewBox="0 0 17 17" fill="none" xmlns="http://www.w3.org/2000/svg">
<path d="M15.2188 7.53098C15.2188 7.27211 15.0089 7.06222 14.75 7.06222C14.4911 7.06222 14.2812 7.27211 14.2812 7.53098H15.2188ZM14.2812 5.31948C14.2812 5.57836 14.4911 5.78823 14.75 5.78823C15.0089 5.78823 15.2188 5.57836 15.2188 5.31948H14.2812ZM1.78125 7.55117C1.78125 7.81004 1.99112 8.01992 2.25 8.01992C2.50888 8.01992 2.71875 7.81004 2.71875 7.55117H1.78125ZM2.71875 9.69448C2.71875 9.43561 2.50888 9.22573 2.25 9.22573C1.99112 9.22573 1.78125 9.43561 1.78125 9.69448H2.71875ZM13.5349 2.36211C12.8234 2.38689 11.8935 2.4609 11.1781 2.67507L11.4469 3.57319C12.0402 3.3956 12.8682 3.3234 13.5676 3.29904L13.5349 2.36211ZM11.1781 2.67507C10.5562 2.86126 9.85662 3.22491 9.31138 3.5405L9.78094 4.35191C10.3125 4.04429 10.9343 3.72666 11.4469 3.57319L11.1781 2.67507ZM3.46024 3.33416C4.06399 3.37126 4.74777 3.44341 5.2554 3.57737L5.4946 2.6709C4.89409 2.51244 4.13448 2.43632 3.51776 2.39842L3.46024 3.33416ZM5.2554 3.57737C5.85673 3.73605 6.59679 4.08321 7.20729 4.40602L7.6455 3.57726C7.02335 3.24827 6.20479 2.8583 5.4946 2.6709L5.2554 3.57737ZM9.73775 13.9014C10.3571 13.5712 11.1243 13.2073 11.7446 13.0435L11.5054 12.1371C10.7739 12.3301 9.92669 12.7383 9.29675 13.0741L9.73775 13.9014ZM11.7446 13.0435C12.2464 12.9111 12.9208 12.839 13.52 12.8016L13.4614 11.8659C12.8489 11.9042 12.0994 11.9804 11.5054 12.1371L11.7446 13.0435ZM7.70325 13.0741C7.07329 12.7383 6.22606 12.3301 5.4946 12.1371L5.2554 13.0435C5.87575 13.2073 6.64288 13.5712 7.26225 13.9014L7.70325 13.0741ZM5.4946 12.1371C4.90057 11.9804 4.1511 11.9042 3.53855 11.8659L3.48003 12.8016C4.07925 12.839 4.75354 12.9111 5.2554 13.0435L5.4946 12.1371ZM14.2812 11.0342C14.2812 11.4628 13.9261 11.8369 13.4614 11.8659L13.52 12.8016C14.4414 12.7439 15.2188 11.9944 15.2188 11.0342H14.2812ZM15.2188 4.02772C15.2188 3.11316 14.4904 2.32882 13.5349 2.36211L13.5676 3.29904C13.9518 3.28566 14.2812 3.60174 14.2812 4.02772H15.2188ZM1.78125 11.0342C1.78125 11.9944 2.55861 12.7439 3.48003 12.8016L3.53855 11.8659C3.07394 11.8369 2.71875 11.4628 2.71875 11.0342H1.78125ZM9.29675 13.0741C8.80156 13.338 8.19844 13.338 7.70325 13.0741L7.26225 13.9014C8.03306 14.3123 8.96694 14.3123 9.73775 13.9014L9.29675 13.0741ZM9.31138 3.5405C8.80006 3.83641 8.16356 3.85117 7.6455 3.57726L7.20729 4.40602C8.01494 4.83309 8.99438 4.80714 9.78094 4.35191L9.31138 3.5405ZM2.71875 4.06811C2.71875 3.63237 3.06402 3.3098 3.46024 3.33416L3.51776 2.39842C2.54386 2.33856 1.78125 3.13113 1.78125 4.06811H2.71875ZM15.2188 11.0342V7.53098H14.2812V11.0342H15.2188ZM15.2188 5.31948V4.02772H14.2812V5.31948H15.2188ZM2.71875 7.55117V4.06811H1.78125V7.55117H2.71875ZM2.71875 11.0342V9.69448H1.78125V11.0342H2.71875Z" fill="white"/>
<path d="M8.5 4.38159V13.7566" stroke="white" stroke-linecap="round"/>
</svg>
