<svg width="32" height="31" viewBox="0 0 32 31" fill="none" xmlns="http://www.w3.org/2000/svg">
<path d="M27.3675 19.8159C27.3675 23.1305 27.3675 24.7877 26.3026 25.8174C25.2377 26.8472 23.5237 26.8472 20.0959 26.8472H12.8242C9.39636 26.8472 7.68243 26.8472 6.61752 25.8174C5.55261 24.7877 5.55261 23.1305 5.55261 19.8159V10.4409C5.55261 7.12635 5.55261 5.46907 6.61752 4.43937C7.68243 3.40967 9.39636 3.40967 12.8242 3.40967H20.0959C23.5237 3.40967 25.2377 3.40967 26.3026 4.43937C27.3675 5.46907 27.3675 7.12635 27.3675 10.4409V15.1284" stroke="#313131" stroke-width="1.9391" stroke-linecap="round"/>
<path d="M11.6132 3.40967V8.09717M11.6132 26.8472V12.7847" stroke="#313131" stroke-width="1.9391" stroke-linecap="round"/>
<path d="M4.34167 15.1284H6.76555" stroke="#313131" stroke-width="1.9391" stroke-linecap="round"/>
<path d="M4.34167 19.8159H6.76555" stroke="#313131" stroke-width="1.9391" stroke-linecap="round"/>
<path d="M4.34167 10.4409H6.76555" stroke="#313131" stroke-width="1.9391" stroke-linecap="round"/>
<path d="M15.8553 8.68311H21.915" stroke="#313131" stroke-width="1.9391" stroke-linecap="round"/>
<path d="M15.8553 12.7847H21.915" stroke="#313131" stroke-width="1.9391" stroke-linecap="round"/>
</svg>
