<svg width="183" height="146" viewBox="0 0 183 146" fill="none" xmlns="http://www.w3.org/2000/svg">
<path d="M139.519 1.7147C139.655 1.22823 140.345 1.22823 140.481 1.7147L141.897 6.75683C141.944 6.92472 142.075 7.05593 142.243 7.10307L147.285 8.51861C147.772 8.65518 147.772 9.34482 147.285 9.48139L142.243 10.8969C142.075 10.9441 141.944 11.0753 141.897 11.2432L140.481 16.2853C140.345 16.7718 139.655 16.7718 139.519 16.2853L138.103 11.2432C138.056 11.0753 137.925 10.9441 137.757 10.8969L132.715 9.48139C132.228 9.34482 132.228 8.65518 132.715 8.51861L137.757 7.10307C137.925 7.05593 138.056 6.92472 138.103 6.75683L139.519 1.7147Z" fill="#F0851D"/>
<path d="M9.51861 44.7147C9.65518 44.2282 10.3448 44.2282 10.4814 44.7147L12.1161 50.5376C12.1633 50.7055 12.2945 50.8367 12.4624 50.8839L18.2853 52.5186C18.7718 52.6552 18.7718 53.3448 18.2853 53.4814L12.4624 55.1161C12.2945 55.1633 12.1633 55.2945 12.1161 55.4624L10.4814 61.2853C10.3448 61.7718 9.65518 61.7718 9.51861 61.2853L7.88387 55.4624C7.83673 55.2945 7.70552 55.1633 7.53762 55.1161L1.7147 53.4814C1.22823 53.3448 1.22823 52.6552 1.7147 52.5186L7.53762 50.8839C7.70552 50.8367 7.83673 50.7055 7.88387 50.5376L9.51861 44.7147Z" fill="#F0851D"/>
<path d="M170.519 92.7147C170.655 92.2282 171.345 92.2282 171.481 92.7147L173.555 100.099C173.602 100.267 173.733 100.398 173.901 100.445L181.285 102.519C181.772 102.655 181.772 103.345 181.285 103.481L173.901 105.555C173.733 105.602 173.602 105.733 173.555 105.901L171.481 113.285C171.345 113.772 170.655 113.772 170.519 113.285L168.445 105.901C168.398 105.733 168.267 105.602 168.099 105.555L160.715 103.481C160.228 103.345 160.228 102.655 160.715 102.519L168.099 100.445C168.267 100.398 168.398 100.267 168.445 100.099L170.519 92.7147Z" fill="#F0851D"/>
<rect opacity="0.3" x="23" y="12" width="134" height="134" rx="67" fill="#FCE7D2"/>
<path d="M90 39.5C112.368 39.5 130.5 57.6325 130.5 80C130.5 102.368 112.368 120.5 90 120.5C67.6325 120.5 49.5 102.368 49.5 80C49.5 57.6325 67.6325 39.5 90 39.5Z" fill="#FEF8F2" stroke="#F68D2F" stroke-width="5"/>
<path d="M89.9997 103.175C92.6574 103.175 94.8119 101.021 94.8119 98.363C94.8119 95.7053 92.6574 93.5508 89.9997 93.5508C87.342 93.5508 85.1875 95.7053 85.1875 98.363C85.1875 101.021 87.342 103.175 89.9997 103.175Z" fill="#F0851D"/>
<path d="M90.6754 90.707C90.6754 90.707 97.3271 73.0375 97.3271 64.1514C97.3271 62.208 96.5551 60.3441 95.1809 58.9699C93.8067 57.5957 91.9429 56.8237 89.9995 56.8237C88.0561 56.8237 86.1923 57.5957 84.8181 58.9699C83.4439 60.3441 82.6719 62.208 82.6719 64.1514C82.6719 73.0375 89.3246 90.707 89.3246 90.707H90.6754Z" fill="#F0851D"/>
</svg>
