<svg width="25" height="25" viewBox="0 0 25 25" fill="none" xmlns="http://www.w3.org/2000/svg">
<path d="M9.01822 18.4578C6.20303 16.2889 2.89648 13.7412 2.89648 9.32501C2.89648 4.44977 8.41057 0.992333 12.9218 5.67934L14.9269 7.68304C15.2205 7.97663 15.6966 7.97655 15.9903 7.68285C16.2838 7.38916 16.2837 6.91309 15.9901 6.61951L14.0532 4.68331C18.3039 1.57142 22.9471 4.85126 22.9471 9.32501C22.9471 13.7412 19.6406 16.2888 16.8254 18.4578C16.5328 18.6832 16.2455 18.9046 15.9678 19.1235C14.9269 19.9441 13.9243 20.7166 12.9218 20.7166C11.9193 20.7166 10.9167 19.9441 9.87584 19.1235C9.59812 18.9046 9.31083 18.6832 9.01822 18.4578Z" fill="#C7161E"/>
</svg>
