<svg width="30" height="31" viewBox="0 0 30 31" fill="none" xmlns="http://www.w3.org/2000/svg">
<path d="M24.375 26.8486V19.8174C24.375 16.5358 24.375 14.895 23.7363 13.6416C23.1746 12.5391 22.2783 11.6428 21.1758 11.081C19.9223 10.4424 18.2816 10.4424 15 10.4424C11.7184 10.4424 10.0777 10.4424 8.82428 11.081C7.72177 11.6428 6.82539 12.5391 6.26364 13.6416C6.04316 14.0744 5.8988 14.5532 5.80427 15.1299M5.625 26.8486V19.8174" stroke="#313131" stroke-width="1.875" stroke-linecap="round"/>
<path d="M18.5156 13.7412C19.957 13.7412 21.1289 14.8605 21.0763 16.3019" stroke="#313131" stroke-width="1.875" stroke-linecap="round"/>
<path d="M3.28125 26.8486H17.3438M26.7188 26.8486H22.0313" stroke="#313131" stroke-width="1.875" stroke-linecap="round"/>
<path d="M15 3.41113V6.92676" stroke="#313131" stroke-width="1.875" stroke-linecap="round"/>
<path d="M25.5469 6.92676L23.7891 8.68457" stroke="#313131" stroke-width="1.875" stroke-linecap="round"/>
<path d="M4.45312 6.92676L6.21094 8.68457" stroke="#313131" stroke-width="1.875" stroke-linecap="round"/>
<path d="M16.7578 21.5752C16.7578 22.546 15.9708 23.333 15 23.333C14.0292 23.333 13.2422 22.546 13.2422 21.5752C13.2422 20.6044 14.0292 19.8174 15 19.8174C15.9708 19.8174 16.7578 20.6044 16.7578 21.5752Z" stroke="#313131" stroke-width="1.875"/>
<path d="M15 23.333V26.8486" stroke="#313131" stroke-width="1.875" stroke-linecap="round"/>
</svg>
