<svg width="41" height="41" viewBox="0 0 41 41" fill="none" xmlns="http://www.w3.org/2000/svg">
<circle cx="20.5" cy="20.5" r="20" fill="white"/>
<path d="M18.1875 21.5C18.1875 22.2459 18.4838 22.9613 19.0113 23.4887C19.5387 24.0162 20.2541 24.3125 21 24.3125C21.7459 24.3125 22.4613 24.0162 22.9887 23.4887C23.5162 22.9613 23.8125 22.2459 23.8125 21.5C23.8125 20.7541 23.5162 20.0387 22.9887 19.5113C22.4613 18.9838 21.7459 18.6875 21 18.6875C20.2541 18.6875 19.5387 18.9838 19.0113 19.5113C18.4838 20.0387 18.1875 20.7541 18.1875 21.5Z" stroke="#313131" stroke-width="1.5"/>
<path d="M13.1815 20.2242C13.6245 20.5026 13.9096 20.9768 13.9096 21.4999C13.9096 22.0231 13.6245 22.4973 13.1815 22.7757C12.88 22.965 12.6858 23.1164 12.5476 23.2965C12.2449 23.6911 12.1113 24.1897 12.1762 24.6827C12.2249 25.0525 12.4433 25.4307 12.8801 26.1874C13.3169 26.944 13.5353 27.3222 13.8312 27.5493C14.2258 27.852 14.7244 27.9856 15.2174 27.9207C15.4424 27.8911 15.6706 27.7986 15.9853 27.6323C16.448 27.3878 17.0012 27.378 17.4544 27.6397C17.9075 27.9013 18.1756 28.3853 18.1952 28.9081C18.2085 29.2639 18.2425 29.5078 18.3293 29.7176C18.5196 30.1769 18.8847 30.542 19.3441 30.7323C19.6887 30.875 20.1255 30.875 20.9991 30.875C21.8728 30.875 22.3096 30.875 22.6542 30.7323C23.1136 30.542 23.4786 30.1769 23.6689 29.7176C23.7557 29.5078 23.7898 29.2639 23.8031 28.9082C23.8226 28.3853 24.0907 27.9013 24.5439 27.6397C24.997 27.3781 25.5502 27.3879 26.0128 27.6324C26.3276 27.7987 26.5558 27.8912 26.7808 27.9208C27.2738 27.9858 27.7725 27.8521 28.167 27.5494C28.4628 27.3224 28.6813 26.9441 29.1181 26.1875C29.3126 25.8507 29.4638 25.5888 29.5759 25.3692M28.8166 22.7757C28.3737 22.4974 28.0887 22.0232 28.0886 21.5001C28.0886 20.9769 28.3737 20.5026 28.8166 20.2242C29.1181 20.0349 29.3123 19.8835 29.4505 19.7034C29.7532 19.3089 29.8868 18.8102 29.8219 18.3172C29.7733 17.9474 29.5548 17.5691 29.118 16.8125C28.6812 16.0559 28.4627 15.6777 28.1669 15.4506C27.7724 15.1479 27.2737 15.0143 26.7807 15.0792C26.5557 15.1088 26.3275 15.2013 26.0128 15.3677C25.5501 15.6122 24.9969 15.6219 24.5438 15.3603C24.0907 15.0987 23.8226 14.6147 23.8031 14.0919C23.7898 13.7361 23.7557 13.4922 23.6689 13.2825C23.4786 12.823 23.1136 12.458 22.6542 12.2677C22.3096 12.125 21.8728 12.125 20.9991 12.125C20.1255 12.125 19.6887 12.125 19.3441 12.2677C18.8847 12.458 18.5196 12.823 18.3293 13.2825C18.2425 13.4922 18.2085 13.7361 18.1952 14.0918C18.1756 14.6147 17.9075 15.0987 17.4543 15.3603C17.0012 15.6219 16.448 15.6121 15.9854 15.3676C15.6707 15.2013 15.4425 15.1088 15.2174 15.0791C14.7244 15.0142 14.2258 15.1478 13.8312 15.4506C13.5354 15.6776 13.3169 16.0559 12.8801 16.8125C12.6857 17.1493 12.5345 17.4112 12.4223 17.6307" stroke="#313131" stroke-width="1.5" stroke-linecap="round"/>
</svg>
