<svg width="25" height="25" viewBox="0 0 25 25" fill="none" xmlns="http://www.w3.org/2000/svg">
<path d="M8.32527 10.532C9.84466 9.44509 11.5787 9.06277 13.034 9.06277V6.85471C13.034 5.95251 13.034 5.5014 13.312 5.37657C13.5899 5.25174 13.9272 5.55144 14.6015 6.15083L18.3425 9.47614C19.8197 10.7893 20.5584 11.4459 20.5584 12.2917C20.5584 13.1376 19.8197 13.7941 18.3425 15.1073L14.6015 18.4326C13.9272 19.0319 13.5899 19.3317 13.312 19.2068C13.034 19.082 13.034 18.6309 13.034 17.7287V15.5206C9.64365 15.5206 5.97076 17.1351 4.55811 19.8258C4.55811 17.5357 4.9134 15.7025 5.49997 14.2451" stroke="white" stroke-width="1.50683" stroke-linecap="round" stroke-linejoin="round"/>
</svg>
