<svg width="15" height="16" viewBox="0 0 15 16" fill="none" xmlns="http://www.w3.org/2000/svg">
<path d="M2.53662 7.64258V9.37773C2.53662 11.5589 2.53662 12.6496 3.21424 13.3272C3.89186 14.0048 4.98247 14.0048 7.16369 14.0048H7.74208C9.92328 14.0048 11.0139 14.0048 11.6915 13.3272M12.3691 7.64258V9.37773C12.3691 10.0543 12.3691 10.6259 12.3489 11.1129" stroke="#313131" stroke-width="0.925414" stroke-linecap="round"/>
<path d="M6.0067 2.43652H8.89861M6.0067 2.43652L5.62975 6.20607C5.5219 7.28454 6.36882 8.22036 7.45265 8.22036C8.53654 8.22036 9.38341 7.28454 9.2756 6.20607L8.89861 2.43652M6.0067 2.43652H4.80233C4.27714 2.43652 4.01454 2.43652 3.78933 2.49827C3.31477 2.62836 2.91776 2.95382 2.69713 3.39366M6.0067 2.43652L5.58765 6.62707C5.4972 7.53157 4.73609 8.22036 3.82708 8.22036C2.71054 8.22036 1.87312 7.19888 2.09209 6.10402L2.13153 5.90683M8.89861 2.43652H10.103C10.6282 2.43652 10.8908 2.43652 11.116 2.49827C11.5905 2.62836 11.9876 2.95382 12.2082 3.39366C12.3129 3.60239 12.3644 3.85989 12.4674 4.37488L12.8132 6.10402C13.0322 7.19888 12.1948 8.22036 11.0783 8.22036C10.1693 8.22036 9.40811 7.53157 9.31765 6.62707L8.89861 2.43652Z" stroke="#313131" stroke-width="0.925414" stroke-linecap="round"/>
<path d="M6.00684 13.7153V11.9801C6.00684 11.4396 6.00684 11.1693 6.12307 10.968C6.19921 10.8361 6.30875 10.7266 6.44062 10.6504C6.64196 10.5342 6.91224 10.5342 7.4528 10.5342C7.99335 10.5342 8.26363 10.5342 8.46497 10.6504C8.59684 10.7266 8.70639 10.8361 8.7825 10.968C8.89876 11.1693 8.89876 11.4396 8.89876 11.9801V13.7153" stroke="#313131" stroke-width="0.925414" stroke-linecap="round"/>
</svg>
