<svg width="31" height="31" viewBox="0 0 31 31" fill="none" xmlns="http://www.w3.org/2000/svg">
<path d="M23.6543 10.7777L24.0859 10.3461C24.4872 9.94483 24.6878 9.74418 24.8084 9.53545C25.1354 8.969 25.1354 8.27111 24.8084 7.70466C24.6878 7.49593 24.4872 7.29527 24.0859 6.89397C23.6846 6.49266 23.4839 6.29201 23.2752 6.1715C22.7087 5.84446 22.0109 5.84446 21.4444 6.1715C21.2357 6.29201 21.0351 6.49266 20.6337 6.89397L20.2022 7.32549M15.0239 19.408L8.55114 25.8809C8.14983 26.2821 7.94919 26.4829 7.74045 26.6034C7.174 26.9304 6.47612 26.9304 5.90967 26.6034C5.70093 26.4829 5.50027 26.2821 5.09897 25.8809C4.69768 25.4795 4.49702 25.2789 4.3765 25.0702C4.04947 24.5037 4.04947 23.8059 4.3765 23.2394C4.49702 23.0307 4.69768 22.83 5.09897 22.4287L11.5718 15.9559M22.8812 21.8697C21.8289 22.8381 21.0743 23.3225 20.2022 23.3225C18.9383 23.3225 17.9212 22.3053 15.887 20.2711L10.7087 15.0929C8.67454 13.0587 7.65744 12.0415 7.65744 10.7777C7.65744 9.51375 8.67454 8.49666 10.7087 6.46245C12.743 4.42824 13.7601 3.41113 15.0239 3.41113C16.2879 3.41113 17.305 4.42824 19.3391 6.46245L24.5174 11.6407C26.5517 13.6749 27.5687 14.692 27.5687 15.9559C27.5687 16.831 27.0812 17.5877 26.1062 18.6455" stroke="#313131" stroke-width="1.875" stroke-linecap="round"/>
</svg>
