<svg width="16" height="17" viewBox="0 0 16 17" fill="none" xmlns="http://www.w3.org/2000/svg">
<path d="M6.6142 3.13137C7.50231 2.715 8.49762 2.715 9.38575 3.13137L13.5677 5.09199C14.4774 5.51846 14.4774 6.99475 13.5677 7.42122L9.38581 9.38178C8.49769 9.79815 7.50237 9.79815 6.61426 9.38178L2.43225 7.42122C1.52258 6.99472 1.52259 5.51844 2.43225 5.09196L4.25 4.23976" stroke="white" stroke-linecap="round"/>
<path d="M1.75 6.25659V9.69409" stroke="white" stroke-linecap="round"/>
<path d="M8 14.0691C6.8775 14.0691 5.40856 13.3683 4.49083 12.8601C3.93969 12.5548 3.625 11.965 3.625 11.335V8.13159M12.375 8.13159V11.335C12.375 11.965 12.0603 12.5548 11.5092 12.8601C11.1777 13.0437 10.7742 13.2523 10.3412 13.4441" stroke="white" stroke-linecap="round"/>
</svg>
