<svg width="26" height="26" viewBox="0 0 26 26" fill="none" xmlns="http://www.w3.org/2000/svg">
<path d="M3.57094 17.1903C3.7546 18.7615 4.59423 20.1819 5.88234 21.1003C6.83142 21.7769 7.96798 22.1406 9.13357 22.1406H12.8039C13.9695 22.1406 15.106 21.7769 16.0551 21.1003C17.3432 20.1819 18.1829 18.7615 18.3666 17.1903L18.7734 13.7087C18.8242 13.2748 18.8495 13.0579 18.8389 12.879C18.783 11.9414 18.0916 11.1646 17.1668 11.0001C16.9904 10.9687 16.772 10.9688 16.3351 10.9688H5.60233C5.16549 10.9688 4.94707 10.9687 4.77067 11.0001C3.84596 11.1646 3.15455 11.9414 3.0986 12.879C3.08793 13.0579 3.11328 13.2748 3.164 13.7087" stroke="#313131" stroke-width="1.625" stroke-linecap="round"/>
<path d="M18.0781 18.0781H20.1094C21.7922 18.0781 23.1563 16.714 23.1563 15.0313C23.1563 13.3485 21.7922 11.9844 20.1094 11.9844H18.5859" stroke="#313131" stroke-width="1.625"/>
<path d="M10.9691 2.84375C10.4081 3.40466 10.4081 4.31409 10.9691 4.875C11.5299 5.43591 11.5299 6.34534 10.9691 6.90625" stroke="#313131" stroke-width="1.625" stroke-linecap="round" stroke-linejoin="round"/>
<path d="M5.89043 8.42969L6.00836 8.31175C6.52345 7.79666 6.5814 6.9812 6.14434 6.39844C5.70726 5.81567 5.76521 5.00022 6.28031 4.48512L6.39824 4.36719" stroke="#313131" stroke-width="1.625" stroke-linecap="round" stroke-linejoin="round"/>
<path d="M15.5388 8.42969L15.6568 8.31175C16.1719 7.79666 16.2298 6.9812 15.7927 6.39844C15.3557 5.81567 15.4137 5.00022 15.9287 4.48512L16.0466 4.36719" stroke="#313131" stroke-width="1.625" stroke-linecap="round" stroke-linejoin="round"/>
</svg>
