<svg width="32" height="32" viewBox="0 0 32 32" fill="none" xmlns="http://www.w3.org/2000/svg">
<g clip-path="url(#clip0_8174_2877)">
<path d="M15.9997 32.0004C13.6371 31.9988 11.3042 31.4741 9.16842 30.4639C7.03269 29.4537 5.14719 27.983 3.64734 26.1575C2.1475 24.3321 1.07053 22.1971 0.493802 19.9059C-0.0829287 17.6148 -0.14511 15.2244 0.311724 12.9064C0.768559 10.5884 1.73307 8.40028 3.13598 6.4993C4.53889 4.59831 6.34538 3.03161 8.4257 1.91171C10.506 0.791812 12.8085 0.146518 15.1679 0.0221758C17.5272 -0.102166 19.8848 0.29753 22.0713 1.19256C22.4058 1.33435 22.6709 1.60231 22.8091 1.93832C22.9473 2.27433 22.9474 2.65128 22.8095 2.98738C22.6715 3.32349 22.4066 3.59164 22.0722 3.73367C21.7378 3.8757 21.3609 3.88015 21.0232 3.74605C18.2084 2.59374 15.0825 2.44673 12.1719 3.32978C9.26139 4.21283 6.74412 6.07199 5.04411 8.59408C3.34411 11.1162 2.56526 14.1471 2.83874 17.1763C3.11223 20.2056 4.42135 23.048 6.54559 25.2248C8.66983 27.4016 11.4794 28.7799 14.501 29.1273C17.5227 29.4748 20.5717 28.7703 23.1346 27.1325C25.6975 25.4946 27.6177 23.0236 28.5716 20.1355C29.5256 17.2474 29.455 14.1188 28.3719 11.2767C28.3073 11.1073 28.2766 10.9269 28.2818 10.7457C28.2869 10.5645 28.3276 10.3861 28.4016 10.2207C28.4757 10.0552 28.5816 9.90598 28.7133 9.78147C28.8451 9.65695 29 9.5596 29.1694 9.49498C29.3387 9.43035 29.5192 9.39971 29.7004 9.40482C29.8815 9.40992 30.06 9.45066 30.2254 9.52471C30.5595 9.67427 30.8206 9.95043 30.9511 10.2925C31.8776 12.7156 32.2008 15.3277 31.8929 17.9036C31.585 20.4795 30.6553 22.9419 29.1838 25.0784C27.7123 27.215 25.7433 28.9615 23.4465 30.1676C21.1496 31.3737 18.5939 32.0031 15.9997 32.0014V32.0004Z" fill="white"/>
<path d="M26.8962 2.57414L15.2731 16.4396C14.5523 15.3085 13.7975 14.1989 13.0089 13.1106C12.0425 11.7646 10.1251 11.4999 8.83087 12.5359C8.22637 13.0174 7.83791 13.7194 7.75094 14.4873C7.66397 15.2553 7.88562 16.0263 8.36712 16.6308C9.93674 18.59 11.3637 20.6637 12.695 22.7959C13.7024 24.3505 16.0736 24.3605 17.0903 22.803L29.3937 4.44948C30.4318 2.77105 28.2082 1.10832 26.8962 2.57414Z" fill="white"/>
</g>
<defs>
<clipPath id="clip0_8174_2877">
<rect width="32" height="32" fill="white"/>
</clipPath>
</defs>
</svg>
