<svg width="48" height="48" viewBox="0 0 48 48" fill="none" xmlns="http://www.w3.org/2000/svg">
<path d="M47 47L40.504 40.504M9 17H28M9 23H21M9 11H23M9 29H17M9 35H17M25 47H3C1.89543 47 1 46.1046 1 45V3C1 1.89543 1.89543 1 3 1H29.586C30.1164 1.00011 30.625 1.2109 31 1.586L38.414 9C38.7891 9.37499 38.9999 9.88361 39 10.414V19M25 34.058C25 39.0606 29.0554 43.116 34.058 43.116C39.0606 43.116 43.116 39.0606 43.116 34.058C43.116 29.0554 39.0606 25 34.058 25C29.0554 25 25 29.0554 25 34.058Z" stroke="black" stroke-width="2" stroke-linecap="round" stroke-linejoin="round"/>
</svg>
