<svg width="40" height="41" viewBox="0 0 40 41" fill="none" xmlns="http://www.w3.org/2000/svg">
<circle cx="20" cy="20.3086" r="20" fill="#FCE7D2"/>
<path d="M17.8894 11.1259L25.7744 15.65M17.8894 11.1259L17.1058 10.6626M17.8894 11.1259L14.5623 16.8687M25.7744 15.65L23.6581 19.3029M25.7744 15.65L26.5625 16.1036M23.6581 19.3029L22.0518 22.0755M23.6581 19.3029L21.26 17.9231M22.0518 22.0755L20.5167 24.7254M22.0518 22.0755L18.1116 19.8085M20.5167 24.7254L19.1148 27.1451C17.8586 29.3134 15.0763 30.0564 12.9004 28.8044C10.7245 27.5525 9.979 24.7798 11.2352 22.6115L12.4549 20.5063M20.5167 24.7254L18.0672 23.3161" stroke="#313131" stroke-width="1.5" stroke-linecap="round"/>
<path d="M29.375 22.7728C29.375 23.8515 28.5356 24.7259 27.5 24.7259C26.4644 24.7259 25.625 23.8515 25.625 22.7728C25.625 22.0979 26.3591 21.197 26.9085 20.6173C27.2338 20.2741 27.7662 20.2741 28.0915 20.6173C28.6409 21.197 29.375 22.0979 29.375 22.7728Z" stroke="#313131" stroke-width="1.5"/>
</svg>
