<svg width="40" height="41" viewBox="0 0 40 41" fill="none" xmlns="http://www.w3.org/2000/svg">
<circle cx="20" cy="20.3086" r="20" fill="#FCE7D2"/>
<path d="M19.2725 15.0091C19.7387 14.8388 20.2613 14.8388 20.7275 15.0091L22.923 15.8112C23.4007 15.9856 23.4007 16.5896 22.923 16.764L20.7275 17.5661C20.2613 17.7364 19.7387 17.7364 19.2725 17.5661L17.0769 16.764C16.5994 16.5896 16.5994 15.9856 17.0769 15.8112L19.2725 15.0091Z" stroke="#313131" stroke-width="1.5"/>
<path d="M22.3437 17.2251V19.7565C22.3437 20.1211 22.1324 20.4538 21.7903 20.5799C21.3092 20.7575 20.5977 20.9751 20 20.9751C19.4023 20.9751 18.6908 20.7575 18.2097 20.5799C17.8676 20.4538 17.6562 20.1211 17.6562 19.7565V17.2251" stroke="#313131" stroke-width="1.5" stroke-linecap="round"/>
<path d="M13.4375 23.0527C12.8305 21.5022 12.5 19.8513 12.5 18.2969C12.5 14.0806 15.8579 10.6626 20 10.6626C24.1422 10.6626 27.5 14.0806 27.5 18.2969C27.5 22.4803 25.1063 27.3617 21.3715 29.1073C20.5009 29.5143 19.4991 29.5143 18.6285 29.1073C17.4357 28.5498 16.3797 27.6725 15.4947 26.6001" stroke="#313131" stroke-width="1.5" stroke-linecap="round"/>
</svg>
