<svg width="43" height="43" viewBox="0 0 43 43" fill="none" xmlns="http://www.w3.org/2000/svg">
<g clip-path="url(#clip0_8174_2887)">
<path d="M41.3097 13.1313C40.0762 10.206 38.2104 7.5901 35.8461 5.47138C33.4818 3.35266 30.6778 1.78367 27.6353 0.877042C24.5928 -0.0295854 21.3874 -0.251358 18.249 0.227645C15.1107 0.706648 12.1173 1.87454 9.48379 3.64749C6.85028 5.42044 4.64198 7.75446 3.0174 10.482C1.39282 13.2095 0.392257 16.2629 0.0875619 19.4229C-0.217133 22.583 0.181584 25.7713 1.2551 28.759C2.32861 31.7467 4.05029 34.4596 6.29653 36.7031C6.83235 37.2386 7.39583 37.7456 7.98467 38.2222L7.9917 38.2282C11.8142 41.3211 16.5823 43.0085 21.4993 43.0085C26.4164 43.0085 31.1845 41.3211 35.007 38.2282L35.0145 38.2222C35.6031 37.7455 36.1664 37.2384 36.7022 36.7031C39.7257 33.6767 41.7789 29.8181 42.5995 25.6196C43.4202 21.4211 42.9711 17.0734 41.3097 13.1313ZM29.3136 39.9991C26.0204 41.3918 22.4148 41.879 18.8701 41.4102C15.3253 40.9415 11.9703 39.5338 9.15223 37.333V36.524C9.15223 30.7118 13.8806 25.9829 19.6928 25.9829H23.3068C29.1191 25.9829 33.8475 30.7118 33.8475 36.524V37.333C32.4604 38.4178 30.9359 39.3143 29.3136 39.9991ZM39.9962 29.3166C38.9886 31.7023 37.5273 33.8697 35.6936 35.6985C35.5517 35.8405 35.4067 35.9794 35.2613 36.1168C35.1555 33.0163 33.8494 30.0781 31.6186 27.9222C29.3878 25.7663 26.4067 24.5613 23.3043 24.5616H19.6903C16.5879 24.5612 13.6067 25.7662 11.3759 27.9223C9.14515 30.0783 7.83926 33.0167 7.7339 36.1173C7.58779 35.9799 7.44353 35.8403 7.30109 35.6985C4.72944 33.1232 2.90643 29.8971 2.02715 26.3655C1.14787 22.8339 1.24542 19.1296 2.30936 15.6491C3.3733 12.1687 5.36357 9.043 8.06721 6.60663C10.7708 4.17025 14.0861 2.51486 17.6581 1.81761C21.2301 1.12037 24.9245 1.40751 28.3459 2.64831C31.7673 3.88911 34.787 6.03686 37.0817 8.86173C39.3764 11.6866 40.8598 15.0823 41.3732 18.6853C41.8866 22.2884 41.4106 25.9632 39.9962 29.3166Z" fill="black"/>
<path d="M21.4995 7.70801C17.2997 7.70801 13.8828 11.1249 13.8828 15.3247C13.8828 19.5245 17.3022 22.9419 21.4995 22.9419C25.6968 22.9419 29.1167 19.525 29.1167 15.3247C29.1167 11.1244 25.6998 7.70801 21.4995 7.70801ZM21.4995 21.5181C20.2746 21.5181 19.0772 21.1548 18.0587 20.4743C17.0402 19.7938 16.2463 18.8265 15.7776 17.6948C15.3088 16.5631 15.1862 15.3178 15.4251 14.1164C15.6641 12.9151 16.254 11.8115 17.1201 10.9453C17.9863 10.0792 19.0899 9.48932 20.2913 9.25035C21.4926 9.01137 22.7379 9.13402 23.8696 9.60278C25.0013 10.0715 25.9686 10.8654 26.6491 11.8839C27.3296 12.9024 27.6929 14.0998 27.6929 15.3247C27.691 16.9667 27.0379 18.541 25.8768 19.702C24.7158 20.8631 23.1415 21.5162 21.4995 21.5181Z" fill="black"/>
</g>
<defs>
<clipPath id="clip0_8174_2887">
<rect width="43" height="43" fill="white"/>
</clipPath>
</defs>
</svg>
