<svg width="25" height="25" viewBox="0 0 25 25" fill="none" xmlns="http://www.w3.org/2000/svg">
<path d="M12.4503 6.18352L11.9424 6.67235C11.9456 6.67561 11.9488 6.67884 11.952 6.68205L12.4503 6.18352ZM7.75153 16.4472C7.45093 16.1998 7.0067 16.2429 6.7593 16.5435C6.51191 16.8442 6.55504 17.2883 6.85564 17.5357L7.75153 16.4472ZM3.37301 13.6187C3.55981 13.9602 3.98814 14.0857 4.3297 13.8989C4.67127 13.7121 4.79672 13.2838 4.60991 12.9422L3.37301 13.6187ZM13.8318 8.56112C14.107 8.83635 14.5534 8.83627 14.8286 8.56094C15.1039 8.2856 15.1038 7.83929 14.8284 7.56405L13.8318 8.56112ZM3.75649 9.60133C3.75649 7.57979 4.89879 5.88454 6.45803 5.1718C7.97283 4.47938 10.0082 4.66275 11.9424 6.67235L12.9582 5.69469C10.6632 3.31022 7.99917 2.91722 5.87192 3.88959C3.78911 4.84165 2.34668 7.05233 2.34668 9.60133H3.75649ZM9.15834 19.341C9.63977 19.7205 10.1566 20.1253 10.6804 20.4314C11.204 20.7373 11.8014 20.9859 12.4503 20.9859V19.5761C12.1593 19.5761 11.8169 19.4626 11.3917 19.2141C10.9665 18.9657 10.5255 18.6236 10.0311 18.2339L9.15834 19.341ZM15.7423 19.341C17.0832 18.284 18.7971 17.0728 20.1416 15.5589C21.5102 14.0178 22.554 12.1066 22.554 9.60133H21.1442C21.1442 11.6666 20.299 13.2585 19.0874 14.6228C17.8517 16.0142 16.294 17.1109 14.8696 18.2339L15.7423 19.341ZM22.554 9.60133C22.554 7.05233 21.1115 4.84165 19.0287 3.88959C16.9015 2.91722 14.2375 3.31022 11.9424 5.69469L12.9582 6.67235C14.8924 4.66275 16.9278 4.47938 18.4426 5.1718C20.0018 5.88454 21.1442 7.57979 21.1442 9.60133H22.554ZM14.8696 18.2339C14.3751 18.6236 13.9341 18.9657 13.509 19.2141C13.0837 19.4626 12.7413 19.5761 12.4503 19.5761V20.9859C13.0992 20.9859 13.6967 20.7373 14.2203 20.4314C14.7441 20.1253 15.2608 19.7205 15.7423 19.341L14.8696 18.2339ZM10.0311 18.2339C9.28308 17.6442 8.52286 17.082 7.75153 16.4472L6.85564 17.5357C7.63599 18.178 8.4603 18.7907 9.15834 19.341L10.0311 18.2339ZM4.60991 12.9422C4.08244 11.9778 3.75649 10.8854 3.75649 9.60133H2.34668C2.34668 11.1404 2.74138 12.4639 3.37301 13.6187L4.60991 12.9422ZM11.952 6.68205L13.8318 8.56112L14.8284 7.56405L12.9486 5.68498L11.952 6.68205Z" fill="white"/>
</svg>
