<svg width="26" height="26" viewBox="0 0 26 26" fill="none" xmlns="http://www.w3.org/2000/svg">
<path d="M2.84375 15.0313C2.84375 11.2011 2.84375 9.28601 4.03363 8.09613C5.22351 6.90625 7.13858 6.90625 10.9688 6.90625H15.0313C18.8614 6.90625 20.7765 6.90625 21.9663 8.09613C22.6298 8.75951 22.9233 9.64833 23.0532 10.9688M23.1563 15.0313C23.1563 18.8614 23.1563 20.7765 21.9663 21.9663C20.7765 23.1563 18.8614 23.1563 15.0313 23.1563H10.9688C7.1386 23.1563 5.2235 23.1563 4.03363 21.9663C3.37024 21.3029 3.0767 20.4142 2.94683 19.0938" stroke="black" stroke-width="1.625" stroke-linecap="round"/>
<path d="M17.0625 6.90625C17.0625 4.99117 17.0625 4.03363 16.4675 3.43869C15.8726 2.84375 14.9151 2.84375 13 2.84375C11.0849 2.84375 10.1274 2.84375 9.53244 3.43869C8.9375 4.03363 8.9375 4.99117 8.9375 6.90625" stroke="black" stroke-width="1.625"/>
<path d="M18.0781 9.95312C18.0781 10.514 17.6234 10.9688 17.0625 10.9688C16.5016 10.9688 16.0469 10.514 16.0469 9.95312C16.0469 9.39222 16.5016 8.9375 17.0625 8.9375C17.6234 8.9375 18.0781 9.39222 18.0781 9.95312Z" fill="black"/>
<path d="M9.95312 9.95312C9.95312 10.514 9.49841 10.9688 8.9375 10.9688C8.37659 10.9688 7.92188 10.514 7.92188 9.95312C7.92188 9.39222 8.37659 8.9375 8.9375 8.9375C9.49841 8.9375 9.95312 9.39222 9.95312 9.95312Z" fill="black"/>
</svg>
