<svg width="663" height="139" viewBox="0 0 663 139" fill="none" xmlns="http://www.w3.org/2000/svg">
<g clip-path="url(#clip0_8294_698)">
<path d="M541.801 92.1099L556.041 52.3799H611.401L600.141 92.3399L541.801 92.1099Z" fill="url(#paint0_linear_8294_698)"/>
<path d="M514.481 79.3398L496.251 138.15L450.391 0.0498047H487.141L514.481 79.3398Z" fill="url(#paint1_linear_8294_698)"/>
<path d="M619.779 138.15L662.099 0.0998047L625.919 0.0498047L583.289 138.12L619.779 138.15Z" fill="url(#paint2_linear_8294_698)"/>
<path d="M426 79.3398L407.77 138.15L361.9 0.0498047H398.23L426 79.3398Z" fill="url(#paint3_linear_8294_698)"/>
<path d="M449.16 122.33L459.86 82.0996L515.06 82.2296L502.75 122.43L449.16 122.33Z" fill="url(#paint4_linear_8294_698)"/>
<path d="M444.25 138.15L486.57 0.0998047L450.4 0.0498047L407.76 138.12L444.25 138.15Z" fill="url(#paint5_linear_8294_698)"/>
<path d="M249.01 79.3398L230.78 138.15L184.92 0.0498047H225.03L249.01 79.3398Z" fill="url(#paint6_linear_8294_698)"/>
<path d="M337.811 80.31L319.251 138.19L273.391 0H309.471L337.811 80.31Z" fill="url(#paint7_linear_8294_698)"/>
<path d="M267.26 138.15L309.58 0.0998047L273.41 0.0498047L230.77 138.12L267.26 138.15Z" fill="url(#paint8_linear_8294_698)"/>
<path d="M355.72 138.15L398.12 0.0498047H362.1L319.23 138.12L355.72 138.15Z" fill="url(#paint9_linear_8294_698)"/>
<path d="M532.66 138.15L574.98 0.0998047L538.81 0.0498047L496.17 138.12L532.66 138.15Z" fill="url(#paint10_linear_8294_698)"/>
<path d="M133.58 130.45C132.82 130.86 131.93 131.31 131.02 131.75C131.9 131.33 132.76 130.93 133.58 130.45Z" fill="url(#paint11_linear_8294_698)"/>
<path d="M116.261 136.44C118.831 134.61 121.041 131.17 122.711 126.2C125.071 125.76 127.391 125.2 129.661 124.57C128.171 124.28 126.661 123.96 125.171 123.62C124.571 123.74 123.981 123.89 123.381 124C123.451 123.76 123.501 123.51 123.571 123.26C121.841 122.86 120.101 122.43 118.371 121.97C118.171 122.97 117.951 123.97 117.731 124.87C106.423 126.174 94.9782 125.617 83.8509 123.22C83.9709 119.887 84.2609 115.977 84.7209 111.49L84.9009 109.88C83.0009 109 81.1142 108.097 79.2409 107.17C79.1209 108.17 79.0009 109.11 78.9109 110.06C78.4798 113.972 78.2461 117.904 78.2109 121.84C67.4209 118.84 57.4609 114.14 49.5609 107.84C48.9494 103.794 48.8754 99.6851 49.3409 95.6199C49.5309 93.7999 49.8209 91.9498 50.1809 90.0898L48.5809 89.6299C47.5809 89.8099 46.5809 89.9699 45.5809 90.1199C45.4809 90.8099 45.4009 91.4899 45.3309 92.1199C44.8578 96.2252 44.9723 100.377 45.6709 104.45C42.5678 101.545 39.9093 98.1991 37.7809 94.5199C37.5609 94.5799 37.3509 94.6199 37.1309 94.6599C39.3584 99.2907 42.4388 103.46 46.2109 106.95C47.4275 111.984 50.0452 116.571 53.7609 120.18L56.6208 122.76L58.3708 124.2L61.4609 126.52C67.4018 130.62 74.0052 133.664 80.9809 135.52C81.3914 136.026 81.9458 136.396 82.5709 136.58L85.1309 137.24L86.3708 137.52C86.1284 137.448 85.9036 137.326 85.7108 137.163C85.5179 136.999 85.3613 136.797 85.2509 136.57C93.6756 138.382 102.341 138.801 110.901 137.81C110.266 138.198 109.558 138.45 108.821 138.55L111.821 138.12L113.051 137.91C113.799 137.762 114.523 137.51 115.201 137.16C119.519 136.354 123.733 135.062 127.761 133.31C128.711 132.86 129.841 132.31 130.941 131.77C130.451 132.01 129.941 132.24 129.441 132.47C125.211 134.284 120.789 135.616 116.261 136.44ZM57.6509 123.63C53.7767 120.101 51.1138 115.44 50.0409 110.31C57.8309 116.5 67.6309 121.14 78.2509 124.07C78.4209 129.13 79.1609 132.7 80.4009 134.72C72.1549 132.574 64.4204 128.804 57.6509 123.63ZM111.761 137.12C102.784 138.167 93.6953 137.728 84.8609 135.82C84.1009 133.92 83.7209 130.44 83.7809 125.43C94.7338 127.793 106 128.34 117.131 127.05C115.761 131.99 113.871 135.36 111.761 137.12Z" fill="url(#paint12_linear_8294_698)"/>
<path d="M62.1504 15.3702C62.8204 14.8802 63.5204 14.3702 64.2404 13.9502L62.1504 15.3702Z" fill="url(#paint13_linear_8294_698)"/>
<path d="M168.18 64.9296V64.5896L167.85 61.8096L167.51 59.6495C167.65 60.4395 167.74 61.2096 167.81 61.9896C166.57 55.0398 163.659 48.4954 159.33 42.9196C158.87 37.5296 156.44 32.0296 151.96 26.9196L150.12 24.9196L148.76 23.4596L148.44 23.1396L148.25 22.9696L148.54 23.2496C153.93 28.7096 156.83 34.6596 157.32 40.4896C152.267 34.7574 146.155 30.0547 139.32 26.6396C138.99 22.9096 137.13 19.0896 133.66 15.6396C139.13 16.6289 144.205 19.1577 148.29 22.9296C147.14 21.8296 145.74 20.5696 144.65 19.5696C136.58 12.6996 123.78 11.4696 108.65 17.3896L108.82 17.5396C117 14.9896 124.56 14.2596 131.15 15.1296C133.982 17.754 135.792 21.297 136.26 25.1296C127.746 21.38 118.635 19.1723 109.35 18.6096C109.354 18.6695 109.354 18.7297 109.35 18.7896C118.733 19.922 127.849 22.6763 136.29 26.9296C136.005 30.4998 134.345 33.8201 131.66 36.1896C124.946 29.6003 117.26 24.0826 108.87 19.8296L108.7 19.9696C116.657 24.7308 123.857 30.6565 130.06 37.5496C128.399 38.7952 126.596 39.8391 124.69 40.6596C122.172 41.7446 119.538 42.5365 116.84 43.0196C114.404 35.2365 111.212 27.7106 107.31 20.5496H107.03C110.032 27.9561 112.426 35.5947 114.19 43.3896C108.877 44.008 103.498 43.7479 98.2695 42.6196C100.58 34.3196 102.98 26.7296 105.34 20.4796L105.06 20.3995C101.453 27.3793 98.2996 34.5843 95.6195 41.9696C90.7385 40.6939 86.1597 38.4607 82.1496 35.3995C88.5568 29.2057 95.7884 23.9259 103.64 19.7096L103.56 19.6495L103.45 19.5396C95.1003 23.1649 87.317 27.9744 80.3395 33.8196C77.389 31.2311 75.4334 27.6947 74.8095 23.8196C83.7982 20.4906 93.2769 18.676 102.86 18.4496C102.865 18.3897 102.865 18.3295 102.86 18.2696C93.3419 17.9563 83.8402 19.2615 74.7595 22.1296C74.8954 18.5762 76.4217 15.2184 79.0095 12.7796C87.3482 12.6597 95.6268 14.2066 103.36 17.3296L103.51 17.1796C96.3273 13.6755 88.4948 11.7038 80.5095 11.3896C82.2906 9.97455 84.2551 8.80724 86.3495 7.91957C88.6387 6.93028 91.025 6.1829 93.4695 5.68959C97.0695 7.38959 100.94 10.9896 104.85 16.5796H105.13C102.07 10.8496 98.9995 7.10957 96.1295 5.29957C101.428 4.5949 106.807 4.76722 112.05 5.80958C110.64 7.48958 108.89 11.0696 106.85 16.6396L107.13 16.7096C110.03 11.3296 112.6 7.92957 114.72 6.41957C120.051 7.70205 125.039 10.128 129.34 13.5296C130.14 13.5796 130.93 13.6696 131.69 13.7796C126.924 10.0173 121.396 7.33859 115.49 5.92958C116.14 5.55449 116.907 5.43673 117.64 5.59956L116.13 5.21955L113.84 4.72956C113.597 4.70816 113.353 4.74409 113.127 4.83442C112.902 4.92476 112.7 5.06699 112.54 5.24958C106.747 4.09771 100.805 3.90514 94.9495 4.67958C93.8153 4.12327 92.5429 3.91123 91.2895 4.06959L89.4795 4.33955L87.0095 4.79957C88.6801 4.47566 90.4071 4.60691 92.0095 5.17958C89.311 5.71894 86.6766 6.54012 84.1496 7.62959C81.8373 8.61504 79.6679 9.90655 77.6995 11.4696C71.6195 11.6428 65.6944 13.4269 60.5295 16.6396C61.0395 16.2196 61.5295 15.8196 62.1295 15.4196C61.2395 16.0296 60.3395 16.6496 59.5895 17.2096C59.2195 17.4796 58.8695 17.7596 58.5195 18.0496L57.6995 18.6896L55.1095 20.9296L52.3495 23.5596C53.4148 22.4812 54.5543 21.4788 55.7595 20.5596C50.7595 25.5596 48.1995 31.3996 48.0995 37.4496C42.6819 42.4574 38.4433 48.6052 35.6895 55.4496C35.7404 52.2401 36.3811 49.0673 37.5795 46.0896L35.9295 50.7496C35.1469 53.1987 34.7258 55.7489 34.6795 58.3196C33.8655 60.9255 33.3095 63.605 33.0195 66.3196L33.6295 67.3196C33.9394 65.5285 34.3602 63.7585 34.8895 62.0196C35.3574 65.5552 36.444 68.9807 38.0995 72.1396L39.3995 71.6996C39.7595 71.5796 40.0595 71.4996 40.3995 71.4196C38.06 67.6773 36.54 63.4819 35.9395 59.1096C38.7122 52.0991 42.9305 45.7513 48.3195 40.4796C49.0895 46.5996 52.3795 52.8196 58.3195 58.4796C54.6925 63.972 51.6747 69.8433 49.3195 75.9896L49.9695 76.0496C51.3995 76.1896 52.7995 76.3696 54.1395 76.5696C56.193 71.2925 58.6746 66.1922 61.5595 61.3196C63.4362 62.8054 65.407 64.1682 67.4595 65.3995C67.7787 65.0859 68.1876 64.8797 68.6295 64.8096C68.812 64.7843 68.9971 64.7843 69.1796 64.8096C69.6509 64.8556 70.0938 65.056 70.4395 65.3796L71.2695 66.1696C71.3581 66.2581 71.4415 66.3516 71.5195 66.4496C71.869 66.9241 72.1175 67.4652 72.2495 68.0396C76.6196 70.1863 81.1834 71.9141 85.8795 73.1996C83.7095 81.6196 81.8795 90.0396 80.5695 97.9696C79.0895 97.5596 77.6296 97.1196 76.1796 96.6396C77.5862 97.4396 78.9962 98.2162 80.4095 98.9696C82.2395 99.9696 84.0795 100.88 85.9095 101.78C87.0295 102.33 88.1395 102.86 89.2495 103.37C99.4772 105.228 109.923 105.565 120.25 104.37C120.13 107.37 119.92 110.37 119.63 113.12L119.54 113.81C121.413 114.23 123.276 114.603 125.13 114.93C125.25 114.05 125.36 113.16 125.46 112.23C125.75 109.42 125.93 106.5 126.01 103.49C131.853 102.433 137.557 100.712 143.01 98.3596C147.186 96.6245 151.132 94.3809 154.76 91.6796C154.924 94.547 154.857 97.4229 154.56 100.28C154.161 104.432 153.15 108.503 151.56 112.36C149.312 114.053 146.931 115.562 144.44 116.87H147.39C148.45 116.18 149.48 115.47 150.45 114.74C150.08 115.46 149.68 116.15 149.27 116.82H150.64C151.823 115.286 152.867 113.649 153.76 111.93C156.315 109.559 158.478 106.798 160.17 103.75L161.59 100.92C159.846 104.123 157.597 107.023 154.93 109.51C156.592 105.635 157.641 101.526 158.04 97.3296C158.334 94.4892 158.387 91.629 158.2 88.7795C164.44 82.8795 167.82 75.9196 168.2 68.6896C168.28 69.5096 168.32 70.3296 168.35 71.1596C168.35 69.1596 168.27 67.1596 168.19 65.4296C168.21 65.2096 168.2 65.0396 168.18 64.9296ZM139.38 28.6096C146.244 32.445 152.345 37.5091 157.38 43.5496C157.06 49.3396 154.38 54.9096 149.38 59.6296C145.298 52.0531 140.216 45.0603 134.27 38.8396C137.247 36.2093 139.08 32.521 139.38 28.5596V28.6096ZM97.3795 45.9896C103.153 47.2372 109.092 47.5277 114.96 46.8496C116.766 55.2188 118.131 63.6771 119.05 72.1896C109.828 73.2626 100.494 72.8099 91.4195 70.8496C93.2195 62.2996 95.2395 53.8496 97.3695 45.9296L97.3795 45.9896ZM57.8996 18.9896C63.3621 15.5387 69.5868 13.4786 76.0295 12.9896C73.1674 15.6845 71.4854 19.4007 71.3495 23.3296C63.7673 26.0626 56.7213 30.1 50.5295 35.2596C50.6195 29.4096 53.1095 23.7996 57.8895 18.9896H57.8996ZM60.2995 55.5396C54.5895 50.0996 51.4295 44.1296 50.6995 38.2496C56.8492 32.8029 63.857 28.4103 71.4395 25.2496C71.9095 28.9996 73.9295 32.7996 77.5595 36.2496C71.0735 41.9873 65.2778 48.4609 60.2895 55.5396H60.2995ZM63.4495 58.2696C68.0812 50.9362 73.4818 44.1176 79.5595 37.9296C83.986 41.3151 89.0454 43.7802 94.4395 45.1796C91.6695 52.9296 89.0695 61.2496 86.8195 69.6296C78.3449 67.4447 70.3947 63.5818 63.4395 58.2696H63.4495ZM120.45 101.08C109.049 102.401 97.5084 101.84 86.2895 99.4196C87.4495 91.4196 88.9595 82.9496 90.7095 74.4196C100.151 76.4615 109.865 76.9311 119.46 75.8096C120.255 84.2081 120.568 92.6452 120.4 101.08H120.45ZM117.93 46.3496C120.911 45.8072 123.823 44.9317 126.61 43.7396C128.713 42.8317 130.704 41.6805 132.54 40.3096C138.114 46.8964 142.835 54.1604 146.59 61.9296C143.708 64.0906 140.58 65.9001 137.27 67.3196C132.9 69.1994 128.331 70.5749 123.65 71.4196C122.275 62.946 120.348 54.5714 117.88 46.3496H117.93ZM143 95.1296C137.593 97.4523 131.94 99.1532 126.15 100.2C126.125 91.795 125.493 83.4031 124.26 75.0895C129.132 74.2033 133.888 72.771 138.44 70.8196C141.883 69.3394 145.139 67.4562 148.14 65.2096C151.434 72.5909 153.585 80.4307 154.52 88.4596C150.945 91.1397 147.06 93.3792 142.95 95.1296H143ZM158 85.5396C156.968 77.6094 154.63 69.905 151.08 62.7396C156.27 57.8196 159.08 52.0296 159.44 45.9996C163.755 51.8061 166.662 58.5366 167.93 65.6596C167.44 72.8196 164.08 79.6996 157.91 85.5396H158Z" fill="url(#paint14_linear_8294_698)"/>
<path d="M168.381 71.1104C168.381 72.4704 168.381 73.8004 168.381 74.9604C168.431 73.6704 168.421 72.3904 168.381 71.1104Z" fill="url(#paint15_linear_8294_698)"/>
<path d="M25.0601 68.0596L26.6401 61.8396C4.79015 38.4695 3.93014 17.4595 27.3201 11.3395C29.3097 10.8205 31.3305 10.4297 33.3701 10.1696C37.6301 9.60957 46.4501 9.64961 52.6901 9.95961L54.1802 10.0196C56.7102 10.0896 61.3302 10.2096 62.0502 10.2696C64.742 9.12526 67.5251 8.20867 70.3701 7.52955C68.8301 7.24955 63.2401 6.09956 60.4401 5.59956L59.3501 5.41957C48.0301 3.78957 34.0001 2.84956 26.0601 3.90956C23.7841 4.19488 21.5293 4.62919 19.3101 5.20961C-8.93986 12.6096 -5.47986 39.4596 25.0601 68.0596Z" fill="url(#paint16_linear_8294_698)"/>
<path d="M176.761 69.9302C176.651 69.8002 176.311 69.4002 175.841 68.8702C175.001 67.8702 173.751 66.5202 172.691 65.4502C172.786 67.1922 172.786 68.9381 172.691 70.6802C173.778 72.0259 174.78 73.4386 175.691 74.9102C176.031 75.4502 176.271 75.9102 176.331 75.9802C186.331 94.9202 183.331 112.3 165.481 116.98C163.491 117.499 161.47 117.89 159.431 118.15C155.885 118.617 152.316 118.898 148.741 118.99H147.811C146.471 118.99 145.121 118.99 143.751 118.99L140.311 118.87C135.145 118.602 130.001 118.007 124.911 117.09C123.084 116.77 121.244 116.4 119.391 115.98C107.724 113.326 96.4046 109.326 85.6608 104.06C83.8141 103.16 81.9608 102.22 80.1008 101.24C76.8741 99.5402 73.6308 97.7102 70.3708 95.7502L64.2908 95.4102L62.5508 95.3102C68.0508 98.7802 73.7608 101.98 79.5508 104.9C81.4208 105.83 83.3008 106.74 85.1808 107.61C95.997 112.659 107.233 116.754 118.761 119.85C120.541 120.32 122.321 120.77 124.081 121.18C126.081 121.64 128.064 122.067 130.031 122.46C131.391 122.72 132.741 122.97 134.081 123.2C136.994 123.694 139.851 124.09 142.651 124.39C150.622 125.345 158.679 125.345 166.651 124.39C168.919 124.091 171.166 123.654 173.381 123.08C197.971 116.7 197.081 94.1702 176.761 69.9302Z" fill="url(#paint17_linear_8294_698)"/>
<path d="M70.3201 90.4403C70.3201 90.4403 74.9101 89.0003 71.1501 84.9403C71.1501 84.9403 69.0501 82.4803 61.7901 80.4203C62.5501 79.7403 63.9401 78.4203 65.3601 76.9503L67.1701 78.3003C67.2657 78.3913 67.3734 78.4686 67.4901 78.5303C67.5822 78.5804 67.6794 78.6207 67.7801 78.6503C67.9921 78.7094 68.2138 78.7261 68.4324 78.6992C68.6509 78.6724 68.862 78.6026 69.0535 78.4938C69.2449 78.3851 69.413 78.2396 69.548 78.0656C69.683 77.8917 69.7822 77.6927 69.84 77.4803C69.9295 77.2021 69.9472 76.9059 69.8912 76.6191C69.8352 76.3323 69.7076 76.0644 69.5201 75.8403C69.3253 75.6096 69.0685 75.4396 68.7801 75.3503H68.6401L67.4201 74.6203C69.4201 72.0703 70.9401 69.3703 69.7701 67.8203L68.9401 67.0303C68.9401 67.0303 66.3601 71.8603 54.9401 78.9703C54.4334 78.8836 53.9034 78.8036 53.3501 78.7303C51.9901 78.5303 50.5301 78.3603 48.9601 78.2103L48.5601 78.1503L44.8701 77.5703L41.0001 76.9803C39.6501 76.7703 38.3101 76.5803 37.1501 76.4103L39.7601 75.1303L41.5401 74.2803C41.675 74.1354 41.7803 73.9655 41.8501 73.7803C41.8501 73.6503 41.8501 73.5303 41.6501 73.4903C41.1071 73.4886 40.5696 73.5975 40.0701 73.8103L39.1401 74.1203L35.7601 75.2503L33.1401 70.8303L32.7501 70.1803L30.7501 66.9003C30.7501 66.9003 29.1101 63.7303 29.6101 67.6403C29.6101 67.6403 30.6101 73.0403 32.1701 75.7303L23.7601 77.5003C23.7601 77.5003 22.5201 78.0403 24.3401 78.1303L32.7001 78.0603C32.8557 78.3766 33.0293 78.6838 33.2201 78.9803L33.4601 79.3603C34.4464 80.6664 35.6755 81.7699 37.0801 82.6103C38.3518 83.4162 39.69 84.1121 41.0801 84.6903C32.8848 85.7804 24.5934 85.9514 16.3601 85.2003C16.3601 85.2003 11.2501 85.2503 20.3601 87.8603C20.3601 87.8603 20.9201 89.5003 21.2101 90.3203C21.5701 91.3203 23.6401 91.3203 23.7601 90.1903C23.7134 89.6039 23.5503 89.0328 23.2801 88.5103C26.5657 89.0026 29.8902 89.1867 33.2101 89.0603C33.814 90.1007 34.482 91.1026 35.2101 92.0603C35.5005 92.3525 35.8887 92.527 36.3001 92.5503C36.4597 92.5653 36.6204 92.5653 36.7801 92.5503C37.1784 92.526 37.564 92.4003 37.9 92.185C38.2361 91.9697 38.5115 91.6721 38.7001 91.3203C38.8202 90.9464 38.8202 90.5442 38.7001 90.1703C38.619 89.93 38.4897 89.7088 38.3201 89.5203L37.9101 88.8203C40.5101 88.6303 43.2301 88.3103 46.0201 87.8203L48.7501 87.3403L50.6801 87.9003C51.3701 88.1003 52.1 88.3103 52.87 88.5103C54.49 88.9503 56.2701 89.4103 58.2401 89.8903C59.5098 90.1983 60.7949 90.4386 62.09 90.6103C64.8174 91.1011 67.6153 91.0433 70.3201 90.4403Z" fill="url(#paint18_linear_8294_698)"/>
</g>
<defs>
<linearGradient id="paint0_linear_8294_698" x1="541.801" y1="72.3599" x2="611.401" y2="72.3599" gradientUnits="userSpaceOnUse">
<stop offset="0.16" stop-color="#F06724"/>
<stop offset="0.33" stop-color="#F07821"/>
<stop offset="0.65" stop-color="#EEA51B"/>
<stop offset="1" stop-color="#EDDB13"/>
</linearGradient>
<linearGradient id="paint1_linear_8294_698" x1="508.101" y1="120.35" x2="469.401" y2="-1.27019" gradientUnits="userSpaceOnUse">
<stop stop-color="#F06724"/>
<stop offset="0.04" stop-color="#EE6224"/>
<stop offset="0.28" stop-color="#E44525"/>
<stop offset="0.53" stop-color="#DD3126"/>
<stop offset="0.77" stop-color="#D82427"/>
<stop offset="1" stop-color="#D72027"/>
</linearGradient>
<linearGradient id="paint2_linear_8294_698" x1="600.769" y1="134.34" x2="643.999" y2="6.5998" gradientUnits="userSpaceOnUse">
<stop stop-color="#F06724"/>
<stop offset="1" stop-color="#EDDB13"/>
</linearGradient>
<linearGradient id="paint3_linear_8294_698" x1="361.91" y1="69.0998" x2="426" y2="69.0998" gradientUnits="userSpaceOnUse">
<stop offset="0.4" stop-color="#4F1211"/>
<stop offset="1" stop-color="#EB2127"/>
</linearGradient>
<linearGradient id="paint4_linear_8294_698" x1="455.945" y1="101.121" x2="512.139" y2="103.549" gradientUnits="userSpaceOnUse">
<stop stop-color="#DB5E26"/>
<stop offset="1" stop-color="#FCB715"/>
</linearGradient>
<linearGradient id="paint5_linear_8294_698" x1="424.55" y1="137.93" x2="466.06" y2="12.4698" gradientUnits="userSpaceOnUse">
<stop stop-color="#4F1211"/>
<stop offset="0.48" stop-color="#93191C"/>
<stop offset="1" stop-color="#D72027"/>
</linearGradient>
<linearGradient id="paint6_linear_8294_698" x1="243.19" y1="120.17" x2="204.49" y2="-1.4502" gradientUnits="userSpaceOnUse">
<stop stop-color="#4F1211"/>
<stop offset="1" stop-color="#4F1211"/>
</linearGradient>
<linearGradient id="paint7_linear_8294_698" x1="331.121" y1="120.38" x2="292.401" y2="-1.32" gradientUnits="userSpaceOnUse">
<stop offset="0.4" stop-color="#4F1211"/>
<stop offset="1" stop-color="#EB2127"/>
</linearGradient>
<linearGradient id="paint8_linear_8294_698" x1="247.56" y1="137.93" x2="289.07" y2="12.4698" gradientUnits="userSpaceOnUse">
<stop stop-color="#89181A"/>
<stop offset="1" stop-color="#EB2127"/>
</linearGradient>
<linearGradient id="paint9_linear_8294_698" x1="336.12" y1="137.96" x2="377.65" y2="12.4498" gradientUnits="userSpaceOnUse">
<stop stop-color="#89181A"/>
<stop offset="1" stop-color="#EB2127"/>
</linearGradient>
<linearGradient id="paint10_linear_8294_698" x1="512.96" y1="137.93" x2="554.47" y2="12.4698" gradientUnits="userSpaceOnUse">
<stop stop-color="#F06724"/>
<stop offset="1" stop-color="#EDDB13"/>
</linearGradient>
<linearGradient id="paint11_linear_8294_698" x1="131.98" y1="132.07" x2="132.62" y2="130.13" gradientUnits="userSpaceOnUse">
<stop stop-color="#89181A"/>
<stop offset="1" stop-color="#EB2127"/>
</linearGradient>
<linearGradient id="paint12_linear_8294_698" x1="76.9809" y1="134.71" x2="87.6409" y2="102.49" gradientUnits="userSpaceOnUse">
<stop stop-color="#89181A"/>
<stop offset="1" stop-color="#EB2127"/>
</linearGradient>
<linearGradient id="paint13_linear_8294_698" x1="62.8804" y1="15.6102" x2="63.5104" y2="13.7002" gradientUnits="userSpaceOnUse">
<stop stop-color="#89181A"/>
<stop offset="1" stop-color="#EB2127"/>
</linearGradient>
<linearGradient id="paint14_linear_8294_698" x1="89.4595" y1="103.9" x2="121.57" y2="6.84959" gradientUnits="userSpaceOnUse">
<stop stop-color="#89181A"/>
<stop offset="1" stop-color="#EB2127"/>
</linearGradient>
<linearGradient id="paint15_linear_8294_698" x1="167.791" y1="74.7804" x2="168.941" y2="71.3004" gradientUnits="userSpaceOnUse">
<stop stop-color="#89181A"/>
<stop offset="1" stop-color="#EB2127"/>
</linearGradient>
<linearGradient id="paint16_linear_8294_698" x1="0.000144897" y1="35.7596" x2="70.3701" y2="35.7596" gradientUnits="userSpaceOnUse">
<stop stop-color="#F06724"/>
<stop offset="1" stop-color="#EDDB13"/>
</linearGradient>
<linearGradient id="paint17_linear_8294_698" x1="62.4908" y1="95.3002" x2="191.921" y2="95.3002" gradientUnits="userSpaceOnUse">
<stop stop-color="#F06724"/>
<stop offset="1" stop-color="#EDDB13"/>
</linearGradient>
<linearGradient id="paint18_linear_8294_698" x1="14.9301" y1="79.1403" x2="72.6301" y2="79.1403" gradientUnits="userSpaceOnUse">
<stop stop-color="#F06724"/>
<stop offset="1" stop-color="#EDDB13"/>
</linearGradient>
<clipPath id="clip0_8294_698">
<rect width="662.1" height="138.51" fill="white"/>
</clipPath>
</defs>
</svg>
