<svg width="20" height="20" viewBox="0 0 20 20" fill="none" xmlns="http://www.w3.org/2000/svg">
<path d="M17.8125 10C17.8125 12.9463 17.8125 14.4195 16.8972 15.3347C15.982 16.25 14.5088 16.25 11.5625 16.25H8.4375C5.49122 16.25 4.01809 16.25 3.10279 15.3347C2.1875 14.4195 2.1875 12.9463 2.1875 10C2.1875 7.05372 2.1875 5.58059 3.10279 4.66529C4.01809 3.75 5.49122 3.75 8.4375 3.75H11.5625C14.5088 3.75 15.982 3.75 16.8972 4.66529C17.4075 5.17559 17.6333 5.85929 17.7332 6.875" stroke="#313131" stroke-width="1.25" stroke-linecap="round"/>
<path d="M14.6875 6.875L13.0009 8.28053C11.566 9.47625 10.8485 10.0741 10 10.0741C9.49273 10.0741 9.03234 9.86047 8.4375 9.43313M5.3125 6.875L6.01562 7.46094L6.71875 8.04688" stroke="#313131" stroke-width="1.25" stroke-linecap="round"/>
</svg>
