<svg width="1485" height="153" viewBox="0 0 1485 153" fill="none" xmlns="http://www.w3.org/2000/svg">
<rect width="1485" height="153" rx="20" fill="#BD0407"/>
<rect x="0.5" y="0.5" width="1484" height="152" rx="19.5" stroke="#D9D9D9" stroke-opacity="0.5"/>
<g opacity="0.7" clip-path="url(#clip0_9783_3796)">
<path fill-rule="evenodd" clip-rule="evenodd" d="M1290.73 38.8638C1292.24 34.6926 1297.65 32.7431 1302.01 34.3299C1306.37 35.9168 1309.26 40.8855 1307.74 45.0566C1306.34 48.9107 1303.72 50.0086 1300.25 51.3829L1300.1 51.4397C1296.66 52.801 1292.39 54.4867 1290.32 60.1702C1289.92 61.2843 1290.49 62.5161 1291.6 62.9216C1292.72 63.3271 1293.95 62.7527 1294.36 61.6386C1295.74 57.8328 1298.34 56.7552 1301.83 55.3757L1301.92 55.3375C1305.39 53.9675 1309.68 52.2705 1311.78 46.525C1314.29 39.6053 1309.51 32.49 1303.48 30.2955C1297.45 28.101 1289.21 30.4757 1286.69 37.3954C1286.29 38.5095 1286.86 39.7413 1287.97 40.1468C1289.09 40.5523 1290.32 39.9779 1290.73 38.8638ZM1287.41 74.4372C1289.11 75.0543 1290.98 74.18 1291.6 72.4848C1292.22 70.7893 1291.34 68.9149 1289.65 68.2979C1287.95 67.6808 1286.08 68.5548 1285.46 70.2503C1284.84 71.9454 1285.72 73.8202 1287.41 74.4372Z" fill="white"/>
</g>
<g opacity="0.7" clip-path="url(#clip1_9783_3796)">
<path d="M380.46 35.0012C382.115 35.0012 383.461 33.6551 383.461 32.0006C383.461 30.3461 382.115 29 380.46 29C378.806 29 377.46 30.3461 377.46 32.0006C377.46 33.6551 378.806 35.0012 380.46 35.0012ZM380.46 30.4741C381.302 30.4741 381.987 31.1589 381.987 32.0007C381.987 32.8424 381.302 33.5272 380.46 33.5272C379.619 33.5272 378.934 32.8424 378.934 32.0006C378.934 31.1589 379.619 30.4741 380.46 30.4741Z" fill="white"/>
<path d="M380.503 66C386.778 66 391.883 60.895 391.883 54.6201C391.883 52.9627 390.534 51.6143 388.877 51.6143C387.22 51.6143 385.871 52.9627 385.871 54.6201C385.871 57.5802 383.463 59.9883 380.503 59.9883C377.543 59.9883 375.135 57.5803 375.135 54.6202C375.135 51.6601 377.543 49.2521 380.503 49.2521C382.16 49.2521 383.509 47.9037 383.509 46.2463V39.2335C383.509 37.5761 382.16 36.2277 380.503 36.2277C378.846 36.2277 377.497 37.576 377.497 39.2335V43.6435C375.23 44.2666 373.183 45.5983 371.683 47.4367C370.032 49.4598 369.123 52.011 369.123 54.6202C369.123 60.895 374.228 66 380.503 66ZM378.391 44.9409C378.73 44.8671 378.971 44.5673 378.971 44.2207V39.2334C378.971 38.3888 379.658 37.7016 380.503 37.7016C381.347 37.7016 382.035 38.3888 382.035 39.2334V46.2462C382.035 47.0908 381.347 47.7779 380.503 47.7779C376.73 47.7779 373.661 50.8473 373.661 54.6201C373.661 58.3929 376.73 61.4624 380.503 61.4624C384.276 61.4624 387.345 58.393 387.345 54.6202C387.345 53.7756 388.032 53.0884 388.877 53.0884C389.721 53.0884 390.409 53.7756 390.409 54.6202C390.409 60.0822 385.965 64.5259 380.503 64.5259C375.041 64.5259 370.597 60.0822 370.597 54.6203C370.597 49.996 373.875 45.9252 378.391 44.9409Z" fill="white"/>
</g>
<g opacity="0.7" clip-path="url(#clip2_9783_3796)">
<path d="M67.946 63.3115C66.4336 63.5782 65.4201 65.0256 65.6868 66.538C65.9534 68.0504 67.4009 69.0639 68.9133 68.7973C70.4257 68.5306 71.4392 67.0832 71.1725 65.5708C70.9058 64.0583 69.4584 63.0448 67.946 63.3115ZM68.6757 67.4498C67.9063 67.5855 67.1699 67.0698 67.0342 66.3004C66.8985 65.531 67.4141 64.7946 68.1836 64.6589C68.953 64.5232 69.6894 65.0389 69.8251 65.8083C69.9607 66.5778 69.4451 67.3141 68.6757 67.4498Z" fill="white"/>
<path d="M62.9102 34.9817C57.1743 35.9931 53.3306 41.4824 54.342 47.2183C54.6092 48.7334 56.0591 49.7486 57.5741 49.4815C59.0892 49.2143 60.1044 47.7644 59.8373 46.2494C59.3602 43.5435 61.1734 40.9541 63.8791 40.477C66.5849 39.9999 69.1743 41.813 69.6514 44.5188C70.1285 47.2246 68.3154 49.8139 65.6097 50.291C64.0946 50.5582 63.0794 52.0081 63.3465 53.5231L64.4768 59.9335C64.744 61.4486 66.1939 62.4638 67.7089 62.1967C69.224 61.9295 70.2392 60.4797 69.9721 58.9645L69.2613 54.9333C71.2333 53.9984 72.89 52.4511 73.9648 50.5288C75.1476 48.4135 75.5673 45.9349 75.1468 43.5498C74.1354 37.814 68.6461 33.9703 62.9102 34.9817ZM68.235 53.8915C67.9373 54.0136 67.7649 54.3265 67.8208 54.6433L68.6247 59.2023C68.7608 59.9743 68.2434 60.7132 67.4714 60.8493C66.6993 60.9855 65.9604 60.4681 65.8243 59.696L64.694 53.2856C64.5579 52.5136 65.0752 51.7747 65.8473 51.6386C69.296 51.0304 71.6071 47.73 70.999 44.2812C70.3909 40.8325 67.0903 38.5214 63.6416 39.1295C60.1928 39.7376 57.8818 43.0382 58.4899 46.4869C58.626 47.2589 58.1086 47.9978 57.3366 48.1339C56.5646 48.2701 55.8257 47.7527 55.6895 46.9806C54.8092 41.9878 58.1549 37.2095 63.1478 36.3292C68.1407 35.4488 72.9189 38.7945 73.7993 43.7873C74.5446 48.0144 72.2045 52.2639 68.235 53.8915Z" fill="white"/>
</g>
<g opacity="0.7" clip-path="url(#clip3_9783_3796)">
<path fill-rule="evenodd" clip-rule="evenodd" d="M219.726 79.8638C221.244 75.6926 226.651 73.7431 231.011 75.3299C235.371 76.9168 238.259 81.8855 236.741 86.0566C235.338 89.9107 232.725 91.0086 229.248 92.3829L229.104 92.4397C225.658 93.801 221.39 95.4867 219.321 101.17C218.916 102.284 219.49 103.516 220.604 103.922C221.718 104.327 222.95 103.753 223.356 102.639C224.741 98.8328 227.336 97.7552 230.826 96.3757L230.923 96.3375C234.39 94.9675 238.684 93.2705 240.775 87.525C243.294 80.6053 238.509 73.49 232.479 71.2955C226.45 69.101 218.21 71.4757 215.692 78.3954C215.286 79.5095 215.861 80.7413 216.975 81.1468C218.089 81.5523 219.321 80.9779 219.726 79.8638ZM216.413 115.437C218.108 116.054 219.983 115.18 220.6 113.485C221.217 111.789 220.343 109.915 218.648 109.298C216.952 108.681 215.078 109.555 214.461 111.25C213.844 112.945 214.718 114.82 216.413 115.437Z" fill="white"/>
</g>
<g opacity="0.7" clip-path="url(#clip4_9783_3796)">
<path d="M1407.05 103.569C1405.54 103.835 1404.52 105.283 1404.79 106.795C1405.06 108.308 1406.5 109.321 1408.01 109.054C1409.53 108.788 1410.54 107.34 1410.27 105.828C1410.01 104.315 1408.56 103.302 1407.05 103.569ZM1407.78 107.707C1407.01 107.843 1406.27 107.327 1406.14 106.557C1406 105.788 1406.52 105.052 1407.29 104.916C1408.05 104.78 1408.79 105.296 1408.93 106.065C1409.06 106.835 1408.55 107.571 1407.78 107.707Z" fill="white"/>
<path d="M1402.01 75.2388C1396.28 76.2502 1392.43 81.7395 1393.44 87.4754C1393.71 88.9904 1395.16 90.0057 1396.68 89.7385C1398.19 89.4714 1399.21 88.0215 1398.94 86.5064C1398.46 83.8006 1400.27 81.2112 1402.98 80.7341C1405.69 80.257 1408.28 82.0701 1408.75 84.7759C1409.23 87.4817 1407.42 90.071 1404.71 90.5481C1403.2 90.8153 1402.18 92.2652 1402.45 93.7802L1403.58 100.191C1403.85 101.706 1405.3 102.721 1406.81 102.454C1408.33 102.187 1409.34 100.737 1409.07 99.2216L1408.36 95.1904C1410.33 94.2554 1411.99 92.7082 1413.07 90.7859C1414.25 88.6706 1414.67 86.192 1414.25 83.8069C1413.24 78.071 1407.75 74.2274 1402.01 75.2388ZM1407.34 94.1486C1407.04 94.2707 1406.87 94.5836 1406.92 94.9004L1407.73 99.4593C1407.86 100.231 1407.34 100.97 1406.57 101.106C1405.8 101.243 1405.06 100.725 1404.93 99.9531L1403.8 93.5427C1403.66 92.7707 1404.18 92.0318 1404.95 91.8956C1408.4 91.2875 1410.71 87.987 1410.1 84.5383C1409.49 81.0896 1406.19 78.7785 1402.74 79.3866C1399.29 79.9947 1396.98 83.2952 1397.59 86.7439C1397.73 87.516 1397.21 88.2549 1396.44 88.391C1395.67 88.5271 1394.93 88.0097 1394.79 87.2377C1393.91 82.2448 1397.26 77.4666 1402.25 76.5862C1407.24 75.7059 1412.02 79.0516 1412.9 84.0444C1413.65 88.2715 1411.31 92.5209 1407.34 94.1486Z" fill="white"/>
</g>
<g opacity="0.7" clip-path="url(#clip5_9783_3796)">
<path d="M1173.46 81.0012C1175.11 81.0012 1176.46 79.6551 1176.46 78.0006C1176.46 76.3461 1175.11 75 1173.46 75C1171.81 75 1170.46 76.3461 1170.46 78.0006C1170.46 79.6551 1171.81 81.0012 1173.46 81.0012ZM1173.46 76.4741C1174.3 76.4741 1174.99 77.1589 1174.99 78.0007C1174.99 78.8424 1174.3 79.5272 1173.46 79.5272C1172.62 79.5272 1171.93 78.8424 1171.93 78.0006C1171.93 77.1589 1172.62 76.4741 1173.46 76.4741Z" fill="white"/>
<path d="M1173.5 112C1179.78 112 1184.88 106.895 1184.88 100.62C1184.88 98.9627 1183.53 97.6143 1181.88 97.6143C1180.22 97.6143 1178.87 98.9627 1178.87 100.62C1178.87 103.58 1176.46 105.988 1173.5 105.988C1170.54 105.988 1168.13 103.58 1168.13 100.62C1168.13 97.6601 1170.54 95.2521 1173.5 95.2521C1175.16 95.2521 1176.51 93.9037 1176.51 92.2463V85.2335C1176.51 83.5761 1175.16 82.2277 1173.5 82.2277C1171.85 82.2277 1170.5 83.576 1170.5 85.2335V89.6435C1168.23 90.2666 1166.18 91.5983 1164.68 93.4367C1163.03 95.4598 1162.12 98.011 1162.12 100.62C1162.12 106.895 1167.23 112 1173.5 112ZM1171.39 90.9409C1171.73 90.8671 1171.97 90.5673 1171.97 90.2207V85.2334C1171.97 84.3888 1172.66 83.7016 1173.5 83.7016C1174.35 83.7016 1175.03 84.3888 1175.03 85.2334V92.2462C1175.03 93.0908 1174.35 93.7779 1173.5 93.7779C1169.73 93.7779 1166.66 96.8473 1166.66 100.62C1166.66 104.393 1169.73 107.462 1173.5 107.462C1177.28 107.462 1180.35 104.393 1180.35 100.62C1180.35 99.7756 1181.03 99.0884 1181.88 99.0884C1182.72 99.0884 1183.41 99.7756 1183.41 100.62C1183.41 106.082 1178.96 110.526 1173.5 110.526C1168.04 110.526 1163.6 106.082 1163.6 100.62C1163.6 95.996 1166.88 91.9252 1171.39 90.9409Z" fill="white"/>
</g>
<defs>
<clipPath id="clip0_9783_3796">
<rect width="56" height="56" fill="white" transform="translate(1278.16 18) rotate(20)"/>
</clipPath>
<clipPath id="clip1_9783_3796">
<rect width="37" height="37" fill="white" transform="matrix(-1 0 0 -1 399 66)"/>
</clipPath>
<clipPath id="clip2_9783_3796">
<rect width="34.3436" height="34.3436" fill="white" transform="translate(46 37.9636) rotate(-10)"/>
</clipPath>
<clipPath id="clip3_9783_3796">
<rect width="56" height="56" fill="white" transform="translate(207.156 59) rotate(20)"/>
</clipPath>
<clipPath id="clip4_9783_3796">
<rect width="34.3436" height="34.3436" fill="white" transform="translate(1385.1 78.2207) rotate(-10)"/>
</clipPath>
<clipPath id="clip5_9783_3796">
<rect width="37" height="37" fill="white" transform="matrix(-1 0 0 -1 1192 112)"/>
</clipPath>
</defs>
</svg>
