<svg width="25" height="25" viewBox="0 0 25 25" fill="none" xmlns="http://www.w3.org/2000/svg">
<g clip-path="url(#clip0_8639_3102)">
<path d="M12.499 1.38277C15.2453 1.38664 17.8924 2.41041 19.9266 4.25548C21.9609 6.10055 23.2373 8.63541 23.5084 11.3684C23.7794 14.1013 23.0258 16.8375 21.3936 19.0462C19.7615 21.255 17.3671 22.7788 14.675 23.3221C11.983 23.8653 9.18505 23.3894 6.82402 21.9865C4.463 20.5836 2.70718 18.3539 1.89713 15.7297C1.08709 13.1055 1.28056 10.274 2.44004 7.78443C3.59951 5.29483 5.64233 3.32462 8.17223 2.25595C9.54104 1.67673 11.0127 1.37974 12.499 1.38277ZM12.499 0C5.59563 0 0 5.59651 0 12.499C0 19.4015 5.59651 24.998 12.499 24.998C19.4015 24.998 24.998 19.4017 24.998 12.499C24.998 5.59621 19.4015 0 12.499 0Z" fill="#1D1D1B"/>
<path d="M17.5358 8.08493L12.7029 13.0527C12.6768 13.0794 12.6456 13.1007 12.6112 13.1152C12.5768 13.1297 12.5398 13.1372 12.5024 13.1372C12.4651 13.1372 12.4281 13.1297 12.3936 13.1152C12.3592 13.1007 12.328 13.0794 12.302 13.0527L7.46911 8.08493C7.43023 8.04493 7.40403 7.99433 7.3938 7.93949C7.38356 7.88464 7.38975 7.828 7.41158 7.77666C7.43342 7.72532 7.46992 7.68157 7.51652 7.6509C7.56313 7.62023 7.61775 7.604 7.67353 7.60425H17.3343C17.3898 7.60457 17.444 7.62122 17.4902 7.65211C17.5363 7.683 17.5724 7.72678 17.5939 7.778C17.6153 7.82922 17.6213 7.88563 17.6109 7.9402C17.6006 7.99477 17.5745 8.0451 17.5358 8.08493ZM6.54688 16.0744V8.78844C6.54691 8.73211 6.56374 8.67707 6.59522 8.63035C6.6267 8.58363 6.67139 8.54736 6.72358 8.52617C6.77578 8.50498 6.8331 8.49983 6.88824 8.51138C6.94337 8.52294 6.99381 8.55066 7.03311 8.59103L12.2579 13.9615C12.3043 14.0106 12.3641 14.0451 12.4299 14.0608C12.4852 14.0732 12.5429 14.0712 12.5973 14.055C12.6517 14.0388 12.701 14.0089 12.7406 13.9682L17.9718 8.59103C18.011 8.55062 18.0614 8.52285 18.1166 8.51128C18.1717 8.4997 18.229 8.50484 18.2812 8.52605C18.3334 8.54725 18.3781 8.58355 18.4095 8.63029C18.441 8.67704 18.4577 8.7321 18.4577 8.78844V16.0755C18.4577 16.4254 18.3187 16.761 18.0713 17.0085C17.8238 17.2559 17.4882 17.3949 17.1383 17.3949H7.86744C7.69408 17.3951 7.52239 17.3611 7.36217 17.2948C7.20196 17.2286 7.05637 17.1314 6.93373 17.0089C6.81109 16.8864 6.7138 16.7409 6.64742 16.5807C6.58104 16.4205 6.54687 16.2489 6.54688 16.0755V16.0744Z" fill="#1D1D1B"/>
</g>
<defs>
<clipPath id="clip0_8639_3102">
<rect width="25" height="25" fill="white"/>
</clipPath>
</defs>
</svg>
