<svg width="24" height="24" viewBox="0 0 24 24" fill="none" xmlns="http://www.w3.org/2000/svg">
<path d="M8.20507 6.25434C8.42555 6.26027 8.66999 6.27225 8.90255 6.7905C9.05676 7.13551 9.31655 7.77065 9.52818 8.28803C9.69291 8.69064 9.82836 9.02194 9.86222 9.08975C9.93971 9.2446 9.98743 9.42329 9.88608 9.63174C9.87415 9.65632 9.86294 9.67981 9.85198 9.70244C9.77075 9.87181 9.71291 9.99242 9.57614 10.1499C9.51997 10.2148 9.46141 10.2858 9.40307 10.3566C9.30047 10.4811 9.19853 10.6047 9.11116 10.692C8.95618 10.8468 8.79517 11.0137 8.97399 11.3234C9.15292 11.6331 9.77883 12.6518 10.7029 13.4737C11.6962 14.3616 12.56 14.7358 12.9967 14.9249C13.0814 14.9617 13.1501 14.9914 13.2005 15.0166C13.5106 15.1714 13.6953 15.1476 13.8741 14.9392C14.0531 14.7306 14.6491 14.0336 14.8578 13.7239C15.0605 13.4142 15.2691 13.4619 15.5553 13.5691C15.8414 13.6762 17.3675 14.4268 17.6774 14.5817C17.7387 14.6123 17.796 14.6398 17.8492 14.6655C18.0648 14.7693 18.2114 14.8398 18.2736 14.9451C18.3511 15.0761 18.3511 15.6956 18.0948 16.4224C17.8325 17.149 16.5687 17.8459 15.9964 17.8995C15.9421 17.9047 15.8883 17.9113 15.8327 17.9179C15.3083 17.9817 14.6426 18.0625 12.2705 17.1251C9.34782 15.9714 7.41849 13.1085 7.02842 12.5297C6.99763 12.484 6.97642 12.4525 6.96509 12.4373L6.95849 12.4285C6.78102 12.19 5.69531 10.7316 5.69531 9.22681C5.69531 7.78711 6.40176 7.03757 6.72397 6.6957C6.7444 6.67403 6.76327 6.65401 6.78033 6.63554C7.06643 6.32584 7.40031 6.24841 7.60892 6.24841C7.81764 6.24841 8.02625 6.24841 8.20507 6.25434Z" fill="#1D1D1B"/>
<path fill-rule="evenodd" clip-rule="evenodd" d="M0.120592 23.387C0.0219933 23.7463 0.347952 24.0779 0.707123 23.9838L6.25928 22.5279C8.01188 23.4809 9.98506 23.9872 11.994 23.9872H12.0001C18.6111 23.9872 24 18.6084 24 11.9967C24 8.792 22.754 5.7779 20.4888 3.51434C18.2235 1.25089 15.2131 0 11.9999 0C5.38902 0 7.80605e-07 5.37881 7.80605e-07 11.9908C-0.000758412 14.0941 0.552271 16.1607 1.60356 17.983L0.120592 23.387ZM3.34625 18.465C3.47497 17.9959 3.41066 17.4946 3.16776 17.0735C2.27583 15.5275 1.80696 13.7741 1.8076 11.9908C1.8076 6.38963 6.37875 1.81469 11.9999 1.81469C14.7353 1.81469 17.2873 2.87566 19.2136 4.80052C21.1377 6.72327 22.1924 9.27442 22.1924 11.9967C22.1924 17.5975 17.6213 22.1725 12.0001 22.1725H11.994C10.2871 22.1725 8.60963 21.7422 7.1202 20.9322C6.71709 20.713 6.24605 20.6558 5.80246 20.7722L2.47358 21.645L3.34625 18.465Z" fill="#1D1D1B"/>
</svg>
