<svg width="27" height="26" viewBox="0 0 27 26" fill="none" xmlns="http://www.w3.org/2000/svg">
<path d="M10.9609 15.4375L12.4119 17.0625L16.0391 13" stroke="#9D9D9D" stroke-width="1.625" stroke-linecap="round" stroke-linejoin="round"/>
<path d="M3.34375 13.0006C3.34375 8.21286 3.34375 5.81901 4.8311 4.33166C6.09131 3.07145 8.00229 2.879 11.4688 2.84961M23.6563 13.0006C23.6563 8.21286 23.6563 5.81901 22.1689 4.33166C20.9087 3.07145 18.9977 2.879 15.5313 2.84961" stroke="#9D9D9D" stroke-width="1.625" stroke-linecap="round"/>
<path d="M11.4688 23.1563C8.62474 23.1563 7.20273 23.1563 6.11646 22.6027C5.16095 22.1159 4.38409 21.3391 3.89724 20.3836C3.34375 19.2973 3.34375 17.8753 3.34375 15.0313C3.34375 12.1872 3.34375 10.7652 3.89724 9.67896C4.38409 8.72345 5.16095 7.94659 6.11646 7.45974C7.20273 6.90625 8.62474 6.90625 11.4688 6.90625H15.5313C18.3753 6.90625 19.7973 6.90625 20.8836 7.45974C21.8391 7.94659 22.6159 8.72345 23.1027 9.67896C23.6563 10.7652 23.6563 12.1872 23.6563 15.0313C23.6563 17.8753 23.6563 19.2973 23.1027 20.3836C22.6159 21.3391 21.8391 22.1159 20.8836 22.6027C19.7973 23.1563 18.3753 23.1563 15.5313 23.1563" stroke="#9D9D9D" stroke-width="1.625" stroke-linecap="round"/>
</svg>
