<svg width="27" height="26" viewBox="0 0 27 26" fill="none" xmlns="http://www.w3.org/2000/svg">
<path d="M23.6563 15.0313V13C23.6563 9.16983 23.6563 7.25476 22.4663 6.06488C21.2765 4.875 19.3614 4.875 15.5313 4.875M15.5313 23.1563H11.4688C7.63858 23.1563 5.72351 23.1563 4.53363 21.9663C3.34375 20.7765 3.34375 18.8614 3.34375 15.0313V13C3.34375 9.16983 3.34375 7.25476 4.53363 6.06488C5.72351 4.875 7.63858 4.875 11.4688 4.875" stroke="#9D9D9D" stroke-width="1.625" stroke-linecap="round"/>
<path d="M8.42188 4.875V3.35156" stroke="#9D9D9D" stroke-width="1.625" stroke-linecap="round"/>
<path d="M18.5781 4.875V3.35156" stroke="#9D9D9D" stroke-width="1.625" stroke-linecap="round"/>
<path d="M16.5469 19.0938C16.5469 19.9018 16.8679 20.6768 17.4393 21.2482C18.0107 21.8196 18.7857 22.1406 19.5938 22.1406C20.4018 22.1406 21.1768 21.8196 21.7482 21.2482C22.3196 20.6768 22.6406 19.9018 22.6406 19.0938C22.6406 18.2857 22.3196 17.5107 21.7482 16.9393C21.1768 16.3679 20.4018 16.0469 19.5938 16.0469C18.7857 16.0469 18.0107 16.3679 17.4393 16.9393C16.8679 17.5107 16.5469 18.2857 16.5469 19.0938Z" stroke="#9D9D9D" stroke-width="1.625"/>
<path d="M22.1328 21.6328L23.6563 23.1563" stroke="#9D9D9D" stroke-width="1.625" stroke-linecap="round"/>
<path d="M23.1484 9.95312H12.2305M3.34375 9.95312H7.2793" stroke="#9D9D9D" stroke-width="1.625" stroke-linecap="round"/>
</svg>
