<svg width="27" height="26" viewBox="0 0 27 26" fill="none" xmlns="http://www.w3.org/2000/svg">
<path d="M8.42188 19.0938H14.0078" stroke="#9D9D9D" stroke-width="1.625" stroke-linecap="round"/>
<path d="M9.4375 4.36719C9.4375 3.52581 10.1196 2.84375 10.9609 2.84375H16.0391C16.8804 2.84375 17.5625 3.52581 17.5625 4.36719V5.38281C17.5625 6.22419 16.8804 6.90625 16.0391 6.90625H10.9609C10.1196 6.90625 9.4375 6.22419 9.4375 5.38281V4.36719Z" stroke="#9D9D9D" stroke-width="1.625"/>
<path d="M22.6406 17.0627C22.6406 19.9353 22.6406 21.3717 21.7482 22.264C20.8558 23.1564 19.4195 23.1564 16.5469 23.1564H10.4531C7.5805 23.1564 6.14419 23.1564 5.25178 22.264C4.35938 21.3717 4.35938 19.9353 4.35938 17.0627V14.0158M17.5625 4.87695C19.7715 4.88925 20.9678 4.98721 21.7482 5.7676C22.6406 6.66 22.6406 8.09632 22.6406 10.9689V13.0002M9.4375 4.87695C7.22849 4.88925 6.03217 4.98721 5.25178 5.7676C4.47142 6.54796 4.37344 7.74423 4.36114 9.9531" stroke="#9D9D9D" stroke-width="1.625" stroke-linecap="round"/>
<path d="M8.42188 15.5391H9.4375M16.5469 15.5391H12.4844" stroke="#9D9D9D" stroke-width="1.625" stroke-linecap="round"/>
</svg>
