<svg width="27" height="26" viewBox="0 0 27 26" fill="none" xmlns="http://www.w3.org/2000/svg">
<path d="M14.8251 19.3959L9.67749 21.1118C6.86887 22.048 5.46455 22.5161 4.72327 21.7748C3.98198 21.0335 4.45009 19.6292 5.3863 16.8206L7.10219 11.6729C7.88018 9.33892 8.26917 8.17195 9.18958 7.95467C10.11 7.73738 10.9798 8.6072 12.7194 10.3468L16.1512 13.7786C17.8908 15.5182 18.7607 16.388 18.5433 17.3085" stroke="#9D9D9D" stroke-width="1.625" stroke-linecap="round"/>
<path d="M13.7388 19.4446C13.7388 19.4446 12.9688 17.1278 12.9688 15.5945C12.9688 14.0611 13.7388 11.7444 13.7388 11.7444M9.5037 20.5996C9.5037 20.5996 8.85336 17.8047 8.73368 15.9795C8.53593 12.9638 9.5037 8.2793 9.5037 8.2793" stroke="#9D9D9D" stroke-width="1.625" stroke-linecap="round"/>
<path d="M16.0488 10.9756L16.1951 10.2444C16.3426 9.50615 16.8746 8.90361 17.5888 8.66553C18.3031 8.42746 18.835 7.82492 18.9827 7.08666L19.1289 6.35547" stroke="#9D9D9D" stroke-width="1.625" stroke-linecap="round"/>
<path d="M19.1562 14.2733L19.3725 14.3981C20.0398 14.7834 20.879 14.6984 21.4555 14.1872C21.9777 13.7241 22.7212 13.6067 23.3606 13.8863L23.6567 14.0157" stroke="#9D9D9D" stroke-width="1.625" stroke-linecap="round"/>
<path d="M11.2616 3.63477C10.9188 4.19545 11.0047 4.91795 11.4694 5.38263L11.5688 5.48204C11.9681 5.88134 12.1154 6.46794 11.952 7.00849" stroke="#9D9D9D" stroke-width="1.625" stroke-linecap="round"/>
<path d="M8.34706 4.81581C8.5598 4.60306 8.90472 4.60306 9.11746 4.81581C9.3302 5.02855 9.3302 5.37348 9.11746 5.58622C8.90472 5.79896 8.5598 5.79896 8.34706 5.58622C8.13431 5.37348 8.13431 5.02855 8.34706 4.81581Z" fill="#9D9D9D"/>
<path d="M13.6596 8.08143C13.8724 7.86869 14.2173 7.86869 14.43 8.08143C14.6427 8.29418 14.6427 8.6391 14.43 8.85184C14.2173 9.06458 13.8724 9.06458 13.6596 8.85184C13.4468 8.6391 13.4468 8.29418 13.6596 8.08143Z" fill="#9D9D9D"/>
<path d="M18.7377 11.1283C18.9505 10.9156 19.2954 10.9156 19.5082 11.1283C19.7208 11.3411 19.7208 11.686 19.5082 11.8988C19.2954 12.1114 18.9505 12.1114 18.7377 11.8988C18.5249 11.686 18.5249 11.3411 18.7377 11.1283Z" fill="#9D9D9D"/>
<path d="M20.6693 16.3647C20.882 16.1519 21.2269 16.1519 21.4397 16.3647C21.6524 16.5773 21.6524 16.9222 21.4397 17.135C21.2269 17.3478 20.882 17.3478 20.6693 17.135C20.4566 16.9222 20.4566 16.5773 20.6693 16.3647Z" fill="#9D9D9D"/>
<path d="M20.9752 8.64774C20.2944 9.32847 20.783 11.3022 20.783 11.3022C20.783 11.3022 22.7567 11.7907 23.4375 11.1099C24.1585 10.389 23.7505 9.44269 22.6395 9.44566C22.6426 8.33472 21.6962 7.92676 20.9752 8.64774Z" stroke="#9D9D9D" stroke-width="1.625" stroke-linejoin="round"/>
<path d="M16.7396 4.28373L16.7116 4.38236C16.6808 4.4907 16.6654 4.54486 16.6727 4.59804C16.6799 4.65122 16.7091 4.69738 16.7673 4.78971L16.8204 4.87377C17.0254 5.19868 17.1279 5.36114 17.058 5.49402C16.9882 5.6269 16.7922 5.64219 16.4004 5.67278L16.299 5.6807C16.1876 5.6894 16.132 5.69374 16.0833 5.71933C16.0347 5.74491 15.9985 5.78884 15.9262 5.87668L15.8603 5.95666C15.6058 6.26579 15.4785 6.42036 15.3334 6.40049C15.1883 6.38061 15.1213 6.19945 14.9875 5.83714L14.9528 5.7434C14.9147 5.64044 14.8958 5.58896 14.8584 5.5516C14.821 5.51423 14.7695 5.49522 14.6665 5.45717L14.5728 5.42254C14.2105 5.28868 14.0293 5.22175 14.0095 5.0766C13.9896 4.93144 14.1442 4.80418 14.4533 4.54966L14.5333 4.48381C14.6211 4.41149 14.6651 4.37532 14.6906 4.32665C14.7162 4.27797 14.7206 4.2223 14.7293 4.11094L14.7372 4.00956C14.7678 3.61769 14.7831 3.42176 14.916 3.35193C15.0488 3.28208 15.2113 3.38459 15.5362 3.5896L15.6203 3.64265C15.7126 3.70091 15.7587 3.73003 15.8119 3.73732C15.8651 3.7446 15.9193 3.7292 16.0276 3.69842L16.1263 3.6704C16.5074 3.56207 16.6981 3.50791 16.8001 3.60991C16.902 3.7119 16.8479 3.90252 16.7396 4.28373Z" stroke="#9D9D9D" stroke-width="1.625"/>
</svg>
