<svg width="27" height="26" viewBox="0 0 27 26" fill="none" xmlns="http://www.w3.org/2000/svg">
<path d="M23.6563 10.9688V9.95313C23.6563 7.0805 23.6563 5.64419 22.7638 4.75178C21.8714 3.85938 20.4351 3.85938 17.5625 3.85938H9.4375C6.56488 3.85938 5.12857 3.85938 4.23616 4.75178C3.93168 5.05627 3.73108 5.42407 3.59893 5.89063M3.34375 9.95313V10.9688C3.34375 13.8413 3.34375 15.2776 4.23616 16.1701C5.12857 17.0625 6.56488 17.0625 9.4375 17.0625H17.5625C20.4351 17.0625 21.8714 17.0625 22.7638 16.1701C23.0683 15.8656 23.2689 15.4978 23.401 15.0313" stroke="#9D9D9D" stroke-width="1.625" stroke-linecap="round"/>
<path d="M13.5 20.1094V17.5703M13.5 20.1094L19.5938 22.1406M13.5 20.1094L7.40625 22.1406" stroke="#9D9D9D" stroke-width="1.625" stroke-linecap="round"/>
</svg>
