<svg width="27" height="26" viewBox="0 0 27 26" fill="none" xmlns="http://www.w3.org/2000/svg">
<path d="M13.5 18.0781V19.0938" stroke="#9D9D9D" stroke-width="1.625" stroke-linecap="round"/>
<path d="M13.5 6.90625V7.92188" stroke="#9D9D9D" stroke-width="1.625" stroke-linecap="round"/>
<path d="M16.5469 10.4609C16.5469 9.05865 15.1828 7.92188 13.5 7.92188C11.8172 7.92188 10.4531 9.05865 10.4531 10.4609C10.4531 11.8632 11.8172 13 13.5 13C15.1828 13 16.5469 14.1368 16.5469 15.5391C16.5469 16.9413 15.1828 18.0781 13.5 18.0781C11.8172 18.0781 10.4531 16.9413 10.4531 15.5391" stroke="#9D9D9D" stroke-width="1.625" stroke-linecap="round"/>
<path d="M8.42188 4.20247C9.91573 3.33833 11.6501 2.84375 13.5 2.84375C19.1091 2.84375 23.6563 7.39086 23.6563 13C23.6563 18.6091 19.1091 23.1563 13.5 23.1563C7.89086 23.1563 3.34375 18.6091 3.34375 13C3.34375 11.1501 3.83833 9.41573 4.70247 7.92188" stroke="#9D9D9D" stroke-width="1.625" stroke-linecap="round"/>
</svg>
