<svg width="27" height="26" viewBox="0 0 27 26" fill="none" xmlns="http://www.w3.org/2000/svg">
<path d="M11.4688 9.95313C11.4688 10.4918 11.6828 11.0085 12.0637 11.3894C12.4446 11.7704 12.9613 11.9844 13.5 11.9844C14.0387 11.9844 14.5554 11.7704 14.9363 11.3894C15.3172 11.0085 15.5313 10.4918 15.5313 9.95313C15.5313 9.4144 15.3172 8.89775 14.9363 8.51681C14.5554 8.13588 14.0387 7.92188 13.5 7.92188C12.9613 7.92188 12.4446 8.13588 12.0637 8.51681C11.6828 8.89775 11.4688 9.4144 11.4688 9.95313Z" stroke="#9D9D9D" stroke-width="1.625"/>
<path d="M17.5625 16.0469C17.5625 17.1687 17.5625 18.0781 13.5 18.0781C9.4375 18.0781 9.4375 17.1687 9.4375 16.0469C9.4375 14.925 11.2563 14.0156 13.5 14.0156C15.7436 14.0156 17.5625 14.925 17.5625 16.0469Z" stroke="#9D9D9D" stroke-width="1.625"/>
<path d="M4.35938 11.392C4.35938 8.14437 4.35938 6.5206 4.74279 5.97432C5.1262 5.42805 6.65298 4.90543 9.70655 3.86018L10.2883 3.66104C11.8801 3.11618 12.6759 2.84375 13.5 2.84375C14.3241 2.84375 15.1199 3.11618 16.7117 3.66104L17.2935 3.86018C20.347 4.90543 21.8738 5.42805 22.2572 5.97432C22.6406 6.5206 22.6406 8.14437 22.6406 11.392V12.9913C22.6406 15.5353 21.7908 17.4976 20.6094 18.9964M4.55523 15.0313C5.42605 19.3968 9.00729 21.6459 11.3657 22.6762C12.0984 22.9962 12.4648 23.1563 13.5 23.1563C14.5352 23.1563 14.9016 22.9962 15.6342 22.6762C16.2215 22.4196 16.8845 22.0876 17.5625 21.6661" stroke="#9D9D9D" stroke-width="1.625" stroke-linecap="round"/>
</svg>
