<svg width="14" height="14" viewBox="0 0 14 14" fill="none" xmlns="http://www.w3.org/2000/svg">
<path d="M4.26562 2.625V1.80469" stroke="#313131" stroke-width="0.875" stroke-linecap="round"/>
<path d="M9.73438 2.625V1.80469" stroke="#313131" stroke-width="0.875" stroke-linecap="round"/>
<path d="M8.64062 9.46094C8.64062 9.6785 8.72705 9.88715 8.88089 10.041C9.03473 10.1948 9.24338 10.2812 9.46094 10.2812C9.6785 10.2812 9.88715 10.1948 10.041 10.041C10.1948 9.88715 10.2812 9.6785 10.2812 9.46094C10.2812 9.24338 10.1948 9.03473 10.041 8.88089C9.88715 8.72705 9.6785 8.64062 9.46094 8.64062C9.24338 8.64062 9.03473 8.72705 8.88089 8.88089C8.72705 9.03473 8.64062 9.24338 8.64062 9.46094Z" stroke="#313131" stroke-width="0.875"/>
<path d="M12.1953 5.35938H6.31641M1.53125 5.35938H3.65039" stroke="#313131" stroke-width="0.875" stroke-linecap="round"/>
<path d="M8.09375 12.4688H5.90625C3.84385 12.4688 2.81266 12.4687 2.17195 11.828C1.53125 11.1874 1.53125 10.1561 1.53125 8.09375V7C1.53125 4.9376 1.53125 3.90641 2.17195 3.2657C2.81266 2.625 3.84385 2.625 5.90625 2.625H8.09375C10.1561 2.625 11.1874 2.625 11.828 3.2657C12.4687 3.90641 12.4688 4.9376 12.4688 7V8.09375C12.4688 10.1561 12.4687 11.1874 11.828 11.828C11.4708 12.1852 10.9922 12.3433 10.2812 12.4132" stroke="#313131" stroke-width="0.875" stroke-linecap="round"/>
</svg>
