<svg width="14" height="14" viewBox="0 0 14 14" fill="none" xmlns="http://www.w3.org/2000/svg">
<path d="M3.72266 3.01357C4.14935 3.40214 5.02835 4.46423 5.13076 5.60403C5.19928 6.36677 5.57915 7.02713 6.18359 7.34508C6.42345 7.4713 6.6987 7.54354 7.00391 7.54688C7.41674 7.55136 7.83423 7.25315 7.83319 6.84031C7.83286 6.71262 7.8118 6.58208 7.77883 6.46204C7.73295 6.29497 7.7289 6.10285 7.82422 5.90625C8.15776 5.21858 8.81373 5.03386 9.33354 4.66039C9.56405 4.49475 9.77432 4.32002 9.86707 4.17928C10.1231 3.79071 10.3791 3.01357 10.2511 2.625" stroke="#313131" stroke-width="0.875"/>
<path d="M12.4726 7.54688C12.2925 8.05602 12.165 9.39258 10.131 9.4138C10.131 9.4138 9.69715 9.4138 9.1914 9.53416M7.78948 10.4321C7.35718 11.2468 7.60934 12.1293 7.78948 12.4688" stroke="#313131" stroke-width="0.875" stroke-linecap="round"/>
<path d="M4.26953 11.7371C5.07391 12.2024 6.00783 12.4688 7.00391 12.4688C10.0242 12.4688 12.4727 10.0203 12.4727 7C12.4727 3.97969 10.0242 1.53125 7.00391 1.53125C3.9836 1.53125 1.53516 3.97969 1.53516 7C1.53516 7.99608 1.80147 8.92998 2.26678 9.73438" stroke="#313131" stroke-width="0.875" stroke-linecap="round"/>
</svg>
