<svg width="593" height="374" viewBox="0 0 593 374" fill="none" xmlns="http://www.w3.org/2000/svg">
<path d="M370.752 55H218.252L142 187L218.252 319H370.752L447 187L370.752 55Z" fill="#D9D9D9"/>
<path d="M363.75 71H229.25L162 187.5L229.25 304H363.75L431 187.5L363.75 71Z" fill="white"/>
<path d="M200 39H197.46L112 187L197.46 335H200L114.536 187L200 39Z" fill="white"/>
<path d="M394 39H396.54L482 187L396.54 335H394L479.46 187L394 39Z" fill="white"/>
<path d="M95 39L113.25 8H149.75L168 39H95Z" fill="#00ABB7"/>
<path d="M95 39L113.25 71H149.75L168 39H95Z" fill="#259390"/>
<path d="M154.264 0H108.759L86 39.5023L108.755 79H154.259L177 39.5023L154.264 0ZM153.505 77.6755H109.518L87.5273 39.5023L109.518 1.32454H153.505L175.496 39.5023L153.505 77.6755Z" fill="white"/>
<path d="M178 39.5C178 39.9944 177.853 40.4778 177.579 40.8889C177.304 41.3 176.914 41.6205 176.457 41.8097C176 41.9989 175.497 42.0484 175.012 41.952C174.527 41.8555 174.082 41.6174 173.732 41.2678C173.383 40.9181 173.145 40.4727 173.048 39.9877C172.952 39.5028 173.001 39.0001 173.19 38.5433C173.38 38.0865 173.7 37.696 174.111 37.4213C174.522 37.1466 175.006 37 175.5 37C176.163 37 176.799 37.2634 177.268 37.7322C177.737 38.2011 178 38.8369 178 39.5Z" fill="white"/>
<path d="M201 39.496C201.001 39.9906 200.826 40.4744 200.497 40.886C200.168 41.2977 199.699 41.6187 199.151 41.8086C198.603 41.9984 198 42.0485 197.418 41.9524C196.835 41.8564 196.3 41.6186 195.88 41.2692C195.46 40.9197 195.174 40.4743 195.058 39.9892C194.942 39.5041 195.001 39.0012 195.228 38.5442C195.455 38.0872 195.839 37.6965 196.333 37.4216C196.826 37.1467 197.406 37 198 37C198.795 37 199.557 37.2628 200.12 37.7308C200.682 38.1988 200.999 38.8337 201 39.496Z" fill="white"/>
<path d="M90 39.496C90.0008 39.9908 89.8547 40.4747 89.5803 40.8864C89.3059 41.2982 88.9155 41.6192 88.4585 41.8089C88.0016 41.9986 87.4986 42.0485 87.0133 41.9522C86.5279 41.8558 86.0821 41.6176 85.7322 41.2678C85.3824 40.9179 85.1442 40.4721 85.0478 39.9867C84.9515 39.5014 85.0014 38.9984 85.1911 38.5415C85.3808 38.0845 85.7018 37.6941 86.1136 37.4197C86.5253 37.1453 87.0092 36.9992 87.504 37C88.1656 37.0011 88.7999 37.2644 89.2678 37.7322C89.7356 38.2001 89.9989 38.8344 90 39.496Z" fill="white"/>
<path d="M198 39H175V40H198V39Z" fill="white"/>
<path d="M95 335L113.25 303H149.75L168 335H95Z" fill="#50B748"/>
<path d="M95 335L113.25 366H149.75L168 335H95Z" fill="#43A838"/>
<path d="M154.264 295H108.759L86 334.493L108.755 374H154.259L177 334.493L154.264 295ZM153.505 372.693H109.518L87.5273 334.493L109.518 296.306H153.505L175.496 334.493L153.505 372.693Z" fill="white"/>
<path d="M178 334.5C178 334.994 177.853 335.478 177.579 335.889C177.304 336.3 176.914 336.62 176.457 336.81C176 336.999 175.497 337.048 175.012 336.952C174.527 336.855 174.082 336.617 173.732 336.268C173.383 335.918 173.145 335.473 173.048 334.988C172.952 334.503 173.001 334 173.19 333.543C173.38 333.087 173.7 332.696 174.111 332.421C174.522 332.147 175.006 332 175.5 332C176.163 332 176.799 332.263 177.268 332.732C177.737 333.201 178 333.837 178 334.5Z" fill="white"/>
<path d="M201 334.5C201 334.994 200.824 335.478 200.494 335.889C200.165 336.3 199.696 336.62 199.148 336.81C198.6 336.999 197.997 337.048 197.415 336.952C196.833 336.855 196.298 336.617 195.879 336.268C195.459 335.918 195.173 335.473 195.058 334.988C194.942 334.503 195.001 334 195.228 333.543C195.455 333.087 195.84 332.696 196.333 332.421C196.827 332.147 197.407 332 198 332C198.796 332 199.559 332.263 200.121 332.732C200.684 333.201 201 333.837 201 334.5Z" fill="white"/>
<path d="M90 334.5C90 334.995 89.8533 335.478 89.5784 335.889C89.3035 336.301 88.9128 336.621 88.4558 336.81C87.9988 336.999 87.4959 337.048 87.0108 336.952C86.5257 336.855 86.0803 336.616 85.7308 336.266C85.3813 335.916 85.1436 335.47 85.0476 334.985C84.9515 334.5 85.0016 333.997 85.1914 333.541C85.3813 333.084 85.7023 332.694 86.114 332.419C86.5256 332.145 87.0094 331.999 87.504 332C87.8321 332 88.157 332.065 88.4601 332.19C88.7632 332.316 89.0385 332.5 89.2703 332.732C89.5022 332.965 89.6859 333.24 89.8111 333.544C89.9363 333.847 90.0005 334.172 90 334.5Z" fill="white"/>
<path d="M198 334H175V335H198V334Z" fill="white"/>
<path d="M10 187L28.4966 155H65.4989L84 187H10Z" fill="#FCC82B"/>
<path d="M10 187L28.4966 219H65.4989L84 187H10Z" fill="#F2B319"/>
<path d="M69.25 148H23.7408L1 186.998L23.7408 226H69.25L92 186.998L69.25 148ZM68.4863 224.692H24.5045L2.50904 186.998L24.5045 149.303H68.4863L90.4818 186.998L68.4863 224.692Z" fill="white"/>
<path d="M94 186.995C94.0009 187.589 93.8258 188.169 93.4967 188.663C93.1676 189.157 92.6995 189.542 92.1514 189.77C91.6033 189.998 90.9999 190.058 90.4177 189.943C89.8354 189.828 89.3004 189.542 88.8804 189.123C88.4603 188.704 88.1741 188.169 88.058 187.587C87.9418 187.005 88.001 186.401 88.2279 185.853C88.4548 185.305 88.8393 184.836 89.3328 184.506C89.8262 184.176 90.4064 184 91 184C91.7948 184 92.5572 184.315 93.1196 184.877C93.6821 185.439 93.9987 186.2 94 186.995Z" fill="white"/>
<path d="M116 186.995C116.001 187.589 115.826 188.169 115.497 188.663C115.168 189.157 114.699 189.542 114.151 189.77C113.603 189.998 113 190.058 112.418 189.943C111.835 189.828 111.3 189.542 110.88 189.123C110.46 188.704 110.174 188.169 110.058 187.587C109.942 187.005 110.001 186.401 110.228 185.853C110.455 185.305 110.839 184.836 111.333 184.506C111.826 184.176 112.406 184 113 184C113.795 184 114.557 184.315 115.12 184.877C115.682 185.439 115.999 186.2 116 186.995Z" fill="white"/>
<path d="M6 186.995C6.00094 187.589 5.82579 188.169 5.49672 188.663C5.16765 189.157 4.69946 189.542 4.15136 189.77C3.60327 189.998 2.99992 190.058 2.41767 189.943C1.83541 189.828 1.3004 189.542 0.880369 189.123C0.460334 188.704 0.174142 188.169 0.0579989 187.587C-0.0581443 187.005 0.000974492 186.401 0.227896 185.853C0.454818 185.305 0.839346 184.836 1.3328 184.506C1.82625 184.176 2.40644 184 2.99999 184C3.79481 184 4.55713 184.315 5.1196 184.877C5.68208 185.439 5.99873 186.2 6 186.995Z" fill="white"/>
<path d="M113 186H90V188H113V186Z" fill="white"/>
<path d="M498 39L479.753 8H443.251L425 39H498Z" fill="#E23A59"/>
<path d="M498 39L479.753 71H443.251L425 39H498Z" fill="#CC3253"/>
<path d="M416 39.5023L438.744 79H484.228L507 39.5023L484.251 0H438.767L416 39.5023ZM417.522 39.5023L439.508 1.32454H483.47L505.45 39.5023L483.47 77.6755H439.508L417.522 39.5023Z" fill="white"/>
<path d="M415 39.5C415 39.9946 415.147 40.4781 415.422 40.8893C415.696 41.3005 416.087 41.621 416.544 41.8101C417.001 41.9992 417.504 42.0485 417.989 41.9517C418.474 41.8549 418.92 41.6164 419.269 41.2664C419.619 40.9163 419.856 40.4705 419.952 39.9853C420.048 39.5001 419.998 38.9973 419.809 38.5405C419.619 38.0838 419.298 37.6936 418.886 37.4194C418.474 37.1452 417.991 36.9992 417.496 37C417.168 37 416.843 37.0647 416.54 37.1904C416.237 37.3161 415.961 37.5003 415.73 37.7325C415.498 37.9647 415.314 38.2403 415.189 38.5436C415.064 38.8469 414.999 39.1719 415 39.5Z" fill="white"/>
<path d="M392 39.496C391.999 39.9908 392.174 40.4747 392.504 40.8864C392.833 41.2982 393.301 41.6192 393.85 41.8089C394.398 41.9986 395.002 42.0485 395.584 41.9522C396.166 41.8558 396.701 41.6176 397.121 41.2678C397.541 40.9179 397.827 40.4721 397.943 39.9867C398.058 39.5014 397.998 38.9984 397.771 38.5415C397.543 38.0845 397.158 37.6941 396.664 37.4197C396.17 37.1453 395.589 36.9992 394.995 37C394.201 37.0011 393.44 37.2644 392.879 37.7322C392.317 38.2001 392.001 38.8344 392 39.496Z" fill="white"/>
<path d="M503 39.496C502.999 39.9906 503.145 40.4744 503.419 40.886C503.694 41.2977 504.084 41.6187 504.541 41.8086C504.997 41.9984 505.5 42.0485 505.985 41.9524C506.47 41.8564 506.916 41.6186 507.266 41.2692C507.616 40.9197 507.855 40.4743 507.952 39.9892C508.048 39.5041 507.999 39.0012 507.81 38.5442C507.621 38.0872 507.301 37.6965 506.889 37.4216C506.478 37.1467 505.995 37 505.5 37C504.838 37 504.202 37.2628 503.734 37.7308C503.265 38.1988 503.001 38.8337 503 39.496Z" fill="white"/>
<path d="M418 39H395V40H418V39Z" fill="white"/>
<path d="M498 335L479.753 303H443.251L425 335H498Z" fill="#A53574"/>
<path d="M498 335L479.753 366H443.251L425 335H498Z" fill="#852A5E"/>
<path d="M416 334.5L438.744 374H484.228L507 334.5L484.251 295H438.767L416 334.5ZM417.522 334.5L439.508 296.32H483.47L505.45 334.5L483.47 372.68H439.508L417.522 334.5Z" fill="white"/>
<path d="M415 334.5C415 334.995 415.147 335.478 415.422 335.889C415.696 336.301 416.087 336.621 416.544 336.81C417.001 336.999 417.504 337.048 417.989 336.952C418.474 336.855 418.92 336.616 419.269 336.266C419.619 335.916 419.856 335.47 419.952 334.985C420.048 334.5 419.998 333.997 419.809 333.541C419.619 333.084 419.298 332.694 418.886 332.419C418.474 332.145 417.991 331.999 417.496 332C417.168 332 416.843 332.065 416.54 332.19C416.237 332.316 415.961 332.5 415.73 332.732C415.498 332.965 415.314 333.24 415.189 333.544C415.064 333.847 414.999 334.172 415 334.5Z" fill="white"/>
<path d="M392 334.5C392 334.995 392.176 335.478 392.506 335.889C392.836 336.301 393.305 336.621 393.853 336.81C394.401 336.999 395.005 337.048 395.587 336.952C396.169 336.855 396.704 336.616 397.123 336.266C397.542 335.916 397.828 335.47 397.943 334.985C398.058 334.5 397.998 333.997 397.77 333.541C397.542 333.084 397.157 332.694 396.663 332.419C396.169 332.145 395.589 331.999 394.995 332C394.601 332 394.212 332.065 393.848 332.19C393.484 332.316 393.154 332.5 392.876 332.732C392.597 332.965 392.377 333.24 392.227 333.544C392.076 333.847 391.999 334.172 392 334.5Z" fill="white"/>
<path d="M503 334.5C503 334.994 503.147 335.478 503.421 335.889C503.696 336.3 504.087 336.62 504.543 336.81C505 336.999 505.503 337.048 505.988 336.952C506.473 336.855 506.918 336.617 507.268 336.268C507.617 335.918 507.855 335.473 507.952 334.988C508.048 334.503 507.999 334 507.81 333.543C507.62 333.087 507.3 332.696 506.889 332.421C506.478 332.147 505.994 332 505.5 332C504.837 332 504.201 332.263 503.732 332.732C503.263 333.201 503 333.837 503 334.5Z" fill="white"/>
<path d="M418 334H395V335H418V334Z" fill="white"/>
<path d="M583 187L564.749 155H528.251L510 187H583Z" fill="#3E7B97"/>
<path d="M583 187L564.749 219H528.251L510 187H583Z" fill="#2E687C"/>
<path d="M501 187L523.751 226H569.249L592 187L569.249 148H523.751L501 187ZM502.523 187L524.51 149.303H568.49L590.477 187L568.49 224.697H524.51L502.523 187Z" fill="white"/>
<path d="M499 186.995C498.999 187.589 499.174 188.169 499.503 188.663C499.832 189.157 500.301 189.542 500.849 189.77C501.397 189.998 502 190.058 502.582 189.943C503.165 189.828 503.7 189.542 504.12 189.123C504.54 188.704 504.826 188.169 504.942 187.587C505.058 187.005 504.999 186.401 504.772 185.853C504.545 185.305 504.161 184.836 503.667 184.506C503.174 184.176 502.594 184 502 184C501.205 184 500.443 184.315 499.88 184.877C499.318 185.439 499.001 186.2 499 186.995Z" fill="white"/>
<path d="M477 186.995C476.999 187.589 477.174 188.169 477.503 188.663C477.832 189.157 478.301 189.542 478.849 189.77C479.397 189.998 480 190.058 480.582 189.943C481.165 189.828 481.7 189.542 482.12 189.123C482.54 188.704 482.826 188.169 482.942 187.587C483.058 187.005 482.999 186.401 482.772 185.853C482.545 185.305 482.161 184.836 481.667 184.506C481.174 184.176 480.594 184 480 184C479.205 184 478.443 184.315 477.88 184.877C477.318 185.439 477.001 186.2 477 186.995Z" fill="white"/>
<path d="M587 186.995C586.999 187.589 587.174 188.169 587.503 188.663C587.832 189.157 588.301 189.542 588.849 189.77C589.397 189.998 590 190.058 590.582 189.943C591.165 189.828 591.7 189.542 592.12 189.123C592.54 188.704 592.826 188.169 592.942 187.587C593.058 187.005 592.999 186.401 592.772 185.853C592.545 185.305 592.161 184.836 591.667 184.506C591.174 184.176 590.594 184 590 184C589.205 184 588.443 184.315 587.88 184.877C587.318 185.439 587.001 186.2 587 186.995Z" fill="#626466"/>
<path d="M503 186H480V188H503V186Z" fill="white"/>
</svg>
