<svg width="687" height="333" viewBox="0 0 687 333" fill="none" xmlns="http://www.w3.org/2000/svg">
<path d="M223.486 172.228C223.877 172.618 223.877 173.252 223.486 173.642L217.122 180.006C216.732 180.397 216.099 180.397 215.708 180.006C215.318 179.616 215.318 178.982 215.708 178.592L221.365 172.935L215.708 167.278C215.318 166.888 215.318 166.254 215.708 165.864C216.099 165.473 216.732 165.473 217.122 165.864L223.486 172.228ZM0.293808 49.7071C-0.0967102 49.3166 -0.0967102 48.6834 0.293808 48.2929L6.65778 41.9289C7.04829 41.5384 7.68146 41.5384 8.07199 41.9289C8.46251 42.3195 8.46251 42.9526 8.07199 43.3431L2.41513 49L8.07199 54.6569C8.46251 55.0474 8.46251 55.6805 8.07199 56.0711C7.68146 56.4616 7.04829 56.4616 6.65778 56.0711L0.293808 49.7071ZM63.6516 65.7603L62.7606 66.2143L63.6516 65.7603ZM83.7575 169.589L83.3036 170.48L83.7575 169.589ZM70.3429 156.175L69.4519 156.629L70.3429 156.175ZM218.97 173.935C218.417 173.935 217.97 173.487 217.97 172.935C217.97 172.383 218.417 171.935 218.97 171.935V173.935ZM211.351 171.935C211.903 171.935 212.351 172.383 212.351 172.935C212.351 173.487 211.903 173.935 211.351 173.935V171.935ZM203.731 173.935C203.179 173.935 202.731 173.487 202.731 172.935C202.731 172.383 203.179 171.935 203.731 171.935V173.935ZM196.112 171.935C196.664 171.935 197.112 172.383 197.112 172.935C197.112 173.487 196.664 173.935 196.112 173.935V171.935ZM188.493 173.935C187.941 173.935 187.493 173.487 187.493 172.935C187.493 172.383 187.941 171.935 188.493 171.935V173.935ZM180.874 171.935C181.426 171.935 181.874 172.383 181.874 172.935C181.874 173.487 181.426 173.935 180.874 173.935V171.935ZM173.255 173.935C172.702 173.935 172.255 173.487 172.255 172.935C172.255 172.383 172.702 171.935 173.255 171.935V173.935ZM165.635 171.935C166.188 171.935 166.635 172.383 166.635 172.935C166.635 173.487 166.188 173.935 165.635 173.935V171.935ZM158.016 173.935C157.464 173.935 157.016 173.487 157.016 172.935C157.016 172.383 157.464 171.935 158.016 171.935V173.935ZM150.397 171.935C150.949 171.935 151.397 172.383 151.397 172.935C151.397 173.487 150.949 173.935 150.397 173.935V171.935ZM142.778 173.935C142.226 173.935 141.778 173.487 141.778 172.935C141.778 172.383 142.226 171.935 142.778 171.935V173.935ZM135.159 171.935C135.711 171.935 136.159 172.383 136.159 172.935C136.159 173.487 135.711 173.935 135.159 173.935V171.935ZM127.54 173.935C126.987 173.935 126.54 173.487 126.54 172.935C126.54 172.383 126.987 171.935 127.54 171.935V173.935ZM119.92 171.935C120.473 171.935 120.92 172.383 120.92 172.935C120.92 173.487 120.473 173.935 119.92 173.935V171.935ZM112.005 173.933C111.453 173.932 111.006 173.484 111.007 172.932C111.007 172.379 111.456 171.932 112.008 171.933L112.005 173.933ZM103.83 171.867C104.382 171.878 104.821 172.334 104.811 172.886C104.8 173.438 104.344 173.877 103.792 173.867L103.83 171.867ZM95.538 173.486C94.9878 173.438 94.5802 172.954 94.6276 172.404C94.675 171.853 95.1595 171.446 95.7098 171.493L95.538 173.486ZM87.8479 170.139C88.3772 170.297 88.6781 170.854 88.5201 171.383C88.3621 171.912 87.805 172.213 87.2758 172.055L87.8479 170.139ZM79.0628 167.882C78.616 167.557 78.5169 166.932 78.8416 166.485C79.1662 166.038 79.7915 165.939 80.2384 166.264L79.0628 167.882ZM73.6687 159.694C73.9933 160.141 73.8942 160.766 73.4474 161.091C73.0006 161.415 72.3753 161.316 72.0506 160.869L73.6687 159.694ZM67.8769 152.656C67.7189 152.127 68.0198 151.57 68.549 151.412C69.0782 151.254 69.6353 151.555 69.7933 152.084L67.8769 152.656ZM68.4391 144.222C68.4865 144.773 68.0789 145.257 67.5287 145.305C66.9784 145.352 66.4939 144.944 66.4465 144.394L68.4391 144.222ZM66.0657 136.141C66.0551 135.588 66.4941 135.132 67.0463 135.122C67.5984 135.111 68.0547 135.55 68.0653 136.102L66.0657 136.141ZM67.9992 127.924C68 128.476 67.5529 128.925 67.0006 128.926C66.4483 128.926 66 128.479 65.9992 127.927L67.9992 127.924ZM65.9973 120.608C65.9973 120.056 66.445 119.608 66.9973 119.608C67.5495 119.608 67.9973 120.056 67.9973 120.608H65.9973ZM67.9973 114.181C67.9973 114.733 67.5495 115.181 66.9973 115.181C66.445 115.181 65.9973 114.733 65.9973 114.181H67.9973ZM65.9973 107.754C65.9973 107.202 66.445 106.754 66.9973 106.754C67.5495 106.754 67.9973 107.202 67.9973 107.754H65.9973ZM67.9973 101.327C67.9973 101.879 67.5495 102.327 66.9973 102.327C66.445 102.327 65.9973 101.879 65.9973 101.327H67.9973ZM65.9953 94.0108C65.9945 93.4585 66.4416 93.0102 66.9939 93.0094C67.5462 93.0086 67.9945 93.4556 67.9953 94.0079L65.9953 94.0108ZM67.9288 85.7944C67.9395 86.3466 67.5004 86.8028 66.9482 86.8134C66.3961 86.8241 65.9398 86.385 65.9292 85.8329L67.9288 85.7944ZM65.5554 77.7125C65.508 77.1623 65.9156 76.6778 66.4659 76.6303C67.0161 76.5829 67.5006 76.9905 67.548 77.5408L65.5554 77.7125ZM66.1176 69.2785C66.2757 69.8077 65.9747 70.3648 65.4455 70.5228C64.9163 70.6808 64.3592 70.3799 64.2012 69.8507L66.1176 69.2785ZM60.3259 62.2411C60.0012 61.7943 60.1003 61.1689 60.5471 60.8443C60.9939 60.5197 61.6193 60.6187 61.9439 61.0655L60.3259 62.2411ZM54.9317 54.0534C55.3785 54.378 55.4776 55.0034 55.153 55.4502C54.8283 55.897 54.203 55.996 53.7562 55.6714L54.9317 54.0534ZM46.1465 51.796C45.6174 51.638 45.3164 51.0809 45.4744 50.5517C45.6324 50.0225 46.1895 49.7216 46.7187 49.8796L46.1465 51.796ZM38.4565 48.4492C39.0067 48.4967 39.4143 48.9812 39.3669 49.5314C39.3195 50.0817 38.835 50.4893 38.2847 50.4419L38.4565 48.4492ZM30.1644 50.068C29.6122 50.0574 29.1732 49.6012 29.1838 49.049C29.1944 48.4968 29.6507 48.0578 30.2028 48.0684L30.1644 50.068ZM21.9893 48.0019C22.5416 48.0027 22.9887 48.4511 22.9879 49.0034C22.9871 49.5556 22.5387 50.0027 21.9864 50.0019L21.9893 48.0019ZM13.663 50C13.1107 50 12.663 49.5523 12.663 49C12.663 48.4477 13.1107 48 13.663 48V50ZM5.22162 48C5.7739 48 6.22162 48.4477 6.22162 49C6.22162 49.5523 5.7739 50 5.22162 50V48ZM222.779 172.935V173.935H218.97V172.935V171.935H222.779V172.935ZM211.351 172.935V173.935H203.731V172.935V171.935H211.351V172.935ZM196.112 172.935V173.935H188.493V172.935V171.935H196.112V172.935ZM180.874 172.935V173.935H173.255V172.935V171.935H180.874V172.935ZM165.635 172.935V173.935H158.016V172.935V171.935H165.635V172.935ZM150.397 172.935V173.935H142.778V172.935V171.935H150.397V172.935ZM135.159 172.935V173.935H127.54V172.935V171.935H135.159V172.935ZM119.92 172.935V173.935H116.111V172.935V171.935H119.92V172.935ZM116.111 172.935V173.935C114.685 173.935 113.317 173.935 112.005 173.933L112.007 172.933L112.008 171.933C113.319 171.935 114.685 171.935 116.111 171.935V172.935ZM103.811 172.867L103.792 173.867C100.698 173.807 97.9734 173.696 95.538 173.486L95.6239 172.489L95.7098 171.493C98.0826 171.698 100.758 171.808 103.83 171.867L103.811 172.867ZM87.5619 171.097L87.2758 172.055C85.862 171.633 84.5502 171.116 83.3036 170.48L83.7575 169.589L84.2115 168.698C85.3421 169.274 86.5406 169.749 87.8479 170.139L87.5619 171.097ZM83.7575 169.589L83.3036 170.48C81.8171 169.723 80.3999 168.853 79.0628 167.882L79.6506 167.073L80.2384 166.264C81.4911 167.174 82.8189 167.989 84.2115 168.698L83.7575 169.589ZM72.8596 160.282L72.0506 160.869C71.0791 159.532 70.2093 158.115 69.4519 156.629L70.3429 156.175L71.2339 155.721C71.9435 157.113 72.7585 158.441 73.6687 159.694L72.8596 160.282ZM70.3429 156.175L69.4519 156.629C68.8167 155.382 68.299 154.07 67.8769 152.656L68.8351 152.37L69.7933 152.084C70.1836 153.392 70.6579 154.59 71.2339 155.721L70.3429 156.175ZM67.4428 144.308L66.4465 144.394C66.2366 141.959 66.1252 139.234 66.0657 136.141L67.0655 136.121L68.0653 136.102C68.1244 139.175 68.2346 141.85 68.4391 144.222L67.4428 144.308ZM66.9992 127.926L65.9992 127.927C65.9973 126.615 65.9973 125.247 65.9973 123.821H66.9973H67.9973C67.9973 125.248 67.9973 126.614 67.9992 127.924L66.9992 127.926ZM66.9973 123.821H65.9973V120.608H66.9973H67.9973V123.821H66.9973ZM66.9973 114.181H65.9973V107.754H66.9973H67.9973V114.181H66.9973ZM66.9973 101.327H65.9973V98.1135H66.9973H67.9973V101.327H66.9973ZM66.9973 98.1135H65.9973C65.9973 96.6874 65.9973 95.3214 65.9953 94.0108L66.9953 94.0094L67.9953 94.0079C67.9973 95.3202 67.9973 96.6877 67.9973 98.1135H66.9973ZM66.929 85.8136L65.9292 85.8329C65.8701 82.7603 65.7599 80.0853 65.5554 77.7125L66.5517 77.6266L67.548 77.5408C67.7579 79.9762 67.8693 82.7006 67.9288 85.7944L66.929 85.8136ZM65.1594 69.5646L64.2012 69.8507C63.8109 68.5433 63.3367 67.3449 62.7606 66.2143L63.6516 65.7603L64.5426 65.3063C65.1778 66.5529 65.6956 67.8648 66.1176 69.2785L65.1594 69.5646ZM63.6516 65.7603L62.7606 66.2143C62.051 64.8216 61.2361 63.4939 60.3259 62.2411L61.1349 61.6533L61.9439 61.0655C62.9154 62.4027 63.7852 63.8199 64.5426 65.3063L63.6516 65.7603ZM54.3439 54.8624L53.7562 55.6714C52.5034 54.7612 51.1756 53.9463 49.783 53.2367L50.237 52.3457L50.6909 51.4547C52.1774 52.212 53.5946 53.0819 54.9317 54.0534L54.3439 54.8624ZM50.237 52.3457L49.783 53.2367C48.6524 52.6606 47.4539 52.1863 46.1465 51.796L46.4326 50.8378L46.7187 49.8796C48.1325 50.3017 49.4443 50.8195 50.6909 51.4547L50.237 52.3457ZM38.3706 49.4456L38.2847 50.4419C35.9119 50.2374 33.2369 50.1271 30.1644 50.068L30.1836 49.0682L30.2028 48.0684C33.2967 48.1279 36.021 48.2394 38.4565 48.4492L38.3706 49.4456ZM21.9879 49.0019L21.9864 50.0019C20.6759 50 19.3098 50 17.8837 50V49V48C19.3095 48 20.677 48 21.9893 48.0019L21.9879 49.0019ZM17.8837 49V50H13.663V49V48H17.8837V49ZM5.22162 49V50H1.00092V49V48H5.22162V49Z" fill="white"/>
<path d="M223.486 173.641C223.877 173.251 223.877 172.618 223.486 172.227L217.122 165.863C216.732 165.473 216.099 165.473 215.708 165.863C215.318 166.254 215.318 166.887 215.708 167.277L221.365 172.934L215.708 178.591C215.318 178.982 215.318 179.615 215.708 180.005C216.099 180.396 216.732 180.396 217.122 180.005L223.486 173.641ZM0.293808 296.162C-0.0967102 296.553 -0.0967102 297.186 0.293808 297.576L6.65778 303.94C7.04829 304.331 7.68146 304.331 8.07199 303.94C8.46251 303.55 8.46251 302.917 8.07199 302.526L2.41513 296.869L8.07199 291.212C8.46251 290.822 8.46251 290.189 8.07199 289.798C7.68146 289.408 7.04829 289.408 6.65778 289.798L0.293808 296.162ZM63.6516 280.109L62.7606 279.655L63.6516 280.109ZM83.7575 176.28L83.3036 175.389L83.7575 176.28ZM70.3429 189.694L69.4519 189.24L70.3429 189.694ZM218.97 171.934C218.417 171.934 217.97 172.382 217.97 172.934C217.97 173.486 218.417 173.934 218.97 173.934V171.934ZM211.351 173.934C211.903 173.934 212.351 173.486 212.351 172.934C212.351 172.382 211.903 171.934 211.351 171.934V173.934ZM203.731 171.934C203.179 171.934 202.731 172.382 202.731 172.934C202.731 173.486 203.179 173.934 203.731 173.934V171.934ZM196.112 173.934C196.664 173.934 197.112 173.486 197.112 172.934C197.112 172.382 196.664 171.934 196.112 171.934V173.934ZM188.493 171.934C187.941 171.934 187.493 172.382 187.493 172.934C187.493 173.486 187.941 173.934 188.493 173.934V171.934ZM180.874 173.934C181.426 173.934 181.874 173.486 181.874 172.934C181.874 172.382 181.426 171.934 180.874 171.934V173.934ZM173.255 171.934C172.702 171.934 172.255 172.382 172.255 172.934C172.255 173.486 172.702 173.934 173.255 173.934V171.934ZM165.635 173.934C166.188 173.934 166.635 173.486 166.635 172.934C166.635 172.382 166.188 171.934 165.635 171.934V173.934ZM158.016 171.934C157.464 171.934 157.016 172.382 157.016 172.934C157.016 173.486 157.464 173.934 158.016 173.934V171.934ZM150.397 173.934C150.949 173.934 151.397 173.486 151.397 172.934C151.397 172.382 150.949 171.934 150.397 171.934V173.934ZM142.778 171.934C142.226 171.934 141.778 172.382 141.778 172.934C141.778 173.486 142.226 173.934 142.778 173.934V171.934ZM135.159 173.934C135.711 173.934 136.159 173.486 136.159 172.934C136.159 172.382 135.711 171.934 135.159 171.934V173.934ZM127.54 171.934C126.987 171.934 126.54 172.382 126.54 172.934C126.54 173.486 126.987 173.934 127.54 173.934V171.934ZM119.92 173.934C120.473 173.934 120.92 173.486 120.92 172.934C120.92 172.382 120.473 171.934 119.92 171.934V173.934ZM112.005 171.936C111.453 171.937 111.006 172.385 111.007 172.938C111.007 173.49 111.456 173.937 112.008 173.936L112.005 171.936ZM103.83 174.002C104.382 173.992 104.821 173.535 104.811 172.983C104.8 172.431 104.344 171.992 103.792 172.003L103.83 174.002ZM95.538 172.383C94.9878 172.431 94.5802 172.915 94.6276 173.466C94.675 174.016 95.1595 174.423 95.7098 174.376L95.538 172.383ZM87.8479 175.73C88.3772 175.572 88.6781 175.015 88.5201 174.486C88.3621 173.957 87.805 173.656 87.2758 173.814L87.8479 175.73ZM79.0628 177.988C78.616 178.312 78.5169 178.938 78.8416 179.384C79.1662 179.831 79.7915 179.93 80.2384 179.606L79.0628 177.988ZM73.6687 186.175C73.9933 185.728 73.8942 185.103 73.4474 184.778C73.0006 184.454 72.3753 184.553 72.0506 185L73.6687 186.175ZM67.8769 193.213C67.7189 193.742 68.0198 194.299 68.549 194.457C69.0782 194.615 69.6353 194.314 69.7933 193.785L67.8769 193.213ZM68.4391 201.647C68.4865 201.096 68.0789 200.612 67.5287 200.565C66.9784 200.517 66.4939 200.925 66.4465 201.475L68.4391 201.647ZM66.0657 209.729C66.0551 210.281 66.4941 210.737 67.0463 210.748C67.5984 210.758 68.0547 210.319 68.0653 209.767L66.0657 209.729ZM67.9992 217.945C68 217.393 67.5529 216.944 67.0006 216.944C66.4483 216.943 66 217.39 65.9992 217.942L67.9992 217.945ZM65.9973 225.261C65.9973 225.813 66.445 226.261 66.9973 226.261C67.5495 226.261 67.9973 225.813 67.9973 225.261H65.9973ZM67.9973 231.688C67.9973 231.136 67.5495 230.688 66.9973 230.688C66.445 230.688 65.9973 231.136 65.9973 231.688H67.9973ZM65.9973 238.115C65.9973 238.667 66.445 239.115 66.9973 239.115C67.5495 239.115 67.9973 238.667 67.9973 238.115H65.9973ZM67.9973 244.542C67.9973 243.99 67.5495 243.542 66.9973 243.542C66.445 243.542 65.9973 243.99 65.9973 244.542H67.9973ZM65.9953 251.858C65.9945 252.411 66.4416 252.859 66.9939 252.86C67.5462 252.861 67.9945 252.414 67.9953 251.861L65.9953 251.858ZM67.9288 260.075C67.9395 259.523 67.5004 259.066 66.9482 259.056C66.3961 259.045 65.9398 259.484 65.9292 260.036L67.9288 260.075ZM65.5554 268.157C65.508 268.707 65.9156 269.191 66.4659 269.239C67.0161 269.286 67.5006 268.879 67.548 268.328L65.5554 268.157ZM66.1176 276.591C66.2757 276.061 65.9747 275.504 65.4455 275.346C64.9163 275.188 64.3592 275.489 64.2012 276.018L66.1176 276.591ZM60.3259 283.628C60.0012 284.075 60.1003 284.7 60.5471 285.025C60.9939 285.349 61.6193 285.25 61.9439 284.804L60.3259 283.628ZM54.9317 291.816C55.3785 291.491 55.4776 290.866 55.153 290.419C54.8283 289.972 54.203 289.873 53.7562 290.198L54.9317 291.816ZM46.1465 294.073C45.6174 294.231 45.3164 294.788 45.4744 295.317C45.6324 295.847 46.1895 296.148 46.7187 295.99L46.1465 294.073ZM38.4565 297.42C39.0067 297.372 39.4143 296.888 39.3669 296.338C39.3195 295.787 38.835 295.38 38.2847 295.427L38.4565 297.42ZM30.1644 295.801C29.6122 295.812 29.1732 296.268 29.1838 296.82C29.1944 297.372 29.6507 297.811 30.2028 297.801L30.1644 295.801ZM21.9893 297.867C22.5416 297.866 22.9887 297.418 22.9879 296.866C22.9871 296.313 22.5387 295.866 21.9864 295.867L21.9893 297.867ZM13.663 295.869C13.1107 295.869 12.663 296.317 12.663 296.869C12.663 297.421 13.1107 297.869 13.663 297.869V295.869ZM5.22162 297.869C5.7739 297.869 6.22162 297.421 6.22162 296.869C6.22162 296.317 5.7739 295.869 5.22162 295.869V297.869ZM222.779 172.934V171.934H218.97V172.934V173.934H222.779V172.934ZM211.351 172.934V171.934H203.731V172.934V173.934H211.351V172.934ZM196.112 172.934V171.934H188.493V172.934V173.934H196.112V172.934ZM180.874 172.934V171.934H173.255V172.934V173.934H180.874V172.934ZM165.635 172.934V171.934H158.016V172.934V173.934H165.635V172.934ZM150.397 172.934V171.934H142.778V172.934V173.934H150.397V172.934ZM135.159 172.934V171.934H127.54V172.934V173.934H135.159V172.934ZM119.92 172.934V171.934H116.111V172.934V173.934H119.92V172.934ZM116.111 172.934V171.934C114.685 171.934 113.317 171.934 112.005 171.936L112.007 172.936L112.008 173.936C113.319 173.934 114.685 173.934 116.111 173.934V172.934ZM103.811 173.002L103.792 172.003C100.698 172.062 97.9734 172.174 95.538 172.383L95.6239 173.38L95.7098 174.376C98.0826 174.172 100.758 174.061 103.83 174.002L103.811 173.002ZM87.5619 174.772L87.2758 173.814C85.862 174.236 84.5502 174.754 83.3036 175.389L83.7575 176.28L84.2115 177.171C85.3421 176.595 86.5406 176.121 87.8479 175.73L87.5619 174.772ZM83.7575 176.28L83.3036 175.389C81.8171 176.146 80.3999 177.016 79.0628 177.988L79.6506 178.797L80.2384 179.606C81.4911 178.695 82.8189 177.88 84.2115 177.171L83.7575 176.28ZM72.8596 185.587L72.0506 185C71.0791 186.337 70.2093 187.754 69.4519 189.24L70.3429 189.694L71.2339 190.148C71.9435 188.756 72.7585 187.428 73.6687 186.175L72.8596 185.587ZM70.3429 189.694L69.4519 189.24C68.8167 190.487 68.299 191.799 67.8769 193.213L68.8351 193.499L69.7933 193.785C70.1836 192.477 70.6579 191.279 71.2339 190.148L70.3429 189.694ZM67.4428 201.561L66.4465 201.475C66.2366 203.91 66.1252 206.635 66.0657 209.729L67.0655 209.748L68.0653 209.767C68.1244 206.694 68.2346 204.019 68.4391 201.647L67.4428 201.561ZM66.9992 217.944L65.9992 217.942C65.9973 219.254 65.9973 220.622 65.9973 222.048H66.9973H67.9973C67.9973 220.622 67.9973 219.256 67.9992 217.945L66.9992 217.944ZM66.9973 222.048H65.9973V225.261H66.9973H67.9973V222.048H66.9973ZM66.9973 231.688H65.9973V238.115H66.9973H67.9973V231.688H66.9973ZM66.9973 244.542H65.9973V247.756H66.9973H67.9973V244.542H66.9973ZM66.9973 247.756H65.9973C65.9973 249.182 65.9973 250.548 65.9953 251.858L66.9953 251.86L67.9953 251.861C67.9973 250.549 67.9973 249.181 67.9973 247.756H66.9973ZM66.929 260.056L65.9292 260.036C65.8701 263.109 65.7599 265.784 65.5554 268.157L66.5517 268.242L67.548 268.328C67.7579 265.893 67.8693 263.169 67.9288 260.075L66.929 260.056ZM65.1594 276.305L64.2012 276.018C63.8109 277.326 63.3367 278.524 62.7606 279.655L63.6516 280.109L64.5426 280.563C65.1778 279.316 65.6956 278.004 66.1176 276.591L65.1594 276.305ZM63.6516 280.109L62.7606 279.655C62.051 281.048 61.2361 282.375 60.3259 283.628L61.1349 284.216L61.9439 284.804C62.9154 283.466 63.7852 282.049 64.5426 280.563L63.6516 280.109ZM54.3439 291.007L53.7562 290.198C52.5034 291.108 51.1756 291.923 49.783 292.632L50.237 293.523L50.6909 294.414C52.1774 293.657 53.5946 292.787 54.9317 291.816L54.3439 291.007ZM50.237 293.523L49.783 292.632C48.6524 293.209 47.4539 293.683 46.1465 294.073L46.4326 295.031L46.7187 295.99C48.1325 295.567 49.4443 295.05 50.6909 294.414L50.237 293.523ZM38.3706 296.424L38.2847 295.427C35.9119 295.632 33.2369 295.742 30.1644 295.801L30.1836 296.801L30.2028 297.801C33.2967 297.741 36.021 297.63 38.4565 297.42L38.3706 296.424ZM21.9879 296.867L21.9864 295.867C20.6759 295.869 19.3098 295.869 17.8837 295.869V296.869V297.869C19.3095 297.869 20.677 297.869 21.9893 297.867L21.9879 296.867ZM17.8837 296.869V295.869H13.663V296.869V297.869H17.8837V296.869ZM5.22162 296.869V295.869H1.00092V296.869V297.869H5.22162V296.869Z" fill="white"/>
<g clip-path="url(#clip0_7012_873)">
<path d="M110.883 173.102L107.145 173.163C107.095 173.163 107.048 173.146 107.013 173.115C106.977 173.085 106.958 173.043 106.958 173C106.958 172.957 106.977 172.915 107.013 172.885C107.048 172.854 107.095 172.837 107.145 172.837L110.883 172.898C110.914 172.898 110.944 172.909 110.966 172.928C110.988 172.947 111 172.973 111 173C111 173.027 110.988 173.053 110.966 173.072C110.944 173.091 110.914 173.102 110.883 173.102Z" fill="white"/>
<path d="M99.3865 173.281L91.6245 173.391C91.5549 173.409 91.4815 173.412 91.4101 173.401C91.3387 173.39 91.2713 173.364 91.2133 173.326C91.1552 173.288 91.1082 173.239 91.0757 173.182C91.0433 173.126 91.0264 173.063 91.0264 173C91.0264 172.937 91.0433 172.874 91.0757 172.818C91.1082 172.761 91.1552 172.712 91.2133 172.674C91.2713 172.636 91.3387 172.61 91.4101 172.599C91.4815 172.588 91.5549 172.591 91.6245 172.609L99.3865 172.739C99.4721 172.739 99.5541 172.769 99.6145 172.822C99.675 172.874 99.709 172.946 99.709 173.02C99.709 173.095 99.675 173.166 99.6145 173.219C99.5541 173.272 99.4721 173.302 99.3865 173.302V173.281Z" fill="white"/>
<path d="M83.8627 173.501L76.1007 173.591C75.921 173.591 75.7486 173.529 75.6216 173.418C75.4945 173.307 75.4231 173.157 75.4231 173C75.4231 172.843 75.4945 172.693 75.6216 172.582C75.7486 172.471 75.921 172.409 76.1007 172.409L83.8627 172.499C84.0152 172.499 84.1614 172.552 84.2691 172.646C84.3769 172.74 84.4375 172.867 84.4375 173C84.4375 173.133 84.3769 173.26 84.2691 173.354C84.1614 173.448 84.0152 173.501 83.8627 173.501Z" fill="white"/>
<path d="M68.3434 173.677L60.5814 173.762C60.4666 173.762 60.353 173.742 60.247 173.704C60.1409 173.666 60.0446 173.61 59.9635 173.539C59.8823 173.468 59.8179 173.384 59.774 173.292C59.7301 173.199 59.7075 173.1 59.7075 173C59.7075 172.9 59.7301 172.801 59.774 172.708C59.8179 172.616 59.8823 172.532 59.9635 172.461C60.0446 172.39 60.1409 172.334 60.247 172.296C60.353 172.258 60.4666 172.238 60.5814 172.238L68.3434 172.332C68.5491 172.332 68.7465 172.403 68.8919 172.53C69.0374 172.657 69.1191 172.829 69.1191 173.008C69.1191 173.188 69.0374 173.36 68.8919 173.487C68.7465 173.613 68.5491 173.685 68.3434 173.685V173.677Z" fill="white"/>
<path d="M52.8194 173.856L45.0621 173.966C44.9166 173.968 44.7722 173.945 44.6368 173.898C44.5015 173.852 44.3781 173.783 44.2735 173.694C44.1689 173.606 44.0853 173.501 44.0273 173.385C43.9694 173.268 43.9383 173.143 43.9359 173.016C43.9334 172.889 43.9596 172.763 44.013 172.645C44.0664 172.527 44.146 172.42 44.2471 172.329C44.3482 172.237 44.4689 172.164 44.6023 172.114C44.7357 172.063 44.8793 172.036 45.0247 172.034H45.0621L52.8194 172.144C53.0797 172.144 53.3293 172.234 53.5134 172.395C53.6974 172.555 53.8008 172.773 53.8008 173C53.8008 173.227 53.6974 173.445 53.5134 173.605C53.3293 173.766 53.0797 173.856 52.8194 173.856Z" fill="white"/>
<path d="M37.3014 174.055C36.0069 174.055 34.7125 174.055 33.4227 174.055C32.1329 174.055 30.8338 174.055 29.5394 174.027C29.255 173.995 28.9935 173.875 28.8039 173.687C28.6144 173.499 28.5098 173.258 28.5098 173.008C28.5098 172.758 28.6144 172.517 28.8039 172.329C28.9935 172.142 29.255 172.021 29.5394 171.989C30.8338 171.989 32.1283 171.957 33.4227 171.961C34.7172 171.965 36.0069 171.961 37.3014 171.961C37.6224 171.961 37.9302 172.072 38.1572 172.27C38.3842 172.468 38.5117 172.736 38.5117 173.016C38.5117 173.296 38.3842 173.565 38.1572 173.763C37.9302 173.96 37.6224 174.072 37.3014 174.072V174.055Z" fill="white"/>
<path d="M21.7818 173.905C19.1929 173.839 16.604 173.786 14.0198 173.693C13.8091 173.693 13.607 173.62 13.458 173.49C13.3091 173.36 13.2254 173.184 13.2254 173C13.2254 172.816 13.3091 172.64 13.458 172.51C13.607 172.38 13.8091 172.307 14.0198 172.307C16.604 172.213 19.1929 172.161 21.7818 172.095C21.918 172.092 22.0537 172.112 22.1809 172.155C22.3082 172.197 22.4247 172.261 22.5236 172.343C22.6225 172.425 22.702 172.523 22.7576 172.631C22.8131 172.74 22.8436 172.857 22.8473 172.975C22.851 173.094 22.8278 173.213 22.7791 173.324C22.7303 173.435 22.657 173.536 22.5633 173.622C22.4695 173.709 22.3572 173.778 22.2328 173.826C22.1083 173.875 21.9741 173.901 21.8379 173.905H21.7818Z" fill="white"/>
<path d="M6.25704 173.391C5.00933 173.334 3.76628 173.265 2.51857 173.196C2.45948 173.192 2.40456 173.168 2.36535 173.129C2.32613 173.09 2.30566 173.039 2.30827 172.988C2.3116 172.94 2.33482 172.895 2.37356 172.861C2.4123 172.828 2.46388 172.807 2.51857 172.804C3.76628 172.731 5.00933 172.666 6.25704 172.609C6.35593 172.629 6.44468 172.676 6.50989 172.744C6.57511 172.812 6.61323 172.896 6.61851 172.985C6.62379 173.073 6.59594 173.161 6.53916 173.234C6.48237 173.307 6.39974 173.363 6.30376 173.391H6.25704Z" fill="white"/>
<path d="M7.16778 168L8.12109 168.896L3.05545 173L8.12109 177.104L7.16778 178L0.999293 173L7.16778 168Z" fill="white"/>
</g>
<path d="M463.293 173.641C462.902 173.251 462.902 172.618 463.293 172.227L469.657 165.863C470.047 165.473 470.681 165.473 471.071 165.863C471.462 166.254 471.462 166.887 471.071 167.277L465.414 172.934L471.071 178.591C471.462 178.982 471.462 179.615 471.071 180.005C470.681 180.396 470.047 180.396 469.657 180.005L463.293 173.641ZM686.485 296.162C686.876 296.553 686.876 297.186 686.485 297.576L680.122 303.94C679.731 304.331 679.098 304.331 678.707 303.94C678.317 303.55 678.317 302.917 678.707 302.526L684.364 296.869L678.707 291.212C678.317 290.822 678.317 290.189 678.707 289.798C679.098 289.408 679.731 289.408 680.122 289.798L686.485 296.162ZM623.128 280.109L624.019 279.655L623.128 280.109ZM603.022 176.28L603.476 175.389L603.022 176.28ZM616.436 189.694L617.327 189.24L616.436 189.694ZM467.81 171.934C468.362 171.934 468.81 172.382 468.81 172.934C468.81 173.486 468.362 173.934 467.81 173.934V171.934ZM475.429 173.934C474.876 173.934 474.429 173.486 474.429 172.934C474.429 172.382 474.876 171.934 475.429 171.934V173.934ZM483.048 171.934C483.6 171.934 484.048 172.382 484.048 172.934C484.048 173.486 483.6 173.934 483.048 173.934V171.934ZM490.667 173.934C490.115 173.934 489.667 173.486 489.667 172.934C489.667 172.382 490.115 171.934 490.667 171.934V173.934ZM498.286 171.934C498.839 171.934 499.286 172.382 499.286 172.934C499.286 173.486 498.839 173.934 498.286 173.934V171.934ZM505.905 173.934C505.353 173.934 504.905 173.486 504.905 172.934C504.905 172.382 505.353 171.934 505.905 171.934V173.934ZM513.525 171.934C514.077 171.934 514.525 172.382 514.525 172.934C514.525 173.486 514.077 173.934 513.525 173.934V171.934ZM521.144 173.934C520.592 173.934 520.144 173.486 520.144 172.934C520.144 172.382 520.592 171.934 521.144 171.934V173.934ZM528.763 171.934C529.315 171.934 529.763 172.382 529.763 172.934C529.763 173.486 529.315 173.934 528.763 173.934V171.934ZM536.382 173.934C535.83 173.934 535.382 173.486 535.382 172.934C535.382 172.382 535.83 171.934 536.382 171.934V173.934ZM544.001 171.934C544.554 171.934 545.001 172.382 545.001 172.934C545.001 173.486 544.554 173.934 544.001 173.934V171.934ZM551.621 173.934C551.068 173.934 550.621 173.486 550.621 172.934C550.621 172.382 551.068 171.934 551.621 171.934V173.934ZM559.24 171.934C559.792 171.934 560.24 172.382 560.24 172.934C560.24 173.486 559.792 173.934 559.24 173.934V171.934ZM566.859 173.934C566.307 173.934 565.859 173.486 565.859 172.934C565.859 172.382 566.307 171.934 566.859 171.934V173.934ZM574.774 171.936C575.326 171.937 575.773 172.385 575.773 172.938C575.772 173.49 575.324 173.937 574.771 173.936L574.774 171.936ZM582.949 174.002C582.397 173.992 581.958 173.535 581.969 172.983C581.979 172.431 582.435 171.992 582.988 172.003L582.949 174.002ZM591.241 172.383C591.792 172.431 592.199 172.915 592.152 173.466C592.104 174.016 591.62 174.423 591.07 174.376L591.241 172.383ZM598.931 175.73C598.402 175.572 598.101 175.015 598.259 174.486C598.417 173.957 598.974 173.656 599.504 173.814L598.931 175.73ZM607.717 177.988C608.163 178.312 608.262 178.938 607.938 179.384C607.613 179.831 606.988 179.93 606.541 179.606L607.717 177.988ZM613.111 186.175C612.786 185.728 612.885 185.103 613.332 184.778C613.779 184.454 614.404 184.553 614.729 185L613.111 186.175ZM618.902 193.213C619.06 193.742 618.76 194.299 618.23 194.457C617.701 194.615 617.144 194.314 616.986 193.785L618.902 193.213ZM618.34 201.647C618.293 201.096 618.7 200.612 619.251 200.565C619.801 200.517 620.285 200.925 620.333 201.475L618.34 201.647ZM620.714 209.729C620.724 210.281 620.285 210.737 619.733 210.748C619.181 210.758 618.725 210.319 618.714 209.767L620.714 209.729ZM618.78 217.945C618.779 217.393 619.226 216.944 619.779 216.944C620.331 216.943 620.779 217.39 620.78 217.942L618.78 217.945ZM620.782 225.261C620.782 225.813 620.334 226.261 619.782 226.261C619.23 226.261 618.782 225.813 618.782 225.261H620.782ZM618.782 231.688C618.782 231.136 619.23 230.688 619.782 230.688C620.334 230.688 620.782 231.136 620.782 231.688H618.782ZM620.782 238.115C620.782 238.667 620.334 239.115 619.782 239.115C619.23 239.115 618.782 238.667 618.782 238.115H620.782ZM618.782 244.542C618.782 243.99 619.23 243.542 619.782 243.542C620.334 243.542 620.782 243.99 620.782 244.542H618.782ZM620.784 251.858C620.785 252.411 620.338 252.859 619.785 252.86C619.233 252.861 618.785 252.414 618.784 251.861L620.784 251.858ZM618.85 260.075C618.84 259.523 619.279 259.066 619.831 259.056C620.383 259.045 620.839 259.484 620.85 260.036L618.85 260.075ZM621.224 268.157C621.271 268.707 620.864 269.191 620.313 269.239C619.763 269.286 619.279 268.879 619.231 268.328L621.224 268.157ZM620.662 276.591C620.504 276.061 620.805 275.504 621.334 275.346C621.863 275.188 622.42 275.489 622.578 276.018L620.662 276.591ZM626.453 283.628C626.778 284.075 626.679 284.7 626.232 285.025C625.785 285.349 625.16 285.25 624.835 284.804L626.453 283.628ZM631.848 291.816C631.401 291.491 631.302 290.866 631.626 290.419C631.951 289.972 632.576 289.873 633.023 290.198L631.848 291.816ZM640.633 294.073C641.162 294.231 641.463 294.788 641.305 295.317C641.147 295.847 640.59 296.148 640.061 295.99L640.633 294.073ZM648.323 297.42C647.773 297.372 647.365 296.888 647.412 296.338C647.46 295.787 647.944 295.38 648.495 295.427L648.323 297.42ZM656.615 295.801C657.167 295.812 657.606 296.268 657.596 296.82C657.585 297.372 657.129 297.811 656.576 297.801L656.615 295.801ZM664.79 297.867C664.238 297.866 663.791 297.418 663.791 296.866C663.792 296.313 664.241 295.866 664.793 295.867L664.79 297.867ZM673.116 295.869C673.669 295.869 674.116 296.317 674.116 296.869C674.116 297.421 673.669 297.869 673.116 297.869V295.869ZM681.558 297.869C681.005 297.869 680.558 297.421 680.558 296.869C680.558 296.317 681.005 295.869 681.558 295.869V297.869ZM464 172.934V171.934H467.81V172.934V173.934H464V172.934ZM475.429 172.934V171.934H483.048V172.934V173.934H475.429V172.934ZM490.667 172.934V171.934H498.286V172.934V173.934H490.667V172.934ZM505.905 172.934V171.934H513.525V172.934V173.934H505.905V172.934ZM521.144 172.934V171.934H528.763V172.934V173.934H521.144V172.934ZM536.382 172.934V171.934H544.001V172.934V173.934H536.382V172.934ZM551.621 172.934V171.934H559.24V172.934V173.934H551.621V172.934ZM566.859 172.934V171.934H570.669V172.934V173.934H566.859V172.934ZM570.669 172.934V171.934C572.094 171.934 573.462 171.934 574.774 171.936L574.773 172.936L574.771 173.936C573.461 173.934 572.095 173.934 570.669 173.934V172.934ZM582.968 173.002L582.988 172.003C586.081 172.062 588.806 172.174 591.241 172.383L591.155 173.38L591.07 174.376C588.697 174.172 586.022 174.061 582.949 174.002L582.968 173.002ZM599.217 174.772L599.504 173.814C600.917 174.236 602.229 174.754 603.476 175.389L603.022 176.28L602.568 177.171C601.437 176.595 600.239 176.121 598.931 175.73L599.217 174.772ZM603.022 176.28L603.476 175.389C604.962 176.146 606.379 177.016 607.717 177.988L607.129 178.797L606.541 179.606C605.288 178.695 603.96 177.88 602.568 177.171L603.022 176.28ZM613.92 185.587L614.729 185C615.7 186.337 616.57 187.754 617.327 189.24L616.436 189.694L615.545 190.148C614.836 188.756 614.021 187.428 613.111 186.175L613.92 185.587ZM616.436 189.694L617.327 189.24C617.963 190.487 618.48 191.799 618.902 193.213L617.944 193.499L616.986 193.785C616.596 192.477 616.121 191.279 615.545 190.148L616.436 189.694ZM619.336 201.561L620.333 201.475C620.543 203.91 620.654 206.635 620.714 209.729L619.714 209.748L618.714 209.767C618.655 206.694 618.545 204.019 618.34 201.647L619.336 201.561ZM619.78 217.944L620.78 217.942C620.782 219.254 620.782 220.622 620.782 222.048H619.782H618.782C618.782 220.622 618.782 219.256 618.78 217.945L619.78 217.944ZM619.782 222.048H620.782V225.261H619.782H618.782V222.048H619.782ZM619.782 231.688H620.782V238.115H619.782H618.782V231.688H619.782ZM619.782 244.542H620.782V247.756H619.782H618.782V244.542H619.782ZM619.782 247.756H620.782C620.782 249.182 620.782 250.548 620.784 251.858L619.784 251.86L618.784 251.861C618.782 250.549 618.782 249.181 618.782 247.756H619.782ZM619.85 260.056L620.85 260.036C620.909 263.109 621.019 265.784 621.224 268.157L620.228 268.242L619.231 268.328C619.021 265.893 618.91 263.169 618.85 260.075L619.85 260.056ZM621.62 276.305L622.578 276.018C622.968 277.326 623.443 278.524 624.019 279.655L623.128 280.109L622.237 280.563C621.602 279.316 621.084 278.004 620.662 276.591L621.62 276.305ZM623.128 280.109L624.019 279.655C624.728 281.048 625.543 282.375 626.453 283.628L625.644 284.216L624.835 284.804C623.864 283.466 622.994 282.049 622.237 280.563L623.128 280.109ZM632.435 291.007L633.023 290.198C634.276 291.108 635.604 291.923 636.996 292.632L636.542 293.523L636.088 294.414C634.602 293.657 633.185 292.787 631.848 291.816L632.435 291.007ZM636.542 293.523L636.996 292.632C638.127 293.209 639.325 293.683 640.633 294.073L640.347 295.031L640.061 295.99C638.647 295.567 637.335 295.05 636.088 294.414L636.542 293.523ZM648.409 296.424L648.495 295.427C650.867 295.632 653.542 295.742 656.615 295.801L656.596 296.801L656.576 297.801C653.483 297.741 650.758 297.63 648.323 297.42L648.409 296.424ZM664.791 296.867L664.793 295.867C666.103 295.869 667.469 295.869 668.896 295.869V296.869V297.869C667.47 297.869 666.102 297.869 664.79 297.867L664.791 296.867ZM668.896 296.869V295.869H673.116V296.869V297.869H668.896V296.869ZM681.558 296.869V295.869H685.778V296.869V297.869H681.558V296.869Z" fill="white"/>
<path d="M463.293 172.228C462.902 172.618 462.902 173.252 463.293 173.642L469.657 180.006C470.047 180.397 470.681 180.397 471.071 180.006C471.462 179.616 471.462 178.982 471.071 178.592L465.414 172.935L471.071 167.278C471.462 166.888 471.462 166.254 471.071 165.864C470.681 165.473 470.047 165.473 469.657 165.864L463.293 172.228ZM686.485 49.7071C686.876 49.3166 686.876 48.6834 686.485 48.2929L680.122 41.9289C679.731 41.5384 679.098 41.5384 678.707 41.9289C678.317 42.3195 678.317 42.9526 678.707 43.3431L684.364 49L678.707 54.6569C678.317 55.0474 678.317 55.6805 678.707 56.0711C679.098 56.4616 679.731 56.4616 680.122 56.0711L686.485 49.7071ZM623.128 65.7603L624.019 66.2143L623.128 65.7603ZM603.022 169.589L603.476 170.48L603.022 169.589ZM616.436 156.175L617.327 156.629L616.436 156.175ZM467.81 173.935C468.362 173.935 468.81 173.487 468.81 172.935C468.81 172.383 468.362 171.935 467.81 171.935V173.935ZM475.429 171.935C474.876 171.935 474.429 172.383 474.429 172.935C474.429 173.487 474.876 173.935 475.429 173.935V171.935ZM483.048 173.935C483.6 173.935 484.048 173.487 484.048 172.935C484.048 172.383 483.6 171.935 483.048 171.935V173.935ZM490.667 171.935C490.115 171.935 489.667 172.383 489.667 172.935C489.667 173.487 490.115 173.935 490.667 173.935V171.935ZM498.286 173.935C498.839 173.935 499.286 173.487 499.286 172.935C499.286 172.383 498.839 171.935 498.286 171.935V173.935ZM505.905 171.935C505.353 171.935 504.905 172.383 504.905 172.935C504.905 173.487 505.353 173.935 505.905 173.935V171.935ZM513.525 173.935C514.077 173.935 514.525 173.487 514.525 172.935C514.525 172.383 514.077 171.935 513.525 171.935V173.935ZM521.144 171.935C520.592 171.935 520.144 172.383 520.144 172.935C520.144 173.487 520.592 173.935 521.144 173.935V171.935ZM528.763 173.935C529.315 173.935 529.763 173.487 529.763 172.935C529.763 172.383 529.315 171.935 528.763 171.935V173.935ZM536.382 171.935C535.83 171.935 535.382 172.383 535.382 172.935C535.382 173.487 535.83 173.935 536.382 173.935V171.935ZM544.001 173.935C544.554 173.935 545.001 173.487 545.001 172.935C545.001 172.383 544.554 171.935 544.001 171.935V173.935ZM551.621 171.935C551.068 171.935 550.621 172.383 550.621 172.935C550.621 173.487 551.068 173.935 551.621 173.935V171.935ZM559.24 173.935C559.792 173.935 560.24 173.487 560.24 172.935C560.24 172.383 559.792 171.935 559.24 171.935V173.935ZM566.859 171.935C566.307 171.935 565.859 172.383 565.859 172.935C565.859 173.487 566.307 173.935 566.859 173.935V171.935ZM574.774 173.933C575.326 173.932 575.773 173.484 575.773 172.932C575.772 172.379 575.324 171.932 574.771 171.933L574.774 173.933ZM582.949 171.867C582.397 171.878 581.958 172.334 581.969 172.886C581.979 173.438 582.435 173.877 582.988 173.867L582.949 171.867ZM591.241 173.486C591.792 173.438 592.199 172.954 592.152 172.404C592.104 171.853 591.62 171.446 591.07 171.493L591.241 173.486ZM598.931 170.139C598.402 170.297 598.101 170.854 598.259 171.383C598.417 171.912 598.974 172.213 599.504 172.055L598.931 170.139ZM607.717 167.882C608.163 167.557 608.262 166.932 607.938 166.485C607.613 166.038 606.988 165.939 606.541 166.264L607.717 167.882ZM613.111 159.694C612.786 160.141 612.885 160.766 613.332 161.091C613.779 161.415 614.404 161.316 614.729 160.869L613.111 159.694ZM618.902 152.656C619.06 152.127 618.76 151.57 618.23 151.412C617.701 151.254 617.144 151.555 616.986 152.084L618.902 152.656ZM618.34 144.222C618.293 144.773 618.7 145.257 619.251 145.305C619.801 145.352 620.285 144.944 620.333 144.394L618.34 144.222ZM620.714 136.141C620.724 135.588 620.285 135.132 619.733 135.122C619.181 135.111 618.725 135.55 618.714 136.102L620.714 136.141ZM618.78 127.924C618.779 128.476 619.226 128.925 619.779 128.926C620.331 128.926 620.779 128.479 620.78 127.927L618.78 127.924ZM620.782 120.608C620.782 120.056 620.334 119.608 619.782 119.608C619.23 119.608 618.782 120.056 618.782 120.608H620.782ZM618.782 114.181C618.782 114.733 619.23 115.181 619.782 115.181C620.334 115.181 620.782 114.733 620.782 114.181H618.782ZM620.782 107.754C620.782 107.202 620.334 106.754 619.782 106.754C619.23 106.754 618.782 107.202 618.782 107.754H620.782ZM618.782 101.327C618.782 101.879 619.23 102.327 619.782 102.327C620.334 102.327 620.782 101.879 620.782 101.327H618.782ZM620.784 94.0108C620.785 93.4585 620.338 93.0102 619.785 93.0094C619.233 93.0086 618.785 93.4556 618.784 94.0079L620.784 94.0108ZM618.85 85.7944C618.84 86.3466 619.279 86.8028 619.831 86.8134C620.383 86.8241 620.839 86.385 620.85 85.8329L618.85 85.7944ZM621.224 77.7125C621.271 77.1623 620.864 76.6778 620.313 76.6303C619.763 76.5829 619.279 76.9905 619.231 77.5408L621.224 77.7125ZM620.662 69.2785C620.504 69.8077 620.805 70.3648 621.334 70.5228C621.863 70.6808 622.42 70.3799 622.578 69.8507L620.662 69.2785ZM626.453 62.2411C626.778 61.7943 626.679 61.1689 626.232 60.8443C625.785 60.5197 625.16 60.6187 624.835 61.0655L626.453 62.2411ZM631.848 54.0534C631.401 54.378 631.302 55.0034 631.626 55.4502C631.951 55.897 632.576 55.996 633.023 55.6714L631.848 54.0534ZM640.633 51.796C641.162 51.638 641.463 51.0809 641.305 50.5517C641.147 50.0225 640.59 49.7216 640.061 49.8796L640.633 51.796ZM648.323 48.4492C647.773 48.4967 647.365 48.9812 647.412 49.5314C647.46 50.0817 647.944 50.4893 648.495 50.4419L648.323 48.4492ZM656.615 50.068C657.167 50.0574 657.606 49.6012 657.596 49.049C657.585 48.4968 657.129 48.0578 656.576 48.0684L656.615 50.068ZM664.79 48.0019C664.238 48.0027 663.791 48.4511 663.791 49.0034C663.792 49.5556 664.241 50.0027 664.793 50.0019L664.79 48.0019ZM673.116 50C673.669 50 674.116 49.5523 674.116 49C674.116 48.4477 673.669 48 673.116 48V50ZM681.558 48C681.005 48 680.558 48.4477 680.558 49C680.558 49.5523 681.005 50 681.558 50V48ZM464 172.935V173.935H467.81V172.935V171.935H464V172.935ZM475.429 172.935V173.935H483.048V172.935V171.935H475.429V172.935ZM490.667 172.935V173.935H498.286V172.935V171.935H490.667V172.935ZM505.905 172.935V173.935H513.525V172.935V171.935H505.905V172.935ZM521.144 172.935V173.935H528.763V172.935V171.935H521.144V172.935ZM536.382 172.935V173.935H544.001V172.935V171.935H536.382V172.935ZM551.621 172.935V173.935H559.24V172.935V171.935H551.621V172.935ZM566.859 172.935V173.935H570.669V172.935V171.935H566.859V172.935ZM570.669 172.935V173.935C572.094 173.935 573.462 173.935 574.774 173.933L574.773 172.933L574.771 171.933C573.461 171.935 572.095 171.935 570.669 171.935V172.935ZM582.968 172.867L582.988 173.867C586.081 173.807 588.806 173.696 591.241 173.486L591.155 172.489L591.07 171.493C588.697 171.698 586.022 171.808 582.949 171.867L582.968 172.867ZM599.217 171.097L599.504 172.055C600.917 171.633 602.229 171.116 603.476 170.48L603.022 169.589L602.568 168.698C601.437 169.274 600.239 169.749 598.931 170.139L599.217 171.097ZM603.022 169.589L603.476 170.48C604.962 169.723 606.379 168.853 607.717 167.882L607.129 167.073L606.541 166.264C605.288 167.174 603.96 167.989 602.568 168.698L603.022 169.589ZM613.92 160.282L614.729 160.869C615.7 159.532 616.57 158.115 617.327 156.629L616.436 156.175L615.545 155.721C614.836 157.113 614.021 158.441 613.111 159.694L613.92 160.282ZM616.436 156.175L617.327 156.629C617.963 155.382 618.48 154.07 618.902 152.656L617.944 152.37L616.986 152.084C616.596 153.392 616.121 154.59 615.545 155.721L616.436 156.175ZM619.336 144.308L620.333 144.394C620.543 141.959 620.654 139.234 620.714 136.141L619.714 136.121L618.714 136.102C618.655 139.175 618.545 141.85 618.34 144.222L619.336 144.308ZM619.78 127.926L620.78 127.927C620.782 126.615 620.782 125.247 620.782 123.821H619.782H618.782C618.782 125.248 618.782 126.614 618.78 127.924L619.78 127.926ZM619.782 123.821H620.782V120.608H619.782H618.782V123.821H619.782ZM619.782 114.181H620.782V107.754H619.782H618.782V114.181H619.782ZM619.782 101.327H620.782V98.1135H619.782H618.782V101.327H619.782ZM619.782 98.1135H620.782C620.782 96.6874 620.782 95.3214 620.784 94.0108L619.784 94.0094L618.784 94.0079C618.782 95.3202 618.782 96.6877 618.782 98.1135H619.782ZM619.85 85.8136L620.85 85.8329C620.909 82.7603 621.019 80.0853 621.224 77.7125L620.228 77.6266L619.231 77.5408C619.021 79.9762 618.91 82.7006 618.85 85.7944L619.85 85.8136ZM621.62 69.5646L622.578 69.8507C622.968 68.5433 623.443 67.3449 624.019 66.2143L623.128 65.7603L622.237 65.3063C621.602 66.5529 621.084 67.8648 620.662 69.2785L621.62 69.5646ZM623.128 65.7603L624.019 66.2143C624.728 64.8216 625.543 63.4939 626.453 62.2411L625.644 61.6533L624.835 61.0655C623.864 62.4027 622.994 63.8199 622.237 65.3063L623.128 65.7603ZM632.435 54.8624L633.023 55.6714C634.276 54.7612 635.604 53.9463 636.996 53.2367L636.542 52.3457L636.088 51.4547C634.602 52.212 633.185 53.0819 631.848 54.0534L632.435 54.8624ZM636.542 52.3457L636.996 53.2367C638.127 52.6606 639.325 52.1863 640.633 51.796L640.347 50.8378L640.061 49.8796C638.647 50.3017 637.335 50.8195 636.088 51.4547L636.542 52.3457ZM648.409 49.4456L648.495 50.4419C650.867 50.2374 653.542 50.1271 656.615 50.068L656.596 49.0682L656.576 48.0684C653.483 48.1279 650.758 48.2394 648.323 48.4492L648.409 49.4456ZM664.791 49.0019L664.793 50.0019C666.103 50 667.469 50 668.896 50V49V48C667.47 48 666.102 48 664.79 48.0019L664.791 49.0019ZM668.896 49V50H673.116V49V48H668.896V49ZM681.558 49V50H685.778V49V48H681.558V49Z" fill="white"/>
<g clip-path="url(#clip1_7012_873)">
<path d="M565.905 172.767L569.983 172.706C570.037 172.706 570.089 172.723 570.127 172.754C570.166 172.785 570.187 172.826 570.187 172.869C570.187 172.912 570.166 172.954 570.127 172.984C570.089 173.015 570.037 173.032 569.983 173.032L565.905 172.971C565.871 172.971 565.839 172.96 565.815 172.941C565.791 172.922 565.777 172.896 565.777 172.869C565.777 172.842 565.791 172.816 565.815 172.797C565.839 172.778 565.871 172.767 565.905 172.767Z" fill="white"/>
<path d="M578.446 172.588L586.913 172.478C586.989 172.46 587.069 172.457 587.147 172.468C587.225 172.48 587.298 172.505 587.362 172.543C587.425 172.581 587.476 172.63 587.512 172.687C587.547 172.743 587.566 172.806 587.566 172.869C587.566 172.932 587.547 172.995 587.512 173.051C587.476 173.108 587.425 173.157 587.362 173.195C587.298 173.233 587.225 173.259 587.147 173.27C587.069 173.281 586.989 173.278 586.913 173.26L578.446 173.13C578.352 173.13 578.263 173.1 578.197 173.048C578.131 172.995 578.094 172.923 578.094 172.849C578.094 172.774 578.131 172.703 578.197 172.65C578.263 172.597 578.352 172.568 578.446 172.568V172.588Z" fill="white"/>
<path d="M595.381 172.368L603.849 172.278C604.045 172.278 604.233 172.34 604.371 172.451C604.51 172.562 604.588 172.712 604.588 172.869C604.588 173.026 604.51 173.176 604.371 173.287C604.233 173.398 604.045 173.46 603.849 173.46L595.381 173.37C595.215 173.37 595.055 173.318 594.938 173.224C594.82 173.13 594.754 173.002 594.754 172.869C594.754 172.736 594.82 172.609 594.938 172.515C595.055 172.421 595.215 172.368 595.381 172.368Z" fill="white"/>
<path d="M612.311 172.193L620.779 172.107C620.904 172.107 621.028 172.127 621.144 172.165C621.259 172.203 621.364 172.259 621.453 172.33C621.541 172.401 621.612 172.485 621.66 172.577C621.707 172.67 621.732 172.769 621.732 172.869C621.732 172.969 621.707 173.068 621.66 173.161C621.612 173.253 621.541 173.337 621.453 173.408C621.364 173.479 621.259 173.535 621.144 173.573C621.028 173.611 620.904 173.631 620.779 173.631L612.311 173.537C612.087 173.537 611.871 173.466 611.713 173.339C611.554 173.212 611.465 173.04 611.465 172.861C611.465 172.682 611.554 172.509 611.713 172.383C611.871 172.256 612.087 172.184 612.311 172.184V172.193Z" fill="white"/>
<path d="M629.246 172.013L637.709 171.903C637.868 171.901 638.025 171.924 638.173 171.971C638.32 172.017 638.455 172.087 638.569 172.175C638.683 172.263 638.775 172.368 638.838 172.485C638.901 172.601 638.935 172.726 638.937 172.853C638.94 172.98 638.912 173.106 638.853 173.224C638.795 173.342 638.708 173.449 638.598 173.541C638.488 173.632 638.356 173.705 638.21 173.755C638.065 173.806 637.908 173.833 637.75 173.835H637.709L629.246 173.725C628.962 173.725 628.69 173.635 628.489 173.474C628.289 173.314 628.176 173.096 628.176 172.869C628.176 172.642 628.289 172.425 628.489 172.264C628.69 172.104 628.962 172.013 629.246 172.013Z" fill="white"/>
<path d="M646.176 171.814C647.588 171.814 649 171.814 650.407 171.814C651.814 171.814 653.231 171.814 654.643 171.842C654.954 171.874 655.239 171.995 655.446 172.182C655.653 172.37 655.767 172.611 655.767 172.861C655.767 173.111 655.653 173.352 655.446 173.54C655.239 173.728 654.954 173.848 654.643 173.88C653.231 173.88 651.819 173.912 650.407 173.908C648.995 173.904 647.588 173.908 646.176 173.908C645.826 173.908 645.49 173.797 645.242 173.599C644.995 173.401 644.855 173.133 644.855 172.853C644.855 172.573 644.995 172.305 645.242 172.107C645.49 171.909 645.826 171.797 646.176 171.797V171.814Z" fill="white"/>
<path d="M663.106 171.965C665.93 172.03 668.755 172.083 671.574 172.176C671.804 172.176 672.024 172.249 672.187 172.379C672.349 172.509 672.44 172.685 672.44 172.869C672.44 173.053 672.349 173.229 672.187 173.359C672.024 173.489 671.804 173.562 671.574 173.562C668.755 173.656 665.93 173.709 663.106 173.774C662.957 173.777 662.81 173.757 662.671 173.714C662.532 173.672 662.405 173.608 662.297 173.526C662.189 173.444 662.102 173.347 662.042 173.238C661.981 173.129 661.948 173.012 661.944 172.894C661.94 172.775 661.965 172.657 662.018 172.546C662.071 172.435 662.151 172.333 662.254 172.247C662.356 172.161 662.478 172.091 662.614 172.043C662.75 171.994 662.896 171.968 663.045 171.965H663.106Z" fill="white"/>
<path d="M680.041 172.478C681.403 172.535 682.759 172.604 684.12 172.673C684.184 172.678 684.244 172.702 684.287 172.74C684.33 172.779 684.352 172.83 684.349 172.881C684.346 172.929 684.32 172.974 684.278 173.008C684.236 173.042 684.179 173.062 684.12 173.065C682.759 173.138 681.403 173.203 680.041 173.26C679.934 173.24 679.837 173.193 679.766 173.125C679.695 173.057 679.653 172.973 679.647 172.884C679.641 172.796 679.672 172.709 679.734 172.635C679.796 172.562 679.886 172.507 679.991 172.478H680.041Z" fill="white"/>
<path d="M679.048 177.869L678.008 176.973L683.534 172.869L678.008 168.766L679.048 167.869L685.777 172.869L679.048 177.869Z" fill="white"/>
</g>
<g clip-path="url(#clip2_7012_873)">
<path d="M411.64 220.374L455.694 261.687C455.694 261.687 454.463 247.507 454.702 244.743C454.702 244.743 466.058 243.083 471.869 240.444C471.869 240.444 465.486 242.806 428.64 207.129L411.64 220.374Z" fill="#CC063A"/>
<path d="M247.258 255.037L249.688 261.963C249.688 261.963 412.711 196.746 517.788 191.581C517.788 191.581 511.028 183.408 508.192 176.922L254.775 242.223L247.258 255.037Z" fill="#FBBE82"/>
<path opacity="0.25" d="M247.258 255.037L249.688 261.963C249.688 261.963 412.711 196.746 517.788 191.581C517.788 191.581 511.028 183.408 508.192 176.922L254.775 242.223L247.258 255.037Z" fill="#EFEEED"/>
<path d="M237.876 254.115C237.876 254.115 241.104 256.017 246.369 255.312C254.878 252.615 330.822 228.577 391.615 211.978C429.468 201.649 530.234 183.739 530.234 183.739C530.234 183.739 544.59 177.948 543.692 157.116C542.581 131.36 519.334 126.074 519.334 126.074C519.334 126.074 459.515 138.801 395.669 147.492C331.822 156.182 223.652 164.647 223.652 164.647L243.963 251.357L237.876 254.115Z" fill="white"/>
<path d="M240.062 254.231C247.864 252.783 250.511 231.554 245.975 206.814C241.438 182.073 231.436 163.191 223.634 164.638C215.832 166.085 213.185 187.315 217.722 212.055C222.258 236.795 232.26 255.678 240.062 254.231Z" fill="url(#paint0_linear_7012_873)"/>
<path opacity="0.25" d="M240.062 254.231C247.864 252.783 250.511 231.554 245.975 206.814C241.438 182.073 231.436 163.191 223.634 164.638C215.832 166.085 213.185 187.315 217.722 212.055C222.258 236.795 232.26 255.678 240.062 254.231Z" fill="#EFEEED"/>
<path d="M428.264 212.704C428.264 212.704 422.775 216.791 417.497 213.428C412.218 210.065 420.391 201.777 420.391 201.777L436.654 201.656L428.264 212.704Z" fill="#AA073A"/>
<path d="M225.498 184.863L239.1 182.272L241.902 189.697L244.128 196.91L246.517 208.21C245.961 216.127 246.836 224.706 243.431 232.091C243.31 232.388 243.146 232.665 242.943 232.913C242.718 233.159 242.45 233.36 242.152 233.506C239.41 234.935 237.299 233.94 235.185 232.014C232.677 229.629 230.648 226.785 229.207 223.634C227.408 219.651 226.005 215.5 225.017 211.24C223.88 207.104 223.113 202.874 222.725 198.601C222.447 194.713 222.98 191.152 223.654 187.329L225.498 184.863Z" fill="#FBBE82"/>
<path opacity="0.25" d="M225.498 184.863L239.1 182.272L241.902 189.697L244.128 196.91L246.517 208.21C245.961 216.127 246.836 224.706 243.431 232.091C243.31 232.388 243.146 232.665 242.943 232.913C242.718 233.159 242.45 233.36 242.152 233.506C239.41 234.935 237.299 233.94 235.185 232.014C232.677 229.629 230.648 226.785 229.207 223.634C227.408 219.651 226.005 215.5 225.017 211.24C223.88 207.104 223.113 202.874 222.725 198.601C222.447 194.713 222.98 191.152 223.654 187.329L225.498 184.863Z" fill="#2D1206"/>
<path d="M225.957 183.713L238.749 181.573L243.157 194.805L247.025 209.684L238.311 210.192C238.311 210.192 239.357 202.23 234.429 192.365C229.501 182.499 225.957 183.713 225.957 183.713Z" fill="#FBBE82"/>
<path d="M240.294 235.061L248.495 233.899L248.661 229.768L248.478 223.603L248.251 217.681L247.521 212.504L246.41 209.774L246.484 216.27L245.798 225.754L245.13 228.837L242.924 232.902L241.436 234.01L240.294 235.061Z" fill="#FBBE82"/>
<path d="M236.828 234.216C232.145 231.456 228.371 225.399 225.609 216.216C222.703 206.56 221.273 199.678 222.03 190.955C222.372 187.029 223.986 184.333 226.448 183.543C229.202 182.666 231.828 185.334 233.366 188.126C237.04 194.788 238.098 202.953 239.033 210.158L237.605 210.346C236.663 203.264 235.651 195.254 232.097 188.862C231.129 187.101 228.935 184.304 226.878 184.952C225.021 185.548 223.746 187.851 223.454 191.118C222.689 199.598 224.114 206.348 226.969 215.833C229.589 224.536 233.246 230.471 237.546 233.002C238.066 233.354 238.664 233.574 239.288 233.643C239.912 233.712 240.543 233.628 241.128 233.399C242.551 232.741 243.56 230.993 244.205 228.081C246.758 216.582 245.363 203.003 239.958 186.563L241.323 186.115C246.814 202.805 248.217 216.634 245.612 228.387C244.859 231.786 243.582 233.89 241.728 234.714C240.932 235.034 240.07 235.156 239.217 235.069C238.363 234.983 237.544 234.69 236.828 234.216Z" fill="#F4F4F4"/>
<path d="M238.251 254.928C230.347 253.534 221.343 235.727 217.023 212.182C212.344 186.661 215.198 165.464 223.516 163.927C227.62 163.186 232.299 167.293 236.677 175.559C240.927 183.591 244.486 194.636 246.694 206.673C251.375 232.187 248.521 253.384 240.201 254.928C239.556 255.047 238.896 255.047 238.251 254.928ZM225.238 165.345C224.755 165.255 224.26 165.254 223.778 165.343C216.507 166.692 214.061 188.018 218.442 211.919C222.823 235.82 232.671 254.853 239.947 253.513C247.223 252.173 249.671 230.832 245.289 206.939C243.107 195.045 239.596 184.14 235.411 176.237C231.963 169.739 228.34 165.892 225.238 165.345Z" fill="#EFEFEF"/>
<path d="M400.569 141.484L426.037 140.678C426.037 140.678 437.703 147.284 432.168 175.861C429.814 188.01 425.914 200.187 419.139 216.619C410.022 238.835 397.484 261.526 392.652 311.67L381.314 294.213L362.448 298.622C362.448 298.622 366.063 271.077 377.081 243.84C379.036 239.005 384.152 228.589 389.453 218.776C401.294 196.762 414.714 167.868 400.569 141.484Z" fill="url(#paint1_linear_7012_873)"/>
<path d="M375.823 150.007L389.387 138.267C389.387 138.267 411.844 123.97 441.478 160.419C455.125 177.206 453.816 191.957 446.61 199.609C439.627 207.03 430.129 211.575 426.903 213.468C426.903 213.468 437.349 206.577 429.987 187.696C423.614 171.488 406.585 139.761 375.823 150.007Z" fill="url(#paint2_linear_7012_873)"/>
<path d="M406.745 154.463C406.745 154.463 416.741 145.28 428.916 147.427C431.186 149.357 433.358 151.4 435.424 153.549C435.424 153.549 421.87 151.723 413.294 160.189C411.267 158.108 409.077 156.193 406.745 154.463Z" fill="#FF7885"/>
</g>
<path d="M186.446 154.574C186.478 154.472 186.475 154.362 186.437 154.262C186.398 154.162 186.328 154.077 186.236 154.022C186.144 153.967 186.036 153.944 185.93 153.958C185.823 153.971 185.725 154.02 185.649 154.096C177.86 164.373 172.223 176.642 167.123 188.473C162.7 198.73 157.282 210.959 158.079 222.431C158.105 222.573 158.179 222.702 158.291 222.795C158.402 222.887 158.542 222.938 158.686 222.938C158.831 222.938 158.971 222.887 159.082 222.795C159.193 222.702 159.268 222.573 159.294 222.431C161.56 210.539 165.253 198.963 170.29 187.955C175.211 176.602 181.705 165.987 186.446 154.574Z" fill="#404040"/>
<path d="M186.686 155.311C180.87 166.504 176.726 178.494 171.546 190.046C166.845 200.761 161.347 212.433 161.287 224.442C161.287 224.841 161.944 224.94 162.044 224.562C163.698 218.826 164.893 213.01 166.805 207.354C168.718 201.697 171.148 196.32 173.519 190.922C178.599 179.331 182.662 167.341 187.344 155.69C187.369 155.646 187.385 155.599 187.391 155.549C187.398 155.5 187.394 155.45 187.381 155.402C187.368 155.354 187.346 155.309 187.316 155.269C187.285 155.23 187.248 155.197 187.204 155.172C187.161 155.147 187.114 155.131 187.064 155.124C187.015 155.118 186.965 155.121 186.917 155.134C186.868 155.147 186.823 155.169 186.784 155.2C186.744 155.23 186.711 155.268 186.686 155.311Z" fill="#404040"/>
<path d="M185.61 189.669C186.885 183.096 188.24 176.563 189.595 169.991C190.431 165.629 191.786 161.247 190.67 156.826C190.67 156.762 190.645 156.702 190.6 156.657C190.555 156.612 190.495 156.587 190.431 156.587C190.368 156.587 190.307 156.612 190.262 156.657C190.217 156.702 190.192 156.762 190.192 156.826C189.954 160.478 189.367 164.1 188.439 167.641C189.317 163.274 189.923 158.858 190.252 154.416C190.252 154.296 190.209 154.18 190.13 154.09C190.052 153.999 189.943 153.94 189.824 153.923C189.706 153.906 189.585 153.932 189.484 153.997C189.383 154.062 189.309 154.161 189.276 154.276C187.762 159.774 186.865 165.43 185.431 170.947C183.857 176.922 182.244 182.897 180.71 188.733C177.602 200.822 173.717 212.932 171.745 225.28C171.626 226.057 172.741 226.395 173 225.678C176.984 214.445 179.694 202.455 182.722 190.884C184.196 185.227 185.73 179.631 187.065 173.994C185.949 179.133 184.833 184.251 183.778 189.41C182.562 195.504 181.327 201.599 179.793 207.654C178.18 214.186 175.271 220.381 174.255 227.053C174.136 227.869 175.371 228.268 175.65 227.451C179.839 215.102 183.167 202.478 185.61 189.669Z" fill="#404040"/>
<path d="M190.191 188.235C191.406 181.244 192.402 174.293 192.92 167.183C193.219 163.199 194.494 158.16 192.183 154.635C191.864 154.117 191.127 154.496 191.167 155.033C192.223 165.729 189.673 177.38 187.82 187.876C186.645 194.529 185.629 201.181 184.195 207.793C182.76 214.406 180.43 221.058 178.378 227.71C178.159 228.427 179.115 229.184 179.593 228.447C182.701 223.448 184.115 217.393 185.569 211.697C187.561 203.969 188.836 196.062 190.191 188.235Z" fill="#404040"/>
<path d="M189.157 157.682C189.157 157.608 189.127 157.537 189.075 157.485C189.023 157.432 188.952 157.403 188.878 157.403C188.804 157.403 188.733 157.432 188.68 157.485C188.628 157.537 188.599 157.608 188.599 157.682C188.671 157.262 188.657 156.832 188.557 156.418C188.458 156.003 188.276 155.614 188.021 155.272C187.722 154.913 186.985 155.093 187.085 155.67C187.623 158.379 184.395 163.279 183.32 165.629C180.571 171.823 178.479 178.555 176.128 184.908C173.638 191.6 171.805 198.551 169.793 205.403C168.04 211.477 165.271 217.91 165.291 224.344C165.313 224.5 165.384 224.646 165.495 224.759C165.606 224.872 165.75 224.947 165.907 224.971C166.063 224.996 166.224 224.969 166.364 224.896C166.504 224.822 166.617 224.705 166.686 224.563C171.028 210.043 174.873 195.126 180.63 181.064C182.941 175.308 184.615 169.353 186.826 163.557C187.085 162.9 187.503 161.944 187.882 160.888C185.192 171.265 181.268 181.283 178.28 191.541C175.052 202.495 171.845 213.449 168.757 224.463C168.618 225.021 169.355 225.638 169.734 225.041C172.053 220.638 173.787 215.951 174.893 211.099C176.706 204.885 178.678 198.75 180.471 192.536C183.718 181.044 188.439 169.632 189.157 157.682Z" fill="#464646"/>
<path d="M182.184 212.731C183.638 206.278 185.053 199.825 186.487 193.352C189.077 181.522 192.782 167.64 190.89 155.51C190.87 155.427 190.823 155.353 190.756 155.3C190.689 155.247 190.607 155.218 190.521 155.218C190.436 155.218 190.353 155.247 190.286 155.3C190.219 155.353 190.172 155.427 190.153 155.51C189.057 160.828 188.878 166.365 188.161 171.742C187.324 177.717 186.168 183.693 184.913 189.528C182.383 201.478 180.073 213.428 176.706 225.239C176.547 225.857 177.363 226.514 177.742 225.876C179.906 221.756 181.406 217.32 182.184 212.731Z" fill="#464646"/>
<path d="M186.447 154.256C184.455 159.195 180.809 163.338 178.24 168.018C175.408 173.259 172.88 178.659 170.67 184.191C166.327 194.906 160.47 206.697 159.673 218.408C159.654 218.509 159.673 218.614 159.727 218.702C159.781 218.79 159.865 218.855 159.964 218.885C160.063 218.915 160.169 218.907 160.263 218.863C160.356 218.819 160.43 218.742 160.47 218.647C162.721 213.11 163.817 207.155 166.147 201.598C168.478 196.041 170.47 190.584 172.682 185.087C174.883 179.551 177.397 174.145 180.212 168.894C182.742 164.214 186.188 159.832 187.244 154.475C187.255 154.376 187.23 154.276 187.175 154.193C187.119 154.111 187.035 154.051 186.939 154.025C186.843 153.998 186.741 154.007 186.65 154.049C186.56 154.092 186.488 154.165 186.447 154.256Z" fill="#464646"/>
<path d="M188.119 173.455C188.896 167.48 190.968 160.968 189.653 154.953C189.653 154.455 188.736 154.335 188.717 154.953C188.697 155.57 188.717 156.486 188.577 157.223C188.558 156.71 188.512 156.198 188.438 155.69C188.452 155.631 188.452 155.569 188.438 155.51C188.438 155.232 188.438 154.973 188.438 154.694C188.438 154.588 188.396 154.487 188.321 154.412C188.246 154.337 188.145 154.295 188.039 154.295C187.934 154.295 187.832 154.337 187.758 154.412C187.683 154.487 187.641 154.588 187.641 154.694C187.222 158.797 183.657 162.342 181.664 165.708C178.612 170.606 176.056 175.797 174.035 181.203C169.792 192.635 165.25 204.605 163.178 216.695C163.178 217.173 163.835 217.412 163.975 216.934C167.799 204.605 172.242 192.536 176.704 180.466C178.44 175.926 180.622 171.57 183.218 167.46C180.19 174.969 177.242 182.498 174.513 190.126C171.047 199.825 167.122 210.043 165.449 220.16C165.441 220.248 165.464 220.336 165.515 220.409C165.565 220.482 165.639 220.535 165.724 220.558C165.81 220.582 165.9 220.575 165.981 220.539C166.062 220.502 166.127 220.439 166.166 220.36C172.541 200.821 179.573 181.562 186.485 162.202C186.705 161.844 186.904 161.505 187.083 161.167C186.366 164.194 185.21 167.142 184.453 170.209C183.119 175.746 181.266 181.143 179.772 186.64C176.624 198.112 171.644 209.146 169.015 220.698C168.875 221.296 169.732 221.495 169.971 220.997C175.071 210.074 179.075 198.672 181.923 186.959C183.557 180.745 185.39 174.491 187.222 168.317C187.601 167.022 187.94 165.748 188.238 164.473C187.083 173.117 185.031 181.761 183.238 190.106C180.862 202.722 177.62 215.159 173.537 227.33C173.318 227.948 174.194 228.565 174.573 227.948C177.302 223.626 178.278 218.388 179.493 213.448C181.087 206.876 183.039 200.443 184.493 193.85C185.948 187.258 187.222 180.307 188.119 173.455Z" fill="#555555"/>
<path d="M197.681 136.889C197.658 136.771 197.595 136.666 197.502 136.59C197.409 136.514 197.293 136.472 197.173 136.472C197.054 136.472 196.937 136.514 196.845 136.59C196.752 136.666 196.689 136.771 196.665 136.889C196.279 138.855 195.608 140.753 194.673 142.525C194.474 142.904 194.255 143.302 194.016 143.68C194.175 143.282 194.315 142.864 194.474 142.466C195.358 140.471 195.721 138.285 195.53 136.112C195.53 136.001 195.486 135.895 195.407 135.816C195.329 135.738 195.222 135.694 195.112 135.694C195.001 135.694 194.894 135.738 194.816 135.816C194.737 135.895 194.693 136.001 194.693 136.112C194.128 138.268 193.368 140.368 192.422 142.386C192.143 143.003 191.825 143.601 191.506 144.218C191.884 143.083 192.203 141.908 192.582 140.812C193.264 139.046 193.713 137.198 193.916 135.315C193.916 134.698 193.08 134.359 192.86 134.997C192.143 136.988 191.486 138.98 190.709 140.972C192.103 134.061 192.821 126.891 193.737 119.96C194.335 115.379 194.872 110.818 195.729 106.277C196.589 103.118 196.485 99.7753 195.43 96.6767C195.231 96.2385 194.454 96.2186 194.434 96.6767C194.195 104.305 192.263 111.933 191.307 119.482C190.35 127.03 188.996 134.339 187.82 141.788V139.757C187.82 137.546 188 135.315 187.98 133.105C187.98 132.627 187.302 132.567 187.123 132.965C186.418 134.879 186.054 136.901 186.047 138.94C186.047 139.797 185.888 140.693 185.808 141.589C185.709 140.912 185.609 140.255 185.569 139.598C185.45 137.028 185.828 134.459 185.569 131.89C185.553 131.776 185.501 131.67 185.42 131.588C185.339 131.506 185.234 131.452 185.12 131.435C185.007 131.417 184.89 131.436 184.788 131.489C184.686 131.542 184.604 131.627 184.553 131.73C183.74 134.254 183.317 136.887 183.298 139.538C183.298 141.729 183.079 144.975 184.772 146.588C184.899 146.688 185.051 146.752 185.21 146.775C185.37 146.798 185.533 146.778 185.683 146.717C185.832 146.656 185.963 146.557 186.062 146.43C186.161 146.302 186.225 146.151 186.247 145.991C186.247 145.991 186.247 145.772 186.247 145.652C186.332 145.694 186.426 145.718 186.521 145.721C186.616 145.725 186.711 145.708 186.799 145.672C186.888 145.637 186.968 145.583 187.034 145.514C187.1 145.445 187.151 145.364 187.183 145.274C187.183 145.274 187.183 145.075 187.183 144.955C187.043 145.792 186.904 146.628 186.785 147.445C186.605 148.66 188.478 149.277 188.777 148.042C188.896 147.704 188.976 147.325 189.075 146.967C189.137 147.045 189.216 147.109 189.305 147.153C189.395 147.197 189.494 147.219 189.593 147.219C189.693 147.219 189.792 147.197 189.882 147.153C189.971 147.109 190.05 147.045 190.111 146.967C190.04 147.155 189.98 147.348 189.932 147.544C189.673 148.461 190.988 148.899 191.506 148.241C192.024 147.584 192.024 147.465 192.283 147.066C192.285 147.22 192.334 147.37 192.424 147.496C192.513 147.621 192.639 147.716 192.784 147.768C192.929 147.82 193.087 147.826 193.236 147.786C193.385 147.746 193.518 147.662 193.617 147.544C194.758 146.025 195.659 144.339 196.287 142.545C197.238 140.814 197.718 138.864 197.681 136.889Z" fill="#404040"/>
<path d="M189.036 140.813C189.315 138.821 189.853 137.088 190.252 135.236C190.371 134.658 189.594 134.539 189.355 134.977C188.45 136.741 187.781 138.616 187.363 140.554C187.224 141.072 187.084 141.649 186.965 142.227C186.865 141.51 186.706 140.773 186.646 140.076C186.423 137.912 186.49 135.729 186.845 133.583C186.845 133.005 186.068 132.746 185.869 133.304C185.243 135.069 184.92 136.928 184.913 138.801C184.705 140.892 185.027 143.002 185.849 144.935C186.088 145.334 186.546 145.214 186.805 144.935C186.842 145.291 186.929 145.64 187.064 145.971C187.114 146.091 187.198 146.194 187.306 146.267C187.414 146.339 187.542 146.377 187.672 146.377C187.802 146.377 187.929 146.339 188.037 146.267C188.145 146.194 188.23 146.091 188.279 145.971C188.774 144.296 189.029 142.559 189.036 140.813Z" fill="#464646"/>
<path d="M195.589 137.626C195.589 136.909 194.613 136.869 194.315 137.427C193.717 138.602 193.239 139.817 192.721 141.012C193.102 139.48 193.375 137.922 193.538 136.351C193.547 136.232 193.515 136.114 193.447 136.016C193.378 135.917 193.278 135.846 193.164 135.813C193.049 135.78 192.926 135.788 192.816 135.836C192.706 135.883 192.616 135.967 192.561 136.073L190.569 141.45C189.676 142.917 189.005 144.507 188.577 146.17C188.552 146.319 188.571 146.472 188.634 146.61C188.696 146.747 188.798 146.863 188.926 146.942C189.055 147.022 189.204 147.061 189.355 147.054C189.505 147.048 189.651 146.997 189.773 146.907C190.06 146.732 190.316 146.51 190.53 146.25C190.509 146.422 190.509 146.596 190.53 146.768C190.549 146.941 190.613 147.106 190.716 147.247C190.819 147.387 190.957 147.498 191.116 147.569C191.275 147.639 191.45 147.667 191.623 147.649C191.797 147.63 191.962 147.567 192.103 147.465C193.241 146.076 194.051 144.449 194.474 142.705C195.219 141.116 195.6 139.381 195.589 137.626Z" fill="#464646"/>
<path d="M187.801 145.314C187.13 141.852 187.44 138.271 188.697 134.977C188.73 134.869 188.721 134.753 188.673 134.652C188.626 134.55 188.542 134.469 188.439 134.425C188.336 134.381 188.22 134.376 188.113 134.412C188.006 134.447 187.917 134.521 187.861 134.618C186.546 137.546 184.833 142.585 186.446 145.672C186.785 146.329 188 146.17 187.801 145.314Z" fill="#555555"/>
<path d="M193.219 137.028C192.509 138.644 191.711 140.219 190.829 141.748C190.829 141.409 190.988 141.071 191.068 140.712C191.564 139.158 191.845 137.543 191.904 135.912C191.904 135.255 191.048 135.275 190.809 135.733C190.143 137.17 189.583 138.655 189.135 140.175C188.526 141.494 188.117 142.897 187.92 144.337C187.894 144.517 187.919 144.7 187.991 144.866C188.063 145.032 188.181 145.175 188.33 145.278C188.478 145.382 188.653 145.442 188.834 145.451C189.015 145.461 189.195 145.42 189.355 145.333C189.245 145.798 189.245 146.282 189.355 146.747C189.411 146.884 189.502 147.004 189.618 147.096C189.735 147.187 189.873 147.247 190.019 147.269C190.166 147.291 190.316 147.275 190.454 147.222C190.592 147.169 190.715 147.081 190.809 146.966C191.494 145.571 192.035 144.11 192.422 142.604C193.226 140.908 193.892 139.15 194.414 137.346C194.514 136.669 193.458 136.39 193.219 137.028Z" fill="#555555"/>
<path d="M194.414 147.922C192.083 145.154 186.864 145.472 183.736 146.05C183.654 146.061 183.577 146.094 183.511 146.144C183.445 146.195 183.394 146.262 183.362 146.338C183.33 146.414 183.318 146.497 183.328 146.58C183.338 146.662 183.368 146.74 183.418 146.807C182.953 147.076 182.554 147.444 182.248 147.884C181.941 148.325 181.735 148.827 181.645 149.356C181.337 150.362 181.3 151.431 181.538 152.456C181.775 153.481 182.28 154.424 182.999 155.192C184.97 156.423 187.348 156.825 189.613 156.307C190.665 156.326 191.704 156.068 192.624 155.557C193.543 155.047 194.312 154.302 194.852 153.399C195.296 152.536 195.49 151.566 195.413 150.598C195.335 149.631 194.989 148.704 194.414 147.922Z" fill="#404040"/>
<path d="M193.38 147.523C190.452 147.165 187.702 146.209 184.754 147.065C184.037 147.265 184.416 148.28 185.053 148.26C186.091 148.244 187.13 148.297 188.161 148.42C187.021 148.529 185.874 148.529 184.734 148.42C184.457 148.387 184.177 148.454 183.945 148.609C183.712 148.763 183.543 148.996 183.466 149.264C183.389 149.532 183.411 149.819 183.526 150.073C183.642 150.327 183.844 150.532 184.097 150.65C184.512 150.841 184.946 150.988 185.392 151.089L184.396 151.248C184.106 151.3 183.844 151.452 183.655 151.678C183.467 151.904 183.363 152.189 183.363 152.483C183.363 152.777 183.467 153.062 183.655 153.287C183.844 153.513 184.106 153.665 184.396 153.718C185.71 153.996 187.623 153.518 189.137 153.718C189.112 153.987 189.188 154.256 189.349 154.473C189.511 154.69 189.748 154.84 190.013 154.893C190.388 154.951 190.77 154.931 191.137 154.835C191.504 154.739 191.847 154.569 192.145 154.335C192.294 154.216 192.415 154.064 192.498 153.892C192.581 153.719 192.624 153.53 192.624 153.339C192.624 153.148 192.581 152.959 192.498 152.787C192.415 152.614 192.294 152.463 192.145 152.343C191.985 152.206 191.812 152.086 191.627 151.985C191.766 151.985 191.926 151.806 192.065 151.686C192.309 151.477 192.463 151.182 192.492 150.862C192.522 150.542 192.426 150.223 192.225 149.973C192.703 149.834 193.161 149.694 193.639 149.515C193.903 149.481 194.143 149.343 194.305 149.132C194.468 148.921 194.54 148.654 194.506 148.39C194.471 148.126 194.333 147.886 194.122 147.724C193.911 147.561 193.644 147.489 193.38 147.523Z" fill="#464646"/>
<path d="M192.662 147.822C191.743 147.597 190.794 147.53 189.853 147.623C188.375 147.713 186.893 147.551 185.47 147.145C185.404 147.135 185.336 147.148 185.278 147.181C185.22 147.214 185.174 147.266 185.149 147.328C185.124 147.39 185.12 147.459 185.139 147.523C185.157 147.587 185.197 147.644 185.251 147.683C187.55 148.81 190.169 149.105 192.662 148.519C192.73 148.49 192.789 148.442 192.83 148.38C192.871 148.318 192.893 148.245 192.893 148.171C192.893 148.096 192.871 148.024 192.83 147.962C192.789 147.9 192.73 147.851 192.662 147.822Z" fill="#555555"/>
<path d="M192.621 149.576C191.23 149.693 189.834 149.74 188.438 149.716C187.165 149.495 185.908 149.196 184.673 148.819C184.155 148.68 184.055 149.417 184.434 149.656C185.679 150.437 187.078 150.941 188.535 151.134C189.993 151.326 191.475 151.202 192.88 150.771C193.039 150.737 193.177 150.641 193.265 150.505C193.353 150.368 193.383 150.203 193.348 150.044C193.314 149.886 193.218 149.747 193.082 149.66C192.945 149.572 192.78 149.542 192.621 149.576Z" fill="#555555"/>
<path d="M192.702 152.005C191.826 151.487 190.431 152.005 189.455 152.005C187.802 152.055 186.172 151.611 184.773 150.73C184.455 150.531 183.897 150.73 184.116 151.248C184.531 151.941 185.113 152.519 185.809 152.93C186.505 153.34 187.293 153.57 188.1 153.598C189.375 153.797 192.085 154.116 192.941 152.901C192.99 152.828 193.023 152.745 193.037 152.659C193.051 152.572 193.047 152.484 193.024 152.399C193.002 152.314 192.961 152.235 192.906 152.167C192.85 152.099 192.781 152.044 192.702 152.005Z" fill="#555555"/>
<path d="M191.884 154.077C190.906 154.341 189.915 154.554 188.915 154.714C187.7 154.82 186.475 154.726 185.29 154.435C184.831 154.336 184.632 155.073 185.071 155.232C186.211 155.744 187.446 156.009 188.696 156.009C189.946 156.009 191.182 155.744 192.322 155.232C192.84 154.893 192.421 153.977 191.884 154.077Z" fill="#555555"/>
<path d="M188.656 166.465C188.656 166.391 188.627 166.32 188.575 166.268C188.522 166.215 188.451 166.186 188.377 166.186C188.303 166.186 188.233 166.215 188.18 166.268C188.128 166.32 188.099 166.391 188.099 166.465C185.788 178.973 183.437 191.52 181.266 204.048C181.266 204.167 181.445 204.227 181.465 204.048C185.007 191.767 187.415 179.186 188.656 166.465Z" fill="#898989"/>
<path d="M182.721 166.485C175.709 180.685 168.776 195.503 165.848 211.218C165.848 211.477 166.206 211.596 166.286 211.337C170.748 195.922 177.143 181.462 183 166.624C183.059 166.425 182.781 166.305 182.721 166.485Z" fill="#898989"/>
<path d="M184.455 171.066C180.072 183.793 177.462 197.117 172.223 209.546C172.202 209.596 172.202 209.652 172.222 209.703C172.243 209.753 172.282 209.793 172.333 209.814C172.383 209.836 172.439 209.836 172.49 209.815C172.54 209.795 172.58 209.755 172.602 209.705C178.16 197.376 180.988 184.152 184.813 171.206C184.913 170.967 184.554 170.807 184.455 171.066Z" fill="#898989"/>
<path d="M192.145 151.706C190.276 152.124 188.35 152.225 186.447 152.005C186.328 152.005 186.268 152.184 186.447 152.224C187.382 152.649 188.393 152.883 189.419 152.91C190.446 152.937 191.467 152.758 192.423 152.383C192.513 152.346 192.585 152.275 192.622 152.186C192.659 152.096 192.66 151.995 192.623 151.905C192.586 151.816 192.515 151.744 192.425 151.707C192.335 151.67 192.234 151.669 192.145 151.706Z" fill="#898989"/>
<path d="M192.084 149.834C190.424 150.35 188.629 150.214 187.064 149.456C186.945 149.456 186.885 149.456 187.064 149.595C187.838 150.088 188.711 150.401 189.622 150.511C190.532 150.621 191.455 150.526 192.323 150.233C192.523 150.133 192.423 149.715 192.084 149.834Z" fill="#898989"/>
<path d="M187.721 138.222C187.721 137.904 187.343 137.864 187.263 138.222C186.69 140.366 186.759 142.63 187.462 144.735C187.484 144.788 187.525 144.832 187.577 144.857C187.628 144.883 187.687 144.889 187.743 144.875C187.799 144.86 187.848 144.826 187.88 144.778C187.913 144.731 187.927 144.673 187.92 144.615C187.589 142.501 187.522 140.353 187.721 138.222Z" fill="#898989"/>
<path d="M191.226 138.821C191.226 138.483 190.788 138.323 190.668 138.642C189.869 140.7 189.457 142.887 189.453 145.095C189.453 145.164 189.48 145.229 189.529 145.278C189.578 145.327 189.643 145.354 189.712 145.354C189.781 145.354 189.847 145.327 189.895 145.278C189.944 145.229 189.971 145.164 189.971 145.095C190.575 143.045 190.995 140.945 191.226 138.821Z" fill="#898989"/>
<path d="M193.877 139.757C193.02 141.748 192.443 143.74 191.387 145.732C191.387 145.732 191.506 145.951 191.566 145.732C192.743 143.881 193.643 141.868 194.235 139.757C194.415 139.617 193.976 139.438 193.877 139.757Z" fill="#898989"/>
<path d="M261.788 129.778L191.327 98.3096L188.996 94.7843L350.596 0L513.192 59.7904L514.606 63.4551L463.947 102.612L261.788 129.778Z" fill="#252627"/>
<g style="mix-blend-mode:multiply" opacity="0.6">
<path d="M513.153 59.7909L381.435 11.3333C384.224 13.0859 386.966 14.8386 389.662 16.5913C399.005 22.7058 408.189 29.0991 417.552 35.0741C423.528 38.9181 430.461 42.1446 435.839 47.0242C447.334 57.5403 436.158 63.8142 424.584 64.6507C399.165 66.4432 374.522 56.6839 349.023 61.2847C334.504 64.2071 320.395 68.8889 307.01 75.2265C297.781 79.6885 288.105 83.1601 278.144 85.5833C272.467 86.7783 252.546 90.3633 253.82 78.5725C254.737 70.3668 261.59 63.7743 266.929 58.1976C274.428 50.6311 282.626 43.7892 291.412 37.7629C302.229 30.075 313.504 22.9448 324.401 15.3166L188.938 94.7649L191.288 98.3101L261.809 129.799L463.948 102.592L514.627 63.4357L513.153 59.7909Z" fill="#3E3E3F"/>
</g>
<path opacity="0.5" d="M513.192 59.7904L350.596 0L188.996 94.7843L191.327 98.3096L351.233 4.70038L514.606 63.4551L513.192 59.7904Z" fill="url(#paint3_radial_7012_873)"/>
<g style="mix-blend-mode:multiply" opacity="0.4">
<path d="M191.287 98.2294L211.069 86.1598L230.99 74.2097L250.911 62.4189L270.951 50.8074L291.072 39.3552C297.785 35.5511 304.459 31.6474 311.152 27.7835L331.073 16.0525L350.994 4.10241L351.214 3.98291H351.472C365.138 8.76295 378.804 13.5032 392.43 18.3629L412.889 25.6126L433.288 32.9818C440.081 35.4515 446.914 37.8814 453.688 40.4307L473.967 48.1386L494.346 55.6671L514.646 63.355V63.5343L494.107 56.5435L473.609 49.3933L453.07 42.1635C446.237 39.8133 439.424 37.3436 432.611 34.9138L412.192 27.6043L391.793 20.255C378.187 15.3355 364.62 10.2966 351.034 5.25759H351.532L331.412 16.7695L311.491 28.4209C304.837 32.4043 298.184 36.2681 291.57 40.2714L271.649 52.2215L251.728 64.0123L231.687 75.5242L211.587 87.0362L191.387 98.3888L191.287 98.2294Z" fill="#1C1C1D"/>
</g>
<g style="mix-blend-mode:multiply" opacity="0.4">
<path d="M350.596 0L351.532 5.1983L417.65 71.3621L463.947 102.612L514.586 63.5348L513.192 59.7904L350.596 0Z" fill="#3E3E3F"/>
</g>
<path d="M247.105 118.207L250.751 145.433C250.751 145.433 371.712 109.105 473.309 119.123C473.309 119.123 473.947 92.3152 469.066 80.4846C469.066 80.4846 436.515 65.3677 352.468 79.9867C268.421 94.6056 247.105 118.207 247.105 118.207Z" fill="#3E3E3F"/>
<g style="mix-blend-mode:multiply" opacity="0.4">
<path d="M468.967 80.4846C468.967 80.4846 436.415 65.3677 352.368 79.9867C268.321 94.6056 247.105 118.207 247.105 118.207L250.751 145.433C250.751 145.433 257.743 143.442 269.736 140.295C269.596 139.877 269.437 139.478 269.298 139.02C266.23 128.245 267.445 115.339 277.684 109.145C290.474 101.417 306.928 98.1508 321.311 94.7251C341.982 89.9341 362.896 86.2641 383.963 83.731C402.012 81.5003 419.702 79.9667 437.651 84.2289C448.846 86.8779 451.595 93.9683 451.854 105.261C452.062 109.705 450.646 114.073 447.87 117.55C456.416 117.789 464.923 118.287 473.289 119.123C473.309 119.123 473.847 92.3152 468.967 80.4846Z" fill="#3E3E3F"/>
</g>
<path opacity="0.64" d="M439.443 109.882C437.584 108.845 435.424 108.48 433.327 108.846C431.136 108.985 428.965 109.065 426.753 109.065L410.817 109.165C400.394 109.217 389.981 109.809 379.62 110.937C370.324 111.933 361.087 113.181 351.91 114.682C351.067 114.731 350.222 114.731 349.38 114.682C348.183 114.652 347 114.43 345.874 114.024C347.404 113.105 349.043 112.382 350.754 111.873C353.543 110.917 356.432 110.24 359.261 109.384C362.482 108.504 365.649 107.433 368.743 106.177C370.457 105.535 372.003 104.514 373.265 103.189C373.967 102.517 374.399 101.612 374.48 100.643C374.561 99.675 374.285 98.7105 373.704 97.9314C372.157 96.3498 370.091 95.3806 367.887 95.2028C365.33 94.881 362.75 94.7877 360.177 94.924C357.92 95.0839 355.654 95.0439 353.404 94.8045H353.085C353.478 94.6293 353.841 94.3942 354.161 94.1074C354.315 93.9833 354.455 93.8431 354.579 93.6891C358.743 92.773 362.946 91.9564 367.169 91.2792C371.931 90.5224 376.712 90.0245 381.533 89.5464C386.353 89.0684 390.875 88.5307 395.477 88.0726C406.002 87.044 416.583 86.7113 427.152 87.0768C428.168 87.0768 429.144 85.0851 427.929 84.9058C418.532 83.7263 409.038 83.5327 399.601 84.3282C390.019 84.9058 380.377 85.4037 370.835 86.5788C351.073 89.0087 332.009 94.8443 312.825 99.9231C308.542 101.058 304.219 101.915 299.936 103.05C295.952 104.046 291.589 105.38 289.019 108.806C288.795 109.046 288.628 109.334 288.532 109.648C288.435 109.962 288.411 110.294 288.461 110.618C288.581 111.116 289.019 111.634 289.597 111.495C292.525 110.758 295.374 109.782 298.302 109.045C301.149 108.33 304.036 107.785 306.948 107.412C309.87 106.968 312.818 106.722 315.773 106.675C318.223 106.675 320.674 106.814 323.124 107.014C324.805 107.039 326.459 107.44 327.965 108.189C328.161 108.277 328.333 108.412 328.465 108.582C328.597 108.752 328.685 108.952 328.722 109.165C328.597 110.036 328.247 110.86 327.706 111.555C325.216 115.12 320.395 116.912 316.65 118.844C312.904 120.776 309.737 122.509 306.191 124.202C304.079 124.68 301.968 125.178 299.856 125.735C296.987 126.512 294.139 127.408 291.35 128.444C288.577 129.524 285.909 130.857 283.381 132.427C282.764 132.786 282.744 134.081 283.68 133.842C293.641 131.193 303.601 129.141 313.562 126.95C323.522 124.759 334.021 122.369 344.34 120.517C354.659 118.665 364.62 117.231 374.839 116.056C385.059 114.881 395.457 113.586 405.856 113.407C411.673 113.287 417.49 113.267 423.287 113.188C425.957 113.188 428.646 113.188 431.256 112.969C433.511 112.726 435.784 112.673 438.049 112.809C439.324 112.949 440.778 110.838 439.443 109.882Z" fill="#616061"/>
<defs>
<linearGradient id="paint0_linear_7012_873" x1="202.517" y1="215.677" x2="243.263" y2="207.109" gradientUnits="userSpaceOnUse">
<stop offset="0.22" stop-color="#FBBE82"/>
<stop offset="1" stop-color="#E59D5C"/>
</linearGradient>
<linearGradient id="paint1_linear_7012_873" x1="381.136" y1="268.965" x2="414.406" y2="178.214" gradientUnits="userSpaceOnUse">
<stop stop-color="#F71E38"/>
<stop offset="1" stop-color="#AA073A"/>
</linearGradient>
<linearGradient id="paint2_linear_7012_873" x1="406.639" y1="152.664" x2="457.426" y2="216.492" gradientUnits="userSpaceOnUse">
<stop stop-color="#F71E38"/>
<stop offset="1" stop-color="#AA073A"/>
</linearGradient>
<radialGradient id="paint3_radial_7012_873" cx="0" cy="0" r="1" gradientUnits="userSpaceOnUse" gradientTransform="translate(249.767 -12.0849) rotate(-6.90978) scale(374.954 383.245)">
<stop stop-color="#A1A1A1"/>
<stop offset="0.03" stop-color="#999999"/>
<stop offset="0.19" stop-color="#6E6E6E"/>
<stop offset="0.35" stop-color="#4A4A4A"/>
<stop offset="0.51" stop-color="#2E2E2E"/>
<stop offset="0.67" stop-color="#1B1B1B"/>
<stop offset="0.83" stop-color="#0F0F0F"/>
<stop offset="1" stop-color="#0B0B0B"/>
</radialGradient>
<clipPath id="clip0_7012_873">
<rect x="111" y="168" width="10" height="110" transform="rotate(90 111 168)" fill="white"/>
</clipPath>
<clipPath id="clip1_7012_873">
<rect width="10" height="120" fill="white" transform="matrix(0 -1 1 0 565.777 177.869)"/>
</clipPath>
<clipPath id="clip2_7012_873">
<rect width="320.472" height="204.774" fill="white" transform="translate(233.576 75.687) rotate(10)"/>
</clipPath>
</defs>
</svg>
