<svg width="719" height="337" viewBox="0 0 719 337" fill="none" xmlns="http://www.w3.org/2000/svg">
<path d="M223.485 131.228C223.876 131.618 223.876 132.252 223.485 132.642L217.121 139.006C216.731 139.397 216.098 139.397 215.707 139.006C215.317 138.616 215.317 137.982 215.707 137.592L221.364 131.935L215.707 126.278C215.317 125.888 215.317 125.254 215.707 124.864C216.098 124.473 216.731 124.473 217.121 124.864L223.485 131.228ZM0.292831 8.70711C-0.0976868 8.31658 -0.0976868 7.68342 0.292831 7.29289L6.6568 0.928932C7.04732 0.538408 7.68048 0.538408 8.07101 0.928932C8.46153 1.31946 8.46153 1.95262 8.07101 2.34315L2.41415 8L8.07101 13.6569C8.46153 14.0474 8.46153 14.6805 8.07101 15.0711C7.68048 15.4616 7.04732 15.4616 6.6568 15.0711L0.292831 8.70711ZM63.6506 24.7603L62.7596 25.2143L63.6506 24.7603ZM83.7566 128.589L83.3026 129.48L83.7566 128.589ZM70.3419 115.175L69.4509 115.629L70.3419 115.175ZM218.969 132.935C218.416 132.935 217.969 132.487 217.969 131.935C217.969 131.383 218.416 130.935 218.969 130.935V132.935ZM211.35 130.935C211.902 130.935 212.35 131.383 212.35 131.935C212.35 132.487 211.902 132.935 211.35 132.935V130.935ZM203.73 132.935C203.178 132.935 202.73 132.487 202.73 131.935C202.73 131.383 203.178 130.935 203.73 130.935V132.935ZM196.111 130.935C196.663 130.935 197.111 131.383 197.111 131.935C197.111 132.487 196.663 132.935 196.111 132.935V130.935ZM188.492 132.935C187.94 132.935 187.492 132.487 187.492 131.935C187.492 131.383 187.94 130.935 188.492 130.935V132.935ZM180.873 130.935C181.425 130.935 181.873 131.383 181.873 131.935C181.873 132.487 181.425 132.935 180.873 132.935V130.935ZM173.254 132.935C172.701 132.935 172.254 132.487 172.254 131.935C172.254 131.383 172.701 130.935 173.254 130.935V132.935ZM165.634 130.935C166.187 130.935 166.634 131.383 166.634 131.935C166.634 132.487 166.187 132.935 165.634 132.935V130.935ZM158.015 132.935C157.463 132.935 157.015 132.487 157.015 131.935C157.015 131.383 157.463 130.935 158.015 130.935V132.935ZM150.396 130.935C150.948 130.935 151.396 131.383 151.396 131.935C151.396 132.487 150.948 132.935 150.396 132.935V130.935ZM142.777 132.935C142.225 132.935 141.777 132.487 141.777 131.935C141.777 131.383 142.225 130.935 142.777 130.935V132.935ZM135.158 130.935C135.71 130.935 136.158 131.383 136.158 131.935C136.158 132.487 135.71 132.935 135.158 132.935V130.935ZM127.539 132.935C126.986 132.935 126.539 132.487 126.539 131.935C126.539 131.383 126.986 130.935 127.539 130.935V132.935ZM119.919 130.935C120.472 130.935 120.919 131.383 120.919 131.935C120.919 132.487 120.472 132.935 119.919 132.935V130.935ZM112.004 132.933C111.452 132.932 111.005 132.484 111.006 131.932C111.006 131.379 111.455 130.932 112.007 130.933L112.004 132.933ZM103.829 130.867C104.381 130.878 104.82 131.334 104.81 131.886C104.799 132.438 104.343 132.877 103.791 132.867L103.829 130.867ZM95.5371 132.486C94.9868 132.438 94.5792 131.954 94.6266 131.404C94.674 130.853 95.1585 130.446 95.7088 130.493L95.5371 132.486ZM87.847 129.139C88.3762 129.297 88.6771 129.854 88.5191 130.383C88.3611 130.912 87.804 131.213 87.2748 131.055L87.847 129.139ZM79.0618 126.882C78.615 126.557 78.5159 125.932 78.8406 125.485C79.1652 125.038 79.7906 124.939 80.2374 125.264L79.0618 126.882ZM73.6677 118.694C73.9923 119.141 73.8933 119.766 73.4465 120.091C72.9996 120.415 72.3743 120.316 72.0497 119.869L73.6677 118.694ZM67.8759 111.656C67.7179 111.127 68.0188 110.57 68.548 110.412C69.0772 110.254 69.6343 110.555 69.7923 111.084L67.8759 111.656ZM68.4381 103.222C68.4855 103.773 68.0779 104.257 67.5277 104.305C66.9774 104.352 66.4929 103.944 66.4455 103.394L68.4381 103.222ZM66.0647 95.1406C66.0541 94.5884 66.4931 94.1321 67.0453 94.1215C67.5975 94.1109 68.0537 94.5499 68.0643 95.1021L66.0647 95.1406ZM67.9982 86.9241C67.999 87.4764 67.5519 87.9248 66.9996 87.9256C66.4474 87.9264 65.999 87.4793 65.9982 86.927L67.9982 86.9241ZM65.9963 79.6079C65.9963 79.0557 66.444 78.6079 66.9963 78.6079C67.5486 78.6079 67.9963 79.0557 67.9963 79.6079H65.9963ZM67.9963 73.181C67.9963 73.7332 67.5486 74.181 66.9963 74.181C66.444 74.181 65.9963 73.7332 65.9963 73.181H67.9963ZM65.9963 66.754C65.9963 66.2017 66.444 65.754 66.9963 65.754C67.5486 65.754 67.9963 66.2017 67.9963 66.754H65.9963ZM67.9963 60.327C67.9963 60.8793 67.5486 61.327 66.9963 61.327C66.444 61.327 65.9963 60.8793 65.9963 60.327H67.9963ZM65.9944 53.0108C65.9936 52.4585 66.4406 52.0102 66.9929 52.0094C67.5452 52.0086 67.9936 52.4556 67.9944 53.0079L65.9944 53.0108ZM67.9279 44.7944C67.9385 45.3466 67.4995 45.8028 66.9473 45.8134C66.3951 45.8241 65.9388 45.385 65.9282 44.8329L67.9279 44.7944ZM65.5544 36.7125C65.507 36.1623 65.9146 35.6778 66.4649 35.6303C67.0151 35.5829 67.4996 35.9905 67.547 36.5408L65.5544 36.7125ZM66.1167 28.2785C66.2747 28.8077 65.9738 29.3648 65.4445 29.5228C64.9153 29.6808 64.3583 29.3799 64.2003 28.8507L66.1167 28.2785ZM60.3249 21.2411C60.0002 20.7943 60.0993 20.1689 60.5461 19.8443C60.9929 19.5197 61.6183 19.6187 61.9429 20.0655L60.3249 21.2411ZM54.9308 13.0534C55.3776 13.378 55.4766 14.0034 55.152 14.4502C54.8274 14.897 54.202 14.996 53.7552 14.6714L54.9308 13.0534ZM46.1456 10.796C45.6164 10.638 45.3154 10.0809 45.4734 9.55173C45.6315 9.02252 46.1885 8.7216 46.7177 8.8796L46.1456 10.796ZM38.4555 7.44925C39.0057 7.49666 39.4133 7.98116 39.3659 8.53141C39.3185 9.08165 38.834 9.48928 38.2838 9.44186L38.4555 7.44925ZM30.1634 9.06805C29.6112 9.05743 29.1722 8.60119 29.1828 8.049C29.1934 7.49682 29.6497 7.0578 30.2019 7.06842L30.1634 9.06805ZM21.9883 7.00191C22.5406 7.00271 22.9877 7.45108 22.9869 8.00337C22.9861 8.55565 22.5377 9.00271 21.9854 9.00191L21.9883 7.00191ZM13.662 9C13.1097 9 12.662 8.55228 12.662 8C12.662 7.44772 13.1097 7 13.662 7V9ZM5.22064 7C5.77292 7 6.22064 7.44772 6.22064 8C6.22064 8.55228 5.77292 9 5.22064 9V7ZM222.778 132.935H218.969V130.935H222.778V132.935ZM211.35 132.935H203.73V130.935H211.35V132.935ZM196.111 132.935H188.492V130.935H196.111V132.935ZM180.873 132.935H173.254V130.935H180.873V132.935ZM165.634 132.935H158.015V130.935H165.634V132.935ZM150.396 132.935H142.777V130.935H150.396V132.935ZM135.158 132.935H127.539V130.935H135.158V132.935ZM119.919 132.935H116.11V130.935H119.919V132.935ZM116.11 132.935C114.684 132.935 113.316 132.935 112.004 132.933L112.007 130.933C113.318 130.935 114.684 130.935 116.11 130.935V132.935ZM103.791 132.867C100.697 132.807 97.9725 132.696 95.5371 132.486L95.7088 130.493C98.0816 130.698 100.757 130.808 103.829 130.867L103.791 132.867ZM87.2748 131.055C85.861 130.633 84.5492 130.116 83.3026 129.48L84.2106 127.698C85.3412 128.274 86.5396 128.749 87.847 129.139L87.2748 131.055ZM83.3026 129.48C81.8161 128.723 80.399 127.853 79.0618 126.882L80.2374 125.264C81.4901 126.174 82.8179 126.989 84.2106 127.698L83.3026 129.48ZM72.0497 119.869C71.0781 118.532 70.2083 117.115 69.4509 115.629L71.2329 114.721C71.9426 116.113 72.7575 117.441 73.6677 118.694L72.0497 119.869ZM69.4509 115.629C68.8157 114.382 68.298 113.07 67.8759 111.656L69.7923 111.084C70.1826 112.392 70.6569 113.59 71.2329 114.721L69.4509 115.629ZM66.4455 103.394C66.2357 100.959 66.1242 98.2344 66.0647 95.1406L68.0643 95.1021C68.1234 98.1747 68.2337 100.85 68.4381 103.222L66.4455 103.394ZM65.9982 86.927C65.9963 85.6148 65.9963 84.2472 65.9963 82.8214H67.9963C67.9963 84.2475 67.9963 85.6136 67.9982 86.9241L65.9982 86.927ZM65.9963 82.8214V79.6079H67.9963V82.8214H65.9963ZM65.9963 73.181V66.754H67.9963V73.181H65.9963ZM65.9963 60.327V57.1135H67.9963V60.327H65.9963ZM65.9963 57.1135C65.9963 55.6874 65.9963 54.3214 65.9944 53.0108L67.9944 53.0079C67.9963 54.3202 67.9963 55.6877 67.9963 57.1135H65.9963ZM65.9282 44.8329C65.8691 41.7603 65.7589 39.0853 65.5544 36.7125L67.547 36.5408C67.7569 38.9762 67.8683 41.7006 67.9279 44.7944L65.9282 44.8329ZM64.2003 28.8507C63.8099 27.5433 63.3357 26.3449 62.7596 25.2143L64.5416 24.3063C65.1768 25.5529 65.6946 26.8648 66.1167 28.2785L64.2003 28.8507ZM62.7596 25.2143C62.05 23.8216 61.2351 22.4939 60.3249 21.2411L61.9429 20.0655C62.9144 21.4027 63.7842 22.8199 64.5416 24.3063L62.7596 25.2143ZM53.7552 14.6714C52.5024 13.7612 51.1747 12.9463 49.782 12.2367L50.69 10.4547C52.1764 11.212 53.5936 12.0819 54.9308 13.0534L53.7552 14.6714ZM49.782 12.2367C48.6514 11.6606 47.453 11.1863 46.1456 10.796L46.7177 8.8796C48.1315 9.3017 49.4433 9.81946 50.69 10.4547L49.782 12.2367ZM38.2838 9.44186C35.911 9.23738 33.2359 9.12715 30.1634 9.06805L30.2019 7.06842C33.2957 7.12793 36.0201 7.23937 38.4555 7.44925L38.2838 9.44186ZM21.9854 9.00191C20.6749 9 19.3088 9 17.8827 9V7C19.3085 7 20.6761 7 21.9883 7.00191L21.9854 9.00191ZM17.8827 9H13.662V7H17.8827V9ZM5.22064 9H0.999939V7H5.22064V9Z" fill="white"/>
<path d="M223.485 132.641C223.876 132.251 223.876 131.618 223.485 131.227L217.121 124.863C216.731 124.473 216.098 124.473 215.707 124.863C215.317 125.254 215.317 125.887 215.707 126.277L221.364 131.934L215.707 137.591C215.317 137.982 215.317 138.615 215.707 139.005C216.098 139.396 216.731 139.396 217.121 139.005L223.485 132.641ZM0.292831 255.162C-0.0976868 255.553 -0.0976868 256.186 0.292831 256.576L6.6568 262.94C7.04732 263.331 7.68048 263.331 8.07101 262.94C8.46153 262.55 8.46153 261.917 8.07101 261.526L2.41415 255.869L8.07101 250.212C8.46153 249.822 8.46153 249.189 8.07101 248.798C7.68048 248.408 7.04732 248.408 6.6568 248.798L0.292831 255.162ZM63.6506 239.109L62.7596 238.655L63.6506 239.109ZM83.7566 135.28L83.3026 134.389L83.7566 135.28ZM70.3419 148.694L69.4509 148.24L70.3419 148.694ZM218.969 130.934C218.416 130.934 217.969 131.382 217.969 131.934C217.969 132.486 218.416 132.934 218.969 132.934V130.934ZM211.35 132.934C211.902 132.934 212.35 132.486 212.35 131.934C212.35 131.382 211.902 130.934 211.35 130.934V132.934ZM203.73 130.934C203.178 130.934 202.73 131.382 202.73 131.934C202.73 132.486 203.178 132.934 203.73 132.934V130.934ZM196.111 132.934C196.663 132.934 197.111 132.486 197.111 131.934C197.111 131.382 196.663 130.934 196.111 130.934V132.934ZM188.492 130.934C187.94 130.934 187.492 131.382 187.492 131.934C187.492 132.486 187.94 132.934 188.492 132.934V130.934ZM180.873 132.934C181.425 132.934 181.873 132.486 181.873 131.934C181.873 131.382 181.425 130.934 180.873 130.934V132.934ZM173.254 130.934C172.701 130.934 172.254 131.382 172.254 131.934C172.254 132.486 172.701 132.934 173.254 132.934V130.934ZM165.634 132.934C166.187 132.934 166.634 132.486 166.634 131.934C166.634 131.382 166.187 130.934 165.634 130.934V132.934ZM158.015 130.934C157.463 130.934 157.015 131.382 157.015 131.934C157.015 132.486 157.463 132.934 158.015 132.934V130.934ZM150.396 132.934C150.948 132.934 151.396 132.486 151.396 131.934C151.396 131.382 150.948 130.934 150.396 130.934V132.934ZM142.777 130.934C142.225 130.934 141.777 131.382 141.777 131.934C141.777 132.486 142.225 132.934 142.777 132.934V130.934ZM135.158 132.934C135.71 132.934 136.158 132.486 136.158 131.934C136.158 131.382 135.71 130.934 135.158 130.934V132.934ZM127.539 130.934C126.986 130.934 126.539 131.382 126.539 131.934C126.539 132.486 126.986 132.934 127.539 132.934V130.934ZM119.919 132.934C120.472 132.934 120.919 132.486 120.919 131.934C120.919 131.382 120.472 130.934 119.919 130.934V132.934ZM112.004 130.936C111.452 130.937 111.005 131.385 111.006 131.938C111.006 132.49 111.455 132.937 112.007 132.936L112.004 130.936ZM103.829 133.002C104.381 132.992 104.82 132.535 104.81 131.983C104.799 131.431 104.343 130.992 103.791 131.003L103.829 133.002ZM95.5371 131.383C94.9868 131.431 94.5792 131.915 94.6266 132.466C94.674 133.016 95.1585 133.423 95.7088 133.376L95.5371 131.383ZM87.847 134.73C88.3762 134.572 88.6771 134.015 88.5191 133.486C88.3611 132.957 87.804 132.656 87.2748 132.814L87.847 134.73ZM79.0618 136.988C78.615 137.312 78.5159 137.938 78.8406 138.384C79.1652 138.831 79.7906 138.93 80.2374 138.606L79.0618 136.988ZM73.6677 145.175C73.9923 144.728 73.8933 144.103 73.4465 143.778C72.9996 143.454 72.3743 143.553 72.0497 144L73.6677 145.175ZM67.8759 152.213C67.7179 152.742 68.0188 153.299 68.548 153.457C69.0772 153.615 69.6343 153.314 69.7923 152.785L67.8759 152.213ZM68.4381 160.647C68.4855 160.096 68.0779 159.612 67.5277 159.565C66.9774 159.517 66.4929 159.925 66.4455 160.475L68.4381 160.647ZM66.0647 168.729C66.0541 169.281 66.4931 169.737 67.0453 169.748C67.5975 169.758 68.0537 169.319 68.0643 168.767L66.0647 168.729ZM67.9982 176.945C67.999 176.393 67.5519 175.944 66.9996 175.944C66.4474 175.943 65.999 176.39 65.9982 176.942L67.9982 176.945ZM65.9963 184.261C65.9963 184.813 66.444 185.261 66.9963 185.261C67.5486 185.261 67.9963 184.813 67.9963 184.261H65.9963ZM67.9963 190.688C67.9963 190.136 67.5486 189.688 66.9963 189.688C66.444 189.688 65.9963 190.136 65.9963 190.688H67.9963ZM65.9963 197.115C65.9963 197.667 66.444 198.115 66.9963 198.115C67.5486 198.115 67.9963 197.667 67.9963 197.115H65.9963ZM67.9963 203.542C67.9963 202.99 67.5486 202.542 66.9963 202.542C66.444 202.542 65.9963 202.99 65.9963 203.542H67.9963ZM65.9944 210.858C65.9936 211.411 66.4406 211.859 66.9929 211.86C67.5452 211.861 67.9936 211.414 67.9944 210.861L65.9944 210.858ZM67.9279 219.075C67.9385 218.523 67.4995 218.066 66.9473 218.056C66.3951 218.045 65.9388 218.484 65.9282 219.036L67.9279 219.075ZM65.5544 227.157C65.507 227.707 65.9146 228.191 66.4649 228.239C67.0151 228.286 67.4996 227.879 67.547 227.328L65.5544 227.157ZM66.1167 235.591C66.2747 235.061 65.9738 234.504 65.4445 234.346C64.9153 234.188 64.3583 234.489 64.2003 235.018L66.1167 235.591ZM60.3249 242.628C60.0002 243.075 60.0993 243.7 60.5461 244.025C60.9929 244.349 61.6183 244.25 61.9429 243.804L60.3249 242.628ZM54.9308 250.816C55.3776 250.491 55.4766 249.866 55.152 249.419C54.8274 248.972 54.202 248.873 53.7552 249.198L54.9308 250.816ZM46.1456 253.073C45.6164 253.231 45.3154 253.788 45.4734 254.317C45.6315 254.847 46.1885 255.148 46.7177 254.99L46.1456 253.073ZM38.4555 256.42C39.0057 256.372 39.4133 255.888 39.3659 255.338C39.3185 254.787 38.834 254.38 38.2838 254.427L38.4555 256.42ZM30.1634 254.801C29.6112 254.812 29.1722 255.268 29.1828 255.82C29.1934 256.372 29.6497 256.811 30.2019 256.801L30.1634 254.801ZM21.9883 256.867C22.5406 256.866 22.9877 256.418 22.9869 255.866C22.9861 255.313 22.5377 254.866 21.9854 254.867L21.9883 256.867ZM13.662 254.869C13.1097 254.869 12.662 255.317 12.662 255.869C12.662 256.421 13.1097 256.869 13.662 256.869V254.869ZM5.22064 256.869C5.77292 256.869 6.22064 256.421 6.22064 255.869C6.22064 255.317 5.77292 254.869 5.22064 254.869V256.869ZM222.778 130.934H218.969V132.934H222.778V130.934ZM211.35 130.934H203.73V132.934H211.35V130.934ZM196.111 130.934H188.492V132.934H196.111V130.934ZM180.873 130.934H173.254V132.934H180.873V130.934ZM165.634 130.934H158.015V132.934H165.634V130.934ZM150.396 130.934H142.777V132.934H150.396V130.934ZM135.158 130.934H127.539V132.934H135.158V130.934ZM119.919 130.934H116.11V132.934H119.919V130.934ZM116.11 130.934C114.684 130.934 113.316 130.934 112.004 130.936L112.007 132.936C113.318 132.934 114.684 132.934 116.11 132.934V130.934ZM103.791 131.003C100.697 131.062 97.9725 131.174 95.5371 131.383L95.7088 133.376C98.0816 133.172 100.757 133.061 103.829 133.002L103.791 131.003ZM87.2748 132.814C85.861 133.236 84.5492 133.754 83.3026 134.389L84.2106 136.171C85.3412 135.595 86.5396 135.121 87.847 134.73L87.2748 132.814ZM83.3026 134.389C81.8161 135.146 80.399 136.016 79.0618 136.988L80.2374 138.606C81.4901 137.695 82.8179 136.88 84.2106 136.171L83.3026 134.389ZM72.0497 144C71.0781 145.337 70.2083 146.754 69.4509 148.24L71.2329 149.148C71.9426 147.756 72.7575 146.428 73.6677 145.175L72.0497 144ZM69.4509 148.24C68.8157 149.487 68.298 150.799 67.8759 152.213L69.7923 152.785C70.1826 151.477 70.6569 150.279 71.2329 149.148L69.4509 148.24ZM66.4455 160.475C66.2357 162.91 66.1242 165.635 66.0647 168.729L68.0643 168.767C68.1234 165.694 68.2337 163.019 68.4381 160.647L66.4455 160.475ZM65.9982 176.942C65.9963 178.254 65.9963 179.622 65.9963 181.048H67.9963C67.9963 179.622 67.9963 178.256 67.9982 176.945L65.9982 176.942ZM65.9963 181.048V184.261H67.9963V181.048H65.9963ZM65.9963 190.688V197.115H67.9963V190.688H65.9963ZM65.9963 203.542V206.756H67.9963V203.542H65.9963ZM65.9963 206.756C65.9963 208.182 65.9963 209.548 65.9944 210.858L67.9944 210.861C67.9963 209.549 67.9963 208.181 67.9963 206.756H65.9963ZM65.9282 219.036C65.8691 222.109 65.7589 224.784 65.5544 227.157L67.547 227.328C67.7569 224.893 67.8683 222.169 67.9279 219.075L65.9282 219.036ZM64.2003 235.018C63.8099 236.326 63.3357 237.524 62.7596 238.655L64.5416 239.563C65.1768 238.316 65.6946 237.004 66.1167 235.591L64.2003 235.018ZM62.7596 238.655C62.05 240.048 61.2351 241.375 60.3249 242.628L61.9429 243.804C62.9144 242.466 63.7842 241.049 64.5416 239.563L62.7596 238.655ZM53.7552 249.198C52.5024 250.108 51.1747 250.923 49.782 251.632L50.69 253.414C52.1764 252.657 53.5936 251.787 54.9308 250.816L53.7552 249.198ZM49.782 251.632C48.6514 252.209 47.453 252.683 46.1456 253.073L46.7177 254.99C48.1315 254.567 49.4433 254.05 50.69 253.414L49.782 251.632ZM38.2838 254.427C35.911 254.632 33.2359 254.742 30.1634 254.801L30.2019 256.801C33.2957 256.741 36.0201 256.63 38.4555 256.42L38.2838 254.427ZM21.9854 254.867C20.6749 254.869 19.3088 254.869 17.8827 254.869V256.869C19.3085 256.869 20.6761 256.869 21.9883 256.867L21.9854 254.867ZM17.8827 254.869H13.662V256.869H17.8827V254.869ZM5.22064 254.869H0.999939V256.869H5.22064V254.869Z" fill="white"/>
<g clip-path="url(#clip0_5132_614)">
<path d="M110.883 132.103L107.145 132.164C107.095 132.164 107.048 132.147 107.013 132.116C106.977 132.086 106.958 132.044 106.958 132.001C106.958 131.958 106.977 131.916 107.013 131.886C107.048 131.855 107.095 131.838 107.145 131.838L110.883 131.899C110.914 131.899 110.944 131.91 110.966 131.929C110.988 131.948 111 131.974 111 132.001C111 132.028 110.988 132.054 110.966 132.073C110.944 132.092 110.914 132.103 110.883 132.103Z" fill="white"/>
<path d="M99.3875 132.28L91.6255 132.39C91.5559 132.408 91.4824 132.412 91.4111 132.4C91.3397 132.389 91.2723 132.363 91.2143 132.325C91.1562 132.287 91.1091 132.238 91.0767 132.182C91.0442 132.125 91.0273 132.063 91.0273 131.999C91.0273 131.936 91.0442 131.874 91.0767 131.817C91.1091 131.76 91.1562 131.711 91.2143 131.673C91.2723 131.635 91.3397 131.61 91.4111 131.598C91.4824 131.587 91.5559 131.59 91.6255 131.608L99.3875 131.738C99.473 131.738 99.555 131.768 99.6155 131.821C99.676 131.874 99.71 131.945 99.71 132.02C99.71 132.094 99.676 132.166 99.6155 132.218C99.555 132.271 99.473 132.301 99.3875 132.301V132.28Z" fill="white"/>
<path d="M83.8637 132.5L76.1017 132.59C75.922 132.59 75.7496 132.528 75.6225 132.417C75.4955 132.306 75.4241 132.156 75.4241 131.999C75.4241 131.842 75.4955 131.692 75.6225 131.581C75.7496 131.47 75.922 131.408 76.1017 131.408L83.8637 131.498C84.0161 131.498 84.1623 131.551 84.2701 131.645C84.3779 131.739 84.4385 131.866 84.4385 131.999C84.4385 132.132 84.3779 132.259 84.2701 132.353C84.1623 132.447 84.0161 132.5 83.8637 132.5Z" fill="white"/>
<path d="M68.3444 132.677L60.5824 132.762C60.4676 132.762 60.354 132.743 60.2479 132.704C60.1419 132.666 60.0456 132.61 59.9645 132.539C59.8833 132.468 59.8189 132.384 59.775 132.292C59.7311 132.199 59.7085 132.1 59.7085 132C59.7085 131.9 59.7311 131.801 59.775 131.709C59.8189 131.616 59.8833 131.532 59.9645 131.461C60.0456 131.391 60.1419 131.335 60.2479 131.296C60.354 131.258 60.4676 131.238 60.5824 131.238L68.3444 131.332C68.5501 131.332 68.7474 131.403 68.8929 131.53C69.0384 131.657 69.1201 131.829 69.1201 132.008C69.1201 132.188 69.0384 132.36 68.8929 132.487C68.7474 132.614 68.5501 132.685 68.3444 132.685V132.677Z" fill="white"/>
<path d="M52.8204 132.857L45.0631 132.967C44.9176 132.969 44.7731 132.946 44.6378 132.899C44.5025 132.853 44.379 132.784 44.2745 132.695C44.1699 132.607 44.0862 132.502 44.0283 132.386C43.9704 132.269 43.9393 132.144 43.9369 132.017C43.9344 131.89 43.9606 131.764 44.014 131.646C44.0674 131.528 44.1469 131.421 44.248 131.33C44.3491 131.238 44.4699 131.165 44.6033 131.115C44.7367 131.064 44.8803 131.037 45.0257 131.035H45.0631L52.8204 131.145C53.0807 131.145 53.3303 131.235 53.5143 131.396C53.6984 131.556 53.8018 131.774 53.8018 132.001C53.8018 132.228 53.6984 132.446 53.5143 132.606C53.3303 132.767 53.0807 132.857 52.8204 132.857Z" fill="white"/>
<path d="M37.3004 133.056C36.006 133.056 34.7115 133.056 33.4217 133.056C32.132 133.056 30.8328 133.056 29.5384 133.027C29.254 132.996 28.9925 132.875 28.8029 132.688C28.6134 132.5 28.5089 132.259 28.5089 132.009C28.5089 131.759 28.6134 131.517 28.8029 131.33C28.9925 131.142 29.254 131.021 29.5384 130.99C30.8328 130.99 32.1273 130.957 33.4217 130.961C34.7162 130.965 36.006 130.961 37.3004 130.961C37.6214 130.961 37.9293 131.072 38.1562 131.27C38.3832 131.468 38.5107 131.737 38.5107 132.017C38.5107 132.297 38.3832 132.565 38.1562 132.763C37.9293 132.961 37.6214 133.072 37.3004 133.072V133.056Z" fill="white"/>
<path d="M21.7808 132.905C19.1919 132.84 16.603 132.787 14.0188 132.693C13.8081 132.693 13.6061 132.62 13.4571 132.491C13.3081 132.361 13.2244 132.184 13.2244 132.001C13.2244 131.817 13.3081 131.641 13.4571 131.511C13.6061 131.381 13.8081 131.308 14.0188 131.308C16.603 131.214 19.1919 131.161 21.7808 131.096C21.9171 131.093 22.0527 131.113 22.18 131.156C22.3072 131.198 22.4237 131.262 22.5226 131.344C22.6216 131.425 22.7011 131.523 22.7566 131.632C22.8121 131.74 22.8426 131.857 22.8463 131.976C22.85 132.095 22.8268 132.213 22.7781 132.324C22.7293 132.435 22.656 132.537 22.5623 132.623C22.4685 132.709 22.3562 132.779 22.2318 132.827C22.1073 132.876 21.9732 132.902 21.8369 132.905H21.7808Z" fill="white"/>
<path d="M6.25704 132.392C5.00933 132.335 3.76628 132.265 2.51857 132.196C2.45948 132.192 2.40456 132.168 2.36535 132.129C2.32613 132.09 2.30566 132.04 2.30827 131.988C2.3116 131.941 2.33482 131.896 2.37356 131.862C2.4123 131.828 2.46388 131.808 2.51857 131.805C3.76628 131.732 5.00933 131.666 6.25704 131.609C6.35593 131.629 6.44468 131.677 6.50989 131.745C6.57511 131.812 6.61323 131.897 6.61851 131.985C6.62379 132.074 6.59594 132.161 6.53916 132.234C6.48237 132.308 6.39974 132.363 6.30376 132.392H6.25704Z" fill="white"/>
<path d="M7.16875 127L8.12207 127.896L3.05643 132L8.12207 136.104L7.16875 137L1.00027 132L7.16875 127Z" fill="white"/>
</g>
<path d="M495.515 136.772C495.124 136.382 495.124 135.748 495.515 135.358L501.879 128.994C502.269 128.603 502.902 128.603 503.293 128.994C503.683 129.384 503.683 130.018 503.293 130.408L497.636 136.065L503.293 141.722C503.683 142.112 503.683 142.746 503.293 143.136C502.902 143.527 502.269 143.527 501.879 143.136L495.515 136.772ZM718.707 259.293C719.098 259.683 719.098 260.317 718.707 260.707L712.343 267.071C711.953 267.462 711.32 267.462 710.929 267.071C710.538 266.681 710.538 266.047 710.929 265.657L716.586 260L710.929 254.343C710.538 253.953 710.538 253.319 710.929 252.929C711.32 252.538 711.953 252.538 712.343 252.929L718.707 259.293ZM655.349 243.24L656.24 242.786L655.349 243.24ZM635.243 139.411L635.697 138.52L635.243 139.411ZM648.658 152.825L649.549 152.371L648.658 152.825ZM500.031 135.065C500.584 135.065 501.031 135.513 501.031 136.065C501.031 136.617 500.584 137.065 500.031 137.065V135.065ZM507.65 137.065C507.098 137.065 506.65 136.617 506.65 136.065C506.65 135.513 507.098 135.065 507.65 135.065V137.065ZM515.27 135.065C515.822 135.065 516.27 135.513 516.27 136.065C516.27 136.617 515.822 137.065 515.27 137.065V135.065ZM522.889 137.065C522.337 137.065 521.889 136.617 521.889 136.065C521.889 135.513 522.337 135.065 522.889 135.065V137.065ZM530.508 135.065C531.06 135.065 531.508 135.513 531.508 136.065C531.508 136.617 531.06 137.065 530.508 137.065V135.065ZM538.127 137.065C537.575 137.065 537.127 136.617 537.127 136.065C537.127 135.513 537.575 135.065 538.127 135.065V137.065ZM545.746 135.065C546.299 135.065 546.746 135.513 546.746 136.065C546.746 136.617 546.299 137.065 545.746 137.065V135.065ZM553.366 137.065C552.813 137.065 552.366 136.617 552.366 136.065C552.366 135.513 552.813 135.065 553.366 135.065V137.065ZM560.985 135.065C561.537 135.065 561.985 135.513 561.985 136.065C561.985 136.617 561.537 137.065 560.985 137.065V135.065ZM568.604 137.065C568.052 137.065 567.604 136.617 567.604 136.065C567.604 135.513 568.052 135.065 568.604 135.065V137.065ZM576.223 135.065C576.775 135.065 577.223 135.513 577.223 136.065C577.223 136.617 576.775 137.065 576.223 137.065V135.065ZM583.842 137.065C583.29 137.065 582.842 136.617 582.842 136.065C582.842 135.513 583.29 135.065 583.842 135.065V137.065ZM591.461 135.065C592.014 135.065 592.461 135.513 592.461 136.065C592.461 136.617 592.014 137.065 591.461 137.065V135.065ZM599.081 137.065C598.528 137.065 598.081 136.617 598.081 136.065C598.081 135.513 598.528 135.065 599.081 135.065V137.065ZM606.996 135.067C607.548 135.068 607.995 135.516 607.994 136.068C607.994 136.621 607.545 137.068 606.993 137.067L606.996 135.067ZM615.171 137.133C614.619 137.122 614.18 136.666 614.19 136.114C614.201 135.562 614.657 135.123 615.209 135.133L615.171 137.133ZM623.463 135.514C624.013 135.562 624.421 136.046 624.373 136.596C624.326 137.147 623.841 137.554 623.291 137.507L623.463 135.514ZM631.153 138.861C630.624 138.703 630.323 138.146 630.481 137.617C630.639 137.088 631.196 136.787 631.725 136.945L631.153 138.861ZM639.938 141.118C640.385 141.443 640.484 142.068 640.159 142.515C639.835 142.962 639.209 143.061 638.763 142.736L639.938 141.118ZM645.332 149.306C645.008 148.859 645.107 148.234 645.554 147.909C646 147.585 646.626 147.684 646.95 148.131L645.332 149.306ZM651.124 156.344C651.282 156.873 650.981 157.43 650.452 157.588C649.923 157.746 649.366 157.445 649.208 156.916L651.124 156.344ZM650.562 164.778C650.514 164.227 650.922 163.743 651.472 163.695C652.023 163.648 652.507 164.056 652.554 164.606L650.562 164.778ZM652.935 172.859C652.946 173.412 652.507 173.868 651.955 173.878C651.403 173.889 650.946 173.45 650.936 172.898L652.935 172.859ZM651.002 181.076C651.001 180.524 651.448 180.075 652 180.074C652.553 180.074 653.001 180.521 653.002 181.073L651.002 181.076ZM653.004 188.392C653.004 188.944 652.556 189.392 652.004 189.392C651.451 189.392 651.004 188.944 651.004 188.392H653.004ZM651.004 194.819C651.004 194.267 651.451 193.819 652.004 193.819C652.556 193.819 653.004 194.267 653.004 194.819H651.004ZM653.004 201.246C653.004 201.798 652.556 202.246 652.004 202.246C651.451 202.246 651.004 201.798 651.004 201.246H653.004ZM651.004 207.673C651.004 207.121 651.451 206.673 652.004 206.673C652.556 206.673 653.004 207.121 653.004 207.673H651.004ZM653.006 214.989C653.006 215.541 652.559 215.99 652.007 215.991C651.455 215.991 651.006 215.544 651.006 214.992L653.006 214.989ZM651.072 223.206C651.062 222.653 651.501 222.197 652.053 222.187C652.605 222.176 653.061 222.615 653.072 223.167L651.072 223.206ZM653.446 231.287C653.493 231.838 653.085 232.322 652.535 232.37C651.985 232.417 651.5 232.009 651.453 231.459L653.446 231.287ZM652.883 239.721C652.725 239.192 653.026 238.635 653.555 238.477C654.085 238.319 654.642 238.62 654.8 239.149L652.883 239.721ZM658.675 246.759C659 247.206 658.901 247.831 658.454 248.156C658.007 248.48 657.382 248.381 657.057 247.934L658.675 246.759ZM664.069 254.947C663.622 254.622 663.523 253.997 663.848 253.55C664.173 253.103 664.798 253.004 665.245 253.329L664.069 254.947ZM672.854 257.204C673.384 257.362 673.685 257.919 673.527 258.448C673.369 258.977 672.811 259.278 672.282 259.12L672.854 257.204ZM680.545 260.551C679.994 260.503 679.587 260.019 679.634 259.469C679.681 258.918 680.166 258.511 680.716 258.558L680.545 260.551ZM688.837 258.932C689.389 258.943 689.828 259.399 689.817 259.951C689.807 260.503 689.35 260.942 688.798 260.932L688.837 258.932ZM697.012 260.998C696.459 260.997 696.012 260.549 696.013 259.997C696.014 259.444 696.462 258.997 697.015 258.998L697.012 260.998ZM705.338 259C705.89 259 706.338 259.448 706.338 260C706.338 260.552 705.89 261 705.338 261V259ZM713.779 261C713.227 261 712.779 260.552 712.779 260C712.779 259.448 713.227 259 713.779 259V261ZM496.222 135.065H500.031V137.065H496.222V135.065ZM507.65 135.065H515.27V137.065H507.65V135.065ZM522.889 135.065H530.508V137.065H522.889V135.065ZM538.127 135.065H545.746V137.065H538.127V135.065ZM553.366 135.065H560.985V137.065H553.366V135.065ZM568.604 135.065H576.223V137.065H568.604V135.065ZM583.842 135.065H591.461V137.065H583.842V135.065ZM599.081 135.065H602.89V137.065H599.081V135.065ZM602.89 135.065C604.316 135.065 605.684 135.065 606.996 135.067L606.993 137.067C605.682 137.065 604.316 137.065 602.89 137.065V135.065ZM615.209 135.133C618.303 135.193 621.028 135.304 623.463 135.514L623.291 137.507C620.918 137.302 618.243 137.192 615.171 137.133L615.209 135.133ZM631.725 136.945C633.139 137.367 634.451 137.884 635.697 138.52L634.789 140.302C633.659 139.726 632.46 139.251 631.153 138.861L631.725 136.945ZM635.697 138.52C637.184 139.277 638.601 140.147 639.938 141.118L638.763 142.736C637.51 141.826 636.182 141.011 634.789 140.302L635.697 138.52ZM646.95 148.131C647.922 149.468 648.792 150.885 649.549 152.371L647.767 153.279C647.057 151.887 646.243 150.559 645.332 149.306L646.95 148.131ZM649.549 152.371C650.184 153.618 650.702 154.93 651.124 156.344L649.208 156.916C648.817 155.608 648.343 154.41 647.767 153.279L649.549 152.371ZM652.554 164.606C652.764 167.041 652.876 169.766 652.935 172.859L650.936 172.898C650.877 169.825 650.766 167.15 650.562 164.778L652.554 164.606ZM653.002 181.073C653.004 182.385 653.004 183.753 653.004 185.179H651.004C651.004 183.752 651.004 182.386 651.002 181.076L653.002 181.073ZM653.004 185.179V188.392H651.004V185.179H653.004ZM653.004 194.819V201.246H651.004V194.819H653.004ZM653.004 207.673V210.886H651.004V207.673H653.004ZM653.004 210.886C653.004 212.313 653.004 213.679 653.006 214.989L651.006 214.992C651.004 213.68 651.004 212.312 651.004 210.886H653.004ZM653.072 223.167C653.131 226.24 653.241 228.915 653.446 231.287L651.453 231.459C651.243 229.024 651.132 226.299 651.072 223.206L653.072 223.167ZM654.8 239.149C655.19 240.457 655.664 241.655 656.24 242.786L654.458 243.694C653.823 242.447 653.305 241.135 652.883 239.721L654.8 239.149ZM656.24 242.786C656.95 244.178 657.765 245.506 658.675 246.759L657.057 247.934C656.086 246.597 655.216 245.18 654.458 243.694L656.24 242.786ZM665.245 253.329C666.498 254.239 667.825 255.054 669.218 255.763L668.31 257.545C666.824 256.788 665.406 255.918 664.069 254.947L665.245 253.329ZM669.218 255.763C670.349 256.339 671.547 256.814 672.854 257.204L672.282 259.12C670.868 258.698 669.557 258.181 668.31 257.545L669.218 255.763ZM680.716 258.558C683.089 258.763 685.764 258.873 688.837 258.932L688.798 260.932C685.704 260.872 682.98 260.761 680.545 260.551L680.716 258.558ZM697.015 258.998C698.325 259 699.691 259 701.117 259V261C699.691 261 698.324 261 697.012 260.998L697.015 258.998ZM701.117 259H705.338V261H701.117V259ZM713.779 259H718V261H713.779V259Z" fill="white"/>
<path d="M495.515 135.359C495.124 135.749 495.124 136.382 495.515 136.773L501.879 143.137C502.269 143.527 502.902 143.527 503.293 143.137C503.683 142.746 503.683 142.113 503.293 141.723L497.636 136.066L503.293 130.409C503.683 130.018 503.683 129.385 503.293 128.995C502.902 128.604 502.269 128.604 501.879 128.995L495.515 135.359ZM718.707 12.838C719.098 12.4474 719.098 11.8143 718.707 11.4238L712.343 5.05979C711.953 4.66927 711.32 4.66927 710.929 5.05979C710.538 5.45032 710.538 6.08348 710.929 6.47401L716.586 12.1309L710.929 17.7877C710.538 18.1782 710.538 18.8114 710.929 19.2019C711.32 19.5925 711.953 19.5925 712.343 19.2019L718.707 12.838ZM655.349 28.8911L656.24 29.3451L655.349 28.8911ZM635.243 132.72L635.697 133.611L635.243 132.72ZM648.658 119.306L649.549 119.76L648.658 119.306ZM500.031 137.066C500.584 137.066 501.031 136.618 501.031 136.066C501.031 135.514 500.584 135.066 500.031 135.066V137.066ZM507.65 135.066C507.098 135.066 506.65 135.514 506.65 136.066C506.65 136.618 507.098 137.066 507.65 137.066V135.066ZM515.27 137.066C515.822 137.066 516.27 136.618 516.27 136.066C516.27 135.514 515.822 135.066 515.27 135.066V137.066ZM522.889 135.066C522.337 135.066 521.889 135.514 521.889 136.066C521.889 136.618 522.337 137.066 522.889 137.066V135.066ZM530.508 137.066C531.06 137.066 531.508 136.618 531.508 136.066C531.508 135.514 531.06 135.066 530.508 135.066V137.066ZM538.127 135.066C537.575 135.066 537.127 135.514 537.127 136.066C537.127 136.618 537.575 137.066 538.127 137.066V135.066ZM545.746 137.066C546.299 137.066 546.746 136.618 546.746 136.066C546.746 135.514 546.299 135.066 545.746 135.066V137.066ZM553.366 135.066C552.813 135.066 552.366 135.514 552.366 136.066C552.366 136.618 552.813 137.066 553.366 137.066V135.066ZM560.985 137.066C561.537 137.066 561.985 136.618 561.985 136.066C561.985 135.514 561.537 135.066 560.985 135.066V137.066ZM568.604 135.066C568.052 135.066 567.604 135.514 567.604 136.066C567.604 136.618 568.052 137.066 568.604 137.066V135.066ZM576.223 137.066C576.775 137.066 577.223 136.618 577.223 136.066C577.223 135.514 576.775 135.066 576.223 135.066V137.066ZM583.842 135.066C583.29 135.066 582.842 135.514 582.842 136.066C582.842 136.618 583.29 137.066 583.842 137.066V135.066ZM591.461 137.066C592.014 137.066 592.461 136.618 592.461 136.066C592.461 135.514 592.014 135.066 591.461 135.066V137.066ZM599.081 135.066C598.528 135.066 598.081 135.514 598.081 136.066C598.081 136.618 598.528 137.066 599.081 137.066V135.066ZM606.996 137.064C607.548 137.063 607.995 136.615 607.994 136.062C607.994 135.51 607.545 135.063 606.993 135.064L606.996 137.064ZM615.171 134.998C614.619 135.008 614.18 135.465 614.19 136.017C614.201 136.569 614.657 137.008 615.209 136.997L615.171 134.998ZM623.463 136.617C624.013 136.569 624.421 136.085 624.373 135.534C624.326 134.984 623.841 134.577 623.291 134.624L623.463 136.617ZM631.153 133.27C630.624 133.428 630.323 133.985 630.481 134.514C630.639 135.043 631.196 135.344 631.725 135.186L631.153 133.27ZM639.938 131.012C640.385 130.688 640.484 130.062 640.159 129.616C639.835 129.169 639.209 129.07 638.763 129.394L639.938 131.012ZM645.332 122.825C645.008 123.272 645.107 123.897 645.554 124.222C646 124.546 646.626 124.447 646.95 124L645.332 122.825ZM651.124 115.787C651.282 115.258 650.981 114.701 650.452 114.543C649.923 114.385 649.366 114.686 649.208 115.215L651.124 115.787ZM650.562 107.353C650.514 107.904 650.922 108.388 651.472 108.435C652.023 108.483 652.507 108.075 652.554 107.525L650.562 107.353ZM652.935 99.2714C652.946 98.7192 652.507 98.263 651.955 98.2524C651.403 98.2418 650.946 98.6808 650.936 99.233L652.935 99.2714ZM651.002 91.055C651.001 91.6073 651.448 92.0556 652 92.0565C652.553 92.0573 653.001 91.6102 653.002 91.0579L651.002 91.055ZM653.004 83.7388C653.004 83.1865 652.556 82.7388 652.004 82.7388C651.451 82.7388 651.004 83.1865 651.004 83.7388H653.004ZM651.004 77.3118C651.004 77.8641 651.451 78.3118 652.004 78.3118C652.556 78.3118 653.004 77.8641 653.004 77.3118H651.004ZM653.004 70.8848C653.004 70.3326 652.556 69.8848 652.004 69.8848C651.451 69.8848 651.004 70.3326 651.004 70.8848H653.004ZM651.004 64.4579C651.004 65.0102 651.451 65.4579 652.004 65.4579C652.556 65.4579 653.004 65.0102 653.004 64.4579H651.004ZM653.006 57.1417C653.006 56.5894 652.559 56.141 652.007 56.1402C651.455 56.1394 651.006 56.5865 651.006 57.1388L653.006 57.1417ZM651.072 48.9253C651.062 49.4774 651.501 49.9337 652.053 49.9443C652.605 49.9549 653.061 49.5159 653.072 48.9637L651.072 48.9253ZM653.446 40.8434C653.493 40.2931 653.085 39.8086 652.535 39.7612C651.985 39.7138 651.5 40.1214 651.453 40.6716L653.446 40.8434ZM652.883 32.4094C652.725 32.9386 653.026 33.4957 653.555 33.6537C654.085 33.8117 654.642 33.5108 654.8 32.9816L652.883 32.4094ZM658.675 25.372C659 24.9252 658.901 24.2998 658.454 23.9752C658.007 23.6505 657.382 23.7496 657.057 24.1964L658.675 25.372ZM664.069 17.1842C663.622 17.5089 663.523 18.1342 663.848 18.581C664.173 19.0278 664.798 19.1269 665.245 18.8023L664.069 17.1842ZM672.854 14.9269C673.384 14.7689 673.685 14.2118 673.527 13.6826C673.369 13.1534 672.811 12.8525 672.282 13.0105L672.854 14.9269ZM680.545 11.5801C679.994 11.6275 679.587 12.112 679.634 12.6623C679.681 13.2125 680.166 13.6201 680.716 13.5727L680.545 11.5801ZM688.837 13.1989C689.389 13.1883 689.828 12.732 689.817 12.1799C689.807 11.6277 689.35 11.1887 688.798 11.1993L688.837 13.1989ZM697.012 11.1328C696.459 11.1336 696.012 11.5819 696.013 12.1342C696.014 12.6865 696.462 13.1336 697.015 13.1328L697.012 11.1328ZM705.338 13.1309C705.89 13.1309 706.338 12.6831 706.338 12.1309C706.338 11.5786 705.89 11.1309 705.338 11.1309V13.1309ZM713.779 11.1309C713.227 11.1309 712.779 11.5786 712.779 12.1309C712.779 12.6831 713.227 13.1309 713.779 13.1309V11.1309ZM496.222 137.066H500.031V135.066H496.222V137.066ZM507.65 137.066H515.27V135.066H507.65V137.066ZM522.889 137.066H530.508V135.066H522.889V137.066ZM538.127 137.066H545.746V135.066H538.127V137.066ZM553.366 137.066H560.985V135.066H553.366V137.066ZM568.604 137.066H576.223V135.066H568.604V137.066ZM583.842 137.066H591.461V135.066H583.842V137.066ZM599.081 137.066H602.89V135.066H599.081V137.066ZM602.89 137.066C604.316 137.066 605.684 137.066 606.996 137.064L606.993 135.064C605.682 135.066 604.316 135.066 602.89 135.066V137.066ZM615.209 136.997C618.303 136.938 621.028 136.826 623.463 136.617L623.291 134.624C620.918 134.828 618.243 134.939 615.171 134.998L615.209 136.997ZM631.725 135.186C633.139 134.764 634.451 134.246 635.697 133.611L634.789 131.829C633.659 132.405 632.46 132.879 631.153 133.27L631.725 135.186ZM635.697 133.611C637.184 132.854 638.601 131.984 639.938 131.012L638.763 129.394C637.51 130.305 636.182 131.12 634.789 131.829L635.697 133.611ZM646.95 124C647.922 122.663 648.792 121.246 649.549 119.76L647.767 118.852C647.057 120.244 646.243 121.572 645.332 122.825L646.95 124ZM649.549 119.76C650.184 118.513 650.702 117.201 651.124 115.787L649.208 115.215C648.817 116.523 648.343 117.721 647.767 118.852L649.549 119.76ZM652.554 107.525C652.764 105.09 652.876 102.365 652.935 99.2714L650.936 99.233C650.877 102.306 650.766 104.981 650.562 107.353L652.554 107.525ZM653.002 91.0579C653.004 89.7456 653.004 88.3781 653.004 86.9523H651.004C651.004 88.3784 651.004 89.7444 651.002 91.055L653.002 91.0579ZM653.004 86.9523V83.7388H651.004V86.9523H653.004ZM653.004 77.3118V70.8848H651.004V77.3118H653.004ZM653.004 64.4579V61.2444H651.004V64.4579H653.004ZM653.004 61.2444C653.004 59.8183 653.004 58.4522 653.006 57.1417L651.006 57.1388C651.004 58.451 651.004 59.8186 651.004 61.2444H653.004ZM653.072 48.9637C653.131 45.8912 653.241 43.2162 653.446 40.8434L651.453 40.6716C651.243 43.1071 651.132 45.8314 651.072 48.9253L653.072 48.9637ZM654.8 32.9816C655.19 31.6742 655.664 30.4758 656.24 29.3451L654.458 28.4372C653.823 29.6838 653.305 30.9956 652.883 32.4094L654.8 32.9816ZM656.24 29.3451C656.95 27.9525 657.765 26.6247 658.675 25.372L657.057 24.1964C656.086 25.5335 655.216 26.9507 654.458 28.4372L656.24 29.3451ZM665.245 18.8023C666.498 17.8921 667.825 17.0771 669.218 16.3675L668.31 14.5855C666.824 15.3429 665.406 16.2127 664.069 17.1842L665.245 18.8023ZM669.218 16.3675C670.349 15.7915 671.547 15.3172 672.854 14.9269L672.282 13.0105C670.868 13.4326 669.557 13.9503 668.31 14.5855L669.218 16.3675ZM680.716 13.5727C683.089 13.3682 685.764 13.258 688.837 13.1989L688.798 11.1993C685.704 11.2588 682.98 11.3702 680.545 11.5801L680.716 13.5727ZM697.015 13.1328C698.325 13.1309 699.691 13.1309 701.117 13.1309V11.1309C699.691 11.1309 698.324 11.1309 697.012 11.1328L697.015 13.1328ZM701.117 13.1309H705.338V11.1309H701.117V13.1309ZM713.779 13.1309H718V11.1309H713.779V13.1309Z" fill="white"/>
<g clip-path="url(#clip1_5132_614)">
<path d="M598.127 135.897L602.206 135.836C602.26 135.836 602.312 135.853 602.35 135.884C602.388 135.914 602.41 135.956 602.41 135.999C602.41 136.042 602.388 136.084 602.35 136.114C602.312 136.145 602.26 136.162 602.206 136.162L598.127 136.101C598.094 136.101 598.061 136.09 598.037 136.071C598.013 136.052 598 136.026 598 135.999C598 135.972 598.013 135.946 598.037 135.927C598.061 135.908 598.094 135.897 598.127 135.897Z" fill="white"/>
<path d="M610.668 135.72L619.136 135.61C619.212 135.592 619.292 135.588 619.37 135.6C619.448 135.611 619.521 135.637 619.584 135.675C619.648 135.713 619.699 135.762 619.735 135.818C619.77 135.875 619.788 135.937 619.788 136.001C619.788 136.064 619.77 136.126 619.735 136.183C619.699 136.24 619.648 136.289 619.584 136.327C619.521 136.365 619.448 136.39 619.37 136.402C619.292 136.413 619.212 136.41 619.136 136.392L610.668 136.262C610.575 136.262 610.485 136.232 610.419 136.179C610.353 136.126 610.316 136.055 610.316 135.98C610.316 135.906 610.353 135.834 610.419 135.782C610.485 135.729 610.575 135.699 610.668 135.699V135.72Z" fill="white"/>
<path d="M627.604 135.5L636.071 135.41C636.267 135.41 636.455 135.472 636.594 135.583C636.733 135.694 636.81 135.844 636.81 136.001C636.81 136.158 636.733 136.308 636.594 136.419C636.455 136.53 636.267 136.592 636.071 136.592L627.604 136.502C627.437 136.502 627.278 136.449 627.16 136.355C627.043 136.261 626.977 136.134 626.977 136.001C626.977 135.868 627.043 135.741 627.16 135.647C627.278 135.553 627.437 135.5 627.604 135.5Z" fill="white"/>
<path d="M644.534 135.323L653.001 135.238C653.127 135.238 653.251 135.257 653.366 135.296C653.482 135.334 653.587 135.39 653.675 135.461C653.764 135.532 653.834 135.616 653.882 135.708C653.93 135.801 653.955 135.9 653.955 136C653.955 136.1 653.93 136.199 653.882 136.291C653.834 136.384 653.764 136.468 653.675 136.539C653.587 136.609 653.482 136.665 653.366 136.704C653.251 136.742 653.127 136.762 653.001 136.762L644.534 136.668C644.309 136.668 644.094 136.597 643.935 136.47C643.777 136.343 643.687 136.171 643.688 135.992C643.687 135.812 643.777 135.64 643.935 135.513C644.094 135.386 644.309 135.315 644.534 135.315V135.323Z" fill="white"/>
<path d="M661.469 135.143L669.932 135.033C670.09 135.031 670.248 135.054 670.395 135.101C670.543 135.147 670.678 135.216 670.792 135.305C670.906 135.393 670.997 135.498 671.06 135.614C671.124 135.731 671.157 135.856 671.16 135.983C671.163 136.11 671.134 136.236 671.076 136.354C671.018 136.472 670.931 136.579 670.821 136.67C670.71 136.762 670.579 136.835 670.433 136.885C670.288 136.936 670.131 136.963 669.972 136.965H669.932L661.469 136.855C661.185 136.855 660.913 136.765 660.712 136.604C660.511 136.444 660.398 136.226 660.398 135.999C660.398 135.772 660.511 135.554 660.712 135.394C660.913 135.233 661.185 135.143 661.469 135.143Z" fill="white"/>
<path d="M678.399 134.944C679.812 134.944 681.224 134.944 682.631 134.944C684.038 134.944 685.455 134.944 686.867 134.973C687.177 135.004 687.463 135.125 687.669 135.312C687.876 135.5 687.99 135.741 687.99 135.991C687.99 136.241 687.876 136.483 687.669 136.67C687.463 136.858 687.177 136.979 686.867 137.01C685.455 137.01 684.043 137.043 682.631 137.039C681.219 137.035 679.812 137.039 678.399 137.039C678.049 137.039 677.713 136.928 677.466 136.73C677.218 136.532 677.079 136.263 677.079 135.983C677.079 135.703 677.218 135.435 677.466 135.237C677.713 135.039 678.049 134.928 678.399 134.928V134.944Z" fill="white"/>
<path d="M695.33 135.095C698.154 135.16 700.978 135.213 703.797 135.307C704.027 135.307 704.248 135.38 704.41 135.509C704.573 135.639 704.664 135.816 704.664 135.999C704.664 136.183 704.573 136.359 704.41 136.489C704.248 136.619 704.027 136.692 703.797 136.692C700.978 136.786 698.154 136.839 695.33 136.904C695.181 136.907 695.033 136.887 694.894 136.844C694.755 136.802 694.628 136.738 694.521 136.656C694.413 136.575 694.326 136.477 694.265 136.368C694.205 136.26 694.171 136.143 694.167 136.024C694.163 135.905 694.189 135.787 694.242 135.676C694.295 135.565 694.375 135.463 694.477 135.377C694.58 135.291 694.702 135.221 694.838 135.173C694.974 135.124 695.12 135.098 695.269 135.095H695.33Z" fill="white"/>
<path d="M712.265 135.608C713.626 135.665 714.982 135.735 716.343 135.804C716.408 135.808 716.468 135.832 716.511 135.871C716.553 135.91 716.576 135.96 716.573 136.012C716.569 136.059 716.544 136.104 716.502 136.138C716.459 136.172 716.403 136.192 716.343 136.195C714.982 136.268 713.626 136.334 712.265 136.391C712.157 136.371 712.06 136.323 711.989 136.255C711.918 136.188 711.877 136.103 711.871 136.015C711.865 135.926 711.895 135.839 711.957 135.766C712.019 135.692 712.109 135.637 712.214 135.608H712.265Z" fill="white"/>
<path d="M711.27 141L710.23 140.104L715.757 136L710.23 131.896L711.27 131L718 136L711.27 141Z" fill="white"/>
</g>
<path d="M369.354 87.8086C369.354 87.8086 225.278 128.106 202.377 156.526C190.518 171.222 203.213 237.452 193.609 276.233" stroke="#263238" stroke-width="3" stroke-miterlimit="10"/>
<path d="M191.996 272.111C185.129 274.935 179.056 279.392 174.305 285.097C166.684 294.428 157.741 320.087 157.741 320.087" stroke="#263238" stroke-width="3" stroke-miterlimit="10"/>
<path d="M195.106 274.23C195.106 274.23 202.008 286.108 204.399 294.875C206.79 303.642 197.867 333.403 197.867 333.403" stroke="#263238" stroke-width="3" stroke-miterlimit="10"/>
<path d="M193.376 272.869C193.376 272.869 178.718 292.036 176.094 299.268C173.469 306.499 164.312 332.742 164.312 332.742" stroke="#263238" stroke-width="3" stroke-miterlimit="10"/>
<path d="M194.445 273.492C194.445 273.492 193.94 302.651 191.471 309.299C189.002 315.947 184.569 336.514 184.569 336.514" stroke="#263238" stroke-width="3" stroke-miterlimit="10"/>
<path d="M396.785 155.029L593 33.4175L353.646 16L171.428 163.155L396.785 155.029Z" fill="#AF0404"/>
<path opacity="0.2" d="M396.785 155.029L593 33.4175L353.646 16L171.428 163.155L396.785 155.029Z" fill="#AF0404"/>
<path d="M512.418 140.12L499.879 73.5985C499.879 73.5985 425.343 63.7817 374.719 79.4303C324.095 95.0788 270.128 139.361 270.128 139.361L295.77 207.399C295.77 207.399 359.128 172.175 400.264 160.336C441.401 148.498 512.418 140.12 512.418 140.12Z" fill="#FFC727"/>
<path d="M512.398 140.12H512.185C507.849 140.645 440.079 148.751 400.264 160.221C359.789 171.884 297.734 206.175 295.829 207.263L270.108 139.362C270.108 139.362 324.076 95.1964 374.719 79.4895C425.362 63.7826 499.879 73.6577 499.879 73.6577L512.398 140.12Z" fill="#BF0413"/>
<path opacity="0.1" d="M511.076 136.173H510.862C506.508 136.698 438.737 144.824 398.942 156.293C358.447 167.957 296.412 202.247 294.487 203.336L268.806 135.474C268.806 135.474 322.773 91.3077 373.416 75.6008C424.059 59.8939 498.576 69.769 498.576 69.769L511.076 136.173Z" fill="#BD242A"/>
<path d="M380.513 79.6055H380.765C380.688 79.6638 380.59 79.6832 380.513 79.6055Z" fill="#263238"/>
<path d="M493.599 142.511C488.37 143.25 482.304 144.124 475.733 145.135C474.859 145.252 474.003 145.388 473.109 145.543C471.301 145.796 469.454 146.088 467.588 146.399C464.613 146.574 461.619 146.885 458.606 147.254C459.967 147.254 461.308 147.254 462.669 147.254C444.531 150.209 424.332 153.999 407.613 158.315C404.308 158.918 401.023 159.52 397.737 160.259L396.085 153.533C408.41 149.898 420.736 146.671 433.275 144.008C431.972 144.008 430.689 144.202 429.387 144.338C423.84 145.362 418.318 146.45 412.823 147.604C405.164 149.217 397.446 150.928 389.864 152.736L387.395 143.872C387.49 143.854 387.582 143.821 387.667 143.774H387.861C391.166 142.841 394.432 141.83 397.757 141.014L395.268 135.474L395.793 135.221C399.137 133.51 402.325 132.111 405.65 130.711L405.922 130.575L402.772 121.866L403.278 121.691C404.677 121.128 406.097 120.583 407.516 120.059C401.204 121.354 394.957 122.903 388.775 124.704L385.664 114.499H385.82C391.147 112.885 396.454 111.369 401.8 109.95L400.148 103.905L395.249 105.304L392.41 96.9259C392.455 96.911 392.502 96.911 392.546 96.9259C404.689 92.8023 417.111 89.5541 429.717 87.2062C415.739 86.8029 401.781 88.5401 388.328 92.3576L387.745 92.5131L385.801 85.7288C389.514 84.6208 393.227 83.6294 397.018 82.8324C407.224 80.2081 417.528 77.9337 427.89 76.223C412.162 76.2749 396.456 77.4051 380.882 79.6055H380.571H380.202H379.852C378.724 80.5775 378.413 79.6055 378.432 78.3808C379.405 78.1087 380.377 77.8365 381.387 77.5838C397.11 73.7618 413.178 71.5409 429.348 70.955C435.18 70.6634 440.798 70.5468 446.281 70.5273L441.42 71.0911C449.225 71.3318 457.012 71.9806 464.749 73.035L464.205 78.8668C457.009 78.9804 449.824 79.4931 442.684 80.4025C445.523 80.7524 448.322 81.1995 451.121 81.7438C457.809 82.7546 473.984 89.014 480.574 91.1718L471.029 91.5606L469.921 99.2002L469.726 108.22L467.354 108.376L467.005 111.544C472.215 111.544 477.483 111.544 482.713 112.03L482.596 122.605C471.21 123.589 459.907 125.369 448.769 127.931C459.909 127.698 470.99 127.931 482.188 128.573H482.635L482.091 138.293H481.605C480.108 138.293 478.552 138.293 477.017 138.293C482.304 139.498 488.098 141.033 493.599 142.511Z" fill="#AF0404"/>
<path d="M512.399 140.119C512.399 140.119 453.707 170.464 409.81 182.497C366.574 194.355 297.968 206.912 295.829 207.282C297.773 206.193 359.789 171.902 400.265 160.239C440.079 148.77 507.85 140.663 512.185 140.139L512.399 140.119Z" fill="#830303"/>
<defs>
<clipPath id="clip0_5132_614">
<rect x="111" y="127" width="10" height="110" transform="rotate(90 111 127)" fill="white"/>
</clipPath>
<clipPath id="clip1_5132_614">
<rect width="10" height="120" fill="white" transform="matrix(0 -1 1 0 598 141)"/>
</clipPath>
</defs>
</svg>
