<svg width="130" height="75" viewBox="0 0 130 75" fill="none" xmlns="http://www.w3.org/2000/svg">
<rect width="130" height="75" rx="12" fill="#F4D0D2"/>
<path d="M57.9688 28.9577C58.8831 29.7903 60.7667 32.0662 60.9861 34.5086C61.1329 36.1431 61.9469 37.5581 63.2422 38.2395C63.7562 38.5099 64.346 38.6647 65 38.6719C65.8846 38.6815 66.7793 38.0425 66.777 37.1578C66.7763 36.8842 66.7312 36.6045 66.6605 36.3472C66.5622 35.9892 66.5536 35.5775 66.7578 35.1562C67.4725 33.6827 68.8782 33.2868 69.9921 32.4866C70.486 32.1316 70.9366 31.7572 71.1354 31.4556C71.684 30.6229 72.2326 28.9577 71.9582 28.125" stroke="#313131" stroke-width="1.875"/>
<path d="M76.7187 38.6719C76.3327 39.7629 76.0595 42.627 71.701 42.6724C71.701 42.6724 70.7712 42.6724 69.6875 42.9304M66.6834 44.8546C65.757 46.6002 66.2974 48.4914 66.6834 49.2188" stroke="#313131" stroke-width="1.875" stroke-linecap="round"/>
<path d="M59.1406 47.651C60.8643 48.648 62.8655 49.2188 65 49.2188C71.472 49.2188 76.7188 43.972 76.7188 37.5C76.7188 31.0279 71.472 25.7812 65 25.7812C58.5279 25.7812 53.2812 31.0279 53.2812 37.5C53.2812 39.6345 53.8519 41.6357 54.849 43.3594" stroke="#313131" stroke-width="1.875" stroke-linecap="round"/>
</svg>
