<svg width="130" height="75" viewBox="0 0 130 75" fill="none" xmlns="http://www.w3.org/2000/svg">
<rect width="130" height="75" rx="12" fill="#FCE7D2"/>
<path d="M59.1406 28.125V26.3672" stroke="#313131" stroke-width="1.875" stroke-linecap="round"/>
<path d="M70.8594 28.125V26.3672" stroke="#313131" stroke-width="1.875" stroke-linecap="round"/>
<path d="M68.5156 42.7734C68.5156 43.2396 68.7008 43.6867 69.0305 44.0164C69.3601 44.3461 69.8072 44.5313 70.2734 44.5313C70.7396 44.5313 71.1867 44.3461 71.5164 44.0164C71.8461 43.6867 72.0313 43.2396 72.0313 42.7734C72.0313 42.3072 71.8461 41.8601 71.5164 41.5305C71.1867 41.2008 70.7396 41.0156 70.2734 41.0156C69.8072 41.0156 69.3601 41.2008 69.0305 41.5305C68.7008 41.8601 68.5156 42.3072 68.5156 42.7734Z" stroke="#313131" stroke-width="1.875"/>
<path d="M76.1328 33.9844H63.5352M53.2812 33.9844H57.8223" stroke="#313131" stroke-width="1.875" stroke-linecap="round"/>
<path d="M67.3438 49.2188H62.6563C58.2368 49.2188 56.0271 49.2188 54.6542 47.8458C53.2813 46.4729 53.2812 44.2631 53.2812 39.8438V37.5C53.2812 33.0806 53.2813 30.8709 54.6542 29.4979C56.0271 28.125 58.2368 28.125 62.6563 28.125H67.3438C71.7631 28.125 73.9729 28.125 75.3458 29.4979C76.7188 30.8709 76.7188 33.0806 76.7188 37.5V39.8438C76.7188 44.2631 76.7188 46.4729 75.3458 47.8458C74.5803 48.6113 73.5548 48.9499 72.0313 49.0998" stroke="#313131" stroke-width="1.875" stroke-linecap="round"/>
</svg>
