<svg width="106" height="81" viewBox="0 0 106 81" fill="none" xmlns="http://www.w3.org/2000/svg">
<g clip-path="url(#clip0_7138_1419)">
<path d="M50.67 45.87L0 22.93L52 0L102.13 22.4L50.67 45.87Z" fill="#50B748"/>
<path d="M101.11 21.6001H97.91V55.2001H101.11V21.6001Z" fill="#50B748"/>
<path d="M104.58 56.4001C104.58 55.3973 104.283 54.4171 103.726 53.5834C103.168 52.7496 102.377 52.0997 101.45 51.716C100.524 51.3323 99.5044 51.2319 98.5209 51.4275C97.5374 51.6231 96.634 52.106 95.9249 52.815C95.2159 53.5241 94.733 54.4275 94.5373 55.411C94.3417 56.3945 94.4422 57.4139 94.8259 58.3403C95.2097 59.2667 95.8595 60.0585 96.6932 60.6156C97.527 61.1727 98.5073 61.4701 99.51 61.4701C100.855 61.4701 102.144 60.9359 103.095 59.9851C104.046 59.0343 104.58 57.7447 104.58 56.4001Z" fill="#50B748"/>
<path d="M97.21 57.9998C97.21 57.9998 93.21 66.3998 94.8 79.1998H100.56V56.7998C100.56 56.7998 97.21 58.6698 97.21 57.9998Z" fill="#50B748"/>
<path d="M102.29 57.9998C102.29 57.9998 106.29 66.3998 104.68 79.1998H98.96V56.7998C98.96 56.7998 102.29 58.6698 102.29 57.9998Z" fill="#50B748"/>
<path d="M79.47 36.6001C79.47 36.8401 54.65 48.3401 49.87 50.6001C45.08 48.3801 20.27 36.8801 20.27 36.6001V70.6701C28.27 79.1601 44.02 80.5401 49.07 80.7601H50.67C55.67 80.5401 71.47 79.1601 79.47 70.6701V36.6001Z" fill="#50B748"/>
</g>
<defs>
<clipPath id="clip0_7138_1419">
<rect width="105.06" height="80.8" fill="white"/>
</clipPath>
</defs>
</svg>
