<svg width="30" height="30" viewBox="0 0 30 30" fill="none" xmlns="http://www.w3.org/2000/svg">
<path d="M15 7.96875V10.3125M15 10.3125V12.6563M15 10.3125H12.6562M15 10.3125H17.3438" stroke="#F0851D" stroke-width="1.875" stroke-linecap="round"/>
<path d="M10.3125 17.3438H11.4844M19.6875 17.3438H15" stroke="#F0851D" stroke-width="1.875" stroke-linecap="round"/>
<path d="M11.4844 22.0312H18.5156" stroke="#F0851D" stroke-width="1.875" stroke-linecap="round"/>
<path d="M4.45312 17.3438V12.6563C4.45312 8.23683 4.45313 6.02713 5.82606 4.65418C7.199 3.28125 9.4087 3.28125 13.8281 3.28125H16.1719C20.5913 3.28125 22.8011 3.28125 24.1739 4.65418C24.9394 5.41964 25.278 6.44518 25.4279 7.96875M25.5469 12.6563V17.3438C25.5469 21.7631 25.5469 23.9729 24.1739 25.3458C22.8011 26.7188 20.5913 26.7188 16.1719 26.7188H13.8281C9.4087 26.7188 7.199 26.7188 5.82606 25.3458C5.06061 24.5803 4.72192 23.5548 4.57206 22.0313" stroke="#F0851D" stroke-width="1.875" stroke-linecap="round"/>
</svg>
