<svg width="66" height="96" viewBox="0 0 66 96" fill="none" xmlns="http://www.w3.org/2000/svg">
<mask id="path-1-inside-1_7071_804" fill="white">
<path d="M33 95.3331C17.6407 95.3331 0 92.5606 0 70.9349C0 52.0678 13.8654 24.093 33 24.093C52.1346 24.093 66 52.0678 66 70.9349C66 92.5606 48.3728 95.3331 33 95.3331ZM33 27.5725C16.7037 27.5725 3.57163 53.8145 3.57163 70.9349C3.57163 85.6015 12.3716 90.1207 33 90.1207C53.6284 90.1207 62.4419 85.6015 62.4419 70.9349C62.4419 53.8145 49.2555 27.5725 33 27.5725Z"/>
</mask>
<path d="M33 95.3331C17.6407 95.3331 0 92.5606 0 70.9349C0 52.0678 13.8654 24.093 33 24.093C52.1346 24.093 66 52.0678 66 70.9349C66 92.5606 48.3728 95.3331 33 95.3331ZM33 27.5725C16.7037 27.5725 3.57163 53.8145 3.57163 70.9349C3.57163 85.6015 12.3716 90.1207 33 90.1207C53.6284 90.1207 62.4419 85.6015 62.4419 70.9349C62.4419 53.8145 49.2555 27.5725 33 27.5725Z" fill="#313131"/>
<path d="M33 95.3331V75.3331C29.6815 75.3331 26.843 75.1766 24.4614 74.8032C22.0421 74.424 20.7515 73.9181 20.196 73.6201C19.8325 73.425 20.1155 73.5193 20.3442 73.9179C20.5279 74.2381 20 73.6018 20 70.9349H0H-20C-20 79.0808 -18.3228 86.9007 -14.3515 93.8229C-10.3352 100.824 -4.682 105.666 1.28456 108.867C12.3211 114.789 24.9621 115.333 33 115.333V95.3331ZM0 70.9349H20C20 65.6475 22.1909 57.5739 26.2738 51.0559C30.7338 43.9359 33.7076 44.093 33 44.093V24.093V4.09302C13.1578 4.09302 -0.368367 18.2376 -7.62473 29.8217C-15.2582 42.0079 -20 57.3552 -20 70.9349H0ZM33 24.093V44.093C32.2923 44.093 35.2662 43.9359 39.7262 51.0559C43.8091 57.5739 46 65.6475 46 70.9349H66H86C86 57.3552 81.2582 42.0078 73.6247 29.8217C66.3683 18.2375 52.8422 4.09302 33 4.09302V24.093ZM66 70.9349H46C46 73.6044 45.4719 74.242 45.6553 73.9221C45.8841 73.523 46.1683 73.4273 45.8071 73.6211C45.2536 73.9182 43.9646 74.4239 41.5449 74.8032C39.1627 75.1765 36.3226 75.3331 33 75.3331V95.3331V115.333C41.0425 115.333 53.6859 114.789 64.7225 108.866C70.6898 105.664 76.3415 100.82 80.3558 93.8187C84.3247 86.8968 86 79.0782 86 70.9349H66ZM33 27.5725V7.57253C13.9771 7.57253 1.40524 22.1077 -4.88827 32.4002C-11.8011 43.7057 -16.4284 58.1113 -16.4284 70.9349H3.57163H23.5716C23.5716 66.6381 25.5104 59.3625 29.2377 53.2669C31.0108 50.3671 32.6694 48.6072 33.7713 47.754C34.8236 46.9393 34.5096 47.5725 33 47.5725V27.5725ZM3.57163 70.9349H-16.4284C-16.4284 82.7307 -12.474 95.2838 0.0102423 103.025C9.95447 109.191 22.3686 110.121 33 110.121V90.1207V70.1207C28.4648 70.1207 25.3094 69.8637 23.151 69.4856C20.9593 69.1015 20.6012 68.7273 21.0901 69.0304C21.8824 69.5218 22.8634 70.5153 23.4285 71.7399C23.8551 72.6643 23.5716 72.7164 23.5716 70.9349H3.57163ZM33 90.1207V110.121C43.6329 110.121 56.0462 109.191 65.9911 103.028C78.4765 95.2919 82.4419 82.7419 82.4419 70.9349H62.4419H42.4419C42.4419 72.7128 42.1587 72.6581 42.5864 71.7322C43.1525 70.507 44.1334 69.5158 44.9221 69.0271C45.4077 68.7261 45.0461 69.1011 42.8522 69.4854C40.6918 69.8638 37.535 70.1207 33 70.1207V90.1207ZM62.4419 70.9349H82.4419C82.4419 58.094 77.7905 43.6842 70.8724 32.3881C64.5804 22.1145 52.006 7.57253 33 7.57253V27.5725V47.5725C31.4701 47.5725 31.1513 46.9313 32.2122 47.753C33.3193 48.6103 34.9831 50.3756 36.7612 53.279C40.5001 59.384 42.4419 66.6553 42.4419 70.9349H62.4419Z" fill="black" mask="url(#path-1-inside-1_7071_804)"/>
<mask id="path-3-inside-2_7071_804" fill="white">
<path d="M39.6599 23.012C38.6196 22.9595 37.5869 22.8017 36.5772 22.5406C33.979 21.7643 31.2173 21.7643 28.6192 22.5406C27.6095 22.8017 26.5768 22.9595 25.5365 23.012C21.3945 23.012 21.3945 18.4234 21.3945 16.7045C21.3945 15.6232 20.1859 13.2249 19.1266 11.1594C17.3883 7.73533 15.9081 4.76874 16.7365 2.93887C18.0945 -6.61022e-06 22.1686 0 23.5266 0C25.4807 0.0456531 27.4305 0.207646 29.3661 0.485179C30.629 0.637668 31.8105 0.776304 32.5574 0.776304C33.3044 0.776304 34.3501 0.665405 35.5859 0.540642C37.2698 0.37429 39.1846 0.1802 41.0179 0.1802C42.5661 0.1802 47.2513 0.180199 48.6364 3.49337C49.3426 5.17075 48.134 7.58285 46.0969 11.3812C45.0513 13.3358 43.7476 15.7618 43.7476 16.746C43.8796 18.3793 43.5447 20.0165 42.7834 21.4593C42.4343 21.9672 41.9645 22.3761 41.4182 22.6476C40.8718 22.9192 40.2668 23.0446 39.6599 23.012ZM32.5982 19.4354C34.137 19.4823 35.6666 19.6961 37.1612 20.0731C37.9781 20.2981 38.8153 20.4374 39.6599 20.489C40.3254 20.489 40.5019 20.2949 40.6513 20.0592C41.1364 19.0146 41.3336 17.8548 41.2216 16.7045C41.2216 15.0964 42.4439 12.8091 43.8562 10.1752C44.8612 8.30371 46.5722 5.19848 46.3006 4.39445C45.8118 3.24385 44.0599 2.64775 41.0722 2.64775C39.3611 2.64775 37.5142 4.10332 35.8982 4.26967C34.5401 4.4083 33.4673 4.51921 32.5982 4.51921C31.4212 4.47423 30.2472 4.36781 29.0809 4.20038C27.3426 3.99244 25.3599 2.4814 23.5673 2.4814C21.0414 2.4814 19.4932 2.96659 19.0994 3.86766C18.7056 4.76874 20.4574 8.10963 21.4352 9.95336C22.7932 12.5318 23.9747 14.9716 23.9747 16.649C23.9747 20.4335 24.9118 20.4335 25.5365 20.4335C26.3855 20.381 27.2271 20.2417 28.0488 20.0176C29.5406 19.6588 31.0657 19.4636 32.5982 19.4354Z"/>
</mask>
<path d="M39.6599 23.012C38.6196 22.9595 37.5869 22.8017 36.5772 22.5406C33.979 21.7643 31.2173 21.7643 28.6192 22.5406C27.6095 22.8017 26.5768 22.9595 25.5365 23.012C21.3945 23.012 21.3945 18.4234 21.3945 16.7045C21.3945 15.6232 20.1859 13.2249 19.1266 11.1594C17.3883 7.73533 15.9081 4.76874 16.7365 2.93887C18.0945 -6.61022e-06 22.1686 0 23.5266 0C25.4807 0.0456531 27.4305 0.207646 29.3661 0.485179C30.629 0.637668 31.8105 0.776304 32.5574 0.776304C33.3044 0.776304 34.3501 0.665405 35.5859 0.540642C37.2698 0.37429 39.1846 0.1802 41.0179 0.1802C42.5661 0.1802 47.2513 0.180199 48.6364 3.49337C49.3426 5.17075 48.134 7.58285 46.0969 11.3812C45.0513 13.3358 43.7476 15.7618 43.7476 16.746C43.8796 18.3793 43.5447 20.0165 42.7834 21.4593C42.4343 21.9672 41.9645 22.3761 41.4182 22.6476C40.8718 22.9192 40.2668 23.0446 39.6599 23.012ZM32.5982 19.4354C34.137 19.4823 35.6666 19.6961 37.1612 20.0731C37.9781 20.2981 38.8153 20.4374 39.6599 20.489C40.3254 20.489 40.5019 20.2949 40.6513 20.0592C41.1364 19.0146 41.3336 17.8548 41.2216 16.7045C41.2216 15.0964 42.4439 12.8091 43.8562 10.1752C44.8612 8.30371 46.5722 5.19848 46.3006 4.39445C45.8118 3.24385 44.0599 2.64775 41.0722 2.64775C39.3611 2.64775 37.5142 4.10332 35.8982 4.26967C34.5401 4.4083 33.4673 4.51921 32.5982 4.51921C31.4212 4.47423 30.2472 4.36781 29.0809 4.20038C27.3426 3.99244 25.3599 2.4814 23.5673 2.4814C21.0414 2.4814 19.4932 2.96659 19.0994 3.86766C18.7056 4.76874 20.4574 8.10963 21.4352 9.95336C22.7932 12.5318 23.9747 14.9716 23.9747 16.649C23.9747 20.4335 24.9118 20.4335 25.5365 20.4335C26.3855 20.381 27.2271 20.2417 28.0488 20.0176C29.5406 19.6588 31.0657 19.4636 32.5982 19.4354Z" fill="#313131"/>
<path d="M39.6599 23.012L41.2712 -6.94475L41.2204 -6.94748L41.1696 -6.95004L39.6599 23.012ZM36.5772 22.5406L27.9886 51.2849L28.5258 51.4455L29.0687 51.5858L36.5772 22.5406ZM28.6192 22.5406L36.1277 51.5858L36.6706 51.4455L37.2078 51.2849L28.6192 22.5406ZM25.5365 23.012V53.012H26.2918L27.0461 52.9739L25.5365 23.012ZM19.1266 11.1594L-7.62372 24.7395L-7.5959 24.7943L-7.56786 24.849L19.1266 11.1594ZM16.7365 2.93887L-10.4966 -9.64524L-10.5454 -9.5396L-10.5934 -9.43358L16.7365 2.93887ZM23.5266 0L24.2273 -29.9918L23.877 -30H23.5266V0ZM29.3661 0.485179L25.1081 30.1815L25.4386 30.2289L25.77 30.2689L29.3661 0.485179ZM35.5859 0.540642L32.6366 -29.314L32.6045 -29.3109L32.5724 -29.3076L35.5859 0.540642ZM48.6364 3.49337L20.9581 15.0653L20.9724 15.0995L20.9868 15.1338L48.6364 3.49337ZM46.0969 11.3812L19.6589 -2.79733L19.6517 -2.78379L19.6444 -2.77024L46.0969 11.3812ZM43.7476 16.746H13.7476V17.9568L13.8451 19.1636L43.7476 16.746ZM42.7834 21.4593L67.5062 38.4529L68.4986 37.0091L69.3162 35.4596L42.7834 21.4593ZM32.5982 19.4354L33.5131 -10.5507L32.7799 -10.573L32.0465 -10.5595L32.5982 19.4354ZM37.1612 20.0731L45.1279 -8.84976L44.814 -8.93624L44.4982 -9.01588L37.1612 20.0731ZM39.6599 20.489L37.8335 50.4333L38.7458 50.489H39.6599V20.489ZM40.6513 20.0592L65.9896 36.1206L67.0365 34.4691L67.8601 32.6957L40.6513 20.0592ZM41.2216 16.7045L11.2216 16.7045L11.2216 18.1608L11.3627 19.6102L41.2216 16.7045ZM43.8562 10.1752L17.4258 -4.01751L17.4216 -4.00967L17.4174 -4.00183L43.8562 10.1752ZM46.3006 4.39445L74.7228 -5.20665L74.3577 -6.28746L73.9116 -7.33742L46.3006 4.39445ZM35.8982 4.26967L38.9447 34.1146L38.9574 34.1133L38.9701 34.112L35.8982 4.26967ZM32.5982 4.51921L31.4524 34.4973L32.0251 34.5192H32.5982V4.51921ZM29.0809 4.20038L33.3439 -25.4952L32.9946 -25.5453L32.6442 -25.5873L29.0809 4.20038ZM21.4352 9.95336L47.9788 -4.02666L47.9588 -4.06445L47.9388 -4.10219L21.4352 9.95336ZM25.5365 20.4335V50.4335H26.4628L27.3873 50.3764L25.5365 20.4335ZM28.0488 20.0176L21.0324 -9.15034L20.5925 -9.04453L20.1561 -8.92551L28.0488 20.0176ZM39.6599 23.012L41.1696 -6.95004C42.157 -6.90029 43.1342 -6.75053 44.0857 -6.50455L36.5772 22.5406L29.0687 51.5858C32.0397 52.3538 35.0822 52.8194 38.1503 52.9739L39.6599 23.012ZM36.5772 22.5406L45.1658 -6.20368C36.9643 -8.65425 28.2321 -8.65425 20.0306 -6.20368L28.6192 22.5406L37.2078 51.2849C34.2026 52.1829 30.9938 52.1829 27.9886 51.2849L36.5772 22.5406ZM28.6192 22.5406L21.1107 -6.50455C22.0621 -6.7505 23.0393 -6.90028 24.0269 -6.95004L25.5365 23.012L27.0461 52.9739C30.1143 52.8194 33.1568 52.3538 36.1277 51.5858L28.6192 22.5406ZM25.5365 23.012V-6.98805C30.4152 -6.98805 36.3631 -5.4906 41.661 -1.33359C46.5765 2.52336 48.9034 7.07795 49.9544 9.84284C51.6785 14.3782 51.3945 18.2094 51.3945 16.7045H21.3945H-8.60552C-8.60552 16.9184 -8.88954 23.9034 -6.12996 31.1628C-4.56116 35.2897 -1.45767 41.0988 4.62277 45.8699C11.0856 50.9409 18.5868 53.012 25.5365 53.012V23.012ZM21.3945 16.7045H51.3945C51.3945 11.7558 50.1902 7.87862 49.7835 6.59715C49.2113 4.79433 48.5757 3.26625 48.1408 2.27266C47.2814 0.308922 46.2985 -1.5992 45.8211 -2.53022L19.1266 11.1594L-7.56786 24.849C-7.3106 25.3507 -7.13039 25.7053 -6.98202 26.0064C-6.82946 26.3159 -6.79392 26.4011 -6.82529 26.3294C-6.82559 26.3287 -7.09288 25.732 -7.40534 24.7475C-7.56844 24.2336 -7.8275 23.354 -8.06055 22.2053C-8.27645 21.1411 -8.60552 19.1978 -8.60552 16.7045H21.3945ZM19.1266 11.1594L45.8769 -2.42073C44.753 -4.63474 44.9987 -4.28667 45.3202 -3.35732C45.534 -2.73941 46.1759 -0.795046 46.4108 2.00412C46.6532 4.89051 46.5521 9.8204 44.0664 15.3113L16.7365 2.93887L-10.5934 -9.43358C-16.0955 2.72017 -12.2562 13.7336 -11.3822 16.2599C-10.093 19.9861 -8.23802 23.5295 -7.62372 24.7395L19.1266 11.1594ZM16.7365 2.93887L43.9695 15.523C39.3713 25.4739 30.8115 28.5566 27.9652 29.3265C25.0723 30.1091 22.8182 30 23.5266 30V0V-30C22.877 -30 17.9068 -30.1091 12.2978 -28.5918C6.73555 -27.0872 -4.54036 -22.535 -10.4966 -9.64524L16.7365 2.93887ZM23.5266 0L22.8259 29.9918C23.5891 30.0096 24.351 30.0729 25.1081 30.1815L29.3661 0.485179L33.624 -29.2111C30.51 -29.6576 27.3723 -29.9183 24.2273 -29.9918L23.5266 0ZM29.3661 0.485179L25.77 30.2689C26.2448 30.3262 29.5688 30.7763 32.5574 30.7763V0.776304V-29.2237C32.9182 -29.2237 33.2095 -29.2155 33.4112 -29.2078C33.6165 -29.1999 33.7751 -29.1906 33.8761 -29.184C33.9787 -29.1773 34.0482 -29.1716 34.0776 -29.1691C34.1079 -29.1666 34.1135 -29.1659 34.0895 -29.1682C34.0346 -29.1736 33.9192 -29.1857 33.7137 -29.2093C33.5078 -29.2329 33.2721 -29.2611 32.9621 -29.2985L29.3661 0.485179ZM32.5574 0.776304V30.7763C35.2195 30.7763 38.2111 30.4281 38.5993 30.3889L35.5859 0.540642L32.5724 -29.3076C32.4905 -29.2994 32.41 -29.2912 32.3349 -29.2836C32.2585 -29.2759 32.1877 -29.2687 32.1185 -29.2617C31.9795 -29.2477 31.8611 -29.2358 31.7537 -29.2252C31.6468 -29.2147 31.5611 -29.2065 31.4906 -29.1999C31.42 -29.1933 31.3734 -29.1892 31.3456 -29.1868C31.3175 -29.1844 31.3179 -29.1846 31.3413 -29.1863C31.3643 -29.188 31.4223 -29.192 31.5089 -29.1968C31.5949 -29.2016 31.7256 -29.208 31.8929 -29.2134C31.9776 -29.2161 32.0754 -29.2186 32.185 -29.2205C32.2945 -29.2224 32.4192 -29.2237 32.5574 -29.2237V0.776304ZM35.5859 0.540642L38.5351 30.3953C39.4656 30.3034 39.9989 30.2511 40.5038 30.2129C40.9835 30.1767 41.1139 30.1802 41.0179 30.1802V0.1802V-29.8198C37.4314 -29.8198 33.985 -29.4472 32.6366 -29.314L35.5859 0.540642ZM41.0179 0.1802V30.1802C41.8588 30.1802 39.7984 30.2924 37.0877 29.5624C34.5513 28.8794 25.425 25.7495 20.9581 15.0653L48.6364 3.49337L76.3148 -8.07853C70.4627 -22.076 58.3012 -26.8624 52.6889 -28.3737C46.9023 -29.932 41.7252 -29.8198 41.0179 -29.8198V0.1802ZM48.6364 3.49337L20.9868 15.1338C18.8809 10.1316 18.654 5.51724 18.9393 2.2722C19.2039 -0.737846 19.9289 -2.86092 20.204 -3.6169C20.504 -4.4413 20.7188 -4.83565 20.5582 -4.5107C20.412 -4.21494 20.1649 -3.74088 19.6589 -2.79733L46.0969 11.3812L72.535 25.5597C73.3079 24.1184 75.2425 20.5949 76.5868 16.9007C77.7568 13.6856 81.1756 3.46716 76.286 -8.14705L48.6364 3.49337ZM46.0969 11.3812L19.6444 -2.77024C19.23 -1.99554 18.2295 -0.146238 17.3679 1.69111C16.9331 2.61839 16.2635 4.10714 15.648 5.86786C15.2932 6.88292 13.7476 11.1981 13.7476 16.746H43.7476H73.7476C73.7476 19.6805 73.2957 21.9326 73.0465 23.0191C72.7659 24.2425 72.4626 25.1652 72.2872 25.667C72.099 26.2052 71.9392 26.5957 71.8547 26.7959C71.7652 27.0078 71.705 27.1368 71.6923 27.1639C71.6762 27.1982 71.7296 27.0838 71.9036 26.7494C72.0769 26.4161 72.2671 26.0606 72.5495 25.5327L46.0969 11.3812ZM43.7476 16.746L13.8451 19.1636C13.52 15.1421 14.3391 11.0814 16.2505 7.45906L42.7834 21.4593L69.3162 35.4596C72.7502 28.9517 74.2392 21.6164 73.65 14.3285L43.7476 16.746ZM42.7834 21.4593L18.0605 4.46577C20.5707 0.813919 23.9967 -2.19444 28.0645 -4.21645L41.4182 22.6476L54.7718 49.5117C59.9323 46.9465 64.2979 43.1204 67.5062 38.4529L42.7834 21.4593ZM41.4182 22.6476L28.0645 -4.21645C32.1364 -6.24053 36.6848 -7.19143 41.2712 -6.94475L39.6599 23.012L38.0487 52.9687C43.8488 53.2806 49.6072 52.079 54.7718 49.5117L41.4182 22.6476ZM32.5982 19.4354L31.6833 49.4214C31.0526 49.4022 30.429 49.3146 29.8241 49.162L37.1612 20.0731L44.4982 -9.01588C40.9042 -9.92238 37.2214 -10.4375 33.5131 -10.5507L32.5982 19.4354ZM37.1612 20.0731L29.1944 48.9959C32.0143 49.7726 34.9093 50.255 37.8335 50.4333L39.6599 20.489L41.4864 -9.45538C42.7214 -9.38005 43.9419 -9.17646 45.1279 -8.84976L37.1612 20.0731ZM39.6599 20.489V50.489C42.4997 50.489 48.2617 50.1478 54.4844 46.8236C61.4457 43.105 64.9306 37.7912 65.9896 36.1206L40.6513 20.0592L15.3129 3.9978C16.2225 2.56283 19.5445 -2.536 26.2138 -6.0987C32.1446 -9.26688 37.4855 -9.51103 39.6599 -9.51103V20.489ZM40.6513 20.0592L67.8601 32.6957C70.6067 26.7816 71.7088 20.254 71.0806 13.7987L41.2216 16.7045L11.3627 19.6102C10.9584 15.4557 11.6661 11.2476 13.4424 7.42276L40.6513 20.0592ZM41.2216 16.7045L71.2216 16.7045C71.2216 19.9444 70.6322 22.378 70.2959 23.5633C69.9393 24.8206 69.5837 25.644 69.4946 25.8478C69.3901 26.0867 69.3685 26.1104 69.5362 25.7837C69.7064 25.4522 69.9196 25.0523 70.2951 24.3522L43.8562 10.1752L17.4174 -4.00183C16.8671 -2.97565 15.5825 -0.618407 14.524 1.80116C13.7256 3.62631 11.2216 9.37619 11.2216 16.7045L41.2216 16.7045ZM43.8562 10.1752L70.2867 24.3678C70.5937 23.796 71.7714 21.6479 72.7324 19.5931C73.1931 18.6078 74.0438 16.7279 74.7621 14.4707C75.1158 13.3591 75.6926 11.375 76.0352 8.88333C76.2926 7.01118 76.9583 1.41112 74.7228 -5.20665L46.3006 4.39445L17.8785 13.9955C16.7011 10.5102 16.4068 7.4949 16.3441 5.52468C16.2796 3.49446 16.4404 1.83051 16.5944 0.710529C16.8915 -1.45013 17.3713 -3.04511 17.5871 -3.72331C17.8405 -4.51965 18.0676 -5.0877 18.1724 -5.34207C18.2885 -5.62385 18.3679 -5.79416 18.3819 -5.82401C18.3994 -5.86152 18.3368 -5.72772 18.1363 -5.34563C17.9265 -4.94588 17.7474 -4.61652 17.4258 -4.01751L43.8562 10.1752ZM46.3006 4.39445L73.9116 -7.33742C68.9934 -18.9123 59.3121 -23.6251 54.1692 -25.3512C48.9364 -27.1075 44.1032 -27.3523 41.0722 -27.3523V2.64775V32.6477C41.029 32.6477 38.5655 32.701 35.0778 31.5304C31.68 30.39 23.119 26.5506 18.6897 16.1263L46.3006 4.39445ZM41.0722 2.64775V-27.3523C36.5032 -27.3523 32.8497 -26.3995 30.7103 -25.7218C28.6104 -25.0567 26.8898 -24.2922 26.4059 -24.08C26.2774 -24.0237 26.0788 -23.9361 26.0391 -23.9186C25.9543 -23.8813 25.9353 -23.8732 25.9421 -23.8761C25.9521 -23.8804 26.0213 -23.9101 26.1303 -23.9546C26.2399 -23.9994 26.412 -24.0682 26.6328 -24.1508C27.2995 -24.4003 29.5977 -25.2403 32.8263 -25.5726L35.8982 4.26967L38.9701 34.112C41.0734 33.8955 42.8682 33.507 44.2598 33.1351C45.6509 32.7633 46.8151 32.3602 47.6628 32.043C48.5084 31.7265 49.2126 31.4295 49.6464 31.2429C49.8705 31.1465 50.0694 31.0592 50.2031 31.0004C50.3819 30.9218 50.4023 30.9125 50.4932 30.8727C50.629 30.8132 50.4995 30.8718 50.2665 30.9652C50.0239 31.0624 49.5172 31.2591 48.828 31.4774C48.1379 31.696 47.1289 31.98 45.8697 32.2124C44.6034 32.4461 42.9769 32.6477 41.0722 32.6477V2.64775ZM35.8982 4.26967L32.8516 -25.5752C32.6753 -25.5572 32.5257 -25.542 32.3804 -25.5272C32.2374 -25.5128 32.1155 -25.5006 32.0069 -25.4899C31.7827 -25.468 31.6615 -25.4572 31.6003 -25.4522C31.5736 -25.45 31.5738 -25.4501 31.5959 -25.4517C31.6179 -25.4532 31.6699 -25.4566 31.7469 -25.4606C31.8239 -25.4646 31.9345 -25.4695 32.0736 -25.4735C32.2127 -25.4775 32.3893 -25.4808 32.5982 -25.4808V4.51921V34.5192C35.3541 34.5192 38.2099 34.1896 38.9447 34.1146L35.8982 4.26967ZM32.5982 4.51921L33.7439 -25.4589C33.6106 -25.464 33.4771 -25.4761 33.3439 -25.4952L29.0809 4.20038L24.8179 33.8959C27.0174 34.2117 29.2318 34.4125 31.4524 34.4973L32.5982 4.51921ZM29.0809 4.20038L32.6442 -25.5873C35.5844 -25.2355 37.6604 -24.4739 38.2195 -24.2654C38.6743 -24.0958 39.2192 -23.856 38.2158 -24.2883C37.6859 -24.5167 35.961 -25.2681 33.8641 -25.9214C31.7407 -26.5829 28.1056 -27.5186 23.5673 -27.5186V2.4814V32.4814C21.6943 32.4814 20.1019 32.2851 18.874 32.0615C17.6519 31.8391 16.6767 31.5683 16.0172 31.3629C15.358 31.1575 14.8774 30.9739 14.655 30.8864C14.4409 30.8022 14.3297 30.7524 14.4732 30.8142C14.5564 30.85 14.6045 30.871 14.772 30.9436C14.9067 31.0019 15.105 31.0876 15.3258 31.1814C15.755 31.3635 16.4403 31.6491 17.2568 31.9535C18.0758 32.2589 19.1892 32.6448 20.5121 33.0062C21.8346 33.3675 23.5322 33.7505 25.5176 33.988L29.0809 4.20038ZM23.5673 2.4814V-27.5186C20.7986 -27.5186 16.4182 -27.3011 11.6228 -25.8094C7.60854 -24.5606 -3.03561 -20.3969 -8.38968 -8.14687L19.0994 3.86766L46.5885 15.8822C41.6283 27.2312 31.9551 30.7018 29.4449 31.4826C26.1535 32.5065 23.8102 32.4814 23.5673 32.4814V2.4814ZM19.0994 3.86766L-8.38968 -8.14687C-11.2087 -1.69701 -11.0414 3.99967 -10.8865 6.31476C-10.7005 9.09488 -10.1812 11.3294 -9.83955 12.6195C-9.15205 15.2155 -8.26171 17.3598 -7.77071 18.4921C-6.7233 20.9076 -5.49904 23.1969 -5.06839 24.0089L21.4352 9.95336L47.9388 -4.10219C47.3917 -5.13387 47.2512 -5.4369 47.2767 -5.3781C47.3114 -5.29797 47.4125 -5.06141 47.5466 -4.69859C47.6696 -4.36585 47.9117 -3.68216 48.161 -2.74062C48.3786 -1.91927 48.818 -0.108014 48.9797 2.30973C49.1103 4.26244 49.3091 9.65761 46.5885 15.8822L19.0994 3.86766ZM21.4352 9.95336L-5.10831 23.9334C-4.47 25.1453 -4.4362 25.2829 -4.56948 24.9557C-4.65855 24.737 -4.95738 23.9867 -5.25585 22.8449C-5.53329 21.7835 -6.02528 19.5858 -6.02528 16.649H23.9747H53.9747C53.9747 9.79681 51.8174 4.33445 50.9979 2.3225C49.9344 -0.288602 48.6985 -2.66015 47.9788 -4.02666L21.4352 9.95336ZM23.9747 16.649H-6.02528C-6.02528 18.6771 -5.91197 21.3316 -5.37688 24.249C-4.87453 26.988 -3.70427 31.6585 -0.513684 36.4906C3.19084 42.1012 8.71575 46.5376 15.4596 48.8073C18.4155 49.8021 20.9767 50.165 22.7034 50.3144C23.5647 50.3889 24.2762 50.4146 24.7431 50.425C24.9792 50.4303 25.1748 50.4321 25.3046 50.4329C25.4249 50.4336 25.5301 50.4335 25.5365 50.4335V20.4335V-9.5665C24.8422 -9.5665 29.4506 -9.79096 34.5982 -8.05851C40.9907 -5.90708 46.1642 -1.70721 49.5564 3.43025C52.4346 7.78934 53.3315 11.7503 53.6387 13.4248C53.9785 15.2778 53.9747 16.5132 53.9747 16.649H23.9747ZM25.5365 20.4335L27.3873 50.3764C30.282 50.1974 33.1481 49.7225 35.9415 48.9608L28.0488 20.0176L20.1561 -8.92551C21.3061 -9.23912 22.4889 -9.43538 23.6857 -9.50935L25.5365 20.4335ZM28.0488 20.0176L35.0652 49.1856C34.4409 49.3358 33.7983 49.4184 33.1498 49.4303L32.5982 19.4354L32.0465 -10.5595C28.3332 -10.4912 24.6404 -10.0183 21.0324 -9.15034L28.0488 20.0176Z" fill="black" mask="url(#path-3-inside-2_7071_804)"/>
<mask id="path-5-inside-3_7071_804" fill="white">
<path d="M30.7181 80.2091V78.9615C30.6565 78.3885 30.3946 77.8573 29.9807 77.4653C29.5667 77.0732 29.0282 76.8465 28.4638 76.8266C26.8046 76.6237 25.1735 76.2284 23.6021 75.6483C23.3399 75.5526 23.099 75.4044 22.8937 75.2124C22.6883 75.0204 22.5226 74.7885 22.4062 74.5302C22.2898 74.272 22.2252 73.9926 22.216 73.7085C22.2068 73.4244 22.2533 73.1413 22.3527 72.8758C22.476 72.6376 22.6453 72.4275 22.8503 72.2579C23.0553 72.0883 23.2918 71.9628 23.5455 71.889C23.7993 71.8152 24.0651 71.7945 24.3268 71.8283C24.5886 71.8621 24.841 71.9496 25.0688 72.0856C27.1622 72.9286 29.3912 73.3659 31.6416 73.3748C35.865 73.3748 38.7033 71.2261 38.7033 68.2456C38.7033 65.2652 36.3947 63.6017 32.0082 62.0213C25.9514 59.9419 22.2169 57.5298 22.2169 52.9829C22.2169 49.2677 24.7971 46.3011 29.007 45.0535C29.5764 44.9201 30.0923 44.6123 30.4855 44.1713C30.8787 43.7303 31.1304 43.1771 31.207 42.5859V41.2828C31.207 40.7865 31.4002 40.3105 31.744 39.9595C32.0878 39.6085 32.5541 39.4114 33.0404 39.4114C33.5266 39.4114 33.9929 39.6085 34.3367 39.9595C34.6805 40.3105 34.8737 40.7865 34.8737 41.2828V42.378C34.9374 42.9527 35.199 43.4857 35.6119 43.8818C36.0248 44.2779 36.5621 44.5113 37.128 44.5405C38.2965 44.685 39.4476 44.9497 40.5638 45.3307C40.8199 45.4073 41.0579 45.5365 41.2632 45.7105C41.4685 45.8845 41.6367 46.0995 41.7576 46.3423C41.8785 46.5851 41.9493 46.8507 41.9659 47.1225C41.9825 47.3944 41.9443 47.6668 41.8539 47.923C41.5799 48.3776 41.1527 48.7144 40.6525 48.8701C40.1524 49.0258 39.6138 48.9897 39.1379 48.7687C37.3896 48.159 35.5532 47.8544 33.7058 47.8676C29.1292 47.8676 27.4182 50.2658 27.4182 52.3591C27.4182 55.1316 29.6046 56.4347 34.7651 58.32C40.8762 60.5103 43.9725 63.2274 43.9725 67.8852C43.9725 71.4895 41.4873 74.8859 36.7885 76.286C36.2182 76.4175 35.7014 76.7247 35.3079 77.1661C34.9143 77.6075 34.6632 78.1616 34.5885 78.7535V80.2091C34.6106 80.4731 34.5787 80.7389 34.4949 80.9896C34.4111 81.2403 34.2771 81.4706 34.1016 81.6657C33.9261 81.8609 33.7127 82.0167 33.4751 82.1232C33.2375 82.2298 32.9808 82.2848 32.7212 82.2848C32.4617 82.2848 32.205 82.2298 31.9673 82.1232C31.7297 82.0167 31.5164 81.8609 31.3408 81.6657C31.1653 81.4706 31.0314 81.2403 30.9476 80.9896C30.8638 80.7389 30.8319 80.4731 30.854 80.2091H30.7181Z"/>
</mask>
<path d="M30.7181 80.2091V78.9615C30.6565 78.3885 30.3946 77.8573 29.9807 77.4653C29.5667 77.0732 29.0282 76.8465 28.4638 76.8266C26.8046 76.6237 25.1735 76.2284 23.6021 75.6483C23.3399 75.5526 23.099 75.4044 22.8937 75.2124C22.6883 75.0204 22.5226 74.7885 22.4062 74.5302C22.2898 74.272 22.2252 73.9926 22.216 73.7085C22.2068 73.4244 22.2533 73.1413 22.3527 72.8758C22.476 72.6376 22.6453 72.4275 22.8503 72.2579C23.0553 72.0883 23.2918 71.9628 23.5455 71.889C23.7993 71.8152 24.0651 71.7945 24.3268 71.8283C24.5886 71.8621 24.841 71.9496 25.0688 72.0856C27.1622 72.9286 29.3912 73.3659 31.6416 73.3748C35.865 73.3748 38.7033 71.2261 38.7033 68.2456C38.7033 65.2652 36.3947 63.6017 32.0082 62.0213C25.9514 59.9419 22.2169 57.5298 22.2169 52.9829C22.2169 49.2677 24.7971 46.3011 29.007 45.0535C29.5764 44.9201 30.0923 44.6123 30.4855 44.1713C30.8787 43.7303 31.1304 43.1771 31.207 42.5859V41.2828C31.207 40.7865 31.4002 40.3105 31.744 39.9595C32.0878 39.6085 32.5541 39.4114 33.0404 39.4114C33.5266 39.4114 33.9929 39.6085 34.3367 39.9595C34.6805 40.3105 34.8737 40.7865 34.8737 41.2828V42.378C34.9374 42.9527 35.199 43.4857 35.6119 43.8818C36.0248 44.2779 36.5621 44.5113 37.128 44.5405C38.2965 44.685 39.4476 44.9497 40.5638 45.3307C40.8199 45.4073 41.0579 45.5365 41.2632 45.7105C41.4685 45.8845 41.6367 46.0995 41.7576 46.3423C41.8785 46.5851 41.9493 46.8507 41.9659 47.1225C41.9825 47.3944 41.9443 47.6668 41.8539 47.923C41.5799 48.3776 41.1527 48.7144 40.6525 48.8701C40.1524 49.0258 39.6138 48.9897 39.1379 48.7687C37.3896 48.159 35.5532 47.8544 33.7058 47.8676C29.1292 47.8676 27.4182 50.2658 27.4182 52.3591C27.4182 55.1316 29.6046 56.4347 34.7651 58.32C40.8762 60.5103 43.9725 63.2274 43.9725 67.8852C43.9725 71.4895 41.4873 74.8859 36.7885 76.286C36.2182 76.4175 35.7014 76.7247 35.3079 77.1661C34.9143 77.6075 34.6632 78.1616 34.5885 78.7535V80.2091C34.6106 80.4731 34.5787 80.7389 34.4949 80.9896C34.4111 81.2403 34.2771 81.4706 34.1016 81.6657C33.9261 81.8609 33.7127 82.0167 33.4751 82.1232C33.2375 82.2298 32.9808 82.2848 32.7212 82.2848C32.4617 82.2848 32.205 82.2298 31.9673 82.1232C31.7297 82.0167 31.5164 81.8609 31.3408 81.6657C31.1653 81.4706 31.0314 81.2403 30.9476 80.9896C30.8638 80.7389 30.8319 80.4731 30.854 80.2091H30.7181Z" fill="#313131"/>
<path d="M30.7181 80.2091H10.7181V100.209H30.7181V80.2091ZM30.7181 78.9615H50.7181V77.888L50.6033 76.8208L30.7181 78.9615ZM28.4638 76.8266L26.0361 96.6787L26.8951 96.7838L27.7599 96.8142L28.4638 76.8266ZM23.6021 75.6483L30.5282 56.8858L30.4937 56.8731L30.4592 56.8605L23.6021 75.6483ZM22.3527 72.8758L4.59321 63.6779L4.04277 64.7407L3.62301 65.8616L22.3527 72.8758ZM25.0688 72.0856L14.8169 89.2582L16.1535 90.0561L17.5974 90.6377L25.0688 72.0856ZM31.6416 73.3748L31.562 93.3747L31.6018 93.3748H31.6416L31.6416 73.3748ZM32.0082 62.0213L38.7873 43.2053L38.6453 43.1541L38.5025 43.1051L32.0082 62.0213ZM29.007 45.0535L24.4468 25.5803L23.8812 25.7127L23.3241 25.8778L29.007 45.0535ZM31.207 42.5859L51.0413 45.155L51.207 43.8758V42.5859H31.207ZM34.8737 41.2828L54.8737 41.2828L34.8737 41.2828ZM34.8737 42.378H14.8737V43.4823L14.9953 44.58L34.8737 42.378ZM37.128 44.5405L39.5817 24.6916L38.8724 24.6039L38.1587 24.5671L37.128 44.5405ZM40.5638 45.3307L34.1034 64.2586L34.4668 64.3826L34.8346 64.4926L40.5638 45.3307ZM41.8539 47.923L58.9819 58.2493L60.0351 56.5024L60.7139 54.579L41.8539 47.923ZM39.1379 48.7687L47.5634 30.63L46.662 30.2113L45.7236 29.8841L39.1379 48.7687ZM33.7058 47.8676L33.7058 67.8676H33.7774L33.849 67.8671L33.7058 47.8676ZM34.7651 58.32L27.902 77.1056L27.9595 77.1266L28.0172 77.1473L34.7651 58.32ZM36.7885 76.286L41.283 95.7744L41.8965 95.6329L42.4999 95.4531L36.7885 76.286ZM34.5885 78.7535L14.746 76.2488L14.5885 77.4962V78.7535H34.5885ZM34.5885 80.2091H14.5885V81.0438L14.6581 81.8756L34.5885 80.2091ZM32.7212 82.2848L32.7212 102.285L32.7212 82.2848ZM30.854 80.2091L50.7844 81.8756L52.5961 60.2091H30.854V80.2091ZM30.7181 80.2091H50.7181V78.9615H30.7181H10.7181V80.2091H30.7181ZM30.7181 78.9615L50.6033 76.8208C50.0389 71.5788 47.6374 66.6412 43.7327 62.9435L29.9807 77.4653L16.2286 91.987C13.1519 89.0734 11.274 85.1981 10.833 81.1021L30.7181 78.9615ZM29.9807 77.4653L43.7327 62.9435C39.8181 59.2364 34.6537 57.0322 29.1677 56.839L28.4638 76.8266L27.7599 96.8142C23.4027 96.6608 19.3152 94.91 16.2286 91.987L29.9807 77.4653ZM28.4638 76.8266L30.8916 56.9745C30.7723 56.9599 30.6506 56.931 30.5282 56.8858L23.6021 75.6483L16.676 94.4107C19.6965 95.5257 22.8369 96.2875 26.0361 96.6787L28.4638 76.8266ZM23.6021 75.6483L30.4592 56.8605C32.7402 57.693 34.8086 58.9725 36.5524 60.6029L22.8937 75.2124L9.2349 89.8219C11.3894 91.8362 13.9396 93.4121 16.745 94.436L23.6021 75.6483ZM22.8937 75.2124L36.5524 60.6029C38.2948 62.2319 39.6778 64.1775 40.6403 66.3134L22.4062 74.5302L4.17208 82.7471C5.36733 85.3995 7.08181 87.8089 9.2349 89.8219L22.8937 75.2124ZM22.4062 74.5302L40.6403 66.3134C41.6027 68.4489 42.1305 70.7425 42.2055 73.0621L22.216 73.7085L2.22643 74.355C2.31982 77.2428 2.977 80.0951 4.17208 82.7471L22.4062 74.5302ZM22.216 73.7085L42.2055 73.0621C42.2806 75.3818 41.9019 77.7017 41.0824 79.8899L22.3527 72.8758L3.62301 65.8616C2.60467 68.5808 2.13304 71.467 2.22643 74.355L22.216 73.7085ZM22.3527 72.8758L40.1122 82.0736C39.0098 84.2021 37.4816 86.1105 35.5986 87.6682L22.8503 72.2579L10.1019 56.8475C7.80891 58.7444 5.94223 61.0732 4.59321 63.6779L22.3527 72.8758ZM22.8503 72.2579L35.5986 87.6682C33.7144 89.227 31.5171 90.399 29.1324 91.0928L23.5455 71.889L17.9586 52.6852C15.0664 53.5266 12.3962 54.9496 10.1019 56.8475L22.8503 72.2579ZM23.5455 71.889L29.1324 91.0928C26.7469 91.7868 24.2392 91.9829 21.7666 91.6638L24.3268 71.8283L26.887 51.9928C23.8909 51.6061 20.8517 51.8435 17.9586 52.6852L23.5455 71.889ZM24.3268 71.8283L21.7666 91.6638C19.2952 91.3448 16.9313 90.5205 14.8169 89.2582L25.0688 72.0856L35.3206 54.913C32.7506 53.3787 29.882 52.3794 26.887 51.9928L24.3268 71.8283ZM25.0688 72.0856L17.5974 90.6377C22.0339 92.4243 26.7708 93.3556 31.562 93.3747L31.6416 73.3748L31.7212 53.375C32.0116 53.3761 32.2904 53.4329 32.5401 53.5335L25.0688 72.0856ZM31.6416 73.3748L31.6416 93.3748C36.9435 93.3748 43.1579 92.0446 48.6024 88.0421C54.4022 83.7785 58.7033 76.7677 58.7033 68.2456H38.7033H18.7033C18.7033 62.7041 21.5853 58.2578 24.9101 55.8137C27.8796 53.6307 30.5631 53.3748 31.6416 53.3748L31.6416 73.3748ZM38.7033 68.2456H58.7033C58.7033 60.4793 55.2387 53.9967 50.1798 49.5648C46.1289 46.016 41.5161 44.1884 38.7873 43.2053L32.0082 62.0213L25.2292 80.8374C26.8868 81.4346 25.6215 81.2289 23.8216 79.6521C22.709 78.6774 21.2927 77.1009 20.2095 74.8211C19.103 72.4924 18.7033 70.1841 18.7033 68.2456H38.7033ZM32.0082 62.0213L38.5025 43.1051C37.4632 42.7483 36.9333 42.5144 36.7317 42.4155C36.5125 42.3079 36.9936 42.5108 37.7638 43.1628C38.5956 43.867 39.8327 45.1563 40.8175 47.1449C41.8358 49.2009 42.2169 51.2654 42.2169 52.9829H22.2169H2.21689C2.21689 61.8718 6.33141 68.962 11.9188 73.6921C16.5578 77.6193 21.9367 79.7094 25.514 80.9376L32.0082 62.0213ZM22.2169 52.9829H42.2169C42.2169 56.0184 41.0751 58.9496 39.1971 61.1334C37.4454 63.1704 35.6026 63.9586 34.6899 64.2291L29.007 45.0535L23.3241 25.8778C12.9212 28.9608 2.21689 38.2249 2.21689 52.9829H22.2169ZM29.007 45.0535L33.5672 64.5266C38.1885 63.4444 42.3114 60.9606 45.4137 57.481L30.4855 44.1713L15.5572 30.8617C17.8732 28.264 20.9643 26.3958 24.4468 25.5803L29.007 45.0535ZM30.4855 44.1713L45.4137 57.481C48.5116 54.0064 50.4526 49.7002 51.0413 45.155L31.207 42.5859L11.3727 40.0168C11.8083 36.654 13.2458 33.4542 15.5572 30.8617L30.4855 44.1713ZM31.207 42.5859H51.207V41.2828H31.207H11.207V42.5859H31.207ZM31.207 41.2828H51.207C51.207 45.9598 49.3908 50.5256 46.0309 53.9554L31.744 39.9595L17.4571 25.9636C13.4096 30.0953 11.207 35.6132 11.207 41.2828H31.207ZM31.744 39.9595L46.0309 53.9554C42.6571 57.3993 37.9927 59.4114 33.0404 59.4114V39.4114V19.4114C27.1155 19.4114 21.5185 21.8177 17.4571 25.9636L31.744 39.9595ZM33.0404 39.4114V59.4114C28.088 59.4114 23.4236 57.3993 20.0498 53.9554L34.3367 39.9595L48.6236 25.9636C44.5622 21.8178 38.9652 19.4114 33.0404 19.4114V39.4114ZM34.3367 39.9595L20.0498 53.9554C16.6899 50.5256 14.8737 45.9598 14.8737 41.2828L34.8737 41.2828L54.8737 41.2828C54.8737 35.6132 52.6711 30.0953 48.6236 25.9636L34.3367 39.9595ZM34.8737 41.2828H14.8737V42.378H34.8737H54.8737V41.2828H34.8737ZM34.8737 42.378L14.9953 44.58C15.5689 49.7585 17.9327 54.6368 21.7665 58.3146L35.6119 43.8818L49.4573 29.449C52.4652 32.3345 54.3058 36.1469 54.7521 40.176L34.8737 42.378ZM35.6119 43.8818L21.7665 58.3146C25.6095 62.0012 30.6817 64.2345 36.0974 64.514L37.128 44.5405L38.1587 24.5671C42.4425 24.7882 46.4401 26.5546 49.4573 29.449L35.6119 43.8818ZM37.128 44.5405L34.6743 64.3895C34.4765 64.365 34.2851 64.3206 34.1034 64.2586L40.5638 45.3307L47.0242 26.4029C44.6101 25.5789 42.1164 25.005 39.5817 24.6916L37.128 44.5405ZM40.5638 45.3307L34.8346 64.4926C32.4279 63.773 30.2181 62.566 28.3334 60.969L41.2632 45.7105L54.193 30.452C51.8977 28.507 49.2119 27.0416 46.293 26.1689L40.5638 45.3307ZM41.2632 45.7105L28.3334 60.969C26.4502 59.3731 24.9323 57.423 23.8524 55.2532L41.7576 46.3423L59.6628 37.4314C58.3412 34.7759 56.4868 32.3958 54.193 30.452L41.2632 45.7105ZM41.7576 46.3423L23.8524 55.2532C22.7731 53.0844 22.1488 50.732 22.0029 48.3392L41.9659 47.1225L61.9289 45.9059C61.7499 42.9693 60.9838 40.0859 59.6628 37.4314L41.7576 46.3423ZM41.9659 47.1225L22.0029 48.3392C21.857 45.9452 22.1917 43.5402 22.9939 41.2671L41.8539 47.923L60.7139 54.579C61.697 51.7933 62.1079 48.8435 61.9289 45.9059L41.9659 47.1225ZM41.8539 47.923L24.7259 37.5968C26.9427 33.9198 30.4631 31.0956 34.7072 29.7742L40.6525 48.8701L46.5979 67.966C51.8423 66.3332 56.2171 62.8353 58.9819 58.2493L41.8539 47.923ZM40.6525 48.8701L34.7072 29.7742C38.9597 28.4502 43.5433 28.7626 47.5634 30.63L39.1379 48.7687L30.7124 66.9073C35.6843 69.2168 41.3452 69.6014 46.5979 67.966L40.6525 48.8701ZM39.1379 48.7687L45.7236 29.8841C41.8175 28.5219 37.7053 27.8384 33.5625 27.8681L33.7058 47.8676L33.849 67.8671C33.4011 67.8703 32.9617 67.7961 32.5521 67.6532L39.1379 48.7687ZM33.7058 47.8676L33.7058 27.8676C28.0005 27.8676 21.3437 29.3939 15.7932 34.1748C10.1675 39.0205 7.41815 45.7806 7.41815 52.3591H27.4182H47.4182C47.4182 56.8442 45.5243 61.3587 41.8983 64.4819C38.3475 67.5404 34.8345 67.8676 33.7058 67.8676L33.7058 47.8676ZM27.4182 52.3591H7.41815C7.41815 55.8135 8.13426 59.7032 10.1502 63.5254C12.1122 67.2453 14.7434 69.8344 17.035 71.5804C20.9477 74.5618 25.5178 76.2346 27.902 77.1056L34.7651 58.32L41.6281 39.5344C40.537 39.1358 40.03 38.9206 39.8384 38.8319C39.6024 38.7227 40.2757 39.0004 41.2778 39.764C42.3777 40.6021 44.1398 42.2277 45.5306 44.8646C46.9753 47.6038 47.4182 50.2909 47.4182 52.3591H27.4182ZM34.7651 58.32L28.0172 77.1473C30.0262 77.8673 29.074 77.8724 27.5306 76.3317C26.6046 75.4073 25.5987 74.0594 24.8795 72.2996C24.1662 70.5541 23.9725 68.9852 23.9725 67.8852H43.9725H63.9725C63.9725 60.3964 61.1916 53.4148 55.7902 48.0228C51.171 43.4116 45.6151 40.963 41.513 39.4927L34.7651 58.32ZM43.9725 67.8852H23.9725C23.9725 64.9587 25.0204 62.2519 26.6743 60.2341C28.3042 58.2454 30.0915 57.4125 31.0771 57.1188L36.7885 76.286L42.4999 95.4531C54.1655 91.9771 63.9725 81.8174 63.9725 67.8852H43.9725ZM36.7885 76.286L32.294 56.7975C27.6456 57.8696 23.4971 60.3597 20.3796 63.8565L35.3079 77.1661L50.2361 90.4757C47.9056 93.0897 44.7909 94.9654 41.283 95.7744L36.7885 76.286ZM35.3079 77.1661L20.3796 63.8565C17.2666 67.348 15.3228 71.6794 14.746 76.2488L34.5885 78.7535L54.4311 81.2582C54.0037 84.6438 52.5621 87.8669 50.2361 90.4757L35.3079 77.1661ZM34.5885 78.7535H14.5885V80.2091H34.5885H54.5885V78.7535H34.5885ZM34.5885 80.2091L14.6581 81.8756C14.4543 79.4387 14.7475 76.9797 15.5266 74.649L34.4949 80.9896L53.4632 87.3302C54.4099 84.498 54.7669 81.5075 54.519 78.5425L34.5885 80.2091ZM34.4949 80.9896L15.5266 74.649C16.306 72.3172 17.5605 70.1487 19.2326 68.2899L34.1016 81.6657L48.9706 95.0415C50.9938 92.7925 52.5161 90.1634 53.4632 87.3302L34.4949 80.9896ZM34.1016 81.6657L19.2326 68.2899C20.906 66.4296 22.964 64.9181 25.2903 63.8747L33.4751 82.1232L41.6599 100.372C44.4614 99.1153 46.9461 97.2921 48.9706 95.0415L34.1016 81.6657ZM33.4751 82.1232L25.2903 63.8747C27.6177 62.8308 30.1495 62.2848 32.7212 62.2848L32.7212 82.2848L32.7212 102.285C35.8121 102.285 38.8572 101.629 41.6599 100.372L33.4751 82.1232ZM32.7212 82.2848L32.7212 62.2848C35.2925 62.2848 37.8243 62.8306 40.1521 63.8747L31.9673 82.1232L23.7826 100.372C26.5856 101.629 29.6309 102.285 32.7212 102.285L32.7212 82.2848ZM31.9673 82.1232L40.1521 63.8747C42.4784 64.9181 44.5364 66.4296 46.2099 68.2899L31.3408 81.6657L16.4718 95.0415C18.4964 97.2921 20.9811 99.1153 23.7826 100.372L31.9673 82.1232ZM31.3408 81.6657L46.2099 68.2899C47.8832 70.15 49.137 72.319 49.9159 74.649L30.9476 80.9896L11.9793 87.3302C12.9257 90.1617 14.4474 92.7911 16.4718 95.0415L31.3408 81.6657ZM30.9476 80.9896L49.9159 74.649C50.695 76.9797 50.9882 79.4387 50.7844 81.8756L30.854 80.2091L10.9235 78.5425C10.6756 81.5075 11.0325 84.498 11.9793 87.3302L30.9476 80.9896ZM30.854 80.2091V60.2091H30.7181V80.2091V100.209H30.854V80.2091Z" fill="black" mask="url(#path-5-inside-3_7071_804)"/>
</svg>
