<svg width="30" height="30" viewBox="0 0 30 30" fill="none" xmlns="http://www.w3.org/2000/svg">
<path d="M16.4689 23.7004C16.1257 23.3571 15.5692 23.3571 15.2259 23.7004C14.8827 24.0436 14.8827 24.6001 15.2259 24.9434L16.4689 23.7004ZM5.05669 14.7741C5.39993 15.1173 5.95642 15.1173 6.29965 14.7741C6.64289 14.4308 6.64289 13.8743 6.29965 13.5311L5.05669 14.7741ZM14.1526 5.67817L14.7741 6.29965C14.9388 6.13482 15.0315 5.91127 15.0315 5.67817C15.0315 5.44507 14.9388 5.22151 14.7741 5.05669L14.1526 5.67817ZM24.3218 15.8474L24.9434 15.2259C24.7785 15.0612 24.5549 14.9685 24.3218 14.9685C24.0887 14.9685 23.8652 15.0612 23.7004 15.2259L24.3218 15.8474ZM10.7063 7.88148C10.3631 8.22472 10.3631 8.78121 10.7063 9.12444C11.0495 9.46768 11.606 9.46768 11.9492 9.12444L10.7063 7.88148ZM20.8755 18.0507C20.5323 18.394 20.5323 18.9505 20.8755 19.2938C21.2188 19.637 21.7753 19.637 22.1186 19.2938L20.8755 18.0507ZM22.6017 25.5871C22.9475 25.2463 22.9516 24.6899 22.611 24.3441C22.2703 23.9984 21.7138 23.9941 21.3681 24.3348L22.6017 25.5871ZM24.2899 21.4137C23.9488 21.759 23.9523 22.3155 24.2977 22.6566C24.643 22.9977 25.1995 22.9942 25.5405 22.6488L24.2899 21.4137ZM6.75157 5.05669L5.05669 6.75157L6.29965 7.99453L7.99453 6.29965L6.75157 5.05669ZM15.2259 24.9434C16.0073 25.7248 16.6546 26.3746 17.2361 26.8182C17.8379 27.2774 18.4713 27.5977 19.2371 27.5977V25.8398C19.0102 25.8398 18.7478 25.7606 18.3023 25.4208C17.8366 25.0655 17.2855 24.5169 16.4689 23.7004L15.2259 24.9434ZM5.05669 6.75157C4.27528 7.53298 3.62539 8.18023 3.18173 8.76171C2.72259 9.36348 2.40234 9.99695 2.40234 10.7628H4.16016C4.16016 10.5358 4.23939 10.2734 4.57923 9.82798C4.93454 9.36227 5.48311 8.81107 6.29965 7.99453L5.05669 6.75157ZM6.29965 13.5311C5.48311 12.7145 4.93454 12.1633 4.57923 11.6976C4.23939 11.2522 4.16016 10.9898 4.16016 10.7628H2.40234C2.40234 11.5287 2.72259 12.1621 3.18173 12.7639C3.62539 13.3454 4.27528 13.9927 5.05669 14.7741L6.29965 13.5311ZM14.7741 5.05669C13.9927 4.27528 13.3454 3.62539 12.7639 3.18173C12.1621 2.72259 11.5287 2.40234 10.7628 2.40234V4.16016C10.9898 4.16016 11.2522 4.23939 11.6976 4.57923C12.1633 4.93454 12.7145 5.48311 13.5311 6.29965L14.7741 5.05669ZM7.99453 6.29965C8.81107 5.48311 9.36227 4.93454 9.82798 4.57923C10.2734 4.2394 10.5358 4.16016 10.7628 4.16016V2.40234C9.99695 2.40234 9.36349 2.72259 8.76171 3.18173C8.18023 3.62539 7.53298 4.27528 6.75157 5.05669L7.99453 6.29965ZM23.7004 16.4689C24.5169 17.2855 25.0655 17.8366 25.4208 18.3023C25.7606 18.7478 25.8398 19.0102 25.8398 19.2371H27.5977C27.5977 18.4713 27.2774 17.8379 26.8182 17.2361C26.3746 16.6546 25.7248 16.0073 24.9434 15.2259L23.7004 16.4689ZM13.5311 5.05669L10.7063 7.88148L11.9492 9.12444L14.7741 6.29965L13.5311 5.05669ZM23.7004 15.2259L20.8755 18.0507L22.1186 19.2938L24.9434 16.4689L23.7004 15.2259ZM21.3681 24.3348C20.7702 24.9239 20.3479 25.3096 19.9905 25.5519C19.6541 25.7801 19.4344 25.8398 19.2371 25.8398V27.5977C19.8902 27.5977 20.4497 27.3645 20.9771 27.0067C21.4839 26.6631 22.0102 26.1698 22.6017 25.5871L21.3681 24.3348ZM25.5405 22.6488C26.1375 22.0444 26.642 21.5096 26.9929 20.9974C27.3582 20.4642 27.5977 19.899 27.5977 19.2371H25.8398C25.8398 19.4366 25.7787 19.6596 25.5429 20.0038C25.2926 20.3689 24.8952 20.8007 24.2899 21.4137L25.5405 22.6488Z" fill="#F0851D"/>
<path d="M17.7657 5.71718L18.8518 4.631C20.6515 2.83133 23.5693 2.83133 25.369 4.631C27.1686 6.43064 27.1686 9.34846 25.369 11.1481L24.2828 12.2343M17.7657 5.71718C17.7657 5.71718 17.9014 8.02533 19.938 10.0619C21.9746 12.0985 24.2828 12.2343 24.2828 12.2343M17.7657 5.71718L15 8.48288M24.2828 12.2343L18.118 18.3991L14.4859 22.0313L14.297 22.2202C13.6206 22.8964 13.2825 23.2347 12.9096 23.5255C12.4697 23.8686 11.9938 24.1628 11.4902 24.4028C11.0633 24.6062 10.6096 24.7574 9.70216 25.0598L5.85694 26.3416M5.85694 26.3416L4.917 26.655C4.47044 26.8038 3.97812 26.6876 3.64527 26.3548C3.31242 26.0218 3.19621 25.5295 3.34506 25.0831L3.65837 24.1431M5.85694 26.3416L3.65837 24.1431M3.65837 24.1431L4.94011 20.2978C5.24259 19.3904 5.39382 18.9367 5.59727 18.5098C5.83727 18.0062 6.1314 17.5303 6.47449 17.0904C6.76533 16.7175 7.10351 16.3794 7.77987 15.703L10.8984 12.5844" stroke="#F0851D" stroke-width="1.875" stroke-linecap="round"/>
</svg>
