<svg width="130" height="75" viewBox="0 0 130 75" fill="none" xmlns="http://www.w3.org/2000/svg">
<rect width="130" height="75" rx="12" fill="#F4D0D2"/>
<path d="M75.5462 36.0119C75.5469 36.0604 75.5469 36.1149 75.5469 36.2239V42.6269C75.5469 45.1089 73.823 47.2579 71.4002 47.7963C67.1848 48.7331 62.8152 48.7331 58.5998 47.7963C56.177 47.2579 54.4531 45.1089 54.4531 42.6269V36.2239C54.4531 36.1149 54.4531 36.0604 54.4538 36.0119C54.4982 32.7891 56.7282 30.0092 59.8646 29.2667C59.9118 29.2555 59.965 29.2437 60.0714 29.2201C60.1694 29.1983 60.2184 29.1874 60.2669 29.1769C63.3859 28.4983 66.6141 28.4983 69.7331 29.1769C69.7816 29.1874 69.8306 29.1983 69.9286 29.2201C70.0351 29.2437 70.0883 29.2555 70.1354 29.2667C71.6734 29.6308 72.9934 30.4848 73.9446 31.6406" stroke="#313131" stroke-width="1.875" stroke-linecap="round"/>
<path d="M71.4453 41.6016V43.3594" stroke="#313131" stroke-width="1.875" stroke-linecap="round"/>
<path d="M69.6391 28.7109C69.3602 27.0482 67.9141 25.7812 66.1721 25.7812H63.8283C62.0864 25.7812 60.6403 27.0482 60.3613 28.7109" stroke="#313131" stroke-width="1.875" stroke-linecap="round"/>
<path d="M54.4531 39.8438C56.345 40.6846 58.3123 41.2886 60.3125 41.6555M75.5469 39.8438C72.1896 41.3359 68.5948 42.0819 65 42.0819" stroke="#313131" stroke-width="1.875" stroke-linecap="round"/>
<path d="M62.6562 38.6719H67.3438" stroke="#313131" stroke-width="1.875" stroke-linecap="round"/>
</svg>
