<svg width="130" height="75" viewBox="0 0 130 75" fill="none" xmlns="http://www.w3.org/2000/svg">
<rect width="130" height="75" rx="12" fill="#FCE7D2"/>
<path d="M62.4016 27.5387C64.0668 26.7579 65.933 26.7579 67.5983 27.5387L75.4395 31.2148C77.1452 32.0144 77.1452 34.7825 75.4395 35.5821L67.5984 39.2582C65.9332 40.0389 64.067 40.0389 62.4017 39.2582L54.5605 35.5821C52.8548 34.7824 52.8549 32.0144 54.5605 31.2148L57.9687 29.6169" stroke="#313131" stroke-width="1.875" stroke-linecap="round"/>
<path d="M53.2812 33.3984V39.8438" stroke="#313131" stroke-width="1.875" stroke-linecap="round"/>
<path d="M65 48.0469C62.8953 48.0469 60.1411 46.7329 58.4203 45.78C57.3869 45.2077 56.7969 44.1016 56.7969 42.9204V36.9141M73.2031 36.9141V42.9204C73.2031 44.1016 72.6131 45.2077 71.5797 45.78C70.9582 46.1242 70.2017 46.5155 69.3897 46.875" stroke="#313131" stroke-width="1.875" stroke-linecap="round"/>
</svg>
