<svg width="16" height="16" viewBox="0 0 16 16" fill="none" xmlns="http://www.w3.org/2000/svg">
<g clip-path="url(#clip0_8585_3633)">
<path d="M13.2654 8.12702C13.2569 8.09898 13.2445 8.07426 13.2297 8.05236C13.3954 7.5365 13.4852 6.98664 13.4852 6.41574C13.4852 3.46305 11.0914 1.06921 8.13872 1.06921C5.18604 1.06921 2.7922 3.46305 2.7922 6.41574C2.7922 6.993 2.88405 7.54875 3.05334 8.06959C3.04326 8.08723 3.03424 8.10596 3.02784 8.12705L1.22446 14.0708C1.04574 14.6591 1.72698 15.1247 2.22897 14.7748L3.95422 13.5733C4.23601 13.377 4.63462 13.4898 4.75989 13.7964L5.48221 15.5644C5.73116 16.1739 6.62712 16.1347 6.81822 15.5046L7.9549 11.7587C8.01595 11.7608 8.0772 11.7622 8.13875 11.7622C8.20554 11.7622 8.27196 11.7606 8.33815 11.7582L9.47477 15.5046C9.6663 16.1346 10.5614 16.1738 10.8107 15.5646L11.5333 13.7964C11.6586 13.4897 12.057 13.377 12.3391 13.5733L14.0643 14.7748C14.5663 15.1246 15.2475 14.6591 15.0688 14.0706L13.2654 8.12702ZM6.30658 15.3493C6.26188 15.4967 6.03613 15.5066 5.97715 15.3622L5.25483 13.5941C4.99889 12.9678 4.20904 12.7442 3.64866 13.1345L1.92334 14.3361C1.8292 14.4017 1.70787 14.3188 1.73604 14.226L3.34516 8.9226C3.55245 9.27553 3.8025 9.60538 4.08943 9.90687C4.92013 10.8695 6.08833 11.5324 7.41015 11.7126L6.30658 15.3493ZM7.82761 11.2173C7.81258 11.2135 7.79713 11.2105 7.781 11.2093C6.53634 11.1175 5.39546 10.5495 4.56955 9.63458C4.5433 9.60826 4.51749 9.58169 4.49195 9.55494C3.76591 8.71227 3.32686 7.61532 3.32686 6.41574C3.32686 3.75834 5.48133 1.60388 8.13872 1.60388C10.7961 1.60388 12.9506 3.75834 12.9506 6.41574C12.9506 7.69959 12.4477 8.86593 11.6283 9.72874C11.617 9.73946 11.6058 9.75039 11.5943 9.76104C10.7732 10.6037 9.68839 11.1184 8.5112 11.2086C8.49567 11.2098 8.48082 11.2127 8.46628 11.2163C8.35801 11.2236 8.24884 11.2276 8.13872 11.2276C8.03418 11.2276 7.93052 11.2239 7.82761 11.2173ZM14.3699 14.3362L12.6445 13.1345C12.0839 12.7442 11.2943 12.9678 11.0384 13.5941L10.3158 15.3622C10.2567 15.5067 10.0312 15.4968 9.98634 15.3492L8.8824 11.7105C10.1083 11.5399 11.2012 10.954 12.0141 10.0989C12.3784 9.75381 12.6944 9.35746 12.9483 8.92345L14.5571 14.226C14.5853 14.3188 14.464 14.4017 14.3699 14.3362Z" fill="black"/>
<path d="M1.45212 2.40595C1.45212 2.76239 1.98678 2.76239 1.98678 2.40595C1.98678 1.96254 2.34535 1.60397 2.78876 1.60397C3.1452 1.60397 3.1452 1.06931 2.78876 1.06931C2.34535 1.06931 1.98678 0.710736 1.98678 0.267331C1.98678 -0.0891103 1.45212 -0.0891103 1.45212 0.267331C1.45212 0.710736 1.09355 1.06931 0.650143 1.06931C0.293702 1.06931 0.293702 1.60397 0.650143 1.60397C1.09358 1.60397 1.45212 1.96254 1.45212 2.40595ZM1.71947 1.06987C1.79537 1.17087 1.88525 1.26075 1.98625 1.33665C1.88525 1.41256 1.79537 1.50244 1.71947 1.60344C1.64356 1.50244 1.55368 1.41256 1.45268 1.33665C1.55368 1.26075 1.64356 1.17087 1.71947 1.06987Z" fill="black"/>
<path d="M15.3522 4.27718H15.0849V4.00987C15.0849 3.86222 14.9652 3.74255 14.8176 3.74255C14.6699 3.74255 14.5503 3.86222 14.5503 4.00987V4.27718H14.2829C14.1353 4.27718 14.0156 4.39685 14.0156 4.5445C14.0156 4.69214 14.1353 4.81181 14.2829 4.81181H14.5503V5.07913C14.5503 5.22677 14.67 5.34644 14.8176 5.34644C14.9652 5.34644 15.0849 5.22677 15.0849 5.07913V4.81185H15.3522C15.4998 4.81185 15.6195 4.69214 15.6195 4.54453C15.6195 4.39692 15.4998 4.27718 15.3522 4.27718Z" fill="black"/>
<path d="M0.915753 6.68323C0.76792 6.68323 0.648438 6.80299 0.648438 6.95054C0.648438 7.09809 0.76792 7.21786 0.915753 7.21786C1.06359 7.21786 1.18307 7.09809 1.18307 6.95054C1.18307 6.80299 1.06359 6.68323 0.915753 6.68323Z" fill="black"/>
<path d="M12.1448 6.41577C12.1448 4.20143 10.3492 2.40588 8.13488 2.40588C5.92055 2.40588 4.125 4.20143 4.125 6.41577C4.125 8.63029 5.92046 10.4257 8.13488 10.4257C10.3493 10.4257 12.1448 8.63026 12.1448 6.41577ZM4.65963 6.41577C4.65963 4.49673 6.21581 2.94055 8.13485 2.94055C10.0539 2.94055 11.6101 4.49673 11.6101 6.41577C11.6101 8.335 10.054 9.89099 8.13485 9.89099C6.21572 9.89099 4.65963 8.335 4.65963 6.41577Z" fill="black"/>
<path d="M8.40078 8.82327L8.40234 8.54678C8.69857 8.48798 8.96592 8.33081 9.162 8.09917C9.50829 7.68966 9.42981 7.06807 9.00445 6.73729L8.40588 6.27158L8.40259 4.81467C8.71718 4.92303 8.94327 5.22139 8.94327 5.57288C8.94327 5.72053 9.06294 5.8402 9.21059 5.8402C9.35823 5.8402 9.4779 5.72053 9.4779 5.57288C9.4779 4.92357 9.01504 4.38276 8.40134 4.26175L8.40078 4.00903C8.40043 3.86139 8.28048 3.74197 8.13284 3.74231C7.98519 3.74265 7.86577 3.86261 7.86612 4.01025L7.86668 4.26494C7.57571 4.32572 7.3136 4.48166 7.12031 4.70995C6.77414 5.11939 6.85262 5.74102 7.2782 6.07168L7.87182 6.5335L7.87389 7.44487L7.87082 7.99131C7.56102 7.88032 7.33932 7.58419 7.33932 7.23624C7.33932 7.08859 7.21965 6.96892 7.072 6.96892C6.92436 6.96892 6.80469 7.08859 6.80469 7.23624C6.80469 7.8806 7.26078 8.41846 7.86771 8.54474L7.86615 8.8203C7.86533 8.96794 7.98431 9.0883 8.13196 9.08911C8.27957 9.08993 8.39993 8.97092 8.40078 8.82327ZM7.60638 5.64957C7.4167 5.50218 7.38211 5.22841 7.52847 5.05527C7.6201 4.94706 7.73705 4.86621 7.86793 4.81887L7.87028 5.85489L7.60638 5.64957ZM8.67617 7.1593C8.86577 7.30672 8.90032 7.58058 8.75384 7.75385C8.66023 7.86444 8.53996 7.94667 8.40545 7.99357L8.40852 7.44578L8.40739 6.95022L8.67617 7.1593Z" fill="black"/>
</g>
<defs>
<clipPath id="clip0_8585_3633">
<rect width="16" height="16" fill="white"/>
</clipPath>
</defs>
</svg>
