<svg width="29" height="38" viewBox="0 0 29 38" fill="none" xmlns="http://www.w3.org/2000/svg">
<path d="M18.747 37.8077L22.0189 32.6922C22.0636 32.6224 22.1291 32.5681 22.2065 32.5368C22.2838 32.5055 22.3691 32.4987 22.4505 32.5174L28.4129 33.9142C28.4852 33.9316 28.5609 33.9289 28.6317 33.9064C28.7025 33.8839 28.7656 33.8424 28.814 33.7867C28.8624 33.7309 28.8943 33.663 28.906 33.5905C28.9178 33.5179 28.9089 33.4436 28.8805 33.3757L23.8188 21.1226L12.9688 25.4892L18.0305 37.741C18.058 37.8092 18.1041 37.8687 18.1637 37.9127C18.2233 37.9568 18.294 37.9838 18.3681 37.9907C18.4422 37.9976 18.5167 37.9841 18.5836 37.9519C18.6505 37.9196 18.707 37.8697 18.747 37.8077Z" fill="url(#paint0_linear_9689_3802)"/>
<path d="M16.6246 25.4935L16.0361 26.9216L13.8563 32.1963L13.7657 32.4137L12.983 34.3121L11.5629 37.7466C11.5356 37.8158 11.4893 37.876 11.4292 37.9205C11.3691 37.965 11.2976 37.992 11.2228 37.9985C11.148 38.005 11.0728 37.9907 11.0058 37.9573C10.9388 37.9238 10.8825 37.8725 10.8434 37.8092L7.5716 32.6936C7.52695 32.6238 7.46146 32.5693 7.38415 32.5377C7.30684 32.5062 7.22152 32.4991 7.13996 32.5174L1.17754 33.9143C1.10519 33.9312 1.02949 33.9282 0.958777 33.9054C0.888064 33.8827 0.825075 33.8411 0.776737 33.7853C0.728399 33.7295 0.696586 33.6616 0.684798 33.5891C0.673011 33.5166 0.681706 33.4422 0.709925 33.3743L5.77165 21.1226L16.6246 25.4935Z" fill="url(#paint1_linear_9689_3802)"/>
<path d="M14.5601 26.8036C22.1182 26.8036 28.2452 20.8034 28.2452 13.4018C28.2452 6.00018 22.1182 0 14.5601 0C7.00204 0 0.875 6.00018 0.875 13.4018C0.875 20.8034 7.00204 26.8036 14.5601 26.8036Z" fill="url(#paint2_linear_9689_3802)"/>
<path d="M14.5657 25.1105C21.169 25.1105 26.5221 19.8683 26.5221 13.4017C26.5221 6.93509 21.169 1.69287 14.5657 1.69287C7.96242 1.69287 2.60938 6.93509 2.60938 13.4017C2.60938 19.8683 7.96242 25.1105 14.5657 25.1105Z" fill="url(#paint3_linear_9689_3802)"/>
<path style="mix-blend-mode:screen" d="M18.7712 3.5719C16.9306 2.86295 14.9269 2.66073 12.9773 2.98714C11.0276 3.31354 9.20638 4.15614 7.71076 5.42366C6.63356 6.33596 5.75046 7.44715 5.11189 8.69375C4.47333 9.94036 4.09181 11.298 3.98915 12.689C3.88648 14.08 4.06467 15.4773 4.51354 16.8008C4.96242 18.1244 5.67317 19.3484 6.60521 20.4029C7.54245 21.4661 8.68635 22.3359 9.97028 22.9619C11.2542 23.5878 12.6525 23.9572 14.0837 24.0487L18.7712 3.5719Z" fill="url(#paint4_linear_9689_3802)"/>
<path d="M12.1111 25.6859C12.0726 25.4108 11.9994 25.1414 11.8933 24.8839C11.8655 24.8125 11.836 24.7443 11.8065 24.6722C11.777 24.6 11.7459 24.5294 11.714 24.4596C11.6493 24.3193 11.5805 24.1838 11.51 24.0587C11.4419 23.9304 11.3661 23.8062 11.2832 23.6865C11.2627 23.6561 11.2414 23.6264 11.2193 23.5967L11.1866 23.5518L11.1546 23.5069C11.1112 23.4459 11.067 23.3882 11.022 23.3329C10.9769 23.2775 10.9311 23.2246 10.8852 23.1725L10.8172 23.0995C10.7954 23.0765 10.7733 23.054 10.7509 23.0321C10.6732 22.9542 10.5844 22.8877 10.4872 22.8348C10.4516 23.1548 10.4704 23.4784 10.5429 23.7924C10.582 23.9669 10.6337 24.1384 10.6977 24.3057C10.7296 24.3907 10.764 24.4749 10.8017 24.5575C10.8393 24.6401 10.8836 24.7179 10.9237 24.7925C10.9949 24.9169 11.0771 25.0349 11.1694 25.1453C11.2611 25.2518 11.3604 25.3518 11.4666 25.4445C11.5157 25.4885 11.5671 25.5299 11.6206 25.5688C11.6362 25.58 11.6509 25.5888 11.6673 25.5992L11.5706 25.5744C11.4887 25.5535 11.4069 25.5359 11.3299 25.5102L10.8533 25.3651C10.696 25.3113 10.5404 25.2544 10.384 25.1991L10.2661 25.1574L10.1514 25.11L9.96718 25.0347C9.96995 25.0263 9.97187 25.0177 9.97291 25.009C9.9841 24.7366 9.96044 24.464 9.90248 24.1974C9.87464 24.0522 9.84188 23.9007 9.80339 23.7563C9.78456 23.6833 9.76409 23.612 9.74279 23.5414L9.67728 23.3329C9.63302 23.198 9.58079 23.0657 9.52086 22.9367C9.48974 22.8725 9.45944 22.8052 9.42832 22.7394C9.3972 22.6736 9.36281 22.6111 9.32842 22.5501C9.29402 22.4892 9.25799 22.4323 9.22277 22.3761C9.18756 22.32 9.15234 22.2654 9.11631 22.2157C9.0824 22.1693 9.04547 22.1251 9.00576 22.0834C8.98823 22.0642 8.96964 22.046 8.95007 22.0289C8.93123 22.0112 8.91322 21.9944 8.8952 21.9799C8.87297 22.049 8.85438 22.1191 8.83951 22.1901C8.82395 22.2622 8.81249 22.3384 8.80348 22.417C8.7849 22.5826 8.77888 22.7494 8.78547 22.9158C8.7922 23.0911 8.81246 23.2656 8.84606 23.4379C8.87736 23.6105 8.92227 23.7805 8.98037 23.9464C9.02796 24.0777 9.08629 24.2051 9.1548 24.3273C9.18836 24.3882 9.22555 24.4471 9.26618 24.5037C9.3063 24.5599 9.34807 24.6144 9.38902 24.6641C9.44163 24.7312 9.49881 24.7947 9.56017 24.8542C9.07484 24.6351 8.60338 24.3877 8.14834 24.1132C8.10412 24.0859 8.06071 24.057 8.01649 24.033C8.02251 24.0236 8.02694 24.0133 8.02959 24.0025C8.08674 23.7415 8.11013 23.4745 8.0992 23.2078C8.0992 23.061 8.09101 22.9118 8.07873 22.7651C8.06645 22.6183 8.04761 22.4764 8.02796 22.3344C8.00772 22.197 7.979 22.061 7.94197 21.927C7.90842 21.7895 7.86769 21.6538 7.81995 21.5204C7.77623 21.399 7.72621 21.2799 7.67008 21.1635C7.62238 21.0688 7.56326 20.9799 7.49401 20.8989C7.35639 21.1785 7.26833 21.479 7.2336 21.7875C7.22295 21.8677 7.21312 21.9591 7.20903 22.0441C7.20493 22.1291 7.20411 22.2165 7.20493 22.3031C7.20575 22.3897 7.21148 22.4764 7.21804 22.563C7.22434 22.6479 7.235 22.7325 7.24997 22.8164C7.29643 23.0837 7.38892 23.3413 7.5235 23.5783C7.55462 23.6344 7.58819 23.6889 7.62095 23.7387C7.63651 23.7619 7.65125 23.7836 7.66681 23.8052C7.27677 23.5417 6.90143 23.258 6.54242 22.9551C6.46053 22.8886 6.386 22.8196 6.30902 22.7514C6.3168 22.7421 6.3234 22.7319 6.32868 22.721C6.42687 22.4777 6.49372 22.2234 6.52768 21.9639C6.55061 21.8211 6.56862 21.676 6.58009 21.5324C6.58582 21.4603 6.59074 21.3889 6.59319 21.3183C6.59565 21.2477 6.60056 21.1756 6.60138 21.1066C6.60398 20.9706 6.59851 20.8346 6.585 20.6992C6.57272 20.5596 6.55716 20.4177 6.53259 20.2862C6.52604 20.2533 6.51949 20.2204 6.51212 20.1891C6.51212 20.1731 6.50475 20.1571 6.50147 20.1418L6.49165 20.0945C6.47772 20.0319 6.46217 19.9718 6.44415 19.9165C6.42814 19.8636 6.40844 19.8119 6.38519 19.7617C6.37454 19.7376 6.36307 19.716 6.35079 19.6943C6.34049 19.6731 6.329 19.6525 6.31639 19.6326C6.27627 19.6863 6.2345 19.7448 6.19929 19.8074C6.16407 19.8699 6.12804 19.9341 6.09447 20.0031C6.0257 20.1485 5.96768 20.2986 5.92085 20.4522C5.8971 20.5324 5.87335 20.6126 5.85616 20.6968C5.83896 20.781 5.82258 20.862 5.8103 20.9462C5.79801 21.0304 5.78819 21.1154 5.78082 21.2004C5.77345 21.2854 5.76853 21.3696 5.76935 21.4506C5.77111 21.7163 5.81845 21.9798 5.90939 22.2302C5.93995 22.3168 5.97549 22.4017 6.01585 22.4844C5.60602 22.0993 5.223 21.6878 4.86935 21.2525C4.88073 21.2442 4.89044 21.2339 4.89801 21.2221C5.03298 21.0023 5.13866 20.7664 5.21248 20.5203C5.25834 20.3864 5.29847 20.2485 5.33368 20.1113C5.35088 20.0424 5.36644 19.9734 5.38118 19.906C5.39592 19.8387 5.4082 19.7697 5.42131 19.7031C5.44625 19.5706 5.46293 19.4367 5.47126 19.3021C5.47536 19.234 5.47863 19.1658 5.48273 19.0968C5.48682 19.0279 5.48273 18.9605 5.48273 18.8947C5.48273 18.829 5.47781 18.764 5.4729 18.7031C5.46799 18.6421 5.46389 18.5796 5.4557 18.5234C5.44329 18.4219 5.41569 18.3228 5.37381 18.2291C5.16374 18.4445 4.99111 18.6921 4.8628 18.9621C4.82513 19.0359 4.79319 19.1105 4.76289 19.1875C4.73259 19.2645 4.70393 19.343 4.681 19.4232C4.62892 19.5805 4.58895 19.7413 4.56143 19.9044C4.54107 20.0339 4.53148 20.1648 4.53277 20.2958C4.53239 20.3612 4.53622 20.4265 4.54423 20.4915C4.5516 20.5556 4.56061 20.6182 4.57126 20.6799C4.5819 20.7417 4.59501 20.8002 4.60975 20.8564C4.6163 20.8847 4.62367 20.9114 4.63186 20.9366C4.63186 20.943 4.63186 20.9478 4.63759 20.9542C4.30375 20.5168 3.99877 20.0591 3.72449 19.5836C3.73816 19.5772 3.7504 19.5682 3.76052 19.5572C3.92622 19.3647 4.06629 19.1523 4.17735 18.9252C4.23877 18.8049 4.30183 18.6766 4.35752 18.5483C4.41321 18.42 4.46316 18.2917 4.50574 18.1666C4.55015 18.0425 4.58761 17.9161 4.61794 17.788C4.6335 17.7223 4.64742 17.6565 4.65888 17.5915C4.67035 17.5266 4.68509 17.46 4.6941 17.3959C4.71326 17.2754 4.72339 17.1537 4.7244 17.0318C4.72956 16.9315 4.72019 16.8311 4.69655 16.7334C4.58308 16.8149 4.47778 16.9067 4.38209 17.0077C4.27311 17.1214 4.17395 17.2437 4.08563 17.3734C3.89793 17.6405 3.74935 17.9321 3.64423 18.2395C3.62376 18.2997 3.60574 18.3614 3.59018 18.424C3.57435 18.4869 3.56205 18.5506 3.55333 18.6149C3.53646 18.7398 3.52879 18.8658 3.5304 18.9918C3.5304 19.0527 3.5304 19.1129 3.53859 19.169C3.5435 19.2099 3.55006 19.2492 3.55743 19.2869C3.29992 18.8114 3.07397 18.3201 2.88099 17.8161C2.8975 17.8123 2.91291 17.8049 2.92603 17.7944C3.1154 17.6321 3.28396 17.4479 3.42803 17.2459C3.50993 17.1368 3.58445 17.0229 3.65652 16.9083C3.72858 16.7936 3.80147 16.6749 3.86289 16.5594C3.98459 16.3283 4.08411 16.0867 4.16016 15.8376C4.17654 15.7775 4.19701 15.7165 4.21093 15.658C4.22485 15.5994 4.23877 15.5425 4.24778 15.488C4.25634 15.4365 4.26154 15.3845 4.26334 15.3324C4.26664 15.2865 4.26664 15.2404 4.26334 15.1944C4.20404 15.2241 4.14636 15.2567 4.09055 15.2923C4.03158 15.33 3.97426 15.3725 3.91694 15.4142C3.79688 15.508 3.68385 15.6101 3.57872 15.7197C3.35623 15.9515 3.16746 16.2122 3.01775 16.4944C3.00301 16.5217 2.98827 16.5498 2.97517 16.5786C2.96206 16.6075 2.94978 16.6356 2.93831 16.6645C2.91538 16.723 2.89409 16.7823 2.87526 16.8433C2.83901 16.9617 2.81164 17.0826 2.79337 17.205C2.78002 17.3076 2.774 17.4111 2.77535 17.5145C2.6435 17.1392 2.52967 16.7591 2.43222 16.3725L2.34377 15.982C2.36271 15.9815 2.38124 15.9765 2.39782 15.9675C2.60495 15.8389 2.79455 15.685 2.96206 15.5096C3.15234 15.3224 3.32756 15.121 3.48618 14.9073C3.56361 14.806 3.63472 14.7003 3.6991 14.5906C3.73268 14.5352 3.76379 14.4783 3.79328 14.4221C3.82276 14.366 3.85552 14.3075 3.88336 14.2513C3.93572 14.1454 3.97979 14.0358 4.01521 13.9233C4.04933 13.8317 4.07001 13.7359 4.07663 13.6386C3.94926 13.6831 3.8262 13.7387 3.70893 13.8046C3.64669 13.8399 3.58281 13.8784 3.51975 13.9201C3.4567 13.9618 3.3961 14.0067 3.3355 14.054C3.08672 14.2473 2.86627 14.4732 2.68035 14.7253C2.60708 14.8269 2.54244 14.9341 2.48709 15.0461C2.43488 15.1553 2.39108 15.2681 2.35606 15.3837C2.33886 15.4398 2.32412 15.4944 2.31183 15.5481C2.30014 15.5962 2.29166 15.6449 2.28645 15.6941L2.27908 15.6556L2.23731 15.415C2.20537 15.2546 2.18981 15.0942 2.16852 14.929L2.13822 14.6884C2.13003 14.6082 2.12512 14.528 2.11857 14.4478L2.09973 14.2032L2.09564 14.1543C2.11571 14.158 2.13643 14.156 2.15542 14.1487C2.25919 14.1052 2.35939 14.054 2.45515 13.9955C2.55915 13.9329 2.66561 13.8616 2.77044 13.7838C2.97953 13.6267 3.17735 13.4557 3.36252 13.2721C3.53881 13.0922 3.69781 12.8967 3.8375 12.6883C3.90395 12.5926 3.96281 12.492 4.01357 12.3875C4.05864 12.3031 4.09144 12.213 4.11102 12.1197C3.98205 12.1458 3.85571 12.1831 3.73349 12.2311C3.66798 12.2568 3.60083 12.2857 3.5345 12.3178C3.46816 12.3498 3.40265 12.3843 3.33631 12.4228C3.20201 12.5002 3.0729 12.5859 2.94978 12.6795C2.82906 12.7743 2.71421 12.876 2.60583 12.9842C2.58454 13.0059 2.56407 13.0275 2.54359 13.05C2.52312 13.0724 2.50428 13.0957 2.48545 13.1189C2.44778 13.1662 2.41092 13.216 2.37653 13.2657C2.34213 13.3154 2.3102 13.3675 2.27908 13.4197C2.249 13.4701 2.22166 13.522 2.19719 13.5753C2.15257 13.6711 2.11507 13.77 2.08499 13.8712C2.08499 13.8768 2.08499 13.8808 2.08499 13.8864L2.07353 13.4678C2.07353 13.3876 2.07353 13.3074 2.07353 13.2224V13.0989C2.07353 13.058 2.07353 13.0187 2.07353 12.977L2.08499 12.7316L2.09154 12.6089L2.10137 12.4862C2.10137 12.4413 2.11038 12.3964 2.11365 12.3514C2.13372 12.3571 2.15501 12.3571 2.17507 12.3514C2.28187 12.3239 2.38622 12.288 2.48709 12.244C2.596 12.1975 2.70902 12.1421 2.82121 12.0836C2.9334 12.025 3.04314 11.9553 3.14878 11.8855C3.25442 11.8157 3.36416 11.7419 3.46243 11.6674C3.5607 11.5928 3.65242 11.5166 3.74332 11.4316C3.78918 11.3883 3.83422 11.345 3.87681 11.3001C3.91939 11.2551 3.96443 11.211 4.00538 11.1661C4.15046 11.0164 4.26622 10.8419 4.34687 10.6513C4.07414 10.6723 3.8067 10.7364 3.55497 10.8413C3.27466 10.955 3.01131 11.1053 2.77207 11.288C2.5854 11.4339 2.42392 11.6083 2.29382 11.8045C2.23749 11.8915 2.18767 11.9823 2.14477 12.0764C2.14068 12.0868 2.13822 12.0948 2.13413 12.1044C2.18565 11.6047 2.26769 11.1085 2.37981 10.6184C2.39905 10.6295 2.42145 10.6343 2.44368 10.632C2.67124 10.6008 2.89385 10.5415 3.1062 10.4556C3.16434 10.4331 3.22166 10.4091 3.28063 10.385C3.33959 10.3609 3.39773 10.3345 3.45588 10.3048C3.57135 10.2519 3.6819 10.1941 3.78345 10.1348C3.88888 10.0767 3.99061 10.0124 4.08809 9.94231C4.13723 9.90703 4.18718 9.87014 4.23632 9.83325C4.28545 9.79636 4.33295 9.75786 4.37799 9.71937C4.46424 9.64666 4.54626 9.56929 4.62367 9.4876C4.6563 9.4512 4.68666 9.4129 4.71457 9.37291C4.74083 9.33867 4.76386 9.30217 4.78336 9.26384C4.65756 9.25477 4.53118 9.25719 4.40584 9.27106C4.26599 9.28609 4.12748 9.31129 3.99146 9.34645C3.92103 9.36489 3.84815 9.38494 3.77854 9.4082C3.70893 9.43146 3.6385 9.45712 3.56889 9.4884C3.43172 9.54289 3.29871 9.60694 3.17089 9.68007C3.06962 9.73876 2.97348 9.80555 2.88345 9.87976C2.79586 9.95418 2.71376 10.0346 2.63777 10.1204C2.56959 10.1948 2.50872 10.2753 2.45597 10.3609C2.44614 10.3762 2.43959 10.3906 2.43058 10.4059C2.55148 9.92559 2.70022 9.45246 2.87608 8.98877C2.89367 9.00361 2.91592 9.0121 2.93913 9.01283C3.16333 9.01187 3.3865 8.98303 3.60329 8.92701C3.72285 8.89895 3.84405 8.86607 3.96198 8.82837C4.0799 8.79068 4.19455 8.74818 4.30674 8.70567C4.41578 8.66232 4.52215 8.61278 4.62531 8.55731C4.73216 8.50294 4.83578 8.44269 4.93568 8.37686C5.10948 8.2745 5.26269 8.14186 5.38773 7.9855C5.26671 7.96081 5.14362 7.94712 5.02003 7.9446C4.88316 7.94204 4.74629 7.94955 4.61057 7.96705C4.32249 8.0026 4.04051 8.07541 3.77198 8.18359C3.56257 8.27127 3.36899 8.39151 3.19873 8.53966C3.1044 8.61919 3.02001 8.70937 2.94732 8.80832C2.96534 8.76341 2.9809 8.7185 2.99892 8.67439C3.16948 8.26799 3.36081 7.87025 3.57217 7.48266C3.57928 7.49235 3.58831 7.50053 3.59872 7.50673C3.60913 7.51293 3.62071 7.51702 3.63277 7.51875C3.85025 7.54621 4.07043 7.54621 4.28791 7.51875C4.40665 7.50672 4.52786 7.48908 4.6466 7.46742C4.70638 7.4562 4.76453 7.44417 4.82349 7.43133C4.88245 7.4185 4.94059 7.40567 4.9971 7.39124C5.10438 7.36397 5.2133 7.32628 5.32467 7.28618C5.43647 7.24606 5.54583 7.19974 5.65224 7.14744C5.75066 7.10099 5.84537 7.04737 5.93559 6.98704C5.97654 6.95897 6.01749 6.9317 6.05024 6.90684C6.0826 6.88097 6.11272 6.85254 6.14033 6.82183C5.89781 6.74404 5.6437 6.70664 5.38855 6.71116C5.31894 6.71116 5.24851 6.71116 5.17727 6.71758C5.10602 6.72399 5.03395 6.72801 4.96434 6.73843C4.82433 6.75642 4.68565 6.78321 4.54915 6.81863C4.44146 6.84805 4.33653 6.88642 4.2355 6.93331C4.18473 6.95657 4.13477 6.98223 4.08645 7.0087C4.03814 7.03516 3.9931 7.06403 3.94969 7.0929C3.86838 7.14665 3.79119 7.20615 3.71875 7.27094C3.69501 7.2934 3.67535 7.31505 3.65652 7.3367C3.73513 7.19556 3.81703 7.05548 3.90219 6.91647C4.0698 6.6438 4.24778 6.37781 4.43614 6.1185C4.44127 6.13038 4.44911 6.14096 4.45904 6.14944C4.46897 6.15791 4.48074 6.16406 4.49346 6.16742C4.59021 6.19426 4.68911 6.21304 4.78909 6.22356C4.89555 6.23639 5.00775 6.24201 5.12485 6.24521C5.35975 6.24846 5.59458 6.23506 5.8275 6.20512C5.93774 6.18928 6.04708 6.16786 6.15507 6.14096C6.26608 6.11515 6.37545 6.08302 6.48264 6.04472C6.66868 5.98944 6.84274 5.90109 6.99611 5.78408C6.89069 5.73474 6.78109 5.69449 6.66853 5.66378C6.54227 5.6301 6.41361 5.6057 6.28364 5.5908C6.21649 5.58278 6.1477 5.57637 6.07809 5.57236C6.00848 5.56835 5.93805 5.56675 5.86926 5.56755C5.73227 5.56967 5.59554 5.57985 5.4598 5.59802C5.3519 5.61393 5.24559 5.63889 5.14205 5.67261C5.09046 5.68945 5.03887 5.70789 4.98809 5.72714C4.93732 5.74639 4.89146 5.76965 4.8456 5.7929C4.76027 5.83517 4.67816 5.88341 4.59992 5.93726C4.57126 5.95891 4.54587 5.97976 4.51803 6.00061C4.69164 5.76644 4.87235 5.53761 5.06016 5.31412C5.17808 5.17699 5.29847 5.04306 5.42213 4.91314C5.42483 4.92619 5.43082 4.93838 5.43954 4.9486C5.44826 4.95882 5.45944 4.96675 5.47208 4.97168C5.66529 5.0465 5.86763 5.09637 6.07399 5.12005C6.187 5.13528 6.30329 5.14651 6.41794 5.15373C6.47527 5.15373 6.53259 5.15854 6.5891 5.15934C6.6456 5.16015 6.70375 5.15934 6.75944 5.15934C6.86906 5.15799 6.97848 5.14969 7.08701 5.13448C7.19885 5.12243 7.30987 5.10395 7.41949 5.07915L7.50138 5.0599L7.57918 5.04065C7.62914 5.02702 7.67745 5.01178 7.72168 4.99494C7.76451 4.97983 7.80636 4.96216 7.84697 4.94201C7.88333 4.92521 7.91813 4.90535 7.95098 4.88266C7.85443 4.82281 7.75245 4.7718 7.64634 4.73029C7.52775 4.68398 7.40597 4.64592 7.28191 4.61641C7.21722 4.60117 7.15088 4.58754 7.08373 4.57551C7.01658 4.56348 6.95516 4.54182 6.88637 4.54182C6.75258 4.5276 6.61801 4.5217 6.48346 4.52418C6.37755 4.52798 6.27212 4.54004 6.16817 4.56027C6.11573 4.56948 6.0638 4.58125 6.01257 4.59556C5.96262 4.60999 5.91348 4.62603 5.8668 4.64287C5.77884 4.67356 5.69342 4.71083 5.6113 4.75435C5.57526 4.7752 5.54251 4.79605 5.51303 4.8169C5.81685 4.49611 6.13459 4.19056 6.46872 3.90105L6.52359 3.85614C6.52262 3.87032 6.526 3.88446 6.5333 3.89675C6.54059 3.90904 6.55147 3.91891 6.56453 3.92511C6.74273 4.01914 6.93268 4.09005 7.12959 4.13603C7.23605 4.16169 7.34825 4.18735 7.45716 4.2066C7.56608 4.22585 7.67827 4.23948 7.78473 4.2499C8.0011 4.26952 8.21893 4.26791 8.43496 4.24509C8.48819 4.23948 8.54061 4.23226 8.58974 4.22344C8.63888 4.21462 8.68883 4.2066 8.73387 4.19617C8.81599 4.17869 8.89514 4.14979 8.9689 4.11036C8.782 3.96902 8.57328 3.85776 8.35061 3.78075C8.22733 3.7366 8.10122 3.70044 7.97309 3.67248C7.90839 3.65805 7.8437 3.64522 7.77818 3.63479C7.71267 3.62437 7.64961 3.61795 7.58573 3.61234C7.48244 3.60432 7.37866 3.60432 7.27536 3.61234C7.17416 3.62114 7.07373 3.63695 6.97481 3.65965C6.92732 3.67088 6.88064 3.68291 6.83723 3.69574C6.79609 3.70872 6.75564 3.72371 6.71603 3.74065C6.66806 3.76055 6.62178 3.78415 6.57763 3.81123C6.885 3.5546 7.20357 3.3116 7.53332 3.08223C7.53905 3.08767 7.54664 3.09082 7.55462 3.09105C7.62493 3.09368 7.69532 3.08803 7.76426 3.07421C7.80439 3.067 7.84615 3.05657 7.89201 3.04614C7.93787 3.03572 7.98291 3.02369 8.03041 3.01005C8.12541 2.98198 8.22614 2.9459 8.32523 2.9058C8.42502 2.86682 8.52213 2.82154 8.61595 2.77026C8.67409 2.73819 8.73305 2.7037 8.79202 2.66921C8.85098 2.63473 8.90994 2.59944 8.9689 2.56175C9.08601 2.48797 9.20312 2.40777 9.31285 2.32758C9.51674 2.18675 9.70092 2.02039 9.86072 1.83276C9.75534 1.81451 9.64823 1.80779 9.54134 1.81271C9.48052 1.81446 9.41984 1.81928 9.35953 1.82714C9.29729 1.83516 9.23424 1.84639 9.17118 1.85922C8.92536 1.90742 8.68808 1.99064 8.4669 2.10623C8.36154 2.16397 8.26005 2.22826 8.16308 2.2987C8.06877 2.36701 7.97931 2.4415 7.89529 2.52165C7.74569 2.66042 7.62135 2.82315 7.52759 3.00284C7.52114 3.01454 7.51776 3.02763 7.51776 3.04093C7.51776 3.05423 7.52114 3.06732 7.52759 3.07902C7.19238 3.30839 6.86863 3.55246 6.55634 3.81123C6.59476 3.77035 6.62955 3.72635 6.66035 3.6797C6.68246 3.64602 6.70457 3.60833 6.7275 3.56903C6.75043 3.52973 6.77336 3.48883 6.79547 3.44552C6.84227 3.35403 6.88383 3.26006 6.91995 3.16403C6.96184 3.06424 6.99713 2.96191 7.02559 2.85768C7.04197 2.79432 7.05671 2.72776 7.07145 2.6628C7.08619 2.59784 7.10011 2.53047 7.11321 2.46311C7.1386 2.32918 7.15907 2.19044 7.17463 2.05731C7.21031 1.81547 7.21306 1.57006 7.18282 1.32751C7.09679 1.39006 7.01823 1.46188 6.94861 1.54164C6.90814 1.58585 6.87015 1.63217 6.83478 1.68038C6.79874 1.73064 6.76353 1.78277 6.72914 1.83677C6.59658 2.04503 6.49588 2.27118 6.43023 2.50802C6.40067 2.62252 6.37878 2.73878 6.36471 2.85608C6.35038 2.9702 6.34409 3.08515 6.34588 3.20012C6.34644 3.40186 6.38217 3.60202 6.45152 3.79198C6.45574 3.80603 6.46447 3.81838 6.47642 3.82719C6.48837 3.836 6.5029 3.84081 6.51785 3.8409C6.49984 3.85694 6.48018 3.87137 6.46135 3.88741C6.11807 4.18119 5.79008 4.49168 5.47863 4.8177C5.50527 4.77778 5.52934 4.73626 5.5507 4.6934C5.59276 4.6112 5.62968 4.52656 5.66125 4.43997C5.67845 4.39266 5.69483 4.34294 5.70957 4.29241C5.72431 4.24189 5.74069 4.19136 5.75461 4.13843C5.78261 4.03293 5.80368 3.92578 5.81767 3.81764C5.83568 3.68532 5.85124 3.54738 5.86025 3.40543C5.86517 3.33565 5.86844 3.26428 5.8709 3.19371C5.87336 3.12313 5.87581 3.05416 5.87581 2.98519C5.87706 2.85131 5.87105 2.71746 5.8578 2.58421C5.84783 2.46728 5.82784 2.35139 5.79801 2.23775C5.75902 2.27141 5.72235 2.30758 5.68828 2.34602C5.65224 2.38772 5.61785 2.43424 5.58345 2.48316C5.54906 2.53208 5.51548 2.58421 5.48354 2.63874C5.46717 2.66601 5.45161 2.69408 5.43687 2.71894C5.42213 2.7438 5.40739 2.77668 5.39346 2.80635C5.33734 2.92734 5.28893 3.05162 5.24851 3.17847C5.21236 3.29559 5.18499 3.41513 5.16662 3.53615C5.15761 3.5963 5.15106 3.65564 5.14696 3.71579C5.14287 3.77594 5.14123 3.83849 5.14123 3.89864C5.14088 4.0169 5.14854 4.13505 5.16416 4.25231C5.18858 4.45811 5.24955 4.65814 5.34433 4.84337C5.35052 4.85556 5.35979 4.86601 5.37125 4.87373C5.38271 4.88144 5.396 4.88618 5.40984 4.88747C5.28536 5.0198 5.16416 5.15373 5.04378 5.28846C4.85051 5.51355 4.66516 5.74559 4.48773 5.98457C4.50247 5.95169 4.51721 5.91641 4.53031 5.87711C4.56384 5.7884 4.5912 5.69757 4.6122 5.60524C4.62449 5.55472 4.63432 5.50259 4.64414 5.44886C4.65397 5.39512 4.66298 5.34219 4.67035 5.28846C4.68549 5.17812 4.69369 5.06697 4.69492 4.95564C4.69492 4.81851 4.69492 4.67495 4.68673 4.52979C4.68673 4.45682 4.67772 4.38464 4.67281 4.31326C4.66789 4.24189 4.6597 4.16971 4.65151 4.09914C4.63514 3.95799 4.61139 3.81925 4.58436 3.69334C4.55987 3.57524 4.52536 3.45935 4.48118 3.34688C4.32561 3.5336 4.20878 3.74827 4.13723 3.97884C4.09512 4.1065 4.06148 4.23669 4.0365 4.3686C4.01299 4.49216 4.00011 4.61744 3.99801 4.74312C3.99377 4.98934 4.02296 5.23503 4.08481 5.47372C4.11366 5.58333 4.15117 5.69059 4.19701 5.79451C4.23668 5.88564 4.28551 5.97268 4.34278 6.05434C4.35003 6.06541 4.35994 6.07457 4.37165 6.081C4.38336 6.08744 4.39651 6.09095 4.40993 6.09124C4.21994 6.35001 4.0395 6.61573 3.86862 6.8884C3.78672 7.02714 3.69992 7.16749 3.62294 7.30944C3.63113 7.28137 3.63932 7.25249 3.64669 7.22042C3.66833 7.12579 3.68365 7.02989 3.69255 6.93331C3.69746 6.88038 3.70156 6.82585 3.70401 6.77292C3.70647 6.71998 3.70975 6.66144 3.70975 6.6045C3.71112 6.49009 3.7051 6.37572 3.69173 6.26206C3.67699 6.12251 3.6557 5.97655 3.62867 5.82979C3.61475 5.75601 3.60165 5.68303 3.58691 5.61085C3.57217 5.53868 3.55579 5.4657 3.53777 5.39512C3.4802 5.13656 3.38997 4.88601 3.26916 4.64929C3.23885 4.69376 3.21149 4.74011 3.18727 4.78803C3.1584 4.84127 3.13349 4.89648 3.11275 4.95324C3.06615 5.07799 3.02866 5.20582 3.00055 5.33578C2.97433 5.47144 2.95683 5.60858 2.94814 5.74639C2.9403 5.87526 2.94332 6.00455 2.95715 6.13294C2.9637 6.1963 2.97271 6.25965 2.98336 6.32221C2.994 6.38476 3.00874 6.44811 3.0243 6.51067C3.05542 6.63163 3.09426 6.75055 3.14059 6.86674C3.21912 7.07189 3.33388 7.26191 3.47963 7.42813C3.48828 7.43753 3.49891 7.44498 3.51078 7.44996C3.52266 7.45495 3.5355 7.45735 3.54842 7.457C3.33327 7.84538 3.13838 8.24421 2.96452 8.65194C2.94487 8.69845 2.92767 8.74577 2.90883 8.79228C2.9244 8.66753 2.93015 8.54178 2.92603 8.41616C2.91951 8.18539 2.88877 7.95589 2.83431 7.73127C2.76174 7.43856 2.67122 7.1504 2.56325 6.86835C2.5092 6.72881 2.4486 6.59247 2.388 6.46736C2.33187 6.35331 2.26641 6.24388 2.19227 6.14016C2.08184 6.37104 2.01868 6.62089 2.00637 6.87557C1.99737 7.01711 1.99737 7.15907 2.00637 7.30061C2.01662 7.43289 2.03687 7.56424 2.06697 7.69358C2.09751 7.82144 2.13775 7.9469 2.18736 8.0689C2.23435 8.18795 2.28905 8.30394 2.35114 8.41616C2.45971 8.6131 2.6021 8.79025 2.77207 8.93985C2.78139 8.94765 2.7922 8.95358 2.80386 8.9573C2.81552 8.96101 2.82782 8.96244 2.84004 8.9615C2.65896 9.42999 2.5053 9.90821 2.37981 10.3938C2.37981 10.3738 2.37981 10.3545 2.37981 10.3329C2.37489 10.2414 2.36097 10.138 2.34459 10.0289C2.32588 9.91398 2.30045 9.80018 2.26843 9.68809C2.23912 9.57164 2.20192 9.45724 2.15706 9.34565C2.09973 9.2061 2.04159 9.06495 1.97444 8.9222C1.94086 8.85163 1.90565 8.78025 1.86961 8.70968C1.83358 8.63911 1.79837 8.57094 1.76151 8.50357C1.69073 8.37251 1.6131 8.24509 1.52894 8.12184C1.45579 8.01277 1.37362 7.90977 1.28326 7.81388C1.26304 7.86751 1.24663 7.92244 1.23412 7.97828C1.22184 8.03843 1.21201 8.10178 1.20464 8.16755C1.18922 8.30737 1.1862 8.44825 1.19563 8.58858C1.20055 8.66076 1.20792 8.73454 1.21693 8.80672C1.22594 8.8789 1.23822 8.95027 1.25378 9.02085C1.28247 9.1538 1.32078 9.28459 1.36843 9.41221C1.41884 9.53764 1.47737 9.65979 1.54368 9.77791C1.57644 9.83672 1.61083 9.89366 1.64687 9.94873C1.6829 10.0041 1.72221 10.0578 1.76151 10.1091C1.89804 10.2951 2.06718 10.4558 2.26106 10.5839C2.28044 10.5963 2.30352 10.6019 2.32658 10.5999C2.20865 11.0977 2.12168 11.602 2.06616 12.11C2.06616 12.094 2.06616 12.0796 2.0596 12.0627C2.03872 11.9599 2.01137 11.8584 1.97771 11.7588C1.90506 11.5276 1.80904 11.3041 1.69109 11.0915C1.53261 10.8145 1.35789 10.5468 1.16779 10.2896C1.00265 10.0545 0.807841 9.84083 0.58799 9.6536C0.54184 9.91978 0.549352 10.1922 0.610102 10.4556C0.624842 10.5286 0.64122 10.6015 0.660875 10.6737C0.680529 10.7459 0.705916 10.8181 0.730484 10.887C0.77676 11.0189 0.834573 11.1466 0.903278 11.2688C0.972022 11.3891 1.04833 11.505 1.13176 11.616C1.21393 11.7231 1.30339 11.8247 1.39955 11.92C1.48874 12.0084 1.58455 12.0901 1.68617 12.1646C1.77664 12.2297 1.87348 12.2858 1.97526 12.3322C1.99551 12.3412 2.01815 12.3437 2.03995 12.3394C2.03586 12.3843 2.03012 12.43 2.02603 12.4757L2.01538 12.5984L2.00883 12.722L1.99573 12.969C1.99573 13.0099 1.99573 13.0492 1.99082 13.0925V13.216C1.99082 13.2962 1.99082 13.3804 1.99082 13.463L1.99982 13.8912C1.99982 13.884 1.99982 13.8776 1.99327 13.8696C1.95841 13.768 1.91655 13.6689 1.86798 13.5728C1.84259 13.5207 1.81229 13.467 1.78608 13.4125C1.75988 13.3579 1.7263 13.3042 1.69354 13.2521C1.66079 13.1999 1.62639 13.1438 1.59036 13.0917C1.57234 13.0652 1.55351 13.0395 1.53467 13.0115C1.51584 12.9834 1.49782 12.9601 1.47898 12.9353C1.38481 12.8118 1.27999 12.6851 1.16943 12.56C1.05887 12.4348 0.949138 12.3129 0.834488 12.1967C0.777163 12.1389 0.717381 12.0828 0.660875 12.029C0.604369 11.9753 0.547044 11.924 0.489719 11.8759C0.384847 11.7866 0.272535 11.7062 0.153958 11.6353C0.146867 11.7624 0.154284 11.8899 0.176069 12.0154C0.203437 12.1607 0.24176 12.3039 0.29072 12.4437C0.388662 12.724 0.529483 12.9882 0.708373 13.2272C0.879361 13.4509 1.0814 13.6501 1.30865 13.8191C1.41227 13.8964 1.52178 13.9658 1.63622 14.0268C1.73771 14.0804 1.84443 14.1239 1.95478 14.1567C1.97407 14.1619 1.99445 14.1619 2.01374 14.1567V14.2056L2.03094 14.4526C2.03668 14.5328 2.04159 14.617 2.04896 14.6988L2.07844 14.9442C2.09891 15.1046 2.11283 15.2722 2.14395 15.4342L2.1849 15.6748L2.19391 15.7253V15.7205C2.16934 15.6764 2.14477 15.6307 2.11693 15.5834C2.08909 15.5361 2.05797 15.4872 2.02439 15.4382C1.95724 15.3388 1.87862 15.2369 1.79591 15.1375C1.7152 15.0362 1.62794 14.94 1.53467 14.8496C1.2926 14.6167 1.03752 14.3972 0.770612 14.192C0.704279 14.1414 0.634669 14.0925 0.569974 14.046C0.505278 13.9995 0.439765 13.9562 0.375069 13.9153C0.256027 13.8387 0.130552 13.7722 0 13.7164C0.0107817 13.846 0.0363265 13.9741 0.0761598 14.0981C0.126166 14.2419 0.186932 14.3818 0.257962 14.5168C0.293995 14.5865 0.332485 14.6555 0.373431 14.7229C0.414378 14.7902 0.461875 14.8552 0.507735 14.9178C0.594925 15.0361 0.690715 15.1481 0.79436 15.253C1.00254 15.4535 1.23654 15.6266 1.49045 15.7679C1.70894 15.8899 1.94758 15.9735 2.19555 16.0149C2.21417 16.017 2.23305 16.0146 2.25042 16.0076L2.3364 16.4022C2.43058 16.7944 2.54605 17.1817 2.6779 17.5635C2.61293 17.4758 2.54207 17.3925 2.46579 17.3141C2.3839 17.2242 2.29218 17.1312 2.19227 17.043C2.14232 16.9981 2.09072 16.9548 2.03831 16.9131L1.95642 16.8513C1.93103 16.8305 1.90483 16.8112 1.87453 16.792C1.59483 16.5911 1.30363 16.4061 1.00237 16.2378C0.853323 16.1576 0.70264 16.0774 0.55769 16.0149C0.484805 15.9836 0.414377 15.9547 0.346406 15.9298C0.278435 15.905 0.212102 15.8841 0.148226 15.8673C0.160715 15.9295 0.178241 15.9907 0.200637 16.0501C0.225205 16.1127 0.254686 16.1785 0.288262 16.2442C0.321838 16.31 0.35869 16.3774 0.398818 16.4447C0.438945 16.5121 0.48071 16.5786 0.531484 16.6436C0.716287 16.8973 0.939401 17.122 1.19318 17.31C1.31443 17.3982 1.44135 17.4785 1.57316 17.5506C1.70379 17.6188 1.83895 17.6783 1.97771 17.7287C2.21608 17.8213 2.46979 17.8702 2.72621 17.873C2.74405 17.8728 2.76152 17.8681 2.77699 17.8594C2.97118 18.3751 3.19876 18.8782 3.45833 19.3655C3.42558 19.3334 3.39118 19.3013 3.35187 19.2693C3.31257 19.2372 3.26261 19.1891 3.21347 19.1522C3.10996 19.0698 3.00197 18.993 2.89 18.922C2.83104 18.8859 2.77617 18.8482 2.71639 18.8137C2.6566 18.7793 2.59764 18.7456 2.53786 18.7151C2.22123 18.5541 1.89591 18.4101 1.56333 18.2836C1.39955 18.2235 1.23576 18.1674 1.08099 18.1232C0.937439 18.0821 0.790604 18.0528 0.64204 18.0358C0.694815 18.1631 0.761539 18.2844 0.841039 18.3975C0.936297 18.527 1.04113 18.6495 1.15469 18.764C1.21365 18.8226 1.27262 18.8811 1.33731 18.9348C1.40201 18.9886 1.46752 19.0407 1.53385 19.0896C1.65787 19.1827 1.78932 19.2658 1.92694 19.3382C2.06514 19.4071 2.20764 19.4674 2.3536 19.5187C2.49482 19.5697 2.63995 19.6097 2.78763 19.6382C3.04374 19.6927 3.30767 19.7025 3.56725 19.667C3.58385 19.6642 3.59954 19.6576 3.61311 19.6478C3.89048 20.1365 4.20015 20.6069 4.54014 21.0561L4.50574 21.0328C4.48281 21.0168 4.45907 21.0007 4.43368 20.9855C4.38372 20.9534 4.33049 20.9213 4.27481 20.8893C4.21912 20.8572 4.15934 20.8275 4.09792 20.797L3.91038 20.7088C3.78358 20.6498 3.65311 20.5986 3.51975 20.5556C3.35106 20.5035 3.18072 20.4506 3.00383 20.4033C2.91538 20.3792 2.82612 20.3567 2.73604 20.3359C2.64678 20.315 2.55588 20.2966 2.46907 20.2773C2.15118 20.2021 1.82481 20.1668 1.49782 20.1723C1.57306 20.2923 1.66149 20.4039 1.76151 20.5051C1.81638 20.5612 1.87371 20.6174 1.93677 20.6711C1.99982 20.7248 2.06779 20.777 2.13658 20.8267C2.20537 20.8764 2.27744 20.9253 2.34951 20.9711C2.38554 20.9943 2.42239 21.016 2.45842 21.0376L2.57144 21.0978C2.71311 21.1711 2.8601 21.234 3.0112 21.2862C3.04805 21.2991 3.0849 21.3111 3.12257 21.3223L3.23804 21.3528C3.31584 21.3712 3.39364 21.3881 3.47062 21.4017C3.62131 21.4292 3.77369 21.4469 3.92676 21.4546C4.19496 21.469 4.46363 21.4367 4.7203 21.3592C4.73418 21.3548 4.74699 21.3477 4.75797 21.3384C5.11661 21.7859 5.50567 22.2092 5.92249 22.6055C5.8406 22.5654 5.7456 22.5253 5.64242 22.4868C5.37687 22.3903 5.1027 22.3184 4.82349 22.2719L4.55488 22.2326C4.46398 22.2205 4.37144 22.2093 4.27808 22.1997C4.18472 22.1901 4.09137 22.182 3.99719 22.1756C3.90301 22.1692 3.81129 22.1612 3.71957 22.1572C3.54225 22.1484 3.36459 22.1484 3.18727 22.1572C3.10538 22.1572 3.02348 22.1668 2.94159 22.1756C2.8679 22.1828 2.79464 22.1938 2.72212 22.2085C2.74177 22.2334 2.76388 22.259 2.78681 22.2839C2.80974 22.3087 2.83677 22.3336 2.86379 22.3577C2.91866 22.4066 2.97844 22.4555 3.04232 22.5036C3.1062 22.5517 3.17499 22.5983 3.24705 22.6432L3.3011 22.6769L3.35761 22.7081C3.3961 22.729 3.43459 22.7498 3.47389 22.7691C3.62989 22.8482 3.79134 22.9165 3.95706 22.9736C4.11239 23.025 4.27144 23.0649 4.43286 23.0931C4.51475 23.1059 4.59091 23.1179 4.67281 23.1244C4.7547 23.1308 4.83659 23.1348 4.91848 23.1364C5.0752 23.1401 5.232 23.1331 5.38773 23.1155C5.66022 23.0877 5.92539 23.0122 6.17063 22.8926C6.18288 22.8861 6.19395 22.8777 6.20338 22.8677C6.28528 22.9375 6.35816 23.0073 6.4376 23.0754C6.80331 23.3872 7.18604 23.6793 7.5841 23.9504L7.49238 23.9255C7.43178 23.9103 7.36872 23.8959 7.30239 23.8838C7.01865 23.831 6.73051 23.8041 6.44169 23.8036L6.16489 23.8084C6.07154 23.8084 5.97654 23.8149 5.88073 23.8205C5.78491 23.8261 5.6891 23.8325 5.59246 23.8413C5.49583 23.8501 5.40411 23.8574 5.30993 23.8678C4.97067 23.898 4.63634 23.968 4.31411 24.0763C4.42714 24.1739 4.55268 24.2567 4.68755 24.3225C4.8408 24.4031 5.00148 24.4695 5.16744 24.5206C5.33828 24.5752 5.51288 24.6178 5.68992 24.6481C5.85542 24.6744 6.02264 24.6888 6.19028 24.6914C6.35476 24.6923 6.51906 24.6805 6.68164 24.6561C6.84011 24.6338 6.99688 24.6012 7.15088 24.5583C7.4203 24.4843 7.67425 24.3643 7.90102 24.2038C7.90976 24.1963 7.91772 24.188 7.92477 24.179C7.96899 24.207 8.0124 24.2367 8.05744 24.2648C8.52223 24.5495 9.00439 24.8061 9.50121 25.0331C9.41276 25.025 9.31777 25.0194 9.21786 25.0162C9.14907 25.0162 9.07782 25.0162 9.00494 25.0162C8.93205 25.0162 8.85671 25.0234 8.78301 25.0266C8.63386 25.034 8.48533 25.0506 8.33833 25.0764C8.15325 25.1108 7.96654 25.1429 7.77573 25.187C7.58492 25.2311 7.39165 25.2809 7.20903 25.3298C7.02641 25.3787 6.84706 25.438 6.68246 25.5006C6.60056 25.5319 6.51867 25.5648 6.44742 25.5992C6.37714 25.6308 6.30854 25.6659 6.24187 25.7043C6.27054 25.7219 6.30084 25.7404 6.33277 25.7572C6.36471 25.7741 6.39911 25.7893 6.43432 25.8054C6.50475 25.8358 6.58091 25.8639 6.66116 25.8904C6.74142 25.9168 6.82495 25.9401 6.91176 25.9617C6.99856 25.9834 7.08946 25.9962 7.18118 26.0099C7.2729 26.0235 7.36462 26.0339 7.45634 26.0411C7.54724 26.0498 7.63856 26.0533 7.72987 26.0516C7.90095 26.0507 8.07174 26.0375 8.24088 26.0123C8.28264 26.005 8.32277 25.9986 8.36454 25.9898L8.48901 25.9617C8.57091 25.9409 8.6528 25.9184 8.73469 25.8928C8.89082 25.8447 9.04303 25.7852 9.19002 25.7147C9.44757 25.5959 9.68136 25.4329 9.88037 25.2335C9.88731 25.2258 9.8931 25.2172 9.89757 25.2079L10.0835 25.2881L10.1998 25.337C10.2391 25.3522 10.2816 25.3659 10.3185 25.3803C10.4774 25.4372 10.6346 25.4958 10.7943 25.5511L11.2766 25.7019C11.3585 25.7284 11.4404 25.7468 11.5223 25.7693L11.6304 25.7973L11.5543 25.7941C11.4896 25.8021 11.4232 25.8086 11.3536 25.819C11.2071 25.8403 11.062 25.8695 10.9188 25.9064C10.7705 25.9394 10.6244 25.9815 10.4815 26.0323C10.3922 26.0636 10.3013 26.0981 10.2096 26.1342C10.1179 26.1703 10.027 26.2039 9.93524 26.2408C9.75262 26.3154 9.56672 26.4012 9.39065 26.4814C9.06679 26.6242 8.76227 26.8057 8.4841 27.0219C8.6314 27.0774 8.78473 27.1162 8.94106 27.1374C8.98364 27.1438 9.02705 27.1495 9.07127 27.1543C9.11549 27.1599 9.15972 27.1639 9.20639 27.1655C9.29811 27.1655 9.39147 27.1703 9.48565 27.1655C9.57983 27.1607 9.67482 27.1583 9.76818 27.1503L9.83861 27.1438L9.90822 27.1342C9.95489 27.1278 10.0016 27.1198 10.0466 27.1118C10.2186 27.0825 10.3881 27.0404 10.5535 26.9859C10.7155 26.9273 10.8733 26.8585 11.0261 26.7798C11.1022 26.7413 11.1751 26.6996 11.2463 26.6578C11.3176 26.6161 11.3864 26.5672 11.4511 26.5207C11.6882 26.3566 11.8932 26.1521 12.0563 25.9168C12.0609 25.9084 12.0648 25.8995 12.0677 25.8904C12.6237 26.0156 13.1872 26.107 13.7547 26.1638L13.7736 25.9593C13.2139 25.9067 12.6582 25.8202 12.1095 25.7003C12.1103 25.6955 12.1108 25.6907 12.1111 25.6859Z" fill="url(#paint5_linear_9689_3802)"/>
<path d="M26.746 16.004C26.7634 16.0108 26.7822 16.0133 26.8009 16.0112C27.049 15.9697 27.2879 15.8862 27.5068 15.7642C27.7607 15.623 27.9947 15.4499 28.2029 15.2493C28.3062 15.1445 28.4018 15.0324 28.4887 14.9141C28.5353 14.8516 28.5804 14.7858 28.6238 14.7192C28.6672 14.6527 28.7057 14.5829 28.7393 14.5131C28.8097 14.378 28.8702 14.2381 28.9202 14.0945C28.9603 13.9705 28.9861 13.8424 28.9972 13.7128C28.8664 13.7685 28.7407 13.8351 28.6213 13.9116C28.5575 13.9525 28.4919 13.9959 28.4264 14.0424C28.3609 14.0889 28.2929 14.1378 28.2258 14.1883C27.9589 14.3935 27.7038 14.6131 27.4617 14.8459C27.3687 14.9364 27.2817 15.0325 27.2013 15.1339C27.1199 15.2302 27.0437 15.3306 26.9728 15.4346C26.9393 15.4835 26.9081 15.5324 26.8803 15.5798C26.8524 15.6271 26.8279 15.6728 26.8033 15.7169C26.8032 15.7185 26.8032 15.7201 26.8033 15.7217L26.8115 15.6712L26.8524 15.4306C26.8836 15.2702 26.8975 15.1042 26.9188 14.9406L26.9474 14.6952C26.9556 14.615 26.9597 14.5308 26.9663 14.449L26.9835 14.202V14.153C27.0025 14.1583 27.0226 14.1583 27.0416 14.153C27.152 14.1204 27.2588 14.0769 27.3602 14.0231C27.4747 13.9624 27.5843 13.8929 27.6878 13.8154C27.9153 13.6465 28.1176 13.4473 28.2889 13.2236C28.4674 12.9844 28.6082 12.7202 28.7065 12.44C28.7551 12.3001 28.7934 12.157 28.8212 12.0118C28.8429 11.8863 28.8504 11.7588 28.8433 11.6316C28.7244 11.7025 28.6118 11.783 28.5067 11.8722C28.4502 11.9203 28.3929 11.9717 28.3363 12.0254C28.2798 12.0791 28.2201 12.1353 28.1627 12.193C28.0473 12.3093 27.9351 12.4336 27.8278 12.5563C27.7205 12.679 27.6124 12.8081 27.5174 12.9316C27.4986 12.9565 27.4806 12.9822 27.4617 13.0078L27.406 13.088C27.37 13.1402 27.3356 13.1939 27.3029 13.2484C27.2701 13.303 27.2398 13.3567 27.2111 13.4088C27.1825 13.4609 27.1522 13.5163 27.1292 13.5692C27.0814 13.6655 27.0395 13.7646 27.004 13.8659C27.004 13.8732 27.004 13.8804 26.9982 13.8876L27.0072 13.4593C27.0072 13.3791 27.0072 13.2941 27.0023 13.2123V13.0888C27.0023 13.0471 27.0023 13.0086 26.9982 12.9653L26.9851 12.7183L26.9777 12.5948L26.9671 12.4721C26.9671 12.4264 26.9581 12.3807 26.9532 12.3358C26.975 12.3401 26.9976 12.3376 27.0179 12.3286C27.1197 12.2822 27.2165 12.226 27.307 12.1609C27.4086 12.0865 27.5044 12.0047 27.5936 11.9163C27.6906 11.8206 27.7809 11.7185 27.8638 11.6108C27.9473 11.5 28.0233 11.384 28.0915 11.2635C28.1605 11.1416 28.2184 11.0138 28.2643 10.8818C28.2897 10.8128 28.3126 10.7414 28.3339 10.6685C28.3552 10.5955 28.3707 10.5233 28.3855 10.4503C28.4462 10.187 28.4537 9.91453 28.4076 9.64836C28.1877 9.83558 27.9929 10.0493 27.8278 10.2843C27.6371 10.5411 27.4624 10.809 27.3045 11.0863C27.1862 11.2987 27.0902 11.5222 27.0179 11.7535C26.9839 11.853 26.9565 11.9545 26.936 12.0575C26.936 12.0743 26.9319 12.0888 26.9294 12.1048C26.8739 11.5967 26.7869 11.0924 26.669 10.5947C26.6923 10.5967 26.7157 10.591 26.7353 10.5786C26.929 10.4504 27.0981 10.2896 27.2349 10.1039C27.2734 10.0534 27.3127 9.99962 27.3487 9.94348C27.3848 9.88734 27.4191 9.83121 27.4519 9.77266C27.5185 9.65471 27.5771 9.53254 27.6272 9.40697C27.6752 9.27946 27.7135 9.14865 27.7418 9.0156C27.7578 8.94489 27.7701 8.87342 27.7787 8.80147C27.7885 8.7293 27.795 8.65551 27.7999 8.58334C27.8096 8.44302 27.8069 8.30215 27.7918 8.1623C27.7844 8.09654 27.7746 8.03318 27.7623 7.97304C27.7499 7.91708 27.7332 7.86212 27.7123 7.80863C27.6222 7.90473 27.5401 8.00771 27.4666 8.11659C27.3848 8.23368 27.3086 8.3636 27.2349 8.49833C27.1972 8.56569 27.1628 8.63466 27.126 8.70444C27.0891 8.77421 27.0555 8.84638 27.022 8.91696C26.9548 9.05971 26.8959 9.20086 26.8385 9.3404C26.794 9.45212 26.7568 9.5665 26.7272 9.68284C26.6959 9.79512 26.6705 9.90888 26.651 10.0237C26.6346 10.1327 26.6207 10.2362 26.6158 10.3276C26.6158 10.3493 26.6158 10.3685 26.6158 10.3886C26.4904 9.90284 26.3364 9.4246 26.1547 8.95625C26.167 8.95733 26.1793 8.95597 26.191 8.95224C26.2027 8.94852 26.2134 8.94252 26.2227 8.9346C26.3927 8.785 26.5351 8.60785 26.6436 8.41091C26.7057 8.29869 26.7604 8.1827 26.8074 8.06366C26.8567 7.94164 26.8967 7.81618 26.927 7.68833C26.9574 7.55902 26.9779 7.42767 26.9884 7.29537C26.9978 7.15384 26.9978 7.01185 26.9884 6.87032C26.9763 6.6157 26.9135 6.36586 26.8033 6.13491C26.7286 6.23826 26.6631 6.34774 26.6076 6.46212C26.5462 6.58482 26.4864 6.72116 26.4323 6.8631C26.3237 7.14502 26.2329 7.4332 26.1605 7.72603C26.1068 7.95078 26.0761 8.18021 26.0687 8.41091C26.065 8.53653 26.0708 8.66225 26.0859 8.78704C26.0671 8.74052 26.0499 8.69321 26.0302 8.64669C25.8567 8.23897 25.6621 7.84015 25.4472 7.45175C25.4601 7.45195 25.4729 7.44948 25.4847 7.4445C25.4966 7.43953 25.5072 7.43216 25.516 7.42288C25.6614 7.25646 25.7761 7.06649 25.855 6.8615C25.9011 6.74529 25.9396 6.62636 25.9705 6.50542C25.986 6.44287 26.0008 6.37951 26.0122 6.31696C26.0237 6.25441 26.0319 6.19105 26.0384 6.12769C26.0519 5.99928 26.0549 5.87002 26.0474 5.74114C26.0381 5.60336 26.0203 5.46624 25.9942 5.33053C25.9664 5.2006 25.9292 5.07277 25.8828 4.94799C25.8618 4.89137 25.8369 4.83618 25.8083 4.78279C25.7841 4.73486 25.7567 4.68852 25.7264 4.64404C25.6056 4.88077 25.5154 5.13131 25.4578 5.38988C25.4406 5.46045 25.4242 5.53263 25.4095 5.60561C25.3948 5.67859 25.3808 5.75077 25.3669 5.82455C25.3399 5.97131 25.3186 6.11727 25.3039 6.25681C25.2913 6.37054 25.2853 6.48487 25.2858 6.59925C25.2858 6.65619 25.2858 6.71233 25.2924 6.76767C25.2989 6.82301 25.2981 6.87754 25.3039 6.92806C25.3128 7.02464 25.3281 7.12055 25.3497 7.21517C25.3563 7.24725 25.3645 7.27612 25.3726 7.30419C25.2924 7.16251 25.2091 7.02216 25.1229 6.88315C24.9525 6.61048 24.7721 6.34476 24.5816 6.08599C24.595 6.08571 24.6081 6.08219 24.6198 6.07576C24.6315 6.06932 24.6415 6.06017 24.6487 6.0491C24.706 5.96728 24.755 5.88027 24.7953 5.78926C24.8412 5.68546 24.8785 5.57817 24.9067 5.46847C24.9692 5.22989 24.9987 4.98415 24.9943 4.73787C24.9914 4.61225 24.9785 4.48703 24.9558 4.36335C24.9304 4.23153 24.8968 4.10136 24.8551 3.97359C24.7832 3.74317 24.6664 3.52856 24.5111 3.34164C24.4639 3.45479 24.4269 3.5718 24.4006 3.6913C24.3736 3.81721 24.3498 3.95595 24.3334 4.0971C24.3244 4.16767 24.3179 4.23905 24.3121 4.31122C24.3064 4.3834 24.3023 4.45478 24.2974 4.52776C24.2892 4.67291 24.2867 4.81647 24.2892 4.95361C24.2908 5.06492 24.299 5.17604 24.3138 5.28642C24.3211 5.34176 24.3301 5.39629 24.3408 5.44682C24.3514 5.49734 24.3604 5.55268 24.3719 5.6032C24.3929 5.69553 24.4203 5.78636 24.4538 5.87507C24.4677 5.91437 24.4825 5.94966 24.4972 5.98254C24.3187 5.74408 24.1331 5.51205 23.9403 5.28642C23.8216 5.14929 23.6988 5.01536 23.5743 4.88544C23.5883 4.88427 23.6017 4.8796 23.6133 4.87188C23.6249 4.86415 23.6343 4.85363 23.6406 4.84133C23.735 4.65596 23.796 4.45599 23.8208 4.25027C23.8356 4.13293 23.8432 4.01483 23.8437 3.8966C23.8437 3.83645 23.8437 3.77551 23.838 3.71375C23.8322 3.652 23.8265 3.59426 23.8183 3.53411C23.7999 3.4131 23.7725 3.29356 23.7364 3.17643C23.6962 3.05233 23.6484 2.93074 23.5931 2.81234C23.5792 2.78266 23.5644 2.75379 23.5497 2.72492C23.535 2.69605 23.5186 2.66878 23.5022 2.64472C23.4703 2.59019 23.4375 2.53806 23.4031 2.48914C23.3687 2.44022 23.3335 2.39371 23.2983 2.352C23.2637 2.31374 23.2268 2.27758 23.1877 2.24374C23.1583 2.35745 23.1383 2.47332 23.128 2.59019C23.1157 2.7169 23.1099 2.85163 23.1099 2.99118C23.1099 3.06015 23.1099 3.12992 23.1149 3.19969C23.1198 3.26946 23.1206 3.34164 23.1255 3.41141C23.1353 3.55336 23.1501 3.6913 23.1681 3.82362C23.1824 3.93178 23.2037 4.03893 23.232 4.14441C23.2451 4.19734 23.2614 4.24787 23.2762 4.29839C23.2909 4.34892 23.3081 4.39864 23.3253 4.44596C23.3569 4.53255 23.3938 4.61718 23.4359 4.69938C23.4569 4.74241 23.481 4.78394 23.5079 4.82368C23.1959 4.49808 22.8692 4.18692 22.5252 3.8934L22.4679 3.84688C22.483 3.84683 22.4976 3.84205 22.5097 3.83325C22.5218 3.82444 22.5307 3.81208 22.5351 3.79796C22.6041 3.60795 22.6395 3.40779 22.6399 3.2061C22.6421 3.09113 22.6358 2.97615 22.621 2.86206C22.6072 2.74478 22.5856 2.62852 22.5564 2.514C22.4904 2.27713 22.3894 2.05099 22.2566 1.84275C22.2233 1.78928 22.1881 1.73716 22.151 1.68636C22.1156 1.63815 22.0776 1.59183 22.0371 1.54762C21.9675 1.46787 21.889 1.39604 21.8029 1.3335C21.7731 1.57607 21.7759 1.82142 21.8111 2.06329C21.8275 2.19642 21.8472 2.33516 21.8734 2.46909C21.8854 2.53646 21.8993 2.60302 21.9151 2.66878C21.9299 2.73374 21.9446 2.8003 21.961 2.86366C21.9873 2.96556 22.0201 3.06574 22.0593 3.1636C22.0977 3.26224 22.1412 3.35848 22.1837 3.44509C22.2067 3.4884 22.2288 3.5301 22.2525 3.5686C22.2763 3.60709 22.2967 3.64879 22.3197 3.67927C22.3502 3.7261 22.385 3.77013 22.4237 3.81079C22.1119 3.54935 21.7882 3.30314 21.4524 3.07217C21.4594 3.06065 21.4631 3.04749 21.4631 3.03408C21.4631 3.02067 21.4594 3.00751 21.4524 2.99599C21.3593 2.81614 21.2352 2.65336 21.0856 2.5148C21.0014 2.43445 20.9117 2.35995 20.8169 2.29186C20.7204 2.22124 20.6192 2.15694 20.5139 2.09938C20.2928 1.98379 20.0555 1.90057 19.8097 1.85237C19.7466 1.83954 19.6835 1.82831 19.6213 1.82029C19.561 1.81243 19.5003 1.80761 19.4395 1.80586C19.3323 1.80094 19.225 1.80766 19.1193 1.82591C19.2791 2.01355 19.4633 2.1799 19.6672 2.32073C19.7777 2.40092 19.894 2.48112 20.0119 2.5549C20.0701 2.5926 20.129 2.62788 20.188 2.66237C20.247 2.69685 20.3059 2.73133 20.3641 2.76341C20.458 2.81454 20.5551 2.85981 20.6548 2.89895C20.7547 2.93905 20.8546 2.97915 20.9496 3.00321C20.9971 3.01684 21.0438 3.02967 21.088 3.03929C21.1322 3.04892 21.1756 3.06014 21.2166 3.06736C21.2855 3.08124 21.3559 3.08689 21.4262 3.0842C21.4342 3.08382 21.4417 3.0807 21.4475 3.07538C21.7751 3.30368 22.0937 3.54668 22.4032 3.80438C22.3591 3.7773 22.3128 3.7537 22.2648 3.7338C22.2252 3.71686 22.1848 3.70187 22.1436 3.68889C22.0994 3.67606 22.0535 3.66403 22.006 3.6528C21.9071 3.63023 21.8067 3.61442 21.7055 3.60549C21.6019 3.59745 21.4979 3.59745 21.3943 3.60549C21.3304 3.6111 21.2674 3.61752 21.2018 3.62794C21.1363 3.63837 21.0716 3.6512 21.0069 3.66563C20.8791 3.69359 20.7532 3.72975 20.6302 3.7739C20.4075 3.85073 20.1987 3.96201 20.0119 4.10351C20.0855 4.14283 20.1643 4.17172 20.2462 4.18932C20.2912 4.19975 20.3411 4.20777 20.3903 4.21659C20.4394 4.22541 20.4918 4.23263 20.5451 4.23824C20.7611 4.26106 20.9789 4.26268 21.1953 4.24306C21.3034 4.23263 21.4131 4.219 21.5229 4.19975C21.6326 4.1805 21.7464 4.15484 21.8504 4.12917C22.0474 4.08334 22.2374 4.01243 22.4155 3.91826C22.4287 3.91218 22.4398 3.90236 22.4472 3.89006C22.4546 3.87776 22.4582 3.86356 22.4573 3.84929L22.5113 3.8942C22.8454 4.18371 23.1665 4.49006 23.467 4.81005C23.4375 4.7892 23.4048 4.76835 23.3687 4.7475C23.287 4.70383 23.2018 4.66655 23.114 4.63602C23.0665 4.61918 23.0182 4.60314 22.9683 4.58871C22.917 4.5744 22.8651 4.56263 22.8127 4.55342C22.7084 4.53319 22.6027 4.52113 22.4966 4.51733C22.362 4.51489 22.2274 4.52079 22.0937 4.53498C22.0265 4.54219 21.9602 4.55021 21.893 4.56224C21.8259 4.57427 21.7604 4.5879 21.6957 4.60314C21.5715 4.63242 21.4497 4.67048 21.3312 4.71702C21.2248 4.75837 21.1225 4.80938 21.0258 4.8694C21.0589 4.89209 21.094 4.91194 21.1306 4.92874C21.1709 4.94904 21.2124 4.96672 21.2551 4.98167C21.3001 4.99851 21.3476 5.01375 21.3984 5.02739L21.4754 5.04663L21.5573 5.06588C21.6669 5.09069 21.7779 5.10916 21.8897 5.12122C21.9983 5.13642 22.1077 5.14473 22.2173 5.14608C22.273 5.14608 22.3303 5.14608 22.3868 5.14608C22.4433 5.14608 22.5007 5.14608 22.558 5.14046C22.6735 5.13325 22.7889 5.12202 22.9019 5.10678C23.1083 5.08311 23.3106 5.03324 23.5038 4.95842C23.5166 4.9536 23.528 4.94571 23.5369 4.93549C23.5457 4.92526 23.5518 4.91301 23.5546 4.89987C23.6775 5.0322 23.8003 5.16613 23.9166 5.30086C24.1049 5.52381 24.2843 5.75317 24.4579 5.98735C24.4342 5.9665 24.4096 5.94565 24.3809 5.92399C24.3025 5.8705 24.2204 5.82227 24.1352 5.77964C24.0894 5.75638 24.0419 5.73392 23.9919 5.71388C23.942 5.69383 23.8904 5.67618 23.838 5.65934C23.7347 5.62571 23.6287 5.60076 23.521 5.58476C23.3853 5.56658 23.2486 5.5564 23.1116 5.55428C23.0428 5.55428 22.9724 5.55428 22.9028 5.5591C22.8331 5.56391 22.7644 5.56952 22.6964 5.57754C22.5664 5.59252 22.4378 5.61691 22.3115 5.65052C22.1989 5.68104 22.0893 5.7213 21.9839 5.77081C22.1372 5.88798 22.3113 5.97635 22.4974 6.03146C22.6046 6.06967 22.714 6.10181 22.825 6.12769C22.933 6.15452 23.0423 6.17593 23.1525 6.19185C23.3855 6.22175 23.6203 6.23515 23.8552 6.23195C23.9731 6.23195 24.0845 6.22313 24.1918 6.2103C24.2917 6.19977 24.3906 6.18099 24.4874 6.15416C24.5001 6.15104 24.5119 6.14496 24.5217 6.13645C24.5316 6.12793 24.5392 6.11723 24.5439 6.10524C24.7317 6.36508 24.9097 6.63107 25.0778 6.9032C25.1625 7.04221 25.2443 7.18229 25.3235 7.32344C25.3039 7.30178 25.2842 7.28013 25.2613 7.25767C25.1888 7.19289 25.1116 7.13338 25.0303 7.07964C24.9861 7.05077 24.9411 7.0219 24.8936 6.99543C24.8461 6.96896 24.7945 6.9433 24.7437 6.92004C24.6429 6.87327 24.5383 6.8349 24.4309 6.80536C24.2944 6.76995 24.1557 6.74316 24.0157 6.72517C23.9453 6.71474 23.874 6.70832 23.8019 6.70431C23.7299 6.7003 23.6603 6.6979 23.5907 6.6979C23.3373 6.69497 23.0852 6.73318 22.8446 6.81097C22.8725 6.84168 22.9029 6.87011 22.9355 6.89598C22.9707 6.92405 23.0092 6.95132 23.0502 6.97618C23.14 7.03669 23.2344 7.09031 23.3327 7.13658C23.4391 7.18888 23.5485 7.2352 23.6603 7.27532C23.7725 7.31542 23.8814 7.35552 23.9878 7.38038C24.0443 7.39481 24.1025 7.40845 24.1614 7.42047C24.2204 7.4325 24.2777 7.44534 24.3375 7.45656C24.4563 7.47822 24.5775 7.49586 24.697 7.50789C24.9145 7.53542 25.1347 7.53542 25.3522 7.50789C25.3643 7.50625 25.3759 7.5022 25.3863 7.49599C25.3967 7.48979 25.4057 7.48155 25.4128 7.4718C25.6241 7.85939 25.8155 8.25713 25.986 8.66353C26.004 8.70764 26.0204 8.75255 26.0376 8.79746C25.9652 8.69833 25.8807 8.60812 25.7862 8.5288C25.6159 8.38076 25.4223 8.26053 25.213 8.17273C24.9442 8.06446 24.6619 7.99164 24.3736 7.95619C24.2378 7.93865 24.101 7.93114 23.9641 7.93374C23.8408 7.9363 23.718 7.95 23.5972 7.97464C23.7219 8.131 23.8749 8.26365 24.0484 8.366C24.1483 8.43183 24.252 8.49208 24.3588 8.54645C24.4622 8.60193 24.5689 8.65146 24.6782 8.69481C24.7904 8.73812 24.905 8.77982 25.023 8.81751C25.1409 8.85521 25.2621 8.88809 25.3817 8.91616C25.5982 8.97217 25.8211 9.00101 26.045 9.00197C26.0682 9.00138 26.0905 8.99287 26.108 8.97791C26.2821 9.44188 26.4286 9.91529 26.547 10.3958C26.5388 10.3806 26.5322 10.3661 26.5224 10.3509C26.4694 10.2653 26.4082 10.1847 26.3398 10.1103C26.2641 10.0243 26.1819 9.94388 26.0941 9.8697C26.0038 9.79586 25.9077 9.72909 25.8067 9.67001C25.6786 9.59688 25.5453 9.53283 25.4079 9.47834C25.3391 9.45027 25.2686 9.42461 25.199 9.39814C25.1294 9.37168 25.0565 9.35484 24.9861 9.33639C24.8501 9.3013 24.7116 9.2761 24.5717 9.26101C24.4461 9.24714 24.3195 9.24472 24.1934 9.25379C24.2132 9.29194 24.2362 9.32842 24.2622 9.36286C24.2904 9.40284 24.321 9.44114 24.3539 9.47754C24.4313 9.55923 24.5133 9.63661 24.5996 9.70931C24.6446 9.7478 24.6913 9.78549 24.7404 9.82319C24.7896 9.86088 24.8403 9.89697 24.8895 9.93226C24.9868 10.0026 25.0886 10.0668 25.1941 10.1247C25.2998 10.1841 25.4103 10.2418 25.5258 10.2947C25.5831 10.322 25.6421 10.3477 25.7002 10.3749C25.7584 10.4022 25.8165 10.4231 25.8746 10.4455C26.0873 10.5314 26.3102 10.5907 26.538 10.622C26.56 10.6243 26.5821 10.6195 26.601 10.6083C26.7127 11.0985 26.7948 11.5947 26.8467 12.0944C26.8426 12.0848 26.8402 12.0767 26.8353 12.0663C26.7927 11.9723 26.7431 11.8814 26.687 11.7944C26.5567 11.5985 26.3952 11.4241 26.2088 11.278C25.9692 11.0952 25.7056 10.945 25.4251 10.8313C25.1734 10.7263 24.9059 10.6621 24.6332 10.6412C24.7141 10.8319 24.8301 11.0065 24.9755 11.1561C25.0156 11.201 25.0574 11.2459 25.1032 11.29C25.1491 11.3341 25.1908 11.3782 25.2367 11.4215C25.3284 11.5065 25.4267 11.5867 25.5176 11.6573C25.6085 11.7279 25.7215 11.8049 25.8312 11.8754C25.941 11.946 26.0507 12.0126 26.1588 12.0735C26.2674 12.1324 26.3789 12.1859 26.4929 12.2339C26.5938 12.2781 26.6981 12.314 26.8049 12.3414C26.8247 12.347 26.8458 12.347 26.8656 12.3414C26.8696 12.3863 26.8754 12.4312 26.8787 12.4761L26.8885 12.5988L26.8942 12.7215L26.9057 12.9669C26.9057 13.007 26.9057 13.0471 26.9057 13.0888V13.2123C26.9057 13.2925 26.9057 13.3727 26.9057 13.4577L26.8942 13.8764L26.8901 13.8611C26.8604 13.7598 26.8229 13.6609 26.7779 13.5652C26.7538 13.5118 26.7264 13.4598 26.696 13.4096C26.6657 13.3575 26.633 13.3062 26.5986 13.2556C26.5642 13.2051 26.5282 13.1562 26.4905 13.1089C26.4708 13.0856 26.452 13.0624 26.4323 13.0399C26.4127 13.0174 26.3906 12.9958 26.3693 12.9741C26.2611 12.8658 26.1462 12.764 26.0253 12.6694C25.9022 12.5759 25.7731 12.4901 25.6388 12.4128C25.5733 12.3743 25.5086 12.339 25.4414 12.3077C25.3743 12.2764 25.3079 12.2468 25.2424 12.2211C25.1202 12.1732 24.9938 12.1359 24.8649 12.1096C24.8837 12.2031 24.9166 12.2934 24.9624 12.3775C25.0128 12.482 25.0714 12.5825 25.1376 12.6782C25.2773 12.8867 25.4363 13.0821 25.6126 13.2621C25.7979 13.4455 25.9958 13.6164 26.2047 13.7737C26.3064 13.8494 26.4119 13.9201 26.5208 13.9854C26.6164 14.0441 26.7167 14.0953 26.8205 14.1386C26.8392 14.1459 26.8597 14.1479 26.8795 14.1442V14.1931L26.8606 14.4377C26.8541 14.5179 26.8492 14.5981 26.841 14.6783L26.8107 14.9189C26.7886 15.0793 26.7738 15.2437 26.7419 15.4049L26.6993 15.6455L26.6928 15.684C26.6869 15.6349 26.6781 15.5862 26.6666 15.5381C26.6543 15.4843 26.6395 15.4298 26.6223 15.3736C26.5876 15.2581 26.5441 15.1452 26.4921 15.036C26.4364 14.9243 26.3718 14.817 26.2989 14.7152C26.1129 14.4631 25.8925 14.2372 25.6437 14.044C25.5823 13.9967 25.5225 13.9517 25.4595 13.91C25.3964 13.8683 25.3325 13.8298 25.2695 13.7946C25.1525 13.7285 25.0297 13.6729 24.9026 13.6286C24.9113 13.7301 24.9353 13.8298 24.9738 13.9245C25.0089 14.0371 25.053 14.1467 25.1057 14.2525C25.1327 14.3086 25.1638 14.3656 25.1949 14.4233C25.2261 14.4811 25.2564 14.5364 25.2891 14.5917C25.3538 14.7014 25.4251 14.8072 25.5029 14.9085C25.6612 15.1224 25.8365 15.3238 26.027 15.5108C26.1943 15.6864 26.3839 15.8403 26.5912 15.9687C26.6075 15.9777 26.6258 15.9826 26.6444 15.9831L26.5568 16.3737C26.4618 16.7603 26.3455 17.1404 26.2129 17.5157C26.2145 17.4123 26.2088 17.3088 26.1957 17.2062C26.1774 17.0838 26.15 16.9629 26.1138 16.8445C26.0949 16.7835 26.0745 16.7242 26.0515 16.6656C26.0393 16.6368 26.0278 16.6079 26.0147 16.5798C26.0016 16.5517 25.9868 16.5229 25.9721 16.4956C25.8218 16.2135 25.6328 15.9528 25.4103 15.7209C25.3052 15.6113 25.1922 15.5092 25.0721 15.4153C25.0156 15.3712 24.9574 15.3311 24.8985 15.2935C24.8428 15.2577 24.7851 15.2251 24.7257 15.1956C24.7228 15.2415 24.7228 15.2876 24.7257 15.3335C24.7278 15.3857 24.7333 15.4377 24.7421 15.4891C24.7511 15.5437 24.7634 15.6006 24.7781 15.6592C24.7928 15.7177 24.8133 15.7786 24.8297 15.8388C24.9055 16.0879 25.0047 16.3295 25.1261 16.5606C25.1876 16.6761 25.258 16.7931 25.3333 16.9094C25.4087 17.0257 25.4807 17.138 25.5618 17.2471C25.7056 17.4491 25.8739 17.6333 26.063 17.7956C26.0762 17.806 26.0916 17.8134 26.108 17.8173C25.915 18.3211 25.6893 18.8124 25.4324 19.2881C25.439 19.2496 25.4463 19.2079 25.4513 19.1702C25.4562 19.1141 25.4586 19.0539 25.4595 18.993C25.4602 18.867 25.4526 18.741 25.4365 18.616C25.4275 18.5518 25.415 18.4881 25.3989 18.4252C25.3833 18.3626 25.3661 18.3009 25.3456 18.2407C25.2398 17.9335 25.0913 17.6421 24.9042 17.3746C24.8156 17.2473 24.7168 17.1271 24.6086 17.0153C24.5127 16.9145 24.4074 16.8227 24.2941 16.741C24.2697 16.8385 24.2603 16.9391 24.2663 17.0393C24.2666 17.1613 24.2764 17.283 24.2958 17.4034C24.3056 17.4676 24.3195 17.5342 24.331 17.5991C24.3424 17.6641 24.3564 17.7298 24.3719 17.7956C24.4021 17.9238 24.439 18.0504 24.4825 18.1749C24.5251 18.3 24.575 18.4284 24.6315 18.5567C24.688 18.685 24.7503 18.8133 24.8109 18.9336C24.9222 19.1605 25.0623 19.3728 25.2277 19.5656C25.238 19.5764 25.2502 19.5854 25.2637 19.592C24.9894 20.0674 24.6845 20.5252 24.3506 20.9626C24.3506 20.9562 24.3547 20.9514 24.3564 20.945C24.3645 20.9185 24.3719 20.8912 24.3793 20.8648C24.3932 20.8086 24.4063 20.7493 24.417 20.6883C24.4276 20.6274 24.4374 20.564 24.444 20.4999C24.4519 20.4349 24.456 20.3696 24.4563 20.3042C24.4569 20.1732 24.447 20.0423 24.4268 19.9128C24.4 19.7496 24.3601 19.5887 24.3072 19.4316C24.2818 19.3514 24.2532 19.2712 24.2253 19.1959C24.1975 19.1205 24.1623 19.0443 24.1254 18.9705C23.9966 18.7006 23.8237 18.453 23.6136 18.2375C23.5714 18.331 23.5438 18.4302 23.5317 18.5318C23.5235 18.588 23.5194 18.6489 23.5145 18.7115C23.5096 18.774 23.5055 18.8366 23.5047 18.9031C23.5038 18.9697 23.5047 19.0363 23.5047 19.1052C23.5047 19.1742 23.512 19.2424 23.5153 19.3105C23.5245 19.445 23.5411 19.5789 23.5653 19.7115C23.5792 19.7781 23.5923 19.8463 23.6062 19.9144C23.6201 19.9826 23.6365 20.0508 23.6537 20.1197C23.6881 20.2569 23.7291 20.3948 23.7741 20.5287C23.8486 20.7746 23.9543 21.0103 24.0886 21.2305C24.0964 21.2423 24.1064 21.2526 24.118 21.2609C23.7644 21.6961 23.3814 22.1077 22.9715 22.4928C23.0122 22.4101 23.048 22.3252 23.0788 22.2385C23.1695 21.9882 23.2166 21.7247 23.218 21.459C23.2189 21.3755 23.2154 21.292 23.2074 21.2088C23.2 21.1238 23.1902 21.0388 23.1771 20.9546C23.164 20.8704 23.1493 20.787 23.1321 20.7052C23.1149 20.6234 23.0903 20.54 23.0665 20.4606C23.0201 20.3069 22.962 20.1568 22.8929 20.0115C22.8602 19.9425 22.825 19.8775 22.7889 19.8158C22.7529 19.754 22.7119 19.6947 22.6718 19.6409C22.6595 19.6602 22.6481 19.681 22.6366 19.7027C22.6251 19.7244 22.6137 19.746 22.603 19.7701C22.5798 19.8204 22.5599 19.8721 22.5432 19.9248C22.526 19.9802 22.5105 20.0403 22.4966 20.1029C22.4966 20.1181 22.49 20.1342 22.4859 20.1502C22.4818 20.1662 22.4794 20.1815 22.4753 20.1975C22.4679 20.2288 22.4614 20.2617 22.4556 20.2946C22.4302 20.4261 22.4155 20.568 22.4032 20.7076C22.3894 20.8429 22.3837 20.979 22.386 21.115C22.386 21.1839 22.3917 21.2569 22.3942 21.3267C22.3967 21.3965 22.4016 21.4686 22.4073 21.5408C22.4196 21.6844 22.4368 21.8295 22.4605 21.9723C22.4945 22.2318 22.5613 22.4861 22.6595 22.7293C22.6645 22.7404 22.6711 22.7507 22.6792 22.7598C22.6014 22.828 22.5252 22.897 22.4458 22.9635C22.0865 23.2664 21.7109 23.5501 21.3206 23.8136C21.3361 23.792 21.3517 23.7703 21.3664 23.7471C21.4 23.6965 21.4328 23.642 21.4647 23.5867C21.5989 23.3495 21.6914 23.092 21.7382 22.8248C21.7529 22.7409 21.7633 22.6563 21.7694 22.5714C21.7767 22.4847 21.7808 22.3981 21.7825 22.3115C21.7841 22.2249 21.7825 22.1383 21.7784 22.0525C21.7743 21.9667 21.7653 21.8801 21.7538 21.7959C21.7206 21.4857 21.6339 21.1834 21.4975 20.9017C21.4282 20.9827 21.3691 21.0715 21.3214 21.1663C21.265 21.2827 21.2147 21.4018 21.1707 21.5232C21.124 21.6515 21.0847 21.791 21.0487 21.9298C21.0121 22.0639 20.9834 22.1999 20.9627 22.3372C20.9439 22.4791 20.925 22.6211 20.9119 22.7678C20.8988 22.9146 20.8923 23.0638 20.8915 23.2105C20.8814 23.4772 20.9047 23.7442 20.9611 24.0053C20.9644 24.0158 20.9688 24.026 20.9742 24.0358C20.93 24.0638 20.8874 24.0927 20.8423 24.116C20.3876 24.3904 19.9164 24.6379 19.4313 24.857C19.4922 24.7971 19.5494 24.7336 19.6025 24.6669C19.6442 24.6148 19.6844 24.5603 19.7245 24.5065C19.7651 24.4497 19.8026 24.3908 19.8367 24.3301C19.9053 24.2081 19.9633 24.0806 20.0103 23.9492C20.0684 23.7833 20.1133 23.6133 20.1446 23.4407C20.1786 23.2685 20.1989 23.0939 20.2052 22.9186C20.212 22.7522 20.2063 22.5854 20.188 22.4198C20.179 22.3396 20.1667 22.265 20.152 22.1928C20.1371 22.1219 20.1185 22.0518 20.0963 21.9827C20.077 21.9979 20.0587 22.0143 20.0414 22.0316C20.0226 22.0485 20.0037 22.0661 19.9849 22.0862C19.9457 22.1283 19.9088 22.1725 19.8744 22.2185C19.8383 22.2666 19.8031 22.3203 19.7679 22.3789C19.7327 22.4374 19.6967 22.492 19.6631 22.5529C19.6295 22.6139 19.5951 22.6772 19.5632 22.7422C19.5312 22.8071 19.5009 22.8753 19.4698 22.9395C19.4101 23.0685 19.3582 23.2007 19.3142 23.3356C19.2921 23.4038 19.27 23.4736 19.2479 23.5442C19.2258 23.6147 19.2061 23.6861 19.1873 23.7591C19.1488 23.9034 19.1169 24.055 19.089 24.2002C19.0308 24.4667 19.0069 24.7394 19.0178 25.0118C19.0191 25.0205 19.0213 25.0291 19.0243 25.0374L18.8401 25.1128L18.7246 25.1601L18.6075 25.2018C18.4511 25.2572 18.2946 25.3141 18.1374 25.3678L17.6608 25.513C17.5789 25.5387 17.5011 25.5563 17.4208 25.5772L17.3242 25.602C17.3398 25.5916 17.3553 25.5828 17.3709 25.5715C17.4225 25.5355 17.4733 25.4913 17.5249 25.4472C17.6308 25.3545 17.7298 25.2546 17.8213 25.1481C17.9132 25.0375 17.9954 24.9194 18.067 24.7952C18.1096 24.715 18.1489 24.6405 18.189 24.5603C18.2291 24.4801 18.2611 24.3934 18.293 24.3084C18.357 24.1412 18.4085 23.9697 18.447 23.7952C18.5199 23.4813 18.5387 23.1576 18.5027 22.8376C18.4059 22.8908 18.3173 22.9572 18.2398 23.0349C18.2177 23.0566 18.1947 23.079 18.1726 23.1023C18.1505 23.1255 18.1284 23.1512 18.1047 23.1752C18.0596 23.2234 18.0138 23.2763 17.9687 23.3356C17.9237 23.395 17.8794 23.4487 17.836 23.5097L17.8033 23.5546L17.7705 23.5995L17.7067 23.6893C17.624 23.8089 17.5485 23.9332 17.4806 24.0614C17.4094 24.1873 17.3406 24.3229 17.2767 24.4624C17.2448 24.5322 17.2137 24.6036 17.1834 24.6749C17.1531 24.7463 17.1244 24.8153 17.1015 24.8867C16.9955 25.1443 16.9221 25.4136 16.8828 25.6886C16.8824 25.6948 16.8824 25.7009 16.8828 25.7071C16.3341 25.8271 15.7784 25.9136 15.2188 25.9661L15.2384 26.1706C15.806 26.1136 16.3694 26.0223 16.9254 25.8971C16.928 25.9064 16.9319 25.9153 16.9369 25.9236C17.0996 26.1588 17.3043 26.3634 17.5412 26.5275C17.6067 26.574 17.6755 26.6221 17.7468 26.6646C17.818 26.7071 17.8909 26.7448 17.9663 26.7865C18.1193 26.8653 18.2774 26.9341 18.4396 26.9926C18.6048 27.0471 18.774 27.0892 18.9457 27.1186C18.9916 27.1266 19.0374 27.1346 19.0841 27.141L19.1545 27.1506L19.2241 27.157C19.3175 27.1651 19.4125 27.1699 19.5067 27.1723C19.6008 27.1747 19.695 27.1723 19.7867 27.1723C19.8326 27.1723 19.8776 27.1667 19.9219 27.1611C19.9661 27.1554 20.0095 27.1506 20.0521 27.1442C20.2084 27.1228 20.3617 27.084 20.509 27.0287C20.2306 26.8125 19.9258 26.6309 19.6017 26.4882C19.4256 26.408 19.2405 26.3206 19.0571 26.2476C18.9653 26.2107 18.8736 26.1746 18.7827 26.1409C18.6918 26.1073 18.6009 26.0704 18.5117 26.0391C18.3684 25.9884 18.2221 25.9463 18.0735 25.9132C17.9306 25.8762 17.7857 25.847 17.6395 25.8258C17.5699 25.8153 17.5036 25.8089 17.438 25.8009L17.3701 25.7953L17.4774 25.7672C17.5592 25.7448 17.6411 25.7263 17.723 25.6999L18.2062 25.5491C18.3651 25.4938 18.5231 25.4352 18.6812 25.3783C18.7213 25.3638 18.7631 25.3502 18.7999 25.335L18.917 25.286L19.1029 25.2058C19.1074 25.215 19.1129 25.2236 19.1193 25.2315C19.3186 25.4309 19.5527 25.5939 19.8105 25.7127C19.9572 25.7832 20.1091 25.8427 20.265 25.8907C20.3469 25.9164 20.4288 25.9388 20.5107 25.9597L20.6343 25.9878C20.6761 25.9966 20.7162 26.003 20.758 26.0102C20.9271 26.0355 21.0979 26.0486 21.269 26.0495C21.3577 26.0493 21.4462 26.0442 21.5343 26.0343C21.626 26.0268 21.7178 26.0164 21.8095 26.003C21.9004 25.9894 21.9921 25.9749 22.0789 25.9549C22.1657 25.9348 22.2493 25.91 22.3287 25.8835C22.4081 25.857 22.4851 25.829 22.5564 25.7985C22.5916 25.7825 22.6251 25.7672 22.6579 25.7504C22.6907 25.7335 22.7201 25.7151 22.748 25.6975C22.6813 25.6591 22.6127 25.624 22.5424 25.5924C22.4687 25.5579 22.3901 25.525 22.3074 25.4938C22.1436 25.4312 21.9651 25.3743 21.7808 25.3229C21.5966 25.2716 21.4049 25.2219 21.2141 25.1802C21.0233 25.1385 20.8366 25.1 20.6523 25.0695C20.5051 25.0438 20.3563 25.0271 20.2068 25.0198C20.1331 25.0198 20.0586 25.011 19.9857 25.0094C19.9128 25.0078 19.8416 25.0094 19.7728 25.0094C19.6729 25.0094 19.5771 25.0182 19.4886 25.0262C19.9858 24.7994 20.4683 24.5428 20.9332 24.2579C20.9783 24.2298 21.0217 24.2002 21.0659 24.1721C21.0725 24.1815 21.0805 24.1899 21.0896 24.197C21.3163 24.3577 21.5703 24.4777 21.8398 24.5514C21.9935 24.5942 22.15 24.6269 22.3082 24.6493C22.4708 24.6736 22.6351 24.6854 22.7996 24.6846C22.9672 24.682 23.1344 24.6675 23.2999 24.6413C23.477 24.6112 23.6516 24.5686 23.8224 24.5137C23.9886 24.4625 24.1495 24.3962 24.3031 24.3157C24.4379 24.25 24.5631 24.1672 24.6757 24.0694C24.3535 23.9611 24.0192 23.8911 23.6799 23.8609C23.5866 23.8505 23.4932 23.8433 23.3974 23.8345C23.3016 23.8256 23.2049 23.8192 23.1091 23.8136C23.0133 23.808 22.9191 23.804 22.825 23.8016L22.5482 23.7968C22.2596 23.7973 21.9717 23.8241 21.6883 23.877C21.622 23.889 21.5581 23.9034 21.4983 23.9187C21.4655 23.9267 21.4369 23.9347 21.4066 23.9435C21.8046 23.6724 22.1874 23.3803 22.5531 23.0686C22.635 23.0004 22.7095 22.9306 22.7873 22.8609C22.7964 22.8709 22.8072 22.8793 22.8192 22.8857C23.0647 23.0055 23.3302 23.081 23.6029 23.1087C23.7587 23.1263 23.9155 23.1333 24.0722 23.1295C24.1524 23.1295 24.2343 23.1255 24.3179 23.1175C24.3998 23.1111 24.4776 23.0991 24.557 23.0862C24.7184 23.0582 24.8775 23.0182 25.0328 22.9667C25.1986 22.91 25.3601 22.8416 25.516 22.7622C25.5553 22.743 25.5979 22.7221 25.6322 22.7013L25.6896 22.67L25.7436 22.6363C25.8149 22.5914 25.8837 22.5441 25.9475 22.4968C26.0114 22.4495 26.072 22.3997 26.1261 22.3508C26.1531 22.3268 26.1793 22.3019 26.203 22.277C26.2268 22.2522 26.2481 22.2265 26.2686 22.2017C26.1957 22.187 26.1222 22.176 26.0483 22.1688C25.9705 22.1599 25.8886 22.1535 25.8026 22.1503C25.6253 22.1415 25.4476 22.1415 25.2703 22.1503C25.1777 22.1543 25.0877 22.1624 24.9927 22.1688C24.8977 22.1752 24.8043 22.1832 24.711 22.1928C24.6176 22.2025 24.5251 22.2137 24.435 22.2257L24.1664 22.265C23.8872 22.3115 23.613 22.3835 23.3474 22.4799C23.2518 22.5148 23.158 22.5544 23.0665 22.5986C23.4836 22.2026 23.8727 21.7792 24.2311 21.3315C24.2423 21.3409 24.2554 21.348 24.2695 21.3524C24.5259 21.4298 24.7943 21.4621 25.0623 21.4478C25.2153 21.4401 25.3677 21.4224 25.5184 21.3949C25.6003 21.3812 25.674 21.3644 25.751 21.3459L25.8665 21.3155C25.9041 21.3042 25.9418 21.2922 25.9787 21.2794C26.1298 21.2272 26.2767 21.1642 26.4184 21.0909C26.4553 21.0717 26.4938 21.0516 26.5306 21.0308C26.5675 21.0099 26.6035 20.9875 26.6395 20.9642C26.7116 20.9185 26.7828 20.8704 26.8524 20.8198C26.9221 20.7693 26.9892 20.718 27.0531 20.6643C27.117 20.6105 27.1735 20.5544 27.2275 20.4983C27.3275 20.3971 27.416 20.2855 27.4912 20.1654C27.1642 20.16 26.8379 20.1953 26.52 20.2705C26.434 20.2897 26.3423 20.3082 26.253 20.329C26.1637 20.3499 26.0736 20.3723 25.9852 20.3964C25.8083 20.4437 25.638 20.4967 25.4701 20.5488C25.3365 20.5918 25.2057 20.6429 25.0786 20.702L24.8919 20.7902C24.8305 20.8207 24.7716 20.8511 24.715 20.8824C24.6585 20.9137 24.6053 20.9466 24.5554 20.9786C24.5308 20.9939 24.507 21.0099 24.4833 21.026L24.4489 21.0492C24.7892 20.6002 25.0988 20.1298 25.3759 19.6409C25.3896 19.6506 25.4052 19.6572 25.4218 19.6602C25.6814 19.6956 25.9453 19.6859 26.2014 19.6313C26.3491 19.6029 26.4942 19.563 26.6354 19.5118C26.7814 19.4607 26.924 19.4004 27.0621 19.3314C27.2 19.259 27.3317 19.1758 27.456 19.0828C27.5223 19.0339 27.5878 18.9825 27.6525 18.928C27.7172 18.8735 27.7754 18.8157 27.8343 18.7572C27.9481 18.6429 28.053 18.5204 28.148 18.3907C28.2281 18.2779 28.2949 18.1565 28.347 18.029C28.1987 18.0461 28.0522 18.0753 27.9089 18.1164C27.7533 18.1589 27.5944 18.215 27.4265 18.2768C27.0949 18.4015 26.7704 18.5436 26.4544 18.7026C26.3938 18.7331 26.3341 18.7668 26.2751 18.8013C26.2161 18.8358 26.1605 18.8735 26.1015 18.9095C25.9897 18.9807 25.8817 19.0575 25.778 19.1397C25.7289 19.179 25.6838 19.2199 25.6396 19.2568C25.5954 19.2937 25.5659 19.321 25.5332 19.353C25.7928 18.8682 26.0204 18.3675 26.2145 17.8542C26.23 17.8628 26.2475 17.8674 26.2653 17.8678C26.5217 17.8651 26.7755 17.8162 27.0138 17.7234C27.1527 17.6733 27.2878 17.6138 27.4183 17.5454C27.5504 17.4733 27.6776 17.3929 27.7991 17.3048C28.0524 17.1165 28.2753 16.8918 28.46 16.6384C28.508 16.5746 28.5523 16.5082 28.5927 16.4395C28.6336 16.3721 28.6705 16.3047 28.704 16.239C28.7376 16.1732 28.7663 16.1075 28.7909 16.0449C28.8136 15.9855 28.8312 15.9244 28.8433 15.862C28.7794 15.8789 28.7131 15.8997 28.6451 15.9246C28.5771 15.9495 28.5067 15.9783 28.4338 16.0096C28.2888 16.073 28.139 16.1492 27.9891 16.2326C27.688 16.401 27.3968 16.5861 27.117 16.7867C27.0908 16.806 27.0646 16.8252 27.0351 16.8461L26.9532 16.9078C26.9008 16.9495 26.8492 16.9928 26.8 17.0377C26.7042 17.1234 26.6129 17.2139 26.5265 17.3088C26.45 17.3872 26.3789 17.4706 26.3136 17.5582C26.4454 17.1765 26.5593 16.7891 26.6551 16.397L26.746 16.004Z" fill="url(#paint6_linear_9689_3802)"/>
<defs>
<linearGradient id="paint0_linear_9689_3802" x1="13.5889" y1="32.6283" x2="28.2615" y2="26.5187" gradientUnits="userSpaceOnUse">
<stop stop-color="#FF0000"/>
<stop offset="0.04" stop-color="#E10000"/>
<stop offset="0.08" stop-color="#960000"/>
<stop offset="0.29" stop-color="#F80003"/>
<stop offset="0.44" stop-color="#DC0004"/>
<stop offset="0.56" stop-color="#F80003"/>
<stop offset="0.69" stop-color="#CD0001"/>
<stop offset="0.85" stop-color="#980001"/>
<stop offset="0.96" stop-color="#E30002"/>
<stop offset="1" stop-color="#FF0002"/>
</linearGradient>
<linearGradient id="paint1_linear_9689_3802" x1="0.93294" y1="26.7028" x2="17.1988" y2="33.05" gradientUnits="userSpaceOnUse">
<stop stop-color="#FF0000"/>
<stop offset="0.04" stop-color="#E10000"/>
<stop offset="0.08" stop-color="#960000"/>
<stop offset="0.29" stop-color="#F80003"/>
<stop offset="0.44" stop-color="#DC0004"/>
<stop offset="0.56" stop-color="#F80003"/>
<stop offset="0.69" stop-color="#CD0001"/>
<stop offset="0.85" stop-color="#980001"/>
<stop offset="0.96" stop-color="#E30002"/>
<stop offset="1" stop-color="#FF0002"/>
</linearGradient>
<linearGradient id="paint2_linear_9689_3802" x1="22.0159" y1="24.6426" x2="7.54043" y2="1.88175" gradientUnits="userSpaceOnUse">
<stop stop-color="#986142"/>
<stop offset="0.05" stop-color="#9D6848"/>
<stop offset="0.13" stop-color="#AA7B58"/>
<stop offset="0.23" stop-color="#C09A73"/>
<stop offset="0.24" stop-color="#C49F78"/>
<stop offset="0.33" stop-color="#B3865F"/>
<stop offset="0.39" stop-color="#AD7C55"/>
<stop offset="0.52" stop-color="#AD7E57"/>
<stop offset="0.55" stop-color="#B58A63"/>
<stop offset="0.61" stop-color="#C6A57F"/>
<stop offset="0.67" stop-color="#D1B590"/>
<stop offset="0.71" stop-color="#D5BB96"/>
<stop offset="0.73" stop-color="#CEB08C"/>
<stop offset="0.85" stop-color="#B18564"/>
<stop offset="0.95" stop-color="#9F6B4B"/>
<stop offset="1" stop-color="#986142"/>
</linearGradient>
<linearGradient id="paint3_linear_9689_3802" x1="17.052" y1="1.94629" x2="12.2748" y2="24.8977" gradientUnits="userSpaceOnUse">
<stop stop-color="#986142"/>
<stop offset="0.05" stop-color="#9D6848"/>
<stop offset="0.13" stop-color="#AA7B58"/>
<stop offset="0.23" stop-color="#C09A73"/>
<stop offset="0.24" stop-color="#C49F78"/>
<stop offset="0.33" stop-color="#B3865F"/>
<stop offset="0.39" stop-color="#AD7C55"/>
<stop offset="0.52" stop-color="#AD7E57"/>
<stop offset="0.55" stop-color="#B58A63"/>
<stop offset="0.61" stop-color="#C6A57F"/>
<stop offset="0.67" stop-color="#D1B590"/>
<stop offset="0.71" stop-color="#D5BB96"/>
<stop offset="0.73" stop-color="#CEB08C"/>
<stop offset="0.85" stop-color="#B18564"/>
<stop offset="0.95" stop-color="#9F6B4B"/>
<stop offset="1" stop-color="#986142"/>
</linearGradient>
<linearGradient id="paint4_linear_9689_3802" x1="7.64572" y1="20.082" x2="16.7992" y2="2.17255" gradientUnits="userSpaceOnUse">
<stop/>
<stop offset="0.23" stop-color="#020303"/>
<stop offset="0.39" stop-color="#0A0B0C"/>
<stop offset="0.53" stop-color="#171A1C"/>
<stop offset="0.66" stop-color="#2A2F32"/>
<stop offset="0.78" stop-color="#42494F"/>
<stop offset="0.89" stop-color="#5F6A71"/>
<stop offset="0.99" stop-color="#7B8993"/>
</linearGradient>
<linearGradient id="paint5_linear_9689_3802" x1="10.0261" y1="1.81832" x2="5.74923" y2="26.5874" gradientUnits="userSpaceOnUse">
<stop offset="0.04" stop-color="#9E745D"/>
<stop offset="0.06" stop-color="#A37C66"/>
<stop offset="0.27" stop-color="#CEBEAF"/>
<stop offset="0.36" stop-color="#DFD8CC"/>
<stop offset="0.37" stop-color="#C1AE9D"/>
<stop offset="0.38" stop-color="#9A7962"/>
<stop offset="0.39" stop-color="#673112"/>
<stop offset="0.45" stop-color="#6B3516"/>
<stop offset="0.51" stop-color="#784223"/>
<stop offset="0.56" stop-color="#8D5737"/>
<stop offset="0.59" stop-color="#996343"/>
<stop offset="0.64" stop-color="#B78863"/>
<stop offset="0.68" stop-color="#CA9F77"/>
<stop offset="0.7" stop-color="#D1A77E"/>
<stop offset="0.9" stop-color="#9F6B4A"/>
<stop offset="0.92" stop-color="#996343"/>
</linearGradient>
<linearGradient id="paint6_linear_9689_3802" x1="25.231" y1="1.91813" x2="20.8235" y2="27.4412" gradientUnits="userSpaceOnUse">
<stop offset="0.04" stop-color="#9E745D"/>
<stop offset="0.06" stop-color="#A37C66"/>
<stop offset="0.27" stop-color="#CEBEAF"/>
<stop offset="0.36" stop-color="#DFD8CC"/>
<stop offset="0.37" stop-color="#C1AE9D"/>
<stop offset="0.38" stop-color="#9A7962"/>
<stop offset="0.39" stop-color="#673112"/>
<stop offset="0.45" stop-color="#6B3516"/>
<stop offset="0.51" stop-color="#784223"/>
<stop offset="0.56" stop-color="#8D5737"/>
<stop offset="0.59" stop-color="#996343"/>
<stop offset="0.64" stop-color="#B78863"/>
<stop offset="0.68" stop-color="#CA9F77"/>
<stop offset="0.7" stop-color="#D1A77E"/>
<stop offset="0.9" stop-color="#9F6B4A"/>
<stop offset="0.92" stop-color="#996343"/>
</linearGradient>
</defs>
</svg>
