<svg width="16" height="16" viewBox="0 0 16 16" fill="none" xmlns="http://www.w3.org/2000/svg">
<g clip-path="url(#clip0_8585_3574)">
<path d="M14.0536 7.49508C14.0367 7.25961 13.8323 7.08286 13.5965 7.09942C13.361 7.11639 13.1839 7.32105 13.2008 7.55655C13.2113 7.70201 13.2166 7.85126 13.2166 8.00001C13.2166 11.4082 10.4439 14.1809 7.03581 14.1809C3.62769 14.1809 0.855 11.4081 0.855 8.00001C0.855 4.59189 3.62769 1.8192 7.03584 1.8192C8.38556 1.8192 9.66741 2.24633 10.7427 3.05436C10.9315 3.19617 11.1994 3.15814 11.3413 2.96942C11.4832 2.78067 11.4451 2.51267 11.2564 2.37086C10.0317 1.45064 8.57228 0.964233 7.03581 0.964233C3.15628 0.964202 0 4.12048 0 8.00001C0 11.8795 3.15628 15.0358 7.03584 15.0358C10.9154 15.0358 14.0716 11.8796 14.0716 8.00001C14.0716 7.83083 14.0655 7.66095 14.0536 7.49508Z" fill="black"/>
<path d="M15.509 1.93029C14.8588 1.28007 13.8007 1.28007 13.1504 1.93029L6.99075 8.08992L4.80719 5.90632C4.15694 5.2561 3.09888 5.2561 2.44863 5.90632C1.79837 6.55657 1.79837 7.61463 2.44863 8.26489L6.20928 12.0255C6.42475 12.241 6.70775 12.3487 6.99075 12.3487C7.27378 12.3487 7.55678 12.241 7.77225 12.0255L15.509 4.28879C16.1592 3.63857 16.1592 2.58057 15.509 1.93029ZM14.9044 3.68426L7.16766 11.4211C7.07016 11.5186 6.91141 11.5186 6.81391 11.4211L3.05325 7.66039C2.73634 7.34348 2.73634 6.82789 3.05325 6.51098C3.21169 6.35248 3.41978 6.27329 3.62794 6.27329C3.83609 6.27329 4.04422 6.35251 4.20263 6.51098L6.44894 8.75729C6.59369 8.90201 6.78616 8.9817 6.99078 8.9817C7.1955 8.9817 7.38797 8.90198 7.53269 8.75726L13.755 2.53485C14.0718 2.21795 14.5875 2.21795 14.9044 2.53485C15.2213 2.85176 15.2213 3.36735 14.9044 3.68426Z" fill="black"/>
</g>
<defs>
<clipPath id="clip0_8585_3574">
<rect width="16" height="16" fill="white"/>
</clipPath>
</defs>
</svg>
