<svg width="16" height="16" viewBox="0 0 16 16" fill="none" xmlns="http://www.w3.org/2000/svg">
<g clip-path="url(#clip0_8585_3608)">
<path d="M14.6693 8H1.33594" stroke="black" stroke-linecap="round"/>
<path d="M8 1.33337V14.6667" stroke="black" stroke-linecap="round"/>
<path d="M8.66406 8C8.66406 9.47273 9.858 10.6667 11.3307 10.6667" stroke="black" stroke-linecap="round"/>
<path d="M7.33073 8C7.33073 9.47273 6.13682 10.6667 4.66406 10.6667" stroke="black" stroke-linecap="round"/>
<path d="M8 6.69018C8 5.6969 8.676 4.8311 9.6396 4.5902C10.7087 4.32292 11.6772 5.29136 11.4099 6.36051C11.169 7.32411 10.3032 8.00011 9.30993 8.00011H8V6.69018Z" stroke="black"/>
<path d="M8.0017 6.69018C8.0017 5.6969 7.3257 4.8311 6.3621 4.5902C5.29295 4.32292 4.3245 5.29136 4.59179 6.36051C4.83269 7.32411 5.69849 8.00011 6.69176 8.00011H8.0017V6.69018Z" stroke="black"/>
<path d="M14.6693 8.00004C14.6693 11.1427 14.6693 12.7141 13.6929 13.6904C12.7167 14.6667 11.1453 14.6667 8.0026 14.6667C4.8599 14.6667 3.28856 14.6667 2.31225 13.6904C1.33594 12.7141 1.33594 11.1427 1.33594 8.00004C1.33594 4.85734 1.33594 3.28599 2.31225 2.30969C3.28856 1.33337 4.8599 1.33337 8.0026 1.33337C11.1453 1.33337 12.7167 1.33337 13.6929 2.30969C14.3421 2.95885 14.5597 3.87107 14.6325 5.33337" stroke="black" stroke-linecap="round"/>
</g>
<defs>
<clipPath id="clip0_8585_3608">
<rect width="16" height="16" fill="white"/>
</clipPath>
</defs>
</svg>
