<svg width="29" height="38" viewBox="0 0 29 38" fill="none" xmlns="http://www.w3.org/2000/svg">
<path d="M18.7243 37.8126L22.032 32.619C22.0772 32.5482 22.1434 32.4931 22.2216 32.4613C22.2998 32.4295 22.386 32.4226 22.4683 32.4416L28.496 33.8597C28.5691 33.8773 28.6456 33.8746 28.7172 33.8517C28.7888 33.8288 28.8526 33.7868 28.9015 33.7302C28.9505 33.6735 28.9827 33.6046 28.9945 33.5309C29.0064 33.4573 28.9975 33.3818 28.9687 33.3129L23.8516 20.8729L12.8828 25.3062L17.9999 37.7447C18.0278 37.8141 18.0744 37.8744 18.1346 37.9191C18.1948 37.9639 18.2663 37.9913 18.3412 37.9983C18.4161 38.0053 18.4915 37.9916 18.5591 37.9589C18.6267 37.9261 18.6839 37.8755 18.7243 37.8126Z" fill="url(#paint0_linear_9689_3879)"/>
<path d="M16.5621 25.3085L15.9673 26.7577L13.764 32.1105L13.6724 32.3311L12.8812 34.2576L11.4458 37.7429C11.4183 37.8131 11.3715 37.8742 11.3107 37.9193C11.25 37.9645 11.1777 37.9919 11.1021 37.9985C11.0265 38.0051 10.9505 37.9906 10.8828 37.9567C10.815 37.9227 10.7582 37.8706 10.7187 37.8064L7.41153 32.6152C7.3664 32.5443 7.3002 32.489 7.22206 32.457C7.14392 32.4249 7.05768 32.4177 6.97524 32.4363L0.948531 33.8538C0.875399 33.8711 0.798886 33.868 0.727411 33.8449C0.655936 33.8218 0.592267 33.7796 0.543408 33.723C0.494549 33.6664 0.462393 33.5974 0.450478 33.5239C0.438564 33.4503 0.447353 33.3748 0.475876 33.3059L5.59218 20.8729L16.5621 25.3085Z" fill="url(#paint1_linear_9689_3879)"/>
<path d="M14.3173 25.3285C21.4005 25.3285 27.1425 19.6585 27.1425 12.6642C27.1425 5.66997 21.4005 0 14.3173 0C7.2342 0 1.49219 5.66997 1.49219 12.6642C1.49219 19.6585 7.2342 25.3285 14.3173 25.3285Z" fill="url(#paint2_linear_9689_3879)"/>
<path d="M14.6894 23.5466C20.8778 23.5466 25.8944 18.5929 25.8944 12.4822C25.8944 6.37144 20.8778 1.41772 14.6894 1.41772C8.50104 1.41772 3.48438 6.37144 3.48438 12.4822C3.48438 18.5929 8.50104 23.5466 14.6894 23.5466Z" fill="url(#paint3_linear_9689_3879)"/>
<path style="mix-blend-mode:screen" d="M18.6363 3.19546C16.9108 2.52537 15.0324 2.33441 13.2049 2.64327C11.3773 2.95212 9.67018 3.74902 8.26855 4.94758C6.23152 6.68884 4.97821 9.15769 4.78421 11.8112C4.59021 14.4648 5.47139 17.0858 7.234 19.0979C8.11235 20.1026 9.18437 20.9246 10.3876 21.516C11.5909 22.1075 12.9013 22.4566 14.2425 22.5431L18.6363 3.19546Z" fill="url(#paint4_linear_9689_3879)"/>
<path d="M11.3524 24.0899C11.3155 23.83 11.2467 23.5755 11.1475 23.332C11.1221 23.2653 11.0945 23.2009 11.0669 23.1327C11.0392 23.0645 11.0093 22.9978 10.9794 22.9319C10.9195 22.7993 10.8551 22.6712 10.7883 22.553C10.7247 22.4318 10.6539 22.3144 10.5765 22.2013L10.5166 22.1157L10.4859 22.074L10.4552 22.0308C10.4143 21.9742 10.3728 21.9197 10.3309 21.8671C10.2887 21.8148 10.2457 21.7648 10.2035 21.7156C10.1812 21.6928 10.1605 21.6693 10.1398 21.6466C10.1191 21.6239 10.0976 21.6026 10.0768 21.5829C10.004 21.5095 9.92103 21.4465 9.83049 21.3958C9.79624 21.6996 9.81388 22.007 9.88268 22.3052C9.91884 22.4701 9.96706 22.6322 10.027 22.7902C10.0569 22.8705 10.0899 22.9501 10.1244 23.0281C10.159 23.1062 10.2012 23.1797 10.2388 23.2494C10.3058 23.367 10.3829 23.4788 10.469 23.5836C10.5549 23.6841 10.6478 23.7785 10.7468 23.8663C10.7952 23.908 10.8428 23.9497 10.8911 23.9838C10.9057 23.9944 10.9203 24.0027 10.9349 24.0126L10.8443 23.9891C10.7676 23.9694 10.6908 23.9527 10.6194 23.9277L10.1728 23.7913C10.0254 23.7405 9.87884 23.6867 9.73226 23.6344L9.6225 23.595L9.51429 23.5503L9.34161 23.479C9.34438 23.4712 9.34643 23.463 9.34775 23.4548C9.35795 23.1974 9.33552 22.9398 9.28098 22.6879C9.25489 22.5507 9.22496 22.4075 9.18889 22.2711C9.17124 22.2021 9.15205 22.1339 9.1321 22.068C9.11214 22.002 9.09065 21.9353 9.06993 21.8702C9.02859 21.743 8.9799 21.6182 8.92411 21.4965C8.89495 21.4359 8.86655 21.3723 8.83662 21.3101C8.80669 21.248 8.77522 21.1881 8.74299 21.1313C8.71076 21.0744 8.67698 21.0199 8.64475 20.9668C8.61252 20.9138 8.57875 20.8622 8.54498 20.8152C8.51273 20.772 8.47815 20.7305 8.44137 20.691C8.42372 20.672 8.40607 20.6553 8.38842 20.6394C8.37243 20.6228 8.35524 20.6074 8.337 20.5932C8.31616 20.6585 8.29874 20.7247 8.28481 20.7918C8.27099 20.86 8.25948 20.932 8.25104 21.0062C8.2339 21.1627 8.22851 21.3203 8.23493 21.4776C8.2409 21.6433 8.25989 21.8082 8.29172 21.971C8.32105 22.1341 8.36313 22.2947 8.41758 22.4514C8.46173 22.5756 8.51615 22.696 8.58029 22.8114C8.61245 22.8687 8.64754 22.9243 8.68543 22.9781C8.72227 23.0312 8.76217 23.0827 8.79978 23.1297C8.84913 23.193 8.90272 23.253 8.96018 23.3093C8.50546 23.1028 8.06386 22.8692 7.63783 22.6098C7.59562 22.584 7.55572 22.556 7.51427 22.534C7.51928 22.5248 7.52339 22.5152 7.52655 22.5052C7.57935 22.2585 7.60127 22.0062 7.59179 21.7542C7.59179 21.6155 7.58411 21.4746 7.5726 21.3359C7.56109 21.1972 7.54267 21.0623 7.52502 20.9282C7.50553 20.7984 7.47862 20.6699 7.44444 20.5432C7.41067 20.4128 7.37382 20.281 7.33008 20.1597C7.289 20.045 7.24187 19.9324 7.18887 19.8225C7.1441 19.7331 7.08899 19.6492 7.02463 19.5724C6.89565 19.8366 6.81312 20.1205 6.78057 20.4121C6.76983 20.4879 6.76139 20.5743 6.75755 20.6546C6.75371 20.7349 6.75218 20.8168 6.75371 20.8994C6.75525 20.982 6.75908 21.0631 6.76599 21.1449C6.77165 21.2252 6.78139 21.3051 6.79516 21.3844C6.83905 21.6369 6.92571 21.8803 7.05149 22.1043C7.08142 22.1574 7.11212 22.2089 7.14358 22.2559C7.1574 22.2779 7.17198 22.2983 7.18656 22.3188C6.82096 22.0696 6.46897 21.8014 6.13206 21.5155C6.05532 21.4526 5.98625 21.3874 5.91334 21.3222C5.92104 21.314 5.92726 21.3045 5.93175 21.2942C6.02387 21.0641 6.08652 20.8235 6.11825 20.578C6.14051 20.4439 6.15662 20.3067 6.16814 20.1711C6.17351 20.1029 6.17734 20.0354 6.18041 19.9687C6.18348 19.9021 6.18732 19.8339 6.18809 19.7687C6.19026 19.6399 6.18488 19.5111 6.17197 19.3829C6.16046 19.2518 6.14665 19.1177 6.12285 18.9934C6.11748 18.9623 6.11057 18.9313 6.10444 18.9017C6.1006 18.8866 6.09753 18.8714 6.09446 18.857C6.09139 18.8426 6.08755 18.8267 6.08448 18.8123C6.07118 18.7522 6.0566 18.6961 6.04073 18.644C6.02516 18.5942 6.00645 18.5453 5.98471 18.4978C5.97473 18.475 5.96399 18.4538 5.95324 18.4341C5.9425 18.4144 5.93175 18.394 5.92024 18.3758C5.88264 18.4265 5.84349 18.4819 5.81049 18.5402C5.77749 18.5986 5.74373 18.6607 5.71303 18.7259C5.64826 18.8632 5.59387 19.005 5.55032 19.1503C5.52806 19.2261 5.50504 19.3018 5.48892 19.3814C5.47281 19.461 5.45823 19.5375 5.44671 19.6171C5.4352 19.6967 5.42523 19.777 5.41832 19.8566C5.41086 19.9354 5.40753 20.0146 5.40834 20.0938C5.40973 20.3448 5.45383 20.5938 5.53881 20.8304C5.5677 20.9123 5.60126 20.9925 5.63935 21.0706C5.25529 20.7067 4.89634 20.3179 4.5649 19.9066C4.57562 19.8985 4.58494 19.8888 4.59252 19.8778C4.71824 19.6697 4.81724 19.447 4.88723 19.2147C4.92944 19.0881 4.96398 18.9578 5.00005 18.8274C5.01617 18.763 5.03152 18.6979 5.04456 18.6342C5.05761 18.5705 5.06989 18.5054 5.08294 18.4425C5.10589 18.3171 5.12152 18.1906 5.12975 18.0635C5.12975 17.9991 5.13666 17.934 5.13973 17.8695C5.1428 17.8051 5.14357 17.7407 5.13973 17.6786C5.13589 17.6164 5.13589 17.555 5.13052 17.4967C5.12515 17.4383 5.12207 17.3807 5.1144 17.3269C5.1031 17.2312 5.07722 17.1377 5.03765 17.0496C4.84078 17.2531 4.67901 17.4871 4.55875 17.7422C4.52345 17.8119 4.49352 17.8824 4.46436 17.9552C4.43519 18.0279 4.4091 18.1022 4.38761 18.1772C4.33826 18.3257 4.3008 18.4777 4.27556 18.6319C4.25662 18.7546 4.24739 18.8785 4.24793 19.0025C4.24823 19.0643 4.25208 19.126 4.25944 19.1874C4.26558 19.248 4.27402 19.3072 4.28477 19.3647C4.29475 19.4231 4.30703 19.4784 4.32007 19.5322C4.32698 19.5588 4.33389 19.5845 4.34156 19.608C4.34156 19.6141 4.3454 19.6186 4.34693 19.6239C4.03391 19.211 3.74808 18.7787 3.49121 18.3295C3.50389 18.3233 3.51533 18.3148 3.52498 18.3045C3.68001 18.1224 3.81125 17.9218 3.91562 17.7074C3.97241 17.5937 4.0315 17.4717 4.08369 17.3512C4.13588 17.2307 4.18346 17.1087 4.22337 16.9904C4.26482 16.8728 4.30017 16.7532 4.32928 16.632C4.34386 16.5698 4.35691 16.5077 4.36766 16.4463C4.3784 16.3849 4.39145 16.322 4.40066 16.2614C4.41876 16.1476 4.428 16.0326 4.42828 15.9173C4.43392 15.8226 4.42513 15.7276 4.40219 15.6354C4.29619 15.7125 4.19754 15.799 4.10748 15.8939C4.00629 16 3.91366 16.1137 3.83043 16.2341C3.65512 16.4869 3.51592 16.7623 3.41676 17.0526C3.39758 17.1094 3.38146 17.1678 3.36688 17.2269C3.35172 17.2863 3.33993 17.3465 3.33157 17.4073C3.31652 17.5254 3.30934 17.6444 3.31008 17.7634C3.31008 17.821 3.31009 17.8771 3.31776 17.9309C3.32237 17.9696 3.32927 18.0067 3.33541 18.0423C3.09465 17.5928 2.88317 17.1286 2.70225 16.6524C2.71767 16.6488 2.73208 16.6418 2.74446 16.632C2.92186 16.4785 3.07959 16.3042 3.21415 16.1129C3.2909 16.0106 3.36151 15.9029 3.42828 15.7946C3.49505 15.6862 3.56488 15.574 3.62244 15.4649C3.73597 15.2464 3.82897 15.0181 3.90027 14.7829C3.91562 14.7253 3.9348 14.6677 3.94862 14.6131C3.96243 14.5585 3.97394 14.504 3.98239 14.4524C3.99064 14.4038 3.99577 14.3547 3.99774 14.3054C4.00044 14.2618 4.00044 14.218 3.99774 14.1743C3.94401 14.2016 3.89029 14.2327 3.8358 14.2675C3.77957 14.3031 3.72527 14.3416 3.6731 14.3827C3.56041 14.4712 3.45446 14.5677 3.35613 14.6715C3.14763 14.8906 2.9705 15.1369 2.82965 15.4035C2.81584 15.4293 2.80279 15.4558 2.78974 15.4831C2.7767 15.5104 2.76672 15.5369 2.75521 15.5642C2.73372 15.6195 2.71453 15.6756 2.69688 15.7332C2.66284 15.8451 2.63719 15.9593 2.62013 16.075C2.60786 16.172 2.60248 16.2697 2.60402 16.3675C2.47969 16.0128 2.37378 15.6536 2.28168 15.2883L2.19956 14.9193C2.21708 14.9189 2.23422 14.9142 2.24945 14.9056C2.44353 14.784 2.6212 14.6386 2.77823 14.4729C2.95677 14.2962 3.121 14.1059 3.26941 13.9038C3.34224 13.8081 3.40913 13.7081 3.46972 13.6044C3.50042 13.5521 3.53035 13.4983 3.55798 13.4445C3.58561 13.3907 3.6163 13.3369 3.64163 13.2831C3.69115 13.1835 3.73248 13.0801 3.7652 12.9739C3.79717 12.8874 3.81655 12.7968 3.82276 12.7049C3.70358 12.7468 3.58849 12.7993 3.47893 12.8617C3.41983 12.8951 3.36074 12.9315 3.30087 12.9709C3.24101 13.0103 3.18575 13.052 3.12819 13.0974C2.89486 13.2799 2.68824 13.4933 2.51422 13.7317C2.44583 13.8279 2.38527 13.9293 2.3331 14.0349C2.28442 14.1381 2.24363 14.2447 2.21107 14.3539C2.1947 14.4044 2.18088 14.455 2.16963 14.5055C2.15886 14.5512 2.15066 14.5975 2.14507 14.6442L2.13893 14.6078L2.09902 14.3805C2.06909 14.2289 2.05527 14.0773 2.03455 13.9212L2.00616 13.6939C1.99848 13.6181 1.99388 13.5423 1.98774 13.4665L1.97009 13.2354V13.1891C1.98864 13.1926 2.00781 13.1908 2.02534 13.1838C2.12267 13.1429 2.21659 13.0945 2.30624 13.0391C2.40832 12.9773 2.50719 12.9106 2.60248 12.839C2.79827 12.6904 2.98365 12.5288 3.15736 12.3555C3.32276 12.1854 3.47178 12.0004 3.60249 11.803C3.66468 11.713 3.71959 11.6182 3.76673 11.5196C3.80963 11.4401 3.84041 11.3549 3.85806 11.2665C3.73722 11.2913 3.61883 11.3265 3.50425 11.3718C3.44286 11.3961 3.38069 11.4234 3.31776 11.4537C3.25483 11.4832 3.1942 11.5166 3.1328 11.5522C3.00709 11.6258 2.88611 11.7071 2.77056 11.7955C2.65726 11.8849 2.54961 11.981 2.44822 12.0834C2.42826 12.1039 2.40831 12.1244 2.38912 12.1456C2.36994 12.1668 2.35305 12.1888 2.33463 12.2108C2.29933 12.2557 2.26556 12.302 2.23333 12.3494C2.2011 12.3972 2.1704 12.4457 2.142 12.495C2.11366 12.5422 2.08804 12.5911 2.06525 12.6412C2.02322 12.732 1.98807 12.8257 1.96011 12.9216L1.95627 12.936L1.94553 12.5397C1.94553 12.4639 1.94553 12.3881 1.94553 12.3078V12.1918C1.94553 12.1532 1.94553 12.116 1.94553 12.0759L1.95627 11.8447L1.96165 11.7288L1.97086 11.6128C1.97086 11.5704 1.9793 11.528 1.98313 11.4848C2.00162 11.4905 2.02144 11.4905 2.03993 11.4848C2.14077 11.4583 2.23911 11.4233 2.33387 11.3802C2.44089 11.3352 2.54541 11.2846 2.64699 11.2286C2.75214 11.171 2.85498 11.1074 2.95398 11.0414C3.05299 10.9755 3.15582 10.9058 3.24792 10.8353C3.34001 10.7648 3.42521 10.6928 3.51116 10.6117C3.55414 10.5716 3.59558 10.5299 3.63626 10.4882C3.67693 10.4465 3.71838 10.4041 3.75599 10.3609C3.89231 10.2199 4.00107 10.0552 4.07679 9.87511C3.82112 9.89449 3.57041 9.95516 3.33464 10.0547C3.0717 10.1622 2.82465 10.3041 2.60018 10.4768C2.42543 10.6149 2.27413 10.7797 2.15198 10.9649C2.09941 11.0471 2.05299 11.1329 2.01307 11.2218C2.00846 11.2309 2.00616 11.2392 2.00232 11.2483C2.05099 10.7761 2.12787 10.3072 2.23256 9.84404C2.25025 9.85469 2.27113 9.85897 2.29166 9.85616C2.50519 9.82724 2.7141 9.77147 2.9133 9.6902C2.96779 9.66898 3.02152 9.64624 3.07677 9.62275C3.13203 9.59925 3.18652 9.575 3.24025 9.54696C3.34871 9.49644 3.45232 9.44289 3.55107 9.3863C3.64998 9.3316 3.74533 9.27086 3.83657 9.20442C3.88262 9.17108 3.9302 9.13622 3.97625 9.10135C4.0223 9.06649 4.06604 9.03012 4.10825 8.99374C4.18928 8.92499 4.26616 8.85161 4.33849 8.77397C4.36948 8.73998 4.39819 8.70403 4.42445 8.66636C4.44879 8.63382 4.47035 8.59935 4.48892 8.56329C4.37078 8.55483 4.25212 8.55686 4.13435 8.56935C4.00334 8.58426 3.87357 8.60832 3.74601 8.64135C3.68001 8.65802 3.6117 8.67697 3.54646 8.6997C3.48123 8.72244 3.41523 8.74593 3.35076 8.77549C3.22196 8.82698 3.09705 8.8875 2.977 8.95661C2.8824 9.01224 2.79233 9.07508 2.70762 9.14455C2.62534 9.21466 2.54838 9.29065 2.47738 9.3719C2.41309 9.4421 2.35578 9.51823 2.30624 9.59925C2.29703 9.61365 2.29089 9.62729 2.28322 9.64169C2.39617 9.18776 2.53557 8.74065 2.70072 8.3026C2.71704 8.31681 2.73805 8.32462 2.75981 8.32457C2.96972 8.32442 3.17871 8.29716 3.38146 8.24348C3.49351 8.21772 3.6071 8.18665 3.71761 8.15103C3.82813 8.11541 3.93557 8.07524 4.04071 8.03508C4.14315 7.99411 4.24309 7.9473 4.34003 7.89488C4.44016 7.8435 4.53727 7.78657 4.6309 7.72437C4.79356 7.62765 4.93689 7.5023 5.05377 7.35454C4.94061 7.33125 4.82552 7.31831 4.70995 7.31589C4.58168 7.31344 4.4534 7.32053 4.32621 7.33711C4.05598 7.37061 3.79144 7.43942 3.53956 7.54173C3.34321 7.62441 3.16177 7.73805 3.00233 7.87821C2.91375 7.95317 2.83464 8.03841 2.76672 8.13208C2.78284 8.08964 2.79819 8.0472 2.81507 8.00552C2.97492 7.62149 3.15422 7.24563 3.3523 6.87937C3.35907 6.88836 3.36757 6.89593 3.37732 6.90165C3.38706 6.90737 3.39786 6.91114 3.40909 6.91272C3.61287 6.93915 3.81928 6.93915 4.02306 6.91272C4.13511 6.90135 4.2487 6.88468 4.35998 6.86422C4.41601 6.85361 4.46973 6.84224 4.52499 6.83012C4.58024 6.81799 4.63473 6.80586 4.68769 6.79222C4.79166 6.76401 4.89412 6.73063 4.99468 6.69219C5.09826 6.65472 5.19949 6.6112 5.29783 6.56184C5.3899 6.51813 5.47843 6.46745 5.5626 6.41028C5.60098 6.38375 5.63935 6.35798 5.67005 6.33449C5.70062 6.30979 5.72912 6.28267 5.75524 6.2534C5.52782 6.18059 5.28975 6.14551 5.0507 6.14958C4.98547 6.14958 4.91947 6.14958 4.8527 6.15564C4.78593 6.1617 4.71839 6.16549 4.65239 6.17459C4.52131 6.1924 4.39139 6.2177 4.26328 6.25037C4.16274 6.27889 4.06469 6.31538 3.97011 6.3595C3.92253 6.38148 3.87571 6.40573 3.82966 6.43074C3.78361 6.45574 3.74294 6.48303 3.70149 6.51031C3.62521 6.56066 3.5531 6.61692 3.48584 6.67855C3.46358 6.69977 3.44516 6.72023 3.42674 6.74069C3.50349 6.60655 3.58023 6.47469 3.65698 6.34358C3.81457 6.08592 3.98136 5.83457 4.15737 5.58954C4.1618 5.60087 4.16892 5.61098 4.17814 5.61903C4.18735 5.62707 4.19839 5.63281 4.21033 5.63577C4.30117 5.6604 4.39379 5.67813 4.48738 5.68881C4.59212 5.70059 4.6974 5.70717 4.80281 5.70852C5.02293 5.71217 5.24303 5.69976 5.4613 5.67138C5.5646 5.65634 5.66707 5.63611 5.76828 5.61076C5.8722 5.58595 5.97468 5.55559 6.07527 5.51982C6.24969 5.46774 6.41284 5.38423 6.55647 5.27352C6.4579 5.2264 6.35513 5.18835 6.24949 5.15984C6.13114 5.12808 6.01057 5.10503 5.88878 5.09088C5.82508 5.0833 5.76061 5.07724 5.69537 5.07345C5.63014 5.06966 5.56414 5.06814 5.49967 5.0689C5.37129 5.07091 5.24315 5.08052 5.11594 5.0977C5.01502 5.11246 4.91562 5.13605 4.81893 5.16818C4.76981 5.18334 4.72146 5.20076 4.67464 5.21971C4.62783 5.23866 4.58331 5.25988 4.54034 5.28185C4.46044 5.32193 4.3835 5.36751 4.3101 5.41826C4.28247 5.43873 4.25944 5.45843 4.23335 5.47813C4.39605 5.25684 4.56413 5.0401 4.74064 4.82942C4.85116 4.69983 4.96475 4.57328 5.07987 4.45051C5.08236 4.46306 5.08803 4.47479 5.09635 4.48459C5.10467 4.4944 5.11537 4.50196 5.12745 4.50659C5.30856 4.57702 5.49818 4.62389 5.69154 4.64603C5.79745 4.66119 5.90566 4.67179 6.01387 4.67786C6.0676 4.68165 6.12132 4.68316 6.17427 4.68392C6.22723 4.68468 6.28095 4.68392 6.33314 4.68392C6.43584 4.68189 6.53834 4.67405 6.64013 4.66043C6.74488 4.64867 6.84891 4.63121 6.95172 4.60814L7.02846 4.58995L7.10061 4.57176C7.14819 4.55888 7.1927 4.54448 7.23491 4.52856C7.27487 4.51443 7.31384 4.49772 7.35157 4.47855C7.38579 4.4625 7.41864 4.44375 7.4498 4.42247C7.359 4.36579 7.26319 4.31734 7.16354 4.27772C7.05234 4.23434 6.93822 4.19863 6.82202 4.17086C6.76139 4.15646 6.69999 4.14282 6.63706 4.13221C6.57413 4.1216 6.51196 4.11327 6.44903 4.10645C6.32363 4.09317 6.19754 4.08735 6.07143 4.08902C5.97193 4.0926 5.87287 4.10401 5.77519 4.12312C5.72608 4.13297 5.67619 4.14358 5.62937 4.15722C5.58256 4.17086 5.53727 4.18526 5.49276 4.20118C5.41049 4.23027 5.33068 4.26574 5.25408 4.30728C5.22031 4.32698 5.18961 4.34668 5.16198 4.36563C5.44595 4.06249 5.74449 3.77376 6.05762 3.50094L6.10827 3.4585C6.10754 3.47196 6.11087 3.48534 6.11783 3.49694C6.1248 3.50854 6.13509 3.51784 6.14741 3.52367C6.31425 3.61272 6.49232 3.67949 6.67697 3.72223C6.77597 3.74723 6.88188 3.77148 6.98395 3.78891C7.08603 3.80634 7.1904 3.82074 7.29094 3.8306C7.49373 3.84876 7.69783 3.84724 7.90031 3.82605C7.95148 3.821 7.99982 3.81417 8.04536 3.80559C8.09141 3.79725 8.13822 3.78967 8.18043 3.77906C8.25707 3.76265 8.33097 3.73561 8.39993 3.69873C8.22487 3.56502 8.02924 3.45986 7.82049 3.38726C7.70521 3.34554 7.58728 3.31137 7.46746 3.28495C7.40683 3.27131 7.34543 3.25918 7.2848 3.24933C7.22417 3.23948 7.16431 3.23266 7.10444 3.22736C7.00738 3.21977 6.90987 3.21977 6.81281 3.22736C6.71794 3.23543 6.6238 3.25037 6.53115 3.27207C6.48663 3.28192 6.44366 3.29405 6.40221 3.30617C6.36077 3.3183 6.32547 3.33345 6.28863 3.34785C6.24379 3.36718 6.20044 3.38973 6.15893 3.4153C6.44698 3.17229 6.74553 2.94241 7.05456 2.72567C7.05993 2.73091 7.06699 2.73413 7.07452 2.73476C7.14042 2.7373 7.20639 2.73196 7.27099 2.71885C7.30936 2.71203 7.34773 2.70217 7.39148 2.69232C7.43523 2.68247 7.47667 2.6711 7.52118 2.65822C7.61021 2.6317 7.70384 2.59759 7.79747 2.5597C7.89078 2.52239 7.98176 2.47963 8.06992 2.43163C8.12441 2.40131 8.17967 2.36873 8.23493 2.33614C8.29018 2.30355 8.34544 2.26945 8.39993 2.23459C8.51044 2.16487 8.61943 2.08908 8.72303 2.0133C8.91393 1.88001 9.08651 1.72284 9.23647 1.54572C9.13751 1.5281 9.03682 1.52174 8.93639 1.52677C8.8794 1.52842 8.82253 1.53298 8.76601 1.54041C8.70845 1.54799 8.64859 1.55784 8.5895 1.56996C8.35918 1.6161 8.13686 1.69498 7.92947 1.80414C7.83087 1.85853 7.73601 1.91929 7.64551 1.98602C7.55655 2.05014 7.47242 2.12055 7.39378 2.1967C7.25356 2.32763 7.13725 2.48145 7.04996 2.6514C7.04348 2.66232 7.04007 2.67474 7.04007 2.6874C7.04007 2.70005 7.04348 2.71247 7.04996 2.72339C6.73581 2.94014 6.43214 3.17077 6.13897 3.4153C6.1752 3.37659 6.20782 3.33474 6.23644 3.29026C6.25793 3.25843 6.27865 3.22281 6.29937 3.18643C6.32009 3.15006 6.34235 3.11065 6.36384 3.06973C6.40528 2.98712 6.44443 2.89694 6.4805 2.80372C6.51729 2.71103 6.54805 2.6161 6.57259 2.51954C6.58794 2.46042 6.60175 2.39752 6.61557 2.33538C6.62938 2.27324 6.6432 2.2111 6.65471 2.14744C6.67927 2.02088 6.69769 1.88977 6.71304 1.76397C6.74608 1.53541 6.74866 1.30356 6.72071 1.07434C6.64027 1.13337 6.56666 1.20098 6.50121 1.27593C6.46514 1.31761 6.42447 1.36005 6.39454 1.40779C6.3646 1.45553 6.327 1.50479 6.29553 1.55557C6.17108 1.75235 6.07645 1.96605 6.01464 2.18988C5.9872 2.29809 5.96694 2.40796 5.95401 2.51878C5.9402 2.62659 5.9343 2.73524 5.93636 2.84389C5.93667 3.03448 5.96989 3.22362 6.03459 3.40317C6.0389 3.41639 6.04729 3.42795 6.05857 3.43623C6.06985 3.44452 6.08347 3.44913 6.09753 3.4494L6.04381 3.49336C5.7221 3.77096 5.41472 4.06436 5.12285 4.37245C5.1481 4.33489 5.17066 4.29564 5.19038 4.25498C5.22979 4.17704 5.26439 4.09682 5.29399 4.01475C5.31011 3.97079 5.32545 3.92381 5.34004 3.87607C5.35462 3.82832 5.3692 3.77982 5.38148 3.73056C5.40798 3.63088 5.42797 3.52963 5.44134 3.42743C5.45823 3.30162 5.47204 3.17128 5.48125 3.0379C5.48586 2.97197 5.48816 2.90376 5.49123 2.83783C5.4943 2.7719 5.49123 2.70597 5.49583 2.64003C5.49583 2.50969 5.49046 2.38237 5.47895 2.26111C5.46917 2.15093 5.45044 2.0417 5.42292 1.93448C5.38612 1.96627 5.35151 2.00045 5.31932 2.03679C5.28632 2.0762 5.25331 2.1194 5.22108 2.16563C5.18885 2.21185 5.15815 2.26187 5.12821 2.3134C5.11286 2.33917 5.09829 2.36494 5.0837 2.38919C5.06912 2.41344 5.05607 2.44375 5.04303 2.47179C4.9911 2.58363 4.94625 2.69853 4.90872 2.81585C4.87479 2.92651 4.84914 3.03948 4.83197 3.15385C4.8243 3.21068 4.81816 3.26676 4.81355 3.3236C4.80895 3.38044 4.80818 3.43879 4.80818 3.49639C4.80862 3.60811 4.8158 3.71971 4.82967 3.8306C4.85303 4.02497 4.91014 4.21391 4.99851 4.38912C5.00439 4.40075 5.01319 4.41069 5.02408 4.41799C5.03496 4.42529 5.04757 4.4297 5.06068 4.4308C4.94403 4.55584 4.83044 4.6824 4.71762 4.80972C4.5365 5.02293 4.36254 5.24219 4.19574 5.46753C4.20956 5.43645 4.22337 5.40311 4.23642 5.36598C4.26784 5.28215 4.29348 5.19631 4.31316 5.10907C4.32391 5.06132 4.33312 5.01206 4.34233 4.96129C4.35154 4.91051 4.36075 4.8605 4.36766 4.80972C4.38143 4.70541 4.38912 4.6004 4.39068 4.49522C4.39068 4.36563 4.39068 4.22998 4.38301 4.09281C4.3784 4.02384 4.37456 3.95564 4.36919 3.88819C4.36382 3.82074 4.35768 3.75254 4.34924 3.68585C4.33389 3.55247 4.31163 3.42136 4.2863 3.30238C4.26371 3.1907 4.23136 3.08116 4.1896 2.975C4.04411 3.15163 3.93464 3.35443 3.86727 3.57217C3.82807 3.69288 3.79655 3.81589 3.77287 3.94048C3.75159 4.05735 3.73953 4.17568 3.7368 4.29439C3.73278 4.52711 3.7604 4.75931 3.81891 4.98478C3.84519 5.08849 3.8801 5.18988 3.92329 5.28792C3.96084 5.37424 4.00685 5.45674 4.06067 5.53421C4.06746 5.54467 4.07675 5.55332 4.08772 5.5594C4.0987 5.56548 4.11102 5.5688 4.1236 5.56907C3.94555 5.8136 3.77645 6.0647 3.61631 6.32237C3.53598 6.45322 3.45923 6.58584 3.38607 6.72023C3.39374 6.69371 3.40141 6.66642 3.40755 6.63611C3.42784 6.54669 3.44219 6.45607 3.45053 6.3648C3.4559 6.31479 3.45897 6.26325 3.46128 6.21324C3.46358 6.16322 3.46665 6.1079 3.46742 6.05409C3.46796 5.946 3.46232 5.83796 3.45053 5.73049C3.43672 5.59863 3.41677 5.4607 3.39144 5.32202C3.37839 5.2523 3.36534 5.18334 3.35153 5.11437C3.33772 5.04541 3.32236 4.97796 3.30625 4.91127C3.25242 4.6669 3.16786 4.43013 3.05452 4.20648C3.02611 4.24851 3.00048 4.2923 2.97777 4.33759C2.95102 4.38805 2.92769 4.4402 2.90793 4.4937C2.86441 4.61157 2.82953 4.73238 2.80356 4.85519C2.77911 4.98343 2.76245 5.113 2.75367 5.2432C2.7467 5.36499 2.74953 5.48713 2.76211 5.60848C2.76825 5.66835 2.7767 5.72822 2.78667 5.78733C2.79665 5.84644 2.81123 5.90631 2.82581 5.96467C2.85655 6.07964 2.89475 6.19253 2.94017 6.30266C3.01388 6.49646 3.12141 6.67601 3.2579 6.83315C3.26593 6.84217 3.27586 6.84935 3.28699 6.8542C3.29813 6.85904 3.3102 6.86142 3.32237 6.86119C3.12113 7.22802 2.93876 7.60464 2.77593 7.98961C2.75751 8.03356 2.74139 8.07827 2.72374 8.12299C2.73792 8.00506 2.7433 7.88627 2.73986 7.76756C2.73299 7.54955 2.7042 7.33275 2.6539 7.12037C2.58618 6.84286 2.50108 6.56976 2.3991 6.30266C2.34845 6.17004 2.29243 6.04197 2.23487 5.92374C2.18285 5.81566 2.12148 5.71221 2.05144 5.61455C1.94821 5.83278 1.88928 6.06887 1.87799 6.30948C1.86917 6.44322 1.86917 6.57739 1.87799 6.71114C1.88789 6.83615 1.90713 6.96026 1.93555 7.08248C1.96391 7.20329 2.00137 7.32184 2.0476 7.43714C2.0915 7.54945 2.14277 7.65882 2.2011 7.76453C2.30265 7.95097 2.43611 8.11866 2.59557 8.26015C2.60424 8.26764 2.61435 8.27331 2.6253 8.27683C2.63625 8.28034 2.64781 8.28163 2.65927 8.28062C2.48901 8.72416 2.34499 9.1771 2.22796 9.63715C2.22796 9.6182 2.22796 9.60001 2.22796 9.57955C2.22335 9.49316 2.2103 9.3954 2.19496 9.29233C2.17677 9.18383 2.15294 9.07633 2.12358 8.97025C2.09576 8.86031 2.0609 8.75223 2.01921 8.64665C1.96548 8.51479 1.91022 8.38141 1.84729 8.24651C1.81582 8.17907 1.78359 8.11238 1.74983 8.04569C1.71606 7.979 1.68305 7.91458 1.64775 7.85092C1.58155 7.72715 1.50906 7.60675 1.43056 7.49019C1.36195 7.38717 1.28495 7.28984 1.20032 7.19918C1.18076 7.24972 1.16511 7.30166 1.1535 7.35454C1.14199 7.41062 1.13278 7.47049 1.12587 7.53339C1.11167 7.66554 1.1091 7.79866 1.1182 7.93125C1.1228 7.99946 1.12894 8.06842 1.13815 8.13739C1.14617 8.20537 1.1577 8.2729 1.17269 8.33973C1.19921 8.46545 1.23513 8.58907 1.28014 8.70955C1.32721 8.82815 1.38206 8.94359 1.44437 9.05513C1.47507 9.1102 1.5073 9.164 1.54107 9.21655C1.57484 9.26884 1.61091 9.31961 1.64775 9.36811C1.7759 9.54366 1.93437 9.69553 2.1159 9.81675C2.13428 9.8286 2.15628 9.83369 2.17807 9.83115C2.06762 10.3018 1.98612 10.7786 1.93401 11.2589C1.93401 11.2438 1.93402 11.2301 1.92788 11.2142C1.90873 11.1169 1.88309 11.021 1.85113 10.927C1.78338 10.7084 1.69339 10.4971 1.58252 10.2965C1.43456 10.0344 1.27079 9.78132 1.0921 9.53863C0.937544 9.31635 0.754952 9.1144 0.548736 8.93766C0.5059 9.18922 0.512939 9.44659 0.56946 9.6955C0.583274 9.76446 0.598624 9.83343 0.61781 9.90163C0.636997 9.96984 0.659252 10.0373 0.683043 10.1032C0.726231 10.2279 0.780416 10.3486 0.844978 10.4639C0.908868 10.5775 0.980138 10.6869 1.05834 10.7913C1.13604 10.8934 1.22065 10.9901 1.3116 11.0808C1.39519 11.1644 1.48498 11.2416 1.58021 11.312C1.66518 11.3732 1.7559 11.4262 1.85113 11.4704C1.87021 11.4785 1.89131 11.4809 1.91176 11.4772C1.90715 11.5196 1.90178 11.5628 1.89871 11.606L1.88874 11.722L1.88183 11.8387L1.86955 12.0721C1.86955 12.1107 1.86955 12.1479 1.86955 12.1888V12.3055C1.86955 12.3813 1.86955 12.4608 1.86495 12.5389L1.87339 12.9436C1.87339 12.936 1.87339 12.9299 1.86801 12.9231C1.83481 12.8273 1.7956 12.7337 1.75059 12.6427C1.7268 12.5935 1.69764 12.5427 1.67385 12.4912C1.65006 12.4396 1.61859 12.3889 1.58789 12.3396C1.55719 12.2903 1.52496 12.238 1.49119 12.188C1.47354 12.163 1.45665 12.138 1.439 12.1122C1.42135 12.0865 1.40446 12.0637 1.38681 12.0402C1.29778 11.9228 1.19955 11.8038 1.09594 11.6856C0.992333 11.5674 0.890263 11.4514 0.78205 11.3423C0.728327 11.2877 0.673065 11.2339 0.619342 11.1831C0.565619 11.1324 0.512668 11.0846 0.459712 11.0391C0.361173 10.9548 0.255658 10.8788 0.14428 10.8118C0.137673 10.9319 0.144624 11.0524 0.165003 11.171C0.19111 11.3082 0.227016 11.4435 0.27245 11.5757C0.364552 11.8405 0.496498 12.0901 0.663857 12.3161C0.824366 12.5275 1.01397 12.7157 1.22718 12.8754C1.32417 12.9486 1.42681 13.0142 1.53417 13.0717C1.62922 13.1225 1.72924 13.1636 1.83271 13.1944C1.85053 13.1994 1.86938 13.1994 1.8872 13.1944V13.2407L1.90332 13.4741C1.90946 13.5499 1.91329 13.6294 1.92097 13.7067L1.94783 13.9386C1.96778 14.0902 1.98083 14.2486 2.01 14.4017L2.04837 14.629L2.05604 14.676V14.6715C2.03302 14.6305 2.01 14.5873 1.9839 14.5426C1.95781 14.4979 1.92864 14.4517 1.89718 14.4047C1.83501 14.3115 1.76057 14.2152 1.68306 14.1205C1.60767 14.025 1.52615 13.9344 1.439 13.8492C1.21214 13.6291 0.973093 13.4217 0.722953 13.2278C0.660021 13.18 0.595553 13.1338 0.534923 13.0899C0.474293 13.0459 0.412127 13.005 0.352265 12.9663C0.240449 12.8937 0.122607 12.8306 0 12.7776C0.0103162 12.9004 0.0345142 13.0217 0.0721421 13.1391C0.119066 13.2748 0.175744 13.407 0.241749 13.5347C0.276286 13.6006 0.311592 13.6658 0.349965 13.7295C0.388338 13.7931 0.432849 13.8545 0.476594 13.9136C0.55805 14.0254 0.647563 14.1313 0.74444 14.2304C0.939714 14.4197 1.15899 14.5832 1.39679 14.7169C1.60187 14.8322 1.82575 14.9112 2.05834 14.9503C2.07385 14.9506 2.08924 14.9477 2.10363 14.942L2.18037 15.3149C2.26786 15.6854 2.37684 16.0515 2.50041 16.4122C2.43924 16.3294 2.37258 16.2506 2.30087 16.1765C2.22412 16.0916 2.13816 16.0037 2.04453 15.9196C1.99848 15.8779 1.95013 15.837 1.90101 15.7976C1.87569 15.7771 1.85113 15.7582 1.82427 15.7393C1.79741 15.7203 1.77515 15.7006 1.74752 15.6824C1.48508 15.4933 1.21221 15.3187 0.93017 15.1595C0.789724 15.0837 0.649278 15.0079 0.513436 14.9488C0.445131 14.9193 0.37836 14.892 0.315428 14.8685C0.254394 14.8455 0.192138 14.8257 0.128934 14.8094C0.14092 14.8682 0.157597 14.926 0.178817 14.9822C0.201841 15.0413 0.228702 15.1027 0.260168 15.1656C0.291634 15.2285 0.326174 15.2914 0.364547 15.3543C0.402192 15.4195 0.443707 15.4825 0.488876 15.543C0.662016 15.7825 0.870823 15.9948 1.10822 16.1727C1.22211 16.256 1.34132 16.3319 1.46509 16.4001C1.58738 16.4648 1.71406 16.521 1.84422 16.5683C2.06768 16.6556 2.30541 16.7018 2.54569 16.7047C2.56239 16.7044 2.57874 16.7 2.59327 16.6919C2.7748 17.1791 2.98809 17.6543 3.2318 18.1143C3.20111 18.0848 3.16811 18.0544 3.13203 18.0241C3.09596 17.9938 3.04838 17.9483 3.00233 17.9135C2.90518 17.8358 2.80399 17.7632 2.69918 17.696C2.64392 17.6619 2.59174 17.6263 2.53648 17.5937C2.48122 17.5611 2.4252 17.5293 2.3684 17.5005C2.0723 17.3502 1.7682 17.2159 1.45742 17.0981C1.30393 17.0412 1.15043 16.9882 1.00538 16.9465C0.871096 16.9077 0.733751 16.88 0.594787 16.8639C0.643793 16.9843 0.70635 17.099 0.781281 17.2057C0.870139 17.3281 0.968406 17.4437 1.07522 17.5512C1.13048 17.6073 1.18574 17.6619 1.2456 17.7134C1.30546 17.765 1.36839 17.8135 1.42979 17.8597C1.54627 17.9476 1.66972 18.0262 1.79894 18.0946C1.9284 18.1598 2.06195 18.2168 2.19879 18.2651C2.33112 18.3132 2.46714 18.3507 2.60555 18.3773C2.84547 18.4294 3.09288 18.4389 3.33618 18.4053C3.35168 18.4025 3.36636 18.3962 3.37916 18.3871C3.64055 18.8486 3.9323 19.2926 4.25254 19.7164L4.2203 19.6944L4.15277 19.6489C4.10595 19.6186 4.05606 19.5891 3.99927 19.5588C3.94248 19.5284 3.89106 19.4996 3.8335 19.4716C3.77594 19.4436 3.71684 19.4155 3.65852 19.3875C3.53941 19.332 3.41688 19.2839 3.29166 19.2435C3.13433 19.1942 2.9747 19.1435 2.80893 19.0995C2.72604 19.0768 2.64162 19.0556 2.55797 19.0358C2.47431 19.0161 2.38835 18.9987 2.30777 18.9805C2.01203 18.9105 1.70853 18.8777 1.40446 18.8828C1.47498 18.9962 1.55784 19.1016 1.65159 19.1973C1.70224 19.2503 1.75596 19.3034 1.81506 19.3541C1.87415 19.4049 1.93785 19.4534 2.00309 19.5012C2.06832 19.5489 2.13509 19.5944 2.20263 19.6376C2.2364 19.6595 2.27017 19.68 2.3047 19.7005C2.33924 19.7209 2.37531 19.7391 2.40985 19.7573C2.54269 19.8264 2.68042 19.8859 2.82197 19.9354C2.85651 19.9475 2.89181 19.9589 2.92712 19.9695L3.03533 19.9983C3.10748 20.0157 3.18038 20.0316 3.25329 20.0445C3.3945 20.0705 3.53731 20.0873 3.68077 20.0945C3.93185 20.1077 4.18331 20.0772 4.42368 20.0044C4.43678 19.9999 4.44899 19.9933 4.45975 19.9847C4.79564 20.4075 5.16026 20.8073 5.55109 21.1813C5.46533 21.1397 5.37747 21.1025 5.28785 21.0699C5.03899 20.9787 4.78205 20.9107 4.52038 20.8668L4.26865 20.8296C4.18423 20.8183 4.09751 20.8077 4.01002 20.7986C3.92253 20.7895 3.83427 20.7819 3.74601 20.7751C3.65775 20.7683 3.57256 20.7622 3.48584 20.7584C3.31469 20.7493 3.14585 20.747 2.98698 20.7539C2.91024 20.7577 2.83349 20.7637 2.75674 20.7721C2.68743 20.7789 2.61853 20.7893 2.55029 20.8031C2.56948 20.8266 2.58943 20.8509 2.61169 20.8744C2.63395 20.8979 2.65851 20.9213 2.68383 20.9441C2.73448 20.9903 2.79051 21.0365 2.85114 21.082C2.91177 21.1275 2.97547 21.1714 3.04224 21.2139L3.09289 21.2457L3.14662 21.2753C3.18192 21.295 3.21876 21.3139 3.2556 21.3329C3.40166 21.4079 3.55298 21.4724 3.7084 21.5261C3.85394 21.5748 4.003 21.6125 4.1543 21.639C4.23104 21.6511 4.30165 21.6625 4.3784 21.6686C4.45515 21.6746 4.53189 21.6784 4.60864 21.6799C4.75551 21.6831 4.90242 21.6765 5.0484 21.6602C5.30403 21.6341 5.55281 21.5627 5.78287 21.4496C5.79412 21.4435 5.80424 21.4355 5.8128 21.4261C5.88571 21.492 5.95785 21.5579 6.03229 21.6216C6.37497 21.9165 6.73366 22.1927 7.10675 22.4491C7.07835 22.4408 7.05149 22.4332 7.02079 22.4257C6.96477 22.4113 6.9049 22.3976 6.84274 22.3862C6.5771 22.3363 6.30731 22.3109 6.0369 22.3105L5.77749 22.315C5.68923 22.315 5.60021 22.3211 5.51118 22.3264C5.42216 22.3317 5.33083 22.3377 5.24103 22.3461C5.15124 22.3544 5.06375 22.3612 4.97626 22.3711C4.65833 22.3993 4.345 22.4652 4.04302 22.5674C4.14814 22.6603 4.26562 22.7385 4.39222 22.8C4.5363 22.876 4.68709 22.9389 4.84272 22.988C5.00123 23.0376 5.16304 23.0764 5.32699 23.1039C5.48206 23.1289 5.63881 23.1423 5.79591 23.1441C5.95003 23.1452 6.104 23.1343 6.25639 23.1115C6.40464 23.0904 6.5513 23.0595 6.69539 23.019C6.94796 22.9494 7.18599 22.836 7.39838 22.6841C7.40696 22.6774 7.41447 22.6695 7.42064 22.6606C7.46209 22.6871 7.50276 22.7151 7.54497 22.7417C7.9809 23.0106 8.43301 23.253 8.89878 23.4677C8.8159 23.4601 8.7261 23.4548 8.63247 23.4518C8.56801 23.4518 8.50123 23.4518 8.43293 23.4518C8.36462 23.4518 8.29479 23.4586 8.22572 23.4609C8.08567 23.4681 7.94622 23.484 7.80821 23.5086C7.63553 23.5412 7.46055 23.5715 7.28173 23.6132C7.10291 23.6549 6.92179 23.7019 6.75064 23.7481C6.5795 23.7943 6.41142 23.8504 6.25716 23.9095C6.18041 23.9391 6.10367 23.9701 6.0369 24.0027C5.97088 24.0323 5.90657 24.0654 5.84426 24.102C5.87036 24.1187 5.89876 24.1361 5.92869 24.152C5.95862 24.1679 5.99085 24.1823 6.02385 24.1967C6.09062 24.2263 6.16199 24.2528 6.23721 24.2778C6.31242 24.3028 6.3907 24.3248 6.47128 24.3445C6.55187 24.3642 6.63859 24.3778 6.72378 24.3907C6.80897 24.4036 6.89569 24.4135 6.98165 24.4203C7.06761 24.4271 7.15279 24.4317 7.23875 24.4301C7.39908 24.4293 7.55915 24.4169 7.71765 24.393C7.75603 24.3862 7.7944 24.3801 7.83354 24.3718C7.87268 24.3634 7.91028 24.3544 7.94943 24.3445C8.02617 24.3256 8.10292 24.3036 8.17967 24.2801C8.32573 24.2347 8.46812 24.1784 8.60561 24.1118C8.84705 23.9993 9.06636 23.8453 9.25335 23.6571C9.25918 23.6495 9.26432 23.6414 9.2687 23.6329L9.44292 23.7087L9.55267 23.7549L9.66395 23.7958C9.81207 23.8496 9.96019 23.905 10.1091 23.9572L10.5619 24.0997C10.6386 24.1247 10.7154 24.1422 10.7921 24.1634L10.8927 24.1899L10.829 24.1952C10.7676 24.2028 10.7054 24.2081 10.6402 24.2187C10.5032 24.2388 10.3674 24.2662 10.2334 24.3005C10.0943 24.3325 9.95719 24.3725 9.82282 24.4203C9.73916 24.4498 9.65397 24.4824 9.56878 24.5165C9.4836 24.5506 9.39764 24.5817 9.31168 24.6173C9.13977 24.6878 8.96632 24.7689 8.80132 24.8447C8.49769 24.9801 8.21209 25.1519 7.95096 25.3562C8.08907 25.4085 8.23274 25.4451 8.37921 25.4653C8.41912 25.4714 8.45979 25.4767 8.50123 25.4813C8.54268 25.4858 8.58489 25.4904 8.62787 25.4919C8.71383 25.4957 8.80208 25.4964 8.89034 25.4919C8.9786 25.4873 9.06763 25.485 9.15512 25.4775L9.22035 25.4714L9.28636 25.4623L9.41606 25.4411C9.57699 25.4134 9.73555 25.3736 9.89035 25.3221C10.0424 25.2668 10.1905 25.2018 10.3339 25.1273C10.4046 25.091 10.4736 25.0516 10.5396 25.0122C10.6056 24.9727 10.6709 24.9265 10.7323 24.8826C10.9541 24.7273 11.1459 24.534 11.2987 24.3119C11.3035 24.3039 11.3071 24.2952 11.3094 24.2861C11.8304 24.405 12.3584 24.4916 12.8904 24.5453L12.9088 24.3521C12.3843 24.3024 11.8635 24.2207 11.3493 24.1073C11.3507 24.1016 11.3517 24.0957 11.3524 24.0899Z" fill="url(#paint5_linear_9689_3879)"/>
<path d="M26.1239 14.9422C26.1403 14.9483 26.1579 14.9507 26.1754 14.949C26.4078 14.9099 26.6314 14.8309 26.8362 14.7156C27.0741 14.5821 27.2934 14.4185 27.4885 14.229C27.5859 14.1301 27.6756 14.0243 27.7571 13.9123C27.8001 13.8531 27.8423 13.791 27.883 13.7281C27.9237 13.6652 27.9597 13.5993 27.9912 13.5333C28.0574 13.4056 28.1144 13.2734 28.1616 13.1377C28.199 13.0203 28.2229 12.899 28.2329 12.7763C28.1106 12.8292 27.993 12.8924 27.8815 12.965C27.8208 13.0036 27.7602 13.0445 27.6988 13.0885C27.6374 13.1324 27.5729 13.1787 27.5108 13.2264C27.2606 13.4203 27.0216 13.6278 26.7947 13.8478C26.7073 13.933 26.6255 14.0236 26.5499 14.1191C26.4732 14.2139 26.3964 14.3101 26.3358 14.4033C26.3043 14.4503 26.2751 14.4965 26.249 14.5413C26.223 14.586 26.1999 14.6292 26.1769 14.6701C26.1769 14.6701 26.1769 14.6701 26.1769 14.6746L26.1854 14.6277L26.2237 14.4003C26.2529 14.2487 26.2659 14.0919 26.2851 13.9373L26.3128 13.7054C26.3197 13.6296 26.3243 13.55 26.3296 13.4727L26.3457 13.2393V13.1931C26.3638 13.198 26.3829 13.198 26.401 13.1931C26.5044 13.1621 26.6044 13.121 26.6995 13.0703C26.8068 13.0127 26.9094 12.9471 27.0065 12.874C27.2195 12.7144 27.4089 12.5261 27.5691 12.3147C27.7367 12.0889 27.8687 11.8393 27.9605 11.5743C28.0063 11.4422 28.0422 11.307 28.0679 11.1696C28.0883 11.051 28.0953 10.9306 28.0887 10.8104C27.9775 10.8774 27.8723 10.9535 27.774 11.0378C27.7203 11.0833 27.6673 11.1318 27.6136 11.1818C27.5599 11.2318 27.5046 11.2864 27.4509 11.3409C27.3435 11.45 27.2375 11.5683 27.137 11.6842C27.0365 11.8002 26.9359 11.9214 26.8469 12.0389C26.8293 12.0624 26.8116 12.0866 26.7947 12.1109C26.7778 12.1351 26.7594 12.1594 26.7425 12.1867C26.7088 12.2359 26.6758 12.2867 26.6458 12.3382C26.6159 12.3898 26.586 12.4413 26.5591 12.4898C26.5322 12.5383 26.5046 12.5913 26.4824 12.6414C26.4367 12.732 26.3975 12.8257 26.3649 12.9218C26.3649 12.9286 26.3649 12.9346 26.3588 12.9422L26.3672 12.5375C26.3672 12.4618 26.3672 12.3814 26.3672 12.3041V12.1874C26.3672 12.148 26.3672 12.1116 26.3626 12.0707L26.3504 11.8373L26.3442 11.7206L26.3342 11.6046C26.3342 11.5614 26.325 11.5182 26.3212 11.4758C26.3416 11.4795 26.3627 11.4771 26.3818 11.469C26.477 11.4249 26.5678 11.3718 26.6527 11.3106C26.748 11.2403 26.8378 11.163 26.9213 11.0795C27.012 10.9887 27.0964 10.892 27.1738 10.79C27.252 10.6853 27.3235 10.576 27.388 10.4626C27.4522 10.3471 27.5064 10.2264 27.5499 10.1019C27.5729 10.0359 27.5952 9.96847 27.6151 9.90027C27.6351 9.83206 27.6489 9.7631 27.6627 9.69413C27.7197 9.44528 27.7267 9.18782 27.6834 8.9363C27.4774 9.11323 27.2949 9.31515 27.1401 9.53726C26.9619 9.78031 26.7982 10.0333 26.6497 10.2951C26.5391 10.4959 26.4491 10.7071 26.381 10.9256C26.3494 11.0197 26.3238 11.1156 26.3043 11.2128C26.3043 11.2288 26.3043 11.2424 26.2982 11.2576C26.2461 10.7772 26.1646 10.3004 26.0541 9.82979C26.0757 9.83234 26.0974 9.82724 26.1155 9.81539C26.2972 9.69436 26.4557 9.54246 26.5837 9.36675C26.6205 9.319 26.6604 9.26823 26.6911 9.21518C26.7218 9.16213 26.7571 9.10908 26.7878 9.05376C26.8498 8.94207 26.9047 8.82665 26.952 8.70819C26.9967 8.58758 27.0326 8.464 27.0595 8.33836C27.0743 8.27167 27.0858 8.20422 27.094 8.13602C27.1025 8.06706 27.1094 7.99809 27.114 7.92989C27.1228 7.79727 27.12 7.66415 27.1055 7.53202C27.0986 7.46912 27.0894 7.40925 27.0779 7.35317C27.0662 7.3004 27.0508 7.24849 27.0319 7.19782C26.947 7.28828 26.87 7.38563 26.8016 7.48883C26.7226 7.6052 26.6498 7.72561 26.5837 7.84956C26.5491 7.91322 26.5161 7.97839 26.4824 8.04432C26.4486 8.11025 26.4156 8.1777 26.3841 8.24515C26.3212 8.38004 26.2667 8.51342 26.213 8.64529C26.1709 8.75074 26.1361 8.85884 26.1086 8.96888C26.0785 9.07479 26.0547 9.18233 26.0372 9.29096C26.0219 9.39403 26.0088 9.49179 26.0042 9.57818C26.0042 9.59865 26.0042 9.61683 26.0042 9.63578C25.8867 9.17686 25.7427 8.72495 25.5729 8.28228C25.5844 8.28317 25.5959 8.28182 25.6068 8.27831C25.6177 8.2748 25.6279 8.2692 25.6366 8.26182C25.7961 8.12032 25.9295 7.95264 26.0311 7.76619C26.0894 7.66048 26.1407 7.55112 26.1846 7.43881C26.2311 7.32352 26.2688 7.20497 26.2974 7.08414C26.3256 6.96191 26.3445 6.83779 26.3542 6.7128C26.3626 6.57905 26.3626 6.4449 26.3542 6.31114C26.3427 6.07048 26.2835 5.83439 26.18 5.61621C26.1105 5.71422 26.0491 5.81763 25.9965 5.92541C25.9398 6.04136 25.883 6.16943 25.8323 6.30432C25.731 6.57081 25.6462 6.84313 25.5783 7.11976C25.5272 7.33201 25.4984 7.54888 25.4923 7.76695C25.4885 7.88566 25.4939 8.00448 25.5084 8.12238C25.4908 8.07767 25.4747 8.03295 25.4563 7.989C25.2932 7.60402 25.1105 7.2274 24.9091 6.86058C24.9212 6.86092 24.9333 6.85858 24.9445 6.85373C24.9556 6.84888 24.9655 6.84164 24.9735 6.83254C25.1103 6.67559 25.2178 6.49599 25.2912 6.30205C25.3348 6.19229 25.3712 6.0799 25.4002 5.96557C25.4148 5.90722 25.4286 5.84735 25.4386 5.78824C25.4486 5.72913 25.457 5.66926 25.4632 5.60939C25.4761 5.48807 25.4789 5.36589 25.4716 5.24411C25.4635 5.11389 25.4471 4.98429 25.4225 4.8561C25.3963 4.73327 25.3611 4.61246 25.3173 4.49461C25.2979 4.44098 25.2746 4.3888 25.2475 4.33849C25.2248 4.29321 25.1992 4.24942 25.1708 4.20739C25.0574 4.43104 24.9729 4.6678 24.919 4.91218C24.9021 4.97887 24.8868 5.04707 24.873 5.11528C24.8592 5.18348 24.8469 5.25321 24.8338 5.32293C24.8085 5.46161 24.7886 5.59954 24.7747 5.7314C24.7622 5.8388 24.7566 5.94689 24.7579 6.055C24.7579 6.1088 24.7579 6.16185 24.7632 6.21414C24.7686 6.26643 24.7694 6.31797 24.774 6.36571C24.7823 6.45697 24.7967 6.5476 24.8169 6.63702C24.8239 6.66733 24.8315 6.69461 24.8392 6.72114C24.7625 6.587 24.6857 6.45438 24.609 6.32327C24.4493 6.06561 24.2802 5.81451 24.1017 5.56998C24.1143 5.56971 24.1266 5.56639 24.1375 5.56031C24.1485 5.55423 24.1578 5.54558 24.1646 5.53512C24.2184 5.45778 24.2642 5.37526 24.3012 5.28882C24.3443 5.19068 24.3795 5.08932 24.4064 4.98569C24.4642 4.76012 24.4916 4.52797 24.4877 4.2953C24.4857 4.17654 24.4737 4.05815 24.4516 3.94139C24.4283 3.81672 24.3968 3.69369 24.3572 3.57308C24.2899 3.35533 24.1804 3.15254 24.0349 2.9759C23.9935 3.08218 23.9612 3.19169 23.9382 3.30329C23.9129 3.42227 23.8906 3.55338 23.8753 3.68676C23.8676 3.75345 23.8607 3.82089 23.8553 3.8891C23.8499 3.9573 23.8461 4.02475 23.8423 4.09371C23.8346 4.23088 23.8315 4.36654 23.8346 4.49613C23.8358 4.60132 23.8435 4.70635 23.8576 4.81063C23.8645 4.86292 23.873 4.91369 23.8822 4.96219C23.8914 5.0107 23.9006 5.06223 23.9121 5.10997C23.9318 5.19722 23.9574 5.28305 23.9889 5.36688C24.0011 5.40401 24.015 5.43736 24.0288 5.46843C23.862 5.2431 23.6883 5.02383 23.5077 4.81063C23.3956 4.68104 23.2813 4.55448 23.1646 4.43171C23.1776 4.43048 23.19 4.42601 23.2008 4.41872C23.2115 4.41143 23.2202 4.40155 23.226 4.39003C23.3147 4.21495 23.3719 4.02595 23.3948 3.8315C23.4091 3.72066 23.4163 3.60903 23.4163 3.4973C23.4163 3.4397 23.4163 3.3821 23.411 3.32451C23.4056 3.26691 23.401 3.21159 23.3925 3.15475C23.3754 3.04038 23.3497 2.92741 23.3158 2.81676C23.278 2.69943 23.2329 2.58452 23.1807 2.4727C23.1677 2.44466 23.1546 2.41662 23.14 2.39009C23.1255 2.36357 23.1116 2.33705 23.0963 2.31431C23.0664 2.26278 23.0349 2.21352 23.0027 2.16653C22.9704 2.11955 22.9382 2.07711 22.9044 2.0377C22.8727 2.00119 22.8383 1.967 22.8016 1.93539C22.7737 2.04253 22.755 2.15179 22.7456 2.26202C22.7332 2.38794 22.7275 2.51443 22.7287 2.64094C22.7287 2.70662 22.7302 2.77255 22.7333 2.83873C22.7333 2.90467 22.7387 2.97287 22.7433 3.0388C22.7517 3.17218 22.7663 3.30253 22.7832 3.42833C22.7963 3.53052 22.816 3.63177 22.8423 3.73147C22.8553 3.78073 22.8699 3.82847 22.8845 3.87697C22.8991 3.92547 22.9136 3.9717 22.9297 4.01566C22.9593 4.09773 22.9939 4.17795 23.0334 4.25589C23.0534 4.2964 23.0759 4.33563 23.1009 4.37336C22.8092 4.06509 22.5018 3.77168 22.1799 3.49426L22.1262 3.45031C22.1403 3.45014 22.154 3.44559 22.1653 3.43728C22.1766 3.42898 22.1849 3.41736 22.1891 3.40408C22.2541 3.22458 22.2876 3.03543 22.2881 2.8448C22.2865 2.73388 22.2771 2.62322 22.2598 2.51362C22.2466 2.40278 22.2261 2.29292 22.1984 2.18472C22.1368 1.96092 22.0425 1.74721 21.9182 1.55041C21.886 1.49964 21.853 1.44962 21.8192 1.40263C21.7855 1.35565 21.7486 1.31245 21.7125 1.27077C21.6466 1.19737 21.5728 1.13129 21.4923 1.07373C21.4639 1.30293 21.4665 1.53483 21.5 1.76336C21.5145 1.88916 21.5337 2.02027 21.5575 2.14683C21.5698 2.21049 21.5828 2.27339 21.5967 2.33477C21.6105 2.39616 21.6243 2.45982 21.6396 2.51893C21.6644 2.61551 21.6955 2.71043 21.7325 2.80312C21.7665 2.8938 21.8054 2.9826 21.8492 3.06912C21.8699 3.11004 21.8914 3.14869 21.9129 3.18582C21.9343 3.22296 21.9551 3.25782 21.9758 3.28965C22.0047 3.33416 22.0375 3.37602 22.074 3.41469C21.7808 3.17067 21.4772 2.94003 21.163 2.72279C21.1691 2.71173 21.1722 2.69936 21.1722 2.68679C21.1722 2.67422 21.1691 2.66185 21.163 2.65079C21.0752 2.48099 20.9586 2.32722 20.8184 2.19609C20.7412 2.11949 20.6586 2.04833 20.5713 1.98314C20.4804 1.91657 20.3853 1.85582 20.2866 1.80126C20.0792 1.6921 19.8569 1.61322 19.6266 1.56708C19.5675 1.55496 19.5084 1.54511 19.4501 1.53753C19.3935 1.53009 19.3367 1.52554 19.2797 1.52389C19.1795 1.51885 19.0791 1.52521 18.9804 1.54283C19.1303 1.71995 19.3029 1.87712 19.4938 2.01042C19.5966 2.0862 19.7064 2.16199 19.8161 2.23171C19.8714 2.26657 19.9267 2.30067 19.9819 2.33326C20.0372 2.36584 20.0924 2.39843 20.1469 2.42874C20.235 2.4769 20.326 2.51967 20.4194 2.55682C20.5122 2.59471 20.6059 2.6326 20.6957 2.65534C20.7402 2.66822 20.7831 2.67959 20.8254 2.68944C20.8676 2.69929 20.9075 2.70915 20.9451 2.71597C21.0097 2.72905 21.0757 2.73439 21.1416 2.73188C21.1491 2.73138 21.1562 2.72814 21.1615 2.72279C21.4685 2.93953 21.767 3.1694 22.0571 3.41242C22.0156 3.38684 21.9723 3.3643 21.9274 3.34497C21.8921 3.33057 21.8507 3.31617 21.8138 3.30329C21.777 3.29041 21.7294 3.27904 21.6849 3.26919C21.5923 3.24737 21.4981 3.23242 21.4033 3.22447C21.3065 3.2169 21.2092 3.2169 21.1124 3.22447C21.0525 3.22978 20.9927 3.2366 20.932 3.24645C20.8714 3.2563 20.81 3.26843 20.7494 3.28207C20.6293 3.30848 20.5111 3.34266 20.3956 3.38438C20.1869 3.45714 19.9913 3.56229 19.8161 3.69585C19.8851 3.73273 19.959 3.75977 20.0356 3.77618C20.0786 3.78679 20.1247 3.79437 20.1715 3.8027C20.2183 3.81104 20.2666 3.81786 20.3165 3.82317C20.519 3.84435 20.7231 3.84588 20.9259 3.82771C21.0264 3.81786 21.1293 3.80498 21.2329 3.78603C21.3365 3.76709 21.4416 3.74435 21.5399 3.71934C21.7245 3.67648 21.9025 3.60972 22.0694 3.52079C22.0817 3.51493 22.0919 3.5056 22.0987 3.49399C22.1055 3.48238 22.1087 3.46902 22.1078 3.45561L22.1592 3.49805C22.4723 3.77087 22.7732 4.06113 23.0548 4.36275C23.0272 4.3438 22.9965 4.3241 22.9628 4.30439C22.8858 4.26301 22.8058 4.22754 22.7233 4.1983C22.6796 4.18238 22.6335 4.16798 22.5867 4.15434C22.5399 4.1407 22.49 4.13009 22.4409 4.12024C22.3435 4.10113 22.2447 4.08972 22.1454 4.08613C22.0193 4.08443 21.8932 4.09025 21.7678 4.10357C21.7041 4.11039 21.6419 4.11796 21.5798 4.12933C21.5176 4.1407 21.4547 4.15358 21.394 4.16798C21.2779 4.19597 21.1638 4.23167 21.0525 4.27484C20.9532 4.31462 20.8577 4.36306 20.767 4.41958C20.7978 4.44102 20.8304 4.45979 20.8645 4.47566C20.9026 4.4947 20.9418 4.51141 20.9819 4.52568C21.0234 4.54159 21.0686 4.55599 21.1155 4.56888L21.1922 4.58706L21.2689 4.60525C21.3718 4.62833 21.4758 4.64579 21.5805 4.65755C21.6823 4.67117 21.7848 4.67901 21.8875 4.68104C21.9397 4.68104 21.9934 4.68104 22.0472 4.68104C22.1009 4.68104 22.1538 4.68104 22.2076 4.67497C22.315 4.66891 22.424 4.6583 22.5299 4.64315C22.7233 4.62101 22.9129 4.57414 23.094 4.5037C23.1059 4.49898 23.1165 4.49137 23.1247 4.48157C23.1328 4.47177 23.1384 4.46009 23.1408 4.44762C23.2567 4.57342 23.371 4.69998 23.48 4.82654C23.6565 5.03722 23.8259 5.25346 23.9881 5.47525C23.9658 5.45555 23.942 5.43584 23.9113 5.41538C23.838 5.3645 23.7611 5.31891 23.6811 5.27897C23.6381 5.25699 23.5936 5.23578 23.5476 5.21683C23.5015 5.19788 23.4516 5.18045 23.4033 5.16529C23.3063 5.13307 23.2067 5.10949 23.1055 5.09482C22.9783 5.07764 22.8501 5.06802 22.7218 5.06602C22.6573 5.06602 22.5921 5.06753 22.5261 5.07057C22.4608 5.07057 22.3964 5.08042 22.3334 5.088C22.2116 5.10208 22.091 5.12513 21.9727 5.15696C21.8671 5.18564 21.7644 5.22369 21.6657 5.27064C21.8095 5.3812 21.9726 5.46469 22.1469 5.51693C22.2475 5.55278 22.35 5.58314 22.4539 5.60787C22.5551 5.63329 22.6576 5.65353 22.7609 5.6685C22.9792 5.69692 23.1993 5.70933 23.4194 5.70563C23.5246 5.70429 23.6296 5.69771 23.7341 5.68593C23.8276 5.67525 23.9203 5.65751 24.0111 5.63288C24.023 5.62993 24.0341 5.62419 24.0433 5.61614C24.0525 5.6081 24.0596 5.59798 24.0641 5.58665C24.2406 5.83118 24.4076 6.08253 24.5652 6.3407C24.642 6.47181 24.7187 6.60367 24.7955 6.73781C24.7778 6.71735 24.7594 6.69689 24.7371 6.67567C24.6694 6.61422 24.5971 6.55797 24.5207 6.50743C24.48 6.48014 24.4371 6.45286 24.3925 6.42785C24.348 6.40284 24.3004 6.37859 24.2529 6.35662C24.1581 6.31237 24.0598 6.27587 23.9589 6.24749C23.8308 6.21474 23.7009 6.18944 23.5698 6.1717C23.5046 6.16261 23.437 6.15655 23.3703 6.15276C23.3035 6.14897 23.2375 6.1467 23.1723 6.1467C22.9332 6.14257 22.6951 6.17766 22.4677 6.25052C22.4937 6.27997 22.5222 6.3071 22.5529 6.33161C22.5852 6.35813 22.6212 6.3839 22.6596 6.40739C22.744 6.46457 22.8328 6.51524 22.9251 6.55896C23.0235 6.60831 23.1247 6.65184 23.2283 6.68931C23.3288 6.72788 23.4313 6.76127 23.5353 6.78934C23.5882 6.80298 23.6427 6.81587 23.698 6.82723C23.7532 6.8386 23.8077 6.85073 23.8638 6.86134C23.975 6.8818 24.0886 6.89847 24.1999 6.90984C24.4037 6.9362 24.6101 6.9362 24.8139 6.90984C24.8365 6.90648 24.8569 6.89451 24.8707 6.87649C25.0688 7.24275 25.2481 7.6186 25.4079 8.00264C25.4248 8.04432 25.4394 8.08676 25.4563 8.1292C25.3883 8.03553 25.3092 7.95029 25.2206 7.87532C25.0613 7.73507 24.8798 7.62141 24.6834 7.53884C24.4318 7.43662 24.1675 7.36782 23.8975 7.33423C23.7703 7.31769 23.6421 7.31059 23.5138 7.31301C23.398 7.31539 23.2826 7.32833 23.1692 7.35166C23.2864 7.49942 23.43 7.62476 23.5928 7.72148C23.6864 7.78385 23.7835 7.84078 23.8837 7.892C23.9804 7.94441 24.0801 7.99123 24.1823 8.0322C24.2874 8.07312 24.3948 8.11253 24.5054 8.14814C24.6159 8.18376 24.7295 8.21483 24.8415 8.2406C25.0445 8.29428 25.2538 8.32154 25.4639 8.32169C25.4857 8.3216 25.5066 8.3138 25.523 8.29971C25.6878 8.73789 25.8272 9.18498 25.9405 9.63881C25.9321 9.62441 25.9259 9.61077 25.9167 9.59637C25.8675 9.51536 25.8104 9.43922 25.7464 9.36902C25.6751 9.28797 25.5982 9.212 25.5161 9.14167C25.4314 9.0722 25.3413 9.00936 25.2467 8.95373C25.127 8.88463 25.0023 8.8241 24.8738 8.7726C24.8085 8.74608 24.7433 8.72183 24.6773 8.69682C24.6113 8.67181 24.5437 8.65514 24.4777 8.63847C24.3502 8.60537 24.2204 8.58131 24.0894 8.56647C23.9719 8.55397 23.8535 8.55195 23.7356 8.56041C23.7539 8.59662 23.7754 8.63112 23.8001 8.66347C23.826 8.70115 23.8545 8.73709 23.8853 8.77109C23.9576 8.84873 24.0345 8.92211 24.1155 8.99086C24.1577 9.02724 24.2022 9.06286 24.2483 9.09847C24.2943 9.13409 24.3411 9.16819 24.3872 9.20154C24.4785 9.26781 24.5739 9.32855 24.6727 9.38342C24.7719 9.4395 24.8755 9.49305 24.9835 9.54408C25.038 9.56909 25.0925 9.5941 25.1477 9.61986C25.203 9.64563 25.2567 9.66609 25.3112 9.68731C25.5101 9.76867 25.7188 9.82445 25.9321 9.85328C25.9529 9.85608 25.974 9.85181 25.9919 9.84115C26.097 10.3043 26.1739 10.7732 26.2222 11.2454C26.2222 11.2363 26.216 11.228 26.2122 11.2189C26.172 11.13 26.1253 11.0442 26.0725 10.962C25.9506 10.7766 25.7993 10.6118 25.6243 10.4739C25.4001 10.3013 25.1533 10.1593 24.8906 10.0518C24.6548 9.95237 24.4041 9.8917 24.1485 9.87223C24.2239 10.0523 24.3324 10.217 24.4685 10.358C24.5069 10.4012 24.5453 10.4429 24.589 10.4853C24.6328 10.5278 24.6711 10.5687 24.7141 10.6088C24.7993 10.6899 24.8922 10.7657 24.9774 10.8324C25.0625 10.8991 25.1685 10.9718 25.2713 11.0385C25.3741 11.1052 25.4762 11.1681 25.5783 11.2257C25.68 11.2814 25.7845 11.332 25.8914 11.3773C25.9858 11.4195 26.0836 11.4537 26.1838 11.4796C26.2026 11.4853 26.2226 11.4853 26.2414 11.4796C26.2414 11.5228 26.2498 11.5652 26.2529 11.6077L26.2621 11.7236L26.2682 11.8396L26.279 12.0707C26.279 12.1094 26.279 12.1465 26.279 12.1867V12.3026C26.279 12.3784 26.279 12.4542 26.279 12.5345L26.2682 12.9309C26.2682 12.9256 26.2682 12.9218 26.2682 12.9165C26.2399 12.8207 26.2048 12.727 26.1631 12.6361C26.1401 12.5876 26.1178 12.5383 26.0863 12.4898C26.0549 12.4413 26.0273 12.392 25.995 12.3443C25.9628 12.2965 25.9282 12.2503 25.8929 12.2056C25.8753 12.1836 25.8569 12.1617 25.8385 12.1404C25.82 12.1192 25.8001 12.0988 25.7801 12.0783C25.6786 11.9761 25.5709 11.8799 25.4578 11.7903C25.3422 11.7019 25.2212 11.6207 25.0955 11.547C25.0334 11.5114 24.9728 11.4781 24.9098 11.4485C24.8469 11.419 24.7847 11.3909 24.7233 11.3667C24.6088 11.3213 24.4904 11.286 24.3695 11.2613C24.3879 11.3495 24.4186 11.4347 24.4609 11.5145C24.5083 11.613 24.5634 11.7078 24.6259 11.7979C24.7566 11.9953 24.9056 12.1802 25.071 12.3504C25.2445 12.5239 25.4299 12.6854 25.6259 12.8339C25.7241 12.9096 25.8239 12.9748 25.9213 13.0339C26.011 13.0894 26.1049 13.1378 26.2022 13.1787C26.22 13.1856 26.2394 13.1875 26.2583 13.184L26.2544 13.2302L26.2368 13.4613C26.2306 13.5371 26.226 13.6129 26.2183 13.6887L26.1899 13.916C26.17 14.0676 26.1554 14.223 26.1255 14.3753L26.0863 14.6026L26.0794 14.639C26.0745 14.5923 26.0665 14.546 26.0556 14.5003C26.0439 14.4498 26.0301 14.3993 26.0142 14.3488C25.9814 14.2396 25.9403 14.1329 25.8914 14.0297C25.8395 13.924 25.779 13.8226 25.7103 13.7266C25.5363 13.4882 25.3296 13.2747 25.0963 13.0923C25.0395 13.0468 24.9835 13.0051 24.9236 12.9657C24.8638 12.9263 24.8054 12.8899 24.7463 12.8566C24.6364 12.7943 24.5211 12.7418 24.4018 12.6997C24.408 12.7916 24.4273 12.8822 24.4593 12.9687C24.4924 13.0748 24.5337 13.1782 24.5829 13.2779C24.609 13.3318 24.6374 13.3856 24.6673 13.4394C24.6972 13.4932 24.7241 13.547 24.7556 13.5993C24.8159 13.7029 24.8825 13.8029 24.9551 13.8986C25.1037 14.1005 25.268 14.2908 25.4463 14.4678C25.6035 14.6333 25.7811 14.7787 25.9751 14.9005C25.9906 14.9089 26.008 14.9136 26.0257 14.9141L25.9428 15.2832C25.8538 15.6485 25.7448 16.0077 25.6213 16.3623C25.6225 16.2646 25.6169 16.1668 25.6044 16.0698C25.5873 15.9542 25.5617 15.8399 25.5276 15.728C25.51 15.6704 25.49 15.6144 25.4685 15.559C25.4578 15.5318 25.4463 15.5045 25.434 15.478C25.4217 15.4514 25.4079 15.4241 25.3941 15.3984C25.2538 15.1316 25.0769 14.8853 24.8684 14.6663C24.77 14.5625 24.6641 14.466 24.5514 14.3776C24.4977 14.3359 24.444 14.2972 24.3887 14.2624C24.3334 14.2275 24.2797 14.1964 24.2268 14.1692C24.2237 14.2128 24.2237 14.2566 24.2268 14.3003C24.2285 14.3495 24.2333 14.3986 24.2413 14.4473C24.2498 14.4988 24.2613 14.5526 24.2759 14.608C24.2905 14.6633 24.3081 14.7201 24.3235 14.7777C24.395 15.013 24.4883 15.2413 24.6021 15.4598C24.6596 15.5689 24.7249 15.6795 24.7955 15.7894C24.8661 15.8993 24.9344 16.0054 25.0096 16.1077C25.1444 16.299 25.3024 16.4734 25.48 16.6268C25.4923 16.6368 25.5068 16.6438 25.5223 16.6473C25.3413 17.1234 25.1299 17.5876 24.8891 18.0372C24.8952 18.0008 24.9014 17.9614 24.906 17.9258C24.9114 17.872 24.9129 17.8159 24.9137 17.7583C24.9152 17.6392 24.908 17.5202 24.8922 17.4021C24.8841 17.3414 24.8725 17.2812 24.8576 17.2217C24.843 17.1626 24.8262 17.1043 24.807 17.0474C24.7085 16.7569 24.5692 16.4814 24.3933 16.229C24.3103 16.1084 24.2177 15.9946 24.1163 15.8887C24.0264 15.7937 23.9277 15.7072 23.8215 15.6303C23.7994 15.7226 23.7906 15.8175 23.7955 15.9122C23.7964 16.0274 23.8059 16.1424 23.8239 16.2562C23.8323 16.3169 23.8453 16.379 23.8569 16.4412C23.8684 16.5033 23.8806 16.5647 23.8952 16.6268C23.9238 16.7478 23.9589 16.8672 24.0004 16.9845C24.0403 17.1028 24.0871 17.224 24.1393 17.3453C24.1915 17.4665 24.2506 17.5878 24.3081 17.7014C24.4122 17.916 24.5435 18.1167 24.6988 18.2986C24.7083 18.3091 24.7197 18.3176 24.7325 18.3236C24.4757 18.7727 24.1898 19.2051 23.8768 19.618C23.8768 19.6127 23.8806 19.6082 23.8822 19.6021C23.8899 19.5768 23.8968 19.5516 23.9029 19.5263C23.9167 19.4725 23.929 19.4172 23.939 19.3588C23.9489 19.3005 23.9574 19.2421 23.9643 19.1815C23.9718 19.1201 23.9754 19.0584 23.975 18.9966C23.9764 18.8725 23.9671 18.7486 23.9474 18.626C23.9221 18.4719 23.8849 18.3199 23.8361 18.1713C23.8116 18.0955 23.7855 18.0197 23.7594 17.9493C23.7333 17.8788 23.7011 17.806 23.6657 17.7363C23.5455 17.4811 23.3837 17.2472 23.1868 17.0436C23.1473 17.1318 23.1214 17.2253 23.1101 17.321C23.1017 17.3748 23.0978 17.4324 23.0932 17.4908C23.0886 17.5491 23.0855 17.6097 23.084 17.6726C23.0825 17.7355 23.084 17.7984 23.084 17.8636C23.084 17.9288 23.0909 17.9932 23.0948 18.0576C23.1026 18.1848 23.1182 18.3113 23.1416 18.4365C23.1539 18.4994 23.1669 18.5639 23.1792 18.6283C23.1915 18.6927 23.2076 18.7571 23.2237 18.8215C23.2567 18.9519 23.2943 19.0822 23.3373 19.2088C23.4066 19.4413 23.5056 19.6641 23.632 19.8719C23.6393 19.8829 23.6484 19.8926 23.6588 19.9007C23.3274 20.312 22.9685 20.7008 22.5844 21.0647C22.6222 20.9866 22.6555 20.9064 22.6842 20.8245C22.7694 20.5879 22.8138 20.3389 22.8154 20.0879C22.8154 20.0121 22.8154 19.931 22.8047 19.8507C22.7939 19.7703 22.7885 19.6908 22.777 19.6112C22.7655 19.5316 22.7509 19.4528 22.7341 19.3755C22.7172 19.2982 22.6957 19.2194 22.6726 19.1444C22.6294 18.9992 22.5752 18.8573 22.5107 18.72C22.4792 18.6548 22.447 18.5927 22.4125 18.5343C22.3779 18.476 22.3403 18.4206 22.3027 18.3699C22.2908 18.3886 22.28 18.4081 22.2705 18.4282C22.2585 18.4488 22.2478 18.4701 22.2383 18.4919C22.2165 18.5393 22.198 18.5882 22.183 18.6381C22.1661 18.6904 22.1515 18.7465 22.1385 18.8064L22.1293 18.8511C22.1293 18.8655 22.1224 18.8806 22.1193 18.8958C22.1124 18.9254 22.1063 18.9564 22.1001 18.9875C22.0771 19.1118 22.0625 19.2459 22.051 19.377C22.0383 19.5052 22.0332 19.634 22.0356 19.7628C22.0356 19.8279 22.041 19.8969 22.0433 19.9628C22.0456 20.0288 22.0502 20.097 22.0556 20.1652C22.0663 20.3008 22.0832 20.438 22.1047 20.5721C22.1365 20.8176 22.1991 21.0582 22.2912 21.2883C22.296 21.2984 22.3022 21.3079 22.3096 21.3163C22.2375 21.3815 22.1654 21.4467 22.0909 21.5096C21.7543 21.7955 21.4025 22.0637 21.0372 22.3129C21.0518 22.2924 21.0656 22.272 21.0802 22.25C21.1109 22.2022 21.1423 22.1507 21.1715 22.0984C21.2976 21.8745 21.3843 21.6311 21.4278 21.3785C21.4419 21.2992 21.4518 21.2193 21.4578 21.139C21.4639 21.0572 21.4685 20.9753 21.47 20.8935C21.4716 20.8116 21.47 20.7298 21.47 20.6487C21.47 20.5676 21.457 20.485 21.447 20.4062C21.4145 20.1146 21.3319 19.8307 21.2029 19.5665C21.138 19.6431 21.0827 19.727 21.0379 19.8166C20.9852 19.9265 20.9383 20.0391 20.8975 20.1538C20.8529 20.2796 20.8147 20.4076 20.7831 20.5373C20.7499 20.664 20.7243 20.7925 20.7064 20.9223C20.688 21.0564 20.6703 21.1913 20.6588 21.33C20.6473 21.4687 20.6404 21.6096 20.6396 21.7483C20.6294 22.0003 20.6513 22.2527 20.7049 22.4993C20.7074 22.5095 20.7115 22.5192 20.7171 22.5281C20.6757 22.5539 20.635 22.5819 20.5936 22.6039C20.1675 22.8631 19.7259 23.0967 19.2712 23.3034C19.3286 23.2473 19.382 23.1873 19.4309 23.1238C19.47 23.0753 19.5076 23.0237 19.546 22.9722C19.5839 22.9186 19.6187 22.8629 19.6504 22.8055C19.7144 22.69 19.7691 22.5696 19.8138 22.4455C19.8683 22.2888 19.9104 22.1282 19.9397 21.965C19.9711 21.8022 19.9901 21.6373 19.9965 21.4717C20.0027 21.3144 19.997 21.1568 19.9796 21.0003C19.9712 20.9245 19.9604 20.854 19.9458 20.7858C19.9319 20.7188 19.9145 20.6525 19.8936 20.5873C19.8757 20.6018 19.8586 20.6173 19.8422 20.6335C19.8239 20.6497 19.8065 20.6669 19.79 20.6851C19.7528 20.7242 19.7182 20.7657 19.6864 20.8093C19.6527 20.8556 19.6189 20.9063 19.5867 20.9609C19.5544 21.0155 19.5199 21.0678 19.4877 21.1254C19.4554 21.183 19.4247 21.2428 19.3948 21.3042C19.3649 21.3656 19.3357 21.43 19.3073 21.4906C19.2513 21.6123 19.2023 21.7371 19.1607 21.8642C19.1408 21.9294 19.12 21.9954 19.0993 22.062C19.0786 22.1287 19.0602 22.1962 19.0425 22.2651C19.0065 22.4016 18.9758 22.5448 18.9497 22.682C18.8954 22.9339 18.8732 23.1915 18.8837 23.4489C18.8845 23.4572 18.8866 23.4654 18.8898 23.4731L18.7164 23.5444L18.6089 23.5891L18.4984 23.6285C18.3518 23.6808 18.206 23.7346 18.0586 23.7854L17.612 23.9218C17.5352 23.9468 17.4585 23.9635 17.3863 23.9832L17.2958 24.0067C17.3111 23.9968 17.3249 23.9885 17.3395 23.9779C17.3896 23.9412 17.4378 23.902 17.4838 23.8604C17.5831 23.7726 17.6762 23.6782 17.7624 23.5777C17.8488 23.4731 17.9259 23.3613 17.9926 23.2435C18.0333 23.1715 18.0694 23.098 18.107 23.0222C18.1446 22.9464 18.1745 22.8646 18.2045 22.7843C18.2642 22.6261 18.3127 22.4641 18.3495 22.2992C18.4179 22.0011 18.4355 21.6937 18.4017 21.3898C18.3108 21.4404 18.2276 21.5034 18.1546 21.577C18.1338 21.5967 18.1131 21.6187 18.0924 21.6407L18.0287 21.7096C17.9857 21.7551 17.9427 21.8051 17.9005 21.8612C17.8583 21.9173 17.8169 21.9681 17.7762 22.0249L17.7463 22.0681L17.7156 22.1098C17.6949 22.1378 17.6749 22.1666 17.6557 22.1954C17.578 22.3085 17.507 22.4259 17.4431 22.5471C17.3771 22.666 17.3127 22.7941 17.252 22.926C17.2221 22.9919 17.1929 23.0594 17.1653 23.1268C17.1377 23.1943 17.11 23.2594 17.084 23.3261C16.9846 23.5695 16.916 23.824 16.8798 24.084C16.8794 24.0898 16.8794 24.0956 16.8798 24.1014C16.3656 24.2147 15.8448 24.2965 15.3203 24.3462L15.338 24.5394C15.8699 24.4858 16.398 24.3992 16.9189 24.2802C16.9216 24.2892 16.9252 24.2978 16.9297 24.306C17.0827 24.5281 17.2748 24.7214 17.4968 24.8767C17.5575 24.9206 17.6227 24.9661 17.6887 25.0062C17.7547 25.0464 17.8238 25.082 17.8952 25.1214C18.0383 25.1958 18.1862 25.2609 18.338 25.3162C18.4931 25.3677 18.6519 25.4075 18.8131 25.4352L18.942 25.4564L19.008 25.4655L19.074 25.4716C19.1615 25.4791 19.2497 25.4837 19.3388 25.486C19.4278 25.4882 19.5145 25.486 19.6005 25.486C19.6442 25.486 19.6857 25.4799 19.7271 25.4753C19.7686 25.4708 19.8092 25.4655 19.8499 25.4594C19.9961 25.4393 20.1396 25.4027 20.2774 25.3503C20.0165 25.146 19.7312 24.9742 19.4278 24.8388C19.2628 24.763 19.0886 24.6811 18.9174 24.6114C18.8315 24.5758 18.7455 24.5424 18.6603 24.5106C18.5751 24.4788 18.4892 24.4439 18.4055 24.4144C18.2715 24.3665 18.1346 24.3265 17.9957 24.2946C17.8614 24.2603 17.7254 24.233 17.5882 24.2128C17.5229 24.2022 17.4608 24.1969 17.4001 24.1893L17.3357 24.184L17.437 24.1575C17.5137 24.1362 17.5905 24.1188 17.6672 24.0938L18.1193 23.9513C18.2682 23.899 18.4163 23.8437 18.5652 23.7899L18.6764 23.749L18.7854 23.7028L18.9596 23.627C18.964 23.6357 18.9694 23.6438 18.9758 23.6512C19.1625 23.8394 19.3815 23.9934 19.6227 24.1059C19.7605 24.1725 19.9031 24.2288 20.0494 24.2742C20.1262 24.2977 20.2029 24.3196 20.2797 24.3386C20.3181 24.3484 20.3564 24.3575 20.3963 24.3659C20.4362 24.3742 20.4731 24.3803 20.5122 24.3871C20.6707 24.411 20.8308 24.4234 20.9911 24.4242C21.0763 24.4242 21.1615 24.4242 21.2475 24.4144C21.3334 24.4045 21.4201 24.3977 21.5053 24.3848C21.5905 24.3719 21.6765 24.3583 21.7578 24.3386C21.8392 24.3189 21.9175 24.2961 21.9927 24.2719C22.0649 24.2484 22.1358 24.2213 22.2053 24.1908C22.2383 24.1764 22.2705 24.162 22.3004 24.1461C22.3304 24.1302 22.3588 24.1127 22.3856 24.0961C22.3233 24.0595 22.259 24.0264 22.193 23.9968C22.1231 23.9642 22.0495 23.9331 21.9727 23.9036C21.8192 23.8445 21.6511 23.7907 21.4792 23.7422C21.3073 23.6937 21.1262 23.6467 20.9482 23.6073C20.7701 23.5679 20.5944 23.5315 20.4209 23.5027C20.2832 23.4781 20.144 23.4622 20.0042 23.4549C19.9351 23.4549 19.8645 23.4474 19.7962 23.4459C19.7279 23.4443 19.6611 23.4459 19.5966 23.4459C19.503 23.4459 19.414 23.4542 19.3311 23.4618C19.7967 23.2473 20.2486 23.0048 20.6841 22.7358C20.7263 22.7092 20.767 22.6812 20.8085 22.6547C20.8151 22.6632 20.8225 22.6711 20.8307 22.6782C21.0432 22.8298 21.2812 22.9432 21.5337 23.0131C21.6781 23.0536 21.825 23.0845 21.9735 23.1056C22.1259 23.1284 22.2798 23.1393 22.434 23.1382C22.5911 23.1364 22.7478 23.123 22.9029 23.098C23.0687 23.069 23.2323 23.0288 23.3925 22.9775C23.548 22.9286 23.6985 22.8657 23.8423 22.7896C23.969 22.7279 24.0867 22.6496 24.1922 22.5569C23.8902 22.4549 23.5769 22.389 23.259 22.3606C23.1707 22.3508 23.084 22.344 22.9942 22.3356C22.9044 22.3273 22.8139 22.3205 22.7241 22.3159C22.6343 22.3114 22.5452 22.3068 22.4578 22.3046L22.1984 22.3C21.9277 22.3005 21.6576 22.3259 21.3917 22.3758C21.3296 22.3872 21.2705 22.4008 21.2137 22.4152L21.1277 22.4387C21.501 22.1825 21.8597 21.9062 22.2022 21.6111C22.2789 21.5475 22.3488 21.4815 22.4217 21.4156C22.4305 21.4251 22.4409 21.433 22.4524 21.4391C22.6822 21.5521 22.9307 21.6235 23.1861 21.6498C23.3321 21.666 23.479 21.6726 23.6258 21.6695C23.7016 21.6695 23.7783 21.6657 23.8561 21.6581C23.9328 21.6521 24.0057 21.6407 24.081 21.6286C24.2322 21.602 24.3813 21.5642 24.5269 21.5156C24.6822 21.4617 24.8335 21.3971 24.9797 21.3224L25.0886 21.2648L25.1416 21.2352L25.1922 21.2034C25.2598 21.161 25.3235 21.1163 25.3841 21.0715C25.4447 21.0268 25.5 20.9799 25.5514 20.9336C25.5767 20.9109 25.6013 20.8874 25.6236 20.8639C25.6458 20.8404 25.6658 20.8162 25.6842 20.7927C25.6162 20.7788 25.5476 20.7684 25.4785 20.7616C25.4018 20.7533 25.325 20.7472 25.2483 20.7434C25.0902 20.7366 24.9213 20.7389 24.7494 20.748C24.6635 20.7517 24.5783 20.7593 24.4892 20.7646C24.4002 20.7699 24.3135 20.779 24.226 20.7881C24.1385 20.7972 24.0518 20.8078 23.9666 20.8192L23.7149 20.8563C23.4532 20.9003 23.1963 20.9683 22.9474 21.0594C22.8507 21.0943 22.7647 21.1352 22.6849 21.1708C23.0756 20.7966 23.4402 20.3969 23.7763 19.9742C23.7867 19.9828 23.7987 19.9895 23.8116 19.9939C24.0522 20.0667 24.3039 20.0973 24.5552 20.0841C24.6987 20.0768 24.8415 20.06 24.9827 20.0341C25.0549 20.0212 25.1278 20.0053 25.2007 19.9878L25.3089 19.959C25.3442 19.9484 25.3787 19.9371 25.4133 19.9249C25.5549 19.8756 25.6926 19.8161 25.8254 19.7468L25.9313 19.69C25.9651 19.6695 25.9996 19.6491 26.0334 19.6271C26.1009 19.5839 26.1677 19.5384 26.2322 19.4907C26.2966 19.443 26.3603 19.3937 26.4202 19.3437C26.4801 19.2937 26.533 19.2399 26.5844 19.1868C26.6782 19.0912 26.761 18.9857 26.8316 18.8723C26.5251 18.8671 26.2192 18.9005 25.9213 18.9716C25.84 18.9898 25.7548 19.0072 25.6711 19.0269C25.5875 19.0466 25.5031 19.0678 25.4202 19.0906C25.2544 19.1345 25.0948 19.1853 24.9367 19.2346C24.8117 19.2749 24.6894 19.323 24.5706 19.3785C24.5123 19.4066 24.4524 19.4339 24.3948 19.4627C24.3373 19.4915 24.282 19.5203 24.2291 19.5498C24.1761 19.5794 24.127 19.6097 24.0802 19.64C24.0564 19.6552 24.0341 19.6703 24.0126 19.6855L23.9804 19.7074C24.2989 19.2829 24.5891 18.8384 24.8492 18.3767C24.8619 18.3859 24.8766 18.3921 24.8922 18.3949C25.1355 18.4284 25.3829 18.4189 25.6228 18.3668C25.7612 18.3401 25.8972 18.3026 26.0296 18.2547C26.1663 18.2062 26.2999 18.1492 26.4294 18.0842C26.5584 18.0157 26.6816 17.9372 26.7978 17.8492C26.86 17.803 26.9214 17.7545 26.982 17.703C27.0426 17.6514 27.0979 17.5969 27.1531 17.5408C27.2599 17.4332 27.3582 17.3177 27.4471 17.1952C27.5214 17.0882 27.5839 16.9736 27.6336 16.8534C27.4943 16.8695 27.3567 16.8971 27.2222 16.936C27.0764 16.9762 26.9275 17.0292 26.7702 17.0876C26.4594 17.2054 26.1553 17.3398 25.8592 17.49C25.8032 17.5188 25.7464 17.5499 25.6919 17.5832C25.6374 17.6166 25.5844 17.6514 25.5292 17.6855C25.4229 17.7525 25.3204 17.8251 25.2222 17.903C25.1761 17.9402 25.1332 17.9788 25.0925 18.0137C25.0518 18.0485 25.0234 18.0743 24.9927 18.1039C25.2361 17.6437 25.4494 17.1685 25.6312 16.6814C25.6459 16.6893 25.6622 16.6937 25.6788 16.6943C25.9191 16.6912 26.1568 16.645 26.3803 16.5579C26.5103 16.5102 26.637 16.454 26.7594 16.3896C26.8829 16.3215 27.0019 16.2455 27.1155 16.1623C27.3534 15.9846 27.5624 15.7723 27.7356 15.5325C27.7803 15.4717 27.8218 15.4087 27.86 15.3438C27.8976 15.2809 27.9329 15.2173 27.9636 15.1551C27.9943 15.093 28.0227 15.0308 28.0457 14.9717C28.0667 14.9155 28.0831 14.8577 28.0948 14.7989C28.0319 14.8154 27.9699 14.8351 27.9091 14.858C27.8454 14.8815 27.7794 14.9088 27.7111 14.9384C27.5752 14.9982 27.434 15.0702 27.2943 15.149C27.0122 15.3081 26.7393 15.4827 26.477 15.672C26.4514 15.6901 26.4258 15.7091 26.4002 15.7288C26.3749 15.7477 26.3496 15.7667 26.3235 15.7871C26.2744 15.8266 26.226 15.8675 26.1792 15.9092C26.0856 15.9933 26.0012 16.0812 25.9229 16.1661C25.8514 16.2402 25.785 16.3189 25.7241 16.4018C25.8477 16.041 25.9543 15.675 26.0441 15.3044L26.1239 14.9422Z" fill="url(#paint6_linear_9689_3879)"/>
<defs>
<linearGradient id="paint0_linear_9689_3879" x1="13.5097" y1="32.5541" x2="28.3615" y2="26.3961" gradientUnits="userSpaceOnUse">
<stop stop-color="#FF0000"/>
<stop offset="0.04" stop-color="#E10000"/>
<stop offset="0.08" stop-color="#960000"/>
<stop offset="0.29" stop-color="#F80003"/>
<stop offset="0.44" stop-color="#DC0004"/>
<stop offset="0.56" stop-color="#F80003"/>
<stop offset="0.69" stop-color="#CD0001"/>
<stop offset="0.85" stop-color="#980001"/>
<stop offset="0.96" stop-color="#E30002"/>
<stop offset="1" stop-color="#FF0002"/>
</linearGradient>
<linearGradient id="paint1_linear_9689_3879" x1="0.701295" y1="26.5357" x2="17.1597" y2="32.9326" gradientUnits="userSpaceOnUse">
<stop stop-color="#FF0000"/>
<stop offset="0.04" stop-color="#E10000"/>
<stop offset="0.08" stop-color="#960000"/>
<stop offset="0.29" stop-color="#F80003"/>
<stop offset="0.44" stop-color="#DC0004"/>
<stop offset="0.56" stop-color="#F80003"/>
<stop offset="0.69" stop-color="#CD0001"/>
<stop offset="0.85" stop-color="#980001"/>
<stop offset="0.96" stop-color="#E30002"/>
<stop offset="1" stop-color="#FF0002"/>
</linearGradient>
<linearGradient id="paint2_linear_9689_3879" x1="21.3045" y1="23.2867" x2="7.57842" y2="1.88106" gradientUnits="userSpaceOnUse">
<stop stop-color="#BF8A35"/>
<stop offset="0.05" stop-color="#C4913B"/>
<stop offset="0.12" stop-color="#D0A44C"/>
<stop offset="0.21" stop-color="#E5C368"/>
<stop offset="0.24" stop-color="#EFD175"/>
<stop offset="0.26" stop-color="#ECCC6F"/>
<stop offset="0.34" stop-color="#DDB455"/>
<stop offset="0.39" stop-color="#D7AB4B"/>
<stop offset="0.52" stop-color="#D7AE4D"/>
<stop offset="0.57" stop-color="#E4C466"/>
<stop offset="0.62" stop-color="#F3DB82"/>
<stop offset="0.67" stop-color="#FCEA93"/>
<stop offset="0.71" stop-color="#FFEF99"/>
<stop offset="0.76" stop-color="#F1D984"/>
<stop offset="0.86" stop-color="#D6AE59"/>
<stop offset="0.95" stop-color="#C5943F"/>
<stop offset="1" stop-color="#BF8A35"/>
</linearGradient>
<linearGradient id="paint3_linear_9689_3879" x1="17.0194" y1="1.6572" x2="12.4699" y2="23.3305" gradientUnits="userSpaceOnUse">
<stop stop-color="#BF8A35"/>
<stop offset="0.05" stop-color="#C4913B"/>
<stop offset="0.12" stop-color="#D0A44C"/>
<stop offset="0.21" stop-color="#E5C368"/>
<stop offset="0.24" stop-color="#EFD175"/>
<stop offset="0.26" stop-color="#ECCC6F"/>
<stop offset="0.34" stop-color="#DDB455"/>
<stop offset="0.39" stop-color="#D7AB4B"/>
<stop offset="0.52" stop-color="#D7AE4D"/>
<stop offset="0.57" stop-color="#E4C466"/>
<stop offset="0.62" stop-color="#F3DB82"/>
<stop offset="0.67" stop-color="#FCEA93"/>
<stop offset="0.71" stop-color="#FFEF99"/>
<stop offset="0.76" stop-color="#F1D984"/>
<stop offset="0.86" stop-color="#D6AE59"/>
<stop offset="0.95" stop-color="#C5943F"/>
<stop offset="1" stop-color="#BF8A35"/>
</linearGradient>
<linearGradient id="paint4_linear_9689_3879" x1="8.21348" y1="19.0823" x2="16.9046" y2="2.21637" gradientUnits="userSpaceOnUse">
<stop/>
<stop offset="0.23" stop-color="#020303"/>
<stop offset="0.39" stop-color="#0A0B0C"/>
<stop offset="0.53" stop-color="#171A1C"/>
<stop offset="0.66" stop-color="#2A2F32"/>
<stop offset="0.78" stop-color="#42494F"/>
<stop offset="0.89" stop-color="#5F6A71"/>
<stop offset="0.99" stop-color="#7B8993"/>
</linearGradient>
<linearGradient id="paint5_linear_9689_3879" x1="9.3984" y1="1.53586" x2="5.32518" y2="24.9305" gradientUnits="userSpaceOnUse">
<stop offset="0.04" stop-color="#C19859"/>
<stop offset="0.11" stop-color="#D0B17B"/>
<stop offset="0.28" stop-color="#F2E7C4"/>
<stop offset="0.36" stop-color="#FAF5D8"/>
<stop offset="0.37" stop-color="#D2BD8C"/>
<stop offset="0.38" stop-color="#B29050"/>
<stop offset="0.39" stop-color="#885400"/>
<stop offset="0.44" stop-color="#8C5804"/>
<stop offset="0.5" stop-color="#996510"/>
<stop offset="0.55" stop-color="#AE7925"/>
<stop offset="0.59" stop-color="#C18C37"/>
<stop offset="0.6" stop-color="#CA9841"/>
<stop offset="0.65" stop-color="#E7BD60"/>
<stop offset="0.68" stop-color="#F9D473"/>
<stop offset="0.7" stop-color="#FFDC7A"/>
<stop offset="0.87" stop-color="#D0A048"/>
<stop offset="0.92" stop-color="#C18C37"/>
</linearGradient>
<linearGradient id="paint6_linear_9689_3879" x1="24.7034" y1="1.63074" x2="20.5066" y2="25.7367" gradientUnits="userSpaceOnUse">
<stop offset="0.04" stop-color="#C19859"/>
<stop offset="0.11" stop-color="#D0B17B"/>
<stop offset="0.28" stop-color="#F2E7C4"/>
<stop offset="0.36" stop-color="#FAF5D8"/>
<stop offset="0.37" stop-color="#D2BD8C"/>
<stop offset="0.38" stop-color="#B29050"/>
<stop offset="0.39" stop-color="#885400"/>
<stop offset="0.44" stop-color="#8C5804"/>
<stop offset="0.5" stop-color="#996510"/>
<stop offset="0.55" stop-color="#AE7925"/>
<stop offset="0.59" stop-color="#C18C37"/>
<stop offset="0.6" stop-color="#CA9841"/>
<stop offset="0.65" stop-color="#E7BD60"/>
<stop offset="0.68" stop-color="#F9D473"/>
<stop offset="0.7" stop-color="#FFDC7A"/>
<stop offset="0.87" stop-color="#D0A048"/>
<stop offset="0.92" stop-color="#C18C37"/>
</linearGradient>
</defs>
</svg>
