<svg width="17" height="17" viewBox="0 0 17 17" fill="none" xmlns="http://www.w3.org/2000/svg">
<path d="M12.0443 7.79167H4.96094M10.6276 7.79167V9.20833M11.3359 4.95833H5.66927V2.83333C5.66927 2.64547 5.7439 2.4653 5.87674 2.33247C6.00958 2.19963 6.18974 2.125 6.3776 2.125H10.6276C10.8155 2.125 10.9956 2.19963 11.1285 2.33247C11.2613 2.4653 11.3359 2.64547 11.3359 2.83333V4.95833Z" stroke="black" stroke-linecap="round" stroke-linejoin="round"/>
<path d="M14.875 14.1667V5.66671C14.875 5.27551 14.5579 4.95837 14.1667 4.95837L2.83333 4.95837C2.44213 4.95837 2.125 5.27551 2.125 5.66671V14.1667C2.125 14.5579 2.44213 14.875 2.83333 14.875H14.1667C14.5579 14.875 14.875 14.5579 14.875 14.1667Z" stroke="black" stroke-linecap="round" stroke-linejoin="round"/>
</svg>
