<svg width="1493" height="353" viewBox="0 0 1493 353" fill="none" xmlns="http://www.w3.org/2000/svg">
<g filter="url(#filter0_d_9661_3800)">
<rect x="4" width="1485" height="345" rx="20" fill="url(#paint0_linear_9661_3800)"/>
<rect x="4.5" y="0.5" width="1484" height="344" rx="19.5" stroke="#D9D9D9" stroke-opacity="0.5"/>
</g>
<path d="M1258.21 36C1318.53 36 1367.42 84.8972 1367.42 145.212C1367.42 205.528 1318.53 254.424 1258.21 254.424C1197.9 254.424 1149 205.528 1149 145.212C1149 84.8972 1197.9 36 1258.21 36ZM1330.7 72.7272C1290.67 32.6947 1225.76 32.6953 1185.73 72.7272C1145.69 112.76 1145.69 177.665 1185.73 217.697C1225.76 257.73 1290.66 257.73 1330.7 217.697C1370.73 177.665 1370.73 112.76 1330.7 72.7272Z" fill="white"/>
<path d="M1250.4 252.213C1252.61 248.402 1246.82 245.054 1244.62 248.861L1210.03 308.771L1203.96 269.976C1203.63 267.884 1201.47 266.485 1199.2 267.47L1162.81 281.519L1193.51 228.347C1195.7 224.545 1189.92 221.211 1187.73 225.022L1152.46 286.098C1150.52 289.134 1153.52 292.28 1156.4 291.168L1198 275.094L1204.85 318.87C1205.25 322.414 1209.55 322.989 1211.09 320.314L1250.4 252.213Z" fill="white"/>
<path d="M1271.81 248.861C1269.61 245.054 1263.82 248.4 1266.02 252.213L1305.34 320.31C1306.88 322.985 1311.18 322.414 1311.58 318.87L1318.42 275.094L1360.03 291.158C1362.91 292.27 1365.91 289.135 1363.96 286.099L1328.7 225.022C1326.5 221.211 1320.72 224.545 1322.91 228.347L1353.61 281.52L1316.28 267.175C1314.45 266.89 1312.74 268.14 1312.45 269.969L1306.4 308.771L1271.81 248.861Z" fill="white"/>
<path d="M1261.26 83.7124L1278.72 115.219L1314.35 122.136C1315.77 122.018 1318.65 125.223 1316.01 127.869L1291.41 154.242L1295.84 190.267C1296.15 192.855 1293.49 194.869 1291.02 193.676L1258.21 178.373L1225.32 193.712C1222.97 194.809 1220.2 192.922 1220.59 190.152L1225.01 154.242L1200.26 127.707C1198.51 125.838 1199.36 122.579 1202.26 122.104L1237.7 115.219L1255.28 83.4751C1256.62 81.0572 1260.13 81.2299 1261.26 83.7124ZM1273.63 119.826L1258.21 91.9908L1242.92 119.583C1242.42 120.568 1241.24 121.556 1240.49 121.493L1209.27 127.559L1230.82 150.669C1231.57 151.376 1231.98 152.416 1231.85 153.516L1227.97 185.085L1256.72 171.671C1257.6 171.238 1258.67 171.192 1259.62 171.638L1288.45 185.085L1284.58 153.611C1284.43 152.633 1284.72 151.6 1285.44 150.821L1307.15 127.56L1276.1 121.528C1275.09 121.389 1274.17 120.787 1273.63 119.826Z" fill="white"/>
<path d="M1258.21 63.6184C1303.27 63.6184 1339.81 100.149 1339.81 145.213C1339.81 190.275 1303.27 226.806 1258.21 226.806C1213.15 226.806 1176.62 190.275 1176.62 145.213C1176.62 100.149 1213.15 63.6184 1258.21 63.6184ZM1311.17 92.2561C1281.92 63.0101 1234.5 63.0101 1205.25 92.2561C1176.01 121.503 1176.01 168.922 1205.26 198.169C1234.5 227.415 1281.92 227.415 1311.17 198.169C1340.41 168.922 1340.41 121.503 1311.17 92.2561Z" fill="white"/>
<path d="M1043.02 283.008C1042.97 283.022 1042.96 283.004 1043.09 282.908L1043.1 282.978C1043.08 282.991 1043.05 283.002 1043.02 283.008Z" fill="white"/>
<path d="M1060.38 289.848L1063.98 288.884L1067.58 287.919L1069.51 295.119L1073.11 294.154C1077.08 293.089 1081.17 295.449 1082.24 299.425L1053.44 307.141C1052.37 303.165 1054.73 299.078 1058.71 298.013L1062.31 297.048L1060.38 289.848Z" fill="white"/>
<path d="M1079.08 273.261C1079.23 273.282 1079.23 273.303 1079.18 273.318C1079.16 273.323 1079.13 273.328 1079.1 273.331L1079.08 273.261Z" fill="white"/>
<path d="M1043.52 255.779L1045.45 262.978L1048.34 273.778L1048.94 276.022L1050.41 277.852C1053.18 281.329 1057.75 282.833 1062.04 281.684C1066.33 280.535 1069.53 276.949 1070.19 272.549L1070.54 270.235L1069.94 267.991L1067.05 257.191L1065.12 249.991L1043.52 255.779ZM1037.99 249.544L1066.79 241.827C1068.78 241.294 1070.82 242.473 1071.36 244.462L1072.32 248.062L1083.12 245.168C1085.11 244.635 1087.15 245.815 1087.68 247.804L1089.61 255.003C1091.16 260.79 1089.64 270.431 1079.07 273.261L1077.56 273.665C1076.49 280.763 1071.35 286.906 1063.97 288.884C1056.59 290.861 1049.06 288.113 1044.58 282.503L1043.07 282.907C1032.51 285.738 1026.37 278.153 1024.82 272.366L1022.89 265.166C1022.35 263.177 1023.53 261.135 1025.52 260.602L1036.32 257.708L1035.36 254.108C1034.82 252.119 1036 250.076 1037.99 249.544ZM1041.14 275.707L1038.25 264.908L1031.05 266.837L1032.01 270.437C1032.49 272.099 1034.57 277.469 1041.14 275.707ZM1077.14 266.061C1084 264.225 1082.74 258.135 1082.41 256.932L1081.45 253.333L1074.25 255.262L1077.14 266.061Z" fill="white"/>
<g clip-path="url(#clip0_9661_3800)">
<path d="M1446.52 97.5394L1441.01 96.5685L1441.37 94.5578C1441.91 91.4935 1439.85 88.5608 1436.79 88.0205L1431.94 87.166L1432.68 82.9536L1434.84 84.6604C1435.1 84.8614 1435.4 84.9918 1435.7 85.0458C1436.09 85.1142 1436.5 85.0631 1436.86 84.8862C1437.53 84.5681 1437.95 83.9036 1437.96 83.1695L1438.04 73.8908L1445.54 68.64C1446.13 68.2221 1446.44 67.5078 1446.34 66.7894C1446.23 66.0725 1445.73 65.4736 1445.04 65.2432L1436.51 62.3906L1434.02 53.5283C1433.82 52.8235 1433.23 52.2887 1432.5 52.1606C1431.78 52.0326 1431.04 52.3335 1430.61 52.9307L1425.24 60.4076L1416.24 60.1706C1415.52 60.1521 1414.84 60.5443 1414.5 61.1818C1414.16 61.8196 1414.2 62.5981 1414.62 63.1919L1419.87 70.69L1416.77 79.4377C1416.53 80.1298 1416.7 80.8991 1417.21 81.4246C1417.73 81.9502 1418.49 82.1345 1419.19 81.9017L1421.29 81.204L1420.59 85.1667L1415.74 84.3119C1412.68 83.7719 1409.75 85.8235 1409.21 88.8897L1408.85 90.8985L1403.35 89.9276C1400.65 89.4516 1398.06 91.2602 1397.59 93.9613L1397.31 95.5161C1396.84 98.2172 1398.65 100.801 1401.35 101.277L1444.51 108.888C1447.22 109.365 1449.8 107.556 1450.28 104.855L1450.55 103.3C1451.03 100.599 1449.22 98.0153 1446.52 97.5394ZM1423.58 69.2991L1419.95 64.1128L1426.16 64.2765C1426.79 64.2932 1427.4 63.9939 1427.77 63.4763L1431.4 58.416L1433.08 64.4135C1433.26 65.0271 1433.72 65.5146 1434.32 65.7167L1440.21 67.6846L1435.02 71.3167C1434.52 71.6738 1434.21 72.2538 1434.2 72.873L1434.15 79.2152L1429.33 75.4031C1428.82 75.0036 1428.15 74.8807 1427.53 75.0862L1421.7 77.0203L1423.81 71.0409C1424.03 70.4559 1423.94 69.8065 1423.58 69.2991ZM1425.37 79.8515L1427.76 79.0599L1429.36 80.3225C1429.28 80.4822 1429.19 80.6409 1429.16 80.8262L1428.16 86.5009L1424.38 85.8338L1425.38 80.1592C1425.39 80.0533 1425.37 79.9548 1425.37 79.8515ZM1412.99 89.5567C1413.16 88.5788 1414.1 87.9225 1415.08 88.0953L1421.82 89.2833L1429.38 90.6175L1436.12 91.8058C1437.1 91.9783 1437.76 92.915 1437.58 93.8929L1437.23 95.9018L1412.64 91.5659L1412.99 89.5571L1412.99 89.5567ZM1446.49 104.188C1446.39 104.803 1445.8 105.214 1445.18 105.106L1402.01 97.4937C1401.4 97.3853 1400.99 96.7979 1401.1 96.1832L1401.37 94.6283C1401.48 94.0136 1402.07 93.6023 1402.68 93.7107L1410.08 95.0151L1438.45 100.018L1445.85 101.322C1446.47 101.431 1446.88 102.018 1446.77 102.633L1446.49 104.188Z" fill="white"/>
</g>
<g clip-path="url(#clip1_9661_3800)">
<path d="M1099.26 105.315L1098.15 111.428C1098.1 111.662 1098.12 111.905 1098.21 112.126C1098.3 112.347 1098.46 112.536 1098.66 112.667L1103.73 115.883C1103.94 116.022 1104.1 116.221 1104.2 116.453C1104.29 116.685 1104.31 116.94 1104.26 117.184C1104.2 117.428 1104.07 117.65 1103.89 117.819C1103.7 117.989 1103.47 118.099 1103.23 118.134L1097.17 119.201C1096.93 119.237 1096.71 119.343 1096.53 119.505C1096.35 119.666 1096.22 119.877 1096.16 120.11L1094.55 126.176C1094.49 126.416 1094.37 126.634 1094.18 126.8C1094 126.966 1093.78 127.072 1093.53 127.103C1093.29 127.135 1093.04 127.091 1092.82 126.978C1092.61 126.864 1092.43 126.686 1092.31 126.468L1089.72 120.933C1089.63 120.719 1089.47 120.541 1089.27 120.424C1089.06 120.308 1088.83 120.26 1088.6 120.287L1082.47 120.787C1082.23 120.798 1081.99 120.733 1081.78 120.602C1081.57 120.47 1081.41 120.277 1081.32 120.05C1081.22 119.824 1081.2 119.573 1081.25 119.333C1081.31 119.093 1081.43 118.876 1081.61 118.709L1086.06 114.278C1086.23 114.108 1086.35 113.892 1086.4 113.656C1086.45 113.42 1086.43 113.174 1086.34 112.95L1084.16 107.303C1084.02 107.06 1083.97 106.776 1084.01 106.499C1084.05 106.222 1084.19 105.968 1084.4 105.778C1084.6 105.588 1084.87 105.474 1085.15 105.455C1085.43 105.436 1085.71 105.513 1085.94 105.673L1091.26 108.461C1091.48 108.568 1091.73 108.603 1091.97 108.563C1092.22 108.523 1092.44 108.409 1092.62 108.236L1097.35 104.213C1097.54 104.049 1097.76 103.948 1098.01 103.922C1098.25 103.897 1098.5 103.949 1098.71 104.071C1098.92 104.193 1099.09 104.38 1099.19 104.603C1099.29 104.826 1099.31 105.076 1099.26 105.315Z" stroke="white" stroke-width="3" stroke-linecap="round" stroke-linejoin="round"/>
<path d="M1069.13 125.212L1068.01 131.325C1067.97 131.56 1067.99 131.803 1068.08 132.024C1068.17 132.245 1068.33 132.433 1068.53 132.565L1073.6 135.781C1073.81 135.92 1073.97 136.118 1074.07 136.35C1074.16 136.583 1074.18 136.838 1074.12 137.082C1074.07 137.326 1073.94 137.547 1073.76 137.717C1073.57 137.886 1073.34 137.996 1073.09 138.032L1067.04 139.098C1066.8 139.135 1066.58 139.24 1066.4 139.402C1066.22 139.564 1066.09 139.774 1066.03 140.008L1064.41 146.074C1064.36 146.314 1064.23 146.531 1064.05 146.697C1063.87 146.863 1063.64 146.969 1063.4 147.001C1063.16 147.033 1062.91 146.989 1062.69 146.875C1062.47 146.762 1062.3 146.584 1062.18 146.366L1059.59 140.83C1059.49 140.617 1059.34 140.438 1059.13 140.322C1058.93 140.206 1058.7 140.157 1058.47 140.184L1052.38 140.704C1052.13 140.715 1051.89 140.65 1051.68 140.518C1051.47 140.386 1051.31 140.194 1051.22 139.967C1051.12 139.74 1051.1 139.49 1051.15 139.25C1051.21 139.01 1051.33 138.792 1051.51 138.626L1055.96 134.194C1056.13 134.025 1056.25 133.809 1056.3 133.573C1056.35 133.337 1056.33 133.091 1056.24 132.866L1054.11 127.137C1054.02 126.905 1054 126.65 1054.05 126.406C1054.11 126.162 1054.23 125.94 1054.42 125.77C1054.6 125.6 1054.83 125.49 1055.08 125.455C1055.33 125.419 1055.58 125.459 1055.8 125.57L1061.13 128.358C1061.35 128.465 1061.6 128.501 1061.84 128.461C1062.08 128.421 1062.31 128.306 1062.48 128.133L1067.25 124.061C1067.44 123.902 1067.67 123.806 1067.91 123.787C1068.16 123.767 1068.4 123.826 1068.61 123.954C1068.82 124.081 1068.98 124.272 1069.07 124.498C1069.17 124.724 1069.19 124.974 1069.13 125.212Z" stroke="white" stroke-width="3" stroke-linecap="round" stroke-linejoin="round"/>
<path d="M1097.1 141.362L1095.98 147.475C1095.93 147.71 1095.96 147.953 1096.05 148.174C1096.14 148.395 1096.3 148.583 1096.49 148.715L1101.57 151.931C1101.78 152.07 1101.94 152.268 1102.03 152.5C1102.13 152.733 1102.15 152.988 1102.09 153.232C1102.04 153.476 1101.91 153.697 1101.72 153.867C1101.54 154.036 1101.31 154.146 1101.06 154.182L1095 155.248C1094.77 155.285 1094.54 155.39 1094.36 155.552C1094.18 155.714 1094.06 155.924 1094 156.158L1092.38 162.224C1092.33 162.464 1092.2 162.681 1092.02 162.847C1091.84 163.013 1091.61 163.119 1091.37 163.151C1091.12 163.183 1090.88 163.139 1090.66 163.025C1090.44 162.912 1090.26 162.734 1090.15 162.516L1087.55 156.98C1087.46 156.767 1087.3 156.588 1087.1 156.472C1086.9 156.356 1086.67 156.307 1086.44 156.334L1080.34 156.854C1080.1 156.865 1079.86 156.8 1079.65 156.668C1079.44 156.536 1079.28 156.344 1079.18 156.117C1079.09 155.89 1079.07 155.64 1079.12 155.4C1079.17 155.16 1079.3 154.942 1079.48 154.776L1083.93 150.344C1084.1 150.175 1084.22 149.959 1084.27 149.723C1084.32 149.487 1084.3 149.241 1084.21 149.016L1082.08 143.287C1081.98 143.055 1081.96 142.8 1082.02 142.556C1082.07 142.312 1082.2 142.09 1082.38 141.92C1082.57 141.75 1082.8 141.64 1083.05 141.605C1083.29 141.569 1083.55 141.609 1083.77 141.72L1089.09 144.508C1089.31 144.615 1089.55 144.656 1089.79 144.624C1090.02 144.593 1090.25 144.492 1090.42 144.333L1095.19 140.26C1095.37 140.097 1095.6 139.995 1095.84 139.97C1096.09 139.944 1096.33 139.996 1096.54 140.119C1096.76 140.241 1096.92 140.427 1097.02 140.651C1097.12 140.874 1097.15 141.123 1097.1 141.362Z" stroke="white" stroke-width="3" stroke-linecap="round" stroke-linejoin="round"/>
</g>
<g clip-path="url(#clip2_9661_3800)">
<path d="M1428.98 230.174C1429.38 229.603 1429.54 228.898 1429.41 228.212L1424.4 199.776C1424.15 198.348 1422.79 197.395 1421.36 197.647L1400.68 201.293C1399.25 201.545 1398.3 202.906 1398.55 204.334L1403.56 232.77C1403.69 233.466 1404.08 234.083 1404.67 234.482L1413.68 240.644L1413.12 241.747L1408.74 242.519C1406.64 242.89 1405.84 245.486 1407.36 246.981L1410.63 250.182L1408.65 254.31C1407.73 256.237 1409.37 258.401 1411.48 258.03L1415.86 257.257L1419.74 260.85C1421.01 262.031 1423.06 261.67 1423.86 260.124L1426.27 255.421L1430.65 254.649C1432.76 254.278 1433.56 251.682 1432.03 250.187L1428.76 246.986L1430.74 242.858C1431.67 240.931 1430.02 238.767 1427.92 239.138L1422.77 240.046L1422.37 239.566C1422.45 239.481 1422.53 239.392 1422.59 239.296L1428.98 230.174ZM1404.18 206.008L1419.69 203.273L1424.06 228.053L1418.92 235.395L1417.41 235.66L1417.41 235.66L1416.05 235.9L1408.54 230.771L1404.18 206.008ZM1423.8 245.196L1423.21 246.411C1422.73 247.425 1422.94 248.636 1423.75 249.423L1424.71 250.366L1424.08 250.477C1423.27 250.62 1422.57 251.132 1422.2 251.862L1420.77 254.648L1418.47 252.52C1417.87 251.962 1417.04 251.718 1416.23 251.861L1415.6 251.972L1416.18 250.757C1416.67 249.743 1416.45 248.532 1415.65 247.745L1414.69 246.802L1415.32 246.69C1416.13 246.547 1416.83 246.032 1417.2 245.299L1418.39 242.983L1419.71 244.575C1420.31 245.298 1421.26 245.644 1422.18 245.48L1423.8 245.196Z" fill="white"/>
</g>
<path d="M1391.52 308.715C1391.66 308.228 1392.34 308.228 1392.48 308.715L1394.55 316.099C1394.6 316.267 1394.73 316.398 1394.9 316.445L1402.29 318.519C1402.77 318.655 1402.77 319.345 1402.29 319.481L1394.9 321.555C1394.73 321.602 1394.6 321.733 1394.55 321.901L1392.48 329.285C1392.34 329.772 1391.66 329.772 1391.52 329.285L1389.45 321.901C1389.4 321.733 1389.27 321.602 1389.1 321.555L1381.71 319.481C1381.23 319.345 1381.23 318.655 1381.71 318.519L1389.1 316.445C1389.27 316.398 1389.4 316.267 1389.45 316.099L1391.52 308.715Z" fill="white"/>
<path d="M1053.52 32.7147C1053.66 32.2282 1054.34 32.2282 1054.48 32.7147L1056.55 40.0992C1056.6 40.2671 1056.73 40.3983 1056.9 40.4455L1064.29 42.5186C1064.77 42.6552 1064.77 43.3448 1064.29 43.4814L1056.9 45.5545C1056.73 45.6017 1056.6 45.7329 1056.55 45.9008L1054.48 53.2853C1054.34 53.7718 1053.66 53.7718 1053.52 53.2853L1051.45 45.9008C1051.4 45.7329 1051.27 45.6017 1051.1 45.5545L1043.71 43.4814C1043.23 43.3448 1043.23 42.6552 1043.71 42.5186L1051.1 40.4455C1051.27 40.3983 1051.4 40.2671 1051.45 40.0992L1053.52 32.7147Z" fill="white"/>
<path d="M1139.52 207.715C1139.66 207.228 1140.34 207.228 1140.48 207.715L1142.55 215.099C1142.6 215.267 1142.73 215.398 1142.9 215.445L1150.29 217.519C1150.77 217.655 1150.77 218.345 1150.29 218.481L1142.9 220.555C1142.73 220.602 1142.6 220.733 1142.55 220.901L1140.48 228.285C1140.34 228.772 1139.66 228.772 1139.52 228.285L1137.45 220.901C1137.4 220.733 1137.27 220.602 1137.1 220.555L1129.71 218.481C1129.23 218.345 1129.23 217.655 1129.71 217.519L1137.1 215.445C1137.27 215.398 1137.4 215.267 1137.45 215.099L1139.52 207.715Z" fill="white"/>
<defs>
<filter id="filter0_d_9661_3800" x="0" y="0" width="1493" height="353" filterUnits="userSpaceOnUse" color-interpolation-filters="sRGB">
<feFlood flood-opacity="0" result="BackgroundImageFix"/>
<feColorMatrix in="SourceAlpha" type="matrix" values="0 0 0 0 0 0 0 0 0 0 0 0 0 0 0 0 0 0 127 0" result="hardAlpha"/>
<feOffset dy="4"/>
<feGaussianBlur stdDeviation="2"/>
<feComposite in2="hardAlpha" operator="out"/>
<feColorMatrix type="matrix" values="0 0 0 0 0 0 0 0 0 0 0 0 0 0 0 0 0 0 0.1 0"/>
<feBlend mode="normal" in2="BackgroundImageFix" result="effect1_dropShadow_9661_3800"/>
<feBlend mode="normal" in="SourceGraphic" in2="effect1_dropShadow_9661_3800" result="shape"/>
</filter>
<linearGradient id="paint0_linear_9661_3800" x1="4" y1="172.5" x2="1489" y2="172.5" gradientUnits="userSpaceOnUse">
<stop stop-color="white"/>
<stop offset="1" stop-color="#FCE7D2"/>
</linearGradient>
<clipPath id="clip0_9661_3800">
<rect width="61.463" height="61.463" fill="white" transform="translate(1402.67 43) rotate(10)"/>
</clipPath>
<clipPath id="clip1_9661_3800">
<rect width="57" height="57" fill="white" transform="translate(1074.5 89) rotate(30)"/>
</clipPath>
<clipPath id="clip2_9661_3800">
<rect width="63" height="63" fill="white" transform="translate(1380 204.94) rotate(-10)"/>
</clipPath>
</defs>
</svg>
