<svg width="29" height="38" viewBox="0 0 29 38" fill="none" xmlns="http://www.w3.org/2000/svg">
<path d="M18.5186 37.8329L21.4577 33.3884C21.4978 33.3278 21.5567 33.2807 21.6262 33.2534C21.6957 33.2262 21.7723 33.2203 21.8454 33.2366L27.2014 34.4502C27.2663 34.4653 27.3343 34.4629 27.3979 34.4433C27.4615 34.4238 27.5182 34.3878 27.5617 34.3393C27.6052 34.2909 27.6338 34.2319 27.6443 34.1689C27.6549 34.1058 27.6469 34.0413 27.6214 33.9823L23.0745 23.3364L13.3281 27.1303L17.875 37.7749C17.8997 37.8342 17.9411 37.8859 17.9946 37.9242C18.0482 37.9624 18.1117 37.9859 18.1782 37.9919C18.2448 37.9979 18.3118 37.9862 18.3718 37.9582C18.4319 37.9301 18.4827 37.8868 18.5186 37.8329Z" fill="url(#paint0_linear_9689_3866)"/>
<path d="M16.6277 27.134L16.0991 28.3748L14.141 32.9576L14.0596 33.1465L13.3565 34.7959L12.0808 37.7799C12.0563 37.8399 12.0148 37.8922 11.9608 37.9309C11.9068 37.9695 11.8426 37.993 11.7754 37.9987C11.7082 38.0043 11.6407 37.9919 11.5804 37.9629C11.5202 37.9338 11.4697 37.8892 11.4346 37.8342L8.49557 33.3897C8.45546 33.329 8.39663 33.2816 8.32719 33.2542C8.25774 33.2268 8.1811 33.2206 8.10784 33.2366L2.7519 34.4502C2.68691 34.4649 2.61891 34.4623 2.55539 34.4425C2.49187 34.4228 2.43529 34.3867 2.39187 34.3382C2.34844 34.2897 2.31987 34.2307 2.30928 34.1677C2.29869 34.1047 2.3065 34.0401 2.33185 33.981L6.87871 23.3364L16.6277 27.134Z" fill="url(#paint1_linear_9689_3866)"/>
<path d="M14.557 27.1017C22.1134 27.1017 28.239 21.0347 28.239 13.5508C28.239 6.06691 22.1134 0 14.557 0C7.00064 0 0.875 6.06691 0.875 13.5508C0.875 21.0347 7.00064 27.1017 14.557 27.1017Z" fill="url(#paint2_linear_9689_3866)"/>
<path d="M14.5708 25.3899C21.1726 25.3899 26.5245 20.0893 26.5245 13.5508C26.5245 7.01231 21.1726 1.71179 14.5708 1.71179C7.96902 1.71179 2.61719 7.01231 2.61719 13.5508C2.61719 20.0893 7.96902 25.3899 14.5708 25.3899Z" fill="url(#paint3_linear_9689_3866)"/>
<path style="mix-blend-mode:screen" d="M18.7674 3.61267C17.3118 3.04554 15.7495 2.7972 14.1878 2.88469C12.6261 2.97217 11.1021 3.39343 9.72032 4.11951C8.33855 4.8456 7.1318 5.85931 6.18296 7.09103C5.23411 8.32276 4.56564 9.74331 4.22347 11.2551C3.88129 12.767 3.87351 14.3342 4.20066 15.8493C4.52782 17.3644 5.18215 18.7914 6.11872 20.0323C7.05529 21.2732 8.25192 22.2986 9.62641 23.0381C11.0009 23.7776 12.5207 24.2137 14.0814 24.3164L18.7674 3.61267Z" fill="url(#paint4_linear_9689_3866)"/>
<path d="M12.1168 25.9722C12.0782 25.694 12.0051 25.4217 11.8991 25.1613C11.8721 25.0899 11.8418 25.0202 11.8123 24.948C11.7828 24.8758 11.7517 24.8037 11.7198 24.7323C11.6551 24.5912 11.5872 24.4542 11.516 24.3269C11.4474 24.1974 11.3717 24.0718 11.2892 23.9506C11.2687 23.9198 11.2474 23.8898 11.2253 23.8598L11.1926 23.8152L11.1607 23.769C11.1173 23.7081 11.0731 23.6489 11.028 23.593C10.983 23.537 10.9372 23.4843 10.8913 23.4349C10.8684 23.4114 10.8463 23.3854 10.8242 23.3619L10.7571 23.293C10.6792 23.2144 10.5904 23.1473 10.4935 23.0935C10.4574 23.4187 10.4762 23.7475 10.5491 24.0666C10.5883 24.2427 10.64 24.4158 10.7039 24.5847C10.7358 24.6707 10.7702 24.7558 10.8078 24.8393C10.8455 24.9229 10.8897 25.0015 10.9298 25.0769C11.001 25.2027 11.0832 25.3221 11.1754 25.4337C11.2671 25.5414 11.3664 25.6425 11.4726 25.7362C11.5217 25.7809 11.573 25.8231 11.6265 25.8627L11.6731 25.8927L11.5765 25.8684C11.4947 25.8465 11.4128 25.8286 11.3359 25.8027L10.8594 25.6559C10.7022 25.6016 10.5467 25.544 10.3903 25.4881L10.2732 25.4459L10.1578 25.398L9.97362 25.3226C9.97639 25.3139 9.97831 25.305 9.97935 25.2959C9.99046 25.0205 9.96681 24.7448 9.90895 24.4752C9.88111 24.3285 9.84837 24.176 9.81071 24.0293C9.79106 23.9555 9.77141 23.8833 9.74931 23.8119C9.72721 23.7406 9.7051 23.6708 9.68382 23.6011C9.63944 23.4647 9.58723 23.331 9.52746 23.2005L9.43495 23.001C9.40302 22.9354 9.36946 22.8713 9.33507 22.8097C9.30069 22.748 9.26467 22.6905 9.22947 22.6337C9.19426 22.5769 9.15906 22.5226 9.12304 22.4715C9.08914 22.4246 9.05222 22.3799 9.01252 22.3377C8.99451 22.3183 8.97569 22.2996 8.95686 22.2826C8.93803 22.2656 8.92002 22.2485 8.90201 22.2331C8.87988 22.303 8.8613 22.3739 8.84634 22.4456C8.83078 22.5194 8.81932 22.5956 8.81032 22.6751C8.79176 22.8425 8.78574 23.0111 8.79231 23.1794C8.79948 23.3569 8.81973 23.5336 8.85289 23.7081C8.88438 23.8826 8.92926 24.0545 8.98715 24.2222C9.03472 24.3548 9.09304 24.4834 9.16152 24.6066C9.19487 24.6683 9.23206 24.7279 9.27286 24.785C9.31297 24.8426 9.35472 24.8969 9.39565 24.9472C9.44827 25.015 9.50543 25.0792 9.56675 25.1394C9.08142 24.9181 8.6101 24.6679 8.1554 24.3901C8.11119 24.3625 8.0678 24.3333 8.02359 24.309C8.02946 24.2997 8.03388 24.2896 8.03669 24.279C8.09386 24.0148 8.11724 23.7446 8.10628 23.4746C8.10628 23.3262 8.09891 23.1754 8.08581 23.027C8.07271 22.8786 8.0547 22.7351 8.03505 22.5915C8.01505 22.4526 7.98635 22.315 7.9491 22.1796C7.91556 22.0409 7.87484 21.9039 7.82712 21.7693C7.78341 21.6463 7.73341 21.5256 7.6773 21.4076C7.62961 21.3118 7.57052 21.222 7.5013 21.14C7.36372 21.4227 7.27568 21.7266 7.24096 22.0385C7.23032 22.1196 7.2205 22.212 7.2164 22.2988C7.21231 22.3856 7.21149 22.4723 7.2164 22.5599C7.22132 22.6475 7.22214 22.7351 7.22868 22.8226C7.23499 22.9088 7.24565 22.9946 7.26061 23.0797C7.30707 23.3497 7.39953 23.6099 7.53404 23.8492C7.56515 23.9068 7.59871 23.9611 7.63146 24.0114C7.64702 24.0349 7.66175 24.0576 7.6773 24.0795C7.28739 23.8128 6.91218 23.5256 6.5533 23.2192C6.47143 23.1519 6.39694 23.0821 6.31998 23.0132C6.32794 23.0039 6.33455 22.9935 6.33963 22.9824C6.43779 22.7364 6.50461 22.4793 6.53856 22.2169C6.56148 22.0734 6.57949 21.9258 6.59096 21.7806C6.59669 21.7077 6.6016 21.6355 6.60487 21.5641C6.60815 21.4928 6.61142 21.4206 6.61224 21.3509C6.61524 21.2131 6.60977 21.0753 6.59587 20.9381C6.58359 20.797 6.56803 20.6535 6.54347 20.5205C6.53692 20.4873 6.53038 20.4548 6.52301 20.4224C6.52301 20.4062 6.51646 20.3908 6.51237 20.3746L6.50254 20.3267C6.48862 20.2635 6.47307 20.2035 6.45506 20.1467C6.43893 20.0933 6.41924 20.041 6.39612 19.9902C6.38575 19.9664 6.37429 19.9437 6.36173 19.9221C6.35143 19.9007 6.33995 19.8798 6.32735 19.8596C6.28724 19.914 6.24549 19.9732 6.21028 20.0364C6.17508 20.0997 6.13906 20.1645 6.10631 20.2343C6.03737 20.3812 5.97936 20.533 5.93276 20.6884C5.9082 20.7695 5.88446 20.8506 5.86727 20.9357C5.85008 21.0208 5.83452 21.1036 5.82142 21.1887C5.80833 21.2738 5.79932 21.359 5.79195 21.4449C5.78458 21.5309 5.77967 21.616 5.78049 21.6979C5.78225 21.9666 5.82957 22.233 5.92048 22.4861C5.95103 22.5737 5.98656 22.6596 6.02691 22.7432C5.61722 22.3538 5.23433 21.9377 4.88079 21.4976C4.89242 21.4892 4.90241 21.4788 4.91027 21.4668C5.04458 21.2447 5.14993 21.0065 5.22381 20.7581C5.26965 20.6227 5.30977 20.4824 5.34497 20.3437C5.36216 20.274 5.37772 20.2051 5.39245 20.1362C5.40719 20.0672 5.41947 19.9991 5.43257 19.931C5.45755 19.797 5.47423 19.6616 5.4825 19.5256C5.4866 19.4574 5.48987 19.3877 5.49396 19.318C5.49806 19.2482 5.49396 19.1801 5.49396 19.1136C5.49396 19.0471 5.48905 18.9823 5.48414 18.9198C5.47923 18.8574 5.47513 18.7958 5.46695 18.7382C5.45454 18.6355 5.42696 18.5353 5.38508 18.4406C5.17523 18.6585 5.00268 18.9088 4.87424 19.1817C4.83659 19.2572 4.80466 19.3326 4.77437 19.4104C4.74408 19.4883 4.71543 19.5677 4.6925 19.648C4.64042 19.8069 4.60073 19.9696 4.5738 20.1345C4.55273 20.2657 4.54287 20.3983 4.54433 20.5311C4.54399 20.5972 4.54782 20.6633 4.55579 20.7289C4.56316 20.793 4.57216 20.857 4.58281 20.9187C4.59345 20.9803 4.60655 21.0403 4.62128 21.0971C4.62783 21.1254 4.63602 21.1538 4.64339 21.1782C4.64339 21.1838 4.64339 21.1895 4.64912 21.1952C4.31521 20.7531 4.01032 20.2902 3.73632 19.8094C3.75014 19.8031 3.76243 19.794 3.77234 19.7826C3.93781 19.5881 4.07782 19.3737 4.18903 19.1444C4.25043 19.022 4.31347 18.8923 4.36914 18.7625C4.42481 18.6328 4.47474 18.503 4.51731 18.3773C4.5616 18.2516 4.59904 18.1235 4.62947 17.9938C4.64502 17.9281 4.65894 17.8616 4.6704 17.7951C4.68186 17.7286 4.6966 17.6621 4.7056 17.5973C4.72473 17.4757 4.73485 17.3529 4.73589 17.2299C4.74109 17.1283 4.73172 17.0265 4.70806 16.9275C4.59462 17.0098 4.48936 17.1027 4.3937 17.2048C4.28513 17.3178 4.18628 17.4396 4.09816 17.5689C3.91024 17.8388 3.7617 18.1336 3.65691 18.4446C3.63645 18.5046 3.61844 18.5671 3.60288 18.6311C3.58698 18.6947 3.57468 18.7592 3.56604 18.8241C3.54917 18.9505 3.54151 19.0778 3.54312 19.2053C3.54312 19.2661 3.54312 19.3269 3.55131 19.3836C3.55622 19.4258 3.56277 19.4647 3.57014 19.5029C3.31136 19.0214 3.08439 18.5238 2.89065 18.0132C2.90724 18.0094 2.92285 18.0022 2.9365 17.9922C3.12532 17.8275 3.29352 17.641 3.43751 17.4367C3.51938 17.3272 3.59388 17.2121 3.66592 17.0953C3.73796 16.9785 3.81082 16.8593 3.87222 16.7434C3.9937 16.5097 4.09318 16.2654 4.16939 16.0136C4.18576 15.9528 4.20623 15.8911 4.22014 15.8319C4.23406 15.7727 4.24798 15.7152 4.25698 15.66C4.26548 15.6079 4.27094 15.5554 4.27336 15.5027C4.27583 15.4563 4.27583 15.4097 4.27336 15.3632C4.21605 15.3924 4.15793 15.4257 4.0998 15.463C4.04168 15.5003 3.98355 15.5441 3.92625 15.5862C3.80649 15.6808 3.69377 15.7838 3.58896 15.8944C3.36604 16.1285 3.17704 16.3921 3.02737 16.6777C3.01263 16.7061 2.9979 16.7345 2.9848 16.7628C2.9717 16.7912 2.95942 16.8204 2.94796 16.8504C2.92504 16.9088 2.90375 16.9696 2.88492 17.0304C2.84859 17.1505 2.82123 17.273 2.80306 17.397C2.79013 17.5005 2.78411 17.6048 2.78505 17.7092C2.65325 17.3297 2.53945 16.9453 2.44203 16.5553L2.35362 16.1595C2.3726 16.1594 2.39122 16.1544 2.40765 16.1449C2.61489 16.0151 2.80446 15.8595 2.9717 15.6819C3.16171 15.4927 3.33686 15.2894 3.49564 15.0738C3.57287 14.9712 3.64394 14.8643 3.70849 14.7535C3.74205 14.6967 3.77316 14.6399 3.80263 14.5824C3.8321 14.5248 3.86485 14.4664 3.89268 14.4096C3.94537 14.303 3.98944 14.1923 4.02449 14.0788C4.05852 13.9862 4.07919 13.8893 4.08588 13.7909C3.95843 13.8353 3.83538 13.8912 3.71831 13.958C3.65609 13.9936 3.59224 14.0326 3.5292 14.0747C3.46617 14.1169 3.40559 14.1623 3.34501 14.2102C3.0965 14.4058 2.87615 14.6341 2.69009 14.8889C2.6167 14.9915 2.55207 15.1 2.49688 15.2132C2.4447 15.3236 2.40091 15.4377 2.3659 15.5546C2.34871 15.6106 2.33397 15.6665 2.32169 15.7168C2.31 15.7657 2.30152 15.8152 2.29631 15.8652L2.28977 15.8263L2.2472 15.583C2.21527 15.4208 2.20053 15.2586 2.17843 15.0916L2.14814 14.8483C2.13995 14.7672 2.13504 14.6861 2.12849 14.601L2.10966 14.3537V14.3042C2.12972 14.308 2.15044 14.306 2.16942 14.2985C2.27339 14.2551 2.3736 14.2033 2.46905 14.1437C2.57773 14.0777 2.68293 14.0062 2.78423 13.9296C2.99345 13.771 3.19122 13.5981 3.37611 13.4122C3.55257 13.2305 3.71154 13.0329 3.85093 12.8219C3.91734 12.7254 3.97618 12.624 4.02694 12.5186C4.07175 12.4332 4.10453 12.3421 4.12436 12.2478C3.99524 12.2734 3.86888 12.3112 3.74696 12.3605C3.68147 12.3856 3.61434 12.4148 3.54803 12.4473C3.48172 12.4797 3.41623 12.5154 3.34992 12.5535C3.21577 12.6322 3.08672 12.7191 2.96351 12.8138C2.84244 12.9092 2.7276 13.0121 2.61968 13.1219C2.5984 13.143 2.57793 13.1649 2.55746 13.1876C2.537 13.2103 2.51817 13.2338 2.49934 13.2582C2.46168 13.306 2.42484 13.3555 2.39046 13.4066C2.35608 13.4576 2.32415 13.5087 2.29304 13.5614C2.26193 13.6141 2.23819 13.6669 2.21117 13.7188C2.16683 13.8158 2.12936 13.9158 2.09902 14.018C2.09902 14.0236 2.09902 14.0285 2.09902 14.0334L2.08756 13.6101C2.08756 13.529 2.08756 13.4479 2.08756 13.362V13.2379C2.08756 13.1965 2.08756 13.1568 2.08756 13.1138L2.09902 12.8657L2.10475 12.7416L2.11457 12.6184C2.11457 12.5721 2.12358 12.5267 2.12767 12.4813C2.14745 12.4871 2.16848 12.4871 2.18825 12.4813C2.29503 12.4532 2.39934 12.4166 2.50016 12.3719C2.61415 12.3233 2.72563 12.2692 2.83417 12.2097C2.94632 12.1481 3.05602 12.0799 3.16163 12.0094C3.26723 11.9388 3.37775 11.8642 3.47517 11.7888C3.57259 11.7134 3.6651 11.6364 3.75597 11.5504C3.80181 11.5074 3.84684 11.4628 3.88941 11.4174C3.93198 11.372 3.977 11.3274 4.01794 11.282C4.17675 11.0988 4.3102 10.9171 4.35931 10.7614C4.08668 10.7827 3.81933 10.8476 3.56768 10.9536C3.28778 11.0692 3.02461 11.2211 2.78505 11.4053C2.59841 11.5531 2.43699 11.7297 2.30696 11.9283C2.25031 12.016 2.2005 12.1079 2.15796 12.2032C2.15796 12.2129 2.15141 12.221 2.14732 12.2308C2.19883 11.7258 2.28084 11.2243 2.39292 10.729C2.41242 10.7395 2.43465 10.744 2.45677 10.742C2.68425 10.7104 2.90678 10.6505 3.11906 10.5636C3.178 10.5409 3.23449 10.5173 3.29343 10.4922C3.35237 10.4671 3.4105 10.4411 3.46862 10.4111C3.58405 10.3568 3.69457 10.2984 3.79608 10.2384C3.90129 10.1797 4.00297 10.115 4.10062 10.0446C4.14974 10.0081 4.19968 9.97162 4.2488 9.9335C4.29792 9.89539 4.3454 9.85728 4.39042 9.81836C4.47685 9.74507 4.55885 9.66682 4.63602 9.58401C4.66863 9.54748 4.69897 9.50902 4.72689 9.46886C4.75274 9.43381 4.776 9.39696 4.79647 9.35858C4.67048 9.34869 4.54383 9.35086 4.41826 9.36507C4.27858 9.38105 4.14017 9.40652 4.00402 9.44129C3.93362 9.45994 3.86076 9.48021 3.79117 9.50373C3.72159 9.52725 3.65118 9.55401 3.5816 9.58482C3.44462 9.64025 3.31168 9.70501 3.18373 9.77862C3.08262 9.83816 2.98653 9.90569 2.89639 9.98054C2.80883 10.0558 2.72676 10.1371 2.65079 10.2238C2.5829 10.2993 2.52207 10.3807 2.46905 10.4671C2.45923 10.4833 2.45268 10.4979 2.44367 10.5133C2.56492 10.0274 2.71388 9.54879 2.88984 9.07963C2.90735 9.09476 2.92964 9.10336 2.95287 9.10396C3.17675 9.10335 3.39962 9.07419 3.61598 9.01719C3.7355 8.98881 3.85666 8.95557 3.97455 8.91746C4.09243 8.87934 4.20704 8.83636 4.3192 8.7942C4.42821 8.75008 4.53454 8.69972 4.63765 8.64337C4.74473 8.5884 4.84859 8.52748 4.94874 8.46092C5.12208 8.3572 5.27493 8.22311 5.39982 8.06521C5.27881 8.04053 5.15577 8.02696 5.03225 8.02466C4.89544 8.0218 4.75862 8.02912 4.62292 8.04656C4.33502 8.08289 4.05318 8.1565 3.78462 8.2655C3.57554 8.35465 3.3821 8.47618 3.21157 8.62553C3.11748 8.70616 3.03314 8.79732 2.96024 8.89718C2.97825 8.85258 2.99381 8.80636 3.01182 8.76176C3.18232 8.35084 3.37358 7.94867 3.58487 7.55678C3.59198 7.56657 3.60101 7.57485 3.61142 7.58112C3.62183 7.58738 3.6334 7.59152 3.64545 7.59327C3.86286 7.62103 4.08296 7.62103 4.30037 7.59327C4.41908 7.5811 4.54024 7.56408 4.65894 7.54137C4.7187 7.53083 4.77683 7.51785 4.83577 7.50569C4.89471 7.49353 4.95284 7.47893 5.00932 7.46433C5.23501 7.40426 5.45433 7.3228 5.66424 7.22107C5.76272 7.17429 5.85742 7.12007 5.9475 7.05889C5.98843 7.03051 6.02936 7.00294 6.06211 6.9778C6.09445 6.95164 6.12457 6.92289 6.15216 6.89184C5.90954 6.81398 5.65564 6.77618 5.40064 6.77994C5.33187 6.77994 5.26065 6.77994 5.18943 6.78643C5.1182 6.79292 5.04616 6.79778 4.97658 6.80751C4.83674 6.82649 4.69816 6.85356 4.56152 6.8886C4.45406 6.91848 4.34943 6.95755 4.2488 7.00537C4.19749 7.02861 4.14756 7.05375 4.09898 7.08078C4.0515 7.10835 4.00566 7.13673 3.96227 7.16593C3.88077 7.22028 3.80359 7.28073 3.73141 7.34675C3.70767 7.36946 3.68884 7.39135 3.66919 7.41325C3.74778 7.26999 3.82965 7.12808 3.91479 6.98753C4.08288 6.71291 4.26108 6.44396 4.44937 6.18069C4.45409 6.19282 4.46169 6.20364 4.47152 6.21225C4.48135 6.22086 4.49312 6.227 4.50585 6.23016C4.60257 6.25729 4.70144 6.27628 4.80139 6.28692C4.90781 6.29989 5.01997 6.30557 5.13703 6.30881C5.37186 6.3125 5.60663 6.29895 5.83943 6.26827C5.94963 6.25253 6.05893 6.23115 6.16689 6.20421C6.27788 6.17784 6.38722 6.14508 6.49436 6.10609C6.68052 6.05103 6.85462 5.96192 7.00765 5.84336C6.90262 5.79265 6.79298 5.75192 6.68019 5.72173C6.55399 5.68739 6.42538 5.66245 6.29542 5.64712C6.22829 5.63901 6.15953 5.63334 6.08994 5.62928C6.02036 5.62523 5.94995 5.6228 5.88119 5.62442C5.74426 5.62629 5.60757 5.63631 5.47186 5.65442C5.36407 5.6709 5.25784 5.69612 5.15422 5.72984C5.10265 5.74686 5.05107 5.76551 5.00032 5.78498C4.94956 5.80444 4.90372 5.82876 4.85787 5.85147C4.77237 5.89416 4.69027 5.94323 4.61228 5.99824C4.58362 6.01932 4.55906 6.04041 4.53532 6.06149C4.70806 5.82552 4.88816 5.59279 5.07645 5.36818C5.19434 5.22924 5.31495 5.09409 5.4383 4.96273C5.44088 4.97607 5.4468 4.98856 5.45553 4.99905C5.46425 5.00953 5.4755 5.01768 5.48823 5.02274C5.68142 5.0981 5.88369 5.14826 6.08994 5.17194C6.20292 5.18816 6.31916 5.19951 6.43377 5.206C6.49108 5.206 6.54839 5.21167 6.60487 5.21249C6.66136 5.2133 6.71948 5.21249 6.77515 5.21249C6.99743 5.20581 7.2186 5.17866 7.4358 5.1314L7.51767 5.11193C7.54387 5.10626 7.56924 5.09977 7.59462 5.09247C7.64456 5.07869 7.69286 5.06328 7.73789 5.04706C7.78026 5.03103 7.82179 5.0129 7.86232 4.99273C7.89847 4.9757 7.93323 4.95591 7.96629 4.93354C7.8698 4.87274 7.76786 4.82089 7.66175 4.77866C7.54307 4.7322 7.42136 4.69373 7.29745 4.66351C7.23278 4.6481 7.16647 4.63432 7.09934 4.62216C7.03221 4.60999 6.96672 4.60188 6.89877 4.59459C6.7653 4.58022 6.63104 4.57426 6.49681 4.57675C6.39066 4.58054 6.28499 4.59274 6.18081 4.61323C6.12842 4.62378 6.07521 4.63513 6.02527 4.64891C5.97533 4.6627 5.92621 4.67973 5.87955 4.69676C5.79165 4.72754 5.70649 4.76551 5.62495 4.81028C5.59071 4.82913 5.55763 4.84998 5.52589 4.87272C5.82961 4.54836 6.14725 4.23941 6.48126 3.94668L6.53611 3.90208C6.53525 3.9164 6.53868 3.93066 6.54596 3.94306C6.55324 3.95546 6.56405 3.96547 6.57704 3.97182C6.75545 4.06675 6.94562 4.13818 7.14273 4.18427C7.24833 4.21022 7.36049 4.23617 7.47019 4.25563C7.57989 4.27509 7.69122 4.28969 7.79765 4.30023C8.01558 4.31993 8.23495 4.3183 8.45257 4.29537C8.50714 4.28942 8.55872 4.28212 8.60729 4.27347C8.65641 4.26374 8.70553 4.25644 8.75137 4.24509C8.83302 4.22717 8.91179 4.19825 8.98551 4.15913C8.79863 4.01608 8.59 3.90331 8.36743 3.82505C8.24398 3.78104 8.11795 3.74448 7.99003 3.71558C7.92536 3.70098 7.86068 3.68882 7.79519 3.67746C7.7297 3.66611 7.66666 3.66043 7.60363 3.65476C7.50009 3.64664 7.39607 3.64664 7.29254 3.65476C7.19144 3.66412 7.09107 3.68011 6.99209 3.7026C6.94461 3.71396 6.89795 3.72612 6.85456 3.73909C6.81117 3.75207 6.7727 3.76909 6.7334 3.7845C6.68545 3.80462 6.63918 3.82848 6.59505 3.85586C6.90232 3.59638 7.22077 3.35067 7.55041 3.11876C7.55625 3.12421 7.56372 3.12763 7.5717 3.12849C7.64203 3.13086 7.71239 3.12487 7.78127 3.11065C7.82139 3.10335 7.86314 3.09362 7.90898 3.08308C7.95483 3.07254 7.99985 3.06038 8.04734 3.04578C8.14753 3.01625 8.24593 2.98105 8.34205 2.94036C8.44196 2.90128 8.53906 2.8555 8.63267 2.80332C8.69079 2.7717 8.74974 2.73602 8.80868 2.70115C8.86762 2.66628 8.92657 2.6306 8.98551 2.5933C9.10258 2.5187 9.21964 2.4368 9.32934 2.35571C9.53333 2.21353 9.71747 2.0453 9.87702 1.85539C9.77168 1.83694 9.6646 1.83014 9.55775 1.83512C9.49695 1.83689 9.43629 1.84176 9.376 1.84971C9.31379 1.85863 9.25075 1.86917 9.18772 1.88215C8.94198 1.93088 8.70478 2.01503 8.48368 2.1319C8.37852 2.19058 8.27709 2.25557 8.17996 2.32652C8.08568 2.39558 7.99625 2.4709 7.91226 2.55195C7.76275 2.69229 7.63845 2.85682 7.54468 3.03848C7.53824 3.05032 7.53486 3.06355 7.53486 3.077C7.53486 3.09044 7.53824 3.10368 7.54468 3.11552C7.20795 3.34202 6.88458 3.58719 6.57458 3.851C6.61303 3.80942 6.64781 3.76466 6.67855 3.7172C6.70066 3.68314 6.72276 3.64503 6.74568 3.6053C6.7686 3.56556 6.79152 3.52421 6.81363 3.48042C6.86042 3.38791 6.90196 3.29289 6.93806 3.1958C6.97794 3.09703 7.01104 2.99571 7.03712 2.89252C7.05349 2.82846 7.06823 2.76197 7.08297 2.69547C7.0977 2.62898 7.11162 2.56168 7.12472 2.49356C7.15009 2.35814 7.17056 2.21867 7.18611 2.08325C7.2216 1.83872 7.22463 1.59064 7.19512 1.34534C7.10892 1.40834 7.03036 1.48099 6.96099 1.56184C6.92026 1.60681 6.88201 1.65391 6.84638 1.70294C6.81035 1.75322 6.77515 1.80592 6.74077 1.86025C6.60858 2.07129 6.50793 2.30017 6.44196 2.53978C6.41234 2.65554 6.39046 2.7731 6.37647 2.89171C6.36201 3.00709 6.35599 3.12335 6.35846 3.23958C6.35838 3.44328 6.39383 3.64546 6.46325 3.83721C6.46739 3.85162 6.47621 3.86428 6.48834 3.87322C6.50048 3.88216 6.51525 3.88689 6.53038 3.88668L6.47307 3.93371C6.12991 4.23075 5.80204 4.5447 5.49069 4.87434C5.51716 4.83415 5.54121 4.79245 5.56273 4.74946C5.60462 4.666 5.64153 4.58017 5.67325 4.49241C5.69044 4.44457 5.70681 4.39511 5.72155 4.34321C5.73628 4.29131 5.75266 4.24103 5.76657 4.18752C5.795 4.08094 5.81606 3.97257 5.82961 3.86316C5.84762 3.72855 5.86318 3.58908 5.87218 3.44636C5.87709 3.375 5.88037 3.30283 5.88282 3.23147C5.88528 3.16011 5.88773 3.09038 5.88773 3.02064C5.88897 2.88527 5.88295 2.74993 5.86972 2.6152C5.85984 2.49723 5.83985 2.38031 5.80996 2.2657C5.77078 2.29952 5.73412 2.33611 5.70026 2.37517C5.66506 2.41734 5.62986 2.46356 5.59548 2.51302C5.56109 2.56249 5.52753 2.61519 5.4956 2.67034C5.48005 2.69791 5.46367 2.72629 5.44894 2.75143C5.4342 2.77656 5.41947 2.81062 5.40555 2.84062C5.34976 2.96022 5.30164 3.08318 5.26147 3.20877C5.22525 3.32716 5.19789 3.44805 5.1796 3.57043C5.1706 3.63043 5.16405 3.69044 5.15995 3.75207C5.15586 3.81369 5.15422 3.87532 5.15422 3.93614C5.15425 4.0557 5.16191 4.17514 5.17715 4.29374C5.20156 4.50208 5.26251 4.70461 5.35725 4.89218C5.36344 4.90451 5.37271 4.91508 5.38417 4.92288C5.39562 4.93069 5.4089 4.93547 5.42274 4.93678C5.29831 5.06977 5.1766 5.20492 5.05762 5.34223C4.86388 5.5709 4.67831 5.80552 4.50094 6.04608C4.51695 6.01086 4.53115 5.97487 4.54351 5.93823C4.57677 5.84818 4.60412 5.75608 4.62538 5.66253C4.63684 5.61225 4.64666 5.55874 4.65648 5.50522C4.66631 5.4517 4.67531 5.39656 4.68268 5.34304C4.69778 5.23119 4.70598 5.11854 4.70724 5.00571C4.70724 4.86785 4.70724 4.72271 4.69905 4.57593C4.69496 4.50214 4.69005 4.42916 4.68514 4.35618C4.68022 4.2832 4.67204 4.21184 4.66385 4.13967C4.64748 3.99777 4.62374 3.85667 4.59672 3.72936C4.57263 3.61012 4.53811 3.49319 4.49357 3.37987C4.33854 3.56867 4.22179 3.78537 4.14974 4.01804C4.10803 4.14723 4.0744 4.27885 4.04905 4.41213C4.02558 4.53708 4.01271 4.66375 4.01057 4.79082C4.00633 5.03978 4.03551 5.2882 4.09735 5.52955C4.12593 5.64046 4.16343 5.74892 4.2095 5.8539C4.2491 5.94649 4.29821 6.0348 4.35604 6.11744C4.3633 6.12837 4.37312 6.1374 4.38467 6.14375C4.39622 6.15011 4.40915 6.1536 4.42235 6.15393C4.23242 6.41612 4.05205 6.6848 3.88122 6.95996C3.79554 7.10105 3.71367 7.24323 3.63563 7.38649C3.64299 7.3573 3.65118 7.32892 3.65855 7.29567C3.68031 7.20002 3.69563 7.10304 3.70439 7.00537C3.70931 6.95266 3.7134 6.89752 3.71585 6.84319C3.71831 6.78886 3.72159 6.73048 3.72159 6.6729C3.72298 6.55749 3.71696 6.44212 3.70358 6.32746C3.68884 6.18556 3.66755 6.03798 3.64136 5.88958C3.62744 5.81498 3.61352 5.74119 3.59879 5.66821C3.58405 5.59523 3.56768 5.52225 3.54967 5.45008C3.49198 5.18867 3.40179 4.93536 3.28115 4.69595C3.25102 4.74102 3.22368 4.78787 3.19929 4.83623C3.17076 4.8905 3.14588 4.94658 3.12479 5.00409C3.07798 5.13015 3.0405 5.25942 3.01263 5.39088C2.98637 5.52777 2.96887 5.66617 2.96024 5.80525C2.9524 5.93583 2.95542 6.06682 2.96925 6.19691C2.97579 6.26016 2.9848 6.32422 2.99544 6.38747C3.00608 6.45072 3.02082 6.51559 3.03719 6.57803C3.06765 6.70042 3.10621 6.82069 3.15262 6.93807C3.23145 7.14534 3.34614 7.33742 3.49154 7.50569C3.50019 7.5152 3.51082 7.52273 3.52269 7.52777C3.53456 7.53281 3.5474 7.53524 3.56031 7.53488C3.34539 7.92766 3.15058 8.33092 2.97661 8.74311C2.95778 8.79014 2.93977 8.83799 2.92095 8.88502C2.93651 8.75914 2.94225 8.63227 2.93814 8.50552C2.93161 8.27218 2.90089 8.04013 2.84645 7.81302C2.77439 7.51665 2.6839 7.22498 2.57547 6.93969C2.52144 6.79859 2.46086 6.66155 2.40028 6.53424C2.34436 6.41856 2.27892 6.30764 2.20463 6.20259C2.09433 6.43636 2.0312 6.68923 2.01879 6.94698C2.00979 7.08983 2.00979 7.2331 2.01879 7.37595C2.02903 7.5097 2.04928 7.64251 2.07937 7.77328C2.1099 7.90257 2.15013 8.02942 2.19971 8.15278C2.24619 8.27336 2.3009 8.39067 2.36344 8.5039C2.47122 8.70329 2.61335 8.88249 2.78341 9.03341C2.80232 9.04926 2.82662 9.05738 2.85136 9.05612C2.67011 9.52974 2.5165 10.0133 2.39128 10.5044C2.39128 10.4833 2.39128 10.4646 2.39128 10.4419C2.38637 10.3495 2.37327 10.2449 2.35608 10.1346C2.33727 10.0185 2.31213 9.90342 2.28076 9.78997C2.25081 9.67232 2.21335 9.55668 2.16861 9.44372C2.1113 9.30344 2.05318 9.15991 1.98605 9.01638C1.95248 8.94422 1.91728 8.87204 1.88126 8.8015C1.84524 8.73095 1.81085 8.66121 1.7732 8.59229C1.70225 8.45986 1.62465 8.33104 1.5407 8.2063C1.46778 8.09613 1.38563 7.99224 1.29511 7.89573C1.27479 7.94992 1.25837 8.00547 1.24599 8.06196C1.23371 8.12197 1.22388 8.18603 1.21651 8.25252C1.20109 8.3939 1.19808 8.53634 1.20751 8.67824C1.21242 8.75203 1.21979 8.82582 1.22879 8.8988C1.2378 8.97178 1.25008 9.04396 1.26563 9.11531C1.29431 9.24975 1.33261 9.38198 1.38024 9.51103C1.43063 9.63785 1.48915 9.76136 1.55544 9.88079C1.58818 9.93999 1.62338 9.99837 1.65859 10.0535C1.69379 10.1087 1.7339 10.1638 1.7732 10.2157C1.90989 10.4035 2.07893 10.566 2.27257 10.6957C2.29203 10.708 2.31511 10.7135 2.33807 10.7112C2.21785 11.2148 2.129 11.7253 2.072 12.2397C2.072 12.2235 2.072 12.2089 2.06464 12.1918C2.04424 12.088 2.01689 11.9856 1.98277 11.8853C1.9103 11.6515 1.8143 11.4255 1.69624 11.2107C1.5382 10.9304 1.36352 10.6596 1.17313 10.3998C1.00994 10.1623 0.816814 9.94651 0.598433 9.75754C0.552193 10.0267 0.559702 10.3022 0.620537 10.5684C0.635272 10.6422 0.651646 10.7168 0.671293 10.7898C0.690941 10.8628 0.716319 10.935 0.740878 11.0047C0.786524 11.1385 0.843771 11.2682 0.911977 11.3923C0.980698 11.5139 1.05698 11.6312 1.14038 11.7434C1.22277 11.8525 1.31277 11.9557 1.40972 12.0524C1.49867 12.142 1.59446 12.2247 1.69624 12.2997C1.78649 12.3658 1.88332 12.4226 1.98523 12.4692C2.00547 12.4783 2.02811 12.4808 2.0499 12.4765C2.0499 12.5227 2.04008 12.5681 2.03598 12.6143L2.02534 12.7392L2.01879 12.8641L2.00569 13.113C2.00569 13.1544 2.00569 13.1941 2.00078 13.2379V13.3628C2.00078 13.4439 2.00078 13.529 2.00078 13.6125L2.00979 14.0455C2.00979 14.0382 2.00979 14.0318 2.00324 14.0236C1.96838 13.9212 1.92653 13.8212 1.87798 13.7244C1.85261 13.6709 1.82232 13.6174 1.79612 13.5623C1.76992 13.5071 1.73636 13.4528 1.70361 13.4001C1.67087 13.3474 1.63648 13.2914 1.60046 13.2379C1.58245 13.2111 1.56362 13.1852 1.54479 13.1568C1.52596 13.1284 1.50795 13.1057 1.48912 13.0806C1.39498 12.9549 1.29019 12.8268 1.17968 12.7003C1.06916 12.5738 0.959458 12.4505 0.844847 12.3329C0.787542 12.2746 0.72778 12.2178 0.671293 12.1635C0.614806 12.1091 0.557501 12.0572 0.500196 12.0086C0.395388 11.9183 0.283111 11.8369 0.164548 11.7653C0.157501 11.8938 0.164915 12.0228 0.186652 12.1497C0.214113 12.2966 0.252419 12.4413 0.301263 12.5827C0.399508 12.866 0.540255 13.1331 0.718775 13.3749C0.890206 13.6009 1.09242 13.8023 1.31966 13.9734C1.42299 14.0519 1.53249 14.1221 1.64712 14.1834C1.74495 14.236 1.84778 14.2789 1.95412 14.3115C1.9734 14.3168 1.99378 14.3168 2.01306 14.3115V14.361L2.03025 14.6099C2.0368 14.691 2.0409 14.7762 2.04826 14.8589L2.07773 15.1078C2.0982 15.27 2.11212 15.4387 2.14323 15.6033L2.18416 15.8465L2.19316 15.8968V15.8919C2.16861 15.8482 2.14405 15.8011 2.11621 15.7533C2.08838 15.7054 2.05727 15.6568 2.0237 15.6065C1.95739 15.5068 1.87798 15.4038 1.7953 15.3024C1.71441 15.2001 1.62719 15.1029 1.53415 15.0113C1.29216 14.7758 1.03717 14.5539 0.77035 14.3464C0.704039 14.2953 0.634454 14.2458 0.569781 14.1996C0.505107 14.1534 0.439615 14.108 0.374941 14.0666C0.255753 13.9895 0.130348 13.9222 0 13.8655C0.0107719 13.9969 0.0363081 14.1266 0.0761345 14.2523C0.126836 14.3971 0.18756 14.5383 0.257874 14.6748C0.293895 14.7453 0.332372 14.8151 0.373304 14.8832C0.414237 14.9513 0.461719 15.017 0.508382 15.0802C0.595023 15.2003 0.69052 15.3139 0.794091 15.42C1.00225 15.6225 1.23617 15.7972 1.48994 15.9398C1.7082 16.0635 1.94682 16.1481 2.1948 16.1895C2.21341 16.1921 2.23239 16.1896 2.24965 16.1822L2.33152 16.5812C2.42566 16.9785 2.54109 17.3694 2.67371 17.7554C2.60781 17.6673 2.53674 17.5831 2.46086 17.5032C2.379 17.4124 2.28731 17.3183 2.18743 17.2291C2.1375 17.1845 2.08674 17.1399 2.03353 17.0977L1.95166 17.0353C1.92628 17.015 1.90009 16.9948 1.8698 16.9753C1.59288 16.7732 1.30511 16.5862 1.00776 16.415C0.857946 16.3339 0.708132 16.2528 0.562413 16.1904C0.489553 16.1579 0.419149 16.1295 0.351201 16.1036C0.283253 16.0776 0.216942 16.0574 0.153087 16.0403C0.165358 16.1033 0.182882 16.1651 0.205481 16.2252C0.231665 16.2915 0.261173 16.3565 0.293895 16.4198C0.326641 16.4871 0.364299 16.5544 0.404413 16.6226C0.444527 16.6907 0.486278 16.758 0.537035 16.8237C0.721983 17.0802 0.944987 17.3077 1.1985 17.4983C1.31971 17.5874 1.44659 17.6687 1.57836 17.7416C1.70911 17.8102 1.8442 17.8703 1.98277 17.9216C2.22117 18.0148 2.47473 18.0643 2.73102 18.0676C2.74885 18.0667 2.76623 18.0617 2.78177 18.053C2.97571 18.5744 3.2035 19.0828 3.46371 19.575C3.43015 19.5434 3.39576 19.511 3.35647 19.4777C3.31717 19.4445 3.26805 19.3966 3.21812 19.3601C3.11497 19.2768 3.00729 19.1991 2.89557 19.1274C2.83581 19.0901 2.78096 19.052 2.72119 19.0171C2.66143 18.9823 2.60331 18.949 2.54273 18.9182C2.2269 18.7572 1.90251 18.6132 1.57099 18.4868C1.40726 18.426 1.24353 18.37 1.0888 18.3246C0.945324 18.2828 0.798541 18.2529 0.650008 18.2354C0.702903 18.3643 0.769595 18.4872 0.84894 18.6019C0.944221 18.7328 1.0493 18.8564 1.1633 18.9717C1.22143 19.0309 1.28037 19.0901 1.34504 19.1452C1.40972 19.2004 1.47521 19.2523 1.54152 19.3009C1.66548 19.3953 1.79689 19.4796 1.93447 19.5531C2.07263 19.6228 2.21508 19.6837 2.36099 19.7356C2.5023 19.7865 2.64735 19.8267 2.79487 19.8556C3.05085 19.9109 3.31468 19.9211 3.57423 19.8856C3.59087 19.8824 3.60655 19.8754 3.62007 19.8653C3.89754 20.3596 4.20709 20.8355 4.54678 21.2901C4.53532 21.282 4.52468 21.2738 4.5124 21.2665C4.50012 21.2592 4.46574 21.2341 4.44036 21.2179C4.39042 21.1855 4.33721 21.153 4.28154 21.1214C4.22587 21.0898 4.16611 21.0581 4.10471 21.0273L3.91724 20.9381C3.79048 20.8784 3.66006 20.8267 3.52675 20.7833C3.3581 20.7314 3.18783 20.677 3.011 20.6292C2.92258 20.6057 2.83335 20.583 2.7433 20.5619C2.65325 20.5408 2.56319 20.5213 2.47642 20.5019C2.15857 20.4262 1.83236 20.3905 1.5055 20.3956C1.58051 20.5171 1.66892 20.63 1.7691 20.7322C1.82395 20.7889 1.88126 20.8457 1.9443 20.9C2.00733 20.9543 2.07528 21.0071 2.14486 21.0622C2.21445 21.1173 2.28485 21.1611 2.3569 21.2082L2.46578 21.2755C2.50343 21.2965 2.54109 21.316 2.57875 21.3355C2.7202 21.4102 2.86716 21.4741 3.01836 21.5268L3.1297 21.5625C3.16818 21.5739 3.20665 21.5836 3.24513 21.5933C3.327 21.6128 3.40067 21.629 3.47763 21.6436C3.62822 21.6715 3.78058 21.6892 3.93362 21.6963C4.20167 21.7111 4.47025 21.6787 4.72689 21.6006C4.74065 21.5956 4.7534 21.5882 4.76455 21.5787C5.12306 22.0312 5.51199 22.4593 5.92867 22.8599C5.8468 22.8194 5.75184 22.7789 5.64869 22.7407C5.38338 22.6426 5.10927 22.5695 4.83004 22.5226L4.56152 22.4829C4.47065 22.4707 4.37814 22.4594 4.28482 22.4496C4.19149 22.4399 4.09816 22.4318 4.00402 22.4253C3.90987 22.4188 3.81819 22.4107 3.7265 22.4067C3.54312 22.3969 3.36383 22.3953 3.19437 22.4067C3.11251 22.4067 3.03064 22.4164 2.94878 22.4253C2.86691 22.4342 2.79815 22.4448 2.72938 22.4586C2.74903 22.4845 2.77113 22.5096 2.79405 22.5396C2.81698 22.5696 2.84399 22.5891 2.87101 22.6142C2.92586 22.6637 2.98562 22.7132 3.04947 22.761C3.11333 22.8089 3.18209 22.8567 3.25414 22.9021L3.30817 22.9362L3.36465 22.9686C3.40313 22.9897 3.44161 23.01 3.4809 23.0294C3.637 23.1093 3.79836 23.1787 3.96391 23.237C4.11956 23.2885 4.2788 23.3286 4.44036 23.357C4.52222 23.37 4.59754 23.383 4.67941 23.3887C4.76127 23.3943 4.84314 23.4 4.925 23.4016C5.08166 23.4049 5.23837 23.3979 5.39409 23.3805C5.66646 23.3518 5.93148 23.2752 6.17672 23.1543C6.18893 23.1481 6.2 23.1398 6.20946 23.13C6.29133 23.1997 6.36419 23.2711 6.4436 23.3392C6.80919 23.6544 7.19179 23.9497 7.58971 24.2239L7.49802 24.1987C7.43744 24.1833 7.3744 24.1695 7.30809 24.1566C7.02473 24.1032 6.73696 24.076 6.44851 24.0755H6.17099C6.07766 24.0755 5.9827 24.082 5.88692 24.0876C5.79113 24.0933 5.69535 24.1006 5.59875 24.1095C5.50215 24.1185 5.41046 24.1249 5.31632 24.1355C4.97718 24.1661 4.64297 24.2369 4.32084 24.3463C4.43383 24.445 4.55932 24.5287 4.69414 24.5953C4.84735 24.6768 5.00797 24.7439 5.17387 24.7955C5.34474 24.8507 5.51926 24.894 5.69617 24.9253C5.86163 24.9516 6.0288 24.9659 6.19637 24.9683C6.36079 24.9692 6.52503 24.9573 6.68756 24.9326C6.84598 24.9101 7.0027 24.877 7.15664 24.8337C7.42625 24.7596 7.68025 24.6382 7.90653 24.4752C7.91546 24.4679 7.92343 24.4594 7.93027 24.4501C7.97447 24.4785 8.01786 24.5093 8.06289 24.5369C8.52735 24.8251 9.00936 25.0845 9.50617 25.3137C9.41776 25.3056 9.32279 25.3007 9.22292 25.2967C9.15415 25.2967 9.08293 25.2967 9.01007 25.2967C8.93721 25.2967 8.86189 25.304 8.78821 25.3072C8.63915 25.3151 8.4907 25.3319 8.34369 25.3575C8.15867 25.3932 7.97202 25.4256 7.78127 25.4694C7.59053 25.5132 7.39733 25.5643 7.21477 25.6146C7.03221 25.6648 6.85292 25.7232 6.68837 25.7865C6.60651 25.8189 6.52465 25.8521 6.45342 25.8862C6.38297 25.9168 6.31411 25.9509 6.24712 25.9884C6.27578 26.007 6.30607 26.0249 6.33799 26.0427C6.36992 26.0605 6.4043 26.0751 6.43951 26.0905C6.5136 26.1229 6.58928 26.1516 6.66627 26.1765C6.74814 26.2033 6.83 26.2276 6.91678 26.2487C7.00355 26.2698 7.09443 26.2843 7.18611 26.2981C7.2778 26.3119 7.36949 26.3217 7.46118 26.3289C7.55205 26.3376 7.64333 26.3414 7.73461 26.3403C7.90566 26.3391 8.07639 26.3256 8.24545 26.2998C8.2872 26.2933 8.32731 26.2868 8.36906 26.2779C8.41082 26.2689 8.45093 26.2592 8.4935 26.2487C8.57536 26.2284 8.65723 26.2049 8.73909 26.1797C8.895 26.1294 9.0471 26.0681 9.19426 25.9965C9.45172 25.8763 9.68543 25.7115 9.88439 25.5099C9.89131 25.5024 9.8971 25.494 9.90158 25.4848L10.0874 25.5659L10.2037 25.6146C10.243 25.63 10.2855 25.6437 10.3224 25.6583C10.4812 25.7159 10.6392 25.7759 10.798 25.8319L11.2802 25.9835C11.3621 26.0111 11.4439 26.0297 11.5258 26.0516L11.6338 26.08C11.6101 26.08 11.5896 26.08 11.5651 26.0865C11.5004 26.0946 11.4341 26.1003 11.3645 26.1108C11.2181 26.1327 11.073 26.1622 10.9298 26.1992C10.7817 26.233 10.6357 26.2755 10.4926 26.3265C10.4034 26.359 10.3125 26.3938 10.2209 26.4295C10.1292 26.4652 10.0383 26.5 9.9466 26.5382C9.76405 26.6128 9.57903 26.7003 9.4022 26.7814C9.07845 26.9258 8.77404 27.1093 8.49596 27.328C8.64216 27.3819 8.79401 27.4195 8.94867 27.4399L9.07883 27.4577C9.12304 27.4626 9.16725 27.4666 9.21391 27.4683C9.3056 27.4683 9.39893 27.4739 9.49389 27.4683C9.58885 27.4626 9.68218 27.461 9.77551 27.4528L9.84918 27.448L9.91959 27.4383C9.96543 27.4318 10.0121 27.4245 10.0571 27.4164C10.229 27.3861 10.3984 27.3433 10.5639 27.2882C10.726 27.2289 10.884 27.1593 11.037 27.0798C11.1124 27.0409 11.1852 26.9987 11.2564 26.9566C11.3277 26.9144 11.3964 26.8658 11.4611 26.8179C11.6983 26.6522 11.9033 26.4454 12.0661 26.2073C12.0707 26.1988 12.0746 26.1898 12.0776 26.1806C12.6333 26.3075 13.1966 26.3998 13.764 26.4571L13.7828 26.2503C13.2222 26.1976 12.6655 26.1102 12.116 25.9884C12.1166 25.983 12.1169 25.9776 12.1168 25.9722Z" fill="url(#paint5_linear_9689_3866)"/>
<path d="M26.747 16.1822C26.764 16.1895 26.7827 16.1921 26.801 16.1895C27.0492 16.148 27.2881 16.0634 27.5067 15.9398C27.7605 15.7972 27.9944 15.6225 28.2025 15.42C28.3059 15.3137 28.4014 15.2001 28.4883 15.0802C28.5346 15.017 28.5797 14.9513 28.6233 14.8832C28.6643 14.8151 28.7052 14.7453 28.7388 14.6748C28.8091 14.5383 28.8698 14.3971 28.9205 14.2523C28.9603 14.1266 28.9859 13.9968 28.9966 13.8655C28.8662 13.922 28.7408 13.9893 28.6217 14.0666C28.557 14.108 28.4915 14.1526 28.426 14.1996C28.3605 14.2466 28.2926 14.2953 28.2255 14.3464C27.9589 14.5538 27.7042 14.7758 27.4625 15.0113C27.3692 15.1027 27.282 15.1999 27.2013 15.3024C27.1195 15.4038 27.0376 15.5067 26.9729 15.6065C26.9394 15.6568 26.9083 15.7054 26.8804 15.7533C26.8526 15.8011 26.828 15.8481 26.8035 15.8919V15.8968L26.8117 15.8465L26.8526 15.6032C26.8837 15.4411 26.8976 15.2724 26.9189 15.1078L26.9476 14.8588C26.9557 14.7778 26.9598 14.6967 26.9664 14.6099L26.9836 14.361V14.3115C27.0029 14.3168 27.0232 14.3168 27.0425 14.3115C27.1526 14.2786 27.259 14.2349 27.3602 14.1809C27.4747 14.1195 27.5842 14.0493 27.6876 13.9709C27.9147 13.7997 28.1169 13.5983 28.2885 13.3725C28.467 13.1306 28.6078 12.8636 28.706 12.5802C28.7545 12.4388 28.7928 12.2941 28.8206 12.1472C28.8424 12.0203 28.8498 11.8914 28.8427 11.7629C28.7239 11.8345 28.6114 11.9158 28.5063 12.0061C28.4498 12.0548 28.3925 12.1067 28.336 12.161C28.2795 12.2153 28.2197 12.2721 28.1624 12.3305C28.047 12.4481 27.9349 12.5737 27.8276 12.6978C27.7204 12.8219 27.6123 12.9524 27.5173 13.0781L27.4617 13.1543C27.4428 13.1803 27.4248 13.2062 27.4068 13.2354C27.37 13.289 27.3356 13.3433 27.3029 13.3976C27.2701 13.4519 27.2398 13.5071 27.2112 13.5598C27.1825 13.6125 27.1522 13.6685 27.1293 13.722C27.0814 13.8191 27.0396 13.919 27.004 14.0212C27.004 14.0293 27.004 14.0358 26.9983 14.0431L27.0073 13.6101C27.0073 13.529 27.0073 13.4438 27.0024 13.3603V13.2354C27.0024 13.1941 27.0024 13.1543 27.0024 13.1106L26.9893 12.8616L26.9828 12.7367L26.9713 12.6119C26.9713 12.5656 26.9623 12.5202 26.9582 12.474C26.9797 12.4784 27.0021 12.4758 27.0221 12.4667C27.124 12.4201 27.2208 12.3633 27.311 12.2972C27.413 12.2224 27.5088 12.1397 27.5976 12.0499C27.6948 11.9533 27.785 11.85 27.8677 11.741C27.9474 11.6292 28.0201 11.5128 28.0855 11.3923C28.1539 11.2688 28.2114 11.1396 28.2574 11.0063C28.2828 10.9366 28.3065 10.8644 28.327 10.7914C28.3475 10.7184 28.3638 10.6438 28.3786 10.57C28.4394 10.3038 28.4469 10.0283 28.4007 9.75914C28.1805 9.94805 27.9857 10.1642 27.8211 10.4022C27.6301 10.6616 27.4554 10.9324 27.2979 11.2131C27.1795 11.4277 27.0835 11.6538 27.0114 11.8877C26.9773 11.988 26.95 12.0904 26.9295 12.1943C26.9295 12.2113 26.9255 12.2259 26.923 12.2421C26.8677 11.7284 26.781 11.2185 26.6635 10.7152C26.6864 10.7174 26.7095 10.712 26.729 10.6998C26.9226 10.5701 27.0917 10.4076 27.2284 10.2197C27.2676 10.1678 27.3102 10.1135 27.3421 10.0575C27.3741 10.0016 27.4126 9.94402 27.4453 9.88483C27.5119 9.76556 27.5704 9.64203 27.6205 9.51506C27.6685 9.38614 27.7068 9.25387 27.7351 9.11934C27.7511 9.04784 27.7634 8.97558 27.7719 8.90283C27.7818 8.82985 27.7891 8.75606 27.7932 8.68227C27.8033 8.54041 27.8006 8.39793 27.785 8.25655C27.7777 8.19006 27.7678 8.126 27.7556 8.06599C27.7432 8.0095 27.7268 7.95395 27.7064 7.89976C27.6162 7.99648 27.534 8.10036 27.4609 8.21033C27.379 8.32953 27.3029 8.46009 27.2292 8.59632C27.1915 8.66524 27.1571 8.73417 27.1211 8.80553C27.0851 8.87689 27.0499 8.94824 27.0163 9.02041C26.9492 9.16394 26.8903 9.30747 26.8329 9.44775C26.7885 9.56072 26.7513 9.67637 26.7216 9.79401C26.6904 9.90754 26.665 10.0226 26.6455 10.1386C26.6291 10.2489 26.6152 10.3535 26.6103 10.446C26.6103 10.4687 26.6103 10.4873 26.6103 10.5084C26.4852 10.0172 26.3313 9.53362 26.1494 9.06015C26.1741 9.06158 26.1985 9.05344 26.2173 9.03744C26.3874 8.88635 26.5298 8.70719 26.6381 8.50793C26.7003 8.39454 26.755 8.27725 26.8018 8.15681C26.8512 8.03344 26.8911 7.90659 26.9214 7.77732C26.9517 7.64656 26.9723 7.51375 26.9828 7.37998C26.9922 7.23714 26.9922 7.09385 26.9828 6.95102C26.971 6.69326 26.9081 6.44032 26.7977 6.20661C26.7232 6.31148 26.6577 6.42243 26.6021 6.53827C26.5407 6.66234 26.4809 6.79938 26.4269 6.94372C26.3182 7.229 26.2274 7.52067 26.1551 7.81705C26.1015 8.0443 26.0707 8.27628 26.0634 8.50955C26.0597 8.6363 26.0655 8.76314 26.0806 8.88905C26.0618 8.84202 26.0446 8.79418 26.0249 8.74714C25.8513 8.33496 25.6567 7.93171 25.4421 7.53891C25.4549 7.53911 25.4677 7.53661 25.4796 7.53158C25.4914 7.52655 25.5021 7.5191 25.5108 7.50972C25.6562 7.34145 25.7709 7.14937 25.8497 6.94209C25.8958 6.82459 25.9343 6.70434 25.9652 6.58206C25.9807 6.51962 25.9955 6.45556 26.0069 6.3915C26.0184 6.32744 26.0266 6.26419 26.0331 6.20094C26.0465 6.07083 26.0496 5.93986 26.0421 5.80928C26.0332 5.67018 26.0154 5.53179 25.9889 5.39491C25.9613 5.26348 25.9241 5.1342 25.8776 5.00811C25.8565 4.9506 25.8316 4.89453 25.8031 4.84026C25.7787 4.7919 25.7513 4.74506 25.7212 4.69998C25.6006 4.93939 25.5104 5.1927 25.4527 5.45411C25.4355 5.52627 25.4191 5.59926 25.4044 5.67224C25.3897 5.74522 25.3757 5.81901 25.3618 5.89361C25.3348 6.042 25.3135 6.18959 25.2988 6.33149C25.2862 6.44621 25.2802 6.56154 25.2808 6.67693C25.2808 6.73451 25.2808 6.79208 25.2873 6.84722C25.2939 6.90236 25.2931 6.95912 25.2988 7.0094C25.3076 7.10707 25.3229 7.20405 25.3446 7.2997C25.3512 7.33295 25.3594 7.36133 25.3676 7.39052C25.2873 7.24726 25.2041 7.10509 25.1179 6.96399C24.9476 6.68937 24.7672 6.42069 24.5767 6.15796C24.5901 6.15776 24.6032 6.15433 24.6149 6.14797C24.6266 6.14161 24.6365 6.13251 24.6439 6.12147C24.7011 6.03845 24.7502 5.9502 24.7904 5.85793C24.8366 5.75307 24.8738 5.64457 24.9018 5.53357C24.9643 5.29234 24.9937 5.04387 24.9893 4.79485C24.9864 4.66783 24.9735 4.54122 24.9509 4.41616C24.9255 4.28287 24.8919 4.15126 24.8502 4.02207C24.7781 3.78939 24.6614 3.5727 24.5063 3.3839C24.4618 3.49721 24.4273 3.61415 24.4032 3.73339C24.3762 3.8607 24.3524 4.0018 24.3361 4.1437C24.3271 4.21587 24.3205 4.28804 24.3148 4.36021C24.309 4.43238 24.305 4.50617 24.3 4.57996C24.2919 4.72673 24.2894 4.87189 24.2927 5.00974C24.2937 5.12255 24.3016 5.23521 24.3164 5.34707C24.3238 5.40221 24.3328 5.45735 24.3434 5.50925C24.3541 5.56115 24.3631 5.61629 24.3745 5.66656C24.3958 5.76011 24.4232 5.8522 24.4564 5.94226C24.4703 5.98119 24.4851 6.01768 24.4998 6.05011C24.3213 5.80684 24.1371 5.57493 23.9431 5.34626C23.8244 5.20759 23.7016 5.07218 23.5772 4.94081C23.5912 4.93963 23.6046 4.93491 23.6162 4.9271C23.6278 4.91929 23.6372 4.90865 23.6435 4.89621C23.7379 4.70849 23.7988 4.50604 23.8236 4.29777C23.8388 4.17917 23.8465 4.05973 23.8465 3.94017C23.8465 3.87935 23.8465 3.81772 23.8408 3.7561C23.835 3.69447 23.8293 3.63446 23.8211 3.57446C23.8028 3.45208 23.7755 3.3312 23.7393 3.2128C23.6994 3.08722 23.6515 2.96426 23.596 2.84465C23.5821 2.81465 23.5673 2.78465 23.5526 2.75545L23.5059 2.67436C23.4732 2.61922 23.4405 2.56652 23.4061 2.51705C23.3717 2.46759 23.3365 2.42137 23.3013 2.3792C23.2669 2.34032 23.23 2.30374 23.1908 2.26973C23.1613 2.38442 23.1413 2.50131 23.131 2.61922C23.1187 2.74735 23.113 2.88439 23.113 3.02467C23.113 3.09441 23.113 3.16496 23.1179 3.2355C23.1228 3.30605 23.1245 3.37903 23.1286 3.45039C23.1384 3.59311 23.1531 3.73258 23.1711 3.86719C23.1853 3.97656 23.2067 4.0849 23.235 4.19155C23.2481 4.24507 23.2644 4.29615 23.2792 4.34724C23.2939 4.39832 23.3111 4.4486 23.3283 4.49644C23.36 4.5842 23.3969 4.67003 23.4388 4.7535C23.46 4.79665 23.4841 4.83837 23.5109 4.87837C23.199 4.54915 22.8723 4.23452 22.5285 3.93774L22.4712 3.8907C22.4863 3.89078 22.501 3.886 22.5131 3.87708C22.5252 3.86816 22.534 3.85558 22.5383 3.84124C22.6073 3.64939 22.6428 3.44728 22.6431 3.24361C22.6453 3.12736 22.639 3.0111 22.6243 2.89574C22.6105 2.77715 22.5889 2.65958 22.5596 2.54381C22.4937 2.30405 22.3927 2.07512 22.26 1.86428C22.2264 1.80995 22.1912 1.75724 22.1544 1.70697C22.119 1.65796 22.081 1.61086 22.0406 1.56587C21.971 1.48523 21.8924 1.4126 21.8064 1.34937C21.7766 1.59463 21.7794 1.84272 21.8146 2.08728C21.831 2.2227 21.8506 2.36217 21.8768 2.49759C21.8888 2.56571 21.9028 2.63301 21.9186 2.6995C21.9333 2.76599 21.9481 2.83249 21.9644 2.89655C21.9906 2.99961 22.0234 3.10091 22.0627 3.19982C22.1011 3.29956 22.1445 3.39687 22.1871 3.48445C22.21 3.52824 22.2321 3.5704 22.2559 3.60932C22.2796 3.64825 22.3001 3.69041 22.323 3.72123C22.3537 3.76868 22.3885 3.81345 22.427 3.85502C22.1151 3.59311 21.7901 3.3466 21.4552 3.11387C21.4621 3.10234 21.4658 3.08917 21.4658 3.07576C21.4658 3.06234 21.4621 3.04918 21.4552 3.03765C21.3621 2.85582 21.238 2.69124 21.0885 2.55111C21.0044 2.46986 20.9147 2.39454 20.82 2.32568C20.7232 2.25457 20.6221 2.18957 20.5171 2.13107C20.296 2.01419 20.0588 1.93004 19.813 1.88131C19.75 1.86834 19.6869 1.8578 19.6247 1.84888C19.5644 1.84092 19.5038 1.83605 19.443 1.83428C19.3359 1.8293 19.2285 1.8361 19.1229 1.85455C19.2826 2.04428 19.4668 2.21248 19.6706 2.35487C19.7811 2.43596 19.8973 2.51705 20.0152 2.59247C20.0733 2.62977 20.1331 2.66544 20.1912 2.70031C20.2494 2.73518 20.3099 2.77086 20.3681 2.80249C20.4614 2.85466 20.5582 2.90045 20.6579 2.93953C20.7541 2.97996 20.8525 3.01516 20.9526 3.04494C21.0001 3.05954 21.0467 3.0717 21.0909 3.08224C21.1351 3.09278 21.1793 3.10252 21.2195 3.10981C21.2883 3.12406 21.3587 3.13005 21.429 3.12765C21.437 3.12663 21.4444 3.12324 21.4503 3.11792C21.7778 3.34984 22.0962 3.59554 22.4057 3.85502C22.3615 3.82764 22.3153 3.80378 22.2673 3.78367C22.2297 3.76826 22.1896 3.75204 22.1462 3.73826C22.1028 3.72447 22.0561 3.71312 22.0086 3.70177C21.9097 3.67934 21.8093 3.66335 21.7082 3.65392C21.6047 3.64581 21.5006 3.64581 21.3971 3.65392C21.3333 3.6596 21.2702 3.66609 21.2047 3.67663C21.1392 3.68717 21.0746 3.70015 21.0099 3.71474C20.8823 3.74376 20.7565 3.78031 20.6333 3.82421C20.4107 3.90248 20.2021 4.01524 20.0152 4.1583C20.0889 4.19741 20.1677 4.22633 20.2494 4.24425C20.2952 4.25561 20.3443 4.26291 20.3934 4.27264C20.4426 4.28237 20.495 4.28885 20.5482 4.29453C20.7642 4.3172 20.9819 4.31883 21.1982 4.29939C21.3062 4.28885 21.4159 4.27426 21.5256 4.2548C21.6353 4.23533 21.7483 4.20939 21.8531 4.18344C22.0499 4.13735 22.2398 4.06592 22.418 3.97098C22.4311 3.96475 22.4421 3.9548 22.4495 3.94239C22.4569 3.92997 22.4605 3.91566 22.4597 3.90125C22.4777 3.91584 22.4966 3.93044 22.5137 3.94585C22.8478 4.23858 23.1687 4.54834 23.4691 4.87188C23.4377 4.84914 23.4049 4.82829 23.3709 4.80945C23.2893 4.76468 23.2042 4.7267 23.1163 4.69592C23.0688 4.67889 23.0205 4.66267 22.9706 4.64808C22.9206 4.63348 22.8674 4.62294 22.815 4.6124C22.7108 4.5919 22.6052 4.5797 22.499 4.57591C22.3645 4.57344 22.23 4.5794 22.0962 4.59375C22.0291 4.60105 21.9628 4.60997 21.8957 4.62132C21.8285 4.63267 21.763 4.64727 21.6984 4.66268C21.5744 4.69265 21.4527 4.73113 21.3341 4.77782C21.2276 4.81989 21.1254 4.87175 21.0287 4.9327C21.0622 4.9549 21.0972 4.97468 21.1335 4.9919C21.1739 5.01236 21.2154 5.0305 21.2579 5.04623C21.303 5.06244 21.3504 5.07785 21.4012 5.09164C21.4266 5.09893 21.452 5.10542 21.4782 5.1111L21.56 5.13056C21.7772 5.17782 21.9984 5.20497 22.2207 5.21165C22.2763 5.21165 22.3336 5.21165 22.3901 5.21165C22.4466 5.21165 22.5039 5.21165 22.562 5.20516C22.6767 5.19868 22.7929 5.18732 22.9051 5.1711C23.1113 5.14742 23.3136 5.09726 23.5068 5.0219C23.5197 5.01695 23.5311 5.00886 23.5399 4.99837C23.5488 4.98787 23.5549 4.97533 23.5575 4.9619C23.6803 5.09569 23.8031 5.23192 23.9194 5.36734C24.1077 5.59196 24.2869 5.82468 24.4605 6.06065C24.4368 6.03957 24.4122 6.01849 24.3835 5.9974C24.3054 5.94257 24.2233 5.89351 24.1379 5.85063C24.0921 5.82793 24.0446 5.80522 23.9947 5.78414C23.9447 5.76306 23.8932 5.74603 23.8408 5.729C23.7374 5.69538 23.6315 5.67016 23.524 5.65359C23.3882 5.63548 23.2516 5.62546 23.1146 5.62358C23.0459 5.62358 22.9755 5.62358 22.9059 5.62845C22.8363 5.63331 22.7675 5.63818 22.6996 5.64629C22.5696 5.6617 22.441 5.68663 22.3148 5.72089C22.202 5.75104 22.0924 5.79177 21.9874 5.84252C22.1404 5.96108 22.3145 6.0502 22.5006 6.10525C22.6078 6.14417 22.7171 6.17693 22.8281 6.20337C22.9361 6.23024 23.0454 6.25162 23.1556 6.26743C23.3884 6.29806 23.6231 6.31161 23.858 6.30798C23.9759 6.30798 24.0872 6.29906 24.1944 6.28608C24.2944 6.27544 24.3932 6.25645 24.49 6.22932C24.5027 6.22616 24.5145 6.22002 24.5243 6.21141C24.5341 6.2028 24.5417 6.19198 24.5465 6.17986C24.7337 6.44258 24.9116 6.71153 25.0802 6.9867C25.1643 7.12725 25.2461 7.26916 25.3258 7.41241C25.3062 7.39052 25.2865 7.36863 25.2636 7.34592C25.1914 7.2799 25.1142 7.21944 25.0327 7.16509C24.9885 7.1359 24.9435 7.10752 24.896 7.07995C24.8485 7.05238 24.797 7.02805 24.7462 7.00453C24.6455 6.95698 24.5408 6.91792 24.4335 6.88777C24.2968 6.85273 24.1583 6.82565 24.0184 6.80668C23.948 6.79695 23.8768 6.79046 23.8056 6.78559C23.7344 6.78073 23.6631 6.7791 23.5935 6.7791C23.3385 6.77546 23.0847 6.81326 22.842 6.89101C22.8711 6.92079 22.9026 6.94818 22.9362 6.97291C22.9714 7.00129 23.0098 7.02886 23.0508 7.054C23.1406 7.11518 23.235 7.1694 23.3332 7.21618C23.5432 7.31769 23.7625 7.39915 23.9881 7.45944C24.0446 7.47404 24.1027 7.48783 24.1617 7.5008C24.2206 7.51378 24.2788 7.52594 24.3377 7.53648C24.4564 7.55919 24.5776 7.57621 24.6971 7.58838C24.9145 7.61614 25.1346 7.61614 25.352 7.58838C25.3639 7.58661 25.3754 7.58247 25.3857 7.5762C25.3959 7.56993 25.4048 7.56166 25.4118 7.55189C25.6231 7.94378 25.8143 8.34595 25.9848 8.75687C26.0028 8.80147 26.0192 8.84769 26.0372 8.89229C25.9642 8.79224 25.8796 8.70106 25.7851 8.62064C25.6146 8.47123 25.4211 8.34969 25.212 8.26061C24.9432 8.1515 24.6611 8.07789 24.3729 8.04167C24.2372 8.02418 24.1004 8.01687 23.9636 8.01977C23.8403 8.02211 23.7176 8.03568 23.5968 8.06032C23.7215 8.21842 23.8744 8.35254 24.0479 8.45603C24.1478 8.52259 24.2514 8.58351 24.3582 8.63848C24.4616 8.69484 24.5682 8.7452 24.6774 8.78931C24.7896 8.83229 24.9042 8.87527 25.0221 8.91257C25.14 8.94987 25.2611 8.98392 25.3807 9.0123C25.597 9.06934 25.8199 9.0985 26.0438 9.09907C26.067 9.09847 26.0893 9.08987 26.1068 9.07474C26.2827 9.54355 26.4314 10.0219 26.5522 10.5076C26.544 10.493 26.5374 10.4784 26.5276 10.4622C26.4745 10.3756 26.4134 10.2942 26.345 10.2189C26.2693 10.132 26.1872 10.0507 26.0994 9.97565C26.0093 9.9008 25.9132 9.83327 25.8121 9.77373C25.6839 9.69996 25.5507 9.63519 25.4134 9.57993C25.3446 9.55236 25.2751 9.5256 25.2046 9.49884C25.1342 9.47208 25.0622 9.45505 24.9918 9.4364C24.8542 9.40316 24.7144 9.37932 24.5735 9.36504C24.4479 9.35084 24.3212 9.34867 24.1953 9.35856C24.2154 9.39693 24.2384 9.43379 24.264 9.46884C24.2922 9.509 24.3228 9.54745 24.3557 9.58399C24.4329 9.66679 24.5149 9.74504 24.6013 9.81833C24.6463 9.85726 24.693 9.89942 24.7421 9.93348C24.7912 9.96754 24.842 10.0081 24.8911 10.0446C24.9886 10.1151 25.0903 10.1798 25.1956 10.2384C25.3013 10.2984 25.4118 10.3568 25.5272 10.4111C25.5845 10.4379 25.6434 10.4638 25.7024 10.4922C25.7613 10.5206 25.8178 10.5408 25.8759 10.5635C26.0882 10.6509 26.3107 10.7113 26.5382 10.7436C26.5601 10.7457 26.5821 10.7412 26.6013 10.7306C26.7137 11.2258 26.7957 11.7273 26.8469 12.2324C26.8469 12.2226 26.8403 12.2145 26.8354 12.2048C26.7932 12.1095 26.7436 12.0177 26.6872 11.9299C26.5572 11.7313 26.3958 11.5547 26.2091 11.4069C25.9694 11.2225 25.7059 11.0706 25.4257 10.9552C25.1741 10.849 24.9067 10.7841 24.6341 10.763C24.7149 10.9559 24.8309 11.1323 24.9762 11.2836C25.0164 11.329 25.0581 11.3744 25.104 11.419C25.1498 11.4636 25.1916 11.509 25.2374 11.552C25.3291 11.638 25.4273 11.7191 25.5182 11.7904C25.6091 11.8618 25.722 11.9404 25.8326 12.011C25.9431 12.0815 26.0511 12.1497 26.16 12.2113C26.2685 12.271 26.38 12.3251 26.494 12.3735C26.5948 12.4183 26.6991 12.455 26.8059 12.4829C26.8257 12.4887 26.8467 12.4887 26.8665 12.4829C26.8706 12.5283 26.8763 12.5737 26.8796 12.62L26.8894 12.7432L26.8952 12.8673L26.9066 13.1154C26.9066 13.1568 26.9066 13.1965 26.9066 13.2395V13.3636C26.9066 13.4446 26.9066 13.5257 26.9066 13.6117L26.8952 14.035C26.8952 14.0301 26.8952 14.0252 26.8911 14.0196C26.8615 13.9171 26.824 13.8171 26.7789 13.7203C26.7544 13.6665 26.7271 13.614 26.6971 13.563C26.6668 13.5103 26.634 13.4584 26.5996 13.4082C26.5652 13.3579 26.5292 13.3076 26.4916 13.2598C26.4727 13.2354 26.4531 13.2127 26.4334 13.1892C26.4138 13.1657 26.3917 13.1446 26.3704 13.1235C26.2627 13.0135 26.1478 12.9106 26.0266 12.8154C25.9035 12.7206 25.7744 12.6336 25.6402 12.5551C25.5747 12.517 25.51 12.4813 25.4429 12.4489C25.3757 12.4164 25.3094 12.3872 25.2439 12.3621C25.122 12.3129 24.9956 12.2752 24.8665 12.2494C24.8856 12.3439 24.9184 12.4351 24.964 12.5202C25.0144 12.6258 25.0733 12.7272 25.14 12.8235C25.2791 13.0345 25.4378 13.2321 25.614 13.4138C25.7992 13.5993 25.997 13.7722 26.2059 13.9312C26.3073 14.008 26.4128 14.0795 26.5219 14.1453C26.6173 14.2049 26.7175 14.2567 26.8215 14.3001C26.8402 14.3076 26.8606 14.3095 26.8804 14.3058V14.3553L26.8616 14.6026C26.8551 14.6837 26.8501 14.7648 26.842 14.8499L26.8117 15.0932C26.7896 15.2554 26.7748 15.4224 26.7429 15.5846L26.7003 15.8279L26.6938 15.8668C26.6879 15.8169 26.6791 15.7673 26.6676 15.7184C26.6553 15.6649 26.6406 15.6089 26.6234 15.5562C26.5886 15.4394 26.5451 15.3252 26.4932 15.2148C26.4377 15.1017 26.3731 14.9933 26.3 14.8905C26.1139 14.6357 25.8936 14.4074 25.6451 14.2118C25.5837 14.1639 25.5239 14.1185 25.4609 14.0763C25.3979 14.0342 25.334 13.9952 25.271 13.9596C25.1542 13.8927 25.0315 13.8367 24.9042 13.7925C24.9109 13.8909 24.9316 13.9878 24.9656 14.0804C25.0006 14.1939 25.0447 14.3046 25.0974 14.4112C25.1244 14.468 25.1555 14.5264 25.1866 14.5839C25.2177 14.6415 25.248 14.6983 25.2808 14.755C25.3456 14.8659 25.417 14.9728 25.4945 15.0754C25.653 15.2912 25.8282 15.4945 26.0184 15.6835C26.1854 15.8613 26.375 16.017 26.5824 16.1465C26.5986 16.1559 26.6169 16.1609 26.6357 16.1611L26.5481 16.5569C26.4531 16.9469 26.3368 17.3313 26.2042 17.7108C26.2059 17.6064 26.2001 17.5021 26.187 17.3986C26.1688 17.2746 26.1415 17.1521 26.1052 17.032C26.0872 16.9712 26.0659 16.9104 26.0429 16.852C26.0307 16.822 26.0192 16.7928 26.0061 16.7644C25.993 16.7361 25.9783 16.7077 25.9635 16.6793C25.8133 16.394 25.6243 16.1305 25.4019 15.896C25.2971 15.7852 25.184 15.6822 25.0638 15.5878C25.0074 15.5432 24.9492 15.5019 24.8911 15.4646C24.833 15.4273 24.7749 15.394 24.7176 15.3648C24.7147 15.4113 24.7147 15.4579 24.7176 15.5043C24.7196 15.557 24.725 15.6096 24.7339 15.6616C24.7429 15.7168 24.7552 15.7743 24.7699 15.8335C24.7847 15.8927 24.8051 15.9544 24.8215 16.0152C24.8975 16.2669 24.9967 16.5113 25.1179 16.745C25.1801 16.8609 25.2497 16.9793 25.325 17.0969C25.4003 17.2145 25.4723 17.3288 25.5534 17.4383C25.6974 17.6426 25.8656 17.8291 26.0544 17.9938C26.0681 18.0038 26.0837 18.011 26.1003 18.0148C25.9092 18.5238 25.6858 19.0202 25.4314 19.5012C25.438 19.4631 25.4453 19.4242 25.4502 19.382C25.456 19.3252 25.4576 19.2644 25.4584 19.2036C25.4592 19.0762 25.4516 18.9489 25.4355 18.8225C25.4266 18.7575 25.414 18.6931 25.3979 18.6295C25.3823 18.5654 25.3651 18.503 25.3446 18.443C25.2396 18.1321 25.091 17.8373 24.9034 17.5672C24.815 17.4381 24.7162 17.3164 24.6079 17.2031C24.512 17.1012 24.4068 17.0084 24.2935 16.9258C24.2694 17.0248 24.2601 17.1266 24.2657 17.2283C24.2664 17.3513 24.2762 17.474 24.2951 17.5956C24.305 17.6605 24.3189 17.7278 24.3303 17.7935C24.3418 17.8591 24.3557 17.9265 24.3713 17.9921C24.4024 18.1243 24.4425 18.2557 24.4834 18.3757C24.5244 18.4957 24.5767 18.6319 24.6324 18.7609C24.6881 18.8898 24.7511 19.0203 24.8117 19.1428C24.9232 19.3719 25.0632 19.5863 25.2284 19.781C25.2385 19.7922 25.2507 19.8013 25.2644 19.8077C24.9907 20.2887 24.6858 20.7516 24.3516 21.1935L24.3582 21.1765C24.3655 21.1497 24.3729 21.1214 24.3803 21.0954C24.3942 21.0387 24.4073 20.9787 24.4187 20.917C24.4302 20.8554 24.4384 20.7913 24.4458 20.7273C24.4529 20.6616 24.4567 20.5955 24.4572 20.5294C24.4583 20.3967 24.4484 20.2641 24.4278 20.1329C24.4009 19.9678 24.361 19.8052 24.3082 19.6464C24.2829 19.5653 24.2542 19.4842 24.2264 19.4088C24.1985 19.3334 24.1641 19.2555 24.1265 19.1801C23.9978 18.9071 23.825 18.6568 23.6148 18.4389C23.573 18.5336 23.5454 18.6339 23.533 18.7365C23.5248 18.7941 23.5207 18.8557 23.5158 18.9182C23.5109 18.9806 23.5068 19.0455 23.5059 19.112C23.5051 19.1785 23.5059 19.2474 23.5059 19.3163C23.5059 19.3852 23.5133 19.4558 23.5166 19.5239C23.5257 19.6599 23.5424 19.7952 23.5665 19.9294C23.5804 19.9975 23.5935 20.0656 23.6075 20.1345C23.6214 20.2034 23.6378 20.2724 23.6549 20.3421C23.6893 20.4808 23.7303 20.621 23.7753 20.7565C23.8498 21.0048 23.9554 21.2429 24.0896 21.4652C24.0975 21.4771 24.1075 21.4876 24.1191 21.496C23.7658 21.9362 23.3829 22.3524 22.973 22.7415C23.0136 22.6579 23.0494 22.5721 23.0803 22.4845C23.1709 22.2313 23.2179 21.9649 23.2194 21.6963C23.2203 21.6118 23.2168 21.5274 23.2088 21.4433C23.2014 21.3573 23.1916 21.2722 23.1793 21.1871C23.167 21.1019 23.1507 21.0176 23.1335 20.9341C23.1163 20.8505 23.0917 20.767 23.068 20.6867C23.0214 20.5314 22.9634 20.3796 22.8944 20.2326C22.8617 20.1629 22.8265 20.0972 22.7904 20.0348C22.7544 19.9723 22.7135 19.9123 22.6734 19.858C22.6611 19.8775 22.6496 19.8985 22.6382 19.9204C22.6267 19.9423 22.6153 19.965 22.6046 19.9886C22.5816 20.0395 22.5616 20.0918 22.5449 20.1451C22.5279 20.2018 22.5124 20.2618 22.4982 20.3251L22.4884 20.3729C22.4843 20.3891 22.481 20.4045 22.4769 20.4208L22.4573 20.5189C22.4327 20.6519 22.4171 20.7954 22.4049 20.9365C22.3911 21.0736 22.3854 21.2114 22.3877 21.3492C22.3877 21.419 22.3934 21.4919 22.3959 21.5625C22.3983 21.633 22.4032 21.706 22.409 21.779C22.4212 21.9242 22.4384 22.0717 22.4622 22.2153C22.4961 22.4776 22.5629 22.7348 22.6611 22.9807C22.6659 22.992 22.6725 23.0024 22.6808 23.0116C22.603 23.0805 22.5268 23.1502 22.4474 23.2175C22.0883 23.524 21.7128 23.8112 21.3226 24.0779C21.3382 24.056 21.3537 24.0333 21.3685 24.0098C21.4023 23.959 21.435 23.9049 21.4667 23.8476C21.6009 23.6082 21.6934 23.348 21.7401 23.0781C21.7549 22.997 21.7647 22.9086 21.7712 22.821C21.7778 22.7334 21.7827 22.6459 21.7843 22.5583C21.786 22.4707 21.7843 22.3831 21.7843 22.2972C21.7843 22.2112 21.7704 22.122 21.7589 22.0369C21.7241 21.7251 21.6364 21.4213 21.4994 21.1384C21.4302 21.2203 21.3711 21.3102 21.3234 21.406C21.267 21.5238 21.217 21.6445 21.1736 21.7677C21.1261 21.8966 21.0868 22.0385 21.0508 22.178C21.0143 22.3136 20.9856 22.4511 20.9649 22.5899C20.946 22.7334 20.9272 22.877 20.9141 23.0253C20.901 23.1737 20.8945 23.3246 20.8936 23.473C20.8835 23.7429 20.9069 24.0131 20.9632 24.2774C20.9667 24.2877 20.9711 24.2977 20.9763 24.3074C20.9321 24.3358 20.8895 24.3649 20.8445 24.3885C20.3901 24.6663 19.919 24.9165 19.434 25.1377C19.4953 25.0775 19.5525 25.0133 19.6051 24.9455C19.6468 24.8928 19.6869 24.8385 19.7271 24.7834C19.7678 24.7261 19.8053 24.6665 19.8392 24.605C19.9078 24.4819 19.9658 24.3533 20.0128 24.2206C20.071 24.053 20.1159 23.8811 20.147 23.7065C20.2125 23.3661 20.2271 23.018 20.1904 22.6734C20.1814 22.5923 20.1691 22.5177 20.1544 22.4439C20.1394 22.3722 20.1209 22.3013 20.0987 22.2315C20.0799 22.2469 20.0619 22.2631 20.0439 22.2809C20.0259 22.2988 20.0062 22.3166 19.9874 22.3361C19.9482 22.3787 19.9113 22.4234 19.8769 22.4699C19.8409 22.5191 19.8056 22.5731 19.7713 22.6321C19.7361 22.6888 19.6992 22.7464 19.6657 22.808C19.6321 22.8697 19.5977 22.9337 19.5658 22.9994C19.5339 23.0651 19.5036 23.134 19.4725 23.1989C19.4129 23.3294 19.361 23.4631 19.3169 23.5995L19.2506 23.8103C19.2293 23.8817 19.2089 23.9538 19.19 24.0276C19.1515 24.1744 19.1196 24.3268 19.0918 24.4736C19.0341 24.7432 19.0102 25.0188 19.0206 25.2942C19.0219 25.3033 19.0241 25.3123 19.0271 25.321L18.8429 25.3964L18.7275 25.4442L18.6104 25.4864C18.4541 25.5424 18.2977 25.5999 18.1405 25.6543L17.6641 25.801C17.5822 25.827 17.5003 25.8448 17.4242 25.8667L17.3276 25.891L17.3743 25.861C17.4258 25.8237 17.4766 25.78 17.5282 25.7345C17.6341 25.6408 17.7331 25.5397 17.8245 25.4321C17.9164 25.3202 17.9986 25.2009 18.0701 25.0753C18.1127 24.9982 18.152 24.9188 18.1921 24.8377C18.2322 24.7566 18.2641 24.669 18.2961 24.5831C18.3601 24.4143 18.4115 24.2411 18.45 24.0649C18.5233 23.7459 18.5421 23.417 18.5056 23.0918C18.4091 23.1459 18.3206 23.213 18.2428 23.2913C18.2207 23.3132 18.1978 23.3359 18.1757 23.3602C18.1536 23.3846 18.1315 23.4097 18.1078 23.4332C18.0627 23.4827 18.0169 23.5354 17.9719 23.5914C17.9268 23.6473 17.8826 23.7065 17.8392 23.7673L17.8065 23.8135L17.7738 23.8581L17.7099 23.949C17.6276 24.0701 17.5522 24.1958 17.484 24.3252C17.4127 24.4533 17.3448 24.5904 17.2801 24.7307C17.2482 24.802 17.2171 24.8734 17.1868 24.9464C17.1565 25.0193 17.1278 25.0883 17.1008 25.1596C16.995 25.4201 16.9216 25.6924 16.8822 25.9705C16.8818 25.9765 16.8818 25.9824 16.8822 25.9884C16.3338 26.1101 15.7782 26.1975 15.2188 26.2503L15.2384 26.457C15.8058 26.3998 16.3691 26.3075 16.9248 26.1805C16.9274 26.1899 16.9313 26.1989 16.9363 26.2073C17.099 26.4451 17.3036 26.652 17.5404 26.8179C17.6059 26.8657 17.6747 26.9136 17.7459 26.9566C17.8171 26.9995 17.89 27.0376 17.9653 27.0798C18.1183 27.1594 18.2764 27.2291 18.4385 27.2882C18.6037 27.3431 18.7728 27.386 18.9444 27.4163C18.9903 27.4244 19.0361 27.4317 19.0828 27.4382L19.1532 27.448L19.2228 27.4544C19.3169 27.4626 19.4111 27.4682 19.5052 27.4699C19.5993 27.4715 19.6935 27.4699 19.7852 27.4699C19.831 27.4699 19.8761 27.4642 19.9203 27.4593L20.0504 27.4415C20.2067 27.4198 20.3599 27.3806 20.5072 27.3247C20.2289 27.1061 19.9242 26.9225 19.6002 26.7782C19.4242 26.6971 19.2391 26.6087 19.0558 26.5349C18.9641 26.4968 18.8724 26.4603 18.7815 26.4262C18.6906 26.3922 18.5998 26.3557 18.5105 26.3232C18.3672 26.2724 18.2209 26.2298 18.0726 26.1959C17.9296 26.1589 17.7848 26.1294 17.6387 26.1075C17.5691 26.097 17.5028 26.0913 17.4373 26.0832C17.4136 26.0832 17.3923 26.0832 17.3693 26.0767L17.4766 26.0484C17.5585 26.0265 17.6403 26.0078 17.7222 25.9802L18.2052 25.8286C18.364 25.7727 18.522 25.7126 18.68 25.6551C18.7201 25.6405 18.7619 25.6267 18.7987 25.6113L18.9158 25.5626L19.1016 25.4815C19.1061 25.4905 19.1116 25.4989 19.118 25.5067C19.3172 25.7083 19.5512 25.873 19.8089 25.9932C19.9559 26.0638 20.1077 26.1239 20.2633 26.1732C20.3451 26.1984 20.427 26.2219 20.5089 26.2422C20.5498 26.2527 20.5907 26.2624 20.6325 26.2714C20.6742 26.2803 20.7144 26.2868 20.7561 26.2932C20.9252 26.319 21.0959 26.3326 21.2669 26.3338C21.3585 26.3349 21.45 26.3311 21.5412 26.3224C21.6329 26.3151 21.7254 26.3046 21.8163 26.2916C21.9071 26.2786 21.9988 26.2632 22.0856 26.2422C22.1724 26.2211 22.2559 26.1967 22.3353 26.17C22.4147 26.1432 22.4916 26.1148 22.5629 26.084C22.5981 26.0686 22.6316 26.0524 22.6644 26.0362C22.6971 26.02 22.7266 26.0005 22.7552 25.9819C22.6914 25.9446 22.6226 25.9097 22.5498 25.8756C22.4769 25.8416 22.3967 25.8083 22.314 25.7759C22.1503 25.7126 21.9718 25.6551 21.7876 25.604C21.6034 25.5529 21.4118 25.5018 21.2219 25.4588C21.032 25.4159 20.8437 25.3826 20.6595 25.3469C20.5122 25.3213 20.3635 25.3045 20.2142 25.2967C20.1413 25.2967 20.066 25.2886 19.9931 25.2861C19.9203 25.2837 19.849 25.2861 19.7803 25.2861C19.6804 25.2861 19.5846 25.295 19.497 25.3031C19.9921 25.0745 20.4725 24.8159 20.9354 24.5287C20.9804 24.5012 21.0238 24.4704 21.068 24.442C21.0744 24.4517 21.0824 24.4602 21.0917 24.4671C21.3179 24.6303 21.572 24.7517 21.8416 24.8255C21.9956 24.8689 22.1523 24.9019 22.3107 24.9245C22.4732 24.9492 22.6375 24.9611 22.8019 24.9601C22.9695 24.9579 23.1366 24.9435 23.3021 24.9172C23.4791 24.8861 23.6536 24.8427 23.8244 24.7874C23.9906 24.7357 24.1515 24.6687 24.305 24.5871C24.4398 24.5206 24.5653 24.4369 24.6783 24.3382C24.3559 24.2287 24.0214 24.1579 23.682 24.1273C23.5886 24.1168 23.4953 24.1095 23.3995 24.1014C23.3037 24.0933 23.2071 24.0852 23.1114 24.0795C23.0156 24.0738 22.9214 24.0698 22.8281 24.0673H22.5506C22.2621 24.0678 21.9744 24.095 21.691 24.1484C21.6247 24.1614 21.5608 24.1752 21.5011 24.1906C21.4683 24.1987 21.4397 24.2076 21.4094 24.2157C21.8073 23.9416 22.1899 23.6463 22.5555 23.3311C22.6374 23.2629 22.7119 23.1916 22.7896 23.1218C22.7988 23.1317 22.8096 23.1399 22.8216 23.1462C23.067 23.2671 23.3324 23.3438 23.605 23.3724C23.7607 23.3898 23.9174 23.3968 24.0741 23.3935C24.156 23.3935 24.2378 23.3878 24.3197 23.3805C24.4016 23.3732 24.4793 23.3619 24.5587 23.3489C24.72 23.3204 24.879 23.2803 25.0344 23.2289C25.2 23.1708 25.3614 23.1015 25.5174 23.0213C25.5567 23.0018 25.5992 22.9816 25.6336 22.9605L25.6909 22.928L25.745 22.894C25.8162 22.8486 25.8849 22.8015 25.9488 22.7529C26.0108 22.7071 26.0704 22.6581 26.1273 22.6061C26.1543 22.581 26.1805 22.5567 26.2042 22.5315C26.228 22.5064 26.2492 22.4804 26.2697 22.4504C26.2001 22.4366 26.1273 22.4253 26.0495 22.4172C25.9717 22.4091 25.8858 22.4018 25.8039 22.3985C25.6344 22.3912 25.4543 22.3928 25.2718 22.3985C25.1793 22.4026 25.0892 22.4107 24.9943 22.4172C24.8993 22.4237 24.806 22.4318 24.7126 22.4415C24.6193 22.4512 24.5268 22.4626 24.4368 22.4747L24.1682 22.5145C23.889 22.5614 23.6149 22.6344 23.3496 22.7326C23.254 22.7676 23.1603 22.8074 23.0688 22.8518C23.4857 22.4514 23.8746 22.0233 24.2329 21.5706C24.2443 21.5801 24.2574 21.5875 24.2714 21.5925C24.528 21.6706 24.7966 21.703 25.0647 21.6882C25.2177 21.681 25.3701 21.6634 25.5207 21.6355C25.5976 21.6209 25.6754 21.6047 25.7523 21.5852C25.7908 21.5755 25.8301 21.5657 25.8678 21.5544L25.9799 21.5187C26.1311 21.466 26.2781 21.402 26.4195 21.3273C26.4572 21.3079 26.4948 21.2884 26.5317 21.2673C26.5685 21.2463 26.6045 21.2227 26.6406 21.2C26.7126 21.153 26.7846 21.1043 26.8534 21.0541C26.9222 21.0038 26.9901 20.9503 27.054 20.8919C27.1178 20.8335 27.1743 20.7808 27.2284 20.724C27.3285 20.6219 27.4169 20.509 27.492 20.3875C27.1651 20.3824 26.8389 20.4181 26.521 20.4937C26.4392 20.5132 26.3434 20.5327 26.2542 20.5537C26.1649 20.5748 26.0749 20.5975 25.9873 20.621C25.8096 20.6689 25.6394 20.7232 25.4715 20.7751C25.3379 20.8186 25.2073 20.8703 25.0802 20.93L24.8936 21.0192C24.8322 21.05 24.7732 21.0816 24.7167 21.1133C24.6602 21.1449 24.607 21.1773 24.5571 21.2098L24.4851 21.2584L24.4507 21.2819C24.7907 20.8276 25.1002 20.3516 25.3774 19.8572C25.391 19.8672 25.4066 19.8741 25.4232 19.8775C25.6828 19.913 25.9466 19.9028 26.2026 19.8475C26.3504 19.8186 26.4957 19.7785 26.6373 19.7274C26.7832 19.6756 26.9257 19.6146 27.0638 19.545C27.2013 19.4713 27.3327 19.387 27.4568 19.2928C27.5231 19.2442 27.5886 19.1914 27.6532 19.1371C27.7179 19.0828 27.776 19.0228 27.835 18.9636C27.9487 18.8483 28.0535 18.7247 28.1485 18.5938C28.2285 18.4794 28.2952 18.3565 28.3475 18.2273C28.1992 18.2449 28.0527 18.2747 27.9095 18.3165C27.7539 18.3595 27.5951 18.4154 27.4273 18.4787C27.0959 18.6077 26.7718 18.7544 26.4564 18.9182C26.3958 18.949 26.336 18.9822 26.2771 19.0171C26.2181 19.052 26.1625 19.0901 26.1035 19.1274C25.9915 19.1991 25.8836 19.2768 25.7802 19.3601C25.731 19.399 25.686 19.4412 25.6418 19.4777C25.5976 19.5142 25.569 19.5434 25.5354 19.575C25.7954 19.0825 26.0229 18.5738 26.2165 18.0521C26.2321 18.0606 26.2495 18.0656 26.2673 18.0667C26.5236 18.0636 26.7771 18.0142 27.0155 17.9208C27.1542 17.8698 27.2893 17.8096 27.4199 17.7408C27.552 17.6678 27.6791 17.5866 27.8006 17.4975C28.0538 17.3068 28.2766 17.0794 28.4612 16.8228C28.5092 16.7583 28.5535 16.6912 28.5939 16.6217C28.6348 16.5536 28.6757 16.4863 28.7052 16.419C28.7374 16.3551 28.7664 16.2896 28.792 16.2228C28.8148 16.1627 28.8326 16.1009 28.8452 16.0379C28.7802 16.0546 28.7139 16.0757 28.6463 16.1011C28.5791 16.1271 28.5079 16.1555 28.435 16.1879C28.2901 16.252 28.1403 16.3282 27.9905 16.4125C27.6898 16.5835 27.3988 16.7705 27.1187 16.9728L27.0368 17.0328L26.9549 17.0953C26.9017 17.1375 26.8501 17.1821 26.801 17.2267C26.7052 17.3133 26.6139 17.4048 26.5276 17.5007C26.4515 17.5804 26.3804 17.6646 26.3147 17.7529C26.4465 17.3669 26.5603 16.9761 26.6561 16.5787L26.747 16.1822Z" fill="url(#paint6_linear_9689_3866)"/>
<path style="mix-blend-mode:overlay" d="M13.3403 24.3163H12.6994C12.4987 24.3163 12.3359 24.4775 12.3359 24.6763V27.6839C12.3359 27.8828 12.4987 28.044 12.6994 28.044H13.3403C13.541 28.044 13.7038 27.8828 13.7038 27.6839V24.6763C13.7038 24.4775 13.541 24.3163 13.3403 24.3163Z" fill="url(#paint7_linear_9689_3866)"/>
<path style="mix-blend-mode:overlay" d="M14.7778 24.3163H14.1369C13.9362 24.3163 13.7734 24.4775 13.7734 24.6763V27.6839C13.7734 27.8828 13.9362 28.044 14.1369 28.044H14.7778C14.9785 28.044 15.1413 27.8828 15.1413 27.6839V24.6763C15.1413 24.4775 14.9785 24.3163 14.7778 24.3163Z" fill="url(#paint8_linear_9689_3866)"/>
<path style="mix-blend-mode:overlay" d="M16.3013 24.3163H15.6603C15.4596 24.3163 15.2969 24.4775 15.2969 24.6763V27.6839C15.2969 27.8828 15.4596 28.044 15.6603 28.044H16.3013C16.502 28.044 16.6647 27.8828 16.6647 27.6839V24.6763C16.6647 24.4775 16.502 24.3163 16.3013 24.3163Z" fill="url(#paint9_linear_9689_3866)"/>
<defs>
<linearGradient id="paint0_linear_9689_3866" x1="13.8852" y1="33.3329" x2="26.9324" y2="27.7159" gradientUnits="userSpaceOnUse">
<stop stop-color="#FF0000"/>
<stop offset="0.04" stop-color="#E10000"/>
<stop offset="0.08" stop-color="#960000"/>
<stop offset="0.29" stop-color="#F80003"/>
<stop offset="0.44" stop-color="#DC0004"/>
<stop offset="0.56" stop-color="#F80003"/>
<stop offset="0.69" stop-color="#CD0001"/>
<stop offset="0.85" stop-color="#980001"/>
<stop offset="0.96" stop-color="#E30002"/>
<stop offset="1" stop-color="#FF0002"/>
</linearGradient>
<linearGradient id="paint1_linear_9689_3866" x1="2.53218" y1="28.1846" x2="17.0116" y2="34.0263" gradientUnits="userSpaceOnUse">
<stop stop-color="#FF0000"/>
<stop offset="0.04" stop-color="#E10000"/>
<stop offset="0.08" stop-color="#960000"/>
<stop offset="0.29" stop-color="#F80003"/>
<stop offset="0.44" stop-color="#DC0004"/>
<stop offset="0.56" stop-color="#F80003"/>
<stop offset="0.69" stop-color="#CD0001"/>
<stop offset="0.85" stop-color="#980001"/>
<stop offset="0.96" stop-color="#E30002"/>
<stop offset="1" stop-color="#FF0002"/>
</linearGradient>
<linearGradient id="paint2_linear_9689_3866" x1="22.0111" y1="24.9184" x2="7.3058" y2="2.05412" gradientUnits="userSpaceOnUse">
<stop stop-color="#919191"/>
<stop offset="0.05" stop-color="#989898"/>
<stop offset="0.13" stop-color="#ABABAB"/>
<stop offset="0.22" stop-color="#CACACA"/>
<stop offset="0.24" stop-color="#D0D0D0"/>
<stop offset="0.33" stop-color="#B8B8B8"/>
<stop offset="0.39" stop-color="#AEAEAE"/>
<stop offset="0.52" stop-color="#B0B0B0"/>
<stop offset="0.54" stop-color="#B7B7B7"/>
<stop offset="0.61" stop-color="#D3D3D3"/>
<stop offset="0.66" stop-color="#E4E4E4"/>
<stop offset="0.71" stop-color="#EAEAEA"/>
<stop offset="0.73" stop-color="#E0E0E0"/>
<stop offset="0.85" stop-color="#B5B5B5"/>
<stop offset="0.94" stop-color="#9B9B9B"/>
<stop offset="1" stop-color="#919191"/>
</linearGradient>
<linearGradient id="paint3_linear_9689_3866" x1="17.0565" y1="1.96803" x2="12.176" y2="25.1536" gradientUnits="userSpaceOnUse">
<stop stop-color="#919191"/>
<stop offset="0.05" stop-color="#989898"/>
<stop offset="0.13" stop-color="#ABABAB"/>
<stop offset="0.22" stop-color="#CACACA"/>
<stop offset="0.24" stop-color="#D0D0D0"/>
<stop offset="0.33" stop-color="#B8B8B8"/>
<stop offset="0.39" stop-color="#AEAEAE"/>
<stop offset="0.52" stop-color="#B0B0B0"/>
<stop offset="0.54" stop-color="#B7B7B7"/>
<stop offset="0.61" stop-color="#D3D3D3"/>
<stop offset="0.66" stop-color="#E4E4E4"/>
<stop offset="0.71" stop-color="#EAEAEA"/>
<stop offset="0.73" stop-color="#E0E0E0"/>
<stop offset="0.85" stop-color="#B5B5B5"/>
<stop offset="0.94" stop-color="#9B9B9B"/>
<stop offset="1" stop-color="#919191"/>
</linearGradient>
<linearGradient id="paint4_linear_9689_3866" x1="7.271" y1="20.2855" x2="16.5873" y2="2.26241" gradientUnits="userSpaceOnUse">
<stop/>
<stop offset="0.23" stop-color="#020303"/>
<stop offset="0.39" stop-color="#0A0B0C"/>
<stop offset="0.53" stop-color="#171A1C"/>
<stop offset="0.66" stop-color="#2A2F32"/>
<stop offset="0.78" stop-color="#42494F"/>
<stop offset="0.89" stop-color="#5F6A71"/>
<stop offset="0.99" stop-color="#7B8993"/>
</linearGradient>
<linearGradient id="paint5_linear_9689_3866" x1="10.0326" y1="1.83836" x2="5.66143" y2="26.8662" gradientUnits="userSpaceOnUse">
<stop offset="0.04" stop-color="#9D9D9D"/>
<stop offset="0.25" stop-color="#DDDDDD"/>
<stop offset="0.36" stop-color="#FAFAFA"/>
<stop offset="0.37" stop-color="#E5E5E5"/>
<stop offset="0.38" stop-color="#7E7E7E"/>
<stop offset="0.39" stop-color="#5A5A5A"/>
<stop offset="0.44" stop-color="#5E5E5E"/>
<stop offset="0.5" stop-color="#6B6B6B"/>
<stop offset="0.55" stop-color="#808080"/>
<stop offset="0.59" stop-color="#939393"/>
<stop offset="0.6" stop-color="#989898"/>
<stop offset="0.64" stop-color="#BDBDBD"/>
<stop offset="0.68" stop-color="#D4D4D4"/>
<stop offset="0.7" stop-color="#DCDCDC"/>
<stop offset="0.88" stop-color="#A0A0A0"/>
<stop offset="0.92" stop-color="#939393"/>
</linearGradient>
<linearGradient id="paint6_linear_9689_3866" x1="25.2317" y1="1.94051" x2="20.7271" y2="27.7294" gradientUnits="userSpaceOnUse">
<stop offset="0.04" stop-color="#9D9D9D"/>
<stop offset="0.25" stop-color="#DDDDDD"/>
<stop offset="0.36" stop-color="#FAFAFA"/>
<stop offset="0.37" stop-color="#E5E5E5"/>
<stop offset="0.38" stop-color="#7E7E7E"/>
<stop offset="0.39" stop-color="#5A5A5A"/>
<stop offset="0.44" stop-color="#5E5E5E"/>
<stop offset="0.5" stop-color="#6B6B6B"/>
<stop offset="0.55" stop-color="#808080"/>
<stop offset="0.59" stop-color="#939393"/>
<stop offset="0.6" stop-color="#989898"/>
<stop offset="0.64" stop-color="#BDBDBD"/>
<stop offset="0.68" stop-color="#D4D4D4"/>
<stop offset="0.7" stop-color="#DCDCDC"/>
<stop offset="0.88" stop-color="#A0A0A0"/>
<stop offset="0.92" stop-color="#939393"/>
</linearGradient>
<linearGradient id="paint7_linear_9689_3866" x1="13.0203" y1="28.044" x2="13.0203" y2="24.3163" gradientUnits="userSpaceOnUse">
<stop stop-color="#4D4D4D"/>
<stop offset="0.03" stop-color="#515151"/>
<stop offset="0.06" stop-color="#5E5E5E"/>
<stop offset="0.09" stop-color="#737373"/>
<stop offset="0.12" stop-color="#909090"/>
<stop offset="0.13" stop-color="#999999"/>
<stop offset="0.88" stop-color="#999999"/>
<stop offset="0.89" stop-color="#A2A2A2"/>
<stop offset="0.94" stop-color="#C7C7C7"/>
<stop offset="0.98" stop-color="#DEDEDE"/>
<stop offset="1" stop-color="#E6E6E6"/>
</linearGradient>
<linearGradient id="paint8_linear_9689_3866" x1="14.4578" y1="28.044" x2="14.4578" y2="24.3163" gradientUnits="userSpaceOnUse">
<stop stop-color="#4D4D4D"/>
<stop offset="0.03" stop-color="#515151"/>
<stop offset="0.06" stop-color="#5E5E5E"/>
<stop offset="0.09" stop-color="#737373"/>
<stop offset="0.12" stop-color="#909090"/>
<stop offset="0.13" stop-color="#999999"/>
<stop offset="0.88" stop-color="#999999"/>
<stop offset="0.89" stop-color="#A2A2A2"/>
<stop offset="0.94" stop-color="#C7C7C7"/>
<stop offset="0.98" stop-color="#DEDEDE"/>
<stop offset="1" stop-color="#E6E6E6"/>
</linearGradient>
<linearGradient id="paint9_linear_9689_3866" x1="15.9812" y1="28.044" x2="15.9812" y2="24.3163" gradientUnits="userSpaceOnUse">
<stop stop-color="#4D4D4D"/>
<stop offset="0.03" stop-color="#515151"/>
<stop offset="0.06" stop-color="#5E5E5E"/>
<stop offset="0.09" stop-color="#737373"/>
<stop offset="0.12" stop-color="#909090"/>
<stop offset="0.13" stop-color="#999999"/>
<stop offset="0.88" stop-color="#999999"/>
<stop offset="0.89" stop-color="#A2A2A2"/>
<stop offset="0.94" stop-color="#C7C7C7"/>
<stop offset="0.98" stop-color="#DEDEDE"/>
<stop offset="1" stop-color="#E6E6E6"/>
</linearGradient>
</defs>
</svg>
