<svg width="29" height="38" viewBox="0 0 29 38" fill="none" xmlns="http://www.w3.org/2000/svg">
<path d="M18.5607 37.8099L21.9218 32.7514C21.9677 32.6824 22.035 32.6287 22.1145 32.5977C22.1939 32.5668 22.2815 32.5601 22.3652 32.5785L28.4901 33.9598C28.5643 33.977 28.6421 33.9743 28.7149 33.952C28.7876 33.9297 28.8524 33.8888 28.9022 33.8336C28.9519 33.7785 28.9846 33.7113 28.9967 33.6396C29.0087 33.5679 28.9997 33.4944 28.9705 33.4272L23.7708 21.3107L12.625 25.6287L17.8247 37.7439C17.853 37.8114 17.9003 37.8701 17.9615 37.9137C18.0227 37.9573 18.0954 37.984 18.1715 37.9908C18.2476 37.9976 18.3242 37.9843 18.3929 37.9524C18.4616 37.9205 18.5197 37.8712 18.5607 37.8099Z" fill="url(#paint0_linear_8585_3557)"/>
<path d="M16.3795 25.6329L15.775 27.0451L13.5358 32.261L13.4427 32.476L12.6386 34.3532L11.1798 37.7495C11.1518 37.8178 11.1042 37.8774 11.0425 37.9214C10.9808 37.9654 10.9073 37.9921 10.8305 37.9985C10.7536 38.005 10.6764 37.9908 10.6075 37.9578C10.5387 37.9247 10.4809 37.8739 10.4408 37.8113L7.07976 32.7528C7.03389 32.6837 6.96661 32.6298 6.8872 32.5986C6.80778 32.5674 6.72014 32.5604 6.63635 32.5785L0.51142 33.9598C0.437096 33.9766 0.359336 33.9736 0.286696 33.9511C0.214056 33.9286 0.14935 33.8875 0.0996947 33.8323C0.0500395 33.7771 0.0173589 33.71 0.00525007 33.6382C-0.00685877 33.5665 0.00207338 33.493 0.0310618 33.4258L5.23075 21.3107L16.3795 25.6329Z" fill="url(#paint1_linear_8585_3557)"/>
<g clip-path="url(#clip0_8585_3557)">
<path d="M14.0511 27.7038C21.8113 27.7038 28.1022 21.5021 28.1022 13.8519C28.1022 6.20171 21.8113 0 14.0511 0C6.29089 0 0 6.20171 0 13.8519C0 21.5021 6.29089 27.7038 14.0511 27.7038Z" fill="#FFA300"/>
<path d="M14.0527 0.784058L15.8372 2.75103L18.15 1.42402L19.2291 3.83979L21.8454 3.28017L22.1152 5.90649L24.7765 6.16968L24.2088 8.74891L26.6593 9.81273L25.3132 12.0928L27.3085 13.8519L25.3132 15.6111L26.6593 17.8912L24.2088 18.955L24.7765 21.5342L22.1152 21.7974L21.8454 24.4237L19.2291 23.8641L18.15 26.2799L15.8372 24.9529L14.0527 26.9198L12.2682 24.9529L9.95538 26.2799L8.87626 23.8641L6.25994 24.4237L5.99297 21.7974L3.32888 21.5342L3.89655 18.955L1.44604 17.8912L2.79213 15.6111L0.796875 13.8519L2.79213 12.0928L1.44604 9.81273L3.89655 8.74891L3.32888 6.16968L5.99297 5.90649L6.25994 3.28017L8.87626 3.83979L9.95538 1.42402L12.2682 2.75103L14.0527 0.784058Z" fill="#FFEC00"/>
<path d="M23.9675 16.1313C25.2383 10.7393 21.8345 5.35256 16.3649 4.09977C10.8953 2.84698 5.43117 6.20254 4.16037 11.5946C2.88956 16.9867 6.29336 22.3734 11.763 23.6262C17.2326 24.8789 22.6967 21.5234 23.9675 16.1313Z" fill="#068811"/>
<path d="M17.5746 22.0538C22.1645 20.1359 24.3082 14.9131 22.3628 10.3883C20.4173 5.86347 15.1193 3.75013 10.5295 5.66801C5.93958 7.58588 3.79585 12.8087 5.7413 17.3335C7.68676 21.8583 12.9847 23.9717 17.5746 22.0538Z" fill="#FFA300"/>
<path d="M14.6892 7.66563L16.0943 11.1674L19.9021 11.389C20.039 11.3972 20.1702 11.4457 20.2787 11.5284C20.3872 11.6111 20.4679 11.7241 20.5103 11.8526C20.5528 11.9811 20.555 12.1193 20.5167 12.2491C20.4784 12.3788 20.4013 12.4943 20.2956 12.5803L17.3477 14.9711L18.2947 18.6086C18.3293 18.7396 18.323 18.8778 18.2768 19.0052C18.2305 19.1326 18.1464 19.2433 18.0353 19.3228C17.9243 19.4024 17.7915 19.4471 17.6543 19.4512C17.5171 19.4552 17.3818 19.4184 17.2662 19.3456L14.0513 17.3204L10.8392 19.3428C10.7237 19.4163 10.5884 19.4535 10.4511 19.4497C10.3138 19.4459 10.1808 19.4011 10.0698 19.3214C9.95874 19.2416 9.8748 19.1305 9.82904 19.0028C9.78329 18.8751 9.77786 18.7367 9.81345 18.6059L10.7745 14.9684L7.82663 12.5775C7.72098 12.4917 7.64396 12.3765 7.60555 12.2469C7.56714 12.1174 7.56911 11.9794 7.61123 11.851C7.65334 11.7226 7.73364 11.6096 7.8417 11.5267C7.94977 11.4438 8.08062 11.3949 8.21725 11.3862L12.0279 11.1646L13.419 7.66286C13.4696 7.53738 13.5573 7.42981 13.6707 7.35412C13.7842 7.27843 13.9181 7.23811 14.055 7.2384C14.192 7.2387 14.3257 7.27961 14.4388 7.3558C14.5519 7.43198 14.6391 7.53993 14.6892 7.66563Z" fill="#FFEC00"/>
</g>
<defs>
<linearGradient id="paint0_linear_8585_3557" x1="13.262" y1="32.6881" x2="28.1603" y2="26.2437" gradientUnits="userSpaceOnUse">
<stop stop-color="#FF0000"/>
<stop offset="0.04" stop-color="#E10000"/>
<stop offset="0.08" stop-color="#960000"/>
<stop offset="0.29" stop-color="#F80003"/>
<stop offset="0.44" stop-color="#DC0004"/>
<stop offset="0.56" stop-color="#F80003"/>
<stop offset="0.69" stop-color="#CD0001"/>
<stop offset="0.85" stop-color="#980001"/>
<stop offset="0.96" stop-color="#E30002"/>
<stop offset="1" stop-color="#FF0002"/>
</linearGradient>
<linearGradient id="paint1_linear_8585_3557" x1="0.260155" y1="26.8287" x2="16.7963" y2="33.5319" gradientUnits="userSpaceOnUse">
<stop stop-color="#FF0000"/>
<stop offset="0.04" stop-color="#E10000"/>
<stop offset="0.08" stop-color="#960000"/>
<stop offset="0.29" stop-color="#F80003"/>
<stop offset="0.44" stop-color="#DC0004"/>
<stop offset="0.56" stop-color="#F80003"/>
<stop offset="0.69" stop-color="#CD0001"/>
<stop offset="0.85" stop-color="#980001"/>
<stop offset="0.96" stop-color="#E30002"/>
<stop offset="1" stop-color="#FF0002"/>
</linearGradient>
<clipPath id="clip0_8585_3557">
<rect width="28.1022" height="27.7038" fill="white"/>
</clipPath>
</defs>
</svg>
