<svg width="46" height="53" viewBox="0 0 46 53" fill="none" xmlns="http://www.w3.org/2000/svg">
<g clip-path="url(#clip0_7355_3916)">
<path d="M26.1619 34.4847L26.7959 33.7598H25.5L26.1619 34.4847Z" fill="white"/>
<path d="M37.7636 42.6954H30.6001C30.3017 42.6957 30.0156 42.8149 29.8045 43.0271C29.5934 43.2392 29.4746 43.5269 29.474 43.827V50.7368H2.25499V2.26317H37.7636V21.2264L40.0147 18.6536V1.13158C40.0149 0.982911 39.986 0.835649 39.9296 0.698244C39.8731 0.560839 39.7902 0.435994 39.6857 0.330866C39.5812 0.225737 39.4571 0.142395 39.3204 0.0856179C39.1838 0.0288411 39.0374 -0.000254002 38.8896 1.6705e-06H1.12604C0.978216 -0.000125845 0.831812 0.0290504 0.695199 0.0858607C0.558587 0.142671 0.434446 0.226001 0.32987 0.331091C0.225294 0.43618 0.142335 0.560968 0.0857338 0.698321C0.0291329 0.835674 -5.43666e-08 0.982902 0 1.13158V51.8684C-5.43666e-08 52.0171 0.0291329 52.1643 0.0857338 52.3017C0.142335 52.439 0.225294 52.5638 0.32987 52.6689C0.434446 52.774 0.558587 52.8573 0.695199 52.9141C0.831812 52.971 0.978216 53.0001 1.12604 53H32.0031C32.2997 52.9997 32.5844 52.8818 32.7952 52.672L36.2689 49.2054V49.2006L39.6779 45.7573C39.8876 45.5449 40.0055 45.2579 40.006 44.9586V24.8434L37.7636 27.4161V42.6954ZM31.73 50.7766V44.9586H37.723L31.73 50.7766Z" fill="black"/>
<path d="M31.7266 50.778L37.7196 44.959H31.7266V50.778Z" fill="white"/>
<path d="M34 14H10V16H34V14Z" fill="#25C5D9"/>
<path d="M34 19H6V21H34V19Z" fill="#25C5D9"/>
<path d="M6 25V27H32.0721L34 25.7277V25H6Z" fill="#25C5D9"/>
<path d="M6 30.0017V32H20.0147L19.1808 31.4719L18.1511 30.8231C18.0757 30.775 18.0259 30.7153 18.0078 30.6512C17.9897 30.587 18.004 30.5212 18.0491 30.4617C18.0941 30.4022 18.1679 30.3515 18.2615 30.3159C18.3551 30.2802 18.4646 30.2611 18.5765 30.2609L18.7156 30.2713L24.0353 31.0303C24.1453 31.0462 24.2448 31.0806 24.3215 31.129L25.6952 32H27.0301L30 30.0375V30L6 30.0017Z" fill="#25C5D9"/>
<path d="M45.8117 17.3609L43.6011 15.4044C43.4988 15.3136 43.367 15.2635 43.2306 15.2637H43.1958C43.1218 15.2683 43.0495 15.2879 42.9832 15.3212C42.9169 15.3546 42.858 15.401 42.8099 15.4578L40.0117 18.6604L37.7653 21.2263L33.5448 26.0506L31.6758 28.1856L29.6852 30.4595L26.8021 33.7591L26.1672 34.4841L25.5062 33.7591L24.1727 32.2976C24.0973 32.2142 23.9988 32.1554 23.89 32.1287L18.7258 30.8496L18.5907 30.8322C18.4821 30.8326 18.3758 30.8647 18.285 30.9246C18.1941 30.9845 18.1224 31.0697 18.0787 31.1697C18.035 31.2698 18.0211 31.3805 18.0386 31.4883C18.0562 31.5962 18.1045 31.6966 18.1777 31.7774L19.1735 32.8682L19.9831 33.7562L24.6967 38.9221C24.8894 39.1336 25.1242 39.302 25.3859 39.4162C25.6476 39.5304 25.9303 39.5879 26.2155 39.585C26.5008 39.582 26.7822 39.5187 27.0416 39.3992C27.3009 39.2796 27.5323 39.1065 27.7207 38.891L37.7653 27.4161L40.0165 24.8433L45.8619 18.1538C45.9597 18.0419 46.0094 17.8956 46 17.7469C45.9906 17.5982 45.9229 17.4594 45.8117 17.3609Z" fill="black"/>
</g>
<defs>
<clipPath id="clip0_7355_3916">
<rect width="46" height="53" fill="white"/>
</clipPath>
</defs>
</svg>
