<svg width="7" height="27" viewBox="0 0 7 27" fill="none" xmlns="http://www.w3.org/2000/svg">
<path d="M3.76 6.336C3.184 6.336 2.656 6.208 2.176 5.952C1.696 5.664 1.312 5.28 1.024 4.8C0.768 4.32 0.64 3.792 0.64 3.216C0.64 2.608 0.768 2.08 1.024 1.632C1.312 1.152 1.68 0.784 2.128 0.528C2.608 0.24 3.152 0.0959998 3.76 0.0959998C4.336 0.0959998 4.848 0.24 5.296 0.528C5.776 0.784 6.16 1.152 6.448 1.632C6.736 2.112 6.88 2.64 6.88 3.216C6.88 3.792 6.736 4.32 6.448 4.8C6.16 5.248 5.776 5.616 5.296 5.904C4.848 6.192 4.336 6.336 3.76 6.336ZM3.76 16.336C3.184 16.336 2.656 16.208 2.176 15.952C1.696 15.664 1.312 15.28 1.024 14.8C0.768 14.32 0.64 13.792 0.64 13.216C0.64 12.608 0.768 12.08 1.024 11.632C1.312 11.152 1.68 10.784 2.128 10.528C2.608 10.24 3.152 10.096 3.76 10.096C4.336 10.096 4.848 10.24 5.296 10.528C5.776 10.784 6.16 11.152 6.448 11.632C6.736 12.112 6.88 12.64 6.88 13.216C6.88 13.792 6.736 14.32 6.448 14.8C6.16 15.248 5.776 15.616 5.296 15.904C4.848 16.192 4.336 16.336 3.76 16.336ZM3.76 26.336C3.184 26.336 2.656 26.208 2.176 25.952C1.696 25.664 1.312 25.28 1.024 24.8C0.768 24.32 0.64 23.792 0.64 23.216C0.64 22.608 0.768 22.08 1.024 21.632C1.312 21.152 1.68 20.784 2.128 20.528C2.608 20.24 3.152 20.096 3.76 20.096C4.336 20.096 4.848 20.24 5.296 20.528C5.776 20.784 6.16 21.152 6.448 21.632C6.736 22.112 6.88 22.64 6.88 23.216C6.88 23.792 6.736 24.32 6.448 24.8C6.16 25.248 5.776 25.616 5.296 25.904C4.848 26.192 4.336 26.336 3.76 26.336Z" fill="black" fill-opacity="0.68"/>
</svg>
