<svg width="19" height="21" viewBox="0 0 19 21" fill="none" xmlns="http://www.w3.org/2000/svg">
<g clip-path="url(#clip0_7355_4653)">
<path d="M12.9976 9.43093C12.9976 9.43093 12.1376 10.0309 12.1576 12.8609V15.6909C12.1576 15.6909 12.1575 16.5809 10.9775 17.3909L9.75757 18.1909L8.50757 19.0209C8.35873 19.2005 8.158 19.3296 7.93286 19.3906C7.70772 19.4515 7.46923 19.4413 7.25012 19.3613C7.03101 19.2814 6.84192 19.1355 6.70898 18.9439C6.57604 18.7522 6.50572 18.5242 6.50757 18.2909V10.5109L1.64758 4.01089C1.64758 4.01089 -0.482469 1.22089 2.84753 1.01089H15.3976C15.3976 1.01089 19.9675 0.510929 16.9475 4.43093L13.9475 8.3409L12.9976 9.43093Z" stroke="black" stroke-width="2" stroke-miterlimit="10"/>
</g>
<defs>
<clipPath id="clip0_7355_4653">
<rect width="19" height="20.41" fill="white"/>
</clipPath>
</defs>
</svg>
