<svg width="28" height="27" viewBox="0 0 28 27" fill="none" xmlns="http://www.w3.org/2000/svg">
<path d="M3.1327 14.6127L9.6427 17.9377C9.8352 18.034 10.2552 18.2702 10.4914 17.8852C10.7102 17.5265 10.3427 17.2377 10.1677 17.1065L2.5902 11.3052C2.03895 10.8677 1.91645 10.019 2.33645 9.44145C2.75645 8.8377 3.63145 8.6627 4.22645 9.07395L11.9264 14.5952C12.0664 14.7002 12.4514 14.9802 12.7314 14.6565C13.0114 14.3502 12.7052 14.0002 12.5827 13.869L5.43395 6.32645C4.9177 5.7577 4.9527 4.8127 5.64395 4.17395C6.1952 3.66645 7.16645 3.64895 7.69145 4.19145L14.7177 11.5065C14.8227 11.6115 15.1464 11.944 15.4789 11.699C15.8202 11.4365 15.5752 11.0515 15.5139 10.9027L11.1477 3.6577C10.8502 3.19395 10.8414 2.2402 11.6464 1.75895C12.4777 1.26895 13.2739 1.75895 13.5802 2.2752L18.4364 10.0802C19.1277 11.2352 20.2127 12.2065 21.1752 12.6615C21.9189 13.0115 22.4964 12.5652 22.5927 11.7865C22.7414 10.579 22.9777 9.0827 23.3977 7.8227C23.8352 6.50145 25.3752 5.8452 26.6877 6.5102L26.2414 8.26895C25.7952 10.054 25.7427 11.9265 26.0489 13.7465C26.3114 15.269 26.5739 17.229 26.5389 18.9702C26.4952 21.5952 24.7277 22.7415 23.1439 24.1677C16.3102 30.3715 11.3402 21.9365 8.91645 20.7377L1.8727 16.8265C1.2777 16.4852 1.14645 15.689 1.49645 15.1115C1.8377 14.5515 2.5377 14.3065 3.1327 14.6127Z" fill="#FFE0B2"/>
<path d="M24.6375 6.47487C24.8475 6.51862 25.0487 6.57987 25.25 6.67612L24.8038 8.43487C24.3575 10.2199 24.305 12.0924 24.6112 13.9124C24.8737 15.4349 25.1363 17.3949 25.1012 19.1361C25.0575 21.7611 23.29 22.9074 21.7062 24.3336C20.4112 25.5061 19.1863 26.1536 18.0312 26.4249C19.5888 26.4511 21.295 25.8474 23.1325 24.1761C24.7162 22.7499 26.475 21.6036 26.5275 18.9786C26.5625 17.2286 26.3 15.2686 26.0375 13.7549C25.7225 11.9349 25.7837 10.0624 26.23 8.27737L26.6762 6.51862C26.0025 6.17737 25.2587 6.19487 24.6375 6.47487Z" fill="#EAC89B"/>
<path d="M24.6209 13.0465C24.8834 14.569 25.1459 16.5289 25.1109 18.2702C25.0672 20.8952 23.2997 22.0415 21.7159 23.4677C18.9859 25.9439 16.5534 26.084 14.4622 25.2877C16.8422 26.7314 19.7647 27.2477 23.1422 24.1764C24.7259 22.7502 26.4847 21.604 26.5372 18.979C26.5722 17.229 26.3097 15.269 26.0472 13.7552C25.7409 11.9352 24.3059 11.2265 24.6209 13.0465ZM6.25469 4.34895L14.0422 12.3727C14.1472 12.4777 14.4709 12.8102 14.8034 12.5652C15.1447 12.3027 14.8997 11.9177 14.8384 11.769L14.4972 11.2002L7.68969 4.2002C7.20844 3.70145 6.36844 3.6752 5.80844 4.05145C5.97469 4.12145 6.12344 4.2177 6.25469 4.34895ZM2.71969 9.28395L11.2597 15.4002C11.4172 15.514 11.8459 15.8202 12.1522 15.4615C12.4234 15.1727 12.2047 14.8402 12.0559 14.6652L4.30344 9.10895C3.78719 8.7502 3.05219 8.8027 2.54469 9.1877C2.60594 9.2227 2.66719 9.24895 2.71969 9.28395ZM12.1434 2.4327L16.9997 10.2377C17.6909 11.3927 18.7759 12.364 19.7384 12.819C20.2547 13.064 20.6922 12.9065 20.9459 12.5302C20.0447 12.0402 19.0822 11.1477 18.4347 10.0802L13.5784 2.2752C13.2722 1.75895 12.4759 1.26895 11.6447 1.75895C11.5922 1.7852 11.5572 1.8202 11.5134 1.8552C11.7847 2.00395 12.0122 2.21395 12.1434 2.4327ZM9.15094 18.7515C9.36969 18.8652 9.86844 19.1365 10.1397 18.6902C10.2447 18.5152 10.2184 18.3665 10.1572 18.2352L3.20969 14.6827C2.65844 14.4027 2.04594 14.5252 1.61719 14.9015L9.15094 18.7515Z" fill="#EAC89B"/>
<path d="M21.552 7.15669C21.3333 7.15669 21.1408 6.99044 21.1145 6.76294C20.9892 5.64269 20.5486 4.58099 19.8439 3.70121C19.1391 2.82144 18.1992 2.15972 17.1333 1.79294C17.0793 1.77456 17.0294 1.74572 16.9866 1.70806C16.9437 1.67041 16.9087 1.62468 16.8835 1.5735C16.8583 1.52231 16.8434 1.46666 16.8398 1.40973C16.8361 1.3528 16.8437 1.2957 16.862 1.24169C16.8804 1.18769 16.9093 1.13783 16.9469 1.09497C16.9846 1.05211 17.0303 1.01709 17.0815 0.9919C17.1327 0.966712 17.1883 0.951853 17.2453 0.948171C17.3022 0.94449 17.3593 0.952057 17.4133 0.970442C19.8983 1.81919 21.692 4.05919 21.9808 6.67544C22.007 6.91169 21.832 7.13044 21.5958 7.15669H21.552ZM19.4258 7.59419C19.2158 7.59419 19.0233 7.43669 18.997 7.21794C18.8939 6.53554 18.6266 5.88838 18.2181 5.33208C17.8097 4.77577 17.2722 4.32695 16.652 4.02419C16.5476 3.97314 16.4677 3.88269 16.43 3.77275C16.3923 3.6628 16.3997 3.54237 16.4508 3.43794C16.5018 3.33351 16.5923 3.25364 16.7022 3.2159C16.8122 3.17816 16.9326 3.18564 17.037 3.23669C17.7838 3.60277 18.4309 4.14413 18.9231 4.81455C19.4152 5.48497 19.7378 6.26454 19.8633 7.08669C19.8983 7.32294 19.732 7.55044 19.4958 7.58544C19.4695 7.58544 19.452 7.59419 19.4258 7.59419Z" fill="#455A64"/>
</svg>
