<svg width="20" height="20" viewBox="0 0 20 20" fill="none" xmlns="http://www.w3.org/2000/svg">
<g clip-path="url(#clip0_7355_3839)">
<path d="M17.9669 11.5182C17.8926 11.5182 17.8213 11.4883 17.7687 11.4351C17.7162 11.3819 17.6867 11.3098 17.6867 11.2346V9.12705C17.6844 7.06374 16.8735 5.08563 15.4318 3.62692C13.9902 2.16821 12.0356 1.34809 9.99716 1.34659C7.99008 1.35691 6.06569 2.15714 4.63111 3.57799C3.19653 4.99884 2.36429 6.92884 2.31046 8.95969C2.31046 9.01642 2.31046 9.07315 2.31046 9.12705V11.2346C2.31046 11.3098 2.28094 11.3819 2.22838 11.4351C2.17583 11.4883 2.10455 11.5182 2.03023 11.5182C1.95591 11.5182 1.88463 11.4883 1.83208 11.4351C1.77952 11.3819 1.75 11.3098 1.75 11.2346V9.12705C1.75 9.06748 1.75 9.00508 1.75 8.94551C1.80819 6.76691 2.7013 4.69664 4.24045 3.1726C5.77959 1.64857 7.84405 0.790285 9.99716 0.779297C12.184 0.781548 14.2807 1.66167 15.8273 3.22661C17.3739 4.79155 18.2442 6.91352 18.2471 9.12705V11.2346C18.2471 11.3098 18.2176 11.3819 18.165 11.4351C18.1125 11.4883 18.0412 11.5182 17.9669 11.5182Z" fill="#D8070A"/>
<path d="M15.1348 4.10394C12.8593 0.961123 7.13144 0.961123 4.85597 4.10394C4.44548 3.81021 4.01885 3.54031 3.57812 3.29554C6.27674 -0.72091 13.714 -0.72091 16.4155 3.29554C15.9732 3.53927 15.5456 3.8092 15.1348 4.10394Z" fill="#F4D0D2"/>
<path d="M15.1444 4.38752C15.1004 4.38796 15.0569 4.37792 15.0175 4.35821C14.978 4.3385 14.9438 4.30967 14.9174 4.27406C13.9001 2.85582 12.0618 2.03041 10.0021 2.03041C7.94245 2.03041 6.10414 2.88135 5.08971 4.27406C5.046 4.33431 4.98057 4.37467 4.90763 4.38635C4.83469 4.39804 4.76014 4.38011 4.70019 4.33646C4.2991 4.04748 3.88179 3.7823 3.45036 3.54225C3.41628 3.52329 3.38648 3.49736 3.36284 3.46611C3.3392 3.43485 3.32224 3.39896 3.31305 3.36071C3.30354 3.32221 3.30212 3.28213 3.30888 3.24304C3.31564 3.20396 3.33042 3.16674 3.35228 3.1338C4.67216 1.17095 7.1578 0.0136719 10.0021 0.0136719C12.8465 0.0136719 15.3265 1.18514 16.652 3.1338C16.6743 3.16652 16.6896 3.20364 16.6968 3.24273C16.7041 3.28182 16.7031 3.32202 16.694 3.36071C16.6848 3.39896 16.6679 3.43485 16.6442 3.46611C16.6206 3.49736 16.5908 3.52329 16.5567 3.54225C16.1251 3.78347 15.7069 4.04861 15.3041 4.33646C15.2572 4.36956 15.2015 4.38738 15.1444 4.38752ZM3.99401 3.20471C4.27424 3.36639 4.55447 3.53941 4.80387 3.71811C5.95001 2.29987 7.8864 1.46311 10.0021 1.46311C12.1179 1.46311 14.0543 2.31405 15.2004 3.71811C15.4638 3.53658 15.7356 3.36639 16.0103 3.20471C14.7548 1.54821 12.5354 0.566784 10.0021 0.566784C7.46886 0.566784 5.24944 1.54821 3.99401 3.20471Z" fill="#D8070A"/>
<path d="M15.1444 4.38752C15.1004 4.38796 15.0569 4.37792 15.0175 4.35821C14.978 4.3385 14.9438 4.30967 14.9174 4.27406C13.9001 2.85582 12.0618 2.03041 10.0021 2.03041C7.94245 2.03041 6.10414 2.88135 5.08971 4.27406C5.046 4.33431 4.98057 4.37467 4.90763 4.38635C4.83469 4.39804 4.76014 4.38011 4.70019 4.33646C4.2991 4.04748 3.88179 3.7823 3.45036 3.54225C3.41628 3.52329 3.38648 3.49736 3.36284 3.46611C3.3392 3.43485 3.32224 3.39896 3.31305 3.36071C3.30354 3.32221 3.30212 3.28213 3.30888 3.24304C3.31564 3.20396 3.33042 3.16674 3.35228 3.1338C4.67216 1.17095 7.1578 0.0136719 10.0021 0.0136719C12.8465 0.0136719 15.3265 1.18514 16.652 3.1338C16.6743 3.16652 16.6896 3.20364 16.6968 3.24273C16.7041 3.28182 16.7031 3.32202 16.694 3.36071C16.6848 3.39896 16.6679 3.43485 16.6442 3.46611C16.6206 3.49736 16.5908 3.52329 16.5567 3.54225C16.1251 3.78347 15.7069 4.04861 15.3041 4.33646C15.2572 4.36956 15.2015 4.38738 15.1444 4.38752ZM3.99401 3.20471C4.27424 3.36639 4.55447 3.53941 4.80387 3.71811C5.95001 2.29987 7.8864 1.46311 10.0021 1.46311C12.1179 1.46311 14.0543 2.31405 15.2004 3.71811C15.4638 3.53658 15.7356 3.36639 16.0103 3.20471C14.7548 1.54821 12.5354 0.566784 10.0021 0.566784C7.46886 0.566784 5.24944 1.54821 3.99401 3.20471Z" fill="#D8070A"/>
<path d="M12.0224 19.4166C11.9481 19.4166 11.8768 19.3867 11.8243 19.3335C11.7717 19.2803 11.7422 19.2082 11.7422 19.1329C11.7422 19.0577 11.7717 18.9856 11.8243 18.9324C11.8768 18.8792 11.9481 18.8493 12.0224 18.8493C14.7014 18.8493 16.5902 18.2593 17.4869 17.1474C17.7097 16.8797 17.8747 16.5678 17.9712 16.2317C18.0677 15.8956 18.0937 15.5428 18.0474 15.1959C18.04 15.1594 18.0398 15.1218 18.0468 15.0852C18.0538 15.0486 18.0678 15.0138 18.0881 14.9827C18.1084 14.9516 18.1346 14.9249 18.1651 14.9041C18.1956 14.8832 18.2299 14.8687 18.2659 14.8612C18.302 14.8538 18.3392 14.8536 18.3753 14.8606C18.4114 14.8677 18.4458 14.8819 18.4766 14.9025C18.5073 14.923 18.5337 14.9495 18.5543 14.9804C18.5749 15.0113 18.5893 15.0459 18.5966 15.0825C18.6596 15.5114 18.6323 15.949 18.5163 16.3665C18.4004 16.7839 18.1986 17.1719 17.9241 17.5048C16.9012 18.7727 14.9172 19.4166 12.0224 19.4166Z" fill="#D8070A"/>
<path d="M19.7223 13.3336C19.7223 11.6913 19.0498 10.3581 18.2203 10.3496H17.6794V10.534C17.0685 10.9509 16.5781 12.0458 16.5781 13.3336C16.5781 14.6213 17.0685 15.7162 17.6794 16.1332V16.3176H18.2203C19.0498 16.3062 19.7223 14.9759 19.7223 13.3336Z" fill="#F4D0D2"/>
<path d="M18.2193 16.6016H17.6784C17.6041 16.6016 17.5328 16.5718 17.4803 16.5186C17.4277 16.4654 17.3982 16.3932 17.3982 16.318V16.2755C16.734 15.728 16.2969 14.5736 16.2969 13.334C16.2969 12.0945 16.734 10.94 17.3982 10.3926V10.3501C17.3982 10.2748 17.4277 10.2027 17.4803 10.1495C17.5328 10.0963 17.6041 10.0664 17.6784 10.0664H18.2389C19.2225 10.1061 19.9903 11.53 19.9903 13.334C19.9903 15.138 19.2085 16.5903 18.2108 16.6016H18.2193ZM17.939 16.0344H18.2193C18.7993 16.0344 19.4439 14.9139 19.4439 13.334C19.4439 11.7541 18.7965 10.6394 18.2193 10.6337H17.939C17.9192 10.6888 17.883 10.7364 17.8353 10.7699C17.3645 11.0904 16.8573 12.0293 16.8573 13.3227C16.8573 14.6161 17.3645 15.5663 17.8353 15.8755C17.8869 15.9148 17.9236 15.9709 17.939 16.0344Z" fill="#D8070A"/>
<path d="M18.2546 15.6892C18.2712 15.8577 18.2217 16.0261 18.1169 16.1582C18.0121 16.2903 17.8603 16.3755 17.6941 16.3954H17.1337C16.9678 16.3748 16.8164 16.2894 16.7117 16.1575C16.6071 16.0256 16.5574 15.8576 16.5732 15.6892V10.9778C16.5574 10.8093 16.6071 10.6413 16.7117 10.5094C16.8164 10.3775 16.9678 10.2921 17.1337 10.2715H17.6941C17.8603 10.2915 18.0121 10.3766 18.1169 10.5087C18.2217 10.6408 18.2712 10.8092 18.2546 10.9778V15.6892Z" fill="#F4D0D2"/>
<path d="M17.7001 16.6776H17.1397C16.8992 16.6573 16.6763 16.5421 16.519 16.3569C16.3617 16.1717 16.2827 15.9313 16.299 15.6876V10.9763C16.2827 10.7326 16.3617 10.4922 16.519 10.307C16.6763 10.1218 16.8992 10.0066 17.1397 9.98633H17.7001C17.9408 10.0059 18.1642 10.1209 18.3216 10.3063C18.4791 10.4916 18.5578 10.7324 18.5408 10.9763V15.6848C18.5586 15.9291 18.4802 16.1706 18.3227 16.3566C18.1652 16.5426 17.9414 16.658 17.7001 16.6776ZM17.1397 10.5565C16.9911 10.5565 16.8594 10.7522 16.8594 10.9791V15.6876C16.8594 15.9117 16.9911 16.1103 17.1397 16.1103H17.7001C17.8486 16.1103 17.9803 15.9117 17.9803 15.6876V10.9763C17.9803 10.7493 17.8514 10.5536 17.7001 10.5536L17.1397 10.5565Z" fill="#D8070A"/>
<path d="M0.28125 13.3336C0.28125 11.6913 0.950999 10.3581 1.78048 10.3496H2.32132V10.534C2.93503 10.9509 3.42263 12.0458 3.42263 13.3336C3.42263 14.6213 2.93503 15.7162 2.32132 16.1332V16.3176H1.78048C0.950999 16.3062 0.28125 14.9759 0.28125 13.3336Z" fill="#F4D0D2"/>
<path d="M2.3203 16.6016H1.77946C0.779038 16.6016 0 15.155 0 13.334C0 11.513 0.765027 10.1061 1.74863 10.0664H2.30909C2.38341 10.0664 2.45469 10.0963 2.50725 10.1495C2.5598 10.2027 2.58932 10.2748 2.58932 10.3501V10.3926C3.25347 10.94 3.69063 12.0945 3.69063 13.334C3.69063 14.5736 3.25347 15.728 2.58932 16.2755V16.318C2.58938 16.3913 2.5614 16.4618 2.51125 16.5147C2.46109 16.5675 2.39266 16.5987 2.3203 16.6016ZM1.80468 10.645H1.78226C1.20499 10.645 0.56046 11.7626 0.56046 13.3454C0.56046 14.9281 1.20499 16.0372 1.78226 16.0457H2.06249C2.08231 15.9906 2.11853 15.943 2.16617 15.9096C2.63696 15.589 3.14418 14.6473 3.14418 13.3567C3.14418 12.0661 2.63696 11.1131 2.16617 10.8039C2.11853 10.7705 2.08231 10.7229 2.06249 10.6677L1.80468 10.645Z" fill="#D8070A"/>
<path d="M1.74533 15.6892C1.72875 15.8577 1.77817 16.0261 1.88298 16.1582C1.98778 16.2903 2.1396 16.3755 2.30579 16.3954H2.86625C3.03215 16.3748 3.18353 16.2894 3.2882 16.1575C3.39287 16.0256 3.44256 15.8576 3.42671 15.6892V10.9778C3.44256 10.8093 3.39287 10.6413 3.2882 10.5094C3.18353 10.3775 3.03215 10.2921 2.86625 10.2715H2.30579C2.1396 10.2915 1.98778 10.3766 1.88298 10.5087C1.77817 10.6408 1.72875 10.8092 1.74533 10.9778V15.6892Z" fill="#F4D0D2"/>
<path d="M2.86437 16.6776H2.30391C2.06318 16.658 1.83982 16.543 1.68239 16.3577C1.52496 16.1723 1.4462 15.9315 1.46322 15.6876V10.9763C1.4462 10.7324 1.52496 10.4916 1.68239 10.3063C1.83982 10.1209 2.06318 10.0059 2.30391 9.98633H2.86437C3.10482 10.0066 3.32774 10.1218 3.48503 10.307C3.64231 10.4922 3.72134 10.7326 3.70506 10.9763V15.6848C3.72211 15.929 3.64343 16.1701 3.48607 16.3559C3.3287 16.5417 3.10534 16.6573 2.86437 16.6776ZM2.30391 10.5565C2.15539 10.5565 2.02368 10.7522 2.02368 10.9791V15.6876C2.02368 15.9117 2.15258 16.1103 2.30391 16.1103H2.86437C3.01289 16.1103 3.1446 15.9117 3.1446 15.6876V10.9763C3.1446 10.7493 3.01289 10.5536 2.86437 10.5536L2.30391 10.5565Z" fill="#D8070A"/>
<path d="M12.8271 19.1396C12.817 19.2976 12.7463 19.4454 12.63 19.5513C12.5138 19.6573 12.3613 19.7131 12.205 19.7069H10.078C9.92126 19.7139 9.768 19.6584 9.65117 19.5524C9.53434 19.4463 9.46324 19.2981 9.45312 19.1396V19.1226C9.46324 18.9641 9.53434 18.8159 9.65117 18.7098C9.768 18.6037 9.92126 18.5483 10.078 18.5553H12.205C12.3613 18.549 12.5138 18.6049 12.63 18.7108C12.7463 18.8168 12.817 18.9646 12.8271 19.1226V19.1396Z" fill="#F4D0D2"/>
<path d="M12.204 19.9992H10.077C9.84596 20.0061 9.62149 19.9208 9.45212 19.7615C9.28275 19.6023 9.18208 19.382 9.17188 19.1483C9.17405 19.0304 9.19924 18.9142 9.24599 18.8063C9.29273 18.6983 9.36011 18.6008 9.44424 18.5194C9.52837 18.4379 9.6276 18.3741 9.7362 18.3316C9.8448 18.2891 9.96063 18.2688 10.077 18.2718H12.204C12.4345 18.2656 12.6583 18.3513 12.8271 18.5105C12.9958 18.6696 13.0961 18.8895 13.1063 19.1227C13.1041 19.2403 13.079 19.3563 13.0325 19.4641C12.9859 19.5718 12.9188 19.6692 12.8349 19.7506C12.7511 19.832 12.6522 19.8959 12.5439 19.9386C12.4357 19.9812 12.3201 20.0018 12.204 19.9992ZM10.077 18.8306C9.99444 18.8234 9.91231 18.8489 9.848 18.9018C9.78368 18.9548 9.74221 19.0309 9.73233 19.1142C9.73446 19.1576 9.74513 19.2001 9.76369 19.2392C9.78226 19.2784 9.80836 19.3134 9.84047 19.3422C9.87257 19.371 9.91003 19.393 9.95065 19.4069C9.99127 19.4209 10.0342 19.4265 10.077 19.4234H12.204C12.2861 19.4299 12.3675 19.404 12.4312 19.3511C12.4949 19.2982 12.536 19.2225 12.5458 19.1398C12.5441 19.0965 12.5338 19.0541 12.5155 19.015C12.4972 18.9758 12.4714 18.9408 12.4395 18.912C12.4076 18.8832 12.3703 18.8611 12.3299 18.8471C12.2894 18.8331 12.2466 18.8275 12.204 18.8306H10.077Z" fill="#D8070A"/>
</g>
<defs>
<clipPath id="clip0_7355_3839">
<rect width="20" height="20" fill="white"/>
</clipPath>
</defs>
</svg>
