<svg width="53" height="53" viewBox="0 0 53 53" fill="none" xmlns="http://www.w3.org/2000/svg">
<path d="M3 0H1V50H3V0Z" fill="black"/>
<path d="M43 0H41V28H43V0Z" fill="black"/>
<path d="M42 2V0L2 0V2L42 2Z" fill="black"/>
<path d="M30 49H1V51H30V49Z" fill="black"/>
<path d="M35.0234 12.8996V11.1797L8.54479 11.1797V12.8996L35.0234 12.8996Z" fill="#25C5D9"/>
<path d="M35.0234 19.7785V18.0586H8.54479V19.7785H35.0234Z" fill="#25C5D9"/>
<path d="M35.0234 26.6594V24.9395H8.54479V26.6594H35.0234Z" fill="#25C5D9"/>
<path d="M52.9763 38.3977H50.636L52.293 36.7294L47.2535 31.6556L45.5965 33.3153V30.959H38.4558V33.3153L36.8329 31.6556L31.7934 36.7294L33.4505 38.3977H31.1016V45.5699H33.4505L31.7934 47.2296L36.8329 52.312L38.49 50.6437V52.9914H45.6136V50.6437L47.2706 52.312L52.3101 47.2296L50.6531 45.5699H52.9763V38.3977ZM42.0261 46.7738C41.0835 46.7738 40.162 46.4924 39.3782 45.9651C38.5944 45.4378 37.9835 44.6884 37.6228 43.8116C37.262 42.9347 37.1677 41.9699 37.3516 41.0391C37.5355 40.1082 37.9894 39.2532 38.656 38.5821C39.3225 37.911 40.1718 37.4539 41.0963 37.2688C42.0209 37.0836 42.9792 37.1787 43.8501 37.5419C44.721 37.905 45.4654 38.5201 45.9891 39.3092C46.5128 40.0984 46.7923 41.0261 46.7923 41.9752C46.7923 43.2449 46.2925 44.4629 45.4024 45.3623C44.5122 46.2617 43.3043 46.7693 42.0432 46.7738H42.0261Z" fill="black"/>
</svg>
