<svg width="23" height="18" viewBox="0 0 23 18" fill="none" xmlns="http://www.w3.org/2000/svg">
<g clip-path="url(#clip0_7355_5034)">
<path d="M18.9288 0H4.07698C2.9957 0 1.9587 0.443669 1.19412 1.23343C0.429539 2.02319 0 3.09434 0 4.21123V13.8038C0 14.9207 0.429539 15.9918 1.19412 16.7816C1.9587 17.5714 2.9957 18.015 4.07698 18.015H18.9288C20.0101 18.015 21.0471 17.5714 21.8117 16.7816C22.5763 15.9918 23.0058 14.9207 23.0058 13.8038V4.20521C23.0043 3.08936 22.5741 2.01978 21.8096 1.23132C21.0452 0.442859 20.0091 -1.13862e-06 18.9288 0ZM18.9288 2.19284C19.065 2.19264 19.2007 2.20778 19.3336 2.23797L11.5 10.3356L3.66637 2.24397C3.79865 2.21623 3.93327 2.20213 4.06825 2.20187L18.9288 2.19284ZM20.8654 13.7978C20.8646 14.331 20.659 14.8421 20.2938 15.2188C19.9285 15.5955 19.4334 15.8071 18.9172 15.8071H4.06533C3.54914 15.8071 3.05405 15.5955 2.68877 15.2188C2.32349 14.8421 2.11789 14.331 2.11712 13.7978V4.20521C2.11814 4.06468 2.13277 3.92461 2.1608 3.78709L11.4971 13.4128L20.8159 3.78709C20.8439 3.92461 20.8586 4.06468 20.8596 4.20521L20.8654 13.7978Z" fill="black"/>
</g>
<defs>
<clipPath id="clip0_7355_5034">
<rect width="23" height="18" fill="white"/>
</clipPath>
</defs>
</svg>
