<svg width="17" height="17" viewBox="0 0 17 17" fill="none" xmlns="http://www.w3.org/2000/svg">
<path d="M13.5504 16.9999C12.3115 16.9999 10.8447 16.5831 9.30823 15.7944C7.70637 14.9721 6.09961 13.7775 4.6617 12.3395C2.75621 10.4339 1.29392 8.24789 0.544001 6.18402C-0.174828 4.20541 -0.181536 2.51703 0.525427 1.42976C0.674175 1.20299 0.878416 1.018 1.11875 0.892374L2.70926 0.0556023C2.80769 0.00388787 2.92091 -0.0124027 3.02993 0.00946303C3.13895 0.0313288 3.23713 0.0900211 3.30801 0.175694L5.78283 3.16638C5.86014 3.25916 5.89987 3.37754 5.89418 3.49818C5.8885 3.61882 5.83782 3.73294 5.75213 3.81804L4.79765 4.77259C4.6449 4.92582 4.54288 5.12226 4.50537 5.33534C4.46787 5.54843 4.49668 5.7679 4.58792 5.96409C4.91528 6.66387 5.70466 8.07801 7.31374 9.68719C8.92282 11.2964 10.337 12.0864 11.0367 12.4134C11.2328 12.5051 11.4524 12.5342 11.6656 12.4967C11.8788 12.4591 12.0753 12.3568 12.2283 12.2037L13.1828 11.2492C13.2681 11.1639 13.3821 11.1135 13.5025 11.1078C13.623 11.1021 13.7412 11.1416 13.8342 11.2185L16.8249 13.6928C16.9102 13.7639 16.9687 13.8621 16.9905 13.9711C17.0123 14.08 16.9961 14.1932 16.9447 14.2917L16.1081 15.8823C15.9824 16.1226 15.7974 16.3269 15.5707 16.4757C15.0363 16.8237 14.3565 16.9999 13.5504 16.9999Z" fill="black"/>
</svg>
