<svg width="53" height="53" viewBox="0 0 53 53" fill="none" xmlns="http://www.w3.org/2000/svg">
<g clip-path="url(#clip0_7355_3907)">
<path d="M2.07216 0H0V48.9359H2.07216V0Z" fill="#272425"/>
<path d="M42.9237 0H40.8516V27.5118H42.9237V0Z" fill="#272425"/>
<path d="M42.9062 2.06493V0.0078125L-0.00252151 0.0078125V2.06493L42.9062 2.06493Z" fill="#272425"/>
<path d="M28.6395 47.7246H0V49.7817H28.6395V47.7246Z" fill="#272425"/>
<path d="M34.5391 10.7879V7.89453L8.37599 7.89453V10.7879L34.5391 10.7879Z" fill="#7EC5FB"/>
<path d="M34.5391 19.1492V16.2559H8.37599V19.1492H34.5391Z" fill="#7EC5FB"/>
<path d="M34.5391 27.5125V24.6191H8.376V27.5125H34.5391Z" fill="#7EC5FB"/>
<path d="M41.4685 30.1133C39.1881 30.1149 36.9594 30.7878 35.0642 32.0467C33.1689 33.3056 31.6922 35.0941 30.8207 37.1861C29.9492 39.2781 29.722 41.5796 30.1679 43.7997C30.6138 46.0198 31.7128 48.0589 33.3258 49.6591C34.9389 51.2593 36.9936 52.3488 39.2303 52.7898C41.467 53.2308 43.7852 53.0036 45.8918 52.1369C47.9985 51.2702 49.799 49.8029 51.0657 47.9205C52.3325 46.0381 53.0086 43.825 53.0086 41.5612C53.0086 40.0571 52.71 38.5678 52.13 37.1784C51.5499 35.7889 50.6998 34.5265 49.6281 33.4633C48.5564 32.4002 47.2841 31.5571 45.8841 30.9823C44.484 30.4075 42.9836 30.1122 41.4685 30.1133ZM47.2722 44.3291C47.4736 44.5217 47.6344 44.7521 47.7451 45.007C47.8558 45.2619 47.9143 45.5362 47.9171 45.8137C47.9199 46.0913 47.867 46.3667 47.7615 46.6237C47.656 46.8808 47.4999 47.1144 47.3025 47.311C47.1051 47.5075 46.8702 47.6631 46.6115 47.7686C46.3529 47.8741 46.0757 47.9273 45.7961 47.9253C45.5165 47.9233 45.2401 47.866 44.983 47.7568C44.7259 47.6477 44.4933 47.4887 44.2988 47.2894L41.4685 44.4796L38.6383 47.2894C38.2406 47.6697 37.7083 47.8797 37.1561 47.8741C36.604 47.8686 36.0761 47.648 35.6862 47.2598C35.2963 46.8717 35.0756 46.347 35.0716 45.7988C35.0676 45.2507 35.2806 44.7229 35.6648 44.3291L38.4866 41.5194L35.6648 38.7097C35.3062 38.3114 35.1147 37.7919 35.1298 37.2579C35.1448 36.7239 35.3652 36.2159 35.7458 35.8382C36.1263 35.4604 36.638 35.2416 37.1759 35.2267C37.7138 35.2117 38.2371 35.4018 38.6383 35.7578L41.4685 38.5675L44.2988 35.7578C44.7 35.4018 45.2232 35.2117 45.7611 35.2267C46.2991 35.2416 46.8108 35.4604 47.1913 35.8382C47.5718 36.2159 47.7922 36.7239 47.8073 37.2579C47.8223 37.7919 47.6309 38.3114 47.2722 38.7097L44.4504 41.5194L47.2722 44.3291Z" fill="#272425"/>
</g>
<defs>
<clipPath id="clip0_7355_3907">
<rect width="53" height="53" fill="white"/>
</clipPath>
</defs>
</svg>
