<svg width="18" height="18" viewBox="0 0 18 18" fill="none" xmlns="http://www.w3.org/2000/svg">
<g clip-path="url(#clip0_7355_3855)">
<path d="M3.9375 3.375H8.4375V4.5H3.9375V3.375ZM3.9375 12.9375H6.1875V11.8125H3.9375V12.9375ZM3.9375 7.3125H9V6.1875H3.9375V7.3125ZM3.9375 10.125H6.75V9H3.9375V10.125ZM9 16.3125V17.4375H1.6875C1.23995 17.4375 0.810728 17.2597 0.49426 16.9432C0.177793 16.6268 0 16.1976 0 15.75V3.375C0 2.92745 0.177793 2.49823 0.49426 2.18176C0.810728 1.86529 1.23995 1.6875 1.6875 1.6875V1.125C1.6875 0.826632 1.80603 0.540487 2.01701 0.329509C2.22799 0.11853 2.51413 3.5871e-07 2.8125 3.5871e-07H10.2206C10.5177 -0.000236713 10.8028 0.117046 11.0138 0.326251L14.8556 4.16813C14.9609 4.27279 15.0444 4.39724 15.1014 4.53433C15.1584 4.67142 15.1876 4.81843 15.1875 4.96688V6.75H14.0625V5.625H11.25C10.8025 5.625 10.3732 5.44721 10.0568 5.13074C9.74029 4.81428 9.5625 4.38505 9.5625 3.9375V1.125H2.8125V14.625H7.3125V15.75H2.8125C2.51413 15.75 2.22799 15.6315 2.01701 15.4205C1.80603 15.2095 1.6875 14.9234 1.6875 14.625V2.8125C1.53832 2.8125 1.39525 2.87177 1.28976 2.97726C1.18427 3.08275 1.125 3.22582 1.125 3.375V15.75C1.125 15.8992 1.18427 16.0423 1.28976 16.1477C1.39525 16.2532 1.53832 16.3125 1.6875 16.3125H9ZM10.6875 1.59188V3.9375C10.6875 4.08668 10.7468 4.22976 10.8523 4.33525C10.9577 4.44074 11.1008 4.5 11.25 4.5H13.5956L10.6875 1.59188ZM10.125 11.8125C10.125 11.3649 10.3028 10.9357 10.6193 10.6193C10.9357 10.3028 11.365 10.125 11.8125 10.125C11.9617 10.125 12.1048 10.0657 12.2103 9.96025C12.3157 9.85476 12.375 9.71168 12.375 9.5625C12.375 9.41332 12.3157 9.27024 12.2103 9.16475C12.1048 9.05926 11.9617 9 11.8125 9C11.0666 9 10.3512 9.29631 9.82376 9.82376C9.29632 10.3512 9 11.0666 9 11.8125C9 11.9617 9.05927 12.1048 9.16475 12.2102C9.27024 12.3157 9.41332 12.375 9.5625 12.375C9.71169 12.375 9.85476 12.3157 9.96025 12.2102C10.0657 12.1048 10.125 11.9617 10.125 11.8125ZM17.8313 17.0381C17.9102 17.1165 17.9642 17.2165 17.9864 17.3255C18.0085 17.4345 17.9979 17.5477 17.9557 17.6506C17.9136 17.7536 17.8418 17.8417 17.7496 17.9039C17.6574 17.9661 17.5487 17.9995 17.4375 18C17.3631 17.9997 17.2895 17.9846 17.2209 17.9557C17.1523 17.9267 17.0902 17.8844 17.0381 17.8312L14.5687 15.3619C13.6646 16.0642 12.5269 16.3955 11.387 16.2884C10.2472 16.1813 9.1911 15.6437 8.4337 14.7852C7.6763 13.9268 7.27458 12.8119 7.31034 11.6676C7.3461 10.5233 7.81664 9.43569 8.62616 8.62617C9.43568 7.81664 10.5233 7.34609 11.6676 7.31034C12.8119 7.27458 13.9268 7.6763 14.7852 8.4337C15.6437 9.1911 16.1813 10.2472 16.2884 11.387C16.3955 12.5269 16.0642 13.6647 15.3619 14.5688L17.8313 17.0381ZM15.1875 11.8125C15.1875 11.145 14.9896 10.4925 14.6187 9.93745C14.2479 9.38244 13.7208 8.94985 13.1041 8.69441C12.4874 8.43896 11.8088 8.37213 11.1541 8.50235C10.4994 8.63258 9.89802 8.95402 9.42601 9.42602C8.95401 9.89802 8.63257 10.4994 8.50235 11.1541C8.37212 11.8088 8.43897 12.4874 8.69441 13.1041C8.94986 13.7208 9.38244 14.2479 9.93745 14.6187C10.4925 14.9896 11.145 15.1875 11.8125 15.1875C12.2557 15.1875 12.6946 15.1002 13.1041 14.9306C13.5135 14.761 13.8856 14.5124 14.199 14.199C14.5124 13.8856 14.761 13.5135 14.9306 13.1041C15.1002 12.6946 15.1875 12.2557 15.1875 11.8125Z" fill="black"/>
</g>
<defs>
<clipPath id="clip0_7355_3855">
<rect width="18" height="18" fill="white"/>
</clipPath>
</defs>
</svg>
