<svg width="54" height="51" viewBox="0 0 54 51" fill="none" xmlns="http://www.w3.org/2000/svg">
<g clip-path="url(#clip0_7355_3870)">
<path d="M32.3653 50.1069H0.890625V0.892578H39.9869V42.4878" stroke="black" stroke-width="1.5" stroke-miterlimit="10"/>
<path d="M28.3984 46.7089V39.0898H36.026" stroke="black" stroke-width="1.5" stroke-miterlimit="10"/>
<path d="M7.82812 13.0294L9.66206 14.8687L13.8837 10.6484" stroke="#2BB8E4" stroke-miterlimit="10"/>
<path d="M7.82812 19.5958L9.66206 21.4291L13.8837 17.2148" stroke="#2BB8E4" stroke-miterlimit="10"/>
<path d="M7.82812 26.1603L9.66206 27.9937L13.8837 23.7734" stroke="#2BB8E4" stroke-miterlimit="10"/>
<path d="M7.82812 32.7267L9.66206 34.5601L13.8837 30.3398" stroke="#2BB8E4" stroke-miterlimit="10"/>
<path d="M16.4531 13.8027H21.7942" stroke="black" stroke-width="1.5" stroke-miterlimit="10"/>
<path d="M25.2969 13.8027H33.8652" stroke="black" stroke-width="1.5" stroke-miterlimit="10"/>
<path d="M16.4531 19.75H26.9626" stroke="black" stroke-width="1.5" stroke-miterlimit="10"/>
<path d="M29.5859 19.75H33.8671" stroke="black" stroke-width="1.5" stroke-miterlimit="10"/>
<path d="M16.4531 25.8867H20.0972" stroke="black" stroke-width="1.5" stroke-miterlimit="10"/>
<path d="M21.7109 25.8867H27.3318" stroke="black" stroke-width="1.5" stroke-miterlimit="10"/>
<path d="M30.1562 25.8867H33.8718" stroke="black" stroke-width="1.5" stroke-miterlimit="10"/>
<path d="M33.8663 32.4473H28.5312" stroke="black" stroke-width="1.5" stroke-miterlimit="10"/>
<path d="M25.0214 32.4473H16.4531" stroke="black" stroke-width="1.5" stroke-miterlimit="10"/>
<path opacity="0.9" d="M23.4448 39.416H8.04688V44.9101H23.4448V39.416Z" fill="black"/>
<path d="M47.6641 35.584V7.83398H53.1063V35.584" stroke="black" stroke-width="1.5" stroke-miterlimit="10"/>
<path d="M50.3828 17.5469V35.5826" stroke="black" stroke-width="3" stroke-miterlimit="10"/>
<path d="M53.1063 41.1488L50.3852 47.2262L47.6641 41.1488V39H53.1063V41.1488Z" fill="black"/>
<path d="M53.1035 0.892578H47.2266V4.80924H53.1035V0.892578Z" fill="black"/>
</g>
<defs>
<clipPath id="clip0_7355_3870">
<rect width="54" height="51" fill="white"/>
</clipPath>
</defs>
</svg>
