<svg width="59" height="63" viewBox="0 0 59 63" fill="none" xmlns="http://www.w3.org/2000/svg">
<g clip-path="url(#clip0_7355_3904)">
<path d="M13.1335 31.0489C15.3373 33.2486 18.2804 34.5484 21.3894 34.6949C24.4985 34.8414 27.5506 33.8241 29.9511 31.8412C32.3516 29.8584 33.9285 27.0521 34.3745 23.9691C34.8205 20.8861 34.1036 17.7474 32.3636 15.1646C30.6236 12.5817 27.9851 10.7398 24.9623 9.99765C21.9394 9.25556 18.7488 9.66647 16.0121 11.1503C13.2755 12.6342 11.1888 15.0847 10.1588 18.0243C9.12885 20.9639 9.22929 24.182 10.4406 27.0515C11.0713 28.5458 11.9859 29.9034 13.1335 31.0489ZM21.4689 27.0187C19.8597 27.0546 18.2589 27.2622 16.6938 27.6382C16.2519 26.1313 15.9982 24.4547 15.954 22.7057H21.4689V27.0187ZM21.4689 28.12V33.5822C20.1115 33.345 18.8319 32.2337 17.8184 30.393C17.5186 29.844 17.2592 29.2739 17.0423 28.6871C18.4943 28.3456 19.9778 28.1558 21.4689 28.1207V28.12ZM22.5693 33.5822V28.1207C24.0603 28.156 25.5437 28.3461 26.9955 28.6878C26.7789 29.2747 26.5195 29.8449 26.2194 30.3937C25.2059 32.2344 23.9263 33.3446 22.5693 33.5829V33.5822ZM22.5693 27.0197V22.7064H28.0834C28.0392 24.454 27.7855 26.1303 27.344 27.6389C25.779 27.263 24.1783 27.0553 22.5693 27.0194V27.0197ZM29.1838 22.7067H33.4718C33.3698 24.9698 32.595 27.1508 31.2467 28.9703C30.3244 28.5582 29.3754 28.2085 28.4063 27.9235C28.8724 26.3214 29.1396 24.5489 29.1838 22.7064V22.7067ZM29.1838 21.6054C29.1396 19.7629 28.8724 17.9907 28.4063 16.3893C29.3755 16.1041 30.3245 15.7539 31.2467 15.3411C32.5948 17.1609 33.3695 19.342 33.4714 21.605L29.1838 21.6054ZM28.0834 21.6054H22.5693V17.2924C24.1785 17.2564 25.7792 17.0486 27.3444 16.6725C27.7855 18.1794 28.0396 19.856 28.0834 21.605V21.6054ZM22.5693 16.1896V10.7289C23.9263 10.9661 25.2063 12.077 26.2194 13.9177C26.5193 14.4666 26.7787 15.0368 26.9955 15.6236C25.5437 15.9652 24.0603 16.1549 22.5693 16.1896ZM21.4689 10.7289V16.1896C19.9777 16.1544 18.4942 15.9642 17.0423 15.6222C17.2594 15.0355 17.5188 14.4653 17.8184 13.9163C18.8322 12.077 20.1115 10.9661 21.4689 10.7289ZM21.4689 17.2913V21.605H15.9544C15.9986 19.8574 16.2523 18.1794 16.6942 16.6725C18.2592 17.0486 19.8598 17.2563 21.4689 17.2924V17.2913ZM14.8547 21.605H10.5664C10.6681 19.3419 11.4427 17.1607 12.7911 15.3411C13.7134 15.7538 14.6625 16.1039 15.6319 16.389C15.1654 17.9904 14.8985 19.7626 14.8547 21.605ZM14.8547 22.7064C14.8992 24.5489 15.1661 26.3214 15.6326 27.9228C14.6633 28.2079 13.7142 28.5579 12.7918 28.9703C11.4434 27.1507 10.6687 24.9695 10.5671 22.7064H14.8547ZM13.9114 30.2703C13.776 30.1345 13.6443 29.996 13.5162 29.8548C14.317 29.51 15.1382 29.2146 15.975 28.9703C16.2182 29.6436 16.5126 30.2972 16.8556 30.9255C17.3188 31.7668 17.8391 32.479 18.4021 33.0511C16.7087 32.4882 15.1706 31.5358 13.9114 30.2703ZM25.6353 33.0522C26.1987 32.4815 26.7186 31.7682 27.1819 30.9265C27.525 30.2983 27.8195 29.6447 28.0628 28.9714C28.8996 29.2157 29.7208 29.511 30.5216 29.8559C30.3935 29.9971 30.2617 30.1356 30.126 30.2714C28.8671 31.5364 27.3294 32.4884 25.6364 33.0511L25.6353 33.0522ZM30.1253 14.0426C30.261 14.1781 30.3928 14.3166 30.5209 14.4581C29.72 14.8027 28.8989 15.0981 28.062 15.3426C27.8198 14.669 27.5264 14.015 27.1844 13.3863C26.7211 12.5446 26.2012 11.8327 25.6378 11.2603C27.3306 11.8236 28.8679 12.7761 30.1264 14.0415L30.1253 14.0426ZM18.4014 11.2607C17.8384 11.8331 17.3185 12.5446 16.8549 13.3867C16.5119 14.0149 16.2175 14.6686 15.9743 15.3418C15.1375 15.0974 14.3164 14.802 13.5155 14.4573C13.6433 14.3161 13.7751 14.1776 13.9107 14.0418C15.1698 12.7761 16.7079 11.8235 18.4014 11.2603V11.2607Z" fill="#559FD8"/>
<path d="M56.8608 26.479C56.1827 25.8002 55.3776 25.2618 54.4915 24.8944C53.6054 24.5271 52.6557 24.338 51.6966 24.338C50.7375 24.338 49.7878 24.5271 48.9018 24.8944C48.0157 25.2618 47.2106 25.8002 46.5324 26.479C45.9052 27.1067 45.4277 27.7808 45.1116 28.4824C44.807 29.16 44.5365 29.8865 44.2504 30.6579C44.1791 30.8482 44.1078 31.0384 44.0365 31.2286V2.35106C44.0358 1.72726 43.7877 1.12926 43.3467 0.688436C42.9057 0.247609 42.3079 -4.58257e-07 41.6846 0H4.47931C3.29173 0.00132161 2.15316 0.474075 1.31342 1.31454C0.47367 2.155 0.00132048 3.29454 0 4.48314V52.4652C0.00132048 53.6538 0.47367 54.7933 1.31342 55.6338C2.15316 56.4742 3.29173 56.947 4.47931 56.9483H41.6871C42.3104 56.9483 42.9082 56.7007 43.3492 56.2599C43.7902 55.819 44.0383 55.2211 44.039 54.5972V53.5341L44.4481 53.9435C44.5513 54.0467 44.6912 54.1047 44.8371 54.1047C44.983 54.1047 45.1229 54.0467 45.226 53.9435L48.4435 50.7233C48.5897 50.577 48.7057 50.4033 48.7848 50.2121C48.8639 50.0209 48.9046 49.816 48.9046 49.6091C48.9046 49.4022 48.8639 49.1973 48.7848 49.0061C48.7057 48.8149 48.5897 48.6412 48.4435 48.4949L45.9758 46.0251C45.9402 45.4605 45.9847 43.5132 47.9033 41.5926C49.0354 40.4591 50.8909 39.7694 52.6851 39.1024C53.4566 38.8171 54.1854 38.545 54.861 38.2397C55.5623 37.9237 56.2358 37.4451 56.863 36.8174C58.2325 35.4463 59.0018 33.5869 59.0018 31.6482C59.0018 29.7095 58.2325 27.8501 56.863 26.479H56.8608ZM42.9369 54.5972C42.9359 54.9285 42.8038 55.2459 42.5695 55.4799C42.3352 55.7139 42.0178 55.8453 41.6868 55.8455H4.47931C3.58348 55.8449 2.7245 55.4886 2.09079 54.8549C1.45708 54.2212 1.1004 53.3618 1.09898 52.4652V4.48278C1.10049 3.58625 1.45722 2.72693 2.09092 2.09329C2.72462 1.45965 3.58355 1.10343 4.47931 1.10277H41.6871C42.0181 1.10296 42.3355 1.23445 42.5699 1.46842C42.8042 1.7024 42.9363 2.01979 42.9372 2.35106V33.784C42.598 34.4213 42.2149 34.9931 41.7613 35.4478C40.8201 36.3897 39.7632 36.9978 38.6197 37.255C38.1979 37.3534 37.7646 37.3936 37.3318 37.3744L34.8655 34.9064C34.5701 34.6113 34.1697 34.4455 33.7523 34.4455C33.3349 34.4455 32.9345 34.6113 32.6391 34.9064L29.4216 38.1266C29.3185 38.2299 29.2606 38.3699 29.2606 38.5159C29.2606 38.6619 29.3185 38.8019 29.4216 38.9052L30.3837 39.8682H9.9849C9.83898 39.8682 9.69903 39.9262 9.59585 40.0295C9.49267 40.1327 9.4347 40.2728 9.4347 40.4188V45.0746C9.4347 45.2206 9.49267 45.3607 9.59585 45.464C9.69903 45.5673 9.83898 45.6253 9.9849 45.6253H34.052C34.1979 45.6253 34.3379 45.5673 34.4411 45.464C34.5442 45.3607 34.6022 45.2206 34.6022 45.0746V44.0913L42.9369 52.4331V54.5972ZM33.5018 42.9903V44.5239H10.5351V40.9695H31.4827L33.5018 42.9903ZM47.8024 49.6077C47.8025 49.67 47.7903 49.7318 47.7664 49.7894C47.7426 49.847 47.7076 49.8993 47.6635 49.9433L44.8351 52.774L30.5872 38.5157L33.4159 35.6846C33.5049 35.5959 33.6255 35.5461 33.7511 35.5461C33.8767 35.5461 33.9972 35.5959 34.0862 35.6846L47.6631 49.2731C47.7072 49.3169 47.7423 49.369 47.7662 49.4265C47.7901 49.4839 47.8024 49.5455 47.8024 49.6077ZM56.0836 36.0388C55.5513 36.5716 54.9875 36.9743 54.4088 37.2357C53.7674 37.5257 53.0547 37.7903 52.3021 38.0699C50.397 38.7782 48.4268 39.5104 47.125 40.814C45.6002 42.3405 45.0881 43.9026 44.9321 44.9804L38.3774 38.4202C39.4543 38.2643 41.0143 37.7521 42.5399 36.2264C43.8434 34.9217 44.5757 32.9491 45.2838 31.041C45.5635 30.2881 45.8276 29.5769 46.1169 28.9346C46.3778 28.355 46.7801 27.7908 47.3125 27.2583C48.4758 26.0942 50.0535 25.4401 51.6986 25.4401C53.3437 25.4401 54.9214 26.0942 56.0847 27.2583C58.5011 29.6793 58.5011 33.6185 56.0836 36.0388Z" fill="black"/>
</g>
<defs>
<clipPath id="clip0_7355_3904">
<rect width="59" height="63" fill="white"/>
</clipPath>
</defs>
</svg>
