<svg width="47" height="47" viewBox="0 0 47 47" fill="none" xmlns="http://www.w3.org/2000/svg">
<path d="M14.5156 7.76913C17.1586 6.24026 20.2272 5.36523 23.5 5.36523C33.4238 5.36523 41.4688 13.4101 41.4688 23.334C41.4688 33.2578 33.4238 41.3027 23.5 41.3027C13.5761 41.3027 5.53125 33.2578 5.53125 23.334C5.53125 20.0612 6.40627 16.9926 7.93515 14.3496" stroke="#C7161E" stroke-width="2.875" stroke-linecap="round"/>
<path d="M28.5823 36.0399C27.9149 37.7084 27.1225 39.0318 26.2505 39.935C25.3785 40.8379 24.4439 41.3027 23.5 41.3027C22.5561 41.3027 21.6215 40.8379 20.7495 39.935C19.8774 39.0318 19.0851 37.7084 18.4177 36.0399C17.7503 34.3713 17.2208 32.3904 16.8596 30.2103C16.4984 28.0303 16.3125 25.6936 16.3125 23.334C16.3125 20.9743 16.4984 18.6377 16.8596 16.4576C17.2208 14.2776 17.7503 12.2967 18.4177 10.6282C19.0851 8.95961 19.8774 7.63604 20.7495 6.73303C21.6215 5.83001 22.5561 5.36523 23.5 5.36523C24.4439 5.36523 25.3785 5.83001 26.2505 6.73302C27.1225 7.63604 27.9149 8.95961 28.5823 10.6282C29.2498 12.2967 29.7792 14.2776 30.1404 16.4576C30.5015 18.6377 30.6875 20.9743 30.6875 23.334C30.6875 25.6936 30.5015 28.0303 30.1404 30.2103" stroke="#C7161E" stroke-width="2.875" stroke-linecap="round"/>
<path d="M5.53125 23.334H19.9063M41.4688 23.334H27.0938" stroke="#C7161E" stroke-width="2.875" stroke-linecap="round"/>
</svg>
