<svg width="47" height="47" viewBox="0 0 47 47" fill="none" xmlns="http://www.w3.org/2000/svg">
<path d="M41.4688 23.667C41.4688 30.4434 41.4687 33.8317 39.3635 35.9368C37.2585 38.042 33.8701 38.042 27.0938 38.042H19.9062C13.1298 38.042 9.7416 38.042 7.63641 35.9368C5.53125 33.8317 5.53125 30.4434 5.53125 23.667C5.53125 16.8905 5.53125 13.5023 7.63641 11.3972C9.7416 9.29199 13.1298 9.29199 19.9062 9.29199H27.0938C33.8701 9.29199 37.2585 9.29199 39.3635 11.3972C40.5372 12.5708 41.0565 14.1434 41.2864 16.4795" stroke="#C7161E" stroke-width="2.875" stroke-linecap="round"/>
<path d="M34.2812 16.4795L30.402 19.7122C27.1018 22.4624 25.4516 23.8375 23.5 23.8375C22.3333 23.8375 21.2744 23.3461 19.9062 22.3632M12.7188 16.4795L14.3359 17.8271L15.9531 19.1748" stroke="#C7161E" stroke-width="2.875" stroke-linecap="round"/>
</svg>
