<svg width="47" height="46" viewBox="0 0 47 46" fill="none" xmlns="http://www.w3.org/2000/svg">
<path d="M9.13677 15.6923C9.00679 19.1209 9.87453 24.9437 15.7154 30.7846C17.1245 32.1937 18.5326 33.3133 19.9063 34.1994M11.8883 10.3091C14.3912 7.80613 18.3846 8.14243 19.9738 10.99L21.14 13.0796C22.1924 14.9654 21.77 17.4392 20.1124 19.0968C20.1122 19.097 18.102 21.1075 21.7472 24.7529C25.3912 28.3969 27.4017 26.3891 27.4032 26.3876C29.0608 24.73 31.5346 24.3076 33.4204 25.36L35.51 26.5262C38.3576 28.1153 38.6938 32.1087 36.191 34.6118C34.687 36.1157 32.8445 37.2861 30.8077 37.3631C29.3451 37.4187 27.4465 37.2925 25.2969 36.6762" stroke="#C7161E" stroke-width="2.875" stroke-linecap="round"/>
</svg>
