<svg width="617" height="420" viewBox="0 0 617 420" fill="none" xmlns="http://www.w3.org/2000/svg">
<path d="M207.189 169.9C195.676 151.562 189.029 129.842 189.029 106.578" stroke="#FE9700" stroke-width="2.37385" stroke-miterlimit="10"/>
<path d="M260.067 215.597C238.227 205.923 219.83 189.9 207.189 169.9" stroke="#25C5D9" stroke-width="3.56077" stroke-miterlimit="10"/>
<path d="M356.741 215.301C341.905 221.948 325.407 225.686 308.077 225.686C290.986 225.686 274.725 222.066 260.066 215.598" stroke="#42A4F5" stroke-width="7.12154" stroke-miterlimit="10"/>
<path d="M408.017 171.385C395.555 190.494 377.81 205.865 356.742 215.301" stroke="#EB407A" stroke-width="5.93461" stroke-miterlimit="10"/>
<path d="M427.125 106.578C427.125 130.495 420.122 152.749 408.016 171.384" stroke="#673BB6" stroke-width="1.18692" stroke-miterlimit="10"/>
<path d="M429.262 106.638C429.262 107.766 428.313 108.716 427.126 108.716C425.998 108.716 425.049 107.766 425.049 106.638C425.049 105.451 425.998 104.502 427.126 104.502C428.313 104.502 429.262 105.451 429.262 106.638Z" fill="white" stroke="#673BB6" stroke-width="1.18692" stroke-miterlimit="10"/>
<path d="M192.056 106.638C192.056 108.359 190.691 109.724 188.97 109.724C187.249 109.724 185.824 108.359 185.824 106.638C185.824 104.916 187.249 103.492 188.97 103.492C190.691 103.492 192.056 104.916 192.056 106.638Z" fill="#FE9700"/>
<path d="M412.289 171.384C412.289 173.699 410.39 175.598 408.016 175.598C405.702 175.598 403.803 173.699 403.803 171.384C403.803 169.01 405.702 167.111 408.016 167.111C410.39 167.111 412.289 169.01 412.289 171.384Z" fill="white" stroke="#EB407A" stroke-width="1.18692" stroke-miterlimit="10"/>
<path d="M211.817 171.977C211.817 173.935 210.215 175.538 208.256 175.538C206.298 175.538 204.695 173.935 204.695 171.977C204.695 170.018 206.298 168.416 208.256 168.416C210.215 168.416 211.817 170.018 211.817 171.977Z" fill="white" stroke="#FE9700" stroke-width="1.78038" stroke-miterlimit="10"/>
<path d="M362.32 215.3C362.32 218.267 359.887 220.641 356.979 220.641C354.011 220.641 351.578 218.267 351.578 215.3C351.578 212.333 354.011 209.959 356.979 209.959C359.887 209.959 362.32 212.333 362.32 215.3Z" fill="white" stroke="#42A4F5" stroke-width="1.48365" stroke-miterlimit="10"/>
<path d="M264.458 215.301C264.458 217.675 262.5 219.633 260.126 219.633C257.693 219.633 255.734 217.675 255.734 215.301C255.734 212.868 257.693 210.969 260.126 210.969C262.5 210.969 264.458 212.868 264.458 215.301Z" fill="white" stroke="#25C5D9" stroke-width="1.89908" stroke-miterlimit="10"/>
<g opacity="0.5" filter="url(#filter0_f_2101_2119)">
<path d="M308.077 268.353C296.267 268.353 284.754 267.048 273.656 264.615C267.069 263.131 260.422 266.81 258.107 273.161L223.805 367.877C221.135 375.236 225.289 383.366 232.885 385.443C256.802 392.031 282.024 395.532 308.077 395.532C334.13 395.532 359.352 392.031 383.268 385.443C390.865 383.366 395.019 375.236 392.348 367.877L358.046 273.161C355.732 266.81 349.085 263.131 342.498 264.615C331.4 267.048 319.887 268.353 308.077 268.353Z" fill="#F1F1F1"/>
</g>
<g opacity="0.5" filter="url(#filter1_f_2101_2119)">
<path d="M169.742 209.542L85.0547 263.903C78.408 268.176 76.8056 277.256 81.6127 283.488C109.802 320.401 146.834 350.193 189.504 369.718C196.685 373.041 205.171 369.48 207.842 362.062L242.144 267.405C244.518 260.995 241.669 253.874 235.616 250.788C217.1 241.174 200.72 228.058 187.427 212.272C183.035 207.05 175.439 205.804 169.742 209.542Z" fill="#F1F1F1"/>
</g>
<g opacity="0.5" filter="url(#filter2_f_2101_2119)">
<path d="M374.01 267.405L408.313 362.062C410.983 369.48 419.47 373.041 426.65 369.718C469.32 350.193 506.352 320.401 534.542 283.488C539.349 277.256 537.746 268.176 531.1 263.903L446.413 209.542C440.716 205.804 433.119 207.05 428.728 212.272C415.434 228.058 399.055 241.174 380.539 250.788C374.485 253.874 371.637 260.995 374.01 267.405Z" fill="#F1F1F1"/>
</g>
<g opacity="0.5" filter="url(#filter3_f_2101_2119)">
<path d="M464.573 130.908C462.436 147.525 457.688 163.371 450.804 177.97C447.896 184.142 449.914 191.56 455.671 195.24L540.358 249.66C546.945 253.933 555.847 251.678 559.526 244.734C577.508 211.144 588.903 173.519 592.107 133.579C592.76 125.745 586.529 119.039 578.636 119.039H477.985C471.16 119.039 465.463 124.143 464.573 130.908Z" fill="#F1F1F1"/>
</g>
<g opacity="0.5" filter="url(#filter4_f_2101_2119)">
<path d="M138.17 119.039H37.5186C29.6255 119.039 23.3942 125.745 24.047 133.579C27.2517 173.519 38.6461 211.144 56.628 244.734C60.3075 251.678 69.2094 253.933 75.7968 249.66L160.484 195.24C166.24 191.56 168.258 184.142 165.35 177.97C158.466 163.371 153.718 147.525 151.582 130.908C150.692 124.143 144.994 119.039 138.17 119.039Z" fill="#F1F1F1"/>
</g>
<g opacity="0.5" filter="url(#filter5_f_2101_2119)">
<path d="M389.678 106.281C389.678 151.384 353.121 187.882 308.078 187.882C263.034 187.882 226.477 151.384 226.477 106.281C226.477 61.2369 263.034 24.6797 308.078 24.6797C353.121 24.6797 389.678 61.2369 389.678 106.281Z" fill="#F1F1F1"/>
</g>
<path d="M308.077 264.793C296.267 264.793 284.754 263.487 273.656 261.054C267.069 259.57 260.422 263.25 258.107 269.6L223.805 364.316C221.135 371.675 225.289 379.806 232.885 381.883C256.802 388.47 282.024 391.972 308.077 391.972C334.13 391.972 359.352 388.47 383.268 381.883C390.865 379.806 395.019 371.675 392.348 364.316L358.046 269.6C355.732 263.25 349.085 259.57 342.498 261.054C331.4 263.487 319.887 264.793 308.077 264.793Z" fill="white"/>
<path d="M169.742 205.982L85.0547 260.343C78.408 264.616 76.8056 273.696 81.6127 279.927C109.802 316.84 146.834 346.632 189.504 366.157C196.685 369.48 205.171 365.92 207.842 358.501L242.144 263.844C244.518 257.435 241.669 250.313 235.616 247.227C217.1 237.613 200.72 224.498 187.427 208.712C183.035 203.489 175.439 202.243 169.742 205.982Z" fill="white"/>
<path d="M374.01 263.844L408.313 358.501C410.983 365.92 419.47 369.48 426.65 366.157C469.32 346.632 506.352 316.84 534.542 279.927C539.349 273.696 537.746 264.616 531.1 260.343L446.413 205.982C440.716 202.243 433.119 203.489 428.728 208.712C415.434 224.498 399.055 237.613 380.539 247.227C374.485 250.313 371.637 257.435 374.01 263.844Z" fill="white"/>
<path d="M464.573 127.348C462.436 143.965 457.688 159.81 450.804 174.409C447.896 180.581 449.914 188 455.671 191.679L540.358 246.099C546.945 250.372 555.847 248.117 559.526 241.174C577.508 207.584 588.903 169.958 592.107 130.018C592.76 122.185 586.529 115.479 578.636 115.479H477.985C471.16 115.479 465.463 120.582 464.573 127.348Z" fill="white"/>
<path d="M138.17 115.479H37.5186C29.6255 115.479 23.3942 122.185 24.047 130.018C27.2517 169.958 38.6461 207.584 56.628 241.174C60.3075 248.117 69.2094 250.372 75.7968 246.099L160.484 191.679C166.24 188 168.258 180.581 165.35 174.409C158.466 159.81 153.718 143.965 151.582 127.348C150.692 120.582 144.994 115.479 138.17 115.479Z" fill="white"/>
<path d="M389.975 102.601C389.975 147.704 353.418 184.202 308.374 184.202C263.331 184.202 226.773 147.704 226.773 102.601C226.773 57.5572 263.331 21 308.374 21C353.418 21 389.975 57.5572 389.975 102.601Z" fill="white"/>
<defs>
<filter id="filter0_f_2101_2119" x="198.994" y="240.287" width="218.166" height="179.246" filterUnits="userSpaceOnUse" color-interpolation-filters="sRGB">
<feFlood flood-opacity="0" result="BackgroundImageFix"/>
<feBlend mode="normal" in="SourceGraphic" in2="BackgroundImageFix" result="shape"/>
<feGaussianBlur stdDeviation="12" result="effect1_foregroundBlur_2101_2119"/>
</filter>
<filter id="filter1_f_2101_2119" x="54.832" y="183.383" width="212.146" height="211.584" filterUnits="userSpaceOnUse" color-interpolation-filters="sRGB">
<feFlood flood-opacity="0" result="BackgroundImageFix"/>
<feBlend mode="normal" in="SourceGraphic" in2="BackgroundImageFix" result="shape"/>
<feGaussianBlur stdDeviation="12" result="effect1_foregroundBlur_2101_2119"/>
</filter>
<filter id="filter2_f_2101_2119" x="349.176" y="183.383" width="212.146" height="211.584" filterUnits="userSpaceOnUse" color-interpolation-filters="sRGB">
<feFlood flood-opacity="0" result="BackgroundImageFix"/>
<feBlend mode="normal" in="SourceGraphic" in2="BackgroundImageFix" result="shape"/>
<feGaussianBlur stdDeviation="12" result="effect1_foregroundBlur_2101_2119"/>
</filter>
<filter id="filter3_f_2101_2119" x="425.484" y="95.0391" width="190.67" height="180.787" filterUnits="userSpaceOnUse" color-interpolation-filters="sRGB">
<feFlood flood-opacity="0" result="BackgroundImageFix"/>
<feBlend mode="normal" in="SourceGraphic" in2="BackgroundImageFix" result="shape"/>
<feGaussianBlur stdDeviation="12" result="effect1_foregroundBlur_2101_2119"/>
</filter>
<filter id="filter4_f_2101_2119" x="0" y="95.0391" width="190.67" height="180.787" filterUnits="userSpaceOnUse" color-interpolation-filters="sRGB">
<feFlood flood-opacity="0" result="BackgroundImageFix"/>
<feBlend mode="normal" in="SourceGraphic" in2="BackgroundImageFix" result="shape"/>
<feGaussianBlur stdDeviation="12" result="effect1_foregroundBlur_2101_2119"/>
</filter>
<filter id="filter5_f_2101_2119" x="202.477" y="0.679688" width="211.201" height="211.201" filterUnits="userSpaceOnUse" color-interpolation-filters="sRGB">
<feFlood flood-opacity="0" result="BackgroundImageFix"/>
<feBlend mode="normal" in="SourceGraphic" in2="BackgroundImageFix" result="shape"/>
<feGaussianBlur stdDeviation="12" result="effect1_foregroundBlur_2101_2119"/>
</filter>
</defs>
</svg>
