<svg width="69" height="69" viewBox="0 0 69 69" fill="none" xmlns="http://www.w3.org/2000/svg">
<rect x="0.0952148" width="68.2564" height="68.2564" rx="20" fill="#FCE7D2"/>
<path d="M28.3643 24.7532V22.9954" stroke="#313131" stroke-width="1.875" stroke-linecap="round"/>
<path d="M40.083 24.7532V22.9954" stroke="#313131" stroke-width="1.875" stroke-linecap="round"/>
<path d="M37.7393 39.4016C37.7393 39.8678 37.9245 40.3149 38.2541 40.6446C38.5838 40.9742 39.0309 41.1594 39.4971 41.1594C39.9633 41.1594 40.4104 40.9742 40.74 40.6446C41.0697 40.3149 41.2549 39.8678 41.2549 39.4016C41.2549 38.9354 41.0697 38.4883 40.74 38.1587C40.4104 37.829 39.9633 37.6438 39.4971 37.6438C39.0309 37.6438 38.5838 37.829 38.2541 38.1587C37.9245 38.4883 37.7393 38.9354 37.7393 39.4016Z" stroke="#313131" stroke-width="1.875"/>
<path d="M45.3564 30.6125H32.7588M22.5049 30.6125H27.0459" stroke="#313131" stroke-width="1.875" stroke-linecap="round"/>
<path d="M36.5674 45.8469H31.8799C27.4605 45.8469 25.2508 45.8469 23.8778 44.474C22.5049 43.1011 22.5049 40.8913 22.5049 36.4719V34.1282C22.5049 29.7088 22.5049 27.4991 23.8778 26.1261C25.2508 24.7532 27.4605 24.7532 31.8799 24.7532H36.5674C40.9868 24.7532 43.1966 24.7532 44.5694 26.1261C45.9424 27.4991 45.9424 29.7088 45.9424 34.1282V36.4719C45.9424 40.8913 45.9424 43.1011 44.5694 44.474C43.8039 45.2394 42.7784 45.5781 41.2549 45.728" stroke="#313131" stroke-width="1.875" stroke-linecap="round"/>
</svg>
