<svg width="69" height="69" viewBox="0 0 69 69" fill="none" xmlns="http://www.w3.org/2000/svg">
<rect x="0.110352" width="68.2564" height="68.2564" rx="20" fill="#FCE7D2"/>
<path d="M46.8364 32.4154C46.8364 31.93 46.4429 31.5364 45.9575 31.5364C45.4721 31.5364 45.0786 31.93 45.0786 32.4154H46.8364ZM45.0786 28.2688C45.0786 28.7542 45.4721 29.1477 45.9575 29.1477C46.4429 29.1477 46.8364 28.7542 46.8364 28.2688H45.0786ZM21.6411 32.4532C21.6411 32.9386 22.0346 33.3321 22.52 33.3321C23.0054 33.3321 23.3989 32.9386 23.3989 32.4532H21.6411ZM23.3989 36.4719C23.3989 35.9865 23.0054 35.593 22.52 35.593C22.0346 35.593 21.6411 35.9865 21.6411 36.4719H23.3989ZM43.6793 22.7237C42.3452 22.7702 40.6016 22.909 39.2601 23.3105L39.7643 24.9945C40.8766 24.6615 42.4292 24.5261 43.7404 24.4805L43.6793 22.7237ZM39.2601 23.3105C38.0941 23.6596 36.7824 24.3415 35.7601 24.9332L36.6405 26.4546C37.6372 25.8778 38.8031 25.2823 39.7643 24.9945L39.2601 23.3105ZM24.7892 24.5463C25.9212 24.6159 27.2033 24.7512 28.1551 25.0023L28.6036 23.3027C27.4777 23.0056 26.0534 22.8629 24.8971 22.7918L24.7892 24.5463ZM28.1551 25.0023C29.2826 25.2999 30.6702 25.9508 31.8149 26.5561L32.6366 25.0021C31.4701 24.3853 29.9352 23.6541 28.6036 23.3027L28.1551 25.0023ZM36.5596 44.3599C37.7209 43.7408 39.1592 43.0584 40.3224 42.7514L39.8738 41.0518C38.5024 41.4137 36.9138 42.1791 35.7327 42.8087L36.5596 44.3599ZM40.3224 42.7514C41.2633 42.5031 42.5277 42.368 43.6513 42.2978L43.5415 40.5434C42.3929 40.6152 40.9877 40.7579 39.8738 41.0518L40.3224 42.7514ZM32.7449 42.8087C31.5637 42.1791 29.9751 41.4137 28.6036 41.0518L28.1551 42.7514C29.3183 43.0584 30.7567 43.7408 31.918 44.3599L32.7449 42.8087ZM28.6036 41.0518C27.4898 40.7579 26.0846 40.6152 24.9361 40.5434L24.8263 42.2978C25.9499 42.368 27.2142 42.5031 28.1551 42.7514L28.6036 41.0518ZM45.0786 38.984C45.0786 39.7875 44.4126 40.4889 43.5415 40.5434L43.6513 42.2978C45.3788 42.1896 46.8364 40.7842 46.8364 38.984H45.0786ZM46.8364 25.8468C46.8364 24.1319 45.4708 22.6613 43.6793 22.7237L43.7404 24.4805C44.4609 24.4554 45.0786 25.048 45.0786 25.8468H46.8364ZM21.6411 38.984C21.6411 40.7842 23.0987 42.1896 24.8263 42.2978L24.9361 40.5434C24.0649 40.4889 23.3989 39.7875 23.3989 38.984H21.6411ZM35.7327 42.8087C34.8042 43.3036 33.6733 43.3036 32.7449 42.8087L31.918 44.3599C33.3633 45.1303 35.1143 45.1303 36.5596 44.3599L35.7327 42.8087ZM35.7601 24.9332C34.8014 25.488 33.608 25.5157 32.6366 25.0021L31.8149 26.5561C33.3293 27.3568 35.1657 27.3082 36.6405 26.4546L35.7601 24.9332ZM23.3989 25.9225C23.3989 25.1055 24.0463 24.5006 24.7892 24.5463L24.8971 22.7918C23.071 22.6796 21.6411 24.1656 21.6411 25.9225H23.3989ZM46.8364 38.984V32.4154H45.0786V38.984H46.8364ZM46.8364 28.2688V25.8468H45.0786V28.2688H46.8364ZM23.3989 32.4532V25.9225H21.6411V32.4532H23.3989ZM23.3989 38.984V36.4719H21.6411V38.984H23.3989Z" fill="#313131"/>
<path d="M34.2388 26.5116V44.0897" stroke="#313131" stroke-width="1.875" stroke-linecap="round"/>
</svg>
