<svg width="69" height="69" viewBox="0 0 69 69" fill="none" xmlns="http://www.w3.org/2000/svg">
<rect x="0.0795898" width="68.2564" height="68.2564" rx="20" fill="#FCE7D2"/>
<path d="M23.8622 44.474C25.2351 45.8469 27.4448 45.8469 31.8643 45.8469H36.5518C40.9711 45.8469 43.1809 45.8469 44.5538 44.474C45.9268 43.1011 45.9268 40.8913 45.9268 36.4719C45.9268 35.1011 45.9268 33.9429 45.8857 32.9563M44.5538 28.4699C43.1809 27.0969 40.9711 27.0969 36.5518 27.0969H31.8643C27.4448 27.0969 25.2351 27.0969 23.8622 28.4699C22.4893 29.8428 22.4893 32.0525 22.4893 36.4719C22.4893 37.8428 22.4893 39.0009 22.5302 39.9875" stroke="#313131" stroke-width="1.875" stroke-linecap="round"/>
<path d="M34.208 22.4094C36.4177 22.4094 37.5225 22.4094 38.209 23.0959C38.8955 23.7824 38.8955 24.8872 38.8955 27.0969M30.207 23.0959C29.5205 23.7824 29.5205 24.8872 29.5205 27.0969" stroke="#313131" stroke-width="1.875" stroke-linecap="round"/>
<path d="M34.208 40.3781C35.5025 40.3781 36.5518 39.5037 36.5518 38.4251C36.5518 37.3464 35.5025 36.4719 34.208 36.4719C32.9136 36.4719 31.8643 35.5975 31.8643 34.5188C31.8643 33.4402 32.9136 32.5657 34.208 32.5657M34.208 40.3781C32.9136 40.3781 31.8643 39.5037 31.8643 38.4251M34.208 40.3781V41.1594M34.208 32.5657V31.7844M34.208 32.5657C35.5025 32.5657 36.5518 33.4402 36.5518 34.5188" stroke="#313131" stroke-width="1.875" stroke-linecap="round"/>
</svg>
