<svg width="69" height="69" viewBox="0 0 69 69" fill="none" xmlns="http://www.w3.org/2000/svg">
<rect x="0.61792" width="68.2564" height="68.2564" rx="12.4103" fill="#F4D0D2"/>
<path d="M45.6538 38.8156C45.6538 42.1301 45.6538 43.7874 44.5888 44.8171C43.5239 45.8468 41.81 45.8468 38.3821 45.8468H31.1105C27.6826 45.8468 25.9687 45.8468 24.9038 44.8171C23.8389 43.7874 23.8389 42.1301 23.8389 38.8156V29.4406C23.8389 26.126 23.8389 24.4687 24.9038 23.439C25.9687 22.4093 27.6826 22.4093 31.1105 22.4093H38.3821C41.81 22.4093 43.5239 22.4093 44.5888 23.439C45.6538 24.4687 45.6538 26.126 45.6538 29.4406V34.1281" stroke="#313131" stroke-width="1.9391" stroke-linecap="round"/>
<path d="M29.8984 22.4093V27.0968M29.8984 45.8468V31.7843" stroke="#313131" stroke-width="1.9391" stroke-linecap="round"/>
<path d="M22.6267 34.1281H25.0506" stroke="#313131" stroke-width="1.9391" stroke-linecap="round"/>
<path d="M22.6267 38.8156H25.0506" stroke="#313131" stroke-width="1.9391" stroke-linecap="round"/>
<path d="M22.6267 29.4406H25.0506" stroke="#313131" stroke-width="1.9391" stroke-linecap="round"/>
<path d="M34.1401 27.6827H40.1998" stroke="#313131" stroke-width="1.9391" stroke-linecap="round"/>
<path d="M34.1401 31.7843H40.1998" stroke="#313131" stroke-width="1.9391" stroke-linecap="round"/>
</svg>
