<svg width="69" height="69" viewBox="0 0 69 69" fill="none" xmlns="http://www.w3.org/2000/svg">
<rect x="0.587402" width="68.2564" height="68.2564" rx="12.4103" fill="#F4D0D2"/>
<path d="M46.4346 42.3313H45.8486C44.2306 42.3313 42.9189 41.0196 42.9189 39.4016V28.8547C42.9189 27.2367 44.2306 25.925 45.8486 25.925H46.4346" stroke="#313131" stroke-width="1.875" stroke-linecap="round"/>
<path d="M22.9971 42.3313H23.583C25.201 42.3313 26.5127 41.0196 26.5127 39.4016V28.8547C26.5127 27.2367 25.201 25.925 23.583 25.925H22.9971" stroke="#313131" stroke-width="1.875" stroke-linecap="round"/>
<path d="M38.231 26.0724C38.6848 26.1712 39.0272 26.3361 39.3023 26.6112C39.9888 27.2977 39.9888 28.4025 39.9888 30.6123V37.6436C39.9888 39.8532 39.9888 40.9581 39.3023 41.6446C38.6158 42.3311 37.511 42.3311 35.3013 42.3311H34.1294C31.9197 42.3311 30.8148 42.3311 30.1284 41.6446C29.4419 40.9581 29.4419 39.8532 29.4419 37.6436V30.6123C29.4419 28.4025 29.4419 27.2977 30.1284 26.6112C30.7513 25.9883 31.7187 25.9306 33.5435 25.9253" stroke="#313131" stroke-width="1.875" stroke-linecap="round"/>
</svg>
