<svg width="69" height="69" viewBox="0 0 69 69" fill="none" xmlns="http://www.w3.org/2000/svg">
<rect x="0.572266" width="68.2564" height="68.2564" rx="12.4103" fill="#F4D0D2"/>
<path d="M27.6694 29.4407H32.3569" stroke="#313131" stroke-width="1.875" stroke-linecap="round" stroke-linejoin="round"/>
<path d="M46.4194 32.3704C46.4194 32.2797 46.4194 31.7461 46.4167 31.7078C46.3753 31.121 45.8719 30.6535 45.2399 30.6151C45.1987 30.6125 45.1499 30.6125 45.0522 30.6125H42.0024C39.9114 30.6125 38.2163 32.1865 38.2163 34.1282C38.2163 36.0699 39.9114 37.6438 42.0024 37.6438H45.0522C45.1499 37.6438 45.1987 37.6438 45.2399 37.6413C45.8719 37.6028 46.3753 37.1354 46.4167 36.5486C46.4194 36.5102 46.4194 35.9767 46.4194 35.886" stroke="#313131" stroke-width="1.875" stroke-linecap="round"/>
<path d="M40.5601 34.1282C40.5601 34.439 40.6835 34.737 40.9033 34.9568C41.1231 35.1766 41.4211 35.3 41.7319 35.3C42.0427 35.3 42.3408 35.1766 42.5606 34.9568C42.7803 34.737 42.9038 34.439 42.9038 34.1282C42.9038 33.8174 42.7803 33.5193 42.5606 33.2995C42.3408 33.0798 42.0427 32.9563 41.7319 32.9563C41.4211 32.9563 41.1231 33.0798 40.9033 33.2995C40.6835 33.5193 40.5601 33.8174 40.5601 34.1282Z" fill="#313131"/>
<path d="M35.8726 24.7532C40.2919 24.7532 42.5017 24.7532 43.8746 26.1261C44.8217 27.0732 45.1155 28.4184 45.2065 30.6125M32.3569 43.5032H35.8726C40.2919 43.5032 42.5017 43.5032 43.8746 42.1302C44.8217 41.1832 45.1155 39.8379 45.2065 37.6438M31.1851 24.7543C27.5355 24.7649 25.6007 24.8803 24.3549 26.1261C22.9819 27.4991 22.9819 29.7088 22.9819 34.1282C22.9819 38.5475 22.9819 40.7574 24.3549 42.1302C25.1203 42.8957 26.1459 43.2343 27.6694 43.3842" stroke="#313131" stroke-width="1.875" stroke-linecap="round"/>
</svg>
