<svg width="20" height="20" viewBox="0 0 20 20" fill="none" xmlns="http://www.w3.org/2000/svg">
<path d="M8.26775 3.3591C9.37789 2.83863 10.622 2.83863 11.7322 3.3591L16.9597 5.80988C18.0968 6.34296 18.0968 8.18832 16.9597 8.72141L11.7323 11.1721C10.6221 11.6926 9.37797 11.6926 8.26782 11.1721L3.04031 8.72141C1.90323 8.18829 1.90323 6.34293 3.04031 5.80984L5.3125 4.74459" stroke="#313131" stroke-width="1.25" stroke-linecap="round"/>
<path d="M2.1875 7.26562V11.5625" stroke="#313131" stroke-width="1.25" stroke-linecap="round"/>
<path d="M10 17.0312C8.59688 17.0312 6.7607 16.1552 5.61354 15.52C4.92461 15.1384 4.53125 14.4011 4.53125 13.6136V9.60938M15.4688 9.60938V13.6136C15.4688 14.4011 15.0754 15.1384 14.3865 15.52C13.9721 15.7495 13.4678 16.0103 12.9265 16.25" stroke="#313131" stroke-width="1.25" stroke-linecap="round"/>
</svg>
