<svg width="20" height="20" viewBox="0 0 20 20" fill="none" xmlns="http://www.w3.org/2000/svg">
<path d="M17.0308 9.00728C17.0313 9.03963 17.0313 9.07595 17.0313 9.14861V13.4173C17.0313 15.072 15.882 16.5046 14.2668 16.8635C11.4566 17.4881 8.54344 17.4881 5.73323 16.8635C4.11798 16.5046 2.96875 15.072 2.96875 13.4173V9.14861C2.96875 9.07595 2.96875 9.03963 2.9692 9.00728C2.99883 6.85876 4.48546 5.00549 6.57639 4.51049C6.60784 4.50305 6.64331 4.49516 6.71426 4.4794C6.77959 4.46488 6.81225 4.45762 6.8446 4.45059C8.92391 3.99824 11.0761 3.99824 13.1554 4.45059C13.1877 4.45762 13.2204 4.46488 13.2857 4.4794C13.3567 4.49516 13.3922 4.50305 13.4236 4.51049C14.4489 4.75321 15.3289 5.32252 15.963 6.09306" stroke="#313131" stroke-width="1.25" stroke-linecap="round"/>
<path d="M14.2969 12.7344V13.9063" stroke="#313131" stroke-width="1.25" stroke-linecap="round"/>
<path d="M13.0934 4.14063C12.9074 3.03214 11.9434 2.1875 10.782 2.1875H9.21953C8.05823 2.1875 7.09417 3.03214 6.9082 4.14063" stroke="#313131" stroke-width="1.25" stroke-linecap="round"/>
<path d="M2.96875 11.5625C4.23 12.123 5.54153 12.5257 6.875 12.7703M17.0313 11.5625C14.793 12.5573 12.3966 13.0546 10 13.0546" stroke="#313131" stroke-width="1.25" stroke-linecap="round"/>
<path d="M8.4375 10.7812H11.5625" stroke="#313131" stroke-width="1.25" stroke-linecap="round"/>
</svg>
