<svg width="20" height="20" viewBox="0 0 20 20" fill="none" xmlns="http://www.w3.org/2000/svg">
<path d="M15.4688 16.25V15.0781M4.53125 16.25V15.0781" stroke="#313131" stroke-width="1.25" stroke-linecap="round"/>
<path d="M2.1875 12.3438C2.1875 11.6157 2.1875 11.2517 2.30644 10.9645C2.46502 10.5817 2.7692 10.2775 3.15205 10.1189C3.4392 10 3.80322 10 4.53125 10H15.4688C16.1968 10 16.5608 10 16.848 10.1189C17.2308 10.2775 17.535 10.5817 17.6936 10.9645C17.8125 11.2517 17.8125 11.6157 17.8125 12.3438C17.8125 13.0718 17.8125 13.4358 17.6936 13.723C17.535 14.1058 17.2308 14.41 16.848 14.5686C16.5608 14.6875 16.1968 14.6875 15.4688 14.6875H4.53125C3.80322 14.6875 3.4392 14.6875 3.15205 14.5686C2.7692 14.41 2.46502 14.1058 2.30644 13.723C2.1875 13.4358 2.1875 13.0718 2.1875 12.3438Z" stroke="#313131" stroke-width="1.25"/>
<path d="M17.0312 10C17.0312 7.05372 17.0312 5.58059 16.1159 4.66529C15.2007 3.75 13.7275 3.75 10.7812 3.75H9.21875C6.27247 3.75 4.79934 3.75 3.88404 4.66529C2.96875 5.58059 2.96875 7.05372 2.96875 10" stroke="#313131" stroke-width="1.25"/>
<path d="M15.0781 10V8.82812C15.0781 7.35498 15.0781 6.61841 14.6205 6.16077C14.1628 5.70313 13.4263 5.70312 11.9531 5.70312H8.04688C6.57373 5.70312 5.83716 5.70313 5.37952 6.16077C4.92187 6.61841 4.92188 7.35498 4.92188 8.82812V10" stroke="#313131" stroke-width="1.25"/>
<path d="M10 6.09375V10" stroke="#313131" stroke-width="1.25"/>
</svg>
