<svg width="20" height="20" viewBox="0 0 20 20" fill="none" xmlns="http://www.w3.org/2000/svg">
<path d="M7.7402 2.71418C8.42511 2.37647 9.19133 2.18751 10 2.18751C12.912 2.18751 15.2727 4.63769 15.2727 7.66014V8.21061C15.2727 8.87126 15.4612 9.51704 15.8142 10.0667L16.6794 11.4137C17.4697 12.644 16.8664 14.3163 15.4919 14.7054C11.8963 15.7232 8.1037 15.7232 4.50809 14.7054C3.13363 14.3163 2.53033 12.644 3.32059 11.4137L4.18578 10.0667C4.53884 9.51704 4.72724 8.87126 4.72724 8.21061V7.66014C4.72724 6.82077 4.90931 6.02555 5.23468 5.31467" stroke="#313131" stroke-width="1.25" stroke-linecap="round"/>
<path d="M6.48438 15.4688C6.99612 16.8342 8.37692 17.8125 10 17.8125C10.191 17.8125 10.3787 17.799 10.5619 17.7728M13.5156 15.4688C13.307 16.0255 12.9539 16.5178 12.4988 16.9057" stroke="#313131" stroke-width="1.25" stroke-linecap="round"/>
</svg>
