<svg width="20" height="20" viewBox="0 0 20 20" fill="none" xmlns="http://www.w3.org/2000/svg">
<path d="M17.0312 6.09375V5.60161C17.0312 4.66957 17.0312 4.20355 16.9078 3.8277C16.6738 3.11499 16.1303 2.55544 15.438 2.31454C15.0729 2.1875 14.6202 2.1875 13.7148 2.1875H6.28517C5.3798 2.1875 4.92712 2.1875 4.56202 2.31454C3.8697 2.55544 3.32616 3.11499 3.09215 3.8277C2.96875 4.20355 2.96875 4.66957 2.96875 5.60161V12.3438M17.0312 9.21875V16.5423C17.0312 17.2128 16.2617 17.5686 15.7749 17.1231C15.4889 16.8614 15.058 16.8614 14.772 17.1231L14.3945 17.4685C13.8933 17.9272 13.138 17.9272 12.6367 17.4685C12.1355 17.0098 11.3802 17.0098 10.8789 17.4685C10.3777 17.9272 9.62234 17.9272 9.12109 17.4685C8.61984 17.0098 7.86452 17.0098 7.36328 17.4685C6.86204 17.9272 6.10671 17.9272 5.60547 17.4685L5.22805 17.1231C4.94205 16.8614 4.51107 16.8614 4.22508 17.1231C3.73828 17.5686 2.96875 17.2128 2.96875 16.5423V15.4688" stroke="#313131" stroke-width="1.25" stroke-linecap="round"/>
<path d="M8.04688 8.75L9.16297 10L11.9531 6.875" stroke="#313131" stroke-width="1.25" stroke-linecap="round" stroke-linejoin="round"/>
<path d="M6.48438 12.7344H7.65625M13.5156 12.7344H10" stroke="#313131" stroke-width="1.25" stroke-linecap="round"/>
</svg>
