<svg width="46" height="46" viewBox="0 0 46 46" fill="none" xmlns="http://www.w3.org/2000/svg">
<path d="M17.6758 24.8017C17.6758 26.2194 18.239 27.5791 19.2415 28.5816C20.244 29.5841 21.6037 30.1473 23.0214 30.1473C24.4392 30.1473 25.7988 29.5841 26.8013 28.5816C27.8038 27.5791 28.367 26.2194 28.367 24.8017C28.367 23.3839 27.8038 22.0243 26.8013 21.0218C25.7988 20.0193 24.4392 19.4561 23.0214 19.4561C21.6037 19.4561 20.244 20.0193 19.2415 21.0218C18.239 22.0243 17.6758 23.3839 17.6758 24.8017Z" stroke="white" stroke-width="2.851"/>
<path d="M6.98438 24.8009C6.98438 19.7958 6.98411 17.2935 8.18531 15.4958C8.70533 14.7175 9.37353 14.0493 10.1518 13.5293C11.9495 12.3281 14.4521 12.3281 19.4572 12.3281H26.5848C31.5899 12.3281 34.0924 12.3281 35.8901 13.5293C36.6685 14.0493 37.3367 14.7175 37.8566 15.4958C39.0579 17.2935 39.0581 19.7958 39.0581 24.8009C39.0581 29.806 39.0581 32.3086 37.857 34.1064C37.3368 34.8845 36.6686 35.5527 35.8905 36.0728C34.0928 37.274 31.5901 37.274 26.585 37.274H19.4575C14.4523 37.274 11.9498 37.274 10.1521 36.0728C9.3738 35.5527 8.70558 34.8845 8.18557 34.1064C7.77248 33.4881 7.50144 32.7865 7.32363 31.9284" stroke="white" stroke-width="2.851" stroke-linecap="round"/>
<path d="M33.7132 19.4561H32.8223" stroke="white" stroke-width="2.851" stroke-linecap="round"/>
<path d="M27.4758 7.87402H18.5664" stroke="white" stroke-width="2.851" stroke-linecap="round"/>
</svg>
