<svg width="20" height="16" viewBox="0 0 20 16" fill="none" xmlns="http://www.w3.org/2000/svg">
<g clip-path="url(#clip0_3863_2716)">
<path d="M19.8976 9.29256C19.8976 7.75426 18.9305 6.37437 17.4178 5.49892C17.0995 5.31132 16.8474 5.31966 16.8556 5.49892C16.8639 5.67818 16.8556 5.69485 16.8556 5.7949C16.8556 9.2467 13.5492 12.1107 9.25491 12.6068C8.89533 12.6485 8.8416 12.8444 9.14332 13.0237C10.4114 13.7715 11.8572 14.1577 13.326 14.1409C14.2308 14.1436 15.1303 14.0029 15.9918 13.724C16.6201 13.5156 17.3599 16.0294 19.8852 16.0044C20.5176 16.0044 18.0377 13.4572 19.0297 11.6896C19.4802 10.9184 19.8976 10.1597 19.8976 9.29256Z" fill="white"/>
<path d="M7.93462 0C3.61554 0 0.110688 2.58886 0.110688 5.77802C0.110688 6.81606 0.610792 7.70401 1.13156 8.63366C2.31362 10.7389 -0.641534 13.7697 0.110688 13.778C3.12371 13.8072 4.00818 10.814 4.75627 11.0599C5.78355 11.3916 6.85599 11.559 7.93462 11.556C12.2537 11.556 15.7544 8.96718 15.7544 5.77802C15.7544 2.58886 12.2661 0 7.93462 0ZM5.5085 6.88692C5.31213 6.88691 5.12018 6.82814 4.95697 6.71801C4.79376 6.60789 4.66662 6.45138 4.59167 6.26832C4.51672 6.08526 4.49732 5.88387 4.53593 5.68967C4.57454 5.49548 4.66943 5.31721 4.80857 5.17745C4.9477 5.03769 5.12483 4.94273 5.31752 4.90459C5.51021 4.86646 5.70979 4.88688 5.89097 4.96324C6.07215 5.03961 6.22678 5.16849 6.33528 5.33358C6.44377 5.49866 6.50125 5.69251 6.50043 5.89057C6.49937 6.15305 6.39609 6.40459 6.21285 6.59097C6.02962 6.77735 5.78111 6.88364 5.5209 6.88692H5.5085ZM8.28179 6.88692C8.08543 6.88691 7.89348 6.82814 7.73027 6.71801C7.56706 6.60789 7.43992 6.45138 7.36497 6.26832C7.29001 6.08526 7.27062 5.88387 7.30923 5.68967C7.34784 5.49548 7.44272 5.31721 7.58186 5.17745C7.721 5.03769 7.89813 4.94273 8.09082 4.90459C8.28351 4.86646 8.48308 4.88688 8.66426 4.96324C8.84544 5.03961 9.00008 5.16849 9.10857 5.33358C9.21707 5.49866 9.27455 5.69251 9.27373 5.89057C9.27374 6.15338 9.1708 6.40555 8.98734 6.59217C8.80387 6.77878 8.55474 6.88472 8.29419 6.88692H8.28179ZM11.051 6.88692C10.8546 6.88691 10.6627 6.82814 10.4994 6.71801C10.3362 6.60789 10.2091 6.45138 10.1341 6.26832C10.0592 6.08526 10.0398 5.88387 10.0784 5.68967C10.117 5.49548 10.2119 5.31721 10.351 5.17745C10.4902 5.03769 10.6673 4.94273 10.86 4.90459C11.0527 4.86646 11.2523 4.88688 11.4334 4.96324C11.6146 5.03961 11.7692 5.16849 11.8777 5.33358C11.9862 5.49866 12.0437 5.69251 12.0429 5.89057C12.0429 6.15338 11.94 6.40555 11.7565 6.59217C11.573 6.77878 11.3239 6.88472 11.0634 6.88692H11.051Z" fill="white"/>
</g>
<defs>
<clipPath id="clip0_3863_2716">
<rect width="20" height="16" fill="white"/>
</clipPath>
</defs>
</svg>
