<svg width="12" height="15" viewBox="0 0 12 15" fill="none" xmlns="http://www.w3.org/2000/svg">
<g clip-path="url(#clip0_2227_348)">
<path d="M11.1516 0H0.848449C0.623426 0 0.407623 0.0896444 0.248508 0.249245C0.0893923 0.408846 0 0.625313 0 0.851022V14.1523C-8.90066e-07 14.2639 0.0219691 14.3744 0.0646491 14.4775C0.107329 14.5806 0.169878 14.6742 0.248709 14.7529C0.327539 14.8317 0.421098 14.894 0.524017 14.9364C0.626936 14.9788 0.737189 15.0004 0.848449 15H11.1516C11.376 15 11.5913 14.9108 11.7503 14.7519C11.9093 14.5931 11.9991 14.3775 12 14.1523V0.851022C11.9991 0.625588 11.9094 0.409646 11.7505 0.250239C11.5916 0.0908308 11.3763 0.000892822 11.1516 0ZM11.0704 13.7217H0.929577C0.884752 13.7217 0.841765 13.7039 0.810069 13.6721C0.778373 13.6403 0.760563 13.5972 0.760563 13.5522V0.939181C0.760114 0.916635 0.764155 0.89423 0.772447 0.873269C0.780739 0.852308 0.793117 0.833207 0.808857 0.817104C0.824596 0.801001 0.843379 0.788212 0.864108 0.779481C0.884837 0.77075 0.907095 0.766253 0.929577 0.766258H11.0704C11.1156 0.767145 11.1585 0.785764 11.1901 0.818097C11.2217 0.85043 11.2394 0.893901 11.2394 0.939181V13.5522C11.2394 13.5972 11.2216 13.6403 11.1899 13.6721C11.1582 13.7039 11.1152 13.7217 11.0704 13.7217ZM6.39549 14.6304H5.63493C5.59205 14.6349 5.54871 14.6304 5.50771 14.617C5.46671 14.6037 5.42896 14.5818 5.39692 14.5529C5.36488 14.5239 5.33926 14.4886 5.32172 14.4491C5.30418 14.4096 5.29512 14.3668 5.29512 14.3236C5.29512 14.2803 5.30418 14.2376 5.32172 14.1981C5.33926 14.1586 5.36488 14.1232 5.39692 14.0943C5.42896 14.0653 5.46671 14.0435 5.50771 14.0301C5.54871 14.0167 5.59205 14.0122 5.63493 14.0167H6.39549C6.47108 14.0247 6.54105 14.0605 6.59191 14.1171C6.64276 14.1738 6.6709 14.2473 6.6709 14.3236C6.6709 14.3998 6.64276 14.4733 6.59191 14.53C6.54105 14.5867 6.47108 14.6224 6.39549 14.6304Z" fill="white"/>
<path d="M5.00343 7.60511C4.72624 7.13382 4.46258 6.48282 4.18878 5.88268C3.80005 5.02147 3.51272 4.42133 3.91498 4.18738C4.253 3.98395 4.54033 4.7231 4.92906 5.57075C5.21502 6.11071 5.54398 6.62662 5.91272 7.11347C6.25075 7.55425 7.35948 6.70999 8.0423 6.86257C8.72511 7.01514 9.24568 7.91026 9.2423 9.02577C9.23892 10.1413 9.33019 10.3176 9.67836 10.8397C10.0265 11.3619 7.23779 12.3282 7.23779 12.3282C7.23779 12.3282 4.91554 11.4094 4.5099 10.4464C4.10427 9.4835 3.78991 7.62205 4.253 7.69664C4.82765 7.78819 4.49639 8.33408 4.76681 8.95795C4.84987 9.1726 4.9713 9.37022 5.12512 9.54113C5.32455 9.71405 5.50033 9.59199 5.50033 9.18172C5.50816 8.61624 5.33389 8.06332 5.00343 7.60511Z" fill="white"/>
<path d="M4.16775 5.62849C3.95337 5.64966 3.73754 5.60655 3.5476 5.50461C3.35766 5.40267 3.20215 5.24648 3.10076 5.05583C2.99937 4.86518 2.95665 4.64866 2.97803 4.43365C2.9994 4.21864 3.0839 4.01482 3.22083 3.84801C3.35776 3.6812 3.54095 3.55889 3.74722 3.49658C3.95349 3.43427 4.17355 3.43475 4.37955 3.49796C4.58554 3.56118 4.7682 3.68429 4.9044 3.8517C5.0406 4.0191 5.12421 4.22328 5.14465 4.43839C5.15864 4.58091 5.14445 4.72481 5.10289 4.86182C5.06133 4.99883 4.99322 5.12627 4.90247 5.23682C4.81171 5.34738 4.7001 5.43889 4.57402 5.5061C4.44794 5.57331 4.30988 5.6149 4.16775 5.62849ZM3.97845 3.6789C3.80798 3.69514 3.64614 3.76175 3.51342 3.8703C3.38071 3.97885 3.28308 4.12445 3.23291 4.28868C3.18274 4.45291 3.18227 4.62837 3.23156 4.79286C3.28086 4.95736 3.37771 5.1035 3.50984 5.21276C3.64197 5.32202 3.80346 5.38949 3.97384 5.40664C4.14423 5.4238 4.31586 5.38988 4.46701 5.30915C4.61816 5.22842 4.74203 5.10451 4.82295 4.95312C4.90386 4.80174 4.93818 4.62968 4.92155 4.45873C4.90977 4.34569 4.87579 4.2361 4.82159 4.13629C4.76738 4.03648 4.69401 3.94843 4.60571 3.87719C4.51741 3.80596 4.41593 3.75296 4.30711 3.72126C4.19829 3.68955 4.0843 3.67975 3.97169 3.69245L3.97845 3.6789Z" fill="white"/>
<path d="M4.2021 6.00177C3.9172 6.02996 3.63037 5.97276 3.37791 5.83737C3.12544 5.70198 2.9187 5.4945 2.78385 5.2412C2.649 4.9879 2.59209 4.70016 2.62034 4.41441C2.6486 4.12866 2.76073 3.85772 2.94255 3.63592C3.12438 3.41412 3.36772 3.25143 3.64177 3.16841C3.91583 3.0854 4.20828 3.0858 4.48211 3.16957C4.75594 3.25334 4.99883 3.41671 5.18004 3.63901C5.36126 3.86131 5.47266 4.13254 5.50013 4.41836C5.53689 4.8009 5.42088 5.18245 5.17753 5.47929C4.93419 5.77614 4.58339 5.96403 4.2021 6.00177ZM3.94182 3.33337C3.70105 3.35925 3.47331 3.45601 3.28726 3.61146C3.1012 3.76691 2.96516 3.97411 2.89626 4.20695C2.82736 4.43979 2.82868 4.68787 2.90006 4.91996C2.97144 5.15205 3.10968 5.35778 3.29739 5.51122C3.48509 5.66467 3.71386 5.75896 3.95488 5.78226C4.19591 5.80556 4.43842 5.7568 4.65188 5.64214C4.86534 5.52747 5.0402 5.35202 5.15445 5.13787C5.2687 4.92373 5.31723 4.68046 5.29393 4.43871C5.27876 4.27659 5.23158 4.11911 5.15514 3.97546C5.0787 3.83181 4.97452 3.70486 4.84868 3.60199C4.72284 3.49911 4.57786 3.42238 4.42216 3.37627C4.26647 3.33016 4.10318 3.31556 3.94182 3.33337Z" fill="white"/>
</g>
<defs>
<clipPath id="clip0_2227_348">
<rect width="12" height="15" fill="white"/>
</clipPath>
</defs>
</svg>
