<svg width="12" height="12" viewBox="0 0 12 12" fill="none" xmlns="http://www.w3.org/2000/svg">
<g clip-path="url(#clip0_3863_2688)">
<path d="M10.1482 1.42676H9.52188V2.53629C9.51795 2.69612 9.44314 2.84823 9.31347 2.96005C9.1838 3.07186 9.00958 3.13448 8.82815 3.13448C8.64672 3.13448 8.47251 3.07186 8.34284 2.96005C8.21317 2.84823 8.13835 2.69612 8.13443 2.53629V1.42676H3.8646V2.53629C3.86068 2.69612 3.78586 2.84823 3.65619 2.96005C3.52652 3.07186 3.35231 3.13448 3.17088 3.13448C2.98944 3.13448 2.81523 3.07186 2.68555 2.96005C2.55588 2.84823 2.48107 2.69612 2.47715 2.53629V1.42676H1.8508C1.36017 1.42744 0.889865 1.59948 0.54294 1.90517C0.196015 2.21086 0.000772842 2.62527 0 3.05758V10.3688C0.000772842 10.8011 0.196015 11.2155 0.54294 11.5212C0.889865 11.8269 1.36017 11.999 1.8508 11.9996H10.1482C10.6388 11.999 11.1092 11.8269 11.4561 11.5212C11.803 11.2155 11.9983 10.8011 11.999 10.3688V3.05815C11.9984 2.62574 11.8033 2.21118 11.4563 1.90537C11.1094 1.59955 10.639 1.42744 10.1482 1.42676ZM11.4032 10.3688C11.4029 10.662 11.2705 10.9432 11.0353 11.1505C10.8 11.3579 10.481 11.4745 10.1482 11.4749H1.8508C1.51804 11.4745 1.19903 11.3579 0.96376 11.1505C0.728491 10.9432 0.59617 10.662 0.595827 10.3688V4.76765H11.4032V10.3688Z" fill="black"/>
<path d="M3.53333 0.31844C3.53333 0.14257 3.37153 0 3.17194 0C2.97235 0 2.81055 0.14257 2.81055 0.31844V2.53607C2.81055 2.71194 2.97235 2.85451 3.17194 2.85451C3.37153 2.85451 3.53333 2.71194 3.53333 2.53607V0.31844Z" fill="black"/>
<path d="M9.18958 0.31844C9.18958 0.14257 9.02778 0 8.82819 0C8.6286 0 8.4668 0.14257 8.4668 0.31844V2.53607C8.4668 2.71194 8.6286 2.85451 8.82819 2.85451C9.02778 2.85451 9.18958 2.71194 9.18958 2.53607V0.31844Z" fill="black"/>
<path d="M3.49119 5.75586H1.81703C1.59771 5.75586 1.41992 5.91252 1.41992 6.10577V7.34863C1.41992 7.54188 1.59771 7.69854 1.81703 7.69854H3.49119C3.71051 7.69854 3.8883 7.54188 3.8883 7.34863V6.10577C3.8883 5.91252 3.71051 5.75586 3.49119 5.75586Z" fill="black"/>
<path d="M6.8369 5.75586H5.16273C4.94342 5.75586 4.76562 5.91252 4.76562 6.10577V7.34863C4.76562 7.54188 4.94342 7.69854 5.16273 7.69854H6.8369C7.05622 7.69854 7.23401 7.54188 7.23401 7.34863V6.10577C7.23401 5.91252 7.05622 5.75586 6.8369 5.75586Z" fill="black"/>
<path d="M10.1826 5.75586H8.50844C8.28912 5.75586 8.11133 5.91252 8.11133 6.10577V7.34863C8.11133 7.54188 8.28912 7.69854 8.50844 7.69854H10.1826C10.4019 7.69854 10.5797 7.54188 10.5797 7.34863V6.10577C10.5797 5.91252 10.4019 5.75586 10.1826 5.75586Z" fill="black"/>
<path d="M3.49119 8.54395H1.81703C1.59771 8.54395 1.41992 8.70061 1.41992 8.89386V10.1367C1.41992 10.33 1.59771 10.4866 1.81703 10.4866H3.49119C3.71051 10.4866 3.8883 10.33 3.8883 10.1367V8.89386C3.8883 8.70061 3.71051 8.54395 3.49119 8.54395Z" fill="black"/>
<path d="M6.8369 8.54395H5.16273C4.94342 8.54395 4.76562 8.70061 4.76562 8.89386V10.1367C4.76562 10.33 4.94342 10.4866 5.16273 10.4866H6.8369C7.05622 10.4866 7.23401 10.33 7.23401 10.1367V8.89386C7.23401 8.70061 7.05622 8.54395 6.8369 8.54395Z" fill="black"/>
<path d="M10.1826 8.54395H8.50844C8.28912 8.54395 8.11133 8.70061 8.11133 8.89386V10.1367C8.11133 10.33 8.28912 10.4866 8.50844 10.4866H10.1826C10.4019 10.4866 10.5797 10.33 10.5797 10.1367V8.89386C10.5797 8.70061 10.4019 8.54395 10.1826 8.54395Z" fill="black"/>
</g>
<defs>
<clipPath id="clip0_3863_2688">
<rect width="12" height="12" fill="white"/>
</clipPath>
</defs>
</svg>
