<svg width="49" height="49" viewBox="0 0 49 49" fill="none" xmlns="http://www.w3.org/2000/svg">
<g clip-path="url(#clip0_2446_544)">
<path d="M12.453 0.610474C10.8106 0.610474 9.4668 1.95429 9.4668 3.59672V45.4042C9.4668 47.0467 10.8106 48.3905 12.453 48.3905H42.3155C43.958 48.3905 45.3018 47.0467 45.3018 45.4042V12.5555L33.3568 0.610474H12.453Z" fill="#E2E5E7"/>
<path d="M36.3437 12.5555H45.3024L33.3574 0.610474V9.56922C33.3574 11.2117 34.7012 12.5555 36.3437 12.5555Z" fill="#B0B7BD"/>
<path d="M45.3005 21.5145L36.3418 12.5558H45.3005V21.5145Z" fill="#CAD1D8"/>
<path d="M39.3291 39.4319C39.3291 40.2531 38.6572 40.925 37.836 40.925H4.98727C4.16605 40.925 3.49414 40.2531 3.49414 39.4319V24.5006C3.49414 23.6794 4.16605 23.0075 4.98727 23.0075H37.836C38.6572 23.0075 39.3291 23.6794 39.3291 24.5006V39.4319Z" fill="#50BEE8"/>
<path d="M9.14647 36.4459C8.75229 36.4459 8.32227 36.2294 8.32227 35.7054V28.9251C8.32227 28.4951 8.75229 28.1845 9.14647 28.1845H11.8804C17.3363 28.1845 17.2153 36.4459 11.9864 36.4459H9.14647ZM9.89901 29.6403V34.9887H11.8804C15.104 34.9887 15.2459 29.6403 11.8804 29.6403H9.89901ZM21.7843 36.5654C19.5759 36.661 17.2825 35.1917 17.2825 32.2667C17.2825 29.3297 19.5745 27.8859 21.7843 27.8859C23.8732 27.9919 26.0576 29.4372 26.0576 32.2667C26.0576 35.0977 23.8732 36.5654 21.7843 36.5654ZM21.6529 29.4387C20.315 29.4387 18.8593 30.3824 18.8593 32.2682C18.8593 34.1436 20.3165 35.0992 21.6529 35.0992C23.0266 35.0992 24.4943 34.1436 24.4943 32.2682C24.4943 30.3809 23.0266 29.4387 21.6529 29.4387ZM27.4626 32.2547C27.4626 29.9509 28.908 27.9695 31.6538 27.9695C32.6931 27.9695 33.5173 28.28 34.3878 29.0326C34.7103 29.3297 34.7461 29.8553 34.4236 30.1898C34.1011 30.4749 33.6113 30.4406 33.3246 30.1539C32.8364 29.6403 32.3347 29.4984 31.6538 29.4984C29.8158 29.4984 28.9334 30.8004 28.9334 32.2562C28.9334 33.7374 29.8039 35.0977 31.6538 35.0977C32.3347 35.0977 32.9678 34.8214 33.5173 34.3332C33.8861 34.0465 34.3997 34.1883 34.6147 34.4765C34.8058 34.7393 34.8999 35.1813 34.4833 35.5979C33.6472 36.3758 32.6453 36.5311 31.6523 36.5311C28.7646 36.5311 27.4626 34.5586 27.4626 32.2547Z" fill="white"/>
<path d="M37.8362 40.9249H9.4668V42.418H37.8362C38.6574 42.418 39.3293 41.7461 39.3293 40.9249V39.4318C39.3293 40.253 38.6574 40.9249 37.8362 40.9249Z" fill="#CAD1D8"/>
</g>
<defs>
<clipPath id="clip0_2446_544">
<rect width="47.78" height="47.78" fill="white" transform="translate(0.509766 0.609985)"/>
</clipPath>
</defs>
</svg>
