<svg width="20" height="21" viewBox="0 0 20 21" fill="none" xmlns="http://www.w3.org/2000/svg">
<path d="M10 14.4063V9.71875" stroke="#D74120" stroke-width="1.25" stroke-linecap="round"/>
<path d="M9.21875 7.375C9.21875 7.1678 9.30106 6.96909 9.44757 6.82257C9.59409 6.67606 9.7928 6.59375 10 6.59375C10.2072 6.59375 10.4059 6.67606 10.5524 6.82257C10.6989 6.96909 10.7812 7.1678 10.7812 7.375C10.7812 7.5822 10.6989 7.78091 10.5524 7.92743C10.4059 8.07394 10.2072 8.15625 10 8.15625C9.7928 8.15625 9.59409 8.07394 9.44757 7.92743C9.30106 7.78091 9.21875 7.5822 9.21875 7.375Z" fill="#D74120"/>
<path d="M17.8125 10.5C17.8125 14.1828 17.8125 16.0243 16.6684 17.1684C15.5243 18.3125 13.6828 18.3125 10 18.3125C6.31715 18.3125 4.47573 18.3125 3.33162 17.1684C2.1875 16.0243 2.1875 14.1828 2.1875 10.5C2.1875 6.81715 2.1875 4.97573 3.33162 3.83162C4.47573 2.6875 6.31715 2.6875 10 2.6875C13.6828 2.6875 15.5243 2.6875 16.6684 3.83162C17.4291 4.59235 17.6841 5.66137 17.7695 7.375" stroke="#D74120" stroke-width="1.25" stroke-linecap="round"/>
</svg>
