<svg width="20" height="21" viewBox="0 0 20 21" fill="none" xmlns="http://www.w3.org/2000/svg">
<path d="M2.72621 6.36309C2.59874 6.06565 2.25428 5.92786 1.95684 6.05534C1.6594 6.18282 1.52161 6.52728 1.64909 6.82471L2.72621 6.36309ZM7.68878 11.8577C7.86528 11.5866 7.78846 11.2236 7.51722 11.0471C7.24598 10.8706 6.88303 10.9474 6.70653 11.2187L7.68878 11.8577ZM5.60278 12.915C5.42628 13.1862 5.5031 13.5491 5.77434 13.7256C6.04558 13.9021 6.40854 13.8253 6.58503 13.5541L5.60278 12.915ZM18.3512 6.82471C18.4787 6.52728 18.3409 6.18282 18.0434 6.05534C17.746 5.92786 17.4016 6.06565 17.2741 6.36309L18.3512 6.82471ZM16.2265 11.4058C16.4553 11.6346 16.8262 11.6346 17.0551 11.4058C17.2839 11.1769 17.2839 10.8059 17.0551 10.5771L16.2265 11.4058ZM9.41421 14.0158C9.41421 14.3394 9.67656 14.6017 10.0002 14.6017C10.3237 14.6017 10.5861 14.3394 10.5861 14.0158H9.41421ZM13.4153 13.5541C13.5918 13.8253 13.9548 13.9021 14.2259 13.7256C14.4972 13.5491 14.574 13.1862 14.3975 12.915L13.4153 13.5541ZM4.94572 10.2339C5.17454 10.0051 5.17454 9.63406 4.94572 9.40523C4.7169 9.1764 4.3459 9.1764 4.11708 9.40523L4.94572 10.2339ZM2.94521 10.5771C2.71639 10.8059 2.71639 11.1769 2.94521 11.4058C3.17403 11.6346 3.54503 11.6346 3.77385 11.4058L2.94521 10.5771ZM10.0002 11.4767C7.48149 11.4767 5.67307 10.2225 4.4725 8.92957C3.87238 8.2833 3.43238 7.63518 3.1428 7.1487C2.99835 6.90601 2.89224 6.70509 2.82312 6.56685C2.78858 6.49778 2.76335 6.44449 2.74725 6.40961C2.73919 6.39218 2.73343 6.37937 2.72993 6.3715C2.72818 6.36757 2.72683 6.3645 2.72621 6.36309C2.7259 6.36239 2.72625 6.36315 2.72621 6.36309C2.72629 6.36327 2.72621 6.36309 2.18765 6.5939C1.64909 6.82471 1.64897 6.82445 1.64909 6.82471C1.64899 6.82448 1.64914 6.82483 1.64909 6.82471C1.64928 6.82518 1.65002 6.82687 1.65029 6.8275C1.65083 6.82876 1.65153 6.83036 1.65236 6.83228C1.65404 6.83611 1.65631 6.84126 1.65916 6.84768C1.66486 6.8605 1.67293 6.87839 1.68338 6.90102C1.70427 6.94626 1.73473 7.01046 1.77496 7.09093C1.85538 7.25176 1.97511 7.47808 2.13582 7.74809C2.4566 8.287 2.94433 9.00609 3.61375 9.72695C4.95224 11.1684 7.05007 12.6486 10.0002 12.6486V11.4767ZM12.588 10.993C11.8299 11.2914 10.9702 11.4767 10.0002 11.4767V12.6486C11.1237 12.6486 12.1287 12.4331 13.0173 12.0834L12.588 10.993ZM6.70653 11.2187L5.60278 12.915L6.58503 13.5541L7.68878 11.8577L6.70653 11.2187ZM17.8127 6.5939C17.2741 6.36309 17.274 6.3632 17.2741 6.36309C17.2732 6.36502 17.2712 6.36949 17.269 6.37456C17.2644 6.38471 17.2571 6.401 17.2469 6.423C17.2263 6.467 17.1944 6.53371 17.1506 6.61943C17.0631 6.79099 16.9291 7.03789 16.7466 7.33078C16.3805 7.91825 15.8254 8.68138 15.0679 9.39234L15.8699 10.2468C16.7207 9.4482 17.3374 8.59849 17.7412 7.95051C17.9436 7.62568 18.0939 7.34921 18.1946 7.15183C18.2449 7.05308 18.283 6.97393 18.309 6.91818C18.3219 6.8903 18.3319 6.86826 18.339 6.85253C18.3425 6.84466 18.3453 6.83837 18.3473 6.83371C18.3484 6.83139 18.3491 6.82947 18.3498 6.82796C18.3502 6.82721 18.3504 6.82657 18.3506 6.82603C18.3508 6.82575 18.3512 6.82493 18.3512 6.82471C18.3512 6.82477 18.3513 6.82461 18.3512 6.82471C18.3513 6.82458 18.3512 6.82471 17.8127 6.5939ZM15.0679 9.39234C14.3968 10.0222 13.5735 10.6051 12.588 10.993L13.0173 12.0834C14.1685 11.6303 15.1147 10.9556 15.8699 10.2468L15.0679 9.39234ZM15.0546 10.2339L16.2265 11.4058L17.0551 10.5771L15.8832 9.40523L15.0546 10.2339ZM9.41421 12.0627V14.0158H10.5861V12.0627H9.41421ZM12.3116 11.8577L13.4153 13.5541L14.3975 12.915L13.2937 11.2187L12.3116 11.8577ZM4.11708 9.40523L2.94521 10.5771L3.77385 11.4058L4.94572 10.2339L4.11708 9.40523Z" fill="#313131"/>
</svg>
