<svg width="20" height="20" viewBox="0 0 20 20" fill="none" xmlns="http://www.w3.org/2000/svg">
<path d="M14.6875 8.4375H10.7812" stroke="#313131" stroke-width="1.25" stroke-linecap="round"/>
<path d="M8.4375 2.96875H13.5156C13.8784 2.96875 14.0598 2.96875 14.2122 2.9888C15.2639 3.12727 16.0915 3.95486 16.2299 5.00658C16.25 5.15888 16.25 5.3403 16.25 5.70312" stroke="#313131" stroke-width="1.25"/>
<path d="M17.8125 9.84211C17.8125 7.78558 17.8125 6.7573 17.2113 6.08893C17.1561 6.02745 17.0976 5.96894 17.0361 5.91364C16.3677 5.3125 15.3395 5.3125 13.2829 5.3125H12.9909C12.0896 5.3125 11.639 5.3125 11.2191 5.1928C10.9884 5.12703 10.7659 5.03493 10.5563 4.9183C10.1748 4.70599 9.85609 4.38733 9.21875 3.75L8.78883 3.32012C8.57523 3.10651 8.46844 2.9997 8.3562 2.90665C7.87228 2.5055 7.27863 2.2596 6.65279 2.20108C6.50763 2.1875 6.35658 2.1875 6.05449 2.1875C5.36502 2.1875 5.02027 2.1875 4.73312 2.24168C3.46899 2.48019 2.48019 3.46899 2.24168 4.73312C2.1875 5.02027 2.1875 5.36502 2.1875 6.05449M17.8057 13.125C17.7777 15.0622 17.634 16.1604 16.8972 16.8972C15.982 17.8125 14.5087 17.8125 11.5625 17.8125H8.4375C5.49122 17.8125 4.01809 17.8125 3.10279 16.8972C2.1875 15.982 2.1875 14.5087 2.1875 11.5625V9.21875" stroke="#313131" stroke-width="1.25" stroke-linecap="round"/>
</svg>
