<svg width="20" height="20" viewBox="0 0 20 20" fill="none" xmlns="http://www.w3.org/2000/svg">
<g clip-path="url(#clip0_3131_839)">
<path d="M0.677817 12.1451L4.89032 15.3609L19.8362 8.22924L18.9312 6.27257C18.6892 5.75385 18.2519 5.35192 17.7146 5.15457C17.1774 4.95721 16.5838 4.98046 16.0637 5.21924L13.1895 6.60257L7.23115 2.92341C6.91885 2.69259 6.55019 2.55007 6.16384 2.51077C5.7775 2.47148 5.3877 2.53686 5.03532 2.70007L2.58282 3.85341L8.33198 8.94091L5.05032 10.5209L2.20532 9.27674C2.00319 9.20222 1.78832 9.16842 1.57307 9.17728C1.35783 9.18615 1.14646 9.23751 0.95115 9.32841C0.689326 9.44772 0.463876 9.63442 0.297844 9.86941C0.131812 10.1044 0.0311511 10.3793 0.00615006 10.6659C-0.0223804 10.9498 0.0247311 11.2362 0.1427 11.496C0.260668 11.7558 0.445291 11.9797 0.677817 12.1451ZM4.08282 4.06841L5.38698 3.45591C5.82698 3.25007 6.34365 3.30424 6.76365 3.61341L12.2962 7.03257L9.14532 8.54924L4.08282 4.06841ZM0.83615 10.7426C0.84829 10.6015 0.897755 10.4661 0.97947 10.3504C1.06119 10.2347 1.17221 10.1429 1.30115 10.0842C1.40921 10.0339 1.52694 10.0077 1.64615 10.0076C1.73282 10.0076 1.81782 10.0226 1.89448 10.0501L5.06615 11.4376L16.4153 5.97507C16.7362 5.82757 17.0953 5.81341 17.4278 5.93507C17.7603 6.05674 18.0253 6.30091 18.1745 6.62257L18.7337 7.83174L4.99115 14.3901L1.17198 11.4751C1.0562 11.3936 0.964106 11.2829 0.905105 11.1542C0.846104 11.0255 0.822309 10.8835 0.83615 10.7426ZM19.9995 19.1667V20.0001H-0.000516608V19.1667H19.9995Z" fill="#313131"/>
</g>
<defs>
<clipPath id="clip0_3131_839">
<rect width="20" height="20" fill="white"/>
</clipPath>
</defs>
</svg>
