<svg width="60" height="60" viewBox="0 0 60 60" fill="none" xmlns="http://www.w3.org/2000/svg">
<rect width="60" height="60" rx="12" fill="white"/>
<path d="M16.028 30.7877L24.398 35.0627C24.6455 35.1864 25.1855 35.4902 25.4893 34.9952C25.7705 34.5339 25.298 34.1627 25.073 33.9939L15.3305 26.5352C14.6218 25.9727 14.4643 24.8814 15.0043 24.1389C15.5443 23.3627 16.6693 23.1377 17.4343 23.6664L27.3343 30.7652C27.5143 30.9002 28.0093 31.2602 28.3693 30.8439C28.7293 30.4502 28.3355 30.0002 28.178 29.8314L18.9868 20.1339C18.323 19.4027 18.368 18.1877 19.2568 17.3664C19.9655 16.7139 21.2143 16.6914 21.8893 17.3889L30.923 26.7939C31.058 26.9289 31.4743 27.3564 31.9018 27.0414C32.3405 26.7039 32.0255 26.2089 31.9468 26.0177L26.333 16.7027C25.9505 16.1064 25.9393 14.8802 26.9743 14.2614C28.043 13.6314 29.0668 14.2614 29.4605 14.9252L35.7043 24.9602C36.593 26.4452 37.988 27.6939 39.2255 28.2789C40.1818 28.7289 40.9243 28.1552 41.048 27.1539C41.2393 25.6014 41.543 23.6777 42.083 22.0577C42.6455 20.3589 44.6255 19.5152 46.313 20.3702L45.7393 22.6314C45.1655 24.9264 45.098 27.3339 45.4918 29.6739C45.8293 31.6314 46.1668 34.1514 46.1218 36.3902C46.0655 39.7652 43.793 41.2389 41.7568 43.0727C32.9705 51.0489 26.5805 40.2039 23.4643 38.6627L14.408 33.6339C13.643 33.1952 13.4743 32.1714 13.9243 31.4289C14.363 30.7089 15.263 30.3939 16.028 30.7877Z" fill="#FFE0B2"/>
<path d="M43.6812 20.3252C43.9512 20.3814 44.21 20.4602 44.4688 20.5839L43.895 22.8452C43.3212 25.1402 43.2537 27.5477 43.6475 29.8877C43.985 31.8452 44.3225 34.3652 44.2775 36.6039C44.2212 39.9789 41.9487 41.4527 39.9125 43.2864C38.2475 44.7939 36.6725 45.6264 35.1875 45.9752C37.19 46.0089 39.3837 45.2327 41.7463 43.0839C43.7825 41.2502 46.0437 39.7764 46.1112 36.4014C46.1562 34.1514 45.8187 31.6314 45.4812 29.6852C45.0762 27.3452 45.155 24.9377 45.7287 22.6427L46.3025 20.3814C45.4362 19.9427 44.48 19.9652 43.6812 20.3252Z" fill="#EAC89B"/>
<path d="M43.6563 28.7739C43.9938 30.7314 44.3313 33.2514 44.2863 35.4902C44.2301 38.8652 41.9576 40.3389 39.9213 42.1727C36.4113 45.3564 33.2838 45.5364 30.5951 44.5127C33.6551 46.3689 37.4126 47.0327 41.7551 43.0839C43.7913 41.2502 46.0526 39.7764 46.1201 36.4014C46.1651 34.1514 45.8276 31.6314 45.4901 29.6852C45.0963 27.3452 43.2513 26.4339 43.6563 28.7739ZM20.0426 17.5914L30.0551 27.9077C30.1901 28.0427 30.6063 28.4702 31.0338 28.1552C31.4726 27.8177 31.1576 27.3227 31.0788 27.1314L30.6401 26.4002L21.8876 17.4002C21.2688 16.7589 20.1888 16.7252 19.4688 17.2089C19.6826 17.2989 19.8738 17.4227 20.0426 17.5914ZM15.4976 23.9364L26.4776 31.8002C26.6801 31.9464 27.2313 32.3402 27.6251 31.8789C27.9738 31.5077 27.6926 31.0802 27.5013 30.8552L17.5338 23.7114C16.8701 23.2502 15.9251 23.3177 15.2726 23.8127C15.3513 23.8577 15.4301 23.8914 15.4976 23.9364ZM27.6138 15.1277L33.8576 25.1627C34.7463 26.6477 36.1413 27.8964 37.3788 28.4814C38.0426 28.7964 38.6051 28.5939 38.9313 28.1102C37.7726 27.4802 36.5351 26.3327 35.7026 24.9602L29.4588 14.9252C29.0651 14.2614 28.0413 13.6314 26.9726 14.2614C26.9051 14.2952 26.8601 14.3402 26.8038 14.3852C27.1526 14.5764 27.4451 14.8464 27.6138 15.1277ZM23.7663 36.1089C24.0476 36.2552 24.6888 36.6039 25.0376 36.0302C25.1726 35.8052 25.1388 35.6139 25.0601 35.4452L16.1276 30.8777C15.4188 30.5177 14.6313 30.6752 14.0801 31.1589L23.7663 36.1089Z" fill="#EAC89B"/>
<path d="M39.7098 21.2026C39.4285 21.2026 39.181 20.9889 39.1473 20.6964C38.9862 19.2561 38.4197 17.891 37.5136 16.7599C36.6074 15.6287 35.399 14.778 34.0285 14.3064C33.9591 14.2828 33.895 14.2457 33.8399 14.1973C33.7848 14.1489 33.7397 14.0901 33.7074 14.0242C33.675 13.9584 33.6559 13.8869 33.6511 13.8137C33.6464 13.7405 33.6561 13.6671 33.6798 13.5976C33.7034 13.5282 33.7405 13.4641 33.7889 13.409C33.8373 13.3539 33.8961 13.3089 33.9619 13.2765C34.0277 13.2441 34.0993 13.225 34.1725 13.2203C34.2457 13.2155 34.3191 13.2253 34.3885 13.2489C37.5835 14.3401 39.8898 17.2201 40.261 20.5839C40.2948 20.8876 40.0698 21.1689 39.766 21.2026H39.7098ZM36.976 21.7651C36.706 21.7651 36.4585 21.5626 36.4248 21.2814C36.2921 20.404 35.9485 19.572 35.4233 18.8567C34.8981 18.1415 34.2072 17.5644 33.4098 17.1751C33.2755 17.1095 33.1728 16.9932 33.1243 16.8519C33.0758 16.7105 33.0854 16.5557 33.151 16.4214C33.2167 16.2871 33.3329 16.1844 33.4743 16.1359C33.6157 16.0874 33.7705 16.097 33.9048 16.1626C34.8649 16.6333 35.6969 17.3293 36.3296 18.1913C36.9624 19.0533 37.3772 20.0556 37.5385 21.1126C37.5835 21.4164 37.3698 21.7089 37.066 21.7539C37.0323 21.7539 37.0098 21.7651 36.976 21.7651Z" fill="#455A64"/>
<path d="M16.2611 43.1595C17.6413 44.0115 19.2306 44.4642 20.8526 44.4675C20.9426 44.4675 21.0214 44.4675 21.1001 44.4562C21.1745 44.4563 21.248 44.4413 21.3164 44.4122C21.3848 44.3831 21.4466 44.3405 21.4981 44.2869C21.5496 44.2333 21.5897 44.1699 21.6161 44.1004C21.6424 44.0309 21.6544 43.9568 21.6514 43.8825C21.6514 43.5675 21.3926 43.3425 21.0776 43.3312C19.6284 43.37 18.1981 42.9961 16.9532 42.2532C15.7083 41.5103 14.7002 40.4289 14.0464 39.135C13.9114 38.865 13.5739 38.7525 13.2926 38.8875C13.1594 38.9543 13.0577 39.0706 13.0094 39.2115C12.961 39.3525 12.9698 39.5067 13.0339 39.6412C13.7638 41.0897 14.8809 42.3076 16.2611 43.1595Z" fill="#455A64"/>
<path d="M20.7401 41.6775H20.7964C21.0776 41.6775 21.3251 41.4637 21.3589 41.1825C21.3926 40.8675 21.1564 40.5975 20.8526 40.5637C19.0639 40.3837 17.4664 39.3375 16.6001 37.7625C16.4539 37.4812 16.1051 37.3912 15.8351 37.5375C15.7697 37.5725 15.7118 37.6202 15.665 37.6777C15.6181 37.7353 15.5832 37.8016 15.5623 37.8728C15.5413 37.944 15.5348 38.0187 15.543 38.0925C15.5512 38.1662 15.574 38.2376 15.6101 38.3025C16.1274 39.2389 16.8647 40.0354 17.7584 40.6234C18.6521 41.2114 19.6755 41.5731 20.7401 41.6775Z" fill="#455A64"/>
</svg>
