<svg width="16" height="15" viewBox="0 0 16 15" fill="none" xmlns="http://www.w3.org/2000/svg">
<path d="M2.6875 6.91406V8.67187C2.6875 10.8816 2.6875 11.9865 3.41973 12.6729C4.15197 13.3594 5.33047 13.3594 7.6875 13.3594H8.3125C10.6695 13.3594 11.8481 13.3594 12.5802 12.6729M13.3125 6.91406V8.67187C13.3125 9.3573 13.3125 9.93639 13.2906 10.4297" stroke="#313131" stroke-width="0.925414" stroke-linecap="round"/>
<path d="M6.43782 1.64062H9.56281M6.43782 1.64062L6.03048 5.4594C5.91394 6.55195 6.82912 7.5 8.00031 7.5C9.17156 7.5 10.0867 6.55195 9.97018 5.4594L9.56281 1.64062M6.43782 1.64062H5.13637C4.56886 1.64062 4.2851 1.64063 4.04173 1.70317C3.52892 1.83497 3.09992 2.16468 2.8615 2.61026M6.43782 1.64062L5.98499 5.8859C5.88725 6.80221 5.06479 7.5 4.08252 7.5C2.87599 7.5 1.97108 6.46518 2.2077 5.35601L2.25032 5.15625M9.56281 1.64062H10.8642C11.4318 1.64062 11.7156 1.64063 11.9589 1.70317C12.4717 1.83497 12.9007 2.16468 13.1391 2.61026C13.2523 2.82172 13.3079 3.08258 13.4192 3.60429L13.7929 5.35601C14.0296 6.46518 13.1246 7.5 11.9181 7.5C10.9359 7.5 10.1134 6.80221 10.0156 5.8859L9.56281 1.64062Z" stroke="#313131" stroke-width="0.925414" stroke-linecap="round"/>
<path d="M6.4375 13.0664V11.3086C6.4375 10.761 6.4375 10.4872 6.5631 10.2832C6.64538 10.1496 6.76375 10.0386 6.90625 9.96152C7.12381 9.84375 7.41587 9.84375 8 9.84375C8.58413 9.84375 8.87619 9.84375 9.09375 9.96152C9.23625 10.0386 9.35463 10.1496 9.43688 10.2832C9.5625 10.4872 9.5625 10.761 9.5625 11.3086V13.0664" stroke="#313131" stroke-width="0.925414" stroke-linecap="round"/>
</svg>
