<svg width="16" height="16" viewBox="0 0 16 16" fill="none" xmlns="http://www.w3.org/2000/svg">
<path d="M1.15804 14.6218L0.743722 15.0361V15.0362L1.15804 14.6218ZM4.20963 11.9555C3.97955 11.7279 3.60856 11.7299 3.381 11.96C3.15344 12.1901 3.15548 12.5611 3.38556 12.7886L4.20963 11.9555ZM13.8765 5.03621C13.9655 5.34733 14.2899 5.52736 14.601 5.43832C14.9121 5.34929 15.0921 5.0249 15.0031 4.71379L13.8765 5.03621ZM14.9544 8.17711C15.0521 7.8686 14.8813 7.5393 14.5729 7.44149C14.2645 7.34367 13.9351 7.51446 13.8373 7.82289L14.9544 8.17711ZM8.48914 7.12805C8.10782 6.74664 8.10782 6.12834 8.48914 5.74697L7.66055 4.91833C6.82149 5.75735 6.82149 7.11766 7.66055 7.95664L8.48914 7.12805ZM9.87024 7.12805C9.48883 7.50938 8.87055 7.50938 8.48914 7.12805L7.66055 7.95664C8.49953 8.79571 9.85985 8.79571 10.6988 7.95664L9.87024 7.12805ZM9.87024 5.74697C10.2516 6.12834 10.2516 6.74664 9.87024 7.12805L10.6988 7.95664C11.5379 7.11766 11.5379 5.75735 10.6988 4.91833L9.87024 5.74697ZM10.6988 4.91833C9.85985 4.07931 8.49953 4.07931 7.66055 4.91833L8.48914 5.74697C8.87055 5.3656 9.48883 5.3656 9.87024 5.74697L10.6988 4.91833ZM13.4823 2.13483C11.1463 -0.201193 7.35891 -0.201193 5.02288 2.13483L5.85152 2.96347C7.72993 1.0851 10.7753 1.0851 12.6538 2.96347L13.4823 2.13483ZM3.41035 8.10781L0.510284 11.0079L1.33893 11.8366L4.239 8.93649L3.41035 8.10781ZM4.60929 15.1069L5.57835 14.1378L4.74971 13.3092L3.78065 14.2783L4.60929 15.1069ZM5.57835 14.1378L7.50961 12.2066L6.68094 11.378L4.74971 13.3092L5.57835 14.1378ZM0.0106672 12.4322L0.191972 14.0639L1.35668 13.9345L1.17537 12.3028L0.0106672 12.4322ZM1.55328 15.4252L3.18499 15.6066L3.31439 14.4418L1.68269 14.2605L1.55328 15.4252ZM0.581058 14.8734L0.743722 15.0361L1.57237 14.2075L1.4097 14.0448L0.581058 14.8734ZM1.68269 14.2605C1.64096 14.2559 1.60206 14.2372 1.57237 14.2075L0.743722 15.0362C0.961573 15.254 1.24708 15.3912 1.55328 15.4252L1.68269 14.2605ZM0.191972 14.0639C0.225987 14.3701 0.363206 14.6556 0.581058 14.8734L1.4097 14.0448C1.38001 14.0152 1.36132 13.9763 1.35668 13.9345L0.191972 14.0639ZM3.78065 14.2783C3.65814 14.4008 3.48659 14.4609 3.31439 14.4418L3.18499 15.6066C3.711 15.665 4.23506 15.4812 4.60929 15.1069L3.78065 14.2783ZM0.510284 11.0079C0.13605 11.3821 -0.0477781 11.9062 0.0106672 12.4322L1.17537 12.3028C1.15625 12.1306 1.21642 11.9591 1.33893 11.8366L0.510284 11.0079ZM4.59434 7.5661C4.18481 5.97133 4.60478 4.21021 5.85152 2.96347L5.02288 2.13483C3.47126 3.68645 2.95098 5.87814 3.45929 7.85758L4.59434 7.5661ZM12.6538 9.76571C11.407 11.0124 9.64586 11.4323 8.0511 11.0229L7.75961 12.1579C9.73907 12.6663 11.9308 12.1459 13.4823 10.5943L12.6538 9.76571ZM7.50961 12.2066C7.55321 12.163 7.6425 12.1278 7.75961 12.1579L8.0511 11.0229C7.5918 10.9049 7.05821 11.0007 6.68094 11.378L7.50961 12.2066ZM4.239 8.93649C4.61607 8.55938 4.71236 8.02571 4.59434 7.5661L3.45929 7.85758C3.4893 7.97438 3.45412 8.06406 3.41035 8.10781L4.239 8.93649ZM5.57607 13.307L4.20963 11.9555L3.38556 12.7886L4.752 14.1401L5.57607 13.307ZM12.6538 2.96347C13.2523 3.56211 13.6594 4.27778 13.8765 5.03621L15.0031 4.71379C14.7327 3.76895 14.2252 2.87774 13.4823 2.13483L12.6538 2.96347ZM13.8373 7.82289C13.6121 8.53289 13.2181 9.20125 12.6538 9.76571L13.4823 10.5943C14.1827 9.89406 14.6738 9.06188 14.9544 8.17711L13.8373 7.82289Z" fill="#313131"/>
</svg>
