<svg width="20" height="20" viewBox="0 0 20 20" fill="none" xmlns="http://www.w3.org/2000/svg">
<path d="M14.6875 6.875V10.7813C14.6875 13.3701 12.5888 15.4688 10 15.4688C7.41116 15.4688 5.3125 13.3701 5.3125 10.7813V6.875C5.3125 4.28616 7.41116 2.1875 10 2.1875C11.3883 2.1875 12.6356 2.79102 13.4939 3.75" stroke="#313131" stroke-width="1.25" stroke-linecap="round"/>
<path d="M8.4375 5.70313C8.4375 5.70313 8.8068 5.3125 10 5.3125C11.1932 5.3125 11.5625 5.70313 11.5625 5.70313" stroke="#313131" stroke-width="1.25" stroke-linecap="round"/>
<path d="M8.4375 8.04688C8.4375 8.04688 8.8068 7.65625 10 7.65625C11.1932 7.65625 11.5625 8.04688 11.5625 8.04688" stroke="#313131" stroke-width="1.25" stroke-linecap="round"/>
<path d="M17.0313 9.21875V10.7813C17.0313 13.542 15.4402 15.9311 13.125 17.0816M2.96875 9.21875V10.7813C2.96875 14.6645 6.11675 17.8125 10 17.8125" stroke="#313131" stroke-width="1.25" stroke-linecap="round"/>
</svg>
