<svg width="104" height="104" viewBox="0 0 104 104" fill="none" xmlns="http://www.w3.org/2000/svg">
<g clip-path="url(#clip0_3863_2704)">
<path d="M13.1723 18.1219L13.1726 18.1216C13.655 17.5449 14.1509 16.9789 14.658 16.4248L14.3075 16.1042L14.658 16.4248C15.825 15.1493 17.0554 13.932 18.3426 12.7793L86.1896 12.7805C87.4767 13.9331 88.706 15.1493 89.8742 16.426C90.3813 16.9802 90.8772 17.5462 91.3597 18.1228L91.3599 18.1231C98.933 27.1615 103.5 38.8609 103.5 51.6418C103.5 80.288 80.5563 103.5 52.2655 103.5C23.976 103.5 1.03125 80.288 1.03125 51.6418C1.03125 38.8597 5.59802 27.1603 13.1723 18.1219Z" fill="white" stroke="black"/>
<path d="M0 51.4066C0 57.6028 1.1023 63.6594 3.27743 69.409C5.37891 74.9644 8.42188 80.0866 12.3204 84.6312C12.8053 85.1979 13.3135 85.7646 13.8266 86.3131C14.7987 87.3495 15.8225 88.3555 16.8806 89.3154C20.8037 83.4578 25.872 78.5855 31.5983 75.1828C37.8463 71.4719 44.9007 69.5073 51.9994 69.5073C59.098 69.5073 66.1525 71.4707 72.4004 75.1828C78.1255 78.5855 83.1939 83.4578 87.1182 89.3154C88.1763 88.3555 89.2012 87.3507 90.1722 86.3131C90.6865 85.7646 91.1935 85.1979 91.6783 84.6312C95.5769 80.0866 98.6186 74.9644 100.721 69.409C102.896 63.6594 103.999 57.6016 103.999 51.4066C103.999 44.4665 102.624 37.734 99.9136 31.3971C97.2929 25.2761 93.5454 19.779 88.7692 15.056C83.9917 10.3342 78.4312 6.62939 72.2396 4.03855C65.8309 1.35913 59.0207 0 51.9994 0C44.9793 0 38.1691 1.35913 31.7591 4.03855C25.5676 6.62939 20.007 10.3342 15.2296 15.056C10.4534 19.779 6.70584 25.2761 4.08512 31.3971C1.3748 37.734 0 44.4665 0 51.4066ZM29.6466 40.5627C29.6466 28.3779 39.6753 18.4635 52.0006 18.4635C64.3259 18.4635 74.3546 28.3779 74.3546 40.5627C74.3546 52.7475 64.3259 62.6595 52.0006 62.6595C39.6753 62.6595 29.6466 52.7463 29.6466 40.5627Z" fill="#070707"/>
</g>
<defs>
<clipPath id="clip0_3863_2704">
<rect width="104" height="104" fill="white"/>
</clipPath>
</defs>
</svg>
