<svg width="20" height="21" viewBox="0 0 20 21" fill="none" xmlns="http://www.w3.org/2000/svg">
<path d="M2.1875 10.5C2.1875 14.1828 2.1875 16.0243 3.33162 17.1684C4.47573 18.3125 6.31715 18.3125 10 18.3125C13.6828 18.3125 15.5243 18.3125 16.6684 17.1684C17.8125 16.0243 17.8125 14.1828 17.8125 10.5V9.32813M11.1719 2.6875H10C6.31715 2.6875 4.47573 2.6875 3.33162 3.83162C2.57088 4.59235 2.31597 5.66137 2.23055 7.375" stroke="#F0851D" stroke-width="1.25" stroke-linecap="round"/>
<path d="M13.6344 3.82427L14.1413 3.31738C14.9812 2.47754 16.3428 2.47754 17.1827 3.31738C18.0224 4.15722 18.0224 5.51887 17.1827 6.35871L16.6757 6.86559M13.6344 3.82427C13.6344 3.82427 13.6977 4.9014 14.6482 5.85181C15.5986 6.80223 16.6757 6.86559 16.6757 6.86559M13.6344 3.82427L8.97438 8.48432C8.65875 8.79996 8.50094 8.95774 8.36518 9.1318C8.20507 9.33703 8.06781 9.55914 7.95581 9.79414C7.86087 9.99336 7.79029 10.2051 7.64913 10.6286L7.1972 11.9844M16.6757 6.86559L14.3457 9.19563M7.1972 11.9844L6.90477 12.8616C6.83531 13.0701 6.88955 13.2998 7.04488 13.4552C7.2002 13.6105 7.42996 13.6647 7.63835 13.5952L8.51563 13.3028M7.1972 11.9844L8.51563 13.3028M12.0157 11.5256C11.7001 11.8413 11.5423 11.9991 11.3682 12.1348C11.163 12.2949 10.9409 12.4322 10.7059 12.5442C10.5066 12.6391 10.2949 12.7097 9.87141 12.8509L8.51563 13.3028" stroke="#F0851D" stroke-width="1.25" stroke-linecap="round"/>
</svg>
