<svg width="17" height="16" viewBox="0 0 17 16" fill="none" xmlns="http://www.w3.org/2000/svg">
<mask id="path-1-inside-1_3863_6368" fill="white">
<path d="M8.29651 15.9393C8.35834 15.9797 8.4291 16 8.49985 16C8.57061 16 8.64106 15.9797 8.7032 15.9393C12.7719 13.2867 15.3562 10.4587 16.6033 7.29422C16.9098 6.51683 17.0427 5.65113 16.988 4.79121C16.933 3.92946 16.6901 3.08713 16.2858 2.35555C15.8711 1.60547 15.2171 0.960068 14.4438 0.537993C13.6295 0.0934647 12.7478 -0.0807055 11.8943 0.0345988C9.98837 0.292213 9.00405 1.32752 8.49985 2.24935C7.99535 1.32752 7.01133 0.292213 5.10543 0.0345988C4.25192 -0.0807055 3.37046 0.0934647 2.55619 0.537993C1.78324 0.960068 1.12891 1.60547 0.714199 2.35555C0.309591 3.08713 0.0667076 3.92946 0.0120068 4.79121C-0.0426941 5.65113 0.0901933 6.51652 0.396696 7.29422C1.64382 10.4587 4.22813 13.2867 8.2968 15.9393H8.29651ZM0.76563 4.84127C0.813196 4.09422 1.02308 3.36568 1.3721 2.73424C1.71725 2.11008 2.26425 1.57148 2.91234 1.21768C3.45281 0.922442 4.02538 0.771029 4.58993 0.771029C4.72936 0.771029 4.86849 0.780436 5.00613 0.798945C7.02531 1.07173 7.82501 2.32673 8.14013 3.33139C8.19008 3.491 8.33545 3.59932 8.49985 3.59932C8.66425 3.59932 8.80933 3.491 8.85957 3.33139C9.17469 2.32673 9.97439 1.07173 11.9936 0.798945C12.6895 0.704881 13.4134 0.849618 14.0877 1.21768C14.736 1.57148 15.2831 2.11038 15.6279 2.73424C15.9769 3.36568 16.1868 4.09422 16.2344 4.84127C16.2819 5.58681 16.1672 6.33537 15.9026 7.00626C14.7366 9.96443 12.3143 12.6319 8.49985 15.1559C4.68566 12.6322 2.26306 9.96473 1.0971 7.00657C0.832519 6.33568 0.717766 5.58681 0.765332 4.84158L0.76563 4.84127Z"/>
</mask>
<path d="M8.29651 15.9393C8.35834 15.9797 8.4291 16 8.49985 16C8.57061 16 8.64106 15.9797 8.7032 15.9393C12.7719 13.2867 15.3562 10.4587 16.6033 7.29422C16.9098 6.51683 17.0427 5.65113 16.988 4.79121C16.933 3.92946 16.6901 3.08713 16.2858 2.35555C15.8711 1.60547 15.2171 0.960068 14.4438 0.537993C13.6295 0.0934647 12.7478 -0.0807055 11.8943 0.0345988C9.98837 0.292213 9.00405 1.32752 8.49985 2.24935C7.99535 1.32752 7.01133 0.292213 5.10543 0.0345988C4.25192 -0.0807055 3.37046 0.0934647 2.55619 0.537993C1.78324 0.960068 1.12891 1.60547 0.714199 2.35555C0.309591 3.08713 0.0667076 3.92946 0.0120068 4.79121C-0.0426941 5.65113 0.0901933 6.51652 0.396696 7.29422C1.64382 10.4587 4.22813 13.2867 8.2968 15.9393H8.29651ZM0.76563 4.84127C0.813196 4.09422 1.02308 3.36568 1.3721 2.73424C1.71725 2.11008 2.26425 1.57148 2.91234 1.21768C3.45281 0.922442 4.02538 0.771029 4.58993 0.771029C4.72936 0.771029 4.86849 0.780436 5.00613 0.798945C7.02531 1.07173 7.82501 2.32673 8.14013 3.33139C8.19008 3.491 8.33545 3.59932 8.49985 3.59932C8.66425 3.59932 8.80933 3.491 8.85957 3.33139C9.17469 2.32673 9.97439 1.07173 11.9936 0.798945C12.6895 0.704881 13.4134 0.849618 14.0877 1.21768C14.736 1.57148 15.2831 2.11038 15.6279 2.73424C15.9769 3.36568 16.1868 4.09422 16.2344 4.84127C16.2819 5.58681 16.1672 6.33537 15.9026 7.00626C14.7366 9.96443 12.3143 12.6319 8.49985 15.1559C4.68566 12.6322 2.26306 9.96473 1.0971 7.00657C0.832519 6.33568 0.717766 5.58681 0.765332 4.84158L0.76563 4.84127Z" fill="#C7161E"/>
<path d="M8.29651 15.9393V-84.0607H-327.896L-46.3577 99.6825L8.29651 15.9393ZM8.7032 15.9393L63.1736 99.8021L63.2455 99.7554L63.3173 99.7086L8.7032 15.9393ZM16.6033 7.29422L-76.427 -29.3848L-76.4298 -29.3779L-76.4325 -29.3709L16.6033 7.29422ZM16.988 4.79121L116.786 -1.55706L116.786 -1.56753L116.785 -1.57799L16.988 4.79121ZM16.2858 2.35555L103.809 -46.0148L103.805 -46.0226L103.8 -46.0305L16.2858 2.35555ZM14.4438 0.537993L-33.4731 88.3103L-33.4681 88.313L14.4438 0.537993ZM11.8943 0.0345988L-1.49352 -99.0652L-1.50053 -99.0642L11.8943 0.0345988ZM8.49985 2.24935L-79.2224 50.2578L8.52571 210.593L96.234 50.236L8.49985 2.24935ZM5.10543 0.0345988L18.5002 -99.0642L18.4932 -99.0652L5.10543 0.0345988ZM2.55619 0.537993L-45.3607 -87.2343L-45.3699 -87.2292L2.55619 0.537993ZM0.714199 2.35555L88.2224 50.7531L88.2287 50.7416L0.714199 2.35555ZM0.0120068 4.79121L99.8103 11.1395L99.8111 11.1261L0.0120068 4.79121ZM0.396696 7.29422L93.4325 -29.3709L93.4319 -29.3725L0.396696 7.29422ZM8.2968 15.9393V115.939H344.783L62.9109 -67.83L8.2968 15.9393ZM0.76563 4.84127L72.1759 74.8454L98.2012 48.2973L100.564 11.1956L0.76563 4.84127ZM1.3721 2.73424L-86.139 -45.6579L-86.1438 -45.6493L-86.1486 -45.6407L1.3721 2.73424ZM2.91234 1.21768L50.8289 88.9901L50.8407 88.9837L50.8525 88.9773L2.91234 1.21768ZM5.00613 0.798945L18.3943 -98.3008L18.3639 -98.3049L18.3335 -98.309L5.00613 0.798945ZM8.14013 3.33139L103.577 -26.5329L103.567 -26.565L103.557 -26.597L8.14013 3.33139ZM8.85957 3.33139L104.245 33.3575L104.261 33.3086L104.276 33.2598L8.85957 3.33139ZM11.9936 0.798945L25.3817 99.8987L25.3877 99.8979L11.9936 0.798945ZM14.0877 1.21768L-33.8269 88.9912L-33.8195 88.9953L-33.812 88.9993L14.0877 1.21768ZM15.6279 2.73424L103.149 -45.6407L103.147 -45.644L15.6279 2.73424ZM16.2344 4.84127L-83.5635 11.1956L-83.5627 11.2084L16.2344 4.84127ZM15.9026 7.00626L-77.1242 -29.6817L-77.1279 -29.6724L-77.1316 -29.6632L15.9026 7.00626ZM8.49985 15.1559L-46.68 98.5536L8.50102 135.064L63.6813 98.5525L8.49985 15.1559ZM1.0971 7.00657L94.1313 -29.6629L94.1276 -29.6721L94.1239 -29.6814L1.0971 7.00657ZM0.765332 4.84158L-70.645 -65.1625L-96.6641 -38.6207L-99.0316 -1.52818L0.765332 4.84158ZM-46.3577 99.6825C-29.8412 110.462 -10.74 116 8.49985 116V-84C27.5981 -84 46.5579 -78.5025 62.9507 -67.8038L-46.3577 99.6825ZM8.49985 116C27.8595 116 46.8579 110.399 63.1736 99.8021L-45.7672 -67.9235C-29.5758 -78.4401 -10.7183 -84 8.49985 -84V116ZM63.3173 99.7086C77.6085 90.3914 98.1554 73.0986 109.639 43.9594L-76.4325 -29.3709C-67.4431 -52.1812 -52.0648 -63.818 -45.9109 -67.83L63.3173 99.7086ZM109.634 43.9733C115.507 29.0755 117.743 13.4784 116.786 -1.55706L-82.8103 11.1395C-83.6573 -2.17615 -81.6878 -16.0418 -76.427 -29.3848L109.634 43.9733ZM116.785 -1.57799C115.821 -16.6783 111.592 -31.9323 103.809 -46.0148L-71.2374 50.7259C-78.2115 38.1066 -81.9552 24.5372 -82.809 11.1604L116.785 -1.57799ZM103.8 -46.0305C93.9295 -63.8835 79.3168 -77.9788 62.3557 -87.237L-33.4681 88.313C-48.8827 79.8989 -62.1874 67.0945 -71.2287 50.7416L103.8 -46.0305ZM62.3607 -87.2343C44.377 -97.052 22.1509 -102.259 -1.49352 -99.0652L25.2821 99.1344C3.34471 102.098 -17.1179 97.2389 -33.4731 88.3103L62.3607 -87.2343ZM-1.50053 -99.0642C-40.0654 -93.8516 -66.1667 -69.6287 -79.2343 -45.7373L96.234 50.236C90.9131 59.9642 82.4058 71.4425 69.2717 81.1911C55.7115 91.256 40.398 97.0912 25.2891 99.1334L-1.50053 -99.0642ZM96.2221 -45.7591C83.1646 -69.618 57.0775 -93.8499 18.5002 -99.0642L-8.28938 99.1334C-23.4002 97.091 -38.7146 91.2547 -52.2748 81.1892C-65.408 71.4405 -73.9089 59.9668 -79.2224 50.2578L96.2221 -45.7591ZM18.4932 -99.0652C-5.15556 -102.26 -27.3812 -97.0497 -45.3607 -87.2343L50.4731 88.3103C34.1221 97.2367 13.6594 102.099 -8.28237 99.1344L18.4932 -99.0652ZM-45.3699 -87.2292C-62.3072 -77.9805 -76.9229 -63.8955 -86.8003 -46.0305L88.2287 50.7416C79.1808 67.1064 65.8737 79.9006 50.4823 88.3052L-45.3699 -87.2292ZM-86.794 -46.042C-94.5908 -31.9444 -98.8271 -16.6686 -99.7871 -1.5437L99.8111 11.1261C98.9605 24.5275 95.21 38.1187 88.2224 50.7531L-86.794 -46.042ZM-99.7863 -1.55706C-100.743 13.485 -98.5048 29.0762 -92.6385 43.9609L93.4319 -29.3725C98.6852 -16.0432 100.658 -2.18276 99.8103 11.1395L-99.7863 -1.55706ZM-92.6391 43.9594C-81.1554 73.0986 -60.6085 90.3914 -46.3173 99.7086L62.9109 -67.83C69.0648 -63.8179 84.4431 -52.1812 93.4325 -29.3709L-92.6391 43.9594ZM8.2968 -84.0607H8.29651V115.939H8.2968V-84.0607ZM100.564 11.1956C99.707 24.6476 95.9479 38.3448 88.8927 51.1092L-86.1486 -45.6407C-93.9018 -31.6135 -98.0806 -16.4592 -99.0323 -1.51302L100.564 11.1956ZM88.8832 51.1264C79.702 67.7294 66.2316 80.5815 50.8289 88.9901L-45.0043 -86.5547C-61.7031 -77.4385 -76.2676 -63.5092 -86.139 -45.6579L88.8832 51.1264ZM50.8525 88.9773C37.8961 96.0549 22.1005 100.771 4.58993 100.771V-99.229C-14.0497 -99.229 -30.9905 -94.21 -45.0278 -86.5419L50.8525 88.9773ZM4.58993 100.771C0.23592 100.771 -4.07715 100.478 -8.3212 99.9069L18.3335 -98.309C13.8141 -98.9167 9.2228 -99.229 4.58993 -99.229V100.771ZM-8.38201 99.8987C-27.1028 97.3695 -46.3928 88.996 -62.1466 73.8279C-76.8576 59.6639 -83.8969 44.0336 -87.2763 33.2598L103.557 -26.597C99.8621 -38.3755 92.2653 -55.1356 76.5709 -70.2465C59.8337 -86.3615 39.1343 -95.4989 18.3943 -98.3008L-8.38201 99.8987ZM-87.2964 33.1957C-74.5103 74.0558 -36.4569 103.599 8.49985 103.599V-96.4007C53.1278 -96.4007 90.8904 -67.0738 103.577 -26.5329L-87.2964 33.1957ZM8.49985 103.599C53.5787 103.599 91.4652 73.9566 104.245 33.3575L-86.5262 -26.6947C-73.8466 -66.9746 -36.2502 -96.4007 8.49985 -96.4007V103.599ZM104.276 33.2598C100.897 44.0336 93.8573 59.6639 79.1463 73.8279C63.3925 88.996 44.1025 97.3695 25.3817 99.8987L-1.39458 -98.3008C-22.1346 -95.4989 -42.834 -86.3615 -59.5712 -70.2465C-75.2656 -55.1357 -82.8624 -38.3755 -86.5568 -26.597L104.276 33.2598ZM25.3877 99.8979C2.96626 102.928 -17.6432 97.8257 -33.8269 88.9912L62.0022 -86.5559C44.47 -96.1265 22.4128 -101.519 -1.40058 -98.3L25.3877 99.8979ZM-33.812 88.9993C-49.2378 80.582 -62.7123 67.717 -71.8909 51.1125L103.147 -45.644C93.2785 -63.4963 78.7099 -77.439 61.9873 -86.564L-33.812 88.9993ZM-71.8927 51.1092C-78.9479 38.3449 -82.707 24.6477 -83.5635 11.1956L116.032 -1.51302C115.081 -16.4592 110.902 -31.6135 103.149 -45.6407L-71.8927 51.1092ZM-83.5627 11.2084C-84.4173 -2.18546 -82.448 -16.1827 -77.1242 -29.6817L108.929 43.6942C114.782 28.8534 116.981 13.3591 116.031 -1.5259L-83.5627 11.2084ZM-77.1316 -29.6632C-68.1366 -52.4842 -52.8031 -64.1904 -46.6816 -68.2408L63.6813 98.5525C77.4318 89.4542 97.6099 72.413 108.937 43.6757L-77.1316 -29.6632ZM63.6797 -68.2419C69.7995 -64.1927 85.1353 -52.4866 94.1313 -29.6629L-91.937 43.676C-80.6091 72.4161 -60.4282 89.4572 -46.68 98.5536L63.6797 -68.2419ZM94.1239 -29.6814C99.4482 -16.1811 101.417 -2.18325 100.562 11.2113L-99.0316 -1.52818C-99.9817 13.3569 -97.7831 28.8525 -91.9297 43.6945L94.1239 -29.6814ZM72.1756 74.8457L72.1759 74.8454L-70.6447 -65.1628L-70.645 -65.1625L72.1756 74.8457Z" fill="#C7161E" mask="url(#path-1-inside-1_3863_6368)"/>
</svg>
