<svg width="20" height="20" viewBox="0 0 20 20" fill="none" xmlns="http://www.w3.org/2000/svg">
<path d="M6.875 5.3125C6.875 6.1413 7.20424 6.93616 7.79029 7.52221C8.37634 8.10826 9.1712 8.4375 10 8.4375C10.8288 8.4375 11.6237 8.10826 12.2097 7.52221C12.7958 6.93616 13.125 6.1413 13.125 5.3125C13.125 4.4837 12.7958 3.68884 12.2097 3.10279C11.6237 2.51674 10.8288 2.1875 10 2.1875C9.1712 2.1875 8.37634 2.51674 7.79029 3.10279C7.20424 3.68884 6.875 4.4837 6.875 5.3125Z" stroke="#313131" stroke-width="1.25"/>
<path d="M16.25 14.2969C16.25 16.2385 16.25 17.8125 10 17.8125C3.75 17.8125 3.75 16.2385 3.75 14.2969C3.75 12.3552 6.54822 10.7812 10 10.7812C13.4518 10.7812 16.25 12.3552 16.25 14.2969Z" stroke="#313131" stroke-width="1.25"/>
</svg>
