<svg width="16" height="16" viewBox="0 0 16 16" fill="none" xmlns="http://www.w3.org/2000/svg">
<path d="M4.25 6.74902H6.75" stroke="#313131" stroke-width="0.925414" stroke-linecap="round" stroke-linejoin="round"/>
<path d="M14.2486 8.31152C14.2486 8.26315 14.25 7.97859 14.2486 7.95815C14.2264 7.64515 13.958 7.3959 13.6209 7.37534C13.5989 7.37402 13.5729 7.37402 13.5208 7.37402H11.8943C10.7791 7.37402 9.875 8.21346 9.875 9.24902C9.875 10.2846 10.7791 11.124 11.8943 11.124H13.5208C13.5729 11.124 13.5989 11.124 13.6209 11.1227C13.958 11.1021 14.2264 10.8529 14.2486 10.5399C14.25 10.5195 14.25 10.2349 14.25 10.1865" stroke="#313131" stroke-width="0.925414" stroke-linecap="round"/>
<path d="M11.125 9.24902C11.125 9.41478 11.1908 9.57376 11.3081 9.69097C11.4253 9.80818 11.5842 9.87402 11.75 9.87402C11.9158 9.87402 12.0747 9.80818 12.1919 9.69097C12.3092 9.57376 12.375 9.41478 12.375 9.24902C12.375 9.08326 12.3092 8.92429 12.1919 8.80708C12.0747 8.68987 11.9158 8.62402 11.75 8.62402C11.5842 8.62402 11.4253 8.68987 11.3081 8.80708C11.1908 8.92429 11.125 9.08326 11.125 9.24902Z" fill="#313131"/>
<path d="M6.75 14.249H8.625C10.982 14.249 12.1606 14.249 12.8927 13.5168C13.3979 13.0117 13.5546 12.2942 13.6031 11.124M13.6031 7.37402C13.5546 6.20384 13.3979 5.48637 12.8927 4.98125C12.1606 4.24902 10.982 4.24902 8.625 4.24902H6.75C4.39297 4.24902 3.21447 4.24902 2.48223 4.98125C1.75 5.71349 1.75 6.89202 1.75 9.24902C1.75 11.606 1.75 12.7846 2.48223 13.5168C2.89047 13.925 3.43743 14.1056 4.25 14.1856" stroke="#313131" stroke-width="0.925414" stroke-linecap="round"/>
<path d="M4.25 4.24902L6.58468 2.70098C7.24212 2.26504 8.13287 2.26504 8.79031 2.70098L11.125 4.24902" stroke="#313131" stroke-width="0.925414" stroke-linecap="round"/>
</svg>
