<svg width="20" height="20" viewBox="0 0 20 20" fill="none" xmlns="http://www.w3.org/2000/svg">
<path d="M17.4082 15.4688C17.3778 16.2002 17.2799 16.6485 16.9642 16.9642C16.5066 17.4219 15.77 17.4219 14.2969 17.4219C12.8237 17.4219 12.0872 17.4219 11.6295 16.9642C11.1719 16.5066 11.1719 15.77 11.1719 14.2969V12.7344C11.1719 11.2612 11.1719 10.5247 11.6295 10.067C12.0872 9.60938 12.8237 9.60938 14.2969 9.60938C15.77 9.60938 16.5066 9.60938 16.9642 10.067C17.3795 10.4823 17.418 11.1272 17.4215 12.3438" stroke="#C7161E" stroke-width="1.25" stroke-linecap="round"/>
<path d="M2.1875 7.26562C2.1875 8.73875 2.1875 9.47531 2.64515 9.93297C3.10279 10.3906 3.83936 10.3906 5.3125 10.3906C6.78564 10.3906 7.52221 10.3906 7.97985 9.93297C8.4375 9.47531 8.4375 8.73875 8.4375 7.26562V5.70312C8.4375 4.22998 8.4375 3.49341 7.97985 3.03577C7.52221 2.57813 6.78564 2.57812 5.3125 2.57812C3.83936 2.57812 3.10279 2.57813 2.64515 3.03577C2.1875 3.49341 2.1875 4.22998 2.1875 5.70312V7.26562Z" stroke="#C7161E" stroke-width="1.25"/>
<path d="M12.7344 2.58862C12.4787 2.60169 12.2957 2.63107 12.1364 2.69706C11.7536 2.85564 11.4494 3.15982 11.2908 3.54268C11.1719 3.82982 11.1719 4.19383 11.1719 4.92187C11.1719 5.6499 11.1719 6.01392 11.2908 6.30106C11.4494 6.68392 11.7536 6.9881 12.1364 7.14668C12.4236 7.26562 12.7876 7.26562 13.5156 7.26562H15.0781C15.8062 7.26562 16.1702 7.26562 16.4573 7.14668C16.8402 6.9881 17.1444 6.68392 17.303 6.30106C17.4219 6.01392 17.4219 5.6499 17.4219 4.92187C17.4219 4.19383 17.4219 3.82982 17.303 3.54268C17.1444 3.15982 16.8402 2.85564 16.4573 2.69706C16.298 2.63107 16.1151 2.60169 15.8594 2.58862" stroke="#C7161E" stroke-width="1.25" stroke-linecap="round"/>
<path d="M2.1875 15.0781C2.1875 15.8062 2.1875 16.1702 2.30644 16.4573C2.46502 16.8402 2.7692 17.1444 3.15205 17.303C3.4392 17.4219 3.80322 17.4219 4.53125 17.4219H6.09375C6.82178 17.4219 7.1858 17.4219 7.47295 17.303C7.8558 17.1444 8.15998 16.8402 8.31856 16.4573C8.4375 16.1702 8.4375 15.8062 8.4375 15.0781C8.4375 14.3501 8.4375 13.9861 8.31856 13.6989C8.15998 13.3161 7.8558 13.0119 7.47295 12.8533C7.1858 12.7344 6.82178 12.7344 6.09375 12.7344H4.53125C3.80322 12.7344 3.4392 12.7344 3.15205 12.8533C2.7692 13.0119 2.46502 13.3161 2.30644 13.6989C2.1875 13.9861 2.1875 14.3501 2.1875 15.0781Z" stroke="#C7161E" stroke-width="1.25"/>
</svg>
