<svg width="17" height="17" viewBox="0 0 17 17" fill="none" xmlns="http://www.w3.org/2000/svg">
<g clip-path="url(#clip0_4331_2788)">
<path fill-rule="evenodd" clip-rule="evenodd" d="M0.170569 9.72463C0.169706 9.71552 0.169706 9.70633 0.170569 9.69721V3.29602C0.171027 3.22622 0.195946 3.15946 0.23989 3.1103C0.283835 3.06113 0.343242 3.03354 0.405159 3.03354H5.56615V1.23933C5.56615 0.962437 5.66373 0.696886 5.83743 0.501095C6.01112 0.305305 6.24671 0.195312 6.49235 0.195312H10.503C10.7483 0.195831 10.9835 0.306054 11.1568 0.501789C11.3301 0.697523 11.4274 0.962776 11.4274 1.23933V3.03158H16.5884C16.6507 3.03158 16.7103 3.05944 16.7543 3.10903C16.7983 3.15862 16.823 3.22588 16.823 3.29602V16.8114H0.170569V9.72463ZM6.03186 3.03354H10.9583V1.8818H6.03707L6.03186 3.03354Z" stroke="#231F20" stroke-width="2" stroke-miterlimit="10"/>
</g>
<defs>
<clipPath id="clip0_4331_2788">
<rect width="17" height="17" rx="2" fill="white"/>
</clipPath>
</defs>
</svg>
